<?xml version="1.0" encoding="UTF-8" standalone="no"?><svg xmlns="http://www.w3.org/2000/svg" xmlns:xlink="http://www.w3.org/1999/xlink" contentScriptType="application/ecmascript" contentStyleType="text/css" height="706px" preserveAspectRatio="none" style="width:862px;height:706px;" version="1.1" viewBox="0 0 862 706" width="862px" zoomAndPan="magnify"><defs><filter height="300%" id="fl1acxlp2q191" width="300%" x="-1" y="-1"><feGaussianBlur result="blurOut" stdDeviation="2.0"/><feColorMatrix in="blurOut" result="blurOut2" type="matrix" values="0 0 0 0 0 0 0 0 0 0 0 0 0 0 0 0 0 0 .4 0"/><feOffset dx="4.0" dy="4.0" in="blurOut2" result="blurOut3"/><feBlend in="SourceGraphic" in2="blurOut3" mode="normal"/></filter></defs><g><rect fill="#FFFFFF" filter="url(#fl1acxlp2q191)" height="484.4609" style="stroke:#A80036;stroke-width:1.0;" width="10" x="128.5" y="119.4297"/><rect fill="#FFFFFF" filter="url(#fl1acxlp2q191)" height="14" style="stroke:#A80036;stroke-width:1.0;" width="10" x="133.5" y="177.6953"/><rect fill="#FFFFFF" filter="url(#fl1acxlp2q191)" height="14" style="stroke:#A80036;stroke-width:1.0;" width="10" x="271.5" y="394.4922"/><rect fill="#FFFFFF" filter="url(#fl1acxlp2q191)" height="216.7969" style="stroke:#A80036;stroke-width:1.0;" width="10" x="378" y="148.5625"/><rect fill="#FFFFFF" filter="url(#fl1acxlp2q191)" height="29.1328" style="stroke:#A80036;stroke-width:1.0;" width="10" x="491" y="220.8281"/><rect fill="#FFFFFF" filter="url(#fl1acxlp2q191)" height="29.1328" style="stroke:#A80036;stroke-width:1.0;" width="10" x="491" y="279.0938"/><rect fill="#FFFFFF" filter="url(#fl1acxlp2q191)" height="14" style="stroke:#A80036;stroke-width:1.0;" width="10" x="605.5" y="337.3594"/><rect fill="#FFFFFF" filter="url(#fl1acxlp2q191)" height="152.2656" style="stroke:#A80036;stroke-width:1.0;" width="10" x="702" y="437.625"/><rect fill="#FFFFFF" filter="url(#fl1acxlp2q191)" height="25" style="stroke:#A80036;stroke-width:1.0;" width="10" x="707" y="474.7578"/><rect fill="#FFFFFF" filter="url(#fl1acxlp2q191)" height="25" style="stroke:#A80036;stroke-width:1.0;" width="10" x="707" y="543.8906"/><line style="stroke:#A80036;stroke-width:1.0;stroke-dasharray:5.0,5.0;" x1="45" x2="45" y1="88.2969" y2="621.8906"/><line style="stroke:#A80036;stroke-width:1.0;stroke-dasharray:5.0,5.0;" x1="133" x2="133" y1="88.2969" y2="621.8906"/><line style="stroke:#A80036;stroke-width:1.0;stroke-dasharray:5.0,5.0;" x1="276.5" x2="276.5" y1="88.2969" y2="621.8906"/><line style="stroke:#A80036;stroke-width:1.0;stroke-dasharray:5.0,5.0;" x1="382.5" x2="382.5" y1="88.2969" y2="621.8906"/><line style="stroke:#A80036;stroke-width:1.0;stroke-dasharray:5.0,5.0;" x1="495.5" x2="495.5" y1="88.2969" y2="621.8906"/><line style="stroke:#A80036;stroke-width:1.0;stroke-dasharray:5.0,5.0;" x1="610.5" x2="610.5" y1="88.2969" y2="621.8906"/><line style="stroke:#A80036;stroke-width:1.0;stroke-dasharray:5.0,5.0;" x1="706.5" x2="706.5" y1="88.2969" y2="621.8906"/><text fill="#000000" font-family="sans-serif" font-size="14" lengthAdjust="spacing" textLength="65" x="10" y="84.9951">Skeleton</text><ellipse cx="45.5" cy="15" fill="#FEFECE" filter="url(#fl1acxlp2q191)" rx="8" ry="8" style="stroke:#A80036;stroke-width:2.0;"/><path d="M45.5,23 L45.5,50 M32.5,31 L58.5,31 M45.5,50 L32.5,65 M45.5,50 L58.5,65 " fill="none" filter="url(#fl1acxlp2q191)" style="stroke:#A80036;stroke-width:2.0;"/><text fill="#000000" font-family="sans-serif" font-size="14" lengthAdjust="spacing" textLength="65" x="10" y="633.8857">Skeleton</text><ellipse cx="45.5" cy="647.1875" fill="#FEFECE" filter="url(#fl1acxlp2q191)" rx="8" ry="8" style="stroke:#A80036;stroke-width:2.0;"/><path d="M45.5,655.1875 L45.5,682.1875 M32.5,663.1875 L58.5,663.1875 M45.5,682.1875 L32.5,697.1875 M45.5,682.1875 L58.5,697.1875 " fill="none" filter="url(#fl1acxlp2q191)" style="stroke:#A80036;stroke-width:2.0;"/><rect fill="#FEFECE" filter="url(#fl1acxlp2q191)" height="30.2969" style="stroke:#A80036;stroke-width:1.5;" width="81" x="91" y="53"/><text fill="#000000" font-family="sans-serif" font-size="14" lengthAdjust="spacing" textLength="67" x="98" y="72.9951">s: Settler</text><rect fill="#FEFECE" filter="url(#fl1acxlp2q191)" height="30.2969" style="stroke:#A80036;stroke-width:1.5;" width="81" x="91" y="620.8906"/><text fill="#000000" font-family="sans-serif" font-size="14" lengthAdjust="spacing" textLength="67" x="98" y="640.8857">s: Settler</text><rect fill="#FEFECE" filter="url(#fl1acxlp2q191)" height="30.2969" style="stroke:#A80036;stroke-width:1.5;" width="92" x="228.5" y="53"/><text fill="#000000" font-family="sans-serif" font-size="14" lengthAdjust="spacing" textLength="78" x="235.5" y="72.9951">a: Asteroid</text><rect fill="#FEFECE" filter="url(#fl1acxlp2q191)" height="30.2969" style="stroke:#A80036;stroke-width:1.5;" width="92" x="228.5" y="620.8906"/><text fill="#000000" font-family="sans-serif" font-size="14" lengthAdjust="spacing" textLength="78" x="235.5" y="640.8857">a: Asteroid</text><rect fill="#FEFECE" filter="url(#fl1acxlp2q191)" height="30.2969" style="stroke:#A80036;stroke-width:1.5;" width="93" x="334.5" y="53"/><text fill="#000000" font-family="sans-serif" font-size="14" lengthAdjust="spacing" textLength="79" x="341.5" y="72.9951">t: Teleport</text><rect fill="#FEFECE" filter="url(#fl1acxlp2q191)" height="30.2969" style="stroke:#A80036;stroke-width:1.5;" width="93" x="334.5" y="620.8906"/><text fill="#000000" font-family="sans-serif" font-size="14" lengthAdjust="spacing" textLength="79" x="341.5" y="640.8857">t: Teleport</text><rect fill="#FEFECE" filter="url(#fl1acxlp2q191)" height="30.2969" style="stroke:#A80036;stroke-width:1.5;" width="101" x="443.5" y="53"/><text fill="#000000" font-family="sans-serif" font-size="14" lengthAdjust="spacing" textLength="87" x="450.5" y="72.9951">t2: Teleport</text><rect fill="#FEFECE" filter="url(#fl1acxlp2q191)" height="30.2969" style="stroke:#A80036;stroke-width:1.5;" width="101" x="443.5" y="620.8906"/><text fill="#000000" font-family="sans-serif" font-size="14" lengthAdjust="spacing" textLength="87" x="450.5" y="640.8857">t2: Teleport</text><rect fill="#FEFECE" filter="url(#fl1acxlp2q191)" height="30.2969" style="stroke:#A80036;stroke-width:1.5;" width="100" x="558.5" y="53"/><text fill="#000000" font-family="sans-serif" font-size="14" lengthAdjust="spacing" textLength="86" x="565.5" y="72.9951">a2: Asteroid</text><rect fill="#FEFECE" filter="url(#fl1acxlp2q191)" height="30.2969" style="stroke:#A80036;stroke-width:1.5;" width="100" x="558.5" y="620.8906"/><text fill="#000000" font-family="sans-serif" font-size="14" lengthAdjust="spacing" textLength="86" x="565.5" y="640.8857">a2: Asteroid</text><rect fill="#FEFECE" filter="url(#fl1acxlp2q191)" height="30.2969" style="stroke:#A80036;stroke-width:1.5;" width="65" x="672.5" y="53"/><text fill="#000000" font-family="sans-serif" font-size="14" lengthAdjust="spacing" textLength="51" x="679.5" y="72.9951">: Game</text><rect fill="#FEFECE" filter="url(#fl1acxlp2q191)" height="30.2969" style="stroke:#A80036;stroke-width:1.5;" width="65" x="672.5" y="620.8906"/><text fill="#000000" font-family="sans-serif" font-size="14" lengthAdjust="spacing" textLength="51" x="679.5" y="640.8857">: Game</text><rect fill="#FFFFFF" filter="url(#fl1acxlp2q191)" height="484.4609" style="stroke:#A80036;stroke-width:1.0;" width="10" x="128.5" y="119.4297"/><rect fill="#FFFFFF" filter="url(#fl1acxlp2q191)" height="14" style="stroke:#A80036;stroke-width:1.0;" width="10" x="133.5" y="177.6953"/><rect fill="#FFFFFF" filter="url(#fl1acxlp2q191)" height="14" style="stroke:#A80036;stroke-width:1.0;" width="10" x="271.5" y="394.4922"/><rect fill="#FFFFFF" filter="url(#fl1acxlp2q191)" height="216.7969" style="stroke:#A80036;stroke-width:1.0;" width="10" x="378" y="148.5625"/><rect fill="#FFFFFF" filter="url(#fl1acxlp2q191)" height="29.1328" style="stroke:#A80036;stroke-width:1.0;" width="10" x="491" y="220.8281"/><rect fill="#FFFFFF" filter="url(#fl1acxlp2q191)" height="29.1328" style="stroke:#A80036;stroke-width:1.0;" width="10" x="491" y="279.0938"/><rect fill="#FFFFFF" filter="url(#fl1acxlp2q191)" height="14" style="stroke:#A80036;stroke-width:1.0;" width="10" x="605.5" y="337.3594"/><rect fill="#FFFFFF" filter="url(#fl1acxlp2q191)" height="152.2656" style="stroke:#A80036;stroke-width:1.0;" width="10" x="702" y="437.625"/><rect fill="#FFFFFF" filter="url(#fl1acxlp2q191)" height="25" style="stroke:#A80036;stroke-width:1.0;" width="10" x="707" y="474.7578"/><rect fill="#FFFFFF" filter="url(#fl1acxlp2q191)" height="25" style="stroke:#A80036;stroke-width:1.0;" width="10" x="707" y="543.8906"/><polygon fill="#A80036" points="116.5,115.4297,126.5,119.4297,116.5,123.4297,120.5,119.4297" style="stroke:#A80036;stroke-width:1.0;"/><line style="stroke:#A80036;stroke-width:1.0;" x1="45.5" x2="122.5" y1="119.4297" y2="119.4297"/><text fill="#000000" font-family="sans-serif" font-size="13" lengthAdjust="spacing" textLength="29" x="52.5" y="114.3638">die()</text><polygon fill="#A80036" points="366,144.5625,376,148.5625,366,152.5625,370,148.5625" style="stroke:#A80036;stroke-width:1.0;"/><line style="stroke:#A80036;stroke-width:1.0;" x1="138.5" x2="372" y1="148.5625" y2="148.5625"/><text fill="#000000" font-family="sans-serif" font-size="13" lengthAdjust="spacing" textLength="59" x="145.5" y="143.4966">destroy()</text><polygon fill="#A80036" points="154.5,173.6953,144.5,177.6953,154.5,181.6953,150.5,177.6953" style="stroke:#A80036;stroke-width:1.0;"/><line style="stroke:#A80036;stroke-width:1.0;" x1="148.5" x2="377" y1="177.6953" y2="177.6953"/><text fill="#000000" font-family="sans-serif" font-size="13" lengthAdjust="spacing" textLength="118" x="160.5" y="172.6294">removeTeleport(t)</text><polygon fill="#A80036" points="366,187.6953,376,191.6953,366,195.6953,370,191.6953" style="stroke:#A80036;stroke-width:1.0;"/><line style="stroke:#A80036;stroke-width:1.0;stroke-dasharray:2.0,2.0;" x1="138.5" x2="372" y1="191.6953" y2="191.6953"/><polygon fill="#A80036" points="479,216.8281,489,220.8281,479,224.8281,483,220.8281" style="stroke:#A80036;stroke-width:1.0;"/><line style="stroke:#A80036;stroke-width:1.0;" x1="388" x2="485" y1="220.8281" y2="220.8281"/><text fill="#000000" font-family="sans-serif" font-size="13" lengthAdjust="spacing" textLength="62" x="395" y="215.7622">isPlaced()</text><polygon fill="#A80036" points="399,245.9609,389,249.9609,399,253.9609,395,249.9609" style="stroke:#A80036;stroke-width:1.0;"/><line style="stroke:#A80036;stroke-width:1.0;stroke-dasharray:2.0,2.0;" x1="393" x2="495" y1="249.9609" y2="249.9609"/><text fill="#000000" font-family="sans-serif" font-size="13" lengthAdjust="spacing" textLength="26" x="405" y="244.895">true</text><polygon fill="#A80036" points="479,275.0938,489,279.0938,479,283.0938,483,279.0938" style="stroke:#A80036;stroke-width:1.0;"/><line style="stroke:#A80036;stroke-width:1.0;" x1="388" x2="485" y1="279.0938" y2="279.0938"/><text fill="#000000" font-family="sans-serif" font-size="13" lengthAdjust="spacing" textLength="84" x="395" y="274.0278">getAsteroid()</text><polygon fill="#A80036" points="399,304.2266,389,308.2266,399,312.2266,395,308.2266" style="stroke:#A80036;stroke-width:1.0;"/><line style="stroke:#A80036;stroke-width:1.0;stroke-dasharray:2.0,2.0;" x1="393" x2="495" y1="308.2266" y2="308.2266"/><text fill="#000000" font-family="sans-serif" font-size="13" lengthAdjust="spacing" textLength="16" x="405" y="303.1606">a2</text><polygon fill="#A80036" points="593.5,333.3594,603.5,337.3594,593.5,341.3594,597.5,337.3594" style="stroke:#A80036;stroke-width:1.0;"/><line style="stroke:#A80036;stroke-width:1.0;" x1="388" x2="599.5" y1="337.3594" y2="337.3594"/><text fill="#000000" font-family="sans-serif" font-size="13" lengthAdjust="spacing" textLength="130" x="395" y="332.2935">removeNeighbor(t2)</text><polygon fill="#A80036" points="399,347.3594,389,351.3594,399,355.3594,395,351.3594" style="stroke:#A80036;stroke-width:1.0;"/><line style="stroke:#A80036;stroke-width:1.0;stroke-dasharray:2.0,2.0;" x1="393" x2="609.5" y1="351.3594" y2="351.3594"/><polygon fill="#A80036" points="149.5,361.3594,139.5,365.3594,149.5,369.3594,145.5,365.3594" style="stroke:#A80036;stroke-width:1.0;"/><line style="stroke:#A80036;stroke-width:1.0;stroke-dasharray:2.0,2.0;" x1="143.5" x2="382" y1="365.3594" y2="365.3594"/><line style="stroke:#A80036;stroke-width:2.0;" x1="374" x2="392" y1="356.3594" y2="374.3594"/><line style="stroke:#A80036;stroke-width:2.0;" x1="374" x2="392" y1="374.3594" y2="356.3594"/><line style="stroke:#A80036;stroke-width:2.0;" x1="487" x2="505" y1="356.3594" y2="374.3594"/><line style="stroke:#A80036;stroke-width:2.0;" x1="487" x2="505" y1="374.3594" y2="356.3594"/><polygon fill="#A80036" points="259.5,390.4922,269.5,394.4922,259.5,398.4922,263.5,394.4922" style="stroke:#A80036;stroke-width:1.0;"/><line style="stroke:#A80036;stroke-width:1.0;" x1="138.5" x2="265.5" y1="394.4922" y2="394.4922"/><text fill="#000000" font-family="sans-serif" font-size="13" lengthAdjust="spacing" textLength="114" x="145.5" y="389.4263">removeWorker(a)</text><polygon fill="#A80036" points="149.5,404.4922,139.5,408.4922,149.5,412.4922,145.5,408.4922" style="stroke:#A80036;stroke-width:1.0;"/><line style="stroke:#A80036;stroke-width:1.0;stroke-dasharray:2.0,2.0;" x1="143.5" x2="275.5" y1="408.4922" y2="408.4922"/><polygon fill="#A80036" points="690,433.625,700,437.625,690,441.625,694,437.625" style="stroke:#A80036;stroke-width:1.0;"/><line style="stroke:#A80036;stroke-width:1.0;" x1="138.5" x2="696" y1="437.625" y2="437.625"/><text fill="#000000" font-family="sans-serif" font-size="13" lengthAdjust="spacing" textLength="109" x="145.5" y="432.5591">removeSettler(s)</text><line style="stroke:#A80036;stroke-width:1.0;" x1="712" x2="759" y1="461.7578" y2="461.7578"/><line style="stroke:#A80036;stroke-width:1.0;" x1="759" x2="759" y1="461.7578" y2="474.7578"/><line style="stroke:#A80036;stroke-width:1.0;" x1="718" x2="759" y1="474.7578" y2="474.7578"/><polygon fill="#A80036" points="728,470.7578,718,474.7578,728,478.7578,724,474.7578" style="stroke:#A80036;stroke-width:1.0;"/><text fill="#000000" font-family="sans-serif" font-size="13" lengthAdjust="spacing" textLength="131" x="724" y="456.6919">removeSteppable(s)</text><line style="stroke:#A80036;stroke-width:1.0;stroke-dasharray:2.0,2.0;" x1="717" x2="759" y1="498.7578" y2="498.7578"/><line style="stroke:#A80036;stroke-width:1.0;stroke-dasharray:2.0,2.0;" x1="759" x2="759" y1="498.7578" y2="511.7578"/><line style="stroke:#A80036;stroke-width:1.0;stroke-dasharray:2.0,2.0;" x1="712" x2="759" y1="511.7578" y2="511.7578"/><polygon fill="#A80036" points="722,507.7578,712,511.7578,722,515.7578,718,511.7578" style="stroke:#A80036;stroke-width:1.0;"/><line style="stroke:#A80036;stroke-width:1.0;" x1="712" x2="759" y1="530.8906" y2="530.8906"/><line style="stroke:#A80036;stroke-width:1.0;" x1="759" x2="759" y1="530.8906" y2="543.8906"/><line style="stroke:#A80036;stroke-width:1.0;" x1="718" x2="759" y1="543.8906" y2="543.8906"/><polygon fill="#A80036" points="728,539.8906,718,543.8906,728,547.8906,724,543.8906" style="stroke:#A80036;stroke-width:1.0;"/><text fill="#000000" font-family="sans-serif" font-size="13" lengthAdjust="spacing" textLength="104" x="724" y="525.8247">endGame(false)</text><line style="stroke:#A80036;stroke-width:1.0;stroke-dasharray:2.0,2.0;" x1="717" x2="759" y1="567.8906" y2="567.8906"/><line style="stroke:#A80036;stroke-width:1.0;stroke-dasharray:2.0,2.0;" x1="759" x2="759" y1="567.8906" y2="580.8906"/><line style="stroke:#A80036;stroke-width:1.0;stroke-dasharray:2.0,2.0;" x1="712" x2="759" y1="580.8906" y2="580.8906"/><polygon fill="#A80036" points="722,576.8906,712,580.8906,722,584.8906,718,580.8906" style="stroke:#A80036;stroke-width:1.0;"/><polygon fill="#A80036" points="149.5,585.8906,139.5,589.8906,149.5,593.8906,145.5,589.8906" style="stroke:#A80036;stroke-width:1.0;"/><line style="stroke:#A80036;stroke-width:1.0;stroke-dasharray:2.0,2.0;" x1="143.5" x2="706" y1="589.8906" y2="589.8906"/><polygon fill="#A80036" points="56.5,599.8906,46.5,603.8906,56.5,607.8906,52.5,603.8906" style="stroke:#A80036;stroke-width:1.0;"/><line style="stroke:#A80036;stroke-width:1.0;stroke-dasharray:2.0,2.0;" x1="50.5" x2="132.5" y1="603.8906" y2="603.8906"/><!--MD5=[11f3972608e507a5ac41aa6fc5bddeef]
@startuml
actor "Skeleton" as controller
participant "s: Settler" as s
participant "a: Asteroid" as a
participant "t: Teleport" as t
participant "t2: Teleport" as t2
participant "a2: Asteroid" as a2


participant ": Game" as game

controller -> s++: die()
    s->t ++:destroy()
        t->s ++:removeTeleport(t)
        return
        
        t->t2 ++:isPlaced()
        return true
        
        t->t2 ++:getAsteroid()
        return a2
        
        t-> a2 ++:removeNeighbor(t2)
        return
        
    return
    destroy t
    destroy t2



    s->a ++:removeWorker(a)
    return
    
    s->game ++:removeSettler(s)
        game->game ++:removeSteppable(s)
        return
        game->game ++:endGame(false)
        return
    return
    
return
@enduml

PlantUML version 1.2021.3beta7(Unknown compile time)
(GPL source distribution)
Java Runtime: Java(TM) SE Runtime Environment
JVM: Java HotSpot(TM) 64-Bit Server VM
Default Encoding: UTF-8
Language: en
Country: US
--></g></svg>