<?xml version="1.0" encoding="UTF-8" standalone="no"?><svg xmlns="http://www.w3.org/2000/svg" xmlns:xlink="http://www.w3.org/1999/xlink" contentScriptType="application/ecmascript" contentStyleType="text/css" height="593px" preserveAspectRatio="none" style="width:642px;height:593px;" version="1.1" viewBox="0 0 642 593" width="642px" zoomAndPan="magnify"><defs><filter height="300%" id="f1opxmzdns6buw" width="300%" x="-1" y="-1"><feGaussianBlur result="blurOut" stdDeviation="2.0"/><feColorMatrix in="blurOut" result="blurOut2" type="matrix" values="0 0 0 0 0 0 0 0 0 0 0 0 0 0 0 0 0 0 .4 0"/><feOffset dx="4.0" dy="4.0" in="blurOut2" result="blurOut3"/><feBlend in="SourceGraphic" in2="blurOut3" mode="normal"/></filter></defs><g><rect fill="#FFFFFF" filter="url(#f1opxmzdns6buw)" height="372.1953" style="stroke:#A80036;stroke-width:1.0;" width="10" x="134" y="119.4297"/><rect fill="#FFFFFF" filter="url(#f1opxmzdns6buw)" height="14" style="stroke:#A80036;stroke-width:1.0;" width="10" x="139" y="219.8281"/><rect fill="#FFFFFF" filter="url(#f1opxmzdns6buw)" height="285.9297" style="stroke:#A80036;stroke-width:1.0;" width="10" x="290" y="148.5625"/><rect fill="#FFFFFF" filter="url(#f1opxmzdns6buw)" height="227.7969" style="stroke:#A80036;stroke-width:1.0;" width="10" x="295" y="185.6953"/><rect fill="#FFFFFF" filter="url(#f1opxmzdns6buw)" height="29.1328" style="stroke:#A80036;stroke-width:1.0;" width="10" x="401" y="262.9609"/><rect fill="#FFFFFF" filter="url(#f1opxmzdns6buw)" height="29.1328" style="stroke:#A80036;stroke-width:1.0;" width="10" x="401" y="321.2266"/><rect fill="#FFFFFF" filter="url(#f1opxmzdns6buw)" height="14" style="stroke:#A80036;stroke-width:1.0;" width="10" x="506" y="379.4922"/><rect fill="#FFFFFF" filter="url(#f1opxmzdns6buw)" height="14" style="stroke:#A80036;stroke-width:1.0;" width="10" x="593" y="463.625"/><line style="stroke:#A80036;stroke-width:1.0;stroke-dasharray:5.0,5.0;" x1="45" x2="45" y1="88.2969" y2="509.625"/><line style="stroke:#A80036;stroke-width:1.0;stroke-dasharray:5.0,5.0;" x1="139" x2="139" y1="88.2969" y2="509.625"/><line style="stroke:#A80036;stroke-width:1.0;stroke-dasharray:5.0,5.0;" x1="294.5" x2="294.5" y1="88.2969" y2="509.625"/><line style="stroke:#A80036;stroke-width:1.0;stroke-dasharray:5.0,5.0;" x1="405.5" x2="405.5" y1="88.2969" y2="509.625"/><line style="stroke:#A80036;stroke-width:1.0;stroke-dasharray:5.0,5.0;" x1="510.5" x2="510.5" y1="88.2969" y2="509.625"/><line style="stroke:#A80036;stroke-width:1.0;stroke-dasharray:5.0,5.0;" x1="597.5" x2="597.5" y1="88.2969" y2="509.625"/><text fill="#000000" font-family="sans-serif" font-size="14" lengthAdjust="spacing" textLength="65" x="10" y="84.9951">Skeleton</text><ellipse cx="45.5" cy="15" fill="#FEFECE" filter="url(#f1opxmzdns6buw)" rx="8" ry="8" style="stroke:#A80036;stroke-width:2.0;"/><path d="M45.5,23 L45.5,50 M32.5,31 L58.5,31 M45.5,50 L32.5,65 M45.5,50 L58.5,65 " fill="none" filter="url(#f1opxmzdns6buw)" style="stroke:#A80036;stroke-width:2.0;"/><text fill="#000000" font-family="sans-serif" font-size="14" lengthAdjust="spacing" textLength="65" x="10" y="521.6201">Skeleton</text><ellipse cx="45.5" cy="534.9219" fill="#FEFECE" filter="url(#f1opxmzdns6buw)" rx="8" ry="8" style="stroke:#A80036;stroke-width:2.0;"/><path d="M45.5,542.9219 L45.5,569.9219 M32.5,550.9219 L58.5,550.9219 M45.5,569.9219 L32.5,584.9219 M45.5,569.9219 L58.5,584.9219 " fill="none" filter="url(#f1opxmzdns6buw)" style="stroke:#A80036;stroke-width:2.0;"/><rect fill="#FEFECE" filter="url(#f1opxmzdns6buw)" height="30.2969" style="stroke:#A80036;stroke-width:1.5;" width="92" x="91" y="53"/><text fill="#000000" font-family="sans-serif" font-size="14" lengthAdjust="spacing" textLength="78" x="98" y="72.9951">a: Asteroid</text><rect fill="#FEFECE" filter="url(#f1opxmzdns6buw)" height="30.2969" style="stroke:#A80036;stroke-width:1.5;" width="92" x="91" y="508.625"/><text fill="#000000" font-family="sans-serif" font-size="14" lengthAdjust="spacing" textLength="78" x="98" y="528.6201">a: Asteroid</text><rect fill="#FEFECE" filter="url(#f1opxmzdns6buw)" height="30.2969" style="stroke:#A80036;stroke-width:1.5;" width="93" x="246.5" y="53"/><text fill="#000000" font-family="sans-serif" font-size="14" lengthAdjust="spacing" textLength="79" x="253.5" y="72.9951">t: Teleport</text><rect fill="#FEFECE" filter="url(#f1opxmzdns6buw)" height="30.2969" style="stroke:#A80036;stroke-width:1.5;" width="93" x="246.5" y="508.625"/><text fill="#000000" font-family="sans-serif" font-size="14" lengthAdjust="spacing" textLength="79" x="253.5" y="528.6201">t: Teleport</text><rect fill="#FEFECE" filter="url(#f1opxmzdns6buw)" height="30.2969" style="stroke:#A80036;stroke-width:1.5;" width="101" x="353.5" y="53"/><text fill="#000000" font-family="sans-serif" font-size="14" lengthAdjust="spacing" textLength="87" x="360.5" y="72.9951">t2: Teleport</text><rect fill="#FEFECE" filter="url(#f1opxmzdns6buw)" height="30.2969" style="stroke:#A80036;stroke-width:1.5;" width="101" x="353.5" y="508.625"/><text fill="#000000" font-family="sans-serif" font-size="14" lengthAdjust="spacing" textLength="87" x="360.5" y="528.6201">t2: Teleport</text><rect fill="#FEFECE" filter="url(#f1opxmzdns6buw)" height="30.2969" style="stroke:#A80036;stroke-width:1.5;" width="81" x="468.5" y="53"/><text fill="#000000" font-family="sans-serif" font-size="14" lengthAdjust="spacing" textLength="67" x="475.5" y="72.9951">s: Settler</text><rect fill="#FEFECE" filter="url(#f1opxmzdns6buw)" height="30.2969" style="stroke:#A80036;stroke-width:1.5;" width="81" x="468.5" y="508.625"/><text fill="#000000" font-family="sans-serif" font-size="14" lengthAdjust="spacing" textLength="67" x="475.5" y="528.6201">s: Settler</text><rect fill="#FEFECE" filter="url(#f1opxmzdns6buw)" height="30.2969" style="stroke:#A80036;stroke-width:1.5;" width="65" x="563.5" y="53"/><text fill="#000000" font-family="sans-serif" font-size="14" lengthAdjust="spacing" textLength="51" x="570.5" y="72.9951">: Game</text><rect fill="#FEFECE" filter="url(#f1opxmzdns6buw)" height="30.2969" style="stroke:#A80036;stroke-width:1.5;" width="65" x="563.5" y="508.625"/><text fill="#000000" font-family="sans-serif" font-size="14" lengthAdjust="spacing" textLength="51" x="570.5" y="528.6201">: Game</text><rect fill="#FFFFFF" filter="url(#f1opxmzdns6buw)" height="372.1953" style="stroke:#A80036;stroke-width:1.0;" width="10" x="134" y="119.4297"/><rect fill="#FFFFFF" filter="url(#f1opxmzdns6buw)" height="14" style="stroke:#A80036;stroke-width:1.0;" width="10" x="139" y="219.8281"/><rect fill="#FFFFFF" filter="url(#f1opxmzdns6buw)" height="285.9297" style="stroke:#A80036;stroke-width:1.0;" width="10" x="290" y="148.5625"/><rect fill="#FFFFFF" filter="url(#f1opxmzdns6buw)" height="227.7969" style="stroke:#A80036;stroke-width:1.0;" width="10" x="295" y="185.6953"/><rect fill="#FFFFFF" filter="url(#f1opxmzdns6buw)" height="29.1328" style="stroke:#A80036;stroke-width:1.0;" width="10" x="401" y="262.9609"/><rect fill="#FFFFFF" filter="url(#f1opxmzdns6buw)" height="29.1328" style="stroke:#A80036;stroke-width:1.0;" width="10" x="401" y="321.2266"/><rect fill="#FFFFFF" filter="url(#f1opxmzdns6buw)" height="14" style="stroke:#A80036;stroke-width:1.0;" width="10" x="506" y="379.4922"/><rect fill="#FFFFFF" filter="url(#f1opxmzdns6buw)" height="14" style="stroke:#A80036;stroke-width:1.0;" width="10" x="593" y="463.625"/><polygon fill="#A80036" points="122,115.4297,132,119.4297,122,123.4297,126,119.4297" style="stroke:#A80036;stroke-width:1.0;"/><line style="stroke:#A80036;stroke-width:1.0;" x1="45.5" x2="128" y1="119.4297" y2="119.4297"/><text fill="#000000" font-family="sans-serif" font-size="13" lengthAdjust="spacing" textLength="61" x="52.5" y="114.3638">explode()</text><polygon fill="#A80036" points="278,144.5625,288,148.5625,278,152.5625,282,148.5625" style="stroke:#A80036;stroke-width:1.0;"/><line style="stroke:#A80036;stroke-width:1.0;" x1="144" x2="284" y1="148.5625" y2="148.5625"/><text fill="#000000" font-family="sans-serif" font-size="13" lengthAdjust="spacing" textLength="125" x="151" y="143.4966">removeNeighbor(a)</text><line style="stroke:#A80036;stroke-width:1.0;" x1="300" x2="347" y1="172.6953" y2="172.6953"/><line style="stroke:#A80036;stroke-width:1.0;" x1="347" x2="347" y1="172.6953" y2="185.6953"/><line style="stroke:#A80036;stroke-width:1.0;" x1="306" x2="347" y1="185.6953" y2="185.6953"/><polygon fill="#A80036" points="316,181.6953,306,185.6953,316,189.6953,312,185.6953" style="stroke:#A80036;stroke-width:1.0;"/><text fill="#000000" font-family="sans-serif" font-size="13" lengthAdjust="spacing" textLength="59" x="312" y="167.6294">destroy()</text><polygon fill="#A80036" points="160,215.8281,150,219.8281,160,223.8281,156,219.8281" style="stroke:#A80036;stroke-width:1.0;"/><line style="stroke:#A80036;stroke-width:1.0;" x1="154" x2="294" y1="219.8281" y2="219.8281"/><text fill="#000000" font-family="sans-serif" font-size="13" lengthAdjust="spacing" textLength="122" x="166" y="214.7622">removeNeighbor(t)</text><polygon fill="#A80036" points="283,229.8281,293,233.8281,283,237.8281,287,233.8281" style="stroke:#A80036;stroke-width:1.0;"/><line style="stroke:#A80036;stroke-width:1.0;stroke-dasharray:2.0,2.0;" x1="144" x2="289" y1="233.8281" y2="233.8281"/><polygon fill="#A80036" points="389,258.9609,399,262.9609,389,266.9609,393,262.9609" style="stroke:#A80036;stroke-width:1.0;"/><line style="stroke:#A80036;stroke-width:1.0;" x1="305" x2="395" y1="262.9609" y2="262.9609"/><text fill="#000000" font-family="sans-serif" font-size="13" lengthAdjust="spacing" textLength="62" x="312" y="257.895">isPlaced()</text><polygon fill="#A80036" points="316,288.0938,306,292.0938,316,296.0938,312,292.0938" style="stroke:#A80036;stroke-width:1.0;"/><line style="stroke:#A80036;stroke-width:1.0;stroke-dasharray:2.0,2.0;" x1="310" x2="405" y1="292.0938" y2="292.0938"/><text fill="#000000" font-family="sans-serif" font-size="13" lengthAdjust="spacing" textLength="31" x="322" y="287.0278">false</text><polygon fill="#A80036" points="389,317.2266,399,321.2266,389,325.2266,393,321.2266" style="stroke:#A80036;stroke-width:1.0;"/><line style="stroke:#A80036;stroke-width:1.0;" x1="305" x2="395" y1="321.2266" y2="321.2266"/><text fill="#000000" font-family="sans-serif" font-size="13" lengthAdjust="spacing" textLength="72" x="312" y="316.1606">getHolder()</text><polygon fill="#A80036" points="316,346.3594,306,350.3594,316,354.3594,312,350.3594" style="stroke:#A80036;stroke-width:1.0;"/><line style="stroke:#A80036;stroke-width:1.0;stroke-dasharray:2.0,2.0;" x1="310" x2="405" y1="350.3594" y2="350.3594"/><text fill="#000000" font-family="sans-serif" font-size="13" lengthAdjust="spacing" textLength="7" x="322" y="345.2935">s</text><polygon fill="#A80036" points="494,375.4922,504,379.4922,494,383.4922,498,379.4922" style="stroke:#A80036;stroke-width:1.0;"/><line style="stroke:#A80036;stroke-width:1.0;" x1="305" x2="500" y1="379.4922" y2="379.4922"/><text fill="#000000" font-family="sans-serif" font-size="13" lengthAdjust="spacing" textLength="126" x="312" y="374.4263">removeTeleport(t2)</text><polygon fill="#A80036" points="316,389.4922,306,393.4922,316,397.4922,312,393.4922" style="stroke:#A80036;stroke-width:1.0;"/><line style="stroke:#A80036;stroke-width:1.0;stroke-dasharray:2.0,2.0;" x1="310" x2="510" y1="393.4922" y2="393.4922"/><line style="stroke:#A80036;stroke-width:1.0;stroke-dasharray:2.0,2.0;" x1="305" x2="347" y1="412.4922" y2="412.4922"/><line style="stroke:#A80036;stroke-width:1.0;stroke-dasharray:2.0,2.0;" x1="347" x2="347" y1="412.4922" y2="425.4922"/><line style="stroke:#A80036;stroke-width:1.0;stroke-dasharray:2.0,2.0;" x1="300" x2="347" y1="425.4922" y2="425.4922"/><polygon fill="#A80036" points="310,421.4922,300,425.4922,310,429.4922,306,425.4922" style="stroke:#A80036;stroke-width:1.0;"/><polygon fill="#A80036" points="155,430.4922,145,434.4922,155,438.4922,151,434.4922" style="stroke:#A80036;stroke-width:1.0;"/><line style="stroke:#A80036;stroke-width:1.0;stroke-dasharray:2.0,2.0;" x1="149" x2="294" y1="434.4922" y2="434.4922"/><line style="stroke:#A80036;stroke-width:2.0;" x1="286" x2="304" y1="425.4922" y2="443.4922"/><line style="stroke:#A80036;stroke-width:2.0;" x1="286" x2="304" y1="443.4922" y2="425.4922"/><line style="stroke:#A80036;stroke-width:2.0;" x1="397" x2="415" y1="425.4922" y2="443.4922"/><line style="stroke:#A80036;stroke-width:2.0;" x1="397" x2="415" y1="443.4922" y2="425.4922"/><polygon fill="#A80036" points="581,459.625,591,463.625,581,467.625,585,463.625" style="stroke:#A80036;stroke-width:1.0;"/><line style="stroke:#A80036;stroke-width:1.0;" x1="144" x2="587" y1="463.625" y2="463.625"/><text fill="#000000" font-family="sans-serif" font-size="13" lengthAdjust="spacing" textLength="132" x="151" y="458.5591">removeSteppable(a)</text><polygon fill="#A80036" points="155,473.625,145,477.625,155,481.625,151,477.625" style="stroke:#A80036;stroke-width:1.0;"/><line style="stroke:#A80036;stroke-width:1.0;stroke-dasharray:2.0,2.0;" x1="149" x2="597" y1="477.625" y2="477.625"/><polygon fill="#A80036" points="56.5,487.625,46.5,491.625,56.5,495.625,52.5,491.625" style="stroke:#A80036;stroke-width:1.0;"/><line style="stroke:#A80036;stroke-width:1.0;stroke-dasharray:2.0,2.0;" x1="50.5" x2="138" y1="491.625" y2="491.625"/><!--MD5=[eeeacac4fe0bb08a84e0ca4867f3ac2d]
@startuml
actor "Skeleton" as controller
participant "a: Asteroid" as a
participant "t: Teleport" as t
participant "t2: Teleport" as t2
participant "s: Settler" as s

participant ": Game" as game

controller -> a++: explode()
    a-> t++: removeNeighbor(a)
        t->t ++:destroy()
            t->a ++:removeNeighbor(t)
            return
            
            t->t2 ++:isPlaced()
            return false
            t->t2 ++:getHolder()
            return s
            
            t->s ++:removeTeleport(t2)
            return
        return
    return
    destroy t
    destroy t2
    
    a->game ++:removeSteppable(a)
    return
return
@enduml

PlantUML version 1.2021.3beta7(Unknown compile time)
(GPL source distribution)
Java Runtime: Java(TM) SE Runtime Environment
JVM: Java HotSpot(TM) 64-Bit Server VM
Default Encoding: UTF-8
Language: en
Country: US
--></g></svg>