<?xml version="1.0" encoding="UTF-8" standalone="no"?><svg xmlns="http://www.w3.org/2000/svg" xmlns:xlink="http://www.w3.org/1999/xlink" contentScriptType="application/ecmascript" contentStyleType="text/css" height="396px" preserveAspectRatio="none" style="width:435px;height:396px;" version="1.1" viewBox="0 0 435 396" width="435px" zoomAndPan="magnify"><defs><filter height="300%" id="fa9hex5fy3u3j" width="300%" x="-1" y="-1"><feGaussianBlur result="blurOut" stdDeviation="2.0"/><feColorMatrix in="blurOut" result="blurOut2" type="matrix" values="0 0 0 0 0 0 0 0 0 0 0 0 0 0 0 0 0 0 .4 0"/><feOffset dx="4.0" dy="4.0" in="blurOut2" result="blurOut3"/><feBlend in="SourceGraphic" in2="blurOut3" mode="normal"/></filter></defs><g><rect fill="#FFFFFF" filter="url(#fa9hex5fy3u3j)" height="174.5313" style="stroke:#A80036;stroke-width:1.0;" width="10" x="125" y="119.4297"/><rect fill="#FFFFFF" filter="url(#fa9hex5fy3u3j)" height="131.3984" style="stroke:#A80036;stroke-width:1.0;" width="10" x="222" y="148.5625"/><rect fill="#FFFFFF" filter="url(#fa9hex5fy3u3j)" height="14" style="stroke:#A80036;stroke-width:1.0;" width="10" x="227" y="230.9609"/><rect fill="#FFFFFF" filter="url(#fa9hex5fy3u3j)" height="57.1328" style="stroke:#A80036;stroke-width:1.0;" width="10" x="366" y="201.8281"/><rect fill="#FFFFFF" filter="url(#fa9hex5fy3u3j)" height="103.3984" style="stroke:#000000;stroke-width:2.0;" width="252" x="169" y="163.5625"/><line style="stroke:#A80036;stroke-width:1.0;stroke-dasharray:5.0,5.0;" x1="45" x2="45" y1="88.2969" y2="311.9609"/><line style="stroke:#A80036;stroke-width:1.0;stroke-dasharray:5.0,5.0;" x1="130" x2="130" y1="88.2969" y2="311.9609"/><line style="stroke:#A80036;stroke-width:1.0;stroke-dasharray:5.0,5.0;" x1="227" x2="227" y1="88.2969" y2="311.9609"/><line style="stroke:#A80036;stroke-width:1.0;stroke-dasharray:5.0,5.0;" x1="371" x2="371" y1="88.2969" y2="311.9609"/><text fill="#000000" font-family="sans-serif" font-size="14" lengthAdjust="spacing" textLength="65" x="10" y="84.9951">Skeleton</text><ellipse cx="45.5" cy="15" fill="#FEFECE" filter="url(#fa9hex5fy3u3j)" rx="8" ry="8" style="stroke:#A80036;stroke-width:2.0;"/><path d="M45.5,23 L45.5,50 M32.5,31 L58.5,31 M45.5,50 L32.5,65 M45.5,50 L58.5,65 " fill="none" filter="url(#fa9hex5fy3u3j)" style="stroke:#A80036;stroke-width:2.0;"/><text fill="#000000" font-family="sans-serif" font-size="14" lengthAdjust="spacing" textLength="65" x="10" y="323.9561">Skeleton</text><ellipse cx="45.5" cy="337.2578" fill="#FEFECE" filter="url(#fa9hex5fy3u3j)" rx="8" ry="8" style="stroke:#A80036;stroke-width:2.0;"/><path d="M45.5,345.2578 L45.5,372.2578 M32.5,353.2578 L58.5,353.2578 M45.5,372.2578 L32.5,387.2578 M45.5,372.2578 L58.5,387.2578 " fill="none" filter="url(#fa9hex5fy3u3j)" style="stroke:#A80036;stroke-width:2.0;"/><rect fill="#FEFECE" filter="url(#fa9hex5fy3u3j)" height="30.2969" style="stroke:#A80036;stroke-width:1.5;" width="74" x="91" y="53"/><text fill="#000000" font-family="sans-serif" font-size="14" lengthAdjust="spacing" textLength="60" x="98" y="72.9951">r: Robot</text><rect fill="#FEFECE" filter="url(#fa9hex5fy3u3j)" height="30.2969" style="stroke:#A80036;stroke-width:1.5;" width="74" x="91" y="310.9609"/><text fill="#000000" font-family="sans-serif" font-size="14" lengthAdjust="spacing" textLength="60" x="98" y="330.9561">r: Robot</text><rect fill="#FEFECE" filter="url(#fa9hex5fy3u3j)" height="30.2969" style="stroke:#A80036;stroke-width:1.5;" width="92" x="179" y="53"/><text fill="#000000" font-family="sans-serif" font-size="14" lengthAdjust="spacing" textLength="78" x="186" y="72.9951">a: Asteroid</text><rect fill="#FEFECE" filter="url(#fa9hex5fy3u3j)" height="30.2969" style="stroke:#A80036;stroke-width:1.5;" width="92" x="179" y="310.9609"/><text fill="#000000" font-family="sans-serif" font-size="14" lengthAdjust="spacing" textLength="78" x="186" y="330.9561">a: Asteroid</text><rect fill="#FEFECE" filter="url(#fa9hex5fy3u3j)" height="30.2969" style="stroke:#A80036;stroke-width:1.5;" width="76" x="331" y="53"/><text fill="#000000" font-family="sans-serif" font-size="14" lengthAdjust="spacing" textLength="62" x="338" y="72.9951">core: Ice</text><rect fill="#FEFECE" filter="url(#fa9hex5fy3u3j)" height="30.2969" style="stroke:#A80036;stroke-width:1.5;" width="76" x="331" y="310.9609"/><text fill="#000000" font-family="sans-serif" font-size="14" lengthAdjust="spacing" textLength="62" x="338" y="330.9561">core: Ice</text><rect fill="#FFFFFF" filter="url(#fa9hex5fy3u3j)" height="174.5313" style="stroke:#A80036;stroke-width:1.0;" width="10" x="125" y="119.4297"/><rect fill="#FFFFFF" filter="url(#fa9hex5fy3u3j)" height="131.3984" style="stroke:#A80036;stroke-width:1.0;" width="10" x="222" y="148.5625"/><rect fill="#FFFFFF" filter="url(#fa9hex5fy3u3j)" height="14" style="stroke:#A80036;stroke-width:1.0;" width="10" x="227" y="230.9609"/><rect fill="#FFFFFF" filter="url(#fa9hex5fy3u3j)" height="57.1328" style="stroke:#A80036;stroke-width:1.0;" width="10" x="366" y="201.8281"/><polygon fill="#A80036" points="113,115.4297,123,119.4297,113,123.4297,117,119.4297" style="stroke:#A80036;stroke-width:1.0;"/><line style="stroke:#A80036;stroke-width:1.0;" x1="45.5" x2="119" y1="119.4297" y2="119.4297"/><text fill="#000000" font-family="sans-serif" font-size="13" lengthAdjust="spacing" textLength="32" x="52.5" y="114.3638">drill()</text><polygon fill="#A80036" points="210,144.5625,220,148.5625,210,152.5625,214,148.5625" style="stroke:#A80036;stroke-width:1.0;"/><line style="stroke:#A80036;stroke-width:1.0;" x1="135" x2="216" y1="148.5625" y2="148.5625"/><text fill="#000000" font-family="sans-serif" font-size="13" lengthAdjust="spacing" textLength="48" x="142" y="143.4966">drilled()</text><path d="M169,163.5625 L241,163.5625 L241,170.5625 L231,180.5625 L169,180.5625 L169,163.5625 " fill="#EEEEEE" style="stroke:#000000;stroke-width:1.0;"/><rect fill="none" height="103.3984" style="stroke:#000000;stroke-width:2.0;" width="252" x="169" y="163.5625"/><text fill="#000000" font-family="sans-serif" font-size="13" font-weight="bold" lengthAdjust="spacing" textLength="27" x="184" y="176.6294">opt</text><text fill="#000000" font-family="sans-serif" font-size="11" font-weight="bold" lengthAdjust="spacing" textLength="75" x="256" y="175.7729">[isExposed]</text><polygon fill="#A80036" points="354,197.8281,364,201.8281,354,205.8281,358,201.8281" style="stroke:#A80036;stroke-width:1.0;"/><line style="stroke:#A80036;stroke-width:1.0;" x1="232" x2="360" y1="201.8281" y2="201.8281"/><text fill="#000000" font-family="sans-serif" font-size="13" lengthAdjust="spacing" textLength="73" x="239" y="196.7622">exposed(a)</text><polygon fill="#A80036" points="248,226.9609,238,230.9609,248,234.9609,244,230.9609" style="stroke:#A80036;stroke-width:1.0;"/><line style="stroke:#A80036;stroke-width:1.0;" x1="242" x2="365" y1="230.9609" y2="230.9609"/><text fill="#000000" font-family="sans-serif" font-size="13" lengthAdjust="spacing" textLength="110" x="254" y="225.895">removeMaterial()</text><polygon fill="#A80036" points="354,240.9609,364,244.9609,354,248.9609,358,244.9609" style="stroke:#A80036;stroke-width:1.0;"/><line style="stroke:#A80036;stroke-width:1.0;stroke-dasharray:2.0,2.0;" x1="232" x2="360" y1="244.9609" y2="244.9609"/><polygon fill="#A80036" points="243,254.9609,233,258.9609,243,262.9609,239,258.9609" style="stroke:#A80036;stroke-width:1.0;"/><line style="stroke:#A80036;stroke-width:1.0;stroke-dasharray:2.0,2.0;" x1="237" x2="370" y1="258.9609" y2="258.9609"/><polygon fill="#A80036" points="146,275.9609,136,279.9609,146,283.9609,142,279.9609" style="stroke:#A80036;stroke-width:1.0;"/><line style="stroke:#A80036;stroke-width:1.0;stroke-dasharray:2.0,2.0;" x1="140" x2="226" y1="279.9609" y2="279.9609"/><polygon fill="#A80036" points="56.5,289.9609,46.5,293.9609,56.5,297.9609,52.5,293.9609" style="stroke:#A80036;stroke-width:1.0;"/><line style="stroke:#A80036;stroke-width:1.0;stroke-dasharray:2.0,2.0;" x1="50.5" x2="129" y1="293.9609" y2="293.9609"/><!--MD5=[7445e3f5023fc8f6b7e15f7b6d37fb46]
@startuml
actor "Skeleton" as player
participant "r: Robot" as s
participant "a: Asteroid" as a
participant "core: Ice" as core

player->s ++: drill()
    s->a ++ :drilled()
            opt isExposed
                a-> core++: exposed(a)
                    core-> a++: removeMaterial()
                    return
                return
            end
        return
return
@enduml

PlantUML version 1.2021.3beta7(Unknown compile time)
(GPL source distribution)
Java Runtime: Java(TM) SE Runtime Environment
JVM: Java HotSpot(TM) 64-Bit Server VM
Default Encoding: UTF-8
Language: en
Country: US
--></g></svg>