<?xml version="1.0" encoding="UTF-8" standalone="no"?><svg xmlns="http://www.w3.org/2000/svg" xmlns:xlink="http://www.w3.org/1999/xlink" contentScriptType="application/ecmascript" contentStyleType="text/css" height="639px" preserveAspectRatio="none" style="width:767px;height:639px;" version="1.1" viewBox="0 0 767 639" width="767px" zoomAndPan="magnify"><defs><filter height="300%" id="f15y430318000" width="300%" x="-1" y="-1"><feGaussianBlur result="blurOut" stdDeviation="2.0"/><feColorMatrix in="blurOut" result="blurOut2" type="matrix" values="0 0 0 0 0 0 0 0 0 0 0 0 0 0 0 0 0 0 .4 0"/><feOffset dx="4.0" dy="4.0" in="blurOut2" result="blurOut3"/><feBlend in="SourceGraphic" in2="blurOut3" mode="normal"/></filter></defs><g><rect fill="#FFFFFF" filter="url(#f15y430318000)" height="417.5938" style="stroke:#A80036;stroke-width:1.0;" width="10" x="139.5" y="119.4297"/><rect fill="#FFFFFF" filter="url(#f15y430318000)" height="14" style="stroke:#A80036;stroke-width:1.0;" width="10" x="144.5" y="323.3594"/><rect fill="#FFFFFF" filter="url(#f15y430318000)" height="14" style="stroke:#A80036;stroke-width:1.0;" width="10" x="279.5" y="509.0234"/><rect fill="#FFFFFF" filter="url(#f15y430318000)" height="331.3281" style="stroke:#A80036;stroke-width:1.0;" width="10" x="398.5" y="148.5625"/><rect fill="#FFFFFF" filter="url(#f15y430318000)" height="29.1328" style="stroke:#A80036;stroke-width:1.0;" width="10" x="522" y="177.6953"/><rect fill="#FFFFFF" filter="url(#f15y430318000)" height="29.1328" style="stroke:#A80036;stroke-width:1.0;" width="10" x="522" y="235.9609"/><rect fill="#FFFFFF" filter="url(#f15y430318000)" height="156.5313" style="stroke:#A80036;stroke-width:1.0;" width="10" x="636.5" y="294.2266"/><rect fill="#FFFFFF" filter="url(#f15y430318000)" height="40.1328" style="stroke:#A80036;stroke-width:1.0;" width="10" x="641.5" y="374.4922"/><line style="stroke:#A80036;stroke-width:1.0;stroke-dasharray:5.0,5.0;" x1="45" x2="45" y1="88.2969" y2="555.0234"/><line style="stroke:#A80036;stroke-width:1.0;stroke-dasharray:5.0,5.0;" x1="144.5" x2="144.5" y1="88.2969" y2="555.0234"/><line style="stroke:#A80036;stroke-width:1.0;stroke-dasharray:5.0,5.0;" x1="284.5" x2="284.5" y1="88.2969" y2="555.0234"/><line style="stroke:#A80036;stroke-width:1.0;stroke-dasharray:5.0,5.0;" x1="403.5" x2="403.5" y1="88.2969" y2="555.0234"/><line style="stroke:#A80036;stroke-width:1.0;stroke-dasharray:5.0,5.0;" x1="526.5" x2="526.5" y1="88.2969" y2="555.0234"/><line style="stroke:#A80036;stroke-width:1.0;stroke-dasharray:5.0,5.0;" x1="641.5" x2="641.5" y1="88.2969" y2="555.0234"/><text fill="#000000" font-family="sans-serif" font-size="14" lengthAdjust="spacing" textLength="65" x="10" y="84.9951">Skeleton</text><ellipse cx="45.5" cy="15" fill="#FEFECE" filter="url(#f15y430318000)" rx="8" ry="8" style="stroke:#A80036;stroke-width:2.0;"/><path d="M45.5,23 L45.5,50 M32.5,31 L58.5,31 M45.5,50 L32.5,65 M45.5,50 L58.5,65 " fill="none" filter="url(#f15y430318000)" style="stroke:#A80036;stroke-width:2.0;"/><text fill="#000000" font-family="sans-serif" font-size="14" lengthAdjust="spacing" textLength="65" x="10" y="567.0186">Skeleton</text><ellipse cx="45.5" cy="580.3203" fill="#FEFECE" filter="url(#f15y430318000)" rx="8" ry="8" style="stroke:#A80036;stroke-width:2.0;"/><path d="M45.5,588.3203 L45.5,615.3203 M32.5,596.3203 L58.5,596.3203 M45.5,615.3203 L32.5,630.3203 M45.5,615.3203 L58.5,630.3203 " fill="none" filter="url(#f15y430318000)" style="stroke:#A80036;stroke-width:2.0;"/><rect fill="#FEFECE" filter="url(#f15y430318000)" height="30.2969" style="stroke:#A80036;stroke-width:1.5;" width="74" x="105.5" y="53"/><text fill="#000000" font-family="sans-serif" font-size="14" lengthAdjust="spacing" textLength="60" x="112.5" y="72.9951">r: Robot</text><rect fill="#FEFECE" filter="url(#f15y430318000)" height="30.2969" style="stroke:#A80036;stroke-width:1.5;" width="74" x="105.5" y="554.0234"/><text fill="#000000" font-family="sans-serif" font-size="14" lengthAdjust="spacing" textLength="60" x="112.5" y="574.0186">r: Robot</text><rect fill="#FEFECE" filter="url(#f15y430318000)" height="30.2969" style="stroke:#A80036;stroke-width:1.5;" width="92" x="236.5" y="53"/><text fill="#000000" font-family="sans-serif" font-size="14" lengthAdjust="spacing" textLength="78" x="243.5" y="72.9951">a: Asteroid</text><rect fill="#FEFECE" filter="url(#f15y430318000)" height="30.2969" style="stroke:#A80036;stroke-width:1.5;" width="92" x="236.5" y="554.0234"/><text fill="#000000" font-family="sans-serif" font-size="14" lengthAdjust="spacing" textLength="78" x="243.5" y="574.0186">a: Asteroid</text><rect fill="#FEFECE" filter="url(#f15y430318000)" height="30.2969" style="stroke:#A80036;stroke-width:1.5;" width="118" x="342.5" y="53"/><text fill="#000000" font-family="sans-serif" font-size="14" lengthAdjust="spacing" textLength="104" x="349.5" y="72.9951">dest: Teleport</text><rect fill="#FEFECE" filter="url(#f15y430318000)" height="30.2969" style="stroke:#A80036;stroke-width:1.5;" width="118" x="342.5" y="554.0234"/><text fill="#000000" font-family="sans-serif" font-size="14" lengthAdjust="spacing" textLength="104" x="349.5" y="574.0186">dest: Teleport</text><rect fill="#FEFECE" filter="url(#f15y430318000)" height="30.2969" style="stroke:#A80036;stroke-width:1.5;" width="101" x="474.5" y="53"/><text fill="#000000" font-family="sans-serif" font-size="14" lengthAdjust="spacing" textLength="87" x="481.5" y="72.9951">t2: Teleport</text><rect fill="#FEFECE" filter="url(#f15y430318000)" height="30.2969" style="stroke:#A80036;stroke-width:1.5;" width="101" x="474.5" y="554.0234"/><text fill="#000000" font-family="sans-serif" font-size="14" lengthAdjust="spacing" textLength="87" x="481.5" y="574.0186">t2: Teleport</text><rect fill="#FEFECE" filter="url(#f15y430318000)" height="30.2969" style="stroke:#A80036;stroke-width:1.5;" width="100" x="589.5" y="53"/><text fill="#000000" font-family="sans-serif" font-size="14" lengthAdjust="spacing" textLength="86" x="596.5" y="72.9951">a2: Asteroid</text><rect fill="#FEFECE" filter="url(#f15y430318000)" height="30.2969" style="stroke:#A80036;stroke-width:1.5;" width="100" x="589.5" y="554.0234"/><text fill="#000000" font-family="sans-serif" font-size="14" lengthAdjust="spacing" textLength="86" x="596.5" y="574.0186">a2: Asteroid</text><rect fill="#FFFFFF" filter="url(#f15y430318000)" height="417.5938" style="stroke:#A80036;stroke-width:1.0;" width="10" x="139.5" y="119.4297"/><rect fill="#FFFFFF" filter="url(#f15y430318000)" height="14" style="stroke:#A80036;stroke-width:1.0;" width="10" x="144.5" y="323.3594"/><rect fill="#FFFFFF" filter="url(#f15y430318000)" height="14" style="stroke:#A80036;stroke-width:1.0;" width="10" x="279.5" y="509.0234"/><rect fill="#FFFFFF" filter="url(#f15y430318000)" height="331.3281" style="stroke:#A80036;stroke-width:1.0;" width="10" x="398.5" y="148.5625"/><rect fill="#FFFFFF" filter="url(#f15y430318000)" height="29.1328" style="stroke:#A80036;stroke-width:1.0;" width="10" x="522" y="177.6953"/><rect fill="#FFFFFF" filter="url(#f15y430318000)" height="29.1328" style="stroke:#A80036;stroke-width:1.0;" width="10" x="522" y="235.9609"/><rect fill="#FFFFFF" filter="url(#f15y430318000)" height="156.5313" style="stroke:#A80036;stroke-width:1.0;" width="10" x="636.5" y="294.2266"/><rect fill="#FFFFFF" filter="url(#f15y430318000)" height="40.1328" style="stroke:#A80036;stroke-width:1.0;" width="10" x="641.5" y="374.4922"/><polygon fill="#A80036" points="127.5,115.4297,137.5,119.4297,127.5,123.4297,131.5,119.4297" style="stroke:#A80036;stroke-width:1.0;"/><line style="stroke:#A80036;stroke-width:1.0;" x1="45.5" x2="133.5" y1="119.4297" y2="119.4297"/><text fill="#000000" font-family="sans-serif" font-size="13" lengthAdjust="spacing" textLength="75" x="52.5" y="114.3638">move(dest)</text><polygon fill="#A80036" points="386.5,144.5625,396.5,148.5625,386.5,152.5625,390.5,148.5625" style="stroke:#A80036;stroke-width:1.0;"/><line style="stroke:#A80036;stroke-width:1.0;" x1="149.5" x2="392.5" y1="148.5625" y2="148.5625"/><text fill="#000000" font-family="sans-serif" font-size="13" lengthAdjust="spacing" textLength="104" x="156.5" y="143.4966">acceptWorker(r)</text><polygon fill="#A80036" points="510,173.6953,520,177.6953,510,181.6953,514,177.6953" style="stroke:#A80036;stroke-width:1.0;"/><line style="stroke:#A80036;stroke-width:1.0;" x1="408.5" x2="516" y1="177.6953" y2="177.6953"/><text fill="#000000" font-family="sans-serif" font-size="13" lengthAdjust="spacing" textLength="62" x="415.5" y="172.6294">isPlaced()</text><polygon fill="#A80036" points="419.5,202.8281,409.5,206.8281,419.5,210.8281,415.5,206.8281" style="stroke:#A80036;stroke-width:1.0;"/><line style="stroke:#A80036;stroke-width:1.0;stroke-dasharray:2.0,2.0;" x1="413.5" x2="526" y1="206.8281" y2="206.8281"/><text fill="#000000" font-family="sans-serif" font-size="13" lengthAdjust="spacing" textLength="26" x="425.5" y="201.7622">true</text><polygon fill="#A80036" points="510,231.9609,520,235.9609,510,239.9609,514,235.9609" style="stroke:#A80036;stroke-width:1.0;"/><line style="stroke:#A80036;stroke-width:1.0;" x1="408.5" x2="516" y1="235.9609" y2="235.9609"/><text fill="#000000" font-family="sans-serif" font-size="13" lengthAdjust="spacing" textLength="84" x="415.5" y="230.895">getAsteroid()</text><polygon fill="#A80036" points="419.5,261.0938,409.5,265.0938,419.5,269.0938,415.5,265.0938" style="stroke:#A80036;stroke-width:1.0;"/><line style="stroke:#A80036;stroke-width:1.0;stroke-dasharray:2.0,2.0;" x1="413.5" x2="526" y1="265.0938" y2="265.0938"/><text fill="#000000" font-family="sans-serif" font-size="13" lengthAdjust="spacing" textLength="16" x="425.5" y="260.0278">a2</text><polygon fill="#A80036" points="624.5,290.2266,634.5,294.2266,624.5,298.2266,628.5,294.2266" style="stroke:#A80036;stroke-width:1.0;"/><line style="stroke:#A80036;stroke-width:1.0;" x1="408.5" x2="630.5" y1="294.2266" y2="294.2266"/><text fill="#000000" font-family="sans-serif" font-size="13" lengthAdjust="spacing" textLength="104" x="415.5" y="289.1606">acceptWorker(r)</text><polygon fill="#A80036" points="165.5,319.3594,155.5,323.3594,165.5,327.3594,161.5,323.3594" style="stroke:#A80036;stroke-width:1.0;"/><line style="stroke:#A80036;stroke-width:1.0;" x1="159.5" x2="635.5" y1="323.3594" y2="323.3594"/><text fill="#000000" font-family="sans-serif" font-size="13" lengthAdjust="spacing" textLength="99" x="171.5" y="318.2935">setAsteroid(a2)</text><polygon fill="#A80036" points="624.5,333.3594,634.5,337.3594,624.5,341.3594,628.5,337.3594" style="stroke:#A80036;stroke-width:1.0;"/><line style="stroke:#A80036;stroke-width:1.0;stroke-dasharray:2.0,2.0;" x1="149.5" x2="630.5" y1="337.3594" y2="337.3594"/><line style="stroke:#A80036;stroke-width:1.0;" x1="646.5" x2="693.5" y1="361.4922" y2="361.4922"/><line style="stroke:#A80036;stroke-width:1.0;" x1="693.5" x2="693.5" y1="361.4922" y2="374.4922"/><line style="stroke:#A80036;stroke-width:1.0;" x1="652.5" x2="693.5" y1="374.4922" y2="374.4922"/><polygon fill="#A80036" points="662.5,370.4922,652.5,374.4922,662.5,378.4922,658.5,374.4922" style="stroke:#A80036;stroke-width:1.0;"/><text fill="#000000" font-family="sans-serif" font-size="13" lengthAdjust="spacing" textLength="102" x="658.5" y="356.4263">checkBaseWin()</text><line style="stroke:#A80036;stroke-width:1.0;stroke-dasharray:2.0,2.0;" x1="651.5" x2="693.5" y1="413.625" y2="413.625"/><line style="stroke:#A80036;stroke-width:1.0;stroke-dasharray:2.0,2.0;" x1="693.5" x2="693.5" y1="413.625" y2="426.625"/><line style="stroke:#A80036;stroke-width:1.0;stroke-dasharray:2.0,2.0;" x1="646.5" x2="693.5" y1="426.625" y2="426.625"/><polygon fill="#A80036" points="656.5,422.625,646.5,426.625,656.5,430.625,652.5,426.625" style="stroke:#A80036;stroke-width:1.0;"/><text fill="#000000" font-family="sans-serif" font-size="13" lengthAdjust="spacing" textLength="31" x="658.5" y="408.5591">false</text><polygon fill="#A80036" points="419.5,446.7578,409.5,450.7578,419.5,454.7578,415.5,450.7578" style="stroke:#A80036;stroke-width:1.0;"/><line style="stroke:#A80036;stroke-width:1.0;stroke-dasharray:2.0,2.0;" x1="413.5" x2="640.5" y1="450.7578" y2="450.7578"/><text fill="#000000" font-family="sans-serif" font-size="13" lengthAdjust="spacing" textLength="26" x="425.5" y="445.6919">true</text><polygon fill="#A80036" points="160.5,475.8906,150.5,479.8906,160.5,483.8906,156.5,479.8906" style="stroke:#A80036;stroke-width:1.0;"/><line style="stroke:#A80036;stroke-width:1.0;stroke-dasharray:2.0,2.0;" x1="154.5" x2="402.5" y1="479.8906" y2="479.8906"/><text fill="#000000" font-family="sans-serif" font-size="13" lengthAdjust="spacing" textLength="26" x="166.5" y="474.8247">true</text><polygon fill="#A80036" points="267.5,505.0234,277.5,509.0234,267.5,513.0234,271.5,509.0234" style="stroke:#A80036;stroke-width:1.0;"/><line style="stroke:#A80036;stroke-width:1.0;" x1="149.5" x2="273.5" y1="509.0234" y2="509.0234"/><text fill="#000000" font-family="sans-serif" font-size="13" lengthAdjust="spacing" textLength="111" x="156.5" y="503.9575">removeWorker(r)</text><polygon fill="#A80036" points="160.5,519.0234,150.5,523.0234,160.5,527.0234,156.5,523.0234" style="stroke:#A80036;stroke-width:1.0;"/><line style="stroke:#A80036;stroke-width:1.0;stroke-dasharray:2.0,2.0;" x1="154.5" x2="283.5" y1="523.0234" y2="523.0234"/><polygon fill="#A80036" points="56.5,533.0234,46.5,537.0234,56.5,541.0234,52.5,537.0234" style="stroke:#A80036;stroke-width:1.0;"/><line style="stroke:#A80036;stroke-width:1.0;stroke-dasharray:2.0,2.0;" x1="50.5" x2="143.5" y1="537.0234" y2="537.0234"/><!--MD5=[1e32f6e22d18c27fde289a6c2a3215cd]
@startuml
actor "Skeleton" as controller
participant "r: Robot" as r
participant "a: Asteroid" as a
participant "dest: Teleport" as dest
participant "t2: Teleport" as t2
participant "a2: Asteroid" as a2


controller->r ++: move(dest)
        r->dest ++: acceptWorker(r)
            dest->t2 ++: isPlaced()
            return true
            dest->t2 ++:getAsteroid()
            return a2
                
            dest->a2 ++:acceptWorker(r)
                a2->r ++:setAsteroid(a2)
                return
                a2->a2 ++: checkBaseWin()
                return false
            return true
        return true
        
            r->a ++: removeWorker(r)
            return
return
@enduml

PlantUML version 1.2021.3beta7(Unknown compile time)
(GPL source distribution)
Java Runtime: Java(TM) SE Runtime Environment
JVM: Java HotSpot(TM) 64-Bit Server VM
Default Encoding: UTF-8
Language: en
Country: US
--></g></svg>