<?xml version="1.0" encoding="UTF-8" standalone="no"?><svg xmlns="http://www.w3.org/2000/svg" xmlns:xlink="http://www.w3.org/1999/xlink" contentScriptType="application/ecmascript" contentStyleType="text/css" height="810px" preserveAspectRatio="none" style="width:677px;height:810px;" version="1.1" viewBox="0 0 677 810" width="677px" zoomAndPan="magnify"><defs><filter height="300%" id="fdwqcofjj7cdb" width="300%" x="-1" y="-1"><feGaussianBlur result="blurOut" stdDeviation="2.0"/><feColorMatrix in="blurOut" result="blurOut2" type="matrix" values="0 0 0 0 0 0 0 0 0 0 0 0 0 0 0 0 0 0 .4 0"/><feOffset dx="4.0" dy="4.0" in="blurOut2" result="blurOut3"/><feBlend in="SourceGraphic" in2="blurOut3" mode="normal"/></filter></defs><g><rect fill="#FFFFFF" filter="url(#fdwqcofjj7cdb)" height="581.9297" style="stroke:#A80036;stroke-width:1.0;" width="10" x="143.5" y="119.4297"/><rect fill="#FFFFFF" filter="url(#fdwqcofjj7cdb)" height="214.7969" style="stroke:#A80036;stroke-width:1.0;" width="10" x="148.5" y="201.8281"/><rect fill="#FFFFFF" filter="url(#fdwqcofjj7cdb)" height="98.3984" style="stroke:#A80036;stroke-width:1.0;" width="10" x="153.5" y="238.9609"/><rect fill="#FFFFFF" filter="url(#fdwqcofjj7cdb)" height="29.1328" style="stroke:#A80036;stroke-width:1.0;" width="10" x="289.5" y="273.0938"/><rect fill="#FFFFFF" filter="url(#fdwqcofjj7cdb)" height="14" style="stroke:#A80036;stroke-width:1.0;" width="10" x="289.5" y="373.4922"/><rect fill="#FFFFFF" filter="url(#fdwqcofjj7cdb)" height="523.6641" style="stroke:#A80036;stroke-width:1.0;" width="10" x="406" y="148.5625"/><rect fill="#FFFFFF" filter="url(#fdwqcofjj7cdb)" height="25" style="stroke:#A80036;stroke-width:1.0;" width="10" x="411" y="453.7578"/><rect fill="#FFFFFF" filter="url(#fdwqcofjj7cdb)" height="40.1328" style="stroke:#A80036;stroke-width:1.0;" width="10" x="411" y="522.8906"/><rect fill="#FFFFFF" filter="url(#fdwqcofjj7cdb)" height="545.7969" style="stroke:#000000;stroke-width:2.0;" width="535" x="15" y="163.5625"/><rect fill="#FFFFFF" height="73.0703" style="stroke:none;stroke-width:1.0;" width="535" x="15" y="636.2891"/><line style="stroke:#A80036;stroke-width:1.0;stroke-dasharray:5.0,5.0;" x1="60" x2="60" y1="88.2969" y2="726.3594"/><line style="stroke:#A80036;stroke-width:1.0;stroke-dasharray:5.0,5.0;" x1="148" x2="148" y1="88.2969" y2="726.3594"/><line style="stroke:#A80036;stroke-width:1.0;stroke-dasharray:5.0,5.0;" x1="294" x2="294" y1="88.2969" y2="726.3594"/><line style="stroke:#A80036;stroke-width:1.0;stroke-dasharray:5.0,5.0;" x1="411" x2="411" y1="88.2969" y2="726.3594"/><line style="stroke:#A80036;stroke-width:1.0;stroke-dasharray:5.0,5.0;" x1="544.5" x2="544.5" y1="88.2969" y2="726.3594"/><line style="stroke:#A80036;stroke-width:1.0;stroke-dasharray:5.0,5.0;" x1="632.5" x2="632.5" y1="88.2969" y2="726.3594"/><text fill="#000000" font-family="sans-serif" font-size="14" lengthAdjust="spacing" textLength="65" x="25" y="84.9951">Skeleton</text><ellipse cx="60.5" cy="15" fill="#FEFECE" filter="url(#fdwqcofjj7cdb)" rx="8" ry="8" style="stroke:#A80036;stroke-width:2.0;"/><path d="M60.5,23 L60.5,50 M47.5,31 L73.5,31 M60.5,50 L47.5,65 M60.5,50 L73.5,65 " fill="none" filter="url(#fdwqcofjj7cdb)" style="stroke:#A80036;stroke-width:2.0;"/><text fill="#000000" font-family="sans-serif" font-size="14" lengthAdjust="spacing" textLength="65" x="25" y="738.3545">Skeleton</text><ellipse cx="60.5" cy="751.6563" fill="#FEFECE" filter="url(#fdwqcofjj7cdb)" rx="8" ry="8" style="stroke:#A80036;stroke-width:2.0;"/><path d="M60.5,759.6563 L60.5,786.6563 M47.5,767.6563 L73.5,767.6563 M60.5,786.6563 L47.5,801.6563 M60.5,786.6563 L73.5,801.6563 " fill="none" filter="url(#fdwqcofjj7cdb)" style="stroke:#A80036;stroke-width:2.0;"/><rect fill="#FEFECE" filter="url(#fdwqcofjj7cdb)" height="30.2969" style="stroke:#A80036;stroke-width:1.5;" width="81" x="106" y="53"/><text fill="#000000" font-family="sans-serif" font-size="14" lengthAdjust="spacing" textLength="67" x="113" y="72.9951">s: Settler</text><rect fill="#FEFECE" filter="url(#fdwqcofjj7cdb)" height="30.2969" style="stroke:#A80036;stroke-width:1.5;" width="81" x="106" y="725.3594"/><text fill="#000000" font-family="sans-serif" font-size="14" lengthAdjust="spacing" textLength="67" x="113" y="745.3545">s: Settler</text><rect fill="#FEFECE" filter="url(#fdwqcofjj7cdb)" height="30.2969" style="stroke:#A80036;stroke-width:1.5;" width="113" x="236" y="53"/><text fill="#000000" font-family="sans-serif" font-size="14" lengthAdjust="spacing" textLength="99" x="243" y="72.9951">inv: Inventory</text><rect fill="#FEFECE" filter="url(#fdwqcofjj7cdb)" height="30.2969" style="stroke:#A80036;stroke-width:1.5;" width="113" x="236" y="725.3594"/><text fill="#000000" font-family="sans-serif" font-size="14" lengthAdjust="spacing" textLength="99" x="243" y="745.3545">inv: Inventory</text><rect fill="#FEFECE" filter="url(#fdwqcofjj7cdb)" height="30.2969" style="stroke:#A80036;stroke-width:1.5;" width="92" x="363" y="53"/><text fill="#000000" font-family="sans-serif" font-size="14" lengthAdjust="spacing" textLength="78" x="370" y="72.9951">a: Asteroid</text><rect fill="#FEFECE" filter="url(#fdwqcofjj7cdb)" height="30.2969" style="stroke:#A80036;stroke-width:1.5;" width="92" x="363" y="725.3594"/><text fill="#000000" font-family="sans-serif" font-size="14" lengthAdjust="spacing" textLength="78" x="370" y="745.3545">a: Asteroid</text><rect fill="#FEFECE" filter="url(#fdwqcofjj7cdb)" height="30.2969" style="stroke:#A80036;stroke-width:1.5;" width="83" x="501.5" y="53"/><text fill="#000000" font-family="sans-serif" font-size="14" lengthAdjust="spacing" textLength="69" x="508.5" y="72.9951">core: Iron</text><rect fill="#FEFECE" filter="url(#fdwqcofjj7cdb)" height="30.2969" style="stroke:#A80036;stroke-width:1.5;" width="83" x="501.5" y="725.3594"/><text fill="#000000" font-family="sans-serif" font-size="14" lengthAdjust="spacing" textLength="69" x="508.5" y="745.3545">core: Iron</text><rect fill="#FEFECE" filter="url(#fdwqcofjj7cdb)" height="30.2969" style="stroke:#A80036;stroke-width:1.5;" width="65" x="598.5" y="53"/><text fill="#000000" font-family="sans-serif" font-size="14" lengthAdjust="spacing" textLength="51" x="605.5" y="72.9951">: Game</text><rect fill="#FEFECE" filter="url(#fdwqcofjj7cdb)" height="30.2969" style="stroke:#A80036;stroke-width:1.5;" width="65" x="598.5" y="725.3594"/><text fill="#000000" font-family="sans-serif" font-size="14" lengthAdjust="spacing" textLength="51" x="605.5" y="745.3545">: Game</text><rect fill="#FFFFFF" filter="url(#fdwqcofjj7cdb)" height="581.9297" style="stroke:#A80036;stroke-width:1.0;" width="10" x="143.5" y="119.4297"/><rect fill="#FFFFFF" filter="url(#fdwqcofjj7cdb)" height="214.7969" style="stroke:#A80036;stroke-width:1.0;" width="10" x="148.5" y="201.8281"/><rect fill="#FFFFFF" filter="url(#fdwqcofjj7cdb)" height="98.3984" style="stroke:#A80036;stroke-width:1.0;" width="10" x="153.5" y="238.9609"/><rect fill="#FFFFFF" filter="url(#fdwqcofjj7cdb)" height="29.1328" style="stroke:#A80036;stroke-width:1.0;" width="10" x="289.5" y="273.0938"/><rect fill="#FFFFFF" filter="url(#fdwqcofjj7cdb)" height="14" style="stroke:#A80036;stroke-width:1.0;" width="10" x="289.5" y="373.4922"/><rect fill="#FFFFFF" filter="url(#fdwqcofjj7cdb)" height="523.6641" style="stroke:#A80036;stroke-width:1.0;" width="10" x="406" y="148.5625"/><rect fill="#FFFFFF" filter="url(#fdwqcofjj7cdb)" height="25" style="stroke:#A80036;stroke-width:1.0;" width="10" x="411" y="453.7578"/><rect fill="#FFFFFF" filter="url(#fdwqcofjj7cdb)" height="40.1328" style="stroke:#A80036;stroke-width:1.0;" width="10" x="411" y="522.8906"/><polygon fill="#A80036" points="131.5,115.4297,141.5,119.4297,131.5,123.4297,135.5,119.4297" style="stroke:#A80036;stroke-width:1.0;"/><line style="stroke:#A80036;stroke-width:1.0;" x1="60.5" x2="137.5" y1="119.4297" y2="119.4297"/><text fill="#000000" font-family="sans-serif" font-size="13" lengthAdjust="spacing" textLength="42" x="67.5" y="114.3638">mine()</text><polygon fill="#A80036" points="394,144.5625,404,148.5625,394,152.5625,398,148.5625" style="stroke:#A80036;stroke-width:1.0;"/><line style="stroke:#A80036;stroke-width:1.0;" x1="153.5" x2="400" y1="148.5625" y2="148.5625"/><text fill="#000000" font-family="sans-serif" font-size="13" lengthAdjust="spacing" textLength="57" x="160.5" y="143.4966">mined(s)</text><path d="M15,163.5625 L81,163.5625 L81,170.5625 L71,180.5625 L15,180.5625 L15,163.5625 " fill="#EEEEEE" style="stroke:#000000;stroke-width:1.0;"/><rect fill="none" height="545.7969" style="stroke:#000000;stroke-width:2.0;" width="535" x="15" y="163.5625"/><text fill="#000000" font-family="sans-serif" font-size="13" font-weight="bold" lengthAdjust="spacing" textLength="21" x="30" y="176.6294">alt</text><text fill="#000000" font-family="sans-serif" font-size="11" font-weight="bold" lengthAdjust="spacing" textLength="152" x="96" y="175.7729">[layer == layersDrilled]</text><polygon fill="#A80036" points="169.5,197.8281,159.5,201.8281,169.5,205.8281,165.5,201.8281" style="stroke:#A80036;stroke-width:1.0;"/><line style="stroke:#A80036;stroke-width:1.0;" x1="163.5" x2="405" y1="201.8281" y2="201.8281"/><text fill="#000000" font-family="sans-serif" font-size="13" lengthAdjust="spacing" textLength="131" x="175.5" y="196.7622">acceptMaterial(core)</text><line style="stroke:#A80036;stroke-width:1.0;" x1="158.5" x2="205.5" y1="225.9609" y2="225.9609"/><line style="stroke:#A80036;stroke-width:1.0;" x1="205.5" x2="205.5" y1="225.9609" y2="238.9609"/><line style="stroke:#A80036;stroke-width:1.0;" x1="164.5" x2="205.5" y1="238.9609" y2="238.9609"/><polygon fill="#A80036" points="174.5,234.9609,164.5,238.9609,174.5,242.9609,170.5,238.9609" style="stroke:#A80036;stroke-width:1.0;"/><text fill="#000000" font-family="sans-serif" font-size="13" lengthAdjust="spacing" textLength="102" x="170.5" y="220.895">isInventoryFull()</text><polygon fill="#A80036" points="277.5,269.0938,287.5,273.0938,277.5,277.0938,281.5,273.0938" style="stroke:#A80036;stroke-width:1.0;"/><line style="stroke:#A80036;stroke-width:1.0;stroke-dasharray:2.0,2.0;" x1="163.5" x2="283.5" y1="273.0938" y2="273.0938"/><text fill="#000000" font-family="sans-serif" font-size="13" lengthAdjust="spacing" textLength="41" x="170.5" y="268.0278">isFull()</text><polygon fill="#A80036" points="174.5,298.2266,164.5,302.2266,174.5,306.2266,170.5,302.2266" style="stroke:#A80036;stroke-width:1.0;"/><line style="stroke:#A80036;stroke-width:1.0;stroke-dasharray:2.0,2.0;" x1="168.5" x2="293.5" y1="302.2266" y2="302.2266"/><text fill="#000000" font-family="sans-serif" font-size="13" lengthAdjust="spacing" textLength="31" x="180.5" y="297.1606">false</text><line style="stroke:#A80036;stroke-width:1.0;stroke-dasharray:2.0,2.0;" x1="163.5" x2="205.5" y1="336.3594" y2="336.3594"/><line style="stroke:#A80036;stroke-width:1.0;stroke-dasharray:2.0,2.0;" x1="205.5" x2="205.5" y1="336.3594" y2="349.3594"/><line style="stroke:#A80036;stroke-width:1.0;stroke-dasharray:2.0,2.0;" x1="158.5" x2="205.5" y1="349.3594" y2="349.3594"/><polygon fill="#A80036" points="168.5,345.3594,158.5,349.3594,168.5,353.3594,164.5,349.3594" style="stroke:#A80036;stroke-width:1.0;"/><text fill="#000000" font-family="sans-serif" font-size="13" lengthAdjust="spacing" textLength="31" x="170.5" y="331.2935">false</text><polygon fill="#A80036" points="277.5,369.4922,287.5,373.4922,277.5,377.4922,281.5,373.4922" style="stroke:#A80036;stroke-width:1.0;"/><line style="stroke:#A80036;stroke-width:1.0;stroke-dasharray:2.0,2.0;" x1="158.5" x2="283.5" y1="373.4922" y2="373.4922"/><text fill="#000000" font-family="sans-serif" font-size="13" lengthAdjust="spacing" textLength="112" x="165.5" y="368.4263">addMaterial(core)</text><polygon fill="#A80036" points="169.5,383.4922,159.5,387.4922,169.5,391.4922,165.5,387.4922" style="stroke:#A80036;stroke-width:1.0;"/><line style="stroke:#A80036;stroke-width:1.0;stroke-dasharray:2.0,2.0;" x1="163.5" x2="293.5" y1="387.4922" y2="387.4922"/><polygon fill="#A80036" points="394,412.625,404,416.625,394,420.625,398,416.625" style="stroke:#A80036;stroke-width:1.0;"/><line style="stroke:#A80036;stroke-width:1.0;stroke-dasharray:2.0,2.0;" x1="153.5" x2="400" y1="416.625" y2="416.625"/><text fill="#000000" font-family="sans-serif" font-size="13" lengthAdjust="spacing" textLength="26" x="160.5" y="411.5591">true</text><line style="stroke:#A80036;stroke-width:1.0;" x1="416" x2="463" y1="440.7578" y2="440.7578"/><line style="stroke:#A80036;stroke-width:1.0;" x1="463" x2="463" y1="440.7578" y2="453.7578"/><line style="stroke:#A80036;stroke-width:1.0;" x1="422" x2="463" y1="453.7578" y2="453.7578"/><polygon fill="#A80036" points="432,449.7578,422,453.7578,432,457.7578,428,453.7578" style="stroke:#A80036;stroke-width:1.0;"/><text fill="#000000" font-family="sans-serif" font-size="13" lengthAdjust="spacing" textLength="110" x="428" y="435.6919">removeMaterial()</text><line style="stroke:#A80036;stroke-width:1.0;stroke-dasharray:2.0,2.0;" x1="421" x2="463" y1="477.7578" y2="477.7578"/><line style="stroke:#A80036;stroke-width:1.0;stroke-dasharray:2.0,2.0;" x1="463" x2="463" y1="477.7578" y2="490.7578"/><line style="stroke:#A80036;stroke-width:1.0;stroke-dasharray:2.0,2.0;" x1="416" x2="463" y1="490.7578" y2="490.7578"/><polygon fill="#A80036" points="426,486.7578,416,490.7578,426,494.7578,422,490.7578" style="stroke:#A80036;stroke-width:1.0;"/><line style="stroke:#A80036;stroke-width:1.0;" x1="416" x2="463" y1="509.8906" y2="509.8906"/><line style="stroke:#A80036;stroke-width:1.0;" x1="463" x2="463" y1="509.8906" y2="522.8906"/><line style="stroke:#A80036;stroke-width:1.0;" x1="422" x2="463" y1="522.8906" y2="522.8906"/><polygon fill="#A80036" points="432,518.8906,422,522.8906,432,526.8906,428,522.8906" style="stroke:#A80036;stroke-width:1.0;"/><text fill="#000000" font-family="sans-serif" font-size="13" lengthAdjust="spacing" textLength="102" x="428" y="504.8247">checkBaseWin()</text><line style="stroke:#A80036;stroke-width:1.0;stroke-dasharray:2.0,2.0;" x1="421" x2="463" y1="562.0234" y2="562.0234"/><line style="stroke:#A80036;stroke-width:1.0;stroke-dasharray:2.0,2.0;" x1="463" x2="463" y1="562.0234" y2="575.0234"/><line style="stroke:#A80036;stroke-width:1.0;stroke-dasharray:2.0,2.0;" x1="416" x2="463" y1="575.0234" y2="575.0234"/><polygon fill="#A80036" points="426,571.0234,416,575.0234,426,579.0234,422,575.0234" style="stroke:#A80036;stroke-width:1.0;"/><text fill="#000000" font-family="sans-serif" font-size="13" lengthAdjust="spacing" textLength="31" x="428" y="556.9575">false</text><polygon fill="#A80036" points="164.5,595.1563,154.5,599.1563,164.5,603.1563,160.5,599.1563" style="stroke:#A80036;stroke-width:1.0;"/><line style="stroke:#A80036;stroke-width:1.0;stroke-dasharray:2.0,2.0;" x1="158.5" x2="405" y1="599.1563" y2="599.1563"/><text fill="#000000" font-family="sans-serif" font-size="13" lengthAdjust="spacing" textLength="26" x="170.5" y="594.0903">true</text><polygon fill="#A80036" points="71.5,624.2891,61.5,628.2891,71.5,632.2891,67.5,628.2891" style="stroke:#A80036;stroke-width:1.0;"/><line style="stroke:#A80036;stroke-width:1.0;stroke-dasharray:2.0,2.0;" x1="65.5" x2="142.5" y1="628.2891" y2="628.2891"/><text fill="#000000" font-family="sans-serif" font-size="13" lengthAdjust="spacing" textLength="26" x="77.5" y="623.2231">true</text><line style="stroke:#000000;stroke-width:1.0;stroke-dasharray:2.0,2.0;" x1="15" x2="550" y1="637.2891" y2="637.2891"/><text fill="#000000" font-family="sans-serif" font-size="11" font-weight="bold" lengthAdjust="spacing" textLength="37" x="20" y="647.4995">[else]</text><polygon fill="#A80036" points="164.5,668.2266,154.5,672.2266,164.5,676.2266,160.5,672.2266" style="stroke:#A80036;stroke-width:1.0;"/><line style="stroke:#A80036;stroke-width:1.0;stroke-dasharray:2.0,2.0;" x1="158.5" x2="410" y1="672.2266" y2="672.2266"/><text fill="#000000" font-family="sans-serif" font-size="13" lengthAdjust="spacing" textLength="31" x="170.5" y="667.1606">false</text><polygon fill="#A80036" points="71.5,697.3594,61.5,701.3594,71.5,705.3594,67.5,701.3594" style="stroke:#A80036;stroke-width:1.0;"/><line style="stroke:#A80036;stroke-width:1.0;stroke-dasharray:2.0,2.0;" x1="65.5" x2="147.5" y1="701.3594" y2="701.3594"/><text fill="#000000" font-family="sans-serif" font-size="13" lengthAdjust="spacing" textLength="31" x="77.5" y="696.2935">false</text><!--MD5=[b3558a1428e0ec17fef881e887cb332c]
@startuml
actor "Skeleton" as player
participant "s: Settler" as s
participant  "inv: Inventory" as inv
participant "a: Asteroid" as a
participant "core: Iron" as core
participant ": Game" as g

player->s ++:mine()
    s->a ++:mined(s)
        alt layer == layersDrilled
            a->s ++: acceptMaterial(core)
		        s->s ++: isInventoryFull()
		            s- ->inv ++: isFull()
		            return false
		        s- ->s - -:false
		        
		        s- ->inv ++: addMaterial(core)
		        return
		        return true
		        
                a->a ++: removeMaterial()
                return
				a->a ++: checkBaseWin()
				return false
				
				a- ->s :true
				s- ->player: true
				
				
            
        else else 
            return false
            return false
        end
@enduml

PlantUML version 1.2021.3beta7(Unknown compile time)
(GPL source distribution)
Java Runtime: Java(TM) SE Runtime Environment
JVM: Java HotSpot(TM) 64-Bit Server VM
Default Encoding: UTF-8
Language: en
Country: US
--></g></svg>