<?xml version="1.0" encoding="UTF-8" standalone="no"?><svg xmlns="http://www.w3.org/2000/svg" xmlns:xlink="http://www.w3.org/1999/xlink" contentScriptType="application/ecmascript" contentStyleType="text/css" height="1340px" preserveAspectRatio="none" style="width:1958px;height:1340px;" version="1.1" viewBox="0 0 1958 1340" width="1958px" zoomAndPan="magnify"><defs><filter height="300%" id="fgmwztlyve3cs" width="300%" x="-1" y="-1"><feGaussianBlur result="blurOut" stdDeviation="2.0"/><feColorMatrix in="blurOut" result="blurOut2" type="matrix" values="0 0 0 0 0 0 0 0 0 0 0 0 0 0 0 0 0 0 .4 0"/><feOffset dx="4.0" dy="4.0" in="blurOut2" result="blurOut3"/><feBlend in="SourceGraphic" in2="blurOut3" mode="normal"/></filter></defs><g><rect fill="#FFFFFF" filter="url(#fgmwztlyve3cs)" height="1118.4766" style="stroke:#A80036;stroke-width:1.0;" width="10" x="130.5" y="119.4297"/><rect fill="#FFFFFF" filter="url(#fgmwztlyve3cs)" height="29.1328" style="stroke:#A80036;stroke-width:1.0;" width="10" x="135.5" y="177.6953"/><rect fill="#FFFFFF" filter="url(#fgmwztlyve3cs)" height="29.1328" style="stroke:#A80036;stroke-width:1.0;" width="10" x="135.5" y="281.2578"/><rect fill="#FFFFFF" filter="url(#fgmwztlyve3cs)" height="29.1328" style="stroke:#A80036;stroke-width:1.0;" width="10" x="135.5" y="1046.9453"/><rect fill="#FFFFFF" filter="url(#fgmwztlyve3cs)" height="29.1328" style="stroke:#A80036;stroke-width:1.0;" width="10" x="135.5" y="1150.5078"/><rect fill="#FFFFFF" filter="url(#fgmwztlyve3cs)" height="1060.2109" style="stroke:#A80036;stroke-width:1.0;" width="10" x="269" y="148.5625"/><rect fill="#FFFFFF" filter="url(#fgmwztlyve3cs)" height="359.0625" style="stroke:#A80036;stroke-width:1.0;" width="10" x="704" y="339.5234"/><rect fill="#FFFFFF" filter="url(#fgmwztlyve3cs)" height="14" style="stroke:#A80036;stroke-width:1.0;" width="10" x="709" y="397.7891"/><rect fill="#FFFFFF" filter="url(#fgmwztlyve3cs)" height="14" style="stroke:#A80036;stroke-width:1.0;" width="10" x="709" y="484.0547"/><rect fill="#FFFFFF" filter="url(#fgmwztlyve3cs)" height="14" style="stroke:#A80036;stroke-width:1.0;" width="10" x="709" y="570.3203"/><rect fill="#FFFFFF" filter="url(#fgmwztlyve3cs)" height="14" style="stroke:#A80036;stroke-width:1.0;" width="10" x="709" y="656.5859"/><rect fill="#FFFFFF" filter="url(#fgmwztlyve3cs)" height="29.1328" style="stroke:#A80036;stroke-width:1.0;" width="10" x="704" y="727.7188"/><rect fill="#FFFFFF" filter="url(#fgmwztlyve3cs)" height="186.5313" style="stroke:#A80036;stroke-width:1.0;" width="10" x="704" y="785.9844"/><rect fill="#FFFFFF" filter="url(#fgmwztlyve3cs)" height="93.5625" style="stroke:#A80036;stroke-width:1.0;" width="10" x="914" y="1011.6484"/><rect fill="#FFFFFF" filter="url(#fgmwztlyve3cs)" height="64.4297" style="stroke:#A80036;stroke-width:1.0;" width="10" x="1173.5" y="1115.2109"/><rect fill="#FFFFFF" filter="url(#fgmwztlyve3cs)" height="14" style="stroke:#A80036;stroke-width:1.0;" width="10" x="1298.5" y="815.1172"/><rect fill="#FFFFFF" filter="url(#fgmwztlyve3cs)" height="14" style="stroke:#A80036;stroke-width:1.0;" width="10" x="1298.5" y="858.25"/><rect fill="#FFFFFF" filter="url(#fgmwztlyve3cs)" height="14" style="stroke:#A80036;stroke-width:1.0;" width="10" x="1298.5" y="901.3828"/><rect fill="#FFFFFF" filter="url(#fgmwztlyve3cs)" height="14" style="stroke:#A80036;stroke-width:1.0;" width="10" x="1298.5" y="944.5156"/><rect fill="#FFFFFF" filter="url(#fgmwztlyve3cs)" height="57.1328" style="stroke:#A80036;stroke-width:1.0;" width="10" x="1417" y="368.6563"/><rect fill="#FFFFFF" filter="url(#fgmwztlyve3cs)" height="57.1328" style="stroke:#A80036;stroke-width:1.0;" width="10" x="1522.5" y="454.9219"/><rect fill="#FFFFFF" filter="url(#fgmwztlyve3cs)" height="57.1328" style="stroke:#A80036;stroke-width:1.0;" width="10" x="1838.5" y="541.1875"/><rect fill="#FFFFFF" filter="url(#fgmwztlyve3cs)" height="57.1328" style="stroke:#A80036;stroke-width:1.0;" width="10" x="1905.5" y="627.4531"/><line style="stroke:#A80036;stroke-width:1.0;stroke-dasharray:5.0,5.0;" x1="45" x2="45" y1="88.2969" y2="1255.9063"/><line style="stroke:#A80036;stroke-width:1.0;stroke-dasharray:5.0,5.0;" x1="135" x2="135" y1="88.2969" y2="1255.9063"/><line style="stroke:#A80036;stroke-width:1.0;stroke-dasharray:5.0,5.0;" x1="274" x2="274" y1="88.2969" y2="1255.9063"/><line style="stroke:#A80036;stroke-width:1.0;stroke-dasharray:5.0,5.0;" x1="709" x2="709" y1="247.4766" y2="1255.9063"/><line style="stroke:#A80036;stroke-width:1.0;stroke-dasharray:5.0,5.0;" x1="919" x2="919" y1="1013.1641" y2="1255.9063"/><line style="stroke:#A80036;stroke-width:1.0;stroke-dasharray:5.0,5.0;" x1="1178" x2="1178" y1="1116.7266" y2="1255.9063"/><line style="stroke:#A80036;stroke-width:1.0;stroke-dasharray:5.0,5.0;" x1="1303" x2="1303" y1="88.2969" y2="1255.9063"/><line style="stroke:#A80036;stroke-width:1.0;stroke-dasharray:5.0,5.0;" x1="1422" x2="1422" y1="88.2969" y2="1255.9063"/><line style="stroke:#A80036;stroke-width:1.0;stroke-dasharray:5.0,5.0;" x1="1527" x2="1527" y1="88.2969" y2="1255.9063"/><line style="stroke:#A80036;stroke-width:1.0;stroke-dasharray:5.0,5.0;" x1="1621" x2="1621" y1="88.2969" y2="1255.9063"/><line style="stroke:#A80036;stroke-width:1.0;stroke-dasharray:5.0,5.0;" x1="1741" x2="1741" y1="88.2969" y2="1255.9063"/><line style="stroke:#A80036;stroke-width:1.0;stroke-dasharray:5.0,5.0;" x1="1843" x2="1843" y1="88.2969" y2="1255.9063"/><line style="stroke:#A80036;stroke-width:1.0;stroke-dasharray:5.0,5.0;" x1="1910" x2="1910" y1="88.2969" y2="1255.9063"/><text fill="#000000" font-family="sans-serif" font-size="14" lengthAdjust="spacing" textLength="65" x="10" y="84.9951">Skeleton</text><ellipse cx="45.5" cy="15" fill="#FEFECE" filter="url(#fgmwztlyve3cs)" rx="8" ry="8" style="stroke:#A80036;stroke-width:2.0;"/><path d="M45.5,23 L45.5,50 M32.5,31 L58.5,31 M45.5,50 L32.5,65 M45.5,50 L58.5,65 " fill="none" filter="url(#fgmwztlyve3cs)" style="stroke:#A80036;stroke-width:2.0;"/><text fill="#000000" font-family="sans-serif" font-size="14" lengthAdjust="spacing" textLength="65" x="10" y="1267.9014">Skeleton</text><ellipse cx="45.5" cy="1281.2031" fill="#FEFECE" filter="url(#fgmwztlyve3cs)" rx="8" ry="8" style="stroke:#A80036;stroke-width:2.0;"/><path d="M45.5,1289.2031 L45.5,1316.2031 M32.5,1297.2031 L58.5,1297.2031 M45.5,1316.2031 L32.5,1331.2031 M45.5,1316.2031 L58.5,1331.2031 " fill="none" filter="url(#fgmwztlyve3cs)" style="stroke:#A80036;stroke-width:2.0;"/><rect fill="#FEFECE" filter="url(#fgmwztlyve3cs)" height="30.2969" style="stroke:#A80036;stroke-width:1.5;" width="85" x="91" y="53"/><text fill="#000000" font-family="sans-serif" font-size="14" lengthAdjust="spacing" textLength="71" x="98" y="72.9951">s : Settler</text><rect fill="#FEFECE" filter="url(#fgmwztlyve3cs)" height="30.2969" style="stroke:#A80036;stroke-width:1.5;" width="85" x="91" y="1254.9063"/><text fill="#000000" font-family="sans-serif" font-size="14" lengthAdjust="spacing" textLength="71" x="98" y="1274.9014">s : Settler</text><rect fill="#FEFECE" filter="url(#fgmwztlyve3cs)" height="30.2969" style="stroke:#A80036;stroke-width:1.5;" width="164" x="190" y="53"/><text fill="#000000" font-family="sans-serif" font-size="14" lengthAdjust="spacing" textLength="150" x="197" y="72.9951">rcp : TeleportRecipe</text><rect fill="#FEFECE" filter="url(#fgmwztlyve3cs)" height="30.2969" style="stroke:#A80036;stroke-width:1.5;" width="164" x="190" y="1254.9063"/><text fill="#000000" font-family="sans-serif" font-size="14" lengthAdjust="spacing" textLength="150" x="197" y="1274.9014">rcp : TeleportRecipe</text><rect fill="#FEFECE" filter="url(#fgmwztlyve3cs)" height="30.2969" style="stroke:#A80036;stroke-width:1.5;" width="286" x="564" y="1254.9063"/><text fill="#000000" font-family="sans-serif" font-size="14" lengthAdjust="spacing" textLength="272" x="571" y="1274.9014">telResReg: TeleportResourceRegistry</text><rect fill="#FEFECE" filter="url(#fgmwztlyve3cs)" height="30.2969" style="stroke:#A80036;stroke-width:1.5;" width="106" x="864" y="1254.9063"/><text fill="#000000" font-family="sans-serif" font-size="14" lengthAdjust="spacing" textLength="92" x="871" y="1274.9014">t1 : Teleport</text><rect fill="#FEFECE" filter="url(#fgmwztlyve3cs)" height="30.2969" style="stroke:#A80036;stroke-width:1.5;" width="105" x="1124" y="1254.9063"/><text fill="#000000" font-family="sans-serif" font-size="14" lengthAdjust="spacing" textLength="91" x="1131" y="1274.9014">t2 : Teleport</text><rect fill="#FEFECE" filter="url(#fgmwztlyve3cs)" height="30.2969" style="stroke:#A80036;stroke-width:1.5;" width="117" x="1243" y="53"/><text fill="#000000" font-family="sans-serif" font-size="14" lengthAdjust="spacing" textLength="103" x="1250" y="72.9951">inv : Inventory</text><rect fill="#FEFECE" filter="url(#fgmwztlyve3cs)" height="30.2969" style="stroke:#A80036;stroke-width:1.5;" width="117" x="1243" y="1254.9063"/><text fill="#000000" font-family="sans-serif" font-size="14" lengthAdjust="spacing" textLength="103" x="1250" y="1274.9014">inv : Inventory</text><rect fill="#FEFECE" filter="url(#fgmwztlyve3cs)" height="30.2969" style="stroke:#A80036;stroke-width:1.5;" width="92" x="1374" y="53"/><text fill="#000000" font-family="sans-serif" font-size="14" lengthAdjust="spacing" textLength="78" x="1381" y="72.9951">iron1 : Iron</text><rect fill="#FEFECE" filter="url(#fgmwztlyve3cs)" height="30.2969" style="stroke:#A80036;stroke-width:1.5;" width="92" x="1374" y="1254.9063"/><text fill="#000000" font-family="sans-serif" font-size="14" lengthAdjust="spacing" textLength="78" x="1381" y="1274.9014">iron1 : Iron</text><rect fill="#FEFECE" filter="url(#fgmwztlyve3cs)" height="30.2969" style="stroke:#A80036;stroke-width:1.5;" width="91" x="1480" y="53"/><text fill="#000000" font-family="sans-serif" font-size="14" lengthAdjust="spacing" textLength="77" x="1487" y="72.9951">iron2 : Iron</text><rect fill="#FEFECE" filter="url(#fgmwztlyve3cs)" height="30.2969" style="stroke:#A80036;stroke-width:1.5;" width="91" x="1480" y="1254.9063"/><text fill="#000000" font-family="sans-serif" font-size="14" lengthAdjust="spacing" textLength="77" x="1487" y="1274.9014">iron2 : Iron</text><rect fill="#FEFECE" filter="url(#fgmwztlyve3cs)" height="30.2969" style="stroke:#A80036;stroke-width:1.5;" width="69" x="1585" y="53"/><text fill="#000000" font-family="sans-serif" font-size="14" lengthAdjust="spacing" textLength="55" x="1592" y="72.9951">ice : Ice</text><rect fill="#FEFECE" filter="url(#fgmwztlyve3cs)" height="30.2969" style="stroke:#A80036;stroke-width:1.5;" width="69" x="1585" y="1254.9063"/><text fill="#000000" font-family="sans-serif" font-size="14" lengthAdjust="spacing" textLength="55" x="1592" y="1274.9014">ice : Ice</text><rect fill="#FEFECE" filter="url(#fgmwztlyve3cs)" height="30.2969" style="stroke:#A80036;stroke-width:1.5;" width="142" x="1668" y="53"/><text fill="#000000" font-family="sans-serif" font-size="14" lengthAdjust="spacing" textLength="128" x="1675" y="72.9951">uranium : Uranium</text><rect fill="#FEFECE" filter="url(#fgmwztlyve3cs)" height="30.2969" style="stroke:#A80036;stroke-width:1.5;" width="142" x="1668" y="1254.9063"/><text fill="#000000" font-family="sans-serif" font-size="14" lengthAdjust="spacing" textLength="128" x="1675" y="1274.9014">uranium : Uranium</text><rect fill="#FEFECE" filter="url(#fgmwztlyve3cs)" height="30.2969" style="stroke:#A80036;stroke-width:1.5;" width="35" x="1824" y="53"/><text fill="#000000" font-family="sans-serif" font-size="14" lengthAdjust="spacing" textLength="21" x="1831" y="72.9951">ice</text><rect fill="#FEFECE" filter="url(#fgmwztlyve3cs)" height="30.2969" style="stroke:#A80036;stroke-width:1.5;" width="35" x="1824" y="1254.9063"/><text fill="#000000" font-family="sans-serif" font-size="14" lengthAdjust="spacing" textLength="21" x="1831" y="1274.9014">ice</text><rect fill="#FEFECE" filter="url(#fgmwztlyve3cs)" height="30.2969" style="stroke:#A80036;stroke-width:1.5;" width="71" x="1873" y="53"/><text fill="#000000" font-family="sans-serif" font-size="14" lengthAdjust="spacing" textLength="57" x="1880" y="72.9951">uranium</text><rect fill="#FEFECE" filter="url(#fgmwztlyve3cs)" height="30.2969" style="stroke:#A80036;stroke-width:1.5;" width="71" x="1873" y="1254.9063"/><text fill="#000000" font-family="sans-serif" font-size="14" lengthAdjust="spacing" textLength="57" x="1880" y="1274.9014">uranium</text><rect fill="#FFFFFF" filter="url(#fgmwztlyve3cs)" height="1118.4766" style="stroke:#A80036;stroke-width:1.0;" width="10" x="130.5" y="119.4297"/><rect fill="#FFFFFF" filter="url(#fgmwztlyve3cs)" height="29.1328" style="stroke:#A80036;stroke-width:1.0;" width="10" x="135.5" y="177.6953"/><rect fill="#FFFFFF" filter="url(#fgmwztlyve3cs)" height="29.1328" style="stroke:#A80036;stroke-width:1.0;" width="10" x="135.5" y="281.2578"/><rect fill="#FFFFFF" filter="url(#fgmwztlyve3cs)" height="29.1328" style="stroke:#A80036;stroke-width:1.0;" width="10" x="135.5" y="1046.9453"/><rect fill="#FFFFFF" filter="url(#fgmwztlyve3cs)" height="29.1328" style="stroke:#A80036;stroke-width:1.0;" width="10" x="135.5" y="1150.5078"/><rect fill="#FFFFFF" filter="url(#fgmwztlyve3cs)" height="1060.2109" style="stroke:#A80036;stroke-width:1.0;" width="10" x="269" y="148.5625"/><rect fill="#FFFFFF" filter="url(#fgmwztlyve3cs)" height="359.0625" style="stroke:#A80036;stroke-width:1.0;" width="10" x="704" y="339.5234"/><rect fill="#FFFFFF" filter="url(#fgmwztlyve3cs)" height="14" style="stroke:#A80036;stroke-width:1.0;" width="10" x="709" y="397.7891"/><rect fill="#FFFFFF" filter="url(#fgmwztlyve3cs)" height="14" style="stroke:#A80036;stroke-width:1.0;" width="10" x="709" y="484.0547"/><rect fill="#FFFFFF" filter="url(#fgmwztlyve3cs)" height="14" style="stroke:#A80036;stroke-width:1.0;" width="10" x="709" y="570.3203"/><rect fill="#FFFFFF" filter="url(#fgmwztlyve3cs)" height="14" style="stroke:#A80036;stroke-width:1.0;" width="10" x="709" y="656.5859"/><rect fill="#FFFFFF" filter="url(#fgmwztlyve3cs)" height="29.1328" style="stroke:#A80036;stroke-width:1.0;" width="10" x="704" y="727.7188"/><rect fill="#FFFFFF" filter="url(#fgmwztlyve3cs)" height="186.5313" style="stroke:#A80036;stroke-width:1.0;" width="10" x="704" y="785.9844"/><rect fill="#FFFFFF" filter="url(#fgmwztlyve3cs)" height="93.5625" style="stroke:#A80036;stroke-width:1.0;" width="10" x="914" y="1011.6484"/><rect fill="#FFFFFF" filter="url(#fgmwztlyve3cs)" height="64.4297" style="stroke:#A80036;stroke-width:1.0;" width="10" x="1173.5" y="1115.2109"/><rect fill="#FFFFFF" filter="url(#fgmwztlyve3cs)" height="14" style="stroke:#A80036;stroke-width:1.0;" width="10" x="1298.5" y="815.1172"/><rect fill="#FFFFFF" filter="url(#fgmwztlyve3cs)" height="14" style="stroke:#A80036;stroke-width:1.0;" width="10" x="1298.5" y="858.25"/><rect fill="#FFFFFF" filter="url(#fgmwztlyve3cs)" height="14" style="stroke:#A80036;stroke-width:1.0;" width="10" x="1298.5" y="901.3828"/><rect fill="#FFFFFF" filter="url(#fgmwztlyve3cs)" height="14" style="stroke:#A80036;stroke-width:1.0;" width="10" x="1298.5" y="944.5156"/><rect fill="#FFFFFF" filter="url(#fgmwztlyve3cs)" height="57.1328" style="stroke:#A80036;stroke-width:1.0;" width="10" x="1417" y="368.6563"/><rect fill="#FFFFFF" filter="url(#fgmwztlyve3cs)" height="57.1328" style="stroke:#A80036;stroke-width:1.0;" width="10" x="1522.5" y="454.9219"/><rect fill="#FFFFFF" filter="url(#fgmwztlyve3cs)" height="57.1328" style="stroke:#A80036;stroke-width:1.0;" width="10" x="1838.5" y="541.1875"/><rect fill="#FFFFFF" filter="url(#fgmwztlyve3cs)" height="57.1328" style="stroke:#A80036;stroke-width:1.0;" width="10" x="1905.5" y="627.4531"/><polygon fill="#A80036" points="118.5,115.4297,128.5,119.4297,118.5,123.4297,122.5,119.4297" style="stroke:#A80036;stroke-width:1.0;"/><line style="stroke:#A80036;stroke-width:1.0;" x1="45.5" x2="124.5" y1="119.4297" y2="119.4297"/><text fill="#000000" font-family="sans-serif" font-size="13" lengthAdjust="spacing" textLength="60" x="52.5" y="114.3638">craft(rcp)</text><polygon fill="#A80036" points="257,144.5625,267,148.5625,257,152.5625,261,148.5625" style="stroke:#A80036;stroke-width:1.0;"/><line style="stroke:#A80036;stroke-width:1.0;" x1="140.5" x2="263" y1="148.5625" y2="148.5625"/><text fill="#000000" font-family="sans-serif" font-size="13" lengthAdjust="spacing" textLength="47" x="147.5" y="143.4966">craft(s)</text><polygon fill="#A80036" points="156.5,173.6953,146.5,177.6953,156.5,181.6953,152.5,177.6953" style="stroke:#A80036;stroke-width:1.0;"/><line style="stroke:#A80036;stroke-width:1.0;" x1="150.5" x2="268" y1="177.6953" y2="177.6953"/><text fill="#000000" font-family="sans-serif" font-size="13" lengthAdjust="spacing" textLength="86" x="162.5" y="172.6294">hasTeleport()</text><polygon fill="#A80036" points="257,202.8281,267,206.8281,257,210.8281,261,206.8281" style="stroke:#A80036;stroke-width:1.0;"/><line style="stroke:#A80036;stroke-width:1.0;stroke-dasharray:2.0,2.0;" x1="140.5" x2="263" y1="206.8281" y2="206.8281"/><text fill="#000000" font-family="sans-serif" font-size="13" lengthAdjust="spacing" textLength="31" x="147.5" y="201.7622">false</text><polygon fill="#A80036" points="552,231.9609,562,235.9609,552,239.9609,556,235.9609" style="stroke:#A80036;stroke-width:1.0;"/><line style="stroke:#A80036;stroke-width:1.0;" x1="279" x2="558" y1="235.9609" y2="235.9609"/><text fill="#000000" font-family="sans-serif" font-size="13" lengthAdjust="spacing" textLength="261" x="286" y="230.895">&lt;&lt;create&gt;&gt; TeleportResourceRegistry()</text><rect fill="#FEFECE" filter="url(#fgmwztlyve3cs)" height="30.2969" style="stroke:#A80036;stroke-width:1.5;" width="286" x="564" y="214.8281"/><text fill="#000000" font-family="sans-serif" font-size="14" lengthAdjust="spacing" textLength="272" x="571" y="234.8232">telResReg: TeleportResourceRegistry</text><polygon fill="#A80036" points="156.5,277.2578,146.5,281.2578,156.5,285.2578,152.5,281.2578" style="stroke:#A80036;stroke-width:1.0;"/><line style="stroke:#A80036;stroke-width:1.0;" x1="150.5" x2="268" y1="281.2578" y2="281.2578"/><text fill="#000000" font-family="sans-serif" font-size="13" lengthAdjust="spacing" textLength="92" x="162.5" y="276.1919">getInventory()</text><polygon fill="#A80036" points="257,306.3906,267,310.3906,257,314.3906,261,310.3906" style="stroke:#A80036;stroke-width:1.0;"/><line style="stroke:#A80036;stroke-width:1.0;stroke-dasharray:2.0,2.0;" x1="140.5" x2="263" y1="310.3906" y2="310.3906"/><text fill="#000000" font-family="sans-serif" font-size="13" lengthAdjust="spacing" textLength="19" x="147.5" y="305.3247">inv</text><polygon fill="#A80036" points="692,335.5234,702,339.5234,692,343.5234,696,339.5234" style="stroke:#A80036;stroke-width:1.0;"/><line style="stroke:#A80036;stroke-width:1.0;" x1="279" x2="698" y1="339.5234" y2="339.5234"/><text fill="#000000" font-family="sans-serif" font-size="13" lengthAdjust="spacing" textLength="78" x="286" y="334.4575">register(inv)</text><polygon fill="#A80036" points="1405,364.6563,1415,368.6563,1405,372.6563,1409,368.6563" style="stroke:#A80036;stroke-width:1.0;"/><line style="stroke:#A80036;stroke-width:1.0;" x1="714" x2="1411" y1="368.6563" y2="368.6563"/><text fill="#000000" font-family="sans-serif" font-size="13" lengthAdjust="spacing" textLength="163" x="721" y="363.5903">giveSignature(telResReg)</text><polygon fill="#A80036" points="730,393.7891,720,397.7891,730,401.7891,726,397.7891" style="stroke:#A80036;stroke-width:1.0;"/><line style="stroke:#A80036;stroke-width:1.0;" x1="724" x2="1416" y1="397.7891" y2="397.7891"/><text fill="#000000" font-family="sans-serif" font-size="13" lengthAdjust="spacing" textLength="91" x="736" y="392.7231">register(iron1)</text><polygon fill="#A80036" points="1405,407.7891,1415,411.7891,1405,415.7891,1409,411.7891" style="stroke:#A80036;stroke-width:1.0;"/><line style="stroke:#A80036;stroke-width:1.0;stroke-dasharray:2.0,2.0;" x1="714" x2="1411" y1="411.7891" y2="411.7891"/><polygon fill="#A80036" points="725,421.7891,715,425.7891,725,429.7891,721,425.7891" style="stroke:#A80036;stroke-width:1.0;"/><line style="stroke:#A80036;stroke-width:1.0;stroke-dasharray:2.0,2.0;" x1="719" x2="1421" y1="425.7891" y2="425.7891"/><polygon fill="#A80036" points="1510.5,450.9219,1520.5,454.9219,1510.5,458.9219,1514.5,454.9219" style="stroke:#A80036;stroke-width:1.0;"/><line style="stroke:#A80036;stroke-width:1.0;" x1="714" x2="1516.5" y1="454.9219" y2="454.9219"/><text fill="#000000" font-family="sans-serif" font-size="13" lengthAdjust="spacing" textLength="163" x="721" y="449.856">giveSignature(telResReg)</text><polygon fill="#A80036" points="730,480.0547,720,484.0547,730,488.0547,726,484.0547" style="stroke:#A80036;stroke-width:1.0;"/><line style="stroke:#A80036;stroke-width:1.0;" x1="724" x2="1421" y1="484.0547" y2="484.0547"/><text fill="#000000" font-family="sans-serif" font-size="13" lengthAdjust="spacing" textLength="91" x="736" y="478.9888">register(iron2)</text><polygon fill="#A80036" points="1410,494.0547,1420,498.0547,1410,502.0547,1414,498.0547" style="stroke:#A80036;stroke-width:1.0;"/><line style="stroke:#A80036;stroke-width:1.0;stroke-dasharray:2.0,2.0;" x1="714" x2="1416" y1="498.0547" y2="498.0547"/><polygon fill="#A80036" points="725,508.0547,715,512.0547,725,516.0547,721,512.0547" style="stroke:#A80036;stroke-width:1.0;"/><line style="stroke:#A80036;stroke-width:1.0;stroke-dasharray:2.0,2.0;" x1="719" x2="1526.5" y1="512.0547" y2="512.0547"/><polygon fill="#A80036" points="1826.5,537.1875,1836.5,541.1875,1826.5,545.1875,1830.5,541.1875" style="stroke:#A80036;stroke-width:1.0;"/><line style="stroke:#A80036;stroke-width:1.0;" x1="714" x2="1832.5" y1="541.1875" y2="541.1875"/><text fill="#000000" font-family="sans-serif" font-size="13" lengthAdjust="spacing" textLength="163" x="721" y="536.1216">giveSignature(telResReg)</text><polygon fill="#A80036" points="730,566.3203,720,570.3203,730,574.3203,726,570.3203" style="stroke:#A80036;stroke-width:1.0;"/><line style="stroke:#A80036;stroke-width:1.0;" x1="724" x2="1837.5" y1="570.3203" y2="570.3203"/><text fill="#000000" font-family="sans-serif" font-size="13" lengthAdjust="spacing" textLength="77" x="736" y="565.2544">register(ice)</text><polygon fill="#A80036" points="1826.5,580.3203,1836.5,584.3203,1826.5,588.3203,1830.5,584.3203" style="stroke:#A80036;stroke-width:1.0;"/><line style="stroke:#A80036;stroke-width:1.0;stroke-dasharray:2.0,2.0;" x1="714" x2="1832.5" y1="584.3203" y2="584.3203"/><polygon fill="#A80036" points="725,594.3203,715,598.3203,725,602.3203,721,598.3203" style="stroke:#A80036;stroke-width:1.0;"/><line style="stroke:#A80036;stroke-width:1.0;stroke-dasharray:2.0,2.0;" x1="719" x2="1842.5" y1="598.3203" y2="598.3203"/><polygon fill="#A80036" points="1893.5,623.4531,1903.5,627.4531,1893.5,631.4531,1897.5,627.4531" style="stroke:#A80036;stroke-width:1.0;"/><line style="stroke:#A80036;stroke-width:1.0;" x1="714" x2="1899.5" y1="627.4531" y2="627.4531"/><text fill="#000000" font-family="sans-serif" font-size="13" lengthAdjust="spacing" textLength="163" x="721" y="622.3872">giveSignature(telResReg)</text><polygon fill="#A80036" points="730,652.5859,720,656.5859,730,660.5859,726,656.5859" style="stroke:#A80036;stroke-width:1.0;"/><line style="stroke:#A80036;stroke-width:1.0;" x1="724" x2="1904.5" y1="656.5859" y2="656.5859"/><text fill="#000000" font-family="sans-serif" font-size="13" lengthAdjust="spacing" textLength="112" x="736" y="651.52">register(uranium)</text><polygon fill="#A80036" points="1893.5,666.5859,1903.5,670.5859,1893.5,674.5859,1897.5,670.5859" style="stroke:#A80036;stroke-width:1.0;"/><line style="stroke:#A80036;stroke-width:1.0;stroke-dasharray:2.0,2.0;" x1="714" x2="1899.5" y1="670.5859" y2="670.5859"/><polygon fill="#A80036" points="725,680.5859,715,684.5859,725,688.5859,721,684.5859" style="stroke:#A80036;stroke-width:1.0;"/><line style="stroke:#A80036;stroke-width:1.0;stroke-dasharray:2.0,2.0;" x1="719" x2="1909.5" y1="684.5859" y2="684.5859"/><polygon fill="#A80036" points="290,694.5859,280,698.5859,290,702.5859,286,698.5859" style="stroke:#A80036;stroke-width:1.0;"/><line style="stroke:#A80036;stroke-width:1.0;stroke-dasharray:2.0,2.0;" x1="284" x2="708" y1="698.5859" y2="698.5859"/><polygon fill="#A80036" points="692,723.7188,702,727.7188,692,731.7188,696,727.7188" style="stroke:#A80036;stroke-width:1.0;"/><line style="stroke:#A80036;stroke-width:1.0;" x1="279" x2="698" y1="727.7188" y2="727.7188"/><text fill="#000000" font-family="sans-serif" font-size="13" lengthAdjust="spacing" textLength="88" x="286" y="722.6528">isSuccessful()</text><polygon fill="#A80036" points="290,752.8516,280,756.8516,290,760.8516,286,756.8516" style="stroke:#A80036;stroke-width:1.0;"/><line style="stroke:#A80036;stroke-width:1.0;stroke-dasharray:2.0,2.0;" x1="284" x2="708" y1="756.8516" y2="756.8516"/><text fill="#000000" font-family="sans-serif" font-size="13" lengthAdjust="spacing" textLength="26" x="296" y="751.7856">true</text><polygon fill="#A80036" points="692,781.9844,702,785.9844,692,789.9844,696,785.9844" style="stroke:#A80036;stroke-width:1.0;"/><line style="stroke:#A80036;stroke-width:1.0;" x1="279" x2="698" y1="785.9844" y2="785.9844"/><text fill="#000000" font-family="sans-serif" font-size="13" lengthAdjust="spacing" textLength="193" x="286" y="780.9185">removeRequiredMaterials(inv)</text><polygon fill="#A80036" points="1286.5,811.1172,1296.5,815.1172,1286.5,819.1172,1290.5,815.1172" style="stroke:#A80036;stroke-width:1.0;"/><line style="stroke:#A80036;stroke-width:1.0;" x1="714" x2="1292.5" y1="815.1172" y2="815.1172"/><text fill="#000000" font-family="sans-serif" font-size="13" lengthAdjust="spacing" textLength="142" x="721" y="810.0513">removeMaterial(iron1)</text><polygon fill="#A80036" points="725,825.1172,715,829.1172,725,833.1172,721,829.1172" style="stroke:#A80036;stroke-width:1.0;"/><line style="stroke:#A80036;stroke-width:1.0;stroke-dasharray:2.0,2.0;" x1="719" x2="1302.5" y1="829.1172" y2="829.1172"/><polygon fill="#A80036" points="1286.5,854.25,1296.5,858.25,1286.5,862.25,1290.5,858.25" style="stroke:#A80036;stroke-width:1.0;"/><line style="stroke:#A80036;stroke-width:1.0;" x1="714" x2="1292.5" y1="858.25" y2="858.25"/><text fill="#000000" font-family="sans-serif" font-size="13" lengthAdjust="spacing" textLength="142" x="721" y="853.1841">removeMaterial(iron2)</text><polygon fill="#A80036" points="725,868.25,715,872.25,725,876.25,721,872.25" style="stroke:#A80036;stroke-width:1.0;"/><line style="stroke:#A80036;stroke-width:1.0;stroke-dasharray:2.0,2.0;" x1="719" x2="1302.5" y1="872.25" y2="872.25"/><polygon fill="#A80036" points="1286.5,897.3828,1296.5,901.3828,1286.5,905.3828,1290.5,901.3828" style="stroke:#A80036;stroke-width:1.0;"/><line style="stroke:#A80036;stroke-width:1.0;" x1="714" x2="1292.5" y1="901.3828" y2="901.3828"/><text fill="#000000" font-family="sans-serif" font-size="13" lengthAdjust="spacing" textLength="128" x="721" y="896.3169">removeMaterial(ice)</text><polygon fill="#A80036" points="725,911.3828,715,915.3828,725,919.3828,721,915.3828" style="stroke:#A80036;stroke-width:1.0;"/><line style="stroke:#A80036;stroke-width:1.0;stroke-dasharray:2.0,2.0;" x1="719" x2="1302.5" y1="915.3828" y2="915.3828"/><polygon fill="#A80036" points="1286.5,940.5156,1296.5,944.5156,1286.5,948.5156,1290.5,944.5156" style="stroke:#A80036;stroke-width:1.0;"/><line style="stroke:#A80036;stroke-width:1.0;" x1="714" x2="1292.5" y1="944.5156" y2="944.5156"/><text fill="#000000" font-family="sans-serif" font-size="13" lengthAdjust="spacing" textLength="163" x="721" y="939.4497">removeMaterial(uranium)</text><polygon fill="#A80036" points="725,954.5156,715,958.5156,725,962.5156,721,958.5156" style="stroke:#A80036;stroke-width:1.0;"/><line style="stroke:#A80036;stroke-width:1.0;stroke-dasharray:2.0,2.0;" x1="719" x2="1302.5" y1="958.5156" y2="958.5156"/><polygon fill="#A80036" points="290,968.5156,280,972.5156,290,976.5156,286,972.5156" style="stroke:#A80036;stroke-width:1.0;"/><line style="stroke:#A80036;stroke-width:1.0;stroke-dasharray:2.0,2.0;" x1="284" x2="708" y1="972.5156" y2="972.5156"/><polygon fill="#A80036" points="852,997.6484,862,1001.6484,852,1005.6484,856,1001.6484" style="stroke:#A80036;stroke-width:1.0;"/><line style="stroke:#A80036;stroke-width:1.0;" x1="279" x2="858" y1="1001.6484" y2="1001.6484"/><text fill="#000000" font-family="sans-serif" font-size="13" lengthAdjust="spacing" textLength="155" x="286" y="996.5825">&lt;&lt;create&gt;&gt; Teleport(s)</text><rect fill="#FEFECE" filter="url(#fgmwztlyve3cs)" height="30.2969" style="stroke:#A80036;stroke-width:1.5;" width="106" x="864" y="980.5156"/><text fill="#000000" font-family="sans-serif" font-size="14" lengthAdjust="spacing" textLength="92" x="871" y="1000.5107">t1 : Teleport</text><polygon fill="#A80036" points="156.5,1042.9453,146.5,1046.9453,156.5,1050.9453,152.5,1046.9453" style="stroke:#A80036;stroke-width:1.0;"/><line style="stroke:#A80036;stroke-width:1.0;" x1="150.5" x2="913" y1="1046.9453" y2="1046.9453"/><text fill="#000000" font-family="sans-serif" font-size="13" lengthAdjust="spacing" textLength="119" x="162.5" y="1041.8794">acceptTeleport(t1)</text><polygon fill="#A80036" points="902,1072.0781,912,1076.0781,902,1080.0781,906,1076.0781" style="stroke:#A80036;stroke-width:1.0;"/><line style="stroke:#A80036;stroke-width:1.0;stroke-dasharray:2.0,2.0;" x1="140.5" x2="908" y1="1076.0781" y2="1076.0781"/><text fill="#000000" font-family="sans-serif" font-size="13" lengthAdjust="spacing" textLength="26" x="147.5" y="1071.0122">true</text><polygon fill="#A80036" points="1112,1101.2109,1122,1105.2109,1112,1109.2109,1116,1105.2109" style="stroke:#A80036;stroke-width:1.0;"/><line style="stroke:#A80036;stroke-width:1.0;" x1="919" x2="1118" y1="1105.2109" y2="1105.2109"/><text fill="#000000" font-family="sans-serif" font-size="13" lengthAdjust="spacing" textLength="176" x="926" y="1100.145">&lt;&lt;create&gt;&gt; Teleport(s, t1)</text><rect fill="#FEFECE" filter="url(#fgmwztlyve3cs)" height="30.2969" style="stroke:#A80036;stroke-width:1.5;" width="105" x="1124" y="1084.0781"/><text fill="#000000" font-family="sans-serif" font-size="14" lengthAdjust="spacing" textLength="91" x="1131" y="1104.0732">t2 : Teleport</text><polygon fill="#A80036" points="156.5,1146.5078,146.5,1150.5078,156.5,1154.5078,152.5,1150.5078" style="stroke:#A80036;stroke-width:1.0;"/><line style="stroke:#A80036;stroke-width:1.0;" x1="150.5" x2="1172.5" y1="1150.5078" y2="1150.5078"/><text fill="#000000" font-family="sans-serif" font-size="13" lengthAdjust="spacing" textLength="119" x="162.5" y="1145.4419">acceptTeleport(t2)</text><polygon fill="#A80036" points="1166.5,1175.6406,1176.5,1179.6406,1166.5,1183.6406,1170.5,1179.6406" style="stroke:#A80036;stroke-width:1.0;"/><line style="stroke:#A80036;stroke-width:1.0;stroke-dasharray:2.0,2.0;" x1="140.5" x2="1172.5" y1="1179.6406" y2="1179.6406"/><text fill="#000000" font-family="sans-serif" font-size="13" lengthAdjust="spacing" textLength="26" x="147.5" y="1174.5747">true</text><polygon fill="#A80036" points="151.5,1204.7734,141.5,1208.7734,151.5,1212.7734,147.5,1208.7734" style="stroke:#A80036;stroke-width:1.0;"/><line style="stroke:#A80036;stroke-width:1.0;stroke-dasharray:2.0,2.0;" x1="145.5" x2="273" y1="1208.7734" y2="1208.7734"/><text fill="#000000" font-family="sans-serif" font-size="13" lengthAdjust="spacing" textLength="26" x="157.5" y="1203.7075">true</text><polygon fill="#A80036" points="56.5,1233.9063,46.5,1237.9063,56.5,1241.9063,52.5,1237.9063" style="stroke:#A80036;stroke-width:1.0;"/><line style="stroke:#A80036;stroke-width:1.0;stroke-dasharray:2.0,2.0;" x1="50.5" x2="134.5" y1="1237.9063" y2="1237.9063"/><text fill="#000000" font-family="sans-serif" font-size="13" lengthAdjust="spacing" textLength="26" x="62.5" y="1232.8403">true</text><!--MD5=[438a3ccc10fbac3300c4c03c3dfb51cb]
@startuml
actor "Skeleton" as player
participant "s : Settler" as s
participant "rcp : TeleportRecipe" as rcp
participant "telResReg: TeleportResourceRegistry" as resReg
participant "t1 : Teleport" as t1
participant "t2 : Teleport" as t2

participant "inv : Inventory" as inv
participant "iron1 : Iron" as iron
participant "iron2 : Iron" as iron2
participant "ice : Ice"
participant "uranium : Uranium"

player->s ++: craft(rcp)

s->rcp ++:craft(s)
    rcp->s ++:hasTeleport()
    return false
    
    
    rcp->resReg **: <<create>> TeleportResourceRegistry()
    rcp->s ++: getInventory()
    return inv
    
     rcp->resReg ++:register(inv)
        resReg->iron ++:giveSignature(telResReg)
            iron->resReg ++: register(iron1)
            return
        return
        resReg->iron2 ++:giveSignature(telResReg)
            iron->resReg ++: register(iron2)
            return
        return
        resReg->ice ++:giveSignature(telResReg)
            ice->resReg ++: register(ice)
            return
        return
        resReg->uranium ++:giveSignature(telResReg)
            uranium->resReg ++: register(uranium)
            return
        return
    return
    rcp->resReg ++:isSuccessful()
    return true
    
    rcp->resReg ++: removeRequiredMaterials(inv)
    resReg ->inv ++:removeMaterial(iron1)
    return
    resReg ->inv ++:removeMaterial(iron2)
    return
    resReg ->inv ++:removeMaterial(ice)
    return
    resReg->inv ++:removeMaterial(uranium)
    return
    return
        rcp->t1 **:<<create>> Teleport(s)
        activate t1
            t1->s ++:acceptTeleport(t1)
            return true
            t1->t2 **:<<create>> Teleport(s, t1)
        deactivate t1
            activate t2
                t2->s ++:acceptTeleport(t2)
                return true
            deactivate t2
        
    
return true

return true
@enduml

PlantUML version 1.2021.3beta7(Unknown compile time)
(GPL source distribution)
Java Runtime: Java(TM) SE Runtime Environment
JVM: Java HotSpot(TM) 64-Bit Server VM
Default Encoding: UTF-8
Language: en
Country: US
--></g></svg>