<?xml version="1.0" encoding="UTF-8" standalone="no"?><svg xmlns="http://www.w3.org/2000/svg" xmlns:xlink="http://www.w3.org/1999/xlink" contentScriptType="application/ecmascript" contentStyleType="text/css" height="577px" preserveAspectRatio="none" style="width:798px;height:577px;" version="1.1" viewBox="0 0 798 577" width="798px" zoomAndPan="magnify"><defs><filter height="300%" id="f14a0gszv7dfuw" width="300%" x="-1" y="-1"><feGaussianBlur result="blurOut" stdDeviation="2.0"/><feColorMatrix in="blurOut" result="blurOut2" type="matrix" values="0 0 0 0 0 0 0 0 0 0 0 0 0 0 0 0 0 0 .4 0"/><feOffset dx="4.0" dy="4.0" in="blurOut2" result="blurOut3"/><feBlend in="SourceGraphic" in2="blurOut3" mode="normal"/></filter></defs><g><rect fill="#FFFFFF" filter="url(#f14a0gszv7dfuw)" height="355.9297" style="stroke:#A80036;stroke-width:1.0;" width="10" x="187.5" y="119.4297"/><rect fill="#FFFFFF" filter="url(#f14a0gszv7dfuw)" height="312.7969" style="stroke:#A80036;stroke-width:1.0;" width="10" x="334.5" y="148.5625"/><rect fill="#FFFFFF" filter="url(#f14a0gszv7dfuw)" height="14" style="stroke:#A80036;stroke-width:1.0;" width="10" x="339.5" y="230.9609"/><rect fill="#FFFFFF" filter="url(#f14a0gszv7dfuw)" height="238.5313" style="stroke:#A80036;stroke-width:1.0;" width="10" x="481.5" y="201.8281"/><rect fill="#FFFFFF" filter="url(#f14a0gszv7dfuw)" height="152.2656" style="stroke:#A80036;stroke-width:1.0;" width="10" x="619.5" y="274.0938"/><rect fill="#FFFFFF" filter="url(#f14a0gszv7dfuw)" height="25" style="stroke:#A80036;stroke-width:1.0;" width="10" x="624.5" y="311.2266"/><rect fill="#FFFFFF" filter="url(#f14a0gszv7dfuw)" height="25" style="stroke:#A80036;stroke-width:1.0;" width="10" x="624.5" y="380.3594"/><rect fill="#FFFFFF" filter="url(#f14a0gszv7dfuw)" height="284.7969" style="stroke:#000000;stroke-width:2.0;" width="503" x="281.5" y="163.5625"/><line style="stroke:#A80036;stroke-width:1.0;stroke-dasharray:5.0,5.0;" x1="45" x2="45" y1="88.2969" y2="493.3594"/><line style="stroke:#A80036;stroke-width:1.0;stroke-dasharray:5.0,5.0;" x1="192.5" x2="192.5" y1="88.2969" y2="493.3594"/><line style="stroke:#A80036;stroke-width:1.0;stroke-dasharray:5.0,5.0;" x1="339.5" x2="339.5" y1="88.2969" y2="493.3594"/><line style="stroke:#A80036;stroke-width:1.0;stroke-dasharray:5.0,5.0;" x1="486" x2="486" y1="88.2969" y2="493.3594"/><line style="stroke:#A80036;stroke-width:1.0;stroke-dasharray:5.0,5.0;" x1="624.5" x2="624.5" y1="88.2969" y2="493.3594"/><text fill="#000000" font-family="sans-serif" font-size="14" lengthAdjust="spacing" textLength="65" x="10" y="84.9951">Skeleton</text><ellipse cx="45.5" cy="15" fill="#FEFECE" filter="url(#f14a0gszv7dfuw)" rx="8" ry="8" style="stroke:#A80036;stroke-width:2.0;"/><path d="M45.5,23 L45.5,50 M32.5,31 L58.5,31 M45.5,50 L32.5,65 M45.5,50 L58.5,65 " fill="none" filter="url(#f14a0gszv7dfuw)" style="stroke:#A80036;stroke-width:2.0;"/><text fill="#000000" font-family="sans-serif" font-size="14" lengthAdjust="spacing" textLength="65" x="10" y="505.3545">Skeleton</text><ellipse cx="45.5" cy="518.6563" fill="#FEFECE" filter="url(#f14a0gszv7dfuw)" rx="8" ry="8" style="stroke:#A80036;stroke-width:2.0;"/><path d="M45.5,526.6563 L45.5,553.6563 M32.5,534.6563 L58.5,534.6563 M45.5,553.6563 L32.5,568.6563 M45.5,553.6563 L58.5,568.6563 " fill="none" filter="url(#f14a0gszv7dfuw)" style="stroke:#A80036;stroke-width:2.0;"/><rect fill="#FEFECE" filter="url(#f14a0gszv7dfuw)" height="30.2969" style="stroke:#A80036;stroke-width:1.5;" width="132" x="124.5" y="53"/><text fill="#000000" font-family="sans-serif" font-size="14" lengthAdjust="spacing" textLength="118" x="131.5" y="72.9951">af: AsteroidField</text><rect fill="#FEFECE" filter="url(#f14a0gszv7dfuw)" height="30.2969" style="stroke:#A80036;stroke-width:1.5;" width="132" x="124.5" y="492.3594"/><text fill="#000000" font-family="sans-serif" font-size="14" lengthAdjust="spacing" textLength="118" x="131.5" y="512.3545">af: AsteroidField</text><rect fill="#FEFECE" filter="url(#f14a0gszv7dfuw)" height="30.2969" style="stroke:#A80036;stroke-width:1.5;" width="92" x="291.5" y="53"/><text fill="#000000" font-family="sans-serif" font-size="14" lengthAdjust="spacing" textLength="78" x="298.5" y="72.9951">a: Asteroid</text><rect fill="#FEFECE" filter="url(#f14a0gszv7dfuw)" height="30.2969" style="stroke:#A80036;stroke-width:1.5;" width="92" x="291.5" y="492.3594"/><text fill="#000000" font-family="sans-serif" font-size="14" lengthAdjust="spacing" textLength="78" x="298.5" y="512.3545">a: Asteroid</text><rect fill="#FEFECE" filter="url(#f14a0gszv7dfuw)" height="30.2969" style="stroke:#A80036;stroke-width:1.5;" width="81" x="444" y="53"/><text fill="#000000" font-family="sans-serif" font-size="14" lengthAdjust="spacing" textLength="67" x="451" y="72.9951">s: Settler</text><rect fill="#FEFECE" filter="url(#f14a0gszv7dfuw)" height="30.2969" style="stroke:#A80036;stroke-width:1.5;" width="81" x="444" y="492.3594"/><text fill="#000000" font-family="sans-serif" font-size="14" lengthAdjust="spacing" textLength="67" x="451" y="512.3545">s: Settler</text><rect fill="#FEFECE" filter="url(#f14a0gszv7dfuw)" height="30.2969" style="stroke:#A80036;stroke-width:1.5;" width="74" x="585.5" y="53"/><text fill="#000000" font-family="sans-serif" font-size="14" lengthAdjust="spacing" textLength="60" x="592.5" y="72.9951">g :Game</text><rect fill="#FEFECE" filter="url(#f14a0gszv7dfuw)" height="30.2969" style="stroke:#A80036;stroke-width:1.5;" width="74" x="585.5" y="492.3594"/><text fill="#000000" font-family="sans-serif" font-size="14" lengthAdjust="spacing" textLength="60" x="592.5" y="512.3545">g :Game</text><rect fill="#FFFFFF" filter="url(#f14a0gszv7dfuw)" height="355.9297" style="stroke:#A80036;stroke-width:1.0;" width="10" x="187.5" y="119.4297"/><rect fill="#FFFFFF" filter="url(#f14a0gszv7dfuw)" height="312.7969" style="stroke:#A80036;stroke-width:1.0;" width="10" x="334.5" y="148.5625"/><rect fill="#FFFFFF" filter="url(#f14a0gszv7dfuw)" height="14" style="stroke:#A80036;stroke-width:1.0;" width="10" x="339.5" y="230.9609"/><rect fill="#FFFFFF" filter="url(#f14a0gszv7dfuw)" height="238.5313" style="stroke:#A80036;stroke-width:1.0;" width="10" x="481.5" y="201.8281"/><rect fill="#FFFFFF" filter="url(#f14a0gszv7dfuw)" height="152.2656" style="stroke:#A80036;stroke-width:1.0;" width="10" x="619.5" y="274.0938"/><rect fill="#FFFFFF" filter="url(#f14a0gszv7dfuw)" height="25" style="stroke:#A80036;stroke-width:1.0;" width="10" x="624.5" y="311.2266"/><rect fill="#FFFFFF" filter="url(#f14a0gszv7dfuw)" height="25" style="stroke:#A80036;stroke-width:1.0;" width="10" x="624.5" y="380.3594"/><polygon fill="#A80036" points="175.5,115.4297,185.5,119.4297,175.5,123.4297,179.5,119.4297" style="stroke:#A80036;stroke-width:1.0;"/><line style="stroke:#A80036;stroke-width:1.0;" x1="45.5" x2="181.5" y1="119.4297" y2="119.4297"/><text fill="#000000" font-family="sans-serif" font-size="13" lengthAdjust="spacing" textLength="123" x="52.5" y="114.3638">induceSolarStorm()</text><polygon fill="#A80036" points="322.5,144.5625,332.5,148.5625,322.5,152.5625,326.5,148.5625" style="stroke:#A80036;stroke-width:1.0;"/><line style="stroke:#A80036;stroke-width:1.0;" x1="197.5" x2="328.5" y1="148.5625" y2="148.5625"/><text fill="#000000" font-family="sans-serif" font-size="13" lengthAdjust="spacing" textLength="118" x="204.5" y="143.4966">sufferSolarstorm()</text><path d="M281.5,163.5625 L353.5,163.5625 L353.5,170.5625 L343.5,180.5625 L281.5,180.5625 L281.5,163.5625 " fill="#EEEEEE" style="stroke:#000000;stroke-width:1.0;"/><rect fill="none" height="284.7969" style="stroke:#000000;stroke-width:2.0;" width="503" x="281.5" y="163.5625"/><text fill="#000000" font-family="sans-serif" font-size="13" font-weight="bold" lengthAdjust="spacing" textLength="27" x="296.5" y="176.6294">opt</text><text fill="#000000" font-family="sans-serif" font-size="11" font-weight="bold" lengthAdjust="spacing" textLength="156" x="368.5" y="175.7729">[layers != layersDrilled]</text><polygon fill="#A80036" points="469.5,197.8281,479.5,201.8281,469.5,205.8281,473.5,201.8281" style="stroke:#A80036;stroke-width:1.0;"/><line style="stroke:#A80036;stroke-width:1.0;" x1="344.5" x2="475.5" y1="201.8281" y2="201.8281"/><text fill="#000000" font-family="sans-serif" font-size="13" lengthAdjust="spacing" textLength="29" x="351.5" y="196.7622">die()</text><polygon fill="#A80036" points="360.5,226.9609,350.5,230.9609,360.5,234.9609,356.5,230.9609" style="stroke:#A80036;stroke-width:1.0;"/><line style="stroke:#A80036;stroke-width:1.0;" x1="354.5" x2="480.5" y1="230.9609" y2="230.9609"/><text fill="#000000" font-family="sans-serif" font-size="13" lengthAdjust="spacing" textLength="113" x="366.5" y="225.895">removeWorker(s)</text><polygon fill="#A80036" points="469.5,240.9609,479.5,244.9609,469.5,248.9609,473.5,244.9609" style="stroke:#A80036;stroke-width:1.0;"/><line style="stroke:#A80036;stroke-width:1.0;stroke-dasharray:2.0,2.0;" x1="344.5" x2="475.5" y1="244.9609" y2="244.9609"/><polygon fill="#A80036" points="607.5,270.0938,617.5,274.0938,607.5,278.0938,611.5,274.0938" style="stroke:#A80036;stroke-width:1.0;"/><line style="stroke:#A80036;stroke-width:1.0;" x1="491.5" x2="613.5" y1="274.0938" y2="274.0938"/><text fill="#000000" font-family="sans-serif" font-size="13" lengthAdjust="spacing" textLength="109" x="498.5" y="269.0278">removeSettler(s)</text><line style="stroke:#A80036;stroke-width:1.0;" x1="629.5" x2="676.5" y1="298.2266" y2="298.2266"/><line style="stroke:#A80036;stroke-width:1.0;" x1="676.5" x2="676.5" y1="298.2266" y2="311.2266"/><line style="stroke:#A80036;stroke-width:1.0;" x1="635.5" x2="676.5" y1="311.2266" y2="311.2266"/><polygon fill="#A80036" points="645.5,307.2266,635.5,311.2266,645.5,315.2266,641.5,311.2266" style="stroke:#A80036;stroke-width:1.0;"/><text fill="#000000" font-family="sans-serif" font-size="13" lengthAdjust="spacing" textLength="131" x="641.5" y="293.1606">removeSteppable(s)</text><line style="stroke:#A80036;stroke-width:1.0;stroke-dasharray:2.0,2.0;" x1="634.5" x2="676.5" y1="335.2266" y2="335.2266"/><line style="stroke:#A80036;stroke-width:1.0;stroke-dasharray:2.0,2.0;" x1="676.5" x2="676.5" y1="335.2266" y2="348.2266"/><line style="stroke:#A80036;stroke-width:1.0;stroke-dasharray:2.0,2.0;" x1="629.5" x2="676.5" y1="348.2266" y2="348.2266"/><polygon fill="#A80036" points="639.5,344.2266,629.5,348.2266,639.5,352.2266,635.5,348.2266" style="stroke:#A80036;stroke-width:1.0;"/><line style="stroke:#A80036;stroke-width:1.0;" x1="629.5" x2="676.5" y1="367.3594" y2="367.3594"/><line style="stroke:#A80036;stroke-width:1.0;" x1="676.5" x2="676.5" y1="367.3594" y2="380.3594"/><line style="stroke:#A80036;stroke-width:1.0;" x1="635.5" x2="676.5" y1="380.3594" y2="380.3594"/><polygon fill="#A80036" points="645.5,376.3594,635.5,380.3594,645.5,384.3594,641.5,380.3594" style="stroke:#A80036;stroke-width:1.0;"/><text fill="#000000" font-family="sans-serif" font-size="13" lengthAdjust="spacing" textLength="104" x="641.5" y="362.2935">endGame(false)</text><line style="stroke:#A80036;stroke-width:1.0;stroke-dasharray:2.0,2.0;" x1="634.5" x2="676.5" y1="404.3594" y2="404.3594"/><line style="stroke:#A80036;stroke-width:1.0;stroke-dasharray:2.0,2.0;" x1="676.5" x2="676.5" y1="404.3594" y2="417.3594"/><line style="stroke:#A80036;stroke-width:1.0;stroke-dasharray:2.0,2.0;" x1="629.5" x2="676.5" y1="417.3594" y2="417.3594"/><polygon fill="#A80036" points="639.5,413.3594,629.5,417.3594,639.5,421.3594,635.5,417.3594" style="stroke:#A80036;stroke-width:1.0;"/><polygon fill="#A80036" points="502.5,422.3594,492.5,426.3594,502.5,430.3594,498.5,426.3594" style="stroke:#A80036;stroke-width:1.0;"/><line style="stroke:#A80036;stroke-width:1.0;stroke-dasharray:2.0,2.0;" x1="496.5" x2="623.5" y1="426.3594" y2="426.3594"/><polygon fill="#A80036" points="355.5,436.3594,345.5,440.3594,355.5,444.3594,351.5,440.3594" style="stroke:#A80036;stroke-width:1.0;"/><line style="stroke:#A80036;stroke-width:1.0;stroke-dasharray:2.0,2.0;" x1="349.5" x2="485.5" y1="440.3594" y2="440.3594"/><polygon fill="#A80036" points="208.5,457.3594,198.5,461.3594,208.5,465.3594,204.5,461.3594" style="stroke:#A80036;stroke-width:1.0;"/><line style="stroke:#A80036;stroke-width:1.0;stroke-dasharray:2.0,2.0;" x1="202.5" x2="338.5" y1="461.3594" y2="461.3594"/><polygon fill="#A80036" points="56.5,471.3594,46.5,475.3594,56.5,479.3594,52.5,475.3594" style="stroke:#A80036;stroke-width:1.0;"/><line style="stroke:#A80036;stroke-width:1.0;stroke-dasharray:2.0,2.0;" x1="50.5" x2="191.5" y1="475.3594" y2="475.3594"/><!--MD5=[ae7ead265087df64f0084285a8f8593e]
@startuml
actor "Skeleton" as controller
participant "af: AsteroidField" as af
participant "a: Asteroid" as a
participant "s: Settler" as s
participant "g :Game" as game



controller->af ++: induceSolarStorm()
            af->a ++:sufferSolarstorm()
                opt layers != layersDrilled
                    a-> s ++: die()
                        s->a ++:removeWorker(s)
                        return
                        
                        s->game ++:removeSettler(s)
                            game->game ++:removeSteppable(s)
                            return
                            game->game ++:endGame(false)
                            return
                        return
                    return
                end
            return
return
@enduml

PlantUML version 1.2021.3beta7(Unknown compile time)
(GPL source distribution)
Java Runtime: Java(TM) SE Runtime Environment
JVM: Java HotSpot(TM) 64-Bit Server VM
Default Encoding: UTF-8
Language: en
Country: US
--></g></svg>