<?xml version="1.0" encoding="UTF-8" standalone="no"?><svg xmlns="http://www.w3.org/2000/svg" xmlns:xlink="http://www.w3.org/1999/xlink" contentScriptType="application/ecmascript" contentStyleType="text/css" height="639px" preserveAspectRatio="none" style="width:769px;height:639px;" version="1.1" viewBox="0 0 769 639" width="769px" zoomAndPan="magnify"><defs><filter height="300%" id="f1wulbr785jbc4" width="300%" x="-1" y="-1"><feGaussianBlur result="blurOut" stdDeviation="2.0"/><feColorMatrix in="blurOut" result="blurOut2" type="matrix" values="0 0 0 0 0 0 0 0 0 0 0 0 0 0 0 0 0 0 .4 0"/><feOffset dx="4.0" dy="4.0" in="blurOut2" result="blurOut3"/><feBlend in="SourceGraphic" in2="blurOut3" mode="normal"/></filter></defs><g><rect fill="#FFFFFF" filter="url(#f1wulbr785jbc4)" height="417.5938" style="stroke:#A80036;stroke-width:1.0;" width="10" x="139.5" y="119.4297"/><rect fill="#FFFFFF" filter="url(#f1wulbr785jbc4)" height="14" style="stroke:#A80036;stroke-width:1.0;" width="10" x="144.5" y="323.3594"/><rect fill="#FFFFFF" filter="url(#f1wulbr785jbc4)" height="14" style="stroke:#A80036;stroke-width:1.0;" width="10" x="281.5" y="509.0234"/><rect fill="#FFFFFF" filter="url(#f1wulbr785jbc4)" height="331.3281" style="stroke:#A80036;stroke-width:1.0;" width="10" x="400.5" y="148.5625"/><rect fill="#FFFFFF" filter="url(#f1wulbr785jbc4)" height="29.1328" style="stroke:#A80036;stroke-width:1.0;" width="10" x="524" y="177.6953"/><rect fill="#FFFFFF" filter="url(#f1wulbr785jbc4)" height="29.1328" style="stroke:#A80036;stroke-width:1.0;" width="10" x="524" y="235.9609"/><rect fill="#FFFFFF" filter="url(#f1wulbr785jbc4)" height="156.5313" style="stroke:#A80036;stroke-width:1.0;" width="10" x="638.5" y="294.2266"/><rect fill="#FFFFFF" filter="url(#f1wulbr785jbc4)" height="40.1328" style="stroke:#A80036;stroke-width:1.0;" width="10" x="643.5" y="374.4922"/><line style="stroke:#A80036;stroke-width:1.0;stroke-dasharray:5.0,5.0;" x1="45" x2="45" y1="88.2969" y2="555.0234"/><line style="stroke:#A80036;stroke-width:1.0;stroke-dasharray:5.0,5.0;" x1="144" x2="144" y1="88.2969" y2="555.0234"/><line style="stroke:#A80036;stroke-width:1.0;stroke-dasharray:5.0,5.0;" x1="286.5" x2="286.5" y1="88.2969" y2="555.0234"/><line style="stroke:#A80036;stroke-width:1.0;stroke-dasharray:5.0,5.0;" x1="405.5" x2="405.5" y1="88.2969" y2="555.0234"/><line style="stroke:#A80036;stroke-width:1.0;stroke-dasharray:5.0,5.0;" x1="528.5" x2="528.5" y1="88.2969" y2="555.0234"/><line style="stroke:#A80036;stroke-width:1.0;stroke-dasharray:5.0,5.0;" x1="643.5" x2="643.5" y1="88.2969" y2="555.0234"/><text fill="#000000" font-family="sans-serif" font-size="14" lengthAdjust="spacing" textLength="65" x="10" y="84.9951">Skeleton</text><ellipse cx="45.5" cy="15" fill="#FEFECE" filter="url(#f1wulbr785jbc4)" rx="8" ry="8" style="stroke:#A80036;stroke-width:2.0;"/><path d="M45.5,23 L45.5,50 M32.5,31 L58.5,31 M45.5,50 L32.5,65 M45.5,50 L58.5,65 " fill="none" filter="url(#f1wulbr785jbc4)" style="stroke:#A80036;stroke-width:2.0;"/><text fill="#000000" font-family="sans-serif" font-size="14" lengthAdjust="spacing" textLength="65" x="10" y="567.0186">Skeleton</text><ellipse cx="45.5" cy="580.3203" fill="#FEFECE" filter="url(#f1wulbr785jbc4)" rx="8" ry="8" style="stroke:#A80036;stroke-width:2.0;"/><path d="M45.5,588.3203 L45.5,615.3203 M32.5,596.3203 L58.5,596.3203 M45.5,615.3203 L32.5,630.3203 M45.5,615.3203 L58.5,630.3203 " fill="none" filter="url(#f1wulbr785jbc4)" style="stroke:#A80036;stroke-width:2.0;"/><rect fill="#FEFECE" filter="url(#f1wulbr785jbc4)" height="30.2969" style="stroke:#A80036;stroke-width:1.5;" width="81" x="102" y="53"/><text fill="#000000" font-family="sans-serif" font-size="14" lengthAdjust="spacing" textLength="67" x="109" y="72.9951">s: Settler</text><rect fill="#FEFECE" filter="url(#f1wulbr785jbc4)" height="30.2969" style="stroke:#A80036;stroke-width:1.5;" width="81" x="102" y="554.0234"/><text fill="#000000" font-family="sans-serif" font-size="14" lengthAdjust="spacing" textLength="67" x="109" y="574.0186">s: Settler</text><rect fill="#FEFECE" filter="url(#f1wulbr785jbc4)" height="30.2969" style="stroke:#A80036;stroke-width:1.5;" width="92" x="238.5" y="53"/><text fill="#000000" font-family="sans-serif" font-size="14" lengthAdjust="spacing" textLength="78" x="245.5" y="72.9951">a: Asteroid</text><rect fill="#FEFECE" filter="url(#f1wulbr785jbc4)" height="30.2969" style="stroke:#A80036;stroke-width:1.5;" width="92" x="238.5" y="554.0234"/><text fill="#000000" font-family="sans-serif" font-size="14" lengthAdjust="spacing" textLength="78" x="245.5" y="574.0186">a: Asteroid</text><rect fill="#FEFECE" filter="url(#f1wulbr785jbc4)" height="30.2969" style="stroke:#A80036;stroke-width:1.5;" width="118" x="344.5" y="53"/><text fill="#000000" font-family="sans-serif" font-size="14" lengthAdjust="spacing" textLength="104" x="351.5" y="72.9951">dest: Teleport</text><rect fill="#FEFECE" filter="url(#f1wulbr785jbc4)" height="30.2969" style="stroke:#A80036;stroke-width:1.5;" width="118" x="344.5" y="554.0234"/><text fill="#000000" font-family="sans-serif" font-size="14" lengthAdjust="spacing" textLength="104" x="351.5" y="574.0186">dest: Teleport</text><rect fill="#FEFECE" filter="url(#f1wulbr785jbc4)" height="30.2969" style="stroke:#A80036;stroke-width:1.5;" width="101" x="476.5" y="53"/><text fill="#000000" font-family="sans-serif" font-size="14" lengthAdjust="spacing" textLength="87" x="483.5" y="72.9951">t2: Teleport</text><rect fill="#FEFECE" filter="url(#f1wulbr785jbc4)" height="30.2969" style="stroke:#A80036;stroke-width:1.5;" width="101" x="476.5" y="554.0234"/><text fill="#000000" font-family="sans-serif" font-size="14" lengthAdjust="spacing" textLength="87" x="483.5" y="574.0186">t2: Teleport</text><rect fill="#FEFECE" filter="url(#f1wulbr785jbc4)" height="30.2969" style="stroke:#A80036;stroke-width:1.5;" width="100" x="591.5" y="53"/><text fill="#000000" font-family="sans-serif" font-size="14" lengthAdjust="spacing" textLength="86" x="598.5" y="72.9951">a2: Asteroid</text><rect fill="#FEFECE" filter="url(#f1wulbr785jbc4)" height="30.2969" style="stroke:#A80036;stroke-width:1.5;" width="100" x="591.5" y="554.0234"/><text fill="#000000" font-family="sans-serif" font-size="14" lengthAdjust="spacing" textLength="86" x="598.5" y="574.0186">a2: Asteroid</text><rect fill="#FFFFFF" filter="url(#f1wulbr785jbc4)" height="417.5938" style="stroke:#A80036;stroke-width:1.0;" width="10" x="139.5" y="119.4297"/><rect fill="#FFFFFF" filter="url(#f1wulbr785jbc4)" height="14" style="stroke:#A80036;stroke-width:1.0;" width="10" x="144.5" y="323.3594"/><rect fill="#FFFFFF" filter="url(#f1wulbr785jbc4)" height="14" style="stroke:#A80036;stroke-width:1.0;" width="10" x="281.5" y="509.0234"/><rect fill="#FFFFFF" filter="url(#f1wulbr785jbc4)" height="331.3281" style="stroke:#A80036;stroke-width:1.0;" width="10" x="400.5" y="148.5625"/><rect fill="#FFFFFF" filter="url(#f1wulbr785jbc4)" height="29.1328" style="stroke:#A80036;stroke-width:1.0;" width="10" x="524" y="177.6953"/><rect fill="#FFFFFF" filter="url(#f1wulbr785jbc4)" height="29.1328" style="stroke:#A80036;stroke-width:1.0;" width="10" x="524" y="235.9609"/><rect fill="#FFFFFF" filter="url(#f1wulbr785jbc4)" height="156.5313" style="stroke:#A80036;stroke-width:1.0;" width="10" x="638.5" y="294.2266"/><rect fill="#FFFFFF" filter="url(#f1wulbr785jbc4)" height="40.1328" style="stroke:#A80036;stroke-width:1.0;" width="10" x="643.5" y="374.4922"/><polygon fill="#A80036" points="127.5,115.4297,137.5,119.4297,127.5,123.4297,131.5,119.4297" style="stroke:#A80036;stroke-width:1.0;"/><line style="stroke:#A80036;stroke-width:1.0;" x1="45.5" x2="133.5" y1="119.4297" y2="119.4297"/><text fill="#000000" font-family="sans-serif" font-size="13" lengthAdjust="spacing" textLength="75" x="52.5" y="114.3638">move(dest)</text><polygon fill="#A80036" points="388.5,144.5625,398.5,148.5625,388.5,152.5625,392.5,148.5625" style="stroke:#A80036;stroke-width:1.0;"/><line style="stroke:#A80036;stroke-width:1.0;" x1="149.5" x2="394.5" y1="148.5625" y2="148.5625"/><text fill="#000000" font-family="sans-serif" font-size="13" lengthAdjust="spacing" textLength="106" x="156.5" y="143.4966">acceptWorker(s)</text><polygon fill="#A80036" points="512,173.6953,522,177.6953,512,181.6953,516,177.6953" style="stroke:#A80036;stroke-width:1.0;"/><line style="stroke:#A80036;stroke-width:1.0;" x1="410.5" x2="518" y1="177.6953" y2="177.6953"/><text fill="#000000" font-family="sans-serif" font-size="13" lengthAdjust="spacing" textLength="62" x="417.5" y="172.6294">isPlaced()</text><polygon fill="#A80036" points="421.5,202.8281,411.5,206.8281,421.5,210.8281,417.5,206.8281" style="stroke:#A80036;stroke-width:1.0;"/><line style="stroke:#A80036;stroke-width:1.0;stroke-dasharray:2.0,2.0;" x1="415.5" x2="528" y1="206.8281" y2="206.8281"/><text fill="#000000" font-family="sans-serif" font-size="13" lengthAdjust="spacing" textLength="26" x="427.5" y="201.7622">true</text><polygon fill="#A80036" points="512,231.9609,522,235.9609,512,239.9609,516,235.9609" style="stroke:#A80036;stroke-width:1.0;"/><line style="stroke:#A80036;stroke-width:1.0;" x1="410.5" x2="518" y1="235.9609" y2="235.9609"/><text fill="#000000" font-family="sans-serif" font-size="13" lengthAdjust="spacing" textLength="84" x="417.5" y="230.895">getAsteroid()</text><polygon fill="#A80036" points="421.5,261.0938,411.5,265.0938,421.5,269.0938,417.5,265.0938" style="stroke:#A80036;stroke-width:1.0;"/><line style="stroke:#A80036;stroke-width:1.0;stroke-dasharray:2.0,2.0;" x1="415.5" x2="528" y1="265.0938" y2="265.0938"/><text fill="#000000" font-family="sans-serif" font-size="13" lengthAdjust="spacing" textLength="16" x="427.5" y="260.0278">a2</text><polygon fill="#A80036" points="626.5,290.2266,636.5,294.2266,626.5,298.2266,630.5,294.2266" style="stroke:#A80036;stroke-width:1.0;"/><line style="stroke:#A80036;stroke-width:1.0;" x1="410.5" x2="632.5" y1="294.2266" y2="294.2266"/><text fill="#000000" font-family="sans-serif" font-size="13" lengthAdjust="spacing" textLength="106" x="417.5" y="289.1606">acceptWorker(s)</text><polygon fill="#A80036" points="165.5,319.3594,155.5,323.3594,165.5,327.3594,161.5,323.3594" style="stroke:#A80036;stroke-width:1.0;"/><line style="stroke:#A80036;stroke-width:1.0;" x1="159.5" x2="637.5" y1="323.3594" y2="323.3594"/><text fill="#000000" font-family="sans-serif" font-size="13" lengthAdjust="spacing" textLength="99" x="171.5" y="318.2935">setAsteroid(a2)</text><polygon fill="#A80036" points="626.5,333.3594,636.5,337.3594,626.5,341.3594,630.5,337.3594" style="stroke:#A80036;stroke-width:1.0;"/><line style="stroke:#A80036;stroke-width:1.0;stroke-dasharray:2.0,2.0;" x1="149.5" x2="632.5" y1="337.3594" y2="337.3594"/><line style="stroke:#A80036;stroke-width:1.0;" x1="648.5" x2="695.5" y1="361.4922" y2="361.4922"/><line style="stroke:#A80036;stroke-width:1.0;" x1="695.5" x2="695.5" y1="361.4922" y2="374.4922"/><line style="stroke:#A80036;stroke-width:1.0;" x1="654.5" x2="695.5" y1="374.4922" y2="374.4922"/><polygon fill="#A80036" points="664.5,370.4922,654.5,374.4922,664.5,378.4922,660.5,374.4922" style="stroke:#A80036;stroke-width:1.0;"/><text fill="#000000" font-family="sans-serif" font-size="13" lengthAdjust="spacing" textLength="102" x="660.5" y="356.4263">checkBaseWin()</text><line style="stroke:#A80036;stroke-width:1.0;stroke-dasharray:2.0,2.0;" x1="653.5" x2="695.5" y1="413.625" y2="413.625"/><line style="stroke:#A80036;stroke-width:1.0;stroke-dasharray:2.0,2.0;" x1="695.5" x2="695.5" y1="413.625" y2="426.625"/><line style="stroke:#A80036;stroke-width:1.0;stroke-dasharray:2.0,2.0;" x1="648.5" x2="695.5" y1="426.625" y2="426.625"/><polygon fill="#A80036" points="658.5,422.625,648.5,426.625,658.5,430.625,654.5,426.625" style="stroke:#A80036;stroke-width:1.0;"/><text fill="#000000" font-family="sans-serif" font-size="13" lengthAdjust="spacing" textLength="31" x="660.5" y="408.5591">false</text><polygon fill="#A80036" points="421.5,446.7578,411.5,450.7578,421.5,454.7578,417.5,450.7578" style="stroke:#A80036;stroke-width:1.0;"/><line style="stroke:#A80036;stroke-width:1.0;stroke-dasharray:2.0,2.0;" x1="415.5" x2="642.5" y1="450.7578" y2="450.7578"/><text fill="#000000" font-family="sans-serif" font-size="13" lengthAdjust="spacing" textLength="26" x="427.5" y="445.6919">true</text><polygon fill="#A80036" points="160.5,475.8906,150.5,479.8906,160.5,483.8906,156.5,479.8906" style="stroke:#A80036;stroke-width:1.0;"/><line style="stroke:#A80036;stroke-width:1.0;stroke-dasharray:2.0,2.0;" x1="154.5" x2="404.5" y1="479.8906" y2="479.8906"/><text fill="#000000" font-family="sans-serif" font-size="13" lengthAdjust="spacing" textLength="26" x="166.5" y="474.8247">true</text><polygon fill="#A80036" points="269.5,505.0234,279.5,509.0234,269.5,513.0234,273.5,509.0234" style="stroke:#A80036;stroke-width:1.0;"/><line style="stroke:#A80036;stroke-width:1.0;" x1="149.5" x2="275.5" y1="509.0234" y2="509.0234"/><text fill="#000000" font-family="sans-serif" font-size="13" lengthAdjust="spacing" textLength="113" x="156.5" y="503.9575">removeWorker(s)</text><polygon fill="#A80036" points="160.5,519.0234,150.5,523.0234,160.5,527.0234,156.5,523.0234" style="stroke:#A80036;stroke-width:1.0;"/><line style="stroke:#A80036;stroke-width:1.0;stroke-dasharray:2.0,2.0;" x1="154.5" x2="285.5" y1="523.0234" y2="523.0234"/><polygon fill="#A80036" points="56.5,533.0234,46.5,537.0234,56.5,541.0234,52.5,537.0234" style="stroke:#A80036;stroke-width:1.0;"/><line style="stroke:#A80036;stroke-width:1.0;stroke-dasharray:2.0,2.0;" x1="50.5" x2="143.5" y1="537.0234" y2="537.0234"/><!--MD5=[f7b1a67ddf78a724ee78c7e394b81230]
@startuml
actor "Skeleton" as player
participant "s: Settler" as s
participant "a: Asteroid" as a
participant "dest: Teleport" as dest
participant "t2: Teleport" as t2
participant "a2: Asteroid" as a2


player->s ++: move(dest)
        s->dest ++: acceptWorker(s)
            dest->t2 ++: isPlaced()
            return true
            dest->t2 ++:getAsteroid()
            return a2
                
            dest->a2 ++:acceptWorker(s)
                a2->s ++:setAsteroid(a2)
                return
                a2->a2 ++: checkBaseWin()
                return false
            return true
        return true
        
            s->a ++: removeWorker(s)
            return
return
@enduml

PlantUML version 1.2021.3beta7(Unknown compile time)
(GPL source distribution)
Java Runtime: Java(TM) SE Runtime Environment
JVM: Java HotSpot(TM) 64-Bit Server VM
Default Encoding: UTF-8
Language: en
Country: US
--></g></svg>