<?xml version="1.0" encoding="UTF-8" standalone="no"?><svg xmlns="http://www.w3.org/2000/svg" xmlns:xlink="http://www.w3.org/1999/xlink" contentScriptType="application/ecmascript" contentStyleType="text/css" height="353px" preserveAspectRatio="none" style="width:403px;height:353px;" version="1.1" viewBox="0 0 403 353" width="403px" zoomAndPan="magnify"><defs><filter height="300%" id="f1fcijga8fp0h3" width="300%" x="-1" y="-1"><feGaussianBlur result="blurOut" stdDeviation="2.0"/><feColorMatrix in="blurOut" result="blurOut2" type="matrix" values="0 0 0 0 0 0 0 0 0 0 0 0 0 0 0 0 0 0 .4 0"/><feOffset dx="4.0" dy="4.0" in="blurOut2" result="blurOut3"/><feBlend in="SourceGraphic" in2="blurOut3" mode="normal"/></filter></defs><g><rect fill="#FFFFFF" filter="url(#f1fcijga8fp0h3)" height="131.3984" style="stroke:#A80036;stroke-width:1.0;" width="10" x="128.5" y="119.4297"/><rect fill="#FFFFFF" filter="url(#f1fcijga8fp0h3)" height="88.2656" style="stroke:#A80036;stroke-width:1.0;" width="10" x="229" y="148.5625"/><rect fill="#FFFFFF" filter="url(#f1fcijga8fp0h3)" height="14" style="stroke:#A80036;stroke-width:1.0;" width="10" x="331" y="201.8281"/><rect fill="#FFFFFF" filter="url(#f1fcijga8fp0h3)" height="60.2656" style="stroke:#000000;stroke-width:2.0;" width="213.5" x="176" y="163.5625"/><line style="stroke:#A80036;stroke-width:1.0;stroke-dasharray:5.0,5.0;" x1="45" x2="45" y1="88.2969" y2="268.8281"/><line style="stroke:#A80036;stroke-width:1.0;stroke-dasharray:5.0,5.0;" x1="133" x2="133" y1="88.2969" y2="268.8281"/><line style="stroke:#A80036;stroke-width:1.0;stroke-dasharray:5.0,5.0;" x1="234" x2="234" y1="88.2969" y2="268.8281"/><line style="stroke:#A80036;stroke-width:1.0;stroke-dasharray:5.0,5.0;" x1="335.5" x2="335.5" y1="88.2969" y2="268.8281"/><text fill="#000000" font-family="sans-serif" font-size="14" lengthAdjust="spacing" textLength="65" x="10" y="84.9951">Skeleton</text><ellipse cx="45.5" cy="15" fill="#FEFECE" filter="url(#f1fcijga8fp0h3)" rx="8" ry="8" style="stroke:#A80036;stroke-width:2.0;"/><path d="M45.5,23 L45.5,50 M32.5,31 L58.5,31 M45.5,50 L32.5,65 M45.5,50 L58.5,65 " fill="none" filter="url(#f1fcijga8fp0h3)" style="stroke:#A80036;stroke-width:2.0;"/><text fill="#000000" font-family="sans-serif" font-size="14" lengthAdjust="spacing" textLength="65" x="10" y="280.8232">Skeleton</text><ellipse cx="45.5" cy="294.125" fill="#FEFECE" filter="url(#f1fcijga8fp0h3)" rx="8" ry="8" style="stroke:#A80036;stroke-width:2.0;"/><path d="M45.5,302.125 L45.5,329.125 M32.5,310.125 L58.5,310.125 M45.5,329.125 L32.5,344.125 M45.5,329.125 L58.5,344.125 " fill="none" filter="url(#f1fcijga8fp0h3)" style="stroke:#A80036;stroke-width:2.0;"/><rect fill="#FEFECE" filter="url(#f1fcijga8fp0h3)" height="30.2969" style="stroke:#A80036;stroke-width:1.5;" width="81" x="91" y="53"/><text fill="#000000" font-family="sans-serif" font-size="14" lengthAdjust="spacing" textLength="67" x="98" y="72.9951">s: Settler</text><rect fill="#FEFECE" filter="url(#f1fcijga8fp0h3)" height="30.2969" style="stroke:#A80036;stroke-width:1.5;" width="81" x="91" y="267.8281"/><text fill="#000000" font-family="sans-serif" font-size="14" lengthAdjust="spacing" textLength="67" x="98" y="287.8232">s: Settler</text><rect fill="#FEFECE" filter="url(#f1fcijga8fp0h3)" height="30.2969" style="stroke:#A80036;stroke-width:1.5;" width="92" x="186" y="53"/><text fill="#000000" font-family="sans-serif" font-size="14" lengthAdjust="spacing" textLength="78" x="193" y="72.9951">a: Asteroid</text><rect fill="#FEFECE" filter="url(#f1fcijga8fp0h3)" height="30.2969" style="stroke:#A80036;stroke-width:1.5;" width="92" x="186" y="267.8281"/><text fill="#000000" font-family="sans-serif" font-size="14" lengthAdjust="spacing" textLength="78" x="193" y="287.8232">a: Asteroid</text><rect fill="#FEFECE" filter="url(#f1fcijga8fp0h3)" height="30.2969" style="stroke:#A80036;stroke-width:1.5;" width="83" x="292.5" y="53"/><text fill="#000000" font-family="sans-serif" font-size="14" lengthAdjust="spacing" textLength="69" x="299.5" y="72.9951">core: Iron</text><rect fill="#FEFECE" filter="url(#f1fcijga8fp0h3)" height="30.2969" style="stroke:#A80036;stroke-width:1.5;" width="83" x="292.5" y="267.8281"/><text fill="#000000" font-family="sans-serif" font-size="14" lengthAdjust="spacing" textLength="69" x="299.5" y="287.8232">core: Iron</text><rect fill="#FFFFFF" filter="url(#f1fcijga8fp0h3)" height="131.3984" style="stroke:#A80036;stroke-width:1.0;" width="10" x="128.5" y="119.4297"/><rect fill="#FFFFFF" filter="url(#f1fcijga8fp0h3)" height="88.2656" style="stroke:#A80036;stroke-width:1.0;" width="10" x="229" y="148.5625"/><rect fill="#FFFFFF" filter="url(#f1fcijga8fp0h3)" height="14" style="stroke:#A80036;stroke-width:1.0;" width="10" x="331" y="201.8281"/><polygon fill="#A80036" points="116.5,115.4297,126.5,119.4297,116.5,123.4297,120.5,119.4297" style="stroke:#A80036;stroke-width:1.0;"/><line style="stroke:#A80036;stroke-width:1.0;" x1="45.5" x2="122.5" y1="119.4297" y2="119.4297"/><text fill="#000000" font-family="sans-serif" font-size="13" lengthAdjust="spacing" textLength="32" x="52.5" y="114.3638">drill()</text><polygon fill="#A80036" points="217,144.5625,227,148.5625,217,152.5625,221,148.5625" style="stroke:#A80036;stroke-width:1.0;"/><line style="stroke:#A80036;stroke-width:1.0;" x1="138.5" x2="223" y1="148.5625" y2="148.5625"/><text fill="#000000" font-family="sans-serif" font-size="13" lengthAdjust="spacing" textLength="48" x="145.5" y="143.4966">drilled()</text><path d="M176,163.5625 L248,163.5625 L248,170.5625 L238,180.5625 L176,180.5625 L176,163.5625 " fill="#EEEEEE" style="stroke:#000000;stroke-width:1.0;"/><rect fill="none" height="60.2656" style="stroke:#000000;stroke-width:2.0;" width="213.5" x="176" y="163.5625"/><text fill="#000000" font-family="sans-serif" font-size="13" font-weight="bold" lengthAdjust="spacing" textLength="27" x="191" y="176.6294">opt</text><text fill="#000000" font-family="sans-serif" font-size="11" font-weight="bold" lengthAdjust="spacing" textLength="75" x="263" y="175.7729">[isExposed]</text><polygon fill="#A80036" points="319,197.8281,329,201.8281,319,205.8281,323,201.8281" style="stroke:#A80036;stroke-width:1.0;"/><line style="stroke:#A80036;stroke-width:1.0;" x1="239" x2="325" y1="201.8281" y2="201.8281"/><text fill="#000000" font-family="sans-serif" font-size="13" lengthAdjust="spacing" textLength="73" x="246" y="196.7622">exposed(a)</text><polygon fill="#A80036" points="250,211.8281,240,215.8281,250,219.8281,246,215.8281" style="stroke:#A80036;stroke-width:1.0;"/><line style="stroke:#A80036;stroke-width:1.0;stroke-dasharray:2.0,2.0;" x1="244" x2="335" y1="215.8281" y2="215.8281"/><polygon fill="#A80036" points="149.5,232.8281,139.5,236.8281,149.5,240.8281,145.5,236.8281" style="stroke:#A80036;stroke-width:1.0;"/><line style="stroke:#A80036;stroke-width:1.0;stroke-dasharray:2.0,2.0;" x1="143.5" x2="233" y1="236.8281" y2="236.8281"/><polygon fill="#A80036" points="56.5,246.8281,46.5,250.8281,56.5,254.8281,52.5,250.8281" style="stroke:#A80036;stroke-width:1.0;"/><line style="stroke:#A80036;stroke-width:1.0;stroke-dasharray:2.0,2.0;" x1="50.5" x2="132.5" y1="250.8281" y2="250.8281"/><!--MD5=[dea090658f68c59e076adefb32f42aae]
@startuml
actor "Skeleton" as player
participant "s: Settler" as s
participant "a: Asteroid" as a
participant "core: Iron" as core

player->s ++: drill()
    s->a ++ :drilled()
            opt isExposed
                a-> core++: exposed(a)
                return
            end
        return
return
@enduml

PlantUML version 1.2021.3beta7(Unknown compile time)
(GPL source distribution)
Java Runtime: Java(TM) SE Runtime Environment
JVM: Java HotSpot(TM) 64-Bit Server VM
Default Encoding: UTF-8
Language: en
Country: US
--></g></svg>