<?xml version="1.0" encoding="UTF-8" standalone="no"?><svg xmlns="http://www.w3.org/2000/svg" xmlns:xlink="http://www.w3.org/1999/xlink" contentScriptType="application/ecmascript" contentStyleType="text/css" height="309px" preserveAspectRatio="none" style="width:458px;height:309px;" version="1.1" viewBox="0 0 458 309" width="458px" zoomAndPan="magnify"><defs><filter height="300%" id="f8prjpkw5ut17" width="300%" x="-1" y="-1"><feGaussianBlur result="blurOut" stdDeviation="2.0"/><feColorMatrix in="blurOut" result="blurOut2" type="matrix" values="0 0 0 0 0 0 0 0 0 0 0 0 0 0 0 0 0 0 .4 0"/><feOffset dx="4.0" dy="4.0" in="blurOut2" result="blurOut3"/><feBlend in="SourceGraphic" in2="blurOut3" mode="normal"/></filter></defs><g><rect fill="#FFFFFF" filter="url(#f8prjpkw5ut17)" height="87.3984" style="stroke:#A80036;stroke-width:1.0;" width="10" x="171.5" y="119.4297"/><rect fill="#FFFFFF" filter="url(#f8prjpkw5ut17)" height="29.1328" style="stroke:#A80036;stroke-width:1.0;" width="10" x="316.5" y="148.5625"/><line style="stroke:#A80036;stroke-width:1.0;stroke-dasharray:5.0,5.0;" x1="45" x2="45" y1="88.2969" y2="224.8281"/><line style="stroke:#A80036;stroke-width:1.0;stroke-dasharray:5.0,5.0;" x1="176" x2="176" y1="88.2969" y2="224.8281"/><line style="stroke:#A80036;stroke-width:1.0;stroke-dasharray:5.0,5.0;" x1="321.5" x2="321.5" y1="88.2969" y2="224.8281"/><line style="stroke:#A80036;stroke-width:1.0;stroke-dasharray:5.0,5.0;" x1="413.5" x2="413.5" y1="88.2969" y2="224.8281"/><text fill="#000000" font-family="sans-serif" font-size="14" lengthAdjust="spacing" textLength="65" x="10" y="84.9951">Skeleton</text><ellipse cx="45.5" cy="15" fill="#FEFECE" filter="url(#f8prjpkw5ut17)" rx="8" ry="8" style="stroke:#A80036;stroke-width:2.0;"/><path d="M45.5,23 L45.5,50 M32.5,31 L58.5,31 M45.5,50 L32.5,65 M45.5,50 L58.5,65 " fill="none" filter="url(#f8prjpkw5ut17)" style="stroke:#A80036;stroke-width:2.0;"/><text fill="#000000" font-family="sans-serif" font-size="14" lengthAdjust="spacing" textLength="65" x="10" y="236.8232">Skeleton</text><ellipse cx="45.5" cy="250.125" fill="#FEFECE" filter="url(#f8prjpkw5ut17)" rx="8" ry="8" style="stroke:#A80036;stroke-width:2.0;"/><path d="M45.5,258.125 L45.5,285.125 M32.5,266.125 L58.5,266.125 M45.5,285.125 L32.5,300.125 M45.5,285.125 L58.5,300.125 " fill="none" filter="url(#f8prjpkw5ut17)" style="stroke:#A80036;stroke-width:2.0;"/><rect fill="#FEFECE" filter="url(#f8prjpkw5ut17)" height="30.2969" style="stroke:#A80036;stroke-width:1.5;" width="81" x="134" y="53"/><text fill="#000000" font-family="sans-serif" font-size="14" lengthAdjust="spacing" textLength="67" x="141" y="72.9951">s: Settler</text><rect fill="#FEFECE" filter="url(#f8prjpkw5ut17)" height="30.2969" style="stroke:#A80036;stroke-width:1.5;" width="81" x="134" y="223.8281"/><text fill="#000000" font-family="sans-serif" font-size="14" lengthAdjust="spacing" textLength="67" x="141" y="243.8232">s: Settler</text><rect fill="#FEFECE" filter="url(#f8prjpkw5ut17)" height="30.2969" style="stroke:#A80036;stroke-width:1.5;" width="92" x="273.5" y="53"/><text fill="#000000" font-family="sans-serif" font-size="14" lengthAdjust="spacing" textLength="78" x="280.5" y="72.9951">a: Asteroid</text><rect fill="#FEFECE" filter="url(#f8prjpkw5ut17)" height="30.2969" style="stroke:#A80036;stroke-width:1.5;" width="92" x="273.5" y="223.8281"/><text fill="#000000" font-family="sans-serif" font-size="14" lengthAdjust="spacing" textLength="78" x="280.5" y="243.8232">a: Asteroid</text><rect fill="#FEFECE" filter="url(#f8prjpkw5ut17)" height="30.2969" style="stroke:#A80036;stroke-width:1.5;" width="65" x="379.5" y="53"/><text fill="#000000" font-family="sans-serif" font-size="14" lengthAdjust="spacing" textLength="51" x="386.5" y="72.9951">m: Iron</text><rect fill="#FEFECE" filter="url(#f8prjpkw5ut17)" height="30.2969" style="stroke:#A80036;stroke-width:1.5;" width="65" x="379.5" y="223.8281"/><text fill="#000000" font-family="sans-serif" font-size="14" lengthAdjust="spacing" textLength="51" x="386.5" y="243.8232">m: Iron</text><rect fill="#FFFFFF" filter="url(#f8prjpkw5ut17)" height="87.3984" style="stroke:#A80036;stroke-width:1.0;" width="10" x="171.5" y="119.4297"/><rect fill="#FFFFFF" filter="url(#f8prjpkw5ut17)" height="29.1328" style="stroke:#A80036;stroke-width:1.0;" width="10" x="316.5" y="148.5625"/><polygon fill="#A80036" points="159.5,115.4297,169.5,119.4297,159.5,123.4297,163.5,119.4297" style="stroke:#A80036;stroke-width:1.0;"/><line style="stroke:#A80036;stroke-width:1.0;" x1="45.5" x2="165.5" y1="119.4297" y2="119.4297"/><text fill="#000000" font-family="sans-serif" font-size="13" lengthAdjust="spacing" textLength="107" x="52.5" y="114.3638">placeMaterial(m)</text><polygon fill="#A80036" points="304.5,144.5625,314.5,148.5625,304.5,152.5625,308.5,148.5625" style="stroke:#A80036;stroke-width:1.0;"/><line style="stroke:#A80036;stroke-width:1.0;" x1="181.5" x2="310.5" y1="148.5625" y2="148.5625"/><text fill="#000000" font-family="sans-serif" font-size="13" lengthAdjust="spacing" textLength="116" x="188.5" y="143.4966">acceptMaterial(m)</text><polygon fill="#A80036" points="192.5,173.6953,182.5,177.6953,192.5,181.6953,188.5,177.6953" style="stroke:#A80036;stroke-width:1.0;"/><line style="stroke:#A80036;stroke-width:1.0;stroke-dasharray:2.0,2.0;" x1="186.5" x2="320.5" y1="177.6953" y2="177.6953"/><text fill="#000000" font-family="sans-serif" font-size="13" lengthAdjust="spacing" textLength="31" x="198.5" y="172.6294">false</text><polygon fill="#A80036" points="56.5,202.8281,46.5,206.8281,56.5,210.8281,52.5,206.8281" style="stroke:#A80036;stroke-width:1.0;"/><line style="stroke:#A80036;stroke-width:1.0;stroke-dasharray:2.0,2.0;" x1="50.5" x2="175.5" y1="206.8281" y2="206.8281"/><text fill="#000000" font-family="sans-serif" font-size="13" lengthAdjust="spacing" textLength="31" x="62.5" y="201.7622">false</text><!--MD5=[b6ca8ce71d7c26eb98a772fc663a3fa4]
@startuml
actor "Skeleton" as player
participant "s: Settler" as s
participant "a: Asteroid" as a
participant "m: Iron" as m


player->s ++:placeMaterial(m)
    s->a ++:acceptMaterial(m)
    return false
return false
@enduml

PlantUML version 1.2021.3beta7(Unknown compile time)
(GPL source distribution)
Java Runtime: Java(TM) SE Runtime Environment
JVM: Java HotSpot(TM) 64-Bit Server VM
Default Encoding: UTF-8
Language: en
Country: US
--></g></svg>