<?xml version="1.0" encoding="UTF-8" standalone="no"?><svg xmlns="http://www.w3.org/2000/svg" xmlns:xlink="http://www.w3.org/1999/xlink" contentScriptType="application/ecmascript" contentStyleType="text/css" height="352px" preserveAspectRatio="none" style="width:565px;height:352px;" version="1.1" viewBox="0 0 565 352" width="565px" zoomAndPan="magnify"><defs><filter height="300%" id="fqkcjea119uwv" width="300%" x="-1" y="-1"><feGaussianBlur result="blurOut" stdDeviation="2.0"/><feColorMatrix in="blurOut" result="blurOut2" type="matrix" values="0 0 0 0 0 0 0 0 0 0 0 0 0 0 0 0 0 0 .4 0"/><feOffset dx="4.0" dy="4.0" in="blurOut2" result="blurOut3"/><feBlend in="SourceGraphic" in2="blurOut3" mode="normal"/></filter></defs><g><rect fill="#FFFFFF" filter="url(#fqkcjea119uwv)" height="130.5313" style="stroke:#A80036;stroke-width:1.0;" width="10" x="161.5" y="119.4297"/><rect fill="#FFFFFF" filter="url(#fqkcjea119uwv)" height="72.2656" style="stroke:#A80036;stroke-width:1.0;" width="10" x="262.5" y="148.5625"/><rect fill="#FFFFFF" filter="url(#fqkcjea119uwv)" height="29.1328" style="stroke:#A80036;stroke-width:1.0;" width="10" x="387.5" y="177.6953"/><line style="stroke:#A80036;stroke-width:1.0;stroke-dasharray:5.0,5.0;" x1="45" x2="45" y1="88.2969" y2="267.9609"/><line style="stroke:#A80036;stroke-width:1.0;stroke-dasharray:5.0,5.0;" x1="166" x2="166" y1="88.2969" y2="267.9609"/><line style="stroke:#A80036;stroke-width:1.0;stroke-dasharray:5.0,5.0;" x1="267" x2="267" y1="88.2969" y2="267.9609"/><line style="stroke:#A80036;stroke-width:1.0;stroke-dasharray:5.0,5.0;" x1="392.5" x2="392.5" y1="88.2969" y2="267.9609"/><line style="stroke:#A80036;stroke-width:1.0;stroke-dasharray:5.0,5.0;" x1="502.5" x2="502.5" y1="88.2969" y2="267.9609"/><text fill="#000000" font-family="sans-serif" font-size="14" lengthAdjust="spacing" textLength="65" x="10" y="84.9951">Skeleton</text><ellipse cx="45.5" cy="15" fill="#FEFECE" filter="url(#fqkcjea119uwv)" rx="8" ry="8" style="stroke:#A80036;stroke-width:2.0;"/><path d="M45.5,23 L45.5,50 M32.5,31 L58.5,31 M45.5,50 L32.5,65 M45.5,50 L58.5,65 " fill="none" filter="url(#fqkcjea119uwv)" style="stroke:#A80036;stroke-width:2.0;"/><text fill="#000000" font-family="sans-serif" font-size="14" lengthAdjust="spacing" textLength="65" x="10" y="279.9561">Skeleton</text><ellipse cx="45.5" cy="293.2578" fill="#FEFECE" filter="url(#fqkcjea119uwv)" rx="8" ry="8" style="stroke:#A80036;stroke-width:2.0;"/><path d="M45.5,301.2578 L45.5,328.2578 M32.5,309.2578 L58.5,309.2578 M45.5,328.2578 L32.5,343.2578 M45.5,328.2578 L58.5,343.2578 " fill="none" filter="url(#fqkcjea119uwv)" style="stroke:#A80036;stroke-width:2.0;"/><rect fill="#FEFECE" filter="url(#fqkcjea119uwv)" height="30.2969" style="stroke:#A80036;stroke-width:1.5;" width="81" x="124" y="53"/><text fill="#000000" font-family="sans-serif" font-size="14" lengthAdjust="spacing" textLength="67" x="131" y="72.9951">s: Settler</text><rect fill="#FEFECE" filter="url(#fqkcjea119uwv)" height="30.2969" style="stroke:#A80036;stroke-width:1.5;" width="81" x="124" y="266.9609"/><text fill="#000000" font-family="sans-serif" font-size="14" lengthAdjust="spacing" textLength="67" x="131" y="286.9561">s: Settler</text><rect fill="#FEFECE" filter="url(#fqkcjea119uwv)" height="30.2969" style="stroke:#A80036;stroke-width:1.5;" width="93" x="219" y="53"/><text fill="#000000" font-family="sans-serif" font-size="14" lengthAdjust="spacing" textLength="79" x="226" y="72.9951">t: Teleport</text><rect fill="#FEFECE" filter="url(#fqkcjea119uwv)" height="30.2969" style="stroke:#A80036;stroke-width:1.5;" width="93" x="219" y="266.9609"/><text fill="#000000" font-family="sans-serif" font-size="14" lengthAdjust="spacing" textLength="79" x="226" y="286.9561">t: Teleport</text><rect fill="#FEFECE" filter="url(#fqkcjea119uwv)" height="30.2969" style="stroke:#A80036;stroke-width:1.5;" width="92" x="344.5" y="53"/><text fill="#000000" font-family="sans-serif" font-size="14" lengthAdjust="spacing" textLength="78" x="351.5" y="72.9951">a: Asteroid</text><rect fill="#FEFECE" filter="url(#fqkcjea119uwv)" height="30.2969" style="stroke:#A80036;stroke-width:1.5;" width="92" x="344.5" y="266.9609"/><text fill="#000000" font-family="sans-serif" font-size="14" lengthAdjust="spacing" textLength="78" x="351.5" y="286.9561">a: Asteroid</text><rect fill="#FEFECE" filter="url(#fqkcjea119uwv)" height="30.2969" style="stroke:#A80036;stroke-width:1.5;" width="101" x="450.5" y="53"/><text fill="#000000" font-family="sans-serif" font-size="14" lengthAdjust="spacing" textLength="87" x="457.5" y="72.9951">t2: Teleport</text><rect fill="#FEFECE" filter="url(#fqkcjea119uwv)" height="30.2969" style="stroke:#A80036;stroke-width:1.5;" width="101" x="450.5" y="266.9609"/><text fill="#000000" font-family="sans-serif" font-size="14" lengthAdjust="spacing" textLength="87" x="457.5" y="286.9561">t2: Teleport</text><rect fill="#FFFFFF" filter="url(#fqkcjea119uwv)" height="130.5313" style="stroke:#A80036;stroke-width:1.0;" width="10" x="161.5" y="119.4297"/><rect fill="#FFFFFF" filter="url(#fqkcjea119uwv)" height="72.2656" style="stroke:#A80036;stroke-width:1.0;" width="10" x="262.5" y="148.5625"/><rect fill="#FFFFFF" filter="url(#fqkcjea119uwv)" height="29.1328" style="stroke:#A80036;stroke-width:1.0;" width="10" x="387.5" y="177.6953"/><polygon fill="#A80036" points="149.5,115.4297,159.5,119.4297,149.5,123.4297,153.5,119.4297" style="stroke:#A80036;stroke-width:1.0;"/><line style="stroke:#A80036;stroke-width:1.0;" x1="45.5" x2="155.5" y1="119.4297" y2="119.4297"/><text fill="#000000" font-family="sans-serif" font-size="13" lengthAdjust="spacing" textLength="97" x="52.5" y="114.3638">placeTeleport()</text><polygon fill="#A80036" points="250.5,144.5625,260.5,148.5625,250.5,152.5625,254.5,148.5625" style="stroke:#A80036;stroke-width:1.0;"/><line style="stroke:#A80036;stroke-width:1.0;" x1="171.5" x2="256.5" y1="148.5625" y2="148.5625"/><text fill="#000000" font-family="sans-serif" font-size="13" lengthAdjust="spacing" textLength="52" x="178.5" y="143.4966">place(a)</text><polygon fill="#A80036" points="375.5,173.6953,385.5,177.6953,375.5,181.6953,379.5,177.6953" style="stroke:#A80036;stroke-width:1.0;"/><line style="stroke:#A80036;stroke-width:1.0;" x1="272.5" x2="381.5" y1="177.6953" y2="177.6953"/><text fill="#000000" font-family="sans-serif" font-size="13" lengthAdjust="spacing" textLength="96" x="279.5" y="172.6294">addNeighbor(t)</text><polygon fill="#A80036" points="283.5,202.8281,273.5,206.8281,283.5,210.8281,279.5,206.8281" style="stroke:#A80036;stroke-width:1.0;"/><line style="stroke:#A80036;stroke-width:1.0;stroke-dasharray:2.0,2.0;" x1="277.5" x2="391.5" y1="206.8281" y2="206.8281"/><text fill="#000000" font-family="sans-serif" font-size="13" lengthAdjust="spacing" textLength="26" x="289.5" y="201.7622">true</text><polygon fill="#A80036" points="182.5,216.8281,172.5,220.8281,182.5,224.8281,178.5,220.8281" style="stroke:#A80036;stroke-width:1.0;"/><line style="stroke:#A80036;stroke-width:1.0;stroke-dasharray:2.0,2.0;" x1="176.5" x2="266.5" y1="220.8281" y2="220.8281"/><polygon fill="#A80036" points="56.5,245.9609,46.5,249.9609,56.5,253.9609,52.5,249.9609" style="stroke:#A80036;stroke-width:1.0;"/><line style="stroke:#A80036;stroke-width:1.0;stroke-dasharray:2.0,2.0;" x1="50.5" x2="165.5" y1="249.9609" y2="249.9609"/><text fill="#000000" font-family="sans-serif" font-size="13" lengthAdjust="spacing" textLength="26" x="62.5" y="244.895">true</text><!--MD5=[83e82007e47897ba247c9e51ced9d6de]
@startuml
actor "Skeleton" as player
participant "s: Settler" as s
participant "t: Teleport" as t
participant "a: Asteroid" as a
participant "t2: Teleport" as t2

player->s ++:placeTeleport()

        s->t++: place(a)
            t->a ++: addNeighbor(t)
            return true
        return
return true
@enduml

PlantUML version 1.2021.3beta7(Unknown compile time)
(GPL source distribution)
Java Runtime: Java(TM) SE Runtime Environment
JVM: Java HotSpot(TM) 64-Bit Server VM
Default Encoding: UTF-8
Language: en
Country: US
--></g></svg>