<?xml version="1.0" encoding="UTF-8" standalone="no"?><svg xmlns="http://www.w3.org/2000/svg" xmlns:xlink="http://www.w3.org/1999/xlink" contentScriptType="application/ecmascript" contentStyleType="text/css" height="530px" preserveAspectRatio="none" style="width:616px;height:530px;" version="1.1" viewBox="0 0 616 530" width="616px" zoomAndPan="magnify"><defs><filter height="300%" id="ffcpm09e4grtk" width="300%" x="-1" y="-1"><feGaussianBlur result="blurOut" stdDeviation="2.0"/><feColorMatrix in="blurOut" result="blurOut2" type="matrix" values="0 0 0 0 0 0 0 0 0 0 0 0 0 0 0 0 0 0 .4 0"/><feOffset dx="4.0" dy="4.0" in="blurOut2" result="blurOut3"/><feBlend in="SourceGraphic" in2="blurOut3" mode="normal"/></filter></defs><g><rect fill="#FFFFFF" filter="url(#ffcpm09e4grtk)" height="302" style="stroke:#A80036;stroke-width:1.0;" width="10" x="186.5" y="119.4297"/><rect fill="#FFFFFF" filter="url(#ffcpm09e4grtk)" height="243.7344" style="stroke:#A80036;stroke-width:1.0;" width="10" x="331.5" y="148.5625"/><rect fill="#FFFFFF" filter="url(#ffcpm09e4grtk)" height="14" style="stroke:#A80036;stroke-width:1.0;" width="10" x="425.5" y="225.9609"/><rect fill="#FFFFFF" filter="url(#ffcpm09e4grtk)" height="14" style="stroke:#A80036;stroke-width:1.0;" width="10" x="528.5" y="305.2266"/><rect fill="#FFFFFF" filter="url(#ffcpm09e4grtk)" height="265.8672" style="stroke:#000000;stroke-width:2.0;" width="587" x="15" y="163.5625"/><rect fill="#FFFFFF" filter="url(#ffcpm09e4grtk)" height="60.2656" style="stroke:#000000;stroke-width:2.0;" width="196.5" x="278.5" y="187.6953"/><rect fill="#FFFFFF" height="73.0703" style="stroke:none;stroke-width:1.0;" width="587" x="15" y="356.3594"/><line style="stroke:#A80036;stroke-width:1.0;stroke-dasharray:5.0,5.0;" x1="60" x2="60" y1="88.2969" y2="446.4297"/><line style="stroke:#A80036;stroke-width:1.0;stroke-dasharray:5.0,5.0;" x1="191" x2="191" y1="88.2969" y2="446.4297"/><line style="stroke:#A80036;stroke-width:1.0;stroke-dasharray:5.0,5.0;" x1="336.5" x2="336.5" y1="88.2969" y2="446.4297"/><line style="stroke:#A80036;stroke-width:1.0;stroke-dasharray:5.0,5.0;" x1="430" x2="430" y1="88.2969" y2="446.4297"/><line style="stroke:#A80036;stroke-width:1.0;stroke-dasharray:5.0,5.0;" x1="533" x2="533" y1="88.2969" y2="446.4297"/><text fill="#000000" font-family="sans-serif" font-size="14" lengthAdjust="spacing" textLength="65" x="25" y="84.9951">Skeleton</text><ellipse cx="60.5" cy="15" fill="#FEFECE" filter="url(#ffcpm09e4grtk)" rx="8" ry="8" style="stroke:#A80036;stroke-width:2.0;"/><path d="M60.5,23 L60.5,50 M47.5,31 L73.5,31 M60.5,50 L47.5,65 M60.5,50 L73.5,65 " fill="none" filter="url(#ffcpm09e4grtk)" style="stroke:#A80036;stroke-width:2.0;"/><text fill="#000000" font-family="sans-serif" font-size="14" lengthAdjust="spacing" textLength="65" x="25" y="458.4248">Skeleton</text><ellipse cx="60.5" cy="471.7266" fill="#FEFECE" filter="url(#ffcpm09e4grtk)" rx="8" ry="8" style="stroke:#A80036;stroke-width:2.0;"/><path d="M60.5,479.7266 L60.5,506.7266 M47.5,487.7266 L73.5,487.7266 M60.5,506.7266 L47.5,521.7266 M60.5,506.7266 L73.5,521.7266 " fill="none" filter="url(#ffcpm09e4grtk)" style="stroke:#A80036;stroke-width:2.0;"/><rect fill="#FEFECE" filter="url(#ffcpm09e4grtk)" height="30.2969" style="stroke:#A80036;stroke-width:1.5;" width="81" x="149" y="53"/><text fill="#000000" font-family="sans-serif" font-size="14" lengthAdjust="spacing" textLength="67" x="156" y="72.9951">s: Settler</text><rect fill="#FEFECE" filter="url(#ffcpm09e4grtk)" height="30.2969" style="stroke:#A80036;stroke-width:1.5;" width="81" x="149" y="445.4297"/><text fill="#000000" font-family="sans-serif" font-size="14" lengthAdjust="spacing" textLength="67" x="156" y="465.4248">s: Settler</text><rect fill="#FEFECE" filter="url(#ffcpm09e4grtk)" height="30.2969" style="stroke:#A80036;stroke-width:1.5;" width="92" x="288.5" y="53"/><text fill="#000000" font-family="sans-serif" font-size="14" lengthAdjust="spacing" textLength="78" x="295.5" y="72.9951">a: Asteroid</text><rect fill="#FEFECE" filter="url(#ffcpm09e4grtk)" height="30.2969" style="stroke:#A80036;stroke-width:1.5;" width="92" x="288.5" y="445.4297"/><text fill="#000000" font-family="sans-serif" font-size="14" lengthAdjust="spacing" textLength="78" x="295.5" y="465.4248">a: Asteroid</text><rect fill="#FEFECE" filter="url(#ffcpm09e4grtk)" height="30.2969" style="stroke:#A80036;stroke-width:1.5;" width="65" x="396" y="53"/><text fill="#000000" font-family="sans-serif" font-size="14" lengthAdjust="spacing" textLength="51" x="403" y="72.9951">m: Iron</text><rect fill="#FEFECE" filter="url(#ffcpm09e4grtk)" height="30.2969" style="stroke:#A80036;stroke-width:1.5;" width="65" x="396" y="445.4297"/><text fill="#000000" font-family="sans-serif" font-size="14" lengthAdjust="spacing" textLength="51" x="403" y="465.4248">m: Iron</text><rect fill="#FEFECE" filter="url(#ffcpm09e4grtk)" height="30.2969" style="stroke:#A80036;stroke-width:1.5;" width="113" x="475" y="53"/><text fill="#000000" font-family="sans-serif" font-size="14" lengthAdjust="spacing" textLength="99" x="482" y="72.9951">inv: Inventory</text><rect fill="#FEFECE" filter="url(#ffcpm09e4grtk)" height="30.2969" style="stroke:#A80036;stroke-width:1.5;" width="113" x="475" y="445.4297"/><text fill="#000000" font-family="sans-serif" font-size="14" lengthAdjust="spacing" textLength="99" x="482" y="465.4248">inv: Inventory</text><rect fill="#FFFFFF" filter="url(#ffcpm09e4grtk)" height="302" style="stroke:#A80036;stroke-width:1.0;" width="10" x="186.5" y="119.4297"/><rect fill="#FFFFFF" filter="url(#ffcpm09e4grtk)" height="243.7344" style="stroke:#A80036;stroke-width:1.0;" width="10" x="331.5" y="148.5625"/><rect fill="#FFFFFF" filter="url(#ffcpm09e4grtk)" height="14" style="stroke:#A80036;stroke-width:1.0;" width="10" x="425.5" y="225.9609"/><rect fill="#FFFFFF" filter="url(#ffcpm09e4grtk)" height="14" style="stroke:#A80036;stroke-width:1.0;" width="10" x="528.5" y="305.2266"/><polygon fill="#A80036" points="174.5,115.4297,184.5,119.4297,174.5,123.4297,178.5,119.4297" style="stroke:#A80036;stroke-width:1.0;"/><line style="stroke:#A80036;stroke-width:1.0;" x1="60.5" x2="180.5" y1="119.4297" y2="119.4297"/><text fill="#000000" font-family="sans-serif" font-size="13" lengthAdjust="spacing" textLength="107" x="67.5" y="114.3638">placeMaterial(m)</text><polygon fill="#A80036" points="319.5,144.5625,329.5,148.5625,319.5,152.5625,323.5,148.5625" style="stroke:#A80036;stroke-width:1.0;"/><line style="stroke:#A80036;stroke-width:1.0;" x1="196.5" x2="325.5" y1="148.5625" y2="148.5625"/><text fill="#000000" font-family="sans-serif" font-size="13" lengthAdjust="spacing" textLength="116" x="203.5" y="143.4966">acceptMaterial(m)</text><path d="M15,163.5625 L81,163.5625 L81,170.5625 L71,180.5625 L15,180.5625 L15,163.5625 " fill="#EEEEEE" style="stroke:#000000;stroke-width:1.0;"/><rect fill="none" height="265.8672" style="stroke:#000000;stroke-width:2.0;" width="587" x="15" y="163.5625"/><text fill="#000000" font-family="sans-serif" font-size="13" font-weight="bold" lengthAdjust="spacing" textLength="21" x="30" y="176.6294">alt</text><text fill="#000000" font-family="sans-serif" font-size="11" font-weight="bold" lengthAdjust="spacing" textLength="159" x="96" y="175.7729">[layers == layersDrilled]</text><path d="M278.5,187.6953 L350.5,187.6953 L350.5,194.6953 L340.5,204.6953 L278.5,204.6953 L278.5,187.6953 " fill="#EEEEEE" style="stroke:#000000;stroke-width:1.0;"/><rect fill="none" height="60.2656" style="stroke:#000000;stroke-width:2.0;" width="196.5" x="278.5" y="187.6953"/><text fill="#000000" font-family="sans-serif" font-size="13" font-weight="bold" lengthAdjust="spacing" textLength="27" x="293.5" y="200.7622">opt</text><text fill="#000000" font-family="sans-serif" font-size="11" font-weight="bold" lengthAdjust="spacing" textLength="68" x="365.5" y="199.9058">[sunclose]</text><polygon fill="#A80036" points="413.5,221.9609,423.5,225.9609,413.5,229.9609,417.5,225.9609" style="stroke:#A80036;stroke-width:1.0;"/><line style="stroke:#A80036;stroke-width:1.0;" x1="341.5" x2="419.5" y1="225.9609" y2="225.9609"/><text fill="#000000" font-family="sans-serif" font-size="13" lengthAdjust="spacing" textLength="65" x="348.5" y="220.895">exposed()</text><polygon fill="#A80036" points="352.5,235.9609,342.5,239.9609,352.5,243.9609,348.5,239.9609" style="stroke:#A80036;stroke-width:1.0;"/><line style="stroke:#A80036;stroke-width:1.0;stroke-dasharray:2.0,2.0;" x1="346.5" x2="429.5" y1="239.9609" y2="239.9609"/><polygon fill="#A80036" points="207.5,272.0938,197.5,276.0938,207.5,280.0938,203.5,276.0938" style="stroke:#A80036;stroke-width:1.0;"/><line style="stroke:#A80036;stroke-width:1.0;stroke-dasharray:2.0,2.0;" x1="201.5" x2="330.5" y1="276.0938" y2="276.0938"/><text fill="#000000" font-family="sans-serif" font-size="13" lengthAdjust="spacing" textLength="26" x="213.5" y="271.0278">true</text><polygon fill="#A80036" points="516.5,301.2266,526.5,305.2266,516.5,309.2266,520.5,305.2266" style="stroke:#A80036;stroke-width:1.0;"/><line style="stroke:#A80036;stroke-width:1.0;" x1="196.5" x2="522.5" y1="305.2266" y2="305.2266"/><text fill="#000000" font-family="sans-serif" font-size="13" lengthAdjust="spacing" textLength="123" x="203.5" y="300.1606">removeMaterial(m)</text><polygon fill="#A80036" points="207.5,315.2266,197.5,319.2266,207.5,323.2266,203.5,319.2266" style="stroke:#A80036;stroke-width:1.0;"/><line style="stroke:#A80036;stroke-width:1.0;stroke-dasharray:2.0,2.0;" x1="201.5" x2="532.5" y1="319.2266" y2="319.2266"/><polygon fill="#A80036" points="71.5,344.3594,61.5,348.3594,71.5,352.3594,67.5,348.3594" style="stroke:#A80036;stroke-width:1.0;"/><line style="stroke:#A80036;stroke-width:1.0;stroke-dasharray:2.0,2.0;" x1="65.5" x2="185.5" y1="348.3594" y2="348.3594"/><text fill="#000000" font-family="sans-serif" font-size="13" lengthAdjust="spacing" textLength="26" x="77.5" y="343.2935">true</text><line style="stroke:#000000;stroke-width:1.0;stroke-dasharray:2.0,2.0;" x1="15" x2="602" y1="357.3594" y2="357.3594"/><text fill="#000000" font-family="sans-serif" font-size="11" font-weight="bold" lengthAdjust="spacing" textLength="37" x="20" y="367.5698">[else]</text><polygon fill="#A80036" points="207.5,388.2969,197.5,392.2969,207.5,396.2969,203.5,392.2969" style="stroke:#A80036;stroke-width:1.0;"/><line style="stroke:#A80036;stroke-width:1.0;stroke-dasharray:2.0,2.0;" x1="201.5" x2="335.5" y1="392.2969" y2="392.2969"/><text fill="#000000" font-family="sans-serif" font-size="13" lengthAdjust="spacing" textLength="31" x="213.5" y="387.231">false</text><polygon fill="#A80036" points="71.5,417.4297,61.5,421.4297,71.5,425.4297,67.5,421.4297" style="stroke:#A80036;stroke-width:1.0;"/><line style="stroke:#A80036;stroke-width:1.0;stroke-dasharray:2.0,2.0;" x1="65.5" x2="190.5" y1="421.4297" y2="421.4297"/><text fill="#000000" font-family="sans-serif" font-size="13" lengthAdjust="spacing" textLength="31" x="77.5" y="416.3638">false</text><!--MD5=[1eda9f2eec5a76e580ef2d75645f01c5]
@startuml
actor "Skeleton" as player
participant "s: Settler" as s
participant "a: Asteroid" as a
participant "m: Iron" as m
participant "inv: Inventory" as inv


player->s ++:placeMaterial(m)
    s->a ++:acceptMaterial(m)
    alt layers == layersDrilled
        opt sunclose
            a-> m++: exposed()
            return
        end
        a- -> s: true
        
        s->inv ++:removeMaterial(m)
        return
        
        s- ->player: true
    else else
        return false
        return false
    end
@enduml

PlantUML version 1.2021.3beta7(Unknown compile time)
(GPL source distribution)
Java Runtime: Java(TM) SE Runtime Environment
JVM: Java HotSpot(TM) 64-Bit Server VM
Default Encoding: UTF-8
Language: en
Country: US
--></g></svg>