<?xml version="1.0" encoding="UTF-8" standalone="no"?><svg xmlns="http://www.w3.org/2000/svg" xmlns:xlink="http://www.w3.org/1999/xlink" contentScriptType="application/ecmascript" contentStyleType="text/css" height="464px" preserveAspectRatio="none" style="width:575px;height:464px;" version="1.1" viewBox="0 0 575 464" width="575px" zoomAndPan="magnify"><defs><filter height="300%" id="f1h33sr1vj87z" width="300%" x="-1" y="-1"><feGaussianBlur result="blurOut" stdDeviation="2.0"/><feColorMatrix in="blurOut" result="blurOut2" type="matrix" values="0 0 0 0 0 0 0 0 0 0 0 0 0 0 0 0 0 0 .4 0"/><feOffset dx="4.0" dy="4.0" in="blurOut2" result="blurOut3"/><feBlend in="SourceGraphic" in2="blurOut3" mode="normal"/></filter></defs><g><rect fill="#FFFFFF" filter="url(#f1h33sr1vj87z)" height="242.7969" style="stroke:#A80036;stroke-width:1.0;" width="10" x="139.5" y="119.4297"/><rect fill="#FFFFFF" filter="url(#f1h33sr1vj87z)" height="14" style="stroke:#A80036;stroke-width:1.0;" width="10" x="144.5" y="177.6953"/><rect fill="#FFFFFF" filter="url(#f1h33sr1vj87z)" height="14" style="stroke:#A80036;stroke-width:1.0;" width="10" x="281.5" y="334.2266"/><rect fill="#FFFFFF" filter="url(#f1h33sr1vj87z)" height="156.5313" style="stroke:#A80036;stroke-width:1.0;" width="10" x="399.5" y="148.5625"/><rect fill="#FFFFFF" filter="url(#f1h33sr1vj87z)" height="40.1328" style="stroke:#A80036;stroke-width:1.0;" width="10" x="404.5" y="228.8281"/><line style="stroke:#A80036;stroke-width:1.0;stroke-dasharray:5.0,5.0;" x1="45" x2="45" y1="88.2969" y2="380.2266"/><line style="stroke:#A80036;stroke-width:1.0;stroke-dasharray:5.0,5.0;" x1="144" x2="144" y1="88.2969" y2="380.2266"/><line style="stroke:#A80036;stroke-width:1.0;stroke-dasharray:5.0,5.0;" x1="286.5" x2="286.5" y1="88.2969" y2="380.2266"/><line style="stroke:#A80036;stroke-width:1.0;stroke-dasharray:5.0,5.0;" x1="404.5" x2="404.5" y1="88.2969" y2="380.2266"/><line style="stroke:#A80036;stroke-width:1.0;stroke-dasharray:5.0,5.0;" x1="530" x2="530" y1="88.2969" y2="380.2266"/><text fill="#000000" font-family="sans-serif" font-size="14" lengthAdjust="spacing" textLength="65" x="10" y="84.9951">Skeleton</text><ellipse cx="45.5" cy="15" fill="#FEFECE" filter="url(#f1h33sr1vj87z)" rx="8" ry="8" style="stroke:#A80036;stroke-width:2.0;"/><path d="M45.5,23 L45.5,50 M32.5,31 L58.5,31 M45.5,50 L32.5,65 M45.5,50 L58.5,65 " fill="none" filter="url(#f1h33sr1vj87z)" style="stroke:#A80036;stroke-width:2.0;"/><text fill="#000000" font-family="sans-serif" font-size="14" lengthAdjust="spacing" textLength="65" x="10" y="392.2217">Skeleton</text><ellipse cx="45.5" cy="405.5234" fill="#FEFECE" filter="url(#f1h33sr1vj87z)" rx="8" ry="8" style="stroke:#A80036;stroke-width:2.0;"/><path d="M45.5,413.5234 L45.5,440.5234 M32.5,421.5234 L58.5,421.5234 M45.5,440.5234 L32.5,455.5234 M45.5,440.5234 L58.5,455.5234 " fill="none" filter="url(#f1h33sr1vj87z)" style="stroke:#A80036;stroke-width:2.0;"/><rect fill="#FEFECE" filter="url(#f1h33sr1vj87z)" height="30.2969" style="stroke:#A80036;stroke-width:1.5;" width="81" x="102" y="53"/><text fill="#000000" font-family="sans-serif" font-size="14" lengthAdjust="spacing" textLength="67" x="109" y="72.9951">s: Settler</text><rect fill="#FEFECE" filter="url(#f1h33sr1vj87z)" height="30.2969" style="stroke:#A80036;stroke-width:1.5;" width="81" x="102" y="379.2266"/><text fill="#000000" font-family="sans-serif" font-size="14" lengthAdjust="spacing" textLength="67" x="109" y="399.2217">s: Settler</text><rect fill="#FEFECE" filter="url(#f1h33sr1vj87z)" height="30.2969" style="stroke:#A80036;stroke-width:1.5;" width="92" x="238.5" y="53"/><text fill="#000000" font-family="sans-serif" font-size="14" lengthAdjust="spacing" textLength="78" x="245.5" y="72.9951">a: Asteroid</text><rect fill="#FEFECE" filter="url(#f1h33sr1vj87z)" height="30.2969" style="stroke:#A80036;stroke-width:1.5;" width="92" x="238.5" y="379.2266"/><text fill="#000000" font-family="sans-serif" font-size="14" lengthAdjust="spacing" textLength="78" x="245.5" y="399.2217">a: Asteroid</text><rect fill="#FEFECE" filter="url(#f1h33sr1vj87z)" height="30.2969" style="stroke:#A80036;stroke-width:1.5;" width="116" x="344.5" y="53"/><text fill="#000000" font-family="sans-serif" font-size="14" lengthAdjust="spacing" textLength="102" x="351.5" y="72.9951">dest: Asteroid</text><rect fill="#FEFECE" filter="url(#f1h33sr1vj87z)" height="30.2969" style="stroke:#A80036;stroke-width:1.5;" width="116" x="344.5" y="379.2266"/><text fill="#000000" font-family="sans-serif" font-size="14" lengthAdjust="spacing" textLength="102" x="351.5" y="399.2217">dest: Asteroid</text><rect fill="#FEFECE" filter="url(#f1h33sr1vj87z)" height="30.2969" style="stroke:#A80036;stroke-width:1.5;" width="65" x="496" y="53"/><text fill="#000000" font-family="sans-serif" font-size="14" lengthAdjust="spacing" textLength="51" x="503" y="72.9951">: Game</text><rect fill="#FEFECE" filter="url(#f1h33sr1vj87z)" height="30.2969" style="stroke:#A80036;stroke-width:1.5;" width="65" x="496" y="379.2266"/><text fill="#000000" font-family="sans-serif" font-size="14" lengthAdjust="spacing" textLength="51" x="503" y="399.2217">: Game</text><rect fill="#FFFFFF" filter="url(#f1h33sr1vj87z)" height="242.7969" style="stroke:#A80036;stroke-width:1.0;" width="10" x="139.5" y="119.4297"/><rect fill="#FFFFFF" filter="url(#f1h33sr1vj87z)" height="14" style="stroke:#A80036;stroke-width:1.0;" width="10" x="144.5" y="177.6953"/><rect fill="#FFFFFF" filter="url(#f1h33sr1vj87z)" height="14" style="stroke:#A80036;stroke-width:1.0;" width="10" x="281.5" y="334.2266"/><rect fill="#FFFFFF" filter="url(#f1h33sr1vj87z)" height="156.5313" style="stroke:#A80036;stroke-width:1.0;" width="10" x="399.5" y="148.5625"/><rect fill="#FFFFFF" filter="url(#f1h33sr1vj87z)" height="40.1328" style="stroke:#A80036;stroke-width:1.0;" width="10" x="404.5" y="228.8281"/><polygon fill="#A80036" points="127.5,115.4297,137.5,119.4297,127.5,123.4297,131.5,119.4297" style="stroke:#A80036;stroke-width:1.0;"/><line style="stroke:#A80036;stroke-width:1.0;" x1="45.5" x2="133.5" y1="119.4297" y2="119.4297"/><text fill="#000000" font-family="sans-serif" font-size="13" lengthAdjust="spacing" textLength="75" x="52.5" y="114.3638">move(dest)</text><polygon fill="#A80036" points="387.5,144.5625,397.5,148.5625,387.5,152.5625,391.5,148.5625" style="stroke:#A80036;stroke-width:1.0;"/><line style="stroke:#A80036;stroke-width:1.0;" x1="149.5" x2="393.5" y1="148.5625" y2="148.5625"/><text fill="#000000" font-family="sans-serif" font-size="13" lengthAdjust="spacing" textLength="106" x="156.5" y="143.4966">acceptWorker(s)</text><polygon fill="#A80036" points="165.5,173.6953,155.5,177.6953,165.5,181.6953,161.5,177.6953" style="stroke:#A80036;stroke-width:1.0;"/><line style="stroke:#A80036;stroke-width:1.0;" x1="159.5" x2="398.5" y1="177.6953" y2="177.6953"/><text fill="#000000" font-family="sans-serif" font-size="13" lengthAdjust="spacing" textLength="111" x="171.5" y="172.6294">setAsteroid(dest)</text><polygon fill="#A80036" points="387.5,187.6953,397.5,191.6953,387.5,195.6953,391.5,191.6953" style="stroke:#A80036;stroke-width:1.0;"/><line style="stroke:#A80036;stroke-width:1.0;stroke-dasharray:2.0,2.0;" x1="149.5" x2="393.5" y1="191.6953" y2="191.6953"/><line style="stroke:#A80036;stroke-width:1.0;" x1="409.5" x2="456.5" y1="215.8281" y2="215.8281"/><line style="stroke:#A80036;stroke-width:1.0;" x1="456.5" x2="456.5" y1="215.8281" y2="228.8281"/><line style="stroke:#A80036;stroke-width:1.0;" x1="415.5" x2="456.5" y1="228.8281" y2="228.8281"/><polygon fill="#A80036" points="425.5,224.8281,415.5,228.8281,425.5,232.8281,421.5,228.8281" style="stroke:#A80036;stroke-width:1.0;"/><text fill="#000000" font-family="sans-serif" font-size="13" lengthAdjust="spacing" textLength="102" x="421.5" y="210.7622">checkBaseWin()</text><line style="stroke:#A80036;stroke-width:1.0;stroke-dasharray:2.0,2.0;" x1="414.5" x2="456.5" y1="267.9609" y2="267.9609"/><line style="stroke:#A80036;stroke-width:1.0;stroke-dasharray:2.0,2.0;" x1="456.5" x2="456.5" y1="267.9609" y2="280.9609"/><line style="stroke:#A80036;stroke-width:1.0;stroke-dasharray:2.0,2.0;" x1="409.5" x2="456.5" y1="280.9609" y2="280.9609"/><polygon fill="#A80036" points="419.5,276.9609,409.5,280.9609,419.5,284.9609,415.5,280.9609" style="stroke:#A80036;stroke-width:1.0;"/><text fill="#000000" font-family="sans-serif" font-size="13" lengthAdjust="spacing" textLength="31" x="421.5" y="262.895">false</text><polygon fill="#A80036" points="160.5,301.0938,150.5,305.0938,160.5,309.0938,156.5,305.0938" style="stroke:#A80036;stroke-width:1.0;"/><line style="stroke:#A80036;stroke-width:1.0;stroke-dasharray:2.0,2.0;" x1="154.5" x2="403.5" y1="305.0938" y2="305.0938"/><text fill="#000000" font-family="sans-serif" font-size="13" lengthAdjust="spacing" textLength="26" x="166.5" y="300.0278">true</text><polygon fill="#A80036" points="269.5,330.2266,279.5,334.2266,269.5,338.2266,273.5,334.2266" style="stroke:#A80036;stroke-width:1.0;"/><line style="stroke:#A80036;stroke-width:1.0;" x1="149.5" x2="275.5" y1="334.2266" y2="334.2266"/><text fill="#000000" font-family="sans-serif" font-size="13" lengthAdjust="spacing" textLength="113" x="156.5" y="329.1606">removeWorker(s)</text><polygon fill="#A80036" points="160.5,344.2266,150.5,348.2266,160.5,352.2266,156.5,348.2266" style="stroke:#A80036;stroke-width:1.0;"/><line style="stroke:#A80036;stroke-width:1.0;stroke-dasharray:2.0,2.0;" x1="154.5" x2="285.5" y1="348.2266" y2="348.2266"/><polygon fill="#A80036" points="56.5,358.2266,46.5,362.2266,56.5,366.2266,52.5,362.2266" style="stroke:#A80036;stroke-width:1.0;"/><line style="stroke:#A80036;stroke-width:1.0;stroke-dasharray:2.0,2.0;" x1="50.5" x2="143.5" y1="362.2266" y2="362.2266"/><!--MD5=[60149efc3ea25f0ccc9b29fbbcf3ea45]
@startuml
actor "Skeleton" as player
participant "s: Settler" as s
participant "a: Asteroid" as a
participant "dest: Asteroid" as dest
participant ": Game" as game


player->s ++: move(dest)
        s->dest ++:acceptWorker(s)
            dest->s ++: setAsteroid(dest)
            return
            
            dest->dest ++: checkBaseWin()
            return false
            
		return true
        
        s->a ++:removeWorker(s)
		return
        
return
@enduml

PlantUML version 1.2021.3beta7(Unknown compile time)
(GPL source distribution)
Java Runtime: Java(TM) SE Runtime Environment
JVM: Java HotSpot(TM) 64-Bit Server VM
Default Encoding: UTF-8
Language: en
Country: US
--></g></svg>