<?xml version="1.0" encoding="UTF-8" standalone="no"?><svg xmlns="http://www.w3.org/2000/svg" xmlns:xlink="http://www.w3.org/1999/xlink" contentScriptType="application/ecmascript" contentStyleType="text/css" height="352px" preserveAspectRatio="none" style="width:550px;height:352px;" version="1.1" viewBox="0 0 550 352" width="550px" zoomAndPan="magnify"><defs><filter height="300%" id="fzube1wv8n5cw" width="300%" x="-1" y="-1"><feGaussianBlur result="blurOut" stdDeviation="2.0"/><feColorMatrix in="blurOut" result="blurOut2" type="matrix" values="0 0 0 0 0 0 0 0 0 0 0 0 0 0 0 0 0 0 .4 0"/><feOffset dx="4.0" dy="4.0" in="blurOut2" result="blurOut3"/><feBlend in="SourceGraphic" in2="blurOut3" mode="normal"/></filter></defs><g><rect fill="#FFFFFF" filter="url(#fzube1wv8n5cw)" height="130.5313" style="stroke:#A80036;stroke-width:1.0;" width="10" x="139.5" y="119.4297"/><rect fill="#FFFFFF" filter="url(#fzube1wv8n5cw)" height="87.3984" style="stroke:#A80036;stroke-width:1.0;" width="10" x="359" y="148.5625"/><rect fill="#FFFFFF" filter="url(#fzube1wv8n5cw)" height="29.1328" style="stroke:#A80036;stroke-width:1.0;" width="10" x="482.5" y="177.6953"/><line style="stroke:#A80036;stroke-width:1.0;stroke-dasharray:5.0,5.0;" x1="45" x2="45" y1="88.2969" y2="267.9609"/><line style="stroke:#A80036;stroke-width:1.0;stroke-dasharray:5.0,5.0;" x1="144" x2="144" y1="88.2969" y2="267.9609"/><line style="stroke:#A80036;stroke-width:1.0;stroke-dasharray:5.0,5.0;" x1="245" x2="245" y1="88.2969" y2="267.9609"/><line style="stroke:#A80036;stroke-width:1.0;stroke-dasharray:5.0,5.0;" x1="364" x2="364" y1="88.2969" y2="267.9609"/><line style="stroke:#A80036;stroke-width:1.0;stroke-dasharray:5.0,5.0;" x1="487" x2="487" y1="88.2969" y2="267.9609"/><text fill="#000000" font-family="sans-serif" font-size="14" lengthAdjust="spacing" textLength="65" x="10" y="84.9951">Skeleton</text><ellipse cx="45.5" cy="15" fill="#FEFECE" filter="url(#fzube1wv8n5cw)" rx="8" ry="8" style="stroke:#A80036;stroke-width:2.0;"/><path d="M45.5,23 L45.5,50 M32.5,31 L58.5,31 M45.5,50 L32.5,65 M45.5,50 L58.5,65 " fill="none" filter="url(#fzube1wv8n5cw)" style="stroke:#A80036;stroke-width:2.0;"/><text fill="#000000" font-family="sans-serif" font-size="14" lengthAdjust="spacing" textLength="65" x="10" y="279.9561">Skeleton</text><ellipse cx="45.5" cy="293.2578" fill="#FEFECE" filter="url(#fzube1wv8n5cw)" rx="8" ry="8" style="stroke:#A80036;stroke-width:2.0;"/><path d="M45.5,301.2578 L45.5,328.2578 M32.5,309.2578 L58.5,309.2578 M45.5,328.2578 L32.5,343.2578 M45.5,328.2578 L58.5,343.2578 " fill="none" filter="url(#fzube1wv8n5cw)" style="stroke:#A80036;stroke-width:2.0;"/><rect fill="#FEFECE" filter="url(#fzube1wv8n5cw)" height="30.2969" style="stroke:#A80036;stroke-width:1.5;" width="81" x="102" y="53"/><text fill="#000000" font-family="sans-serif" font-size="14" lengthAdjust="spacing" textLength="67" x="109" y="72.9951">s: Settler</text><rect fill="#FEFECE" filter="url(#fzube1wv8n5cw)" height="30.2969" style="stroke:#A80036;stroke-width:1.5;" width="81" x="102" y="266.9609"/><text fill="#000000" font-family="sans-serif" font-size="14" lengthAdjust="spacing" textLength="67" x="109" y="286.9561">s: Settler</text><rect fill="#FEFECE" filter="url(#fzube1wv8n5cw)" height="30.2969" style="stroke:#A80036;stroke-width:1.5;" width="92" x="197" y="53"/><text fill="#000000" font-family="sans-serif" font-size="14" lengthAdjust="spacing" textLength="78" x="204" y="72.9951">a: Asteroid</text><rect fill="#FEFECE" filter="url(#fzube1wv8n5cw)" height="30.2969" style="stroke:#A80036;stroke-width:1.5;" width="92" x="197" y="266.9609"/><text fill="#000000" font-family="sans-serif" font-size="14" lengthAdjust="spacing" textLength="78" x="204" y="286.9561">a: Asteroid</text><rect fill="#FEFECE" filter="url(#fzube1wv8n5cw)" height="30.2969" style="stroke:#A80036;stroke-width:1.5;" width="118" x="303" y="53"/><text fill="#000000" font-family="sans-serif" font-size="14" lengthAdjust="spacing" textLength="104" x="310" y="72.9951">dest: Teleport</text><rect fill="#FEFECE" filter="url(#fzube1wv8n5cw)" height="30.2969" style="stroke:#A80036;stroke-width:1.5;" width="118" x="303" y="266.9609"/><text fill="#000000" font-family="sans-serif" font-size="14" lengthAdjust="spacing" textLength="104" x="310" y="286.9561">dest: Teleport</text><rect fill="#FEFECE" filter="url(#fzube1wv8n5cw)" height="30.2969" style="stroke:#A80036;stroke-width:1.5;" width="101" x="435" y="53"/><text fill="#000000" font-family="sans-serif" font-size="14" lengthAdjust="spacing" textLength="87" x="442" y="72.9951">t2: Teleport</text><rect fill="#FEFECE" filter="url(#fzube1wv8n5cw)" height="30.2969" style="stroke:#A80036;stroke-width:1.5;" width="101" x="435" y="266.9609"/><text fill="#000000" font-family="sans-serif" font-size="14" lengthAdjust="spacing" textLength="87" x="442" y="286.9561">t2: Teleport</text><rect fill="#FFFFFF" filter="url(#fzube1wv8n5cw)" height="130.5313" style="stroke:#A80036;stroke-width:1.0;" width="10" x="139.5" y="119.4297"/><rect fill="#FFFFFF" filter="url(#fzube1wv8n5cw)" height="87.3984" style="stroke:#A80036;stroke-width:1.0;" width="10" x="359" y="148.5625"/><rect fill="#FFFFFF" filter="url(#fzube1wv8n5cw)" height="29.1328" style="stroke:#A80036;stroke-width:1.0;" width="10" x="482.5" y="177.6953"/><polygon fill="#A80036" points="127.5,115.4297,137.5,119.4297,127.5,123.4297,131.5,119.4297" style="stroke:#A80036;stroke-width:1.0;"/><line style="stroke:#A80036;stroke-width:1.0;" x1="45.5" x2="133.5" y1="119.4297" y2="119.4297"/><text fill="#000000" font-family="sans-serif" font-size="13" lengthAdjust="spacing" textLength="75" x="52.5" y="114.3638">move(dest)</text><polygon fill="#A80036" points="347,144.5625,357,148.5625,347,152.5625,351,148.5625" style="stroke:#A80036;stroke-width:1.0;"/><line style="stroke:#A80036;stroke-width:1.0;" x1="149.5" x2="353" y1="148.5625" y2="148.5625"/><text fill="#000000" font-family="sans-serif" font-size="13" lengthAdjust="spacing" textLength="106" x="156.5" y="143.4966">acceptWorker(s)</text><polygon fill="#A80036" points="470.5,173.6953,480.5,177.6953,470.5,181.6953,474.5,177.6953" style="stroke:#A80036;stroke-width:1.0;"/><line style="stroke:#A80036;stroke-width:1.0;" x1="369" x2="476.5" y1="177.6953" y2="177.6953"/><text fill="#000000" font-family="sans-serif" font-size="13" lengthAdjust="spacing" textLength="62" x="376" y="172.6294">isPlaced()</text><polygon fill="#A80036" points="380,202.8281,370,206.8281,380,210.8281,376,206.8281" style="stroke:#A80036;stroke-width:1.0;"/><line style="stroke:#A80036;stroke-width:1.0;stroke-dasharray:2.0,2.0;" x1="374" x2="486.5" y1="206.8281" y2="206.8281"/><text fill="#000000" font-family="sans-serif" font-size="13" lengthAdjust="spacing" textLength="31" x="386" y="201.7622">false</text><polygon fill="#A80036" points="160.5,231.9609,150.5,235.9609,160.5,239.9609,156.5,235.9609" style="stroke:#A80036;stroke-width:1.0;"/><line style="stroke:#A80036;stroke-width:1.0;stroke-dasharray:2.0,2.0;" x1="154.5" x2="363" y1="235.9609" y2="235.9609"/><text fill="#000000" font-family="sans-serif" font-size="13" lengthAdjust="spacing" textLength="31" x="166.5" y="230.895">false</text><polygon fill="#A80036" points="56.5,245.9609,46.5,249.9609,56.5,253.9609,52.5,249.9609" style="stroke:#A80036;stroke-width:1.0;"/><line style="stroke:#A80036;stroke-width:1.0;stroke-dasharray:2.0,2.0;" x1="50.5" x2="143.5" y1="249.9609" y2="249.9609"/><!--MD5=[88558fd6d5df2792811c36b84e6ed0f9]
@startuml
actor "Skeleton" as player
participant "s: Settler" as s
participant "a: Asteroid" as a
participant "dest: Teleport" as dest
participant "t2: Teleport" as t2


player->s ++: move(dest)
        s->dest ++: acceptWorker(s)
            dest->t2 ++: isPlaced()
            return false
        return false
return
@enduml

PlantUML version 1.2021.3beta7(Unknown compile time)
(GPL source distribution)
Java Runtime: Java(TM) SE Runtime Environment
JVM: Java HotSpot(TM) 64-Bit Server VM
Default Encoding: UTF-8
Language: en
Country: US
--></g></svg>