<?xml version="1.0" encoding="UTF-8" standalone="no"?><svg xmlns="http://www.w3.org/2000/svg" xmlns:xlink="http://www.w3.org/1999/xlink" contentScriptType="application/ecmascript" contentStyleType="text/css" height="1219px" preserveAspectRatio="none" style="width:1511px;height:1219px;" version="1.1" viewBox="0 0 1511 1219" width="1511px" zoomAndPan="magnify"><defs><filter height="300%" id="fqos67pdjvo6j" width="300%" x="-1" y="-1"><feGaussianBlur result="blurOut" stdDeviation="2.0"/><feColorMatrix in="blurOut" result="blurOut2" type="matrix" values="0 0 0 0 0 0 0 0 0 0 0 0 0 0 0 0 0 0 .4 0"/><feOffset dx="4.0" dy="4.0" in="blurOut2" result="blurOut3"/><feBlend in="SourceGraphic" in2="blurOut3" mode="normal"/></filter></defs><g><rect fill="#FFFFFF" filter="url(#fqos67pdjvo6j)" height="997.7813" style="stroke:#A80036;stroke-width:1.0;" width="10" x="114" y="119.4297"/><rect fill="#FFFFFF" filter="url(#fqos67pdjvo6j)" height="29.1328" style="stroke:#A80036;stroke-width:1.0;" width="10" x="119" y="222.9922"/><rect fill="#FFFFFF" filter="url(#fqos67pdjvo6j)" height="939.5156" style="stroke:#A80036;stroke-width:1.0;" width="10" x="243.5" y="148.5625"/><rect fill="#FFFFFF" filter="url(#fqos67pdjvo6j)" height="156.5313" style="stroke:#A80036;stroke-width:1.0;" width="10" x="491.5" y="859.2813"/><rect fill="#FFFFFF" filter="url(#fqos67pdjvo6j)" height="40.1328" style="stroke:#A80036;stroke-width:1.0;" width="10" x="496.5" y="939.5469"/><rect fill="#FFFFFF" filter="url(#fqos67pdjvo6j)" height="272.7969" style="stroke:#A80036;stroke-width:1.0;" width="10" x="698" y="281.2578"/><rect fill="#FFFFFF" filter="url(#fqos67pdjvo6j)" height="14" style="stroke:#A80036;stroke-width:1.0;" width="10" x="703" y="339.5234"/><rect fill="#FFFFFF" filter="url(#fqos67pdjvo6j)" height="14" style="stroke:#A80036;stroke-width:1.0;" width="10" x="703" y="425.7891"/><rect fill="#FFFFFF" filter="url(#fqos67pdjvo6j)" height="14" style="stroke:#A80036;stroke-width:1.0;" width="10" x="703" y="512.0547"/><rect fill="#FFFFFF" filter="url(#fqos67pdjvo6j)" height="29.1328" style="stroke:#A80036;stroke-width:1.0;" width="10" x="698" y="583.1875"/><rect fill="#FFFFFF" filter="url(#fqos67pdjvo6j)" height="143.3984" style="stroke:#A80036;stroke-width:1.0;" width="10" x="698" y="641.4531"/><rect fill="#FFFFFF" filter="url(#fqos67pdjvo6j)" height="234.9609" style="stroke:#A80036;stroke-width:1.0;" width="10" x="893.5" y="823.9844"/><rect fill="#FFFFFF" filter="url(#fqos67pdjvo6j)" height="14" style="stroke:#A80036;stroke-width:1.0;" width="10" x="898.5" y="888.4141"/><rect fill="#FFFFFF" filter="url(#fqos67pdjvo6j)" height="14" style="stroke:#A80036;stroke-width:1.0;" width="10" x="1003" y="670.5859"/><rect fill="#FFFFFF" filter="url(#fqos67pdjvo6j)" height="14" style="stroke:#A80036;stroke-width:1.0;" width="10" x="1003" y="713.7188"/><rect fill="#FFFFFF" filter="url(#fqos67pdjvo6j)" height="14" style="stroke:#A80036;stroke-width:1.0;" width="10" x="1003" y="756.8516"/><rect fill="#FFFFFF" filter="url(#fqos67pdjvo6j)" height="14" style="stroke:#A80036;stroke-width:1.0;" width="10" x="1108" y="1044.9453"/><rect fill="#FFFFFF" filter="url(#fqos67pdjvo6j)" height="57.1328" style="stroke:#A80036;stroke-width:1.0;" width="10" x="1196" y="482.9219"/><rect fill="#FFFFFF" filter="url(#fqos67pdjvo6j)" height="57.1328" style="stroke:#A80036;stroke-width:1.0;" width="10" x="1295" y="396.6563"/><rect fill="#FFFFFF" filter="url(#fqos67pdjvo6j)" height="57.1328" style="stroke:#A80036;stroke-width:1.0;" width="10" x="1423.5" y="310.3906"/><line style="stroke:#A80036;stroke-width:1.0;stroke-dasharray:5.0,5.0;" x1="35" x2="35" y1="88.2969" y2="1135.2109"/><line style="stroke:#A80036;stroke-width:1.0;stroke-dasharray:5.0,5.0;" x1="118.5" x2="118.5" y1="88.2969" y2="1135.2109"/><line style="stroke:#A80036;stroke-width:1.0;stroke-dasharray:5.0,5.0;" x1="248.5" x2="248.5" y1="88.2969" y2="1135.2109"/><line style="stroke:#A80036;stroke-width:1.0;stroke-dasharray:5.0,5.0;" x1="384.5" x2="384.5" y1="88.2969" y2="1135.2109"/><line style="stroke:#A80036;stroke-width:1.0;stroke-dasharray:5.0,5.0;" x1="496.5" x2="496.5" y1="88.2969" y2="1135.2109"/><line style="stroke:#A80036;stroke-width:1.0;stroke-dasharray:5.0,5.0;" x1="702.5" x2="702.5" y1="189.2109" y2="1135.2109"/><line style="stroke:#A80036;stroke-width:1.0;stroke-dasharray:5.0,5.0;" x1="898.5" x2="898.5" y1="825.5" y2="1135.2109"/><line style="stroke:#A80036;stroke-width:1.0;stroke-dasharray:5.0,5.0;" x1="1007.5" x2="1007.5" y1="88.2969" y2="1135.2109"/><line style="stroke:#A80036;stroke-width:1.0;stroke-dasharray:5.0,5.0;" x1="1112.5" x2="1112.5" y1="88.2969" y2="1135.2109"/><line style="stroke:#A80036;stroke-width:1.0;stroke-dasharray:5.0,5.0;" x1="1200.5" x2="1200.5" y1="88.2969" y2="1135.2109"/><line style="stroke:#A80036;stroke-width:1.0;stroke-dasharray:5.0,5.0;" x1="1299.5" x2="1299.5" y1="88.2969" y2="1135.2109"/><line style="stroke:#A80036;stroke-width:1.0;stroke-dasharray:5.0,5.0;" x1="1428.5" x2="1428.5" y1="88.2969" y2="1135.2109"/><text fill="#000000" font-family="sans-serif" font-size="14" lengthAdjust="spacing" textLength="44" x="10" y="84.9951">Player</text><ellipse cx="35" cy="15" fill="#FEFECE" filter="url(#fqos67pdjvo6j)" rx="8" ry="8" style="stroke:#A80036;stroke-width:2.0;"/><path d="M35,23 L35,50 M22,31 L48,31 M35,50 L22,65 M35,50 L48,65 " fill="none" filter="url(#fqos67pdjvo6j)" style="stroke:#A80036;stroke-width:2.0;"/><text fill="#000000" font-family="sans-serif" font-size="14" lengthAdjust="spacing" textLength="44" x="10" y="1147.2061">Player</text><ellipse cx="35" cy="1160.5078" fill="#FEFECE" filter="url(#fqos67pdjvo6j)" rx="8" ry="8" style="stroke:#A80036;stroke-width:2.0;"/><path d="M35,1168.5078 L35,1195.5078 M22,1176.5078 L48,1176.5078 M35,1195.5078 L22,1210.5078 M35,1195.5078 L48,1210.5078 " fill="none" filter="url(#fqos67pdjvo6j)" style="stroke:#A80036;stroke-width:2.0;"/><rect fill="#FEFECE" filter="url(#fqos67pdjvo6j)" height="30.2969" style="stroke:#A80036;stroke-width:1.5;" width="85" x="74.5" y="53"/><text fill="#000000" font-family="sans-serif" font-size="14" lengthAdjust="spacing" textLength="71" x="81.5" y="72.9951">s : Settler</text><rect fill="#FEFECE" filter="url(#fqos67pdjvo6j)" height="30.2969" style="stroke:#A80036;stroke-width:1.5;" width="85" x="74.5" y="1134.2109"/><text fill="#000000" font-family="sans-serif" font-size="14" lengthAdjust="spacing" textLength="71" x="81.5" y="1154.2061">s : Settler</text><rect fill="#FEFECE" filter="url(#fqos67pdjvo6j)" height="30.2969" style="stroke:#A80036;stroke-width:1.5;" width="146" x="173.5" y="53"/><text fill="#000000" font-family="sans-serif" font-size="14" lengthAdjust="spacing" textLength="132" x="180.5" y="72.9951">rcp : RobotRecipe</text><rect fill="#FEFECE" filter="url(#fqos67pdjvo6j)" height="30.2969" style="stroke:#A80036;stroke-width:1.5;" width="146" x="173.5" y="1134.2109"/><text fill="#000000" font-family="sans-serif" font-size="14" lengthAdjust="spacing" textLength="132" x="180.5" y="1154.2061">rcp : RobotRecipe</text><rect fill="#FEFECE" filter="url(#fqos67pdjvo6j)" height="30.2969" style="stroke:#A80036;stroke-width:1.5;" width="99" x="333.5" y="53"/><text fill="#000000" font-family="sans-serif" font-size="14" lengthAdjust="spacing" textLength="85" x="340.5" y="72.9951">m : Material</text><rect fill="#FEFECE" filter="url(#fqos67pdjvo6j)" height="30.2969" style="stroke:#A80036;stroke-width:1.5;" width="99" x="333.5" y="1134.2109"/><text fill="#000000" font-family="sans-serif" font-size="14" lengthAdjust="spacing" textLength="85" x="340.5" y="1154.2061">m : Material</text><rect fill="#FEFECE" filter="url(#fqos67pdjvo6j)" height="30.2969" style="stroke:#A80036;stroke-width:1.5;" width="96" x="446.5" y="53"/><text fill="#000000" font-family="sans-serif" font-size="14" lengthAdjust="spacing" textLength="82" x="453.5" y="72.9951">a : Asteroid</text><rect fill="#FEFECE" filter="url(#fqos67pdjvo6j)" height="30.2969" style="stroke:#A80036;stroke-width:1.5;" width="96" x="446.5" y="1134.2109"/><text fill="#000000" font-family="sans-serif" font-size="14" lengthAdjust="spacing" textLength="82" x="453.5" y="1154.2061">a : Asteroid</text><rect fill="#FEFECE" filter="url(#fqos67pdjvo6j)" height="30.2969" style="stroke:#A80036;stroke-width:1.5;" width="289" x="556.5" y="1134.2109"/><text fill="#000000" font-family="sans-serif" font-size="14" lengthAdjust="spacing" textLength="275" x="563.5" y="1154.2061">robotResReg: RobotResourceRegistry</text><rect fill="#FEFECE" filter="url(#fqos67pdjvo6j)" height="30.2969" style="stroke:#A80036;stroke-width:1.5;" width="74" x="859.5" y="1134.2109"/><text fill="#000000" font-family="sans-serif" font-size="14" lengthAdjust="spacing" textLength="60" x="866.5" y="1154.2061">r: Robot</text><rect fill="#FEFECE" filter="url(#fqos67pdjvo6j)" height="30.2969" style="stroke:#A80036;stroke-width:1.5;" width="117" x="947.5" y="53"/><text fill="#000000" font-family="sans-serif" font-size="14" lengthAdjust="spacing" textLength="103" x="954.5" y="72.9951">inv : Inventory</text><rect fill="#FEFECE" filter="url(#fqos67pdjvo6j)" height="30.2969" style="stroke:#A80036;stroke-width:1.5;" width="117" x="947.5" y="1134.2109"/><text fill="#000000" font-family="sans-serif" font-size="14" lengthAdjust="spacing" textLength="103" x="954.5" y="1154.2061">inv : Inventory</text><rect fill="#FEFECE" filter="url(#fqos67pdjvo6j)" height="30.2969" style="stroke:#A80036;stroke-width:1.5;" width="65" x="1078.5" y="53"/><text fill="#000000" font-family="sans-serif" font-size="14" lengthAdjust="spacing" textLength="51" x="1085.5" y="72.9951">: Game</text><rect fill="#FEFECE" filter="url(#fqos67pdjvo6j)" height="30.2969" style="stroke:#A80036;stroke-width:1.5;" width="65" x="1078.5" y="1134.2109"/><text fill="#000000" font-family="sans-serif" font-size="14" lengthAdjust="spacing" textLength="51" x="1085.5" y="1154.2061">: Game</text><rect fill="#FEFECE" filter="url(#fqos67pdjvo6j)" height="30.2969" style="stroke:#A80036;stroke-width:1.5;" width="83" x="1157.5" y="53"/><text fill="#000000" font-family="sans-serif" font-size="14" lengthAdjust="spacing" textLength="69" x="1164.5" y="72.9951">iron : Iron</text><rect fill="#FEFECE" filter="url(#fqos67pdjvo6j)" height="30.2969" style="stroke:#A80036;stroke-width:1.5;" width="83" x="1157.5" y="1134.2109"/><text fill="#000000" font-family="sans-serif" font-size="14" lengthAdjust="spacing" textLength="69" x="1164.5" y="1154.2061">iron : Iron</text><rect fill="#FEFECE" filter="url(#fqos67pdjvo6j)" height="30.2969" style="stroke:#A80036;stroke-width:1.5;" width="87" x="1254.5" y="53"/><text fill="#000000" font-family="sans-serif" font-size="14" lengthAdjust="spacing" textLength="73" x="1261.5" y="72.9951">coal : Coal</text><rect fill="#FEFECE" filter="url(#fqos67pdjvo6j)" height="30.2969" style="stroke:#A80036;stroke-width:1.5;" width="87" x="1254.5" y="1134.2109"/><text fill="#000000" font-family="sans-serif" font-size="14" lengthAdjust="spacing" textLength="73" x="1261.5" y="1154.2061">coal : Coal</text><rect fill="#FEFECE" filter="url(#fqos67pdjvo6j)" height="30.2969" style="stroke:#A80036;stroke-width:1.5;" width="142" x="1355.5" y="53"/><text fill="#000000" font-family="sans-serif" font-size="14" lengthAdjust="spacing" textLength="128" x="1362.5" y="72.9951">uranium : Uranium</text><rect fill="#FEFECE" filter="url(#fqos67pdjvo6j)" height="30.2969" style="stroke:#A80036;stroke-width:1.5;" width="142" x="1355.5" y="1134.2109"/><text fill="#000000" font-family="sans-serif" font-size="14" lengthAdjust="spacing" textLength="128" x="1362.5" y="1154.2061">uranium : Uranium</text><rect fill="#FFFFFF" filter="url(#fqos67pdjvo6j)" height="997.7813" style="stroke:#A80036;stroke-width:1.0;" width="10" x="114" y="119.4297"/><rect fill="#FFFFFF" filter="url(#fqos67pdjvo6j)" height="29.1328" style="stroke:#A80036;stroke-width:1.0;" width="10" x="119" y="222.9922"/><rect fill="#FFFFFF" filter="url(#fqos67pdjvo6j)" height="939.5156" style="stroke:#A80036;stroke-width:1.0;" width="10" x="243.5" y="148.5625"/><rect fill="#FFFFFF" filter="url(#fqos67pdjvo6j)" height="156.5313" style="stroke:#A80036;stroke-width:1.0;" width="10" x="491.5" y="859.2813"/><rect fill="#FFFFFF" filter="url(#fqos67pdjvo6j)" height="40.1328" style="stroke:#A80036;stroke-width:1.0;" width="10" x="496.5" y="939.5469"/><rect fill="#FFFFFF" filter="url(#fqos67pdjvo6j)" height="272.7969" style="stroke:#A80036;stroke-width:1.0;" width="10" x="698" y="281.2578"/><rect fill="#FFFFFF" filter="url(#fqos67pdjvo6j)" height="14" style="stroke:#A80036;stroke-width:1.0;" width="10" x="703" y="339.5234"/><rect fill="#FFFFFF" filter="url(#fqos67pdjvo6j)" height="14" style="stroke:#A80036;stroke-width:1.0;" width="10" x="703" y="425.7891"/><rect fill="#FFFFFF" filter="url(#fqos67pdjvo6j)" height="14" style="stroke:#A80036;stroke-width:1.0;" width="10" x="703" y="512.0547"/><rect fill="#FFFFFF" filter="url(#fqos67pdjvo6j)" height="29.1328" style="stroke:#A80036;stroke-width:1.0;" width="10" x="698" y="583.1875"/><rect fill="#FFFFFF" filter="url(#fqos67pdjvo6j)" height="143.3984" style="stroke:#A80036;stroke-width:1.0;" width="10" x="698" y="641.4531"/><rect fill="#FFFFFF" filter="url(#fqos67pdjvo6j)" height="234.9609" style="stroke:#A80036;stroke-width:1.0;" width="10" x="893.5" y="823.9844"/><rect fill="#FFFFFF" filter="url(#fqos67pdjvo6j)" height="14" style="stroke:#A80036;stroke-width:1.0;" width="10" x="898.5" y="888.4141"/><rect fill="#FFFFFF" filter="url(#fqos67pdjvo6j)" height="14" style="stroke:#A80036;stroke-width:1.0;" width="10" x="1003" y="670.5859"/><rect fill="#FFFFFF" filter="url(#fqos67pdjvo6j)" height="14" style="stroke:#A80036;stroke-width:1.0;" width="10" x="1003" y="713.7188"/><rect fill="#FFFFFF" filter="url(#fqos67pdjvo6j)" height="14" style="stroke:#A80036;stroke-width:1.0;" width="10" x="1003" y="756.8516"/><rect fill="#FFFFFF" filter="url(#fqos67pdjvo6j)" height="14" style="stroke:#A80036;stroke-width:1.0;" width="10" x="1108" y="1044.9453"/><rect fill="#FFFFFF" filter="url(#fqos67pdjvo6j)" height="57.1328" style="stroke:#A80036;stroke-width:1.0;" width="10" x="1196" y="482.9219"/><rect fill="#FFFFFF" filter="url(#fqos67pdjvo6j)" height="57.1328" style="stroke:#A80036;stroke-width:1.0;" width="10" x="1295" y="396.6563"/><rect fill="#FFFFFF" filter="url(#fqos67pdjvo6j)" height="57.1328" style="stroke:#A80036;stroke-width:1.0;" width="10" x="1423.5" y="310.3906"/><polygon fill="#A80036" points="102,115.4297,112,119.4297,102,123.4297,106,119.4297" style="stroke:#A80036;stroke-width:1.0;"/><line style="stroke:#A80036;stroke-width:1.0;" x1="35" x2="108" y1="119.4297" y2="119.4297"/><text fill="#000000" font-family="sans-serif" font-size="13" lengthAdjust="spacing" textLength="60" x="42" y="114.3638">craft(rcp)</text><polygon fill="#A80036" points="231.5,144.5625,241.5,148.5625,231.5,152.5625,235.5,148.5625" style="stroke:#A80036;stroke-width:1.0;"/><line style="stroke:#A80036;stroke-width:1.0;" x1="124" x2="237.5" y1="148.5625" y2="148.5625"/><text fill="#000000" font-family="sans-serif" font-size="13" lengthAdjust="spacing" textLength="47" x="131" y="143.4966">craft(s)</text><polygon fill="#A80036" points="544.5,173.6953,554.5,177.6953,544.5,181.6953,548.5,177.6953" style="stroke:#A80036;stroke-width:1.0;"/><line style="stroke:#A80036;stroke-width:1.0;" x1="253.5" x2="550.5" y1="177.6953" y2="177.6953"/><text fill="#000000" font-family="sans-serif" font-size="13" lengthAdjust="spacing" textLength="246" x="260.5" y="172.6294">&lt;&lt;create&gt;&gt; RobotResourceRegistry()</text><rect fill="#FEFECE" filter="url(#fqos67pdjvo6j)" height="30.2969" style="stroke:#A80036;stroke-width:1.5;" width="289" x="556.5" y="156.5625"/><text fill="#000000" font-family="sans-serif" font-size="14" lengthAdjust="spacing" textLength="275" x="563.5" y="176.5576">robotResReg: RobotResourceRegistry</text><polygon fill="#A80036" points="140,218.9922,130,222.9922,140,226.9922,136,222.9922" style="stroke:#A80036;stroke-width:1.0;"/><line style="stroke:#A80036;stroke-width:1.0;" x1="134" x2="242.5" y1="222.9922" y2="222.9922"/><text fill="#000000" font-family="sans-serif" font-size="13" lengthAdjust="spacing" textLength="92" x="146" y="217.9263">getInventory()</text><polygon fill="#A80036" points="231.5,248.125,241.5,252.125,231.5,256.125,235.5,252.125" style="stroke:#A80036;stroke-width:1.0;"/><line style="stroke:#A80036;stroke-width:1.0;stroke-dasharray:2.0,2.0;" x1="124" x2="237.5" y1="252.125" y2="252.125"/><text fill="#000000" font-family="sans-serif" font-size="13" lengthAdjust="spacing" textLength="19" x="131" y="247.0591">inv</text><polygon fill="#A80036" points="686,277.2578,696,281.2578,686,285.2578,690,281.2578" style="stroke:#A80036;stroke-width:1.0;"/><line style="stroke:#A80036;stroke-width:1.0;" x1="253.5" x2="692" y1="281.2578" y2="281.2578"/><text fill="#000000" font-family="sans-serif" font-size="13" lengthAdjust="spacing" textLength="78" x="260.5" y="276.1919">register(inv)</text><polygon fill="#A80036" points="1411.5,306.3906,1421.5,310.3906,1411.5,314.3906,1415.5,310.3906" style="stroke:#A80036;stroke-width:1.0;"/><line style="stroke:#A80036;stroke-width:1.0;" x1="708" x2="1417.5" y1="310.3906" y2="310.3906"/><text fill="#000000" font-family="sans-serif" font-size="13" lengthAdjust="spacing" textLength="181" x="715" y="305.3247">giveSignature(robotResReg)</text><polygon fill="#A80036" points="724,335.5234,714,339.5234,724,343.5234,720,339.5234" style="stroke:#A80036;stroke-width:1.0;"/><line style="stroke:#A80036;stroke-width:1.0;" x1="718" x2="1422.5" y1="339.5234" y2="339.5234"/><text fill="#000000" font-family="sans-serif" font-size="13" lengthAdjust="spacing" textLength="112" x="730" y="334.4575">register(uranium)</text><polygon fill="#A80036" points="1411.5,349.5234,1421.5,353.5234,1411.5,357.5234,1415.5,353.5234" style="stroke:#A80036;stroke-width:1.0;"/><line style="stroke:#A80036;stroke-width:1.0;stroke-dasharray:2.0,2.0;" x1="708" x2="1417.5" y1="353.5234" y2="353.5234"/><polygon fill="#A80036" points="719,363.5234,709,367.5234,719,371.5234,715,367.5234" style="stroke:#A80036;stroke-width:1.0;"/><line style="stroke:#A80036;stroke-width:1.0;stroke-dasharray:2.0,2.0;" x1="713" x2="1427.5" y1="367.5234" y2="367.5234"/><polygon fill="#A80036" points="1283,392.6563,1293,396.6563,1283,400.6563,1287,396.6563" style="stroke:#A80036;stroke-width:1.0;"/><line style="stroke:#A80036;stroke-width:1.0;" x1="708" x2="1289" y1="396.6563" y2="396.6563"/><text fill="#000000" font-family="sans-serif" font-size="13" lengthAdjust="spacing" textLength="181" x="715" y="391.5903">giveSignature(robotResReg)</text><polygon fill="#A80036" points="724,421.7891,714,425.7891,724,429.7891,720,425.7891" style="stroke:#A80036;stroke-width:1.0;"/><line style="stroke:#A80036;stroke-width:1.0;" x1="718" x2="1294" y1="425.7891" y2="425.7891"/><text fill="#000000" font-family="sans-serif" font-size="13" lengthAdjust="spacing" textLength="85" x="730" y="420.7231">register(coal)</text><polygon fill="#A80036" points="1283,435.7891,1293,439.7891,1283,443.7891,1287,439.7891" style="stroke:#A80036;stroke-width:1.0;"/><line style="stroke:#A80036;stroke-width:1.0;stroke-dasharray:2.0,2.0;" x1="708" x2="1289" y1="439.7891" y2="439.7891"/><polygon fill="#A80036" points="719,449.7891,709,453.7891,719,457.7891,715,453.7891" style="stroke:#A80036;stroke-width:1.0;"/><line style="stroke:#A80036;stroke-width:1.0;stroke-dasharray:2.0,2.0;" x1="713" x2="1299" y1="453.7891" y2="453.7891"/><polygon fill="#A80036" points="1184,478.9219,1194,482.9219,1184,486.9219,1188,482.9219" style="stroke:#A80036;stroke-width:1.0;"/><line style="stroke:#A80036;stroke-width:1.0;" x1="708" x2="1190" y1="482.9219" y2="482.9219"/><text fill="#000000" font-family="sans-serif" font-size="13" lengthAdjust="spacing" textLength="181" x="715" y="477.856">giveSignature(robotResReg)</text><polygon fill="#A80036" points="724,508.0547,714,512.0547,724,516.0547,720,512.0547" style="stroke:#A80036;stroke-width:1.0;"/><line style="stroke:#A80036;stroke-width:1.0;" x1="718" x2="1195" y1="512.0547" y2="512.0547"/><text fill="#000000" font-family="sans-serif" font-size="13" lengthAdjust="spacing" textLength="83" x="730" y="506.9888">register(iron)</text><polygon fill="#A80036" points="1184,522.0547,1194,526.0547,1184,530.0547,1188,526.0547" style="stroke:#A80036;stroke-width:1.0;"/><line style="stroke:#A80036;stroke-width:1.0;stroke-dasharray:2.0,2.0;" x1="708" x2="1190" y1="526.0547" y2="526.0547"/><polygon fill="#A80036" points="719,536.0547,709,540.0547,719,544.0547,715,540.0547" style="stroke:#A80036;stroke-width:1.0;"/><line style="stroke:#A80036;stroke-width:1.0;stroke-dasharray:2.0,2.0;" x1="713" x2="1200" y1="540.0547" y2="540.0547"/><polygon fill="#A80036" points="264.5,550.0547,254.5,554.0547,264.5,558.0547,260.5,554.0547" style="stroke:#A80036;stroke-width:1.0;"/><line style="stroke:#A80036;stroke-width:1.0;stroke-dasharray:2.0,2.0;" x1="258.5" x2="702" y1="554.0547" y2="554.0547"/><polygon fill="#A80036" points="686,579.1875,696,583.1875,686,587.1875,690,583.1875" style="stroke:#A80036;stroke-width:1.0;"/><line style="stroke:#A80036;stroke-width:1.0;" x1="253.5" x2="692" y1="583.1875" y2="583.1875"/><text fill="#000000" font-family="sans-serif" font-size="13" lengthAdjust="spacing" textLength="88" x="260.5" y="578.1216">isSuccessful()</text><polygon fill="#A80036" points="264.5,608.3203,254.5,612.3203,264.5,616.3203,260.5,612.3203" style="stroke:#A80036;stroke-width:1.0;"/><line style="stroke:#A80036;stroke-width:1.0;stroke-dasharray:2.0,2.0;" x1="258.5" x2="702" y1="612.3203" y2="612.3203"/><text fill="#000000" font-family="sans-serif" font-size="13" lengthAdjust="spacing" textLength="26" x="270.5" y="607.2544">true</text><polygon fill="#A80036" points="686,637.4531,696,641.4531,686,645.4531,690,641.4531" style="stroke:#A80036;stroke-width:1.0;"/><line style="stroke:#A80036;stroke-width:1.0;" x1="253.5" x2="692" y1="641.4531" y2="641.4531"/><text fill="#000000" font-family="sans-serif" font-size="13" lengthAdjust="spacing" textLength="193" x="260.5" y="636.3872">removeRequiredMaterials(inv)</text><polygon fill="#A80036" points="991,666.5859,1001,670.5859,991,674.5859,995,670.5859" style="stroke:#A80036;stroke-width:1.0;"/><line style="stroke:#A80036;stroke-width:1.0;" x1="708" x2="997" y1="670.5859" y2="670.5859"/><text fill="#000000" font-family="sans-serif" font-size="13" lengthAdjust="spacing" textLength="134" x="715" y="665.52">removeMaterial(iron)</text><polygon fill="#A80036" points="719,680.5859,709,684.5859,719,688.5859,715,684.5859" style="stroke:#A80036;stroke-width:1.0;"/><line style="stroke:#A80036;stroke-width:1.0;stroke-dasharray:2.0,2.0;" x1="713" x2="1007" y1="684.5859" y2="684.5859"/><polygon fill="#A80036" points="991,709.7188,1001,713.7188,991,717.7188,995,713.7188" style="stroke:#A80036;stroke-width:1.0;"/><line style="stroke:#A80036;stroke-width:1.0;" x1="708" x2="997" y1="713.7188" y2="713.7188"/><text fill="#000000" font-family="sans-serif" font-size="13" lengthAdjust="spacing" textLength="136" x="715" y="708.6528">removeMaterial(coal)</text><polygon fill="#A80036" points="719,723.7188,709,727.7188,719,731.7188,715,727.7188" style="stroke:#A80036;stroke-width:1.0;"/><line style="stroke:#A80036;stroke-width:1.0;stroke-dasharray:2.0,2.0;" x1="713" x2="1007" y1="727.7188" y2="727.7188"/><polygon fill="#A80036" points="991,752.8516,1001,756.8516,991,760.8516,995,756.8516" style="stroke:#A80036;stroke-width:1.0;"/><line style="stroke:#A80036;stroke-width:1.0;" x1="708" x2="997" y1="756.8516" y2="756.8516"/><text fill="#000000" font-family="sans-serif" font-size="13" lengthAdjust="spacing" textLength="163" x="715" y="751.7856">removeMaterial(uranium)</text><polygon fill="#A80036" points="719,766.8516,709,770.8516,719,774.8516,715,770.8516" style="stroke:#A80036;stroke-width:1.0;"/><line style="stroke:#A80036;stroke-width:1.0;stroke-dasharray:2.0,2.0;" x1="713" x2="1007" y1="770.8516" y2="770.8516"/><polygon fill="#A80036" points="264.5,780.8516,254.5,784.8516,264.5,788.8516,260.5,784.8516" style="stroke:#A80036;stroke-width:1.0;"/><line style="stroke:#A80036;stroke-width:1.0;stroke-dasharray:2.0,2.0;" x1="258.5" x2="702" y1="784.8516" y2="784.8516"/><polygon fill="#A80036" points="847.5,809.9844,857.5,813.9844,847.5,817.9844,851.5,813.9844" style="stroke:#A80036;stroke-width:1.0;"/><line style="stroke:#A80036;stroke-width:1.0;" x1="253.5" x2="853.5" y1="813.9844" y2="813.9844"/><text fill="#000000" font-family="sans-serif" font-size="13" lengthAdjust="spacing" textLength="141" x="260.5" y="808.9185">&lt;&lt;create&gt;&gt; Robot(a)</text><rect fill="#FEFECE" filter="url(#fqos67pdjvo6j)" height="30.2969" style="stroke:#A80036;stroke-width:1.5;" width="74" x="859.5" y="792.8516"/><text fill="#000000" font-family="sans-serif" font-size="14" lengthAdjust="spacing" textLength="60" x="866.5" y="812.8467">r: Robot</text><polygon fill="#A80036" points="512.5,855.2813,502.5,859.2813,512.5,863.2813,508.5,859.2813" style="stroke:#A80036;stroke-width:1.0;"/><line style="stroke:#A80036;stroke-width:1.0;" x1="506.5" x2="892.5" y1="859.2813" y2="859.2813"/><text fill="#000000" font-family="sans-serif" font-size="13" lengthAdjust="spacing" textLength="104" x="518.5" y="854.2153">acceptWorker(r)</text><polygon fill="#A80036" points="886.5,884.4141,896.5,888.4141,886.5,892.4141,890.5,888.4141" style="stroke:#A80036;stroke-width:1.0;"/><line style="stroke:#A80036;stroke-width:1.0;" x1="501.5" x2="892.5" y1="888.4141" y2="888.4141"/><text fill="#000000" font-family="sans-serif" font-size="13" lengthAdjust="spacing" textLength="91" x="508.5" y="883.3481">setAsteroid(a)</text><polygon fill="#A80036" points="512.5,898.4141,502.5,902.4141,512.5,906.4141,508.5,902.4141" style="stroke:#A80036;stroke-width:1.0;"/><line style="stroke:#A80036;stroke-width:1.0;stroke-dasharray:2.0,2.0;" x1="506.5" x2="892.5" y1="902.4141" y2="902.4141"/><line style="stroke:#A80036;stroke-width:1.0;" x1="501.5" x2="548.5" y1="926.5469" y2="926.5469"/><line style="stroke:#A80036;stroke-width:1.0;" x1="548.5" x2="548.5" y1="926.5469" y2="939.5469"/><line style="stroke:#A80036;stroke-width:1.0;" x1="507.5" x2="548.5" y1="939.5469" y2="939.5469"/><polygon fill="#A80036" points="517.5,935.5469,507.5,939.5469,517.5,943.5469,513.5,939.5469" style="stroke:#A80036;stroke-width:1.0;"/><text fill="#000000" font-family="sans-serif" font-size="13" lengthAdjust="spacing" textLength="102" x="513.5" y="921.481">checkBaseWin()</text><line style="stroke:#A80036;stroke-width:1.0;stroke-dasharray:2.0,2.0;" x1="506.5" x2="548.5" y1="978.6797" y2="978.6797"/><line style="stroke:#A80036;stroke-width:1.0;stroke-dasharray:2.0,2.0;" x1="548.5" x2="548.5" y1="978.6797" y2="991.6797"/><line style="stroke:#A80036;stroke-width:1.0;stroke-dasharray:2.0,2.0;" x1="501.5" x2="548.5" y1="991.6797" y2="991.6797"/><polygon fill="#A80036" points="511.5,987.6797,501.5,991.6797,511.5,995.6797,507.5,991.6797" style="stroke:#A80036;stroke-width:1.0;"/><text fill="#000000" font-family="sans-serif" font-size="13" lengthAdjust="spacing" textLength="31" x="513.5" y="973.6138">false</text><polygon fill="#A80036" points="881.5,1011.8125,891.5,1015.8125,881.5,1019.8125,885.5,1015.8125" style="stroke:#A80036;stroke-width:1.0;"/><line style="stroke:#A80036;stroke-width:1.0;stroke-dasharray:2.0,2.0;" x1="496.5" x2="887.5" y1="1015.8125" y2="1015.8125"/><text fill="#000000" font-family="sans-serif" font-size="13" lengthAdjust="spacing" textLength="26" x="503.5" y="1010.7466">true</text><polygon fill="#A80036" points="1096,1040.9453,1106,1044.9453,1096,1048.9453,1100,1044.9453" style="stroke:#A80036;stroke-width:1.0;"/><line style="stroke:#A80036;stroke-width:1.0;" x1="903.5" x2="1102" y1="1044.9453" y2="1044.9453"/><text fill="#000000" font-family="sans-serif" font-size="13" lengthAdjust="spacing" textLength="103" x="910.5" y="1039.8794">addSteppable(r)</text><polygon fill="#A80036" points="909.5,1054.9453,899.5,1058.9453,909.5,1062.9453,905.5,1058.9453" style="stroke:#A80036;stroke-width:1.0;"/><line style="stroke:#A80036;stroke-width:1.0;stroke-dasharray:2.0,2.0;" x1="903.5" x2="1112" y1="1058.9453" y2="1058.9453"/><polygon fill="#A80036" points="135,1084.0781,125,1088.0781,135,1092.0781,131,1088.0781" style="stroke:#A80036;stroke-width:1.0;"/><line style="stroke:#A80036;stroke-width:1.0;stroke-dasharray:2.0,2.0;" x1="129" x2="247.5" y1="1088.0781" y2="1088.0781"/><text fill="#000000" font-family="sans-serif" font-size="13" lengthAdjust="spacing" textLength="26" x="141" y="1083.0122">true</text><polygon fill="#A80036" points="46,1113.2109,36,1117.2109,46,1121.2109,42,1117.2109" style="stroke:#A80036;stroke-width:1.0;"/><line style="stroke:#A80036;stroke-width:1.0;stroke-dasharray:2.0,2.0;" x1="40" x2="118" y1="1117.2109" y2="1117.2109"/><text fill="#000000" font-family="sans-serif" font-size="13" lengthAdjust="spacing" textLength="26" x="52" y="1112.145">true</text><!--MD5=[0d9e855071a94cd7570a9bc7fdeb959d]
@startuml
actor "Player" as player
participant "s : Settler" as s
participant "rcp : RobotRecipe" as rcp
participant "m : Material" as m
participant "a : Asteroid" as a
participant "robotResReg: RobotResourceRegistry" as resReg
participant "r: Robot" as r


participant "inv : Inventory" as inv

participant ": Game" as game

participant "iron : Iron" as iron
participant "coal : Coal" as coal
participant "uranium : Uranium" as uranium

player->s ++: craft(rcp)

s->rcp ++:craft(s)
    
    rcp->resReg **: <<create>> RobotResourceRegistry()
    rcp->s ++: getInventory()
    return inv
    
    rcp->resReg ++:register(inv)
        resReg->uranium ++:giveSignature(robotResReg)
            uranium->resReg ++: register(uranium)
            return
        return
	resReg->coal ++:giveSignature(robotResReg)
            coal->resReg ++: register(coal)
            return
        return
 	resReg->iron ++:giveSignature(robotResReg)
            iron->resReg ++: register(iron)
            return
        return
    return
    rcp->resReg ++:isSuccessful()
    return true
    
    rcp->resReg ++: removeRequiredMaterials(inv)
    resReg ->inv ++:removeMaterial(iron)
    return
    resReg ->inv ++:removeMaterial(coal)
    return
    resReg ->inv ++:removeMaterial(uranium)
    return
    return
    
        rcp->r **:<<create>> Robot(a)
        activate r
           r->a ++:acceptWorker(r)
                a->r ++:setAsteroid(a)
                return
                a->a ++:checkBaseWin()
                return false
           return true
           r->game ++: addSteppable(r)
           return
        deactivate r
        
    
return true

return true
@enduml

PlantUML version 1.2021.3beta7(Unknown compile time)
(GPL source distribution)
Java Runtime: Java(TM) SE Runtime Environment
JVM: Java HotSpot(TM) 64-Bit Server VM
Default Encoding: UTF-8
Language: en
Country: US
--></g></svg>