<?xml version="1.0" encoding="UTF-8" standalone="no"?><svg xmlns="http://www.w3.org/2000/svg" xmlns:xlink="http://www.w3.org/1999/xlink" contentScriptType="application/ecmascript" contentStyleType="text/css" height="250px" preserveAspectRatio="none" style="width:219px;height:250px;" version="1.1" viewBox="0 0 219 250" width="219px" zoomAndPan="magnify"><defs><filter height="300%" id="fxh31yvlagvut" width="300%" x="-1" y="-1"><feGaussianBlur result="blurOut" stdDeviation="2.0"/><feColorMatrix in="blurOut" result="blurOut2" type="matrix" values="0 0 0 0 0 0 0 0 0 0 0 0 0 0 0 0 0 0 .4 0"/><feOffset dx="4.0" dy="4.0" in="blurOut2" result="blurOut3"/><feBlend in="SourceGraphic" in2="blurOut3" mode="normal"/></filter></defs><g><rect fill="#FFFFFF" filter="url(#fxh31yvlagvut)" height="29.1328" style="stroke:#A80036;stroke-width:1.0;" width="10" x="161.5" y="119.4297"/><line style="stroke:#A80036;stroke-width:1.0;stroke-dasharray:5.0,5.0;" x1="45" x2="45" y1="88.2969" y2="166.5625"/><line style="stroke:#A80036;stroke-width:1.0;stroke-dasharray:5.0,5.0;" x1="166" x2="166" y1="88.2969" y2="166.5625"/><text fill="#000000" font-family="sans-serif" font-size="14" lengthAdjust="spacing" textLength="65" x="10" y="84.9951">Skeleton</text><ellipse cx="45.5" cy="15" fill="#FEFECE" filter="url(#fxh31yvlagvut)" rx="8" ry="8" style="stroke:#A80036;stroke-width:2.0;"/><path d="M45.5,23 L45.5,50 M32.5,31 L58.5,31 M45.5,50 L32.5,65 M45.5,50 L58.5,65 " fill="none" filter="url(#fxh31yvlagvut)" style="stroke:#A80036;stroke-width:2.0;"/><text fill="#000000" font-family="sans-serif" font-size="14" lengthAdjust="spacing" textLength="65" x="10" y="178.5576">Skeleton</text><ellipse cx="45.5" cy="191.8594" fill="#FEFECE" filter="url(#fxh31yvlagvut)" rx="8" ry="8" style="stroke:#A80036;stroke-width:2.0;"/><path d="M45.5,199.8594 L45.5,226.8594 M32.5,207.8594 L58.5,207.8594 M45.5,226.8594 L32.5,241.8594 M45.5,226.8594 L58.5,241.8594 " fill="none" filter="url(#fxh31yvlagvut)" style="stroke:#A80036;stroke-width:2.0;"/><rect fill="#FEFECE" filter="url(#fxh31yvlagvut)" height="30.2969" style="stroke:#A80036;stroke-width:1.5;" width="81" x="124" y="53"/><text fill="#000000" font-family="sans-serif" font-size="14" lengthAdjust="spacing" textLength="67" x="131" y="72.9951">s: Settler</text><rect fill="#FEFECE" filter="url(#fxh31yvlagvut)" height="30.2969" style="stroke:#A80036;stroke-width:1.5;" width="81" x="124" y="165.5625"/><text fill="#000000" font-family="sans-serif" font-size="14" lengthAdjust="spacing" textLength="67" x="131" y="185.5576">s: Settler</text><rect fill="#FFFFFF" filter="url(#fxh31yvlagvut)" height="29.1328" style="stroke:#A80036;stroke-width:1.0;" width="10" x="161.5" y="119.4297"/><polygon fill="#A80036" points="149.5,115.4297,159.5,119.4297,149.5,123.4297,153.5,119.4297" style="stroke:#A80036;stroke-width:1.0;"/><line style="stroke:#A80036;stroke-width:1.0;" x1="45.5" x2="155.5" y1="119.4297" y2="119.4297"/><text fill="#000000" font-family="sans-serif" font-size="13" lengthAdjust="spacing" textLength="97" x="52.5" y="114.3638">placeTeleport()</text><polygon fill="#A80036" points="56.5,144.5625,46.5,148.5625,56.5,152.5625,52.5,148.5625" style="stroke:#A80036;stroke-width:1.0;"/><line style="stroke:#A80036;stroke-width:1.0;stroke-dasharray:2.0,2.0;" x1="50.5" x2="165.5" y1="148.5625" y2="148.5625"/><text fill="#000000" font-family="sans-serif" font-size="13" lengthAdjust="spacing" textLength="31" x="62.5" y="143.4966">false</text><!--MD5=[54ae68d6b426ba3f160fa5b86c742093]
@startuml
actor "Skeleton" as player
participant "s: Settler" as s

player->s ++:placeTeleport()
return false
@enduml

PlantUML version 1.2021.3beta7(Unknown compile time)
(GPL source distribution)
Java Runtime: Java(TM) SE Runtime Environment
JVM: Java HotSpot(TM) 64-Bit Server VM
Default Encoding: UTF-8
Language: en
Country: US
--></g></svg>