<?xml version="1.0" encoding="UTF-8" standalone="no"?><svg xmlns="http://www.w3.org/2000/svg" xmlns:xlink="http://www.w3.org/1999/xlink" contentScriptType="application/ecmascript" contentStyleType="text/css" height="776px" preserveAspectRatio="none" style="width:684px;height:776px;" version="1.1" viewBox="0 0 684 776" width="684px" zoomAndPan="magnify"><defs><filter height="300%" id="f2gey2y14nctn" width="300%" x="-1" y="-1"><feGaussianBlur result="blurOut" stdDeviation="2.0"/><feColorMatrix in="blurOut" result="blurOut2" type="matrix" values="0 0 0 0 0 0 0 0 0 0 0 0 0 0 0 0 0 0 .4 0"/><feOffset dx="4.0" dy="4.0" in="blurOut2" result="blurOut3"/><feBlend in="SourceGraphic" in2="blurOut3" mode="normal"/></filter></defs><g><rect fill="#FFFFFF" filter="url(#f2gey2y14nctn)" height="554.4609" style="stroke:#A80036;stroke-width:1.0;" width="10" x="128.5" y="119.4297"/><rect fill="#FFFFFF" filter="url(#f2gey2y14nctn)" height="307.6641" style="stroke:#A80036;stroke-width:1.0;" width="10" x="133.5" y="260.0938"/><rect fill="#FFFFFF" filter="url(#f2gey2y14nctn)" height="249.5313" style="stroke:#A80036;stroke-width:1.0;" width="10" x="138.5" y="297.2266"/><rect fill="#FFFFFF" filter="url(#f2gey2y14nctn)" height="511.3281" style="stroke:#A80036;stroke-width:1.0;" width="10" x="285.5" y="148.5625"/><rect fill="#FFFFFF" filter="url(#f2gey2y14nctn)" height="393.9297" style="stroke:#A80036;stroke-width:1.0;" width="10" x="290.5" y="230.9609"/><rect fill="#FFFFFF" filter="url(#f2gey2y14nctn)" height="14" style="stroke:#A80036;stroke-width:1.0;" width="10" x="295.5" y="331.3594"/><rect fill="#FFFFFF" filter="url(#f2gey2y14nctn)" height="437.0625" style="stroke:#A80036;stroke-width:1.0;" width="10" x="402" y="201.8281"/><rect fill="#FFFFFF" filter="url(#f2gey2y14nctn)" height="152.2656" style="stroke:#A80036;stroke-width:1.0;" width="10" x="505" y="374.4922"/><rect fill="#FFFFFF" filter="url(#f2gey2y14nctn)" height="25" style="stroke:#A80036;stroke-width:1.0;" width="10" x="510" y="411.625"/><rect fill="#FFFFFF" filter="url(#f2gey2y14nctn)" height="25" style="stroke:#A80036;stroke-width:1.0;" width="10" x="510" y="480.7578"/><rect fill="#FFFFFF" filter="url(#f2gey2y14nctn)" height="14" style="stroke:#A80036;stroke-width:1.0;" width="10" x="505" y="596.8906"/><rect fill="#FFFFFF" filter="url(#f2gey2y14nctn)" height="483.3281" style="stroke:#000000;stroke-width:2.0;" width="589" x="81" y="163.5625"/><line style="stroke:#A80036;stroke-width:1.0;stroke-dasharray:5.0,5.0;" x1="45" x2="45" y1="88.2969" y2="691.8906"/><line style="stroke:#A80036;stroke-width:1.0;stroke-dasharray:5.0,5.0;" x1="133" x2="133" y1="88.2969" y2="691.8906"/><line style="stroke:#A80036;stroke-width:1.0;stroke-dasharray:5.0,5.0;" x1="290.5" x2="290.5" y1="88.2969" y2="691.8906"/><line style="stroke:#A80036;stroke-width:1.0;stroke-dasharray:5.0,5.0;" x1="406.5" x2="406.5" y1="88.2969" y2="691.8906"/><line style="stroke:#A80036;stroke-width:1.0;stroke-dasharray:5.0,5.0;" x1="509.5" x2="509.5" y1="88.2969" y2="691.8906"/><text fill="#000000" font-family="sans-serif" font-size="14" lengthAdjust="spacing" textLength="65" x="10" y="84.9951">Skeleton</text><ellipse cx="45.5" cy="15" fill="#FEFECE" filter="url(#f2gey2y14nctn)" rx="8" ry="8" style="stroke:#A80036;stroke-width:2.0;"/><path d="M45.5,23 L45.5,50 M32.5,31 L58.5,31 M45.5,50 L32.5,65 M45.5,50 L58.5,65 " fill="none" filter="url(#f2gey2y14nctn)" style="stroke:#A80036;stroke-width:2.0;"/><text fill="#000000" font-family="sans-serif" font-size="14" lengthAdjust="spacing" textLength="65" x="10" y="703.8857">Skeleton</text><ellipse cx="45.5" cy="717.1875" fill="#FEFECE" filter="url(#f2gey2y14nctn)" rx="8" ry="8" style="stroke:#A80036;stroke-width:2.0;"/><path d="M45.5,725.1875 L45.5,752.1875 M32.5,733.1875 L58.5,733.1875 M45.5,752.1875 L32.5,767.1875 M45.5,752.1875 L58.5,767.1875 " fill="none" filter="url(#f2gey2y14nctn)" style="stroke:#A80036;stroke-width:2.0;"/><rect fill="#FEFECE" filter="url(#f2gey2y14nctn)" height="30.2969" style="stroke:#A80036;stroke-width:1.5;" width="81" x="91" y="53"/><text fill="#000000" font-family="sans-serif" font-size="14" lengthAdjust="spacing" textLength="67" x="98" y="72.9951">s: Settler</text><rect fill="#FEFECE" filter="url(#f2gey2y14nctn)" height="30.2969" style="stroke:#A80036;stroke-width:1.5;" width="81" x="91" y="690.8906"/><text fill="#000000" font-family="sans-serif" font-size="14" lengthAdjust="spacing" textLength="67" x="98" y="710.8857">s: Settler</text><rect fill="#FEFECE" filter="url(#f2gey2y14nctn)" height="30.2969" style="stroke:#A80036;stroke-width:1.5;" width="92" x="242.5" y="53"/><text fill="#000000" font-family="sans-serif" font-size="14" lengthAdjust="spacing" textLength="78" x="249.5" y="72.9951">a: Asteroid</text><rect fill="#FEFECE" filter="url(#f2gey2y14nctn)" height="30.2969" style="stroke:#A80036;stroke-width:1.5;" width="92" x="242.5" y="690.8906"/><text fill="#000000" font-family="sans-serif" font-size="14" lengthAdjust="spacing" textLength="78" x="249.5" y="710.8857">a: Asteroid</text><rect fill="#FEFECE" filter="url(#f2gey2y14nctn)" height="30.2969" style="stroke:#A80036;stroke-width:1.5;" width="113" x="348.5" y="53"/><text fill="#000000" font-family="sans-serif" font-size="14" lengthAdjust="spacing" textLength="99" x="355.5" y="72.9951">core: Uranium</text><rect fill="#FEFECE" filter="url(#f2gey2y14nctn)" height="30.2969" style="stroke:#A80036;stroke-width:1.5;" width="113" x="348.5" y="690.8906"/><text fill="#000000" font-family="sans-serif" font-size="14" lengthAdjust="spacing" textLength="99" x="355.5" y="710.8857">core: Uranium</text><rect fill="#FEFECE" filter="url(#f2gey2y14nctn)" height="30.2969" style="stroke:#A80036;stroke-width:1.5;" width="65" x="475.5" y="53"/><text fill="#000000" font-family="sans-serif" font-size="14" lengthAdjust="spacing" textLength="51" x="482.5" y="72.9951">: Game</text><rect fill="#FEFECE" filter="url(#f2gey2y14nctn)" height="30.2969" style="stroke:#A80036;stroke-width:1.5;" width="65" x="475.5" y="690.8906"/><text fill="#000000" font-family="sans-serif" font-size="14" lengthAdjust="spacing" textLength="51" x="482.5" y="710.8857">: Game</text><rect fill="#FFFFFF" filter="url(#f2gey2y14nctn)" height="554.4609" style="stroke:#A80036;stroke-width:1.0;" width="10" x="128.5" y="119.4297"/><rect fill="#FFFFFF" filter="url(#f2gey2y14nctn)" height="307.6641" style="stroke:#A80036;stroke-width:1.0;" width="10" x="133.5" y="260.0938"/><rect fill="#FFFFFF" filter="url(#f2gey2y14nctn)" height="249.5313" style="stroke:#A80036;stroke-width:1.0;" width="10" x="138.5" y="297.2266"/><rect fill="#FFFFFF" filter="url(#f2gey2y14nctn)" height="511.3281" style="stroke:#A80036;stroke-width:1.0;" width="10" x="285.5" y="148.5625"/><rect fill="#FFFFFF" filter="url(#f2gey2y14nctn)" height="393.9297" style="stroke:#A80036;stroke-width:1.0;" width="10" x="290.5" y="230.9609"/><rect fill="#FFFFFF" filter="url(#f2gey2y14nctn)" height="14" style="stroke:#A80036;stroke-width:1.0;" width="10" x="295.5" y="331.3594"/><rect fill="#FFFFFF" filter="url(#f2gey2y14nctn)" height="437.0625" style="stroke:#A80036;stroke-width:1.0;" width="10" x="402" y="201.8281"/><rect fill="#FFFFFF" filter="url(#f2gey2y14nctn)" height="152.2656" style="stroke:#A80036;stroke-width:1.0;" width="10" x="505" y="374.4922"/><rect fill="#FFFFFF" filter="url(#f2gey2y14nctn)" height="25" style="stroke:#A80036;stroke-width:1.0;" width="10" x="510" y="411.625"/><rect fill="#FFFFFF" filter="url(#f2gey2y14nctn)" height="25" style="stroke:#A80036;stroke-width:1.0;" width="10" x="510" y="480.7578"/><rect fill="#FFFFFF" filter="url(#f2gey2y14nctn)" height="14" style="stroke:#A80036;stroke-width:1.0;" width="10" x="505" y="596.8906"/><polygon fill="#A80036" points="116.5,115.4297,126.5,119.4297,116.5,123.4297,120.5,119.4297" style="stroke:#A80036;stroke-width:1.0;"/><line style="stroke:#A80036;stroke-width:1.0;" x1="45.5" x2="122.5" y1="119.4297" y2="119.4297"/><text fill="#000000" font-family="sans-serif" font-size="13" lengthAdjust="spacing" textLength="32" x="52.5" y="114.3638">drill()</text><polygon fill="#A80036" points="273.5,144.5625,283.5,148.5625,273.5,152.5625,277.5,148.5625" style="stroke:#A80036;stroke-width:1.0;"/><line style="stroke:#A80036;stroke-width:1.0;" x1="138.5" x2="279.5" y1="148.5625" y2="148.5625"/><text fill="#000000" font-family="sans-serif" font-size="13" lengthAdjust="spacing" textLength="48" x="145.5" y="143.4966">drilled()</text><path d="M81,163.5625 L153,163.5625 L153,170.5625 L143,180.5625 L81,180.5625 L81,163.5625 " fill="#EEEEEE" style="stroke:#000000;stroke-width:1.0;"/><rect fill="none" height="483.3281" style="stroke:#000000;stroke-width:2.0;" width="589" x="81" y="163.5625"/><text fill="#000000" font-family="sans-serif" font-size="13" font-weight="bold" lengthAdjust="spacing" textLength="27" x="96" y="176.6294">opt</text><text fill="#000000" font-family="sans-serif" font-size="11" font-weight="bold" lengthAdjust="spacing" textLength="75" x="168" y="175.7729">[isExposed]</text><polygon fill="#A80036" points="390,197.8281,400,201.8281,390,205.8281,394,201.8281" style="stroke:#A80036;stroke-width:1.0;"/><line style="stroke:#A80036;stroke-width:1.0;" x1="295.5" x2="396" y1="201.8281" y2="201.8281"/><text fill="#000000" font-family="sans-serif" font-size="13" lengthAdjust="spacing" textLength="73" x="302.5" y="196.7622">exposed(a)</text><polygon fill="#A80036" points="311.5,226.9609,301.5,230.9609,311.5,234.9609,307.5,230.9609" style="stroke:#A80036;stroke-width:1.0;"/><line style="stroke:#A80036;stroke-width:1.0;" x1="305.5" x2="401" y1="230.9609" y2="230.9609"/><text fill="#000000" font-family="sans-serif" font-size="13" lengthAdjust="spacing" textLength="61" x="317.5" y="225.895">explode()</text><polygon fill="#A80036" points="154.5,256.0938,144.5,260.0938,154.5,264.0938,150.5,260.0938" style="stroke:#A80036;stroke-width:1.0;"/><line style="stroke:#A80036;stroke-width:1.0;" x1="148.5" x2="289.5" y1="260.0938" y2="260.0938"/><text fill="#000000" font-family="sans-serif" font-size="13" lengthAdjust="spacing" textLength="61" x="160.5" y="255.0278">explode()</text><line style="stroke:#A80036;stroke-width:1.0;" x1="143.5" x2="190.5" y1="284.2266" y2="284.2266"/><line style="stroke:#A80036;stroke-width:1.0;" x1="190.5" x2="190.5" y1="284.2266" y2="297.2266"/><line style="stroke:#A80036;stroke-width:1.0;" x1="149.5" x2="190.5" y1="297.2266" y2="297.2266"/><polygon fill="#A80036" points="159.5,293.2266,149.5,297.2266,159.5,301.2266,155.5,297.2266" style="stroke:#A80036;stroke-width:1.0;"/><text fill="#000000" font-family="sans-serif" font-size="13" lengthAdjust="spacing" textLength="29" x="155.5" y="279.1606">die()</text><polygon fill="#A80036" points="283.5,327.3594,293.5,331.3594,283.5,335.3594,287.5,331.3594" style="stroke:#A80036;stroke-width:1.0;"/><line style="stroke:#A80036;stroke-width:1.0;" x1="148.5" x2="289.5" y1="331.3594" y2="331.3594"/><text fill="#000000" font-family="sans-serif" font-size="13" lengthAdjust="spacing" textLength="113" x="155.5" y="326.2935">removeWorker(s)</text><polygon fill="#A80036" points="159.5,341.3594,149.5,345.3594,159.5,349.3594,155.5,345.3594" style="stroke:#A80036;stroke-width:1.0;"/><line style="stroke:#A80036;stroke-width:1.0;stroke-dasharray:2.0,2.0;" x1="153.5" x2="289.5" y1="345.3594" y2="345.3594"/><polygon fill="#A80036" points="493,370.4922,503,374.4922,493,378.4922,497,374.4922" style="stroke:#A80036;stroke-width:1.0;"/><line style="stroke:#A80036;stroke-width:1.0;" x1="148.5" x2="499" y1="374.4922" y2="374.4922"/><text fill="#000000" font-family="sans-serif" font-size="13" lengthAdjust="spacing" textLength="109" x="155.5" y="369.4263">removeSettler(s)</text><line style="stroke:#A80036;stroke-width:1.0;" x1="515" x2="562" y1="398.625" y2="398.625"/><line style="stroke:#A80036;stroke-width:1.0;" x1="562" x2="562" y1="398.625" y2="411.625"/><line style="stroke:#A80036;stroke-width:1.0;" x1="521" x2="562" y1="411.625" y2="411.625"/><polygon fill="#A80036" points="531,407.625,521,411.625,531,415.625,527,411.625" style="stroke:#A80036;stroke-width:1.0;"/><text fill="#000000" font-family="sans-serif" font-size="13" lengthAdjust="spacing" textLength="131" x="527" y="393.5591">removeSteppable(s)</text><line style="stroke:#A80036;stroke-width:1.0;stroke-dasharray:2.0,2.0;" x1="520" x2="562" y1="435.625" y2="435.625"/><line style="stroke:#A80036;stroke-width:1.0;stroke-dasharray:2.0,2.0;" x1="562" x2="562" y1="435.625" y2="448.625"/><line style="stroke:#A80036;stroke-width:1.0;stroke-dasharray:2.0,2.0;" x1="515" x2="562" y1="448.625" y2="448.625"/><polygon fill="#A80036" points="525,444.625,515,448.625,525,452.625,521,448.625" style="stroke:#A80036;stroke-width:1.0;"/><line style="stroke:#A80036;stroke-width:1.0;" x1="515" x2="562" y1="467.7578" y2="467.7578"/><line style="stroke:#A80036;stroke-width:1.0;" x1="562" x2="562" y1="467.7578" y2="480.7578"/><line style="stroke:#A80036;stroke-width:1.0;" x1="521" x2="562" y1="480.7578" y2="480.7578"/><polygon fill="#A80036" points="531,476.7578,521,480.7578,531,484.7578,527,480.7578" style="stroke:#A80036;stroke-width:1.0;"/><text fill="#000000" font-family="sans-serif" font-size="13" lengthAdjust="spacing" textLength="104" x="527" y="462.6919">endGame(false)</text><line style="stroke:#A80036;stroke-width:1.0;stroke-dasharray:2.0,2.0;" x1="520" x2="562" y1="504.7578" y2="504.7578"/><line style="stroke:#A80036;stroke-width:1.0;stroke-dasharray:2.0,2.0;" x1="562" x2="562" y1="504.7578" y2="517.7578"/><line style="stroke:#A80036;stroke-width:1.0;stroke-dasharray:2.0,2.0;" x1="515" x2="562" y1="517.7578" y2="517.7578"/><polygon fill="#A80036" points="525,513.7578,515,517.7578,525,521.7578,521,517.7578" style="stroke:#A80036;stroke-width:1.0;"/><polygon fill="#A80036" points="159.5,522.7578,149.5,526.7578,159.5,530.7578,155.5,526.7578" style="stroke:#A80036;stroke-width:1.0;"/><line style="stroke:#A80036;stroke-width:1.0;stroke-dasharray:2.0,2.0;" x1="153.5" x2="509" y1="526.7578" y2="526.7578"/><line style="stroke:#A80036;stroke-width:1.0;stroke-dasharray:2.0,2.0;" x1="148.5" x2="190.5" y1="545.7578" y2="545.7578"/><line style="stroke:#A80036;stroke-width:1.0;stroke-dasharray:2.0,2.0;" x1="190.5" x2="190.5" y1="545.7578" y2="558.7578"/><line style="stroke:#A80036;stroke-width:1.0;stroke-dasharray:2.0,2.0;" x1="143.5" x2="190.5" y1="558.7578" y2="558.7578"/><polygon fill="#A80036" points="153.5,554.7578,143.5,558.7578,153.5,562.7578,149.5,558.7578" style="stroke:#A80036;stroke-width:1.0;"/><polygon fill="#A80036" points="278.5,563.7578,288.5,567.7578,278.5,571.7578,282.5,567.7578" style="stroke:#A80036;stroke-width:1.0;"/><line style="stroke:#A80036;stroke-width:1.0;stroke-dasharray:2.0,2.0;" x1="138.5" x2="284.5" y1="567.7578" y2="567.7578"/><polygon fill="#A80036" points="493,592.8906,503,596.8906,493,600.8906,497,596.8906" style="stroke:#A80036;stroke-width:1.0;"/><line style="stroke:#A80036;stroke-width:1.0;" x1="300.5" x2="499" y1="596.8906" y2="596.8906"/><text fill="#000000" font-family="sans-serif" font-size="13" lengthAdjust="spacing" textLength="132" x="307.5" y="591.8247">removeSteppable(a)</text><polygon fill="#A80036" points="311.5,606.8906,301.5,610.8906,311.5,614.8906,307.5,610.8906" style="stroke:#A80036;stroke-width:1.0;"/><line style="stroke:#A80036;stroke-width:1.0;stroke-dasharray:2.0,2.0;" x1="305.5" x2="509" y1="610.8906" y2="610.8906"/><polygon fill="#A80036" points="390,620.8906,400,624.8906,390,628.8906,394,624.8906" style="stroke:#A80036;stroke-width:1.0;"/><line style="stroke:#A80036;stroke-width:1.0;stroke-dasharray:2.0,2.0;" x1="295.5" x2="396" y1="624.8906" y2="624.8906"/><polygon fill="#A80036" points="306.5,634.8906,296.5,638.8906,306.5,642.8906,302.5,638.8906" style="stroke:#A80036;stroke-width:1.0;"/><line style="stroke:#A80036;stroke-width:1.0;stroke-dasharray:2.0,2.0;" x1="300.5" x2="406" y1="638.8906" y2="638.8906"/><polygon fill="#A80036" points="149.5,655.8906,139.5,659.8906,149.5,663.8906,145.5,659.8906" style="stroke:#A80036;stroke-width:1.0;"/><line style="stroke:#A80036;stroke-width:1.0;stroke-dasharray:2.0,2.0;" x1="143.5" x2="289.5" y1="659.8906" y2="659.8906"/><polygon fill="#A80036" points="56.5,669.8906,46.5,673.8906,56.5,677.8906,52.5,673.8906" style="stroke:#A80036;stroke-width:1.0;"/><line style="stroke:#A80036;stroke-width:1.0;stroke-dasharray:2.0,2.0;" x1="50.5" x2="132.5" y1="673.8906" y2="673.8906"/><!--MD5=[11e19836864889d454d993e049f9160a]
@startuml
actor "Skeleton" as player
participant "s: Settler" as s
participant "a: Asteroid" as a
participant "core: Uranium" as core
participant ": Game" as game

player->s ++: drill()
    s->a ++ :drilled()
            opt isExposed
                a->core ++: exposed(a)
                    core->a ++: explode()
                        a->s ++: explode()
                            s->s ++:die()
                                s->a ++: removeWorker(s)
                                return
                            
                                s->game ++:removeSettler(s)
                                    game->game ++:removeSteppable(s)
                                    return
                                    game->game ++:endGame(false)
                                    return
                                return
                            return
                        return
                        
                        a->game ++: removeSteppable(a)
                        return
                    return
                return
            end
        return
return
@enduml

PlantUML version 1.2021.3beta7(Unknown compile time)
(GPL source distribution)
Java Runtime: Java(TM) SE Runtime Environment
JVM: Java HotSpot(TM) 64-Bit Server VM
Default Encoding: UTF-8
Language: en
Country: US
--></g></svg>