<?xml version="1.0" encoding="UTF-8" standalone="no"?><svg xmlns="http://www.w3.org/2000/svg" xmlns:xlink="http://www.w3.org/1999/xlink" contentScriptType="application/ecmascript" contentStyleType="text/css" height="1137px" preserveAspectRatio="none" style="width:2112px;height:1137px;" version="1.1" viewBox="0 0 2112 1137" width="2112px" zoomAndPan="magnify"><defs><filter height="300%" id="f1krop8cgd9c76" width="300%" x="-1" y="-1"><feGaussianBlur result="blurOut" stdDeviation="2.0"/><feColorMatrix in="blurOut" result="blurOut2" type="matrix" values="0 0 0 0 0 0 0 0 0 0 0 0 0 0 0 0 0 0 .4 0"/><feOffset dx="4.0" dy="4.0" in="blurOut2" result="blurOut3"/><feBlend in="SourceGraphic" in2="blurOut3" mode="normal"/></filter></defs><g><rect fill="#FFFFFF" filter="url(#f1krop8cgd9c76)" height="1004.5234" style="stroke:#A80036;stroke-width:1.0;" width="10" x="119.5" y="71.4297"/><rect fill="#FFFFFF" filter="url(#f1krop8cgd9c76)" height="25" style="stroke:#A80036;stroke-width:1.0;" width="10" x="124.5" y="821.2891"/><rect fill="#FFFFFF" filter="url(#f1krop8cgd9c76)" height="25" style="stroke:#A80036;stroke-width:1.0;" width="10" x="124.5" y="897.4219"/><rect fill="#FFFFFF" filter="url(#f1krop8cgd9c76)" height="29.1328" style="stroke:#A80036;stroke-width:1.0;" width="10" x="434.5" y="349.625"/><rect fill="#FFFFFF" filter="url(#f1krop8cgd9c76)" height="29.1328" style="stroke:#A80036;stroke-width:1.0;" width="10" x="434.5" y="407.8906"/><rect fill="#FFFFFF" filter="url(#f1krop8cgd9c76)" height="29.1328" style="stroke:#A80036;stroke-width:1.0;" width="10" x="588" y="571.5547"/><rect fill="#FFFFFF" filter="url(#f1krop8cgd9c76)" height="29.1328" style="stroke:#A80036;stroke-width:1.0;" width="10" x="588" y="697.0859"/><rect fill="#FFFFFF" filter="url(#f1krop8cgd9c76)" height="29.1328" style="stroke:#A80036;stroke-width:1.0;" width="10" x="588" y="982.6875"/><rect fill="#FFFFFF" filter="url(#f1krop8cgd9c76)" height="29.1328" style="stroke:#A80036;stroke-width:1.0;" width="10" x="798.5" y="241.2266"/><rect fill="#FFFFFF" filter="url(#f1krop8cgd9c76)" height="14" style="stroke:#A80036;stroke-width:1.0;" width="10" x="798.5" y="514.4219"/><rect fill="#FFFFFF" filter="url(#f1krop8cgd9c76)" height="14" style="stroke:#A80036;stroke-width:1.0;" width="10" x="1017.5" y="629.8203"/><rect fill="#FFFFFF" filter="url(#f1krop8cgd9c76)" height="14" style="stroke:#A80036;stroke-width:1.0;" width="10" x="1230" y="755.3516"/><rect fill="#FFFFFF" filter="url(#f1krop8cgd9c76)" height="14" style="stroke:#A80036;stroke-width:1.0;" width="10" x="1448" y="1040.9531"/><rect fill="#FFFFFF" filter="url(#f1krop8cgd9c76)" height="29.1328" style="stroke:#A80036;stroke-width:1.0;" width="10" x="1658.5" y="100.5625"/><rect fill="#FFFFFF" filter="url(#f1krop8cgd9c76)" height="29.1328" style="stroke:#A80036;stroke-width:1.0;" width="10" x="1864.5" y="158.8281"/><rect fill="#FFFFFF" filter="url(#f1krop8cgd9c76)" height="14" style="stroke:#A80036;stroke-width:1.0;" width="10" x="2030.5" y="299.4922"/><rect fill="#FFFFFF" filter="url(#f1krop8cgd9c76)" height="118.5313" style="stroke:#000000;stroke-width:2.0;" width="2078.5" x="20" y="202.9609"/><rect fill="#FFFFFF" filter="url(#f1krop8cgd9c76)" height="91.3984" style="stroke:#000000;stroke-width:2.0;" width="920.5" x="10" y="452.0234"/><rect fill="#FFFFFF" filter="url(#f1krop8cgd9c76)" height="60.2656" style="stroke:#000000;stroke-width:2.0;" width="900.5" x="20" y="476.1563"/><rect fill="#FFFFFF" filter="url(#f1krop8cgd9c76)" height="202.4688" style="stroke:#000000;stroke-width:2.0;" width="1325.5" x="20" y="658.8203"/><rect fill="#FFFFFF" height="83.9375" style="stroke:none;stroke-width:1.0;" width="1325.5" x="20" y="777.3516"/><rect fill="#FFFFFF" filter="url(#f1krop8cgd9c76)" height="118.5313" style="stroke:#000000;stroke-width:2.0;" width="1550.5" x="20" y="944.4219"/><line style="stroke:#A80036;stroke-width:1.0;stroke-dasharray:5.0,5.0;" x1="124" x2="124" y1="40.2969" y2="1093.9531"/><line style="stroke:#A80036;stroke-width:1.0;stroke-dasharray:5.0,5.0;" x1="439.5" x2="439.5" y1="40.2969" y2="1093.9531"/><line style="stroke:#A80036;stroke-width:1.0;stroke-dasharray:5.0,5.0;" x1="592.5" x2="592.5" y1="40.2969" y2="1093.9531"/><line style="stroke:#A80036;stroke-width:1.0;stroke-dasharray:5.0,5.0;" x1="803.5" x2="803.5" y1="40.2969" y2="1093.9531"/><line style="stroke:#A80036;stroke-width:1.0;stroke-dasharray:5.0,5.0;" x1="1022.5" x2="1022.5" y1="40.2969" y2="1093.9531"/><line style="stroke:#A80036;stroke-width:1.0;stroke-dasharray:5.0,5.0;" x1="1234.5" x2="1234.5" y1="40.2969" y2="1093.9531"/><line style="stroke:#A80036;stroke-width:1.0;stroke-dasharray:5.0,5.0;" x1="1452.5" x2="1452.5" y1="40.2969" y2="1093.9531"/><line style="stroke:#A80036;stroke-width:1.0;stroke-dasharray:5.0,5.0;" x1="1663.5" x2="1663.5" y1="40.2969" y2="1093.9531"/><line style="stroke:#A80036;stroke-width:1.0;stroke-dasharray:5.0,5.0;" x1="1869.5" x2="1869.5" y1="40.2969" y2="1093.9531"/><line style="stroke:#A80036;stroke-width:1.0;stroke-dasharray:5.0,5.0;" x1="2035.5" x2="2035.5" y1="40.2969" y2="1093.9531"/><rect fill="#FEFECE" filter="url(#f1krop8cgd9c76)" height="30.2969" style="stroke:#A80036;stroke-width:1.5;" width="185" x="30" y="5"/><text fill="#000000" font-family="sans-serif" font-size="14" lengthAdjust="spacing" textLength="171" x="37" y="24.9951">afp : AsteroidFieldPanel</text><rect fill="#FEFECE" filter="url(#f1krop8cgd9c76)" height="30.2969" style="stroke:#A80036;stroke-width:1.5;" width="185" x="30" y="1092.9531"/><text fill="#000000" font-family="sans-serif" font-size="14" lengthAdjust="spacing" textLength="171" x="37" y="1112.9482">afp : AsteroidFieldPanel</text><rect fill="#FEFECE" filter="url(#f1krop8cgd9c76)" height="30.2969" style="stroke:#A80036;stroke-width:1.5;" width="96" x="389.5" y="5"/><text fill="#000000" font-family="sans-serif" font-size="14" lengthAdjust="spacing" textLength="82" x="396.5" y="24.9951">a : Asteroid</text><rect fill="#FEFECE" filter="url(#f1krop8cgd9c76)" height="30.2969" style="stroke:#A80036;stroke-width:1.5;" width="96" x="389.5" y="1092.9531"/><text fill="#000000" font-family="sans-serif" font-size="14" lengthAdjust="spacing" textLength="82" x="396.5" y="1112.9482">a : Asteroid</text><rect fill="#FEFECE" filter="url(#f1krop8cgd9c76)" height="30.2969" style="stroke:#A80036;stroke-width:1.5;" width="183" x="499.5" y="5"/><text fill="#000000" font-family="sans-serif" font-size="14" lengthAdjust="spacing" textLength="165" x="510.5" y="24.9951">: ViewControlDatabase</text><rect fill="#FEFECE" filter="url(#f1krop8cgd9c76)" height="30.2969" style="stroke:#A80036;stroke-width:1.5;" width="183" x="499.5" y="1092.9531"/><text fill="#000000" font-family="sans-serif" font-size="14" lengthAdjust="spacing" textLength="165" x="510.5" y="1112.9482">: ViewControlDatabase</text><rect fill="#FEFECE" filter="url(#f1krop8cgd9c76)" height="30.2969" style="stroke:#A80036;stroke-width:1.5;" width="210" x="696.5" y="5"/><text fill="#000000" font-family="sans-serif" font-size="14" lengthAdjust="spacing" textLength="196" x="703.5" y="24.9951">buttonPool : List&lt;JButton&gt;</text><rect fill="#FEFECE" filter="url(#f1krop8cgd9c76)" height="30.2969" style="stroke:#A80036;stroke-width:1.5;" width="210" x="696.5" y="1092.9531"/><text fill="#000000" font-family="sans-serif" font-size="14" lengthAdjust="spacing" textLength="196" x="703.5" y="1112.9482">buttonPool : List&lt;JButton&gt;</text><rect fill="#FEFECE" filter="url(#f1krop8cgd9c76)" height="30.2969" style="stroke:#A80036;stroke-width:1.5;" width="200" x="920.5" y="5"/><text fill="#000000" font-family="sans-serif" font-size="14" lengthAdjust="spacing" textLength="186" x="927.5" y="24.9951">avc : AsteroidViewControl</text><rect fill="#FEFECE" filter="url(#f1krop8cgd9c76)" height="30.2969" style="stroke:#A80036;stroke-width:1.5;" width="200" x="920.5" y="1092.9531"/><text fill="#000000" font-family="sans-serif" font-size="14" lengthAdjust="spacing" textLength="186" x="927.5" y="1112.9482">avc : AsteroidViewControl</text><rect fill="#FEFECE" filter="url(#f1krop8cgd9c76)" height="30.2969" style="stroke:#A80036;stroke-width:1.5;" width="197" x="1134.5" y="5"/><text fill="#000000" font-family="sans-serif" font-size="14" lengthAdjust="spacing" textLength="183" x="1141.5" y="24.9951">cvc : MaterialViewControl</text><rect fill="#FEFECE" filter="url(#f1krop8cgd9c76)" height="30.2969" style="stroke:#A80036;stroke-width:1.5;" width="197" x="1134.5" y="1092.9531"/><text fill="#000000" font-family="sans-serif" font-size="14" lengthAdjust="spacing" textLength="183" x="1141.5" y="1112.9482">cvc : MaterialViewControl</text><rect fill="#FEFECE" filter="url(#f1krop8cgd9c76)" height="30.2969" style="stroke:#A80036;stroke-width:1.5;" width="211" x="1345.5" y="5"/><text fill="#000000" font-family="sans-serif" font-size="14" lengthAdjust="spacing" textLength="197" x="1352.5" y="24.9951">avc_i : AsteroidViewControl</text><rect fill="#FEFECE" filter="url(#f1krop8cgd9c76)" height="30.2969" style="stroke:#A80036;stroke-width:1.5;" width="211" x="1345.5" y="1092.9531"/><text fill="#000000" font-family="sans-serif" font-size="14" lengthAdjust="spacing" textLength="197" x="1352.5" y="1112.9482">avc_i : AsteroidViewControl</text><rect fill="#FEFECE" filter="url(#f1krop8cgd9c76)" height="30.2969" style="stroke:#A80036;stroke-width:1.5;" width="182" x="1570.5" y="5"/><text fill="#000000" font-family="sans-serif" font-size="14" lengthAdjust="spacing" textLength="168" x="1577.5" y="24.9951">currentSettler : Settler</text><rect fill="#FEFECE" filter="url(#f1krop8cgd9c76)" height="30.2969" style="stroke:#A80036;stroke-width:1.5;" width="182" x="1570.5" y="1092.9531"/><text fill="#000000" font-family="sans-serif" font-size="14" lengthAdjust="spacing" textLength="168" x="1577.5" y="1112.9482">currentSettler : Settler</text><rect fill="#FEFECE" filter="url(#f1krop8cgd9c76)" height="30.2969" style="stroke:#A80036;stroke-width:1.5;" width="202" x="1766.5" y="5"/><text fill="#000000" font-family="sans-serif" font-size="14" lengthAdjust="spacing" textLength="188" x="1773.5" y="24.9951">currentAsteroid : Asteroid</text><rect fill="#FEFECE" filter="url(#f1krop8cgd9c76)" height="30.2969" style="stroke:#A80036;stroke-width:1.5;" width="202" x="1766.5" y="1092.9531"/><text fill="#000000" font-family="sans-serif" font-size="14" lengthAdjust="spacing" textLength="188" x="1773.5" y="1112.9482">currentAsteroid : Asteroid</text><rect fill="#FEFECE" filter="url(#f1krop8cgd9c76)" height="30.2969" style="stroke:#A80036;stroke-width:1.5;" width="102" x="1982.5" y="5"/><text fill="#000000" font-family="sans-serif" font-size="14" lengthAdjust="spacing" textLength="88" x="1989.5" y="24.9951">b_i : JButton</text><rect fill="#FEFECE" filter="url(#f1krop8cgd9c76)" height="30.2969" style="stroke:#A80036;stroke-width:1.5;" width="102" x="1982.5" y="1092.9531"/><text fill="#000000" font-family="sans-serif" font-size="14" lengthAdjust="spacing" textLength="88" x="1989.5" y="1112.9482">b_i : JButton</text><rect fill="#FFFFFF" filter="url(#f1krop8cgd9c76)" height="1004.5234" style="stroke:#A80036;stroke-width:1.0;" width="10" x="119.5" y="71.4297"/><rect fill="#FFFFFF" filter="url(#f1krop8cgd9c76)" height="25" style="stroke:#A80036;stroke-width:1.0;" width="10" x="124.5" y="821.2891"/><rect fill="#FFFFFF" filter="url(#f1krop8cgd9c76)" height="25" style="stroke:#A80036;stroke-width:1.0;" width="10" x="124.5" y="897.4219"/><rect fill="#FFFFFF" filter="url(#f1krop8cgd9c76)" height="29.1328" style="stroke:#A80036;stroke-width:1.0;" width="10" x="434.5" y="349.625"/><rect fill="#FFFFFF" filter="url(#f1krop8cgd9c76)" height="29.1328" style="stroke:#A80036;stroke-width:1.0;" width="10" x="434.5" y="407.8906"/><rect fill="#FFFFFF" filter="url(#f1krop8cgd9c76)" height="29.1328" style="stroke:#A80036;stroke-width:1.0;" width="10" x="588" y="571.5547"/><rect fill="#FFFFFF" filter="url(#f1krop8cgd9c76)" height="29.1328" style="stroke:#A80036;stroke-width:1.0;" width="10" x="588" y="697.0859"/><rect fill="#FFFFFF" filter="url(#f1krop8cgd9c76)" height="29.1328" style="stroke:#A80036;stroke-width:1.0;" width="10" x="588" y="982.6875"/><rect fill="#FFFFFF" filter="url(#f1krop8cgd9c76)" height="29.1328" style="stroke:#A80036;stroke-width:1.0;" width="10" x="798.5" y="241.2266"/><rect fill="#FFFFFF" filter="url(#f1krop8cgd9c76)" height="14" style="stroke:#A80036;stroke-width:1.0;" width="10" x="798.5" y="514.4219"/><rect fill="#FFFFFF" filter="url(#f1krop8cgd9c76)" height="14" style="stroke:#A80036;stroke-width:1.0;" width="10" x="1017.5" y="629.8203"/><rect fill="#FFFFFF" filter="url(#f1krop8cgd9c76)" height="14" style="stroke:#A80036;stroke-width:1.0;" width="10" x="1230" y="755.3516"/><rect fill="#FFFFFF" filter="url(#f1krop8cgd9c76)" height="14" style="stroke:#A80036;stroke-width:1.0;" width="10" x="1448" y="1040.9531"/><rect fill="#FFFFFF" filter="url(#f1krop8cgd9c76)" height="29.1328" style="stroke:#A80036;stroke-width:1.0;" width="10" x="1658.5" y="100.5625"/><rect fill="#FFFFFF" filter="url(#f1krop8cgd9c76)" height="29.1328" style="stroke:#A80036;stroke-width:1.0;" width="10" x="1864.5" y="158.8281"/><rect fill="#FFFFFF" filter="url(#f1krop8cgd9c76)" height="14" style="stroke:#A80036;stroke-width:1.0;" width="10" x="2030.5" y="299.4922"/><polygon fill="#A80036" points="107.5,67.4297,117.5,71.4297,107.5,75.4297,111.5,71.4297" style="stroke:#A80036;stroke-width:1.0;"/><line style="stroke:#A80036;stroke-width:1.0;" x1="0" x2="113.5" y1="71.4297" y2="71.4297"/><text fill="#000000" font-family="sans-serif" font-size="13" lengthAdjust="spacing" textLength="63" x="7" y="66.3638">update(a)</text><polygon fill="#A80036" points="1646.5,96.5625,1656.5,100.5625,1646.5,104.5625,1650.5,100.5625" style="stroke:#A80036;stroke-width:1.0;"/><line style="stroke:#A80036;stroke-width:1.0;" x1="129.5" x2="1652.5" y1="100.5625" y2="100.5625"/><text fill="#000000" font-family="sans-serif" font-size="13" lengthAdjust="spacing" textLength="84" x="136.5" y="95.4966">getAsteroid()</text><polygon fill="#A80036" points="140.5,125.6953,130.5,129.6953,140.5,133.6953,136.5,129.6953" style="stroke:#A80036;stroke-width:1.0;"/><line style="stroke:#A80036;stroke-width:1.0;stroke-dasharray:2.0,2.0;" x1="134.5" x2="1662.5" y1="129.6953" y2="129.6953"/><text fill="#000000" font-family="sans-serif" font-size="13" lengthAdjust="spacing" textLength="99" x="146.5" y="124.6294">currentAsteroid</text><polygon fill="#A80036" points="1852.5,154.8281,1862.5,158.8281,1852.5,162.8281,1856.5,158.8281" style="stroke:#A80036;stroke-width:1.0;"/><line style="stroke:#A80036;stroke-width:1.0;" x1="129.5" x2="1858.5" y1="158.8281" y2="158.8281"/><text fill="#000000" font-family="sans-serif" font-size="13" lengthAdjust="spacing" textLength="95" x="136.5" y="153.7622">getNeighbors()</text><polygon fill="#A80036" points="140.5,183.9609,130.5,187.9609,140.5,191.9609,136.5,187.9609" style="stroke:#A80036;stroke-width:1.0;"/><line style="stroke:#A80036;stroke-width:1.0;stroke-dasharray:2.0,2.0;" x1="134.5" x2="1868.5" y1="187.9609" y2="187.9609"/><text fill="#000000" font-family="sans-serif" font-size="13" lengthAdjust="spacing" textLength="110" x="146.5" y="182.895">currentNeighbors</text><path d="M20,202.9609 L98,202.9609 L98,209.9609 L88,219.9609 L20,219.9609 L20,202.9609 " fill="#EEEEEE" style="stroke:#000000;stroke-width:1.0;"/><rect fill="none" height="118.5313" style="stroke:#000000;stroke-width:2.0;" width="2078.5" x="20" y="202.9609"/><text fill="#000000" font-family="sans-serif" font-size="13" font-weight="bold" lengthAdjust="spacing" textLength="33" x="35" y="216.0278">loop</text><text fill="#000000" font-family="sans-serif" font-size="11" font-weight="bold" lengthAdjust="spacing" textLength="247" x="113" y="215.1714">[for i: 0..currentNeighbors.size() + 1]</text><polygon fill="#A80036" points="786.5,237.2266,796.5,241.2266,786.5,245.2266,790.5,241.2266" style="stroke:#A80036;stroke-width:1.0;"/><line style="stroke:#A80036;stroke-width:1.0;" x1="129.5" x2="792.5" y1="241.2266" y2="241.2266"/><text fill="#000000" font-family="sans-serif" font-size="13" lengthAdjust="spacing" textLength="34" x="136.5" y="236.1606">get(i)</text><polygon fill="#A80036" points="140.5,266.3594,130.5,270.3594,140.5,274.3594,136.5,270.3594" style="stroke:#A80036;stroke-width:1.0;"/><line style="stroke:#A80036;stroke-width:1.0;stroke-dasharray:2.0,2.0;" x1="134.5" x2="802.5" y1="270.3594" y2="270.3594"/><text fill="#000000" font-family="sans-serif" font-size="13" lengthAdjust="spacing" textLength="18" x="146.5" y="265.2935">b_i</text><polygon fill="#A80036" points="2018.5,295.4922,2028.5,299.4922,2018.5,303.4922,2022.5,299.4922" style="stroke:#A80036;stroke-width:1.0;"/><line style="stroke:#A80036;stroke-width:1.0;" x1="129.5" x2="2024.5" y1="299.4922" y2="299.4922"/><text fill="#000000" font-family="sans-serif" font-size="13" lengthAdjust="spacing" textLength="112" x="136.5" y="294.4263">setEnabled(false)</text><polygon fill="#A80036" points="140.5,309.4922,130.5,313.4922,140.5,317.4922,136.5,313.4922" style="stroke:#A80036;stroke-width:1.0;"/><line style="stroke:#A80036;stroke-width:1.0;stroke-dasharray:2.0,2.0;" x1="134.5" x2="2034.5" y1="313.4922" y2="313.4922"/><polygon fill="#A80036" points="422.5,345.625,432.5,349.625,422.5,353.625,426.5,349.625" style="stroke:#A80036;stroke-width:1.0;"/><line style="stroke:#A80036;stroke-width:1.0;" x1="129.5" x2="428.5" y1="349.625" y2="349.625"/><text fill="#000000" font-family="sans-serif" font-size="13" lengthAdjust="spacing" textLength="85" x="136.5" y="344.5591">getNeighbors</text><polygon fill="#A80036" points="140.5,374.7578,130.5,378.7578,140.5,382.7578,136.5,378.7578" style="stroke:#A80036;stroke-width:1.0;"/><line style="stroke:#A80036;stroke-width:1.0;stroke-dasharray:2.0,2.0;" x1="134.5" x2="438.5" y1="378.7578" y2="378.7578"/><text fill="#000000" font-family="sans-serif" font-size="13" lengthAdjust="spacing" textLength="63" x="146.5" y="373.6919">neighbors</text><polygon fill="#A80036" points="422.5,403.8906,432.5,407.8906,422.5,411.8906,426.5,407.8906" style="stroke:#A80036;stroke-width:1.0;"/><line style="stroke:#A80036;stroke-width:1.0;" x1="129.5" x2="428.5" y1="407.8906" y2="407.8906"/><text fill="#000000" font-family="sans-serif" font-size="13" lengthAdjust="spacing" textLength="61" x="136.5" y="402.8247">getCore()</text><polygon fill="#A80036" points="140.5,433.0234,130.5,437.0234,140.5,441.0234,136.5,437.0234" style="stroke:#A80036;stroke-width:1.0;"/><line style="stroke:#A80036;stroke-width:1.0;stroke-dasharray:2.0,2.0;" x1="134.5" x2="438.5" y1="437.0234" y2="437.0234"/><text fill="#000000" font-family="sans-serif" font-size="13" lengthAdjust="spacing" textLength="28" x="146.5" y="431.9575">core</text><path d="M10,452.0234 L82,452.0234 L82,459.0234 L72,469.0234 L10,469.0234 L10,452.0234 " fill="#EEEEEE" style="stroke:#000000;stroke-width:1.0;"/><rect fill="none" height="91.3984" style="stroke:#000000;stroke-width:2.0;" width="920.5" x="10" y="452.0234"/><text fill="#000000" font-family="sans-serif" font-size="13" font-weight="bold" lengthAdjust="spacing" textLength="27" x="25" y="465.0903">opt</text><text fill="#000000" font-family="sans-serif" font-size="11" font-weight="bold" lengthAdjust="spacing" textLength="276" x="97" y="464.2339">[neighbors.size() + 2 &gt; buttonPool.size()]</text><path d="M20,476.1563 L98,476.1563 L98,483.1563 L88,493.1563 L20,493.1563 L20,476.1563 " fill="#EEEEEE" style="stroke:#000000;stroke-width:1.0;"/><rect fill="none" height="60.2656" style="stroke:#000000;stroke-width:2.0;" width="900.5" x="20" y="476.1563"/><text fill="#000000" font-family="sans-serif" font-size="13" font-weight="bold" lengthAdjust="spacing" textLength="33" x="35" y="489.2231">loop</text><text fill="#000000" font-family="sans-serif" font-size="11" font-weight="bold" lengthAdjust="spacing" textLength="324" x="113" y="488.3667">[(neighbors.size() + 2 - buttonPool.size()) times]</text><polygon fill="#A80036" points="786.5,510.4219,796.5,514.4219,786.5,518.4219,790.5,514.4219" style="stroke:#A80036;stroke-width:1.0;"/><line style="stroke:#A80036;stroke-width:1.0;" x1="129.5" x2="792.5" y1="514.4219" y2="514.4219"/><text fill="#000000" font-family="sans-serif" font-size="13" lengthAdjust="spacing" textLength="121" x="136.5" y="509.356">add(new JButton())</text><polygon fill="#A80036" points="140.5,524.4219,130.5,528.4219,140.5,532.4219,136.5,528.4219" style="stroke:#A80036;stroke-width:1.0;"/><line style="stroke:#A80036;stroke-width:1.0;stroke-dasharray:2.0,2.0;" x1="134.5" x2="802.5" y1="528.4219" y2="528.4219"/><polygon fill="#A80036" points="576,567.5547,586,571.5547,576,575.5547,580,571.5547" style="stroke:#A80036;stroke-width:1.0;"/><line style="stroke:#A80036;stroke-width:1.0;" x1="129.5" x2="582" y1="571.5547" y2="571.5547"/><text fill="#000000" font-family="sans-serif" font-size="13" lengthAdjust="spacing" textLength="169" x="136.5" y="566.4888">getAsteroidViewControl(a)</text><polygon fill="#A80036" points="140.5,596.6875,130.5,600.6875,140.5,604.6875,136.5,600.6875" style="stroke:#A80036;stroke-width:1.0;"/><line style="stroke:#A80036;stroke-width:1.0;stroke-dasharray:2.0,2.0;" x1="134.5" x2="592" y1="600.6875" y2="600.6875"/><text fill="#000000" font-family="sans-serif" font-size="13" lengthAdjust="spacing" textLength="23" x="146.5" y="595.6216">avc</text><polygon fill="#A80036" points="1005.5,625.8203,1015.5,629.8203,1005.5,633.8203,1009.5,629.8203" style="stroke:#A80036;stroke-width:1.0;"/><line style="stroke:#A80036;stroke-width:1.0;" x1="129.5" x2="1011.5" y1="629.8203" y2="629.8203"/><text fill="#000000" font-family="sans-serif" font-size="13" lengthAdjust="spacing" textLength="154" x="136.5" y="624.7544">draw(buttonPool.get(0))</text><polygon fill="#A80036" points="140.5,639.8203,130.5,643.8203,140.5,647.8203,136.5,643.8203" style="stroke:#A80036;stroke-width:1.0;"/><line style="stroke:#A80036;stroke-width:1.0;stroke-dasharray:2.0,2.0;" x1="134.5" x2="1021.5" y1="643.8203" y2="643.8203"/><path d="M20,658.8203 L86,658.8203 L86,665.8203 L76,675.8203 L20,675.8203 L20,658.8203 " fill="#EEEEEE" style="stroke:#000000;stroke-width:1.0;"/><rect fill="none" height="202.4688" style="stroke:#000000;stroke-width:2.0;" width="1325.5" x="20" y="658.8203"/><text fill="#000000" font-family="sans-serif" font-size="13" font-weight="bold" lengthAdjust="spacing" textLength="21" x="35" y="671.8872">alt</text><text fill="#000000" font-family="sans-serif" font-size="11" font-weight="bold" lengthAdjust="spacing" textLength="96" x="101" y="671.0308">[core not null]</text><polygon fill="#A80036" points="576,693.0859,586,697.0859,576,701.0859,580,697.0859" style="stroke:#A80036;stroke-width:1.0;"/><line style="stroke:#A80036;stroke-width:1.0;" x1="129.5" x2="582" y1="697.0859" y2="697.0859"/><text fill="#000000" font-family="sans-serif" font-size="13" lengthAdjust="spacing" textLength="186" x="136.5" y="692.02">getMaterialViewControl(core)</text><polygon fill="#A80036" points="140.5,722.2188,130.5,726.2188,140.5,730.2188,136.5,726.2188" style="stroke:#A80036;stroke-width:1.0;"/><line style="stroke:#A80036;stroke-width:1.0;stroke-dasharray:2.0,2.0;" x1="134.5" x2="592" y1="726.2188" y2="726.2188"/><text fill="#000000" font-family="sans-serif" font-size="13" lengthAdjust="spacing" textLength="22" x="146.5" y="721.1528">cvc</text><polygon fill="#A80036" points="1218,751.3516,1228,755.3516,1218,759.3516,1222,755.3516" style="stroke:#A80036;stroke-width:1.0;"/><line style="stroke:#A80036;stroke-width:1.0;" x1="129.5" x2="1224" y1="755.3516" y2="755.3516"/><text fill="#000000" font-family="sans-serif" font-size="13" lengthAdjust="spacing" textLength="154" x="136.5" y="750.2856">draw(buttonPool.get(1))</text><polygon fill="#A80036" points="140.5,765.3516,130.5,769.3516,140.5,773.3516,136.5,769.3516" style="stroke:#A80036;stroke-width:1.0;"/><line style="stroke:#A80036;stroke-width:1.0;stroke-dasharray:2.0,2.0;" x1="134.5" x2="1234" y1="769.3516" y2="769.3516"/><line style="stroke:#000000;stroke-width:1.0;stroke-dasharray:2.0,2.0;" x1="20" x2="1345.5" y1="778.3516" y2="778.3516"/><text fill="#000000" font-family="sans-serif" font-size="11" font-weight="bold" lengthAdjust="spacing" textLength="37" x="25" y="788.562">[else]</text><line style="stroke:#A80036;stroke-width:1.0;" x1="129.5" x2="176.5" y1="808.2891" y2="808.2891"/><line style="stroke:#A80036;stroke-width:1.0;" x1="176.5" x2="176.5" y1="808.2891" y2="821.2891"/><line style="stroke:#A80036;stroke-width:1.0;" x1="135.5" x2="176.5" y1="821.2891" y2="821.2891"/><polygon fill="#A80036" points="145.5,817.2891,135.5,821.2891,145.5,825.2891,141.5,821.2891" style="stroke:#A80036;stroke-width:1.0;"/><text fill="#000000" font-family="sans-serif" font-size="13" lengthAdjust="spacing" textLength="291" x="141.5" y="803.2231">make buttonPool.get(1) black and unclickable</text><line style="stroke:#A80036;stroke-width:1.0;stroke-dasharray:2.0,2.0;" x1="134.5" x2="176.5" y1="845.2891" y2="845.2891"/><line style="stroke:#A80036;stroke-width:1.0;stroke-dasharray:2.0,2.0;" x1="176.5" x2="176.5" y1="845.2891" y2="858.2891"/><line style="stroke:#A80036;stroke-width:1.0;stroke-dasharray:2.0,2.0;" x1="129.5" x2="176.5" y1="858.2891" y2="858.2891"/><polygon fill="#A80036" points="139.5,854.2891,129.5,858.2891,139.5,862.2891,135.5,858.2891" style="stroke:#A80036;stroke-width:1.0;"/><line style="stroke:#A80036;stroke-width:1.0;" x1="129.5" x2="176.5" y1="884.4219" y2="884.4219"/><line style="stroke:#A80036;stroke-width:1.0;" x1="176.5" x2="176.5" y1="884.4219" y2="897.4219"/><line style="stroke:#A80036;stroke-width:1.0;" x1="135.5" x2="176.5" y1="897.4219" y2="897.4219"/><polygon fill="#A80036" points="145.5,893.4219,135.5,897.4219,145.5,901.4219,141.5,897.4219" style="stroke:#A80036;stroke-width:1.0;"/><text fill="#000000" font-family="sans-serif" font-size="13" lengthAdjust="spacing" textLength="227" x="141.5" y="879.356">arrange neighbor buttons in a circle</text><line style="stroke:#A80036;stroke-width:1.0;stroke-dasharray:2.0,2.0;" x1="134.5" x2="176.5" y1="921.4219" y2="921.4219"/><line style="stroke:#A80036;stroke-width:1.0;stroke-dasharray:2.0,2.0;" x1="176.5" x2="176.5" y1="921.4219" y2="934.4219"/><line style="stroke:#A80036;stroke-width:1.0;stroke-dasharray:2.0,2.0;" x1="129.5" x2="176.5" y1="934.4219" y2="934.4219"/><polygon fill="#A80036" points="139.5,930.4219,129.5,934.4219,139.5,938.4219,135.5,934.4219" style="stroke:#A80036;stroke-width:1.0;"/><path d="M20,944.4219 L98,944.4219 L98,951.4219 L88,961.4219 L20,961.4219 L20,944.4219 " fill="#EEEEEE" style="stroke:#000000;stroke-width:1.0;"/><rect fill="none" height="118.5313" style="stroke:#000000;stroke-width:2.0;" width="1550.5" x="20" y="944.4219"/><text fill="#000000" font-family="sans-serif" font-size="13" font-weight="bold" lengthAdjust="spacing" textLength="33" x="35" y="957.4888">loop</text><text fill="#000000" font-family="sans-serif" font-size="11" font-weight="bold" lengthAdjust="spacing" textLength="195" x="113" y="956.6323">[for i: 2..neighbors.size() + 1]</text><polygon fill="#A80036" points="576,978.6875,586,982.6875,576,986.6875,580,982.6875" style="stroke:#A80036;stroke-width:1.0;"/><line style="stroke:#A80036;stroke-width:1.0;" x1="129.5" x2="582" y1="982.6875" y2="982.6875"/><text fill="#000000" font-family="sans-serif" font-size="13" lengthAdjust="spacing" textLength="262" x="136.5" y="977.6216">getAsteroidViewControl(neighbors.get(i))</text><polygon fill="#A80036" points="140.5,1007.8203,130.5,1011.8203,140.5,1015.8203,136.5,1011.8203" style="stroke:#A80036;stroke-width:1.0;"/><line style="stroke:#A80036;stroke-width:1.0;stroke-dasharray:2.0,2.0;" x1="134.5" x2="592" y1="1011.8203" y2="1011.8203"/><text fill="#000000" font-family="sans-serif" font-size="13" lengthAdjust="spacing" textLength="33" x="146.5" y="1006.7544">avc_i</text><polygon fill="#A80036" points="1436,1036.9531,1446,1040.9531,1436,1044.9531,1440,1040.9531" style="stroke:#A80036;stroke-width:1.0;"/><line style="stroke:#A80036;stroke-width:1.0;" x1="129.5" x2="1442" y1="1040.9531" y2="1040.9531"/><text fill="#000000" font-family="sans-serif" font-size="13" lengthAdjust="spacing" textLength="149" x="136.5" y="1035.8872">draw(buttonPool.get(i))</text><polygon fill="#A80036" points="140.5,1050.9531,130.5,1054.9531,140.5,1058.9531,136.5,1054.9531" style="stroke:#A80036;stroke-width:1.0;"/><line style="stroke:#A80036;stroke-width:1.0;stroke-dasharray:2.0,2.0;" x1="134.5" x2="1452" y1="1054.9531" y2="1054.9531"/><polygon fill="#A80036" points="11,1071.9531,1,1075.9531,11,1079.9531,7,1075.9531" style="stroke:#A80036;stroke-width:1.0;"/><line style="stroke:#A80036;stroke-width:1.0;stroke-dasharray:2.0,2.0;" x1="5" x2="123.5" y1="1075.9531" y2="1075.9531"/><!--MD5=[e754ada044731289666472787a13f8f6]
@startuml
participant "afp : AsteroidFieldPanel" as afp
participant "a : Asteroid" as a
participant " : ViewControlDatabase" as vcDatBase

participant "buttonPool : List<JButton>" as buttonPool
participant "b_i : JButton" as buttonPool

participant "avc : AsteroidViewControl" as avc
participant "cvc : MaterialViewControl" as cvc
participant "avc_i : AsteroidViewControl" as avc_i

participant "currentSettler : Settler" as currentSettler
participant "currentAsteroid : Asteroid" as currentAsteroid
participant "b_i : JButton" as b_i


[->afp ++: update(a)
    afp->currentSettler ++: getAsteroid()
    return currentAsteroid
    afp->currentAsteroid ++:getNeighbors()
    return currentNeighbors
    
    loop for i: 0..currentNeighbors.size() + 1
        afp->buttonPool ++:get(i)
        return b_i
        afp->b_i ++: setEnabled(false)
        return
    end

    afp-> a++: getNeighbors
    return neighbors
    afp-> a++: getCore() 
    return core
    
    opt neighbors.size() + 2 > buttonPool.size()
        loop (neighbors.size() + 2 - buttonPool.size()) times
            afp->buttonPool ++: add(new JButton())
            return
        end
    end
    
    afp->vcDatBase ++: getAsteroidViewControl(a)
    return avc
    afp->avc ++: draw(buttonPool.get(0))
    return
    
    alt core not null
        afp->vcDatBase ++: getMaterialViewControl(core)
        return cvc
        afp->cvc ++: draw(buttonPool.get(1))
        return
    else else
        afp->afp ++: make buttonPool.get(1) black and unclickable
        return
    end
    
    afp->afp ++: arrange neighbor buttons in a circle
    return
    
    loop for i: 2..neighbors.size() + 1
        afp->vcDatBase ++: getAsteroidViewControl(neighbors.get(i))
        return avc_i
        
        afp-> avc_i ++: draw(buttonPool.get(i))
        return
    end
    
    
    
return
@enduml

PlantUML version 1.2021.5beta3(Unknown compile time)
(GPL source distribution)
Java Runtime: Java(TM) SE Runtime Environment
JVM: Java HotSpot(TM) 64-Bit Server VM
Default Encoding: UTF-8
Language: en
Country: US
--></g></svg>