<?xml version="1.0" encoding="UTF-8" standalone="no"?><svg xmlns="http://www.w3.org/2000/svg" xmlns:xlink="http://www.w3.org/1999/xlink" contentScriptType="application/ecmascript" contentStyleType="text/css" height="334px" preserveAspectRatio="none" style="width:651px;height:334px;" version="1.1" viewBox="0 0 651 334" width="651px" zoomAndPan="magnify"><defs><filter height="300%" id="feahqu2w7hye1" width="300%" x="-1" y="-1"><feGaussianBlur result="blurOut" stdDeviation="2.0"/><feColorMatrix in="blurOut" result="blurOut2" type="matrix" values="0 0 0 0 0 0 0 0 0 0 0 0 0 0 0 0 0 0 .4 0"/><feOffset dx="4.0" dy="4.0" in="blurOut2" result="blurOut3"/><feBlend in="SourceGraphic" in2="blurOut3" mode="normal"/></filter></defs><g><rect fill="#FFFFFF" filter="url(#feahqu2w7hye1)" height="201.6641" style="stroke:#A80036;stroke-width:1.0;" width="10" x="102" y="71.4297"/><rect fill="#FFFFFF" filter="url(#feahqu2w7hye1)" height="14" style="stroke:#A80036;stroke-width:1.0;" width="10" x="405" y="100.5625"/><rect fill="#FFFFFF" filter="url(#feahqu2w7hye1)" height="14" style="stroke:#A80036;stroke-width:1.0;" width="10" x="405" y="143.6953"/><rect fill="#FFFFFF" filter="url(#feahqu2w7hye1)" height="14" style="stroke:#A80036;stroke-width:1.0;" width="10" x="405" y="245.0938"/><rect fill="#FFFFFF" filter="url(#feahqu2w7hye1)" height="29.1328" style="stroke:#A80036;stroke-width:1.0;" width="10" x="550.5" y="186.8281"/><line style="stroke:#A80036;stroke-width:1.0;stroke-dasharray:5.0,5.0;" x1="107" x2="107" y1="40.2969" y2="291.0938"/><line style="stroke:#A80036;stroke-width:1.0;stroke-dasharray:5.0,5.0;" x1="409.5" x2="409.5" y1="40.2969" y2="291.0938"/><line style="stroke:#A80036;stroke-width:1.0;stroke-dasharray:5.0,5.0;" x1="555.5" x2="555.5" y1="40.2969" y2="291.0938"/><rect fill="#FEFECE" filter="url(#feahqu2w7hye1)" height="30.2969" style="stroke:#A80036;stroke-width:1.5;" width="200" x="5" y="5"/><text fill="#000000" font-family="sans-serif" font-size="14" lengthAdjust="spacing" textLength="186" x="12" y="24.9951">avc : AsteroidViewControl</text><rect fill="#FEFECE" filter="url(#feahqu2w7hye1)" height="30.2969" style="stroke:#A80036;stroke-width:1.5;" width="200" x="5" y="290.0938"/><text fill="#000000" font-family="sans-serif" font-size="14" lengthAdjust="spacing" textLength="186" x="12" y="310.0889">avc : AsteroidViewControl</text><rect fill="#FEFECE" filter="url(#feahqu2w7hye1)" height="30.2969" style="stroke:#A80036;stroke-width:1.5;" width="95" x="360.5" y="5"/><text fill="#000000" font-family="sans-serif" font-size="14" lengthAdjust="spacing" textLength="81" x="367.5" y="24.9951">jb : JButton</text><rect fill="#FEFECE" filter="url(#feahqu2w7hye1)" height="30.2969" style="stroke:#A80036;stroke-width:1.5;" width="95" x="360.5" y="290.0938"/><text fill="#000000" font-family="sans-serif" font-size="14" lengthAdjust="spacing" textLength="81" x="367.5" y="310.0889">jb : JButton</text><rect fill="#FEFECE" filter="url(#feahqu2w7hye1)" height="30.2969" style="stroke:#A80036;stroke-width:1.5;" width="168" x="469.5" y="5"/><text fill="#000000" font-family="sans-serif" font-size="14" lengthAdjust="spacing" textLength="150" x="480.5" y="24.9951">: CommandDatabase</text><rect fill="#FEFECE" filter="url(#feahqu2w7hye1)" height="30.2969" style="stroke:#A80036;stroke-width:1.5;" width="168" x="469.5" y="290.0938"/><text fill="#000000" font-family="sans-serif" font-size="14" lengthAdjust="spacing" textLength="150" x="480.5" y="310.0889">: CommandDatabase</text><rect fill="#FFFFFF" filter="url(#feahqu2w7hye1)" height="201.6641" style="stroke:#A80036;stroke-width:1.0;" width="10" x="102" y="71.4297"/><rect fill="#FFFFFF" filter="url(#feahqu2w7hye1)" height="14" style="stroke:#A80036;stroke-width:1.0;" width="10" x="405" y="100.5625"/><rect fill="#FFFFFF" filter="url(#feahqu2w7hye1)" height="14" style="stroke:#A80036;stroke-width:1.0;" width="10" x="405" y="143.6953"/><rect fill="#FFFFFF" filter="url(#feahqu2w7hye1)" height="14" style="stroke:#A80036;stroke-width:1.0;" width="10" x="405" y="245.0938"/><rect fill="#FFFFFF" filter="url(#feahqu2w7hye1)" height="29.1328" style="stroke:#A80036;stroke-width:1.0;" width="10" x="550.5" y="186.8281"/><polygon fill="#A80036" points="90,67.4297,100,71.4297,90,75.4297,94,71.4297" style="stroke:#A80036;stroke-width:1.0;"/><line style="stroke:#A80036;stroke-width:1.0;" x1="0" x2="96" y1="71.4297" y2="71.4297"/><text fill="#000000" font-family="sans-serif" font-size="13" lengthAdjust="spacing" textLength="53" x="7" y="66.3638">draw(jb)</text><polygon fill="#A80036" points="393,96.5625,403,100.5625,393,104.5625,397,100.5625" style="stroke:#A80036;stroke-width:1.0;"/><line style="stroke:#A80036;stroke-width:1.0;" x1="112" x2="399" y1="100.5625" y2="100.5625"/><text fill="#000000" font-family="sans-serif" font-size="13" lengthAdjust="spacing" textLength="107" x="119" y="95.4966">setEnabled(true)</text><polygon fill="#A80036" points="123,110.5625,113,114.5625,123,118.5625,119,114.5625" style="stroke:#A80036;stroke-width:1.0;"/><line style="stroke:#A80036;stroke-width:1.0;stroke-dasharray:2.0,2.0;" x1="117" x2="409" y1="114.5625" y2="114.5625"/><polygon fill="#A80036" points="393,139.6953,403,143.6953,393,147.6953,397,143.6953" style="stroke:#A80036;stroke-width:1.0;"/><line style="stroke:#A80036;stroke-width:1.0;" x1="112" x2="399" y1="143.6953" y2="143.6953"/><text fill="#000000" font-family="sans-serif" font-size="13" lengthAdjust="spacing" textLength="148" x="119" y="138.6294">setIcon(asteroidImage)</text><polygon fill="#A80036" points="123,153.6953,113,157.6953,123,161.6953,119,157.6953" style="stroke:#A80036;stroke-width:1.0;"/><line style="stroke:#A80036;stroke-width:1.0;stroke-dasharray:2.0,2.0;" x1="117" x2="409" y1="157.6953" y2="157.6953"/><polygon fill="#A80036" points="538.5,182.8281,548.5,186.8281,538.5,190.8281,542.5,186.8281" style="stroke:#A80036;stroke-width:1.0;"/><line style="stroke:#A80036;stroke-width:1.0;" x1="112" x2="544.5" y1="186.8281" y2="186.8281"/><text fill="#000000" font-family="sans-serif" font-size="13" lengthAdjust="spacing" textLength="149" x="119" y="181.7622">getAsteroidID(asteroid)</text><polygon fill="#A80036" points="123,211.9609,113,215.9609,123,219.9609,119,215.9609" style="stroke:#A80036;stroke-width:1.0;"/><line style="stroke:#A80036;stroke-width:1.0;stroke-dasharray:2.0,2.0;" x1="117" x2="554.5" y1="215.9609" y2="215.9609"/><text fill="#000000" font-family="sans-serif" font-size="13" lengthAdjust="spacing" textLength="65" x="129" y="210.895">asteroidID</text><polygon fill="#A80036" points="393,241.0938,403,245.0938,393,249.0938,397,245.0938" style="stroke:#A80036;stroke-width:1.0;"/><line style="stroke:#A80036;stroke-width:1.0;" x1="112" x2="399" y1="245.0938" y2="245.0938"/><text fill="#000000" font-family="sans-serif" font-size="13" lengthAdjust="spacing" textLength="274" x="119" y="240.0278">setActionCommand("move_" + asteroidID)</text><polygon fill="#A80036" points="123,255.0938,113,259.0938,123,263.0938,119,259.0938" style="stroke:#A80036;stroke-width:1.0;"/><line style="stroke:#A80036;stroke-width:1.0;stroke-dasharray:2.0,2.0;" x1="117" x2="409" y1="259.0938" y2="259.0938"/><polygon fill="#A80036" points="11,269.0938,1,273.0938,11,277.0938,7,273.0938" style="stroke:#A80036;stroke-width:1.0;"/><line style="stroke:#A80036;stroke-width:1.0;stroke-dasharray:2.0,2.0;" x1="5" x2="106" y1="273.0938" y2="273.0938"/><!--MD5=[94b84dbc5cbd11867f1df062afe055bf]
@startuml
participant "avc : AsteroidViewControl" as avc
participant "jb : JButton" as jb
participant " : CommandDatabase" as cmdDatBase

[->avc ++:draw(jb)
    avc-> jb++:setEnabled(true)
    return
   
    avc-> jb ++:setIcon(asteroidImage)
    return
     avc->cmdDatBase ++: getAsteroidID(asteroid)
    return asteroidID
    avc-> jb ++:setActionCommand("move_" + asteroidID)
    return
    
    
return
@enduml

PlantUML version 1.2021.5beta3(Unknown compile time)
(GPL source distribution)
Java Runtime: Java(TM) SE Runtime Environment
JVM: Java HotSpot(TM) 64-Bit Server VM
Default Encoding: UTF-8
Language: en
Country: US
--></g></svg>