<?xml version="1.0" encoding="UTF-8" standalone="no"?><svg xmlns="http://www.w3.org/2000/svg" xmlns:xlink="http://www.w3.org/1999/xlink" contentScriptType="application/ecmascript" contentStyleType="text/css" height="334px" preserveAspectRatio="none" style="width:690px;height:334px;" version="1.1" viewBox="0 0 690 334" width="690px" zoomAndPan="magnify"><defs><filter height="300%" id="fsspkepd3ypqv" width="300%" x="-1" y="-1"><feGaussianBlur result="blurOut" stdDeviation="2.0"/><feColorMatrix in="blurOut" result="blurOut2" type="matrix" values="0 0 0 0 0 0 0 0 0 0 0 0 0 0 0 0 0 0 .4 0"/><feOffset dx="4.0" dy="4.0" in="blurOut2" result="blurOut3"/><feBlend in="SourceGraphic" in2="blurOut3" mode="normal"/></filter></defs><g><rect fill="#FFFFFF" filter="url(#fsspkepd3ypqv)" height="201.6641" style="stroke:#A80036;stroke-width:1.0;" width="10" x="117" y="71.4297"/><rect fill="#FFFFFF" filter="url(#fsspkepd3ypqv)" height="14" style="stroke:#A80036;stroke-width:1.0;" width="10" x="444" y="100.5625"/><rect fill="#FFFFFF" filter="url(#fsspkepd3ypqv)" height="14" style="stroke:#A80036;stroke-width:1.0;" width="10" x="444" y="143.6953"/><rect fill="#FFFFFF" filter="url(#fsspkepd3ypqv)" height="14" style="stroke:#A80036;stroke-width:1.0;" width="10" x="444" y="245.0938"/><rect fill="#FFFFFF" filter="url(#fsspkepd3ypqv)" height="29.1328" style="stroke:#A80036;stroke-width:1.0;" width="10" x="589.5" y="186.8281"/><line style="stroke:#A80036;stroke-width:1.0;stroke-dasharray:5.0,5.0;" x1="121.5" x2="121.5" y1="40.2969" y2="291.0938"/><line style="stroke:#A80036;stroke-width:1.0;stroke-dasharray:5.0,5.0;" x1="448.5" x2="448.5" y1="40.2969" y2="291.0938"/><line style="stroke:#A80036;stroke-width:1.0;stroke-dasharray:5.0,5.0;" x1="594.5" x2="594.5" y1="40.2969" y2="291.0938"/><rect fill="#FEFECE" filter="url(#fsspkepd3ypqv)" height="30.2969" style="stroke:#A80036;stroke-width:1.5;" width="203" x="18.5" y="5"/><text fill="#000000" font-family="sans-serif" font-size="14" lengthAdjust="spacing" textLength="189" x="25.5" y="24.9951">mvc : MaterialViewControl</text><rect fill="#FEFECE" filter="url(#fsspkepd3ypqv)" height="30.2969" style="stroke:#A80036;stroke-width:1.5;" width="203" x="18.5" y="290.0938"/><text fill="#000000" font-family="sans-serif" font-size="14" lengthAdjust="spacing" textLength="189" x="25.5" y="310.0889">mvc : MaterialViewControl</text><rect fill="#FEFECE" filter="url(#fsspkepd3ypqv)" height="30.2969" style="stroke:#A80036;stroke-width:1.5;" width="95" x="399.5" y="5"/><text fill="#000000" font-family="sans-serif" font-size="14" lengthAdjust="spacing" textLength="81" x="406.5" y="24.9951">jb : JButton</text><rect fill="#FEFECE" filter="url(#fsspkepd3ypqv)" height="30.2969" style="stroke:#A80036;stroke-width:1.5;" width="95" x="399.5" y="290.0938"/><text fill="#000000" font-family="sans-serif" font-size="14" lengthAdjust="spacing" textLength="81" x="406.5" y="310.0889">jb : JButton</text><rect fill="#FEFECE" filter="url(#fsspkepd3ypqv)" height="30.2969" style="stroke:#A80036;stroke-width:1.5;" width="168" x="508.5" y="5"/><text fill="#000000" font-family="sans-serif" font-size="14" lengthAdjust="spacing" textLength="150" x="519.5" y="24.9951">: CommandDatabase</text><rect fill="#FEFECE" filter="url(#fsspkepd3ypqv)" height="30.2969" style="stroke:#A80036;stroke-width:1.5;" width="168" x="508.5" y="290.0938"/><text fill="#000000" font-family="sans-serif" font-size="14" lengthAdjust="spacing" textLength="150" x="519.5" y="310.0889">: CommandDatabase</text><rect fill="#FFFFFF" filter="url(#fsspkepd3ypqv)" height="201.6641" style="stroke:#A80036;stroke-width:1.0;" width="10" x="117" y="71.4297"/><rect fill="#FFFFFF" filter="url(#fsspkepd3ypqv)" height="14" style="stroke:#A80036;stroke-width:1.0;" width="10" x="444" y="100.5625"/><rect fill="#FFFFFF" filter="url(#fsspkepd3ypqv)" height="14" style="stroke:#A80036;stroke-width:1.0;" width="10" x="444" y="143.6953"/><rect fill="#FFFFFF" filter="url(#fsspkepd3ypqv)" height="14" style="stroke:#A80036;stroke-width:1.0;" width="10" x="444" y="245.0938"/><rect fill="#FFFFFF" filter="url(#fsspkepd3ypqv)" height="29.1328" style="stroke:#A80036;stroke-width:1.0;" width="10" x="589.5" y="186.8281"/><polygon fill="#A80036" points="105,67.4297,115,71.4297,105,75.4297,109,71.4297" style="stroke:#A80036;stroke-width:1.0;"/><line style="stroke:#A80036;stroke-width:1.0;" x1="0" x2="111" y1="71.4297" y2="71.4297"/><text fill="#000000" font-family="sans-serif" font-size="13" lengthAdjust="spacing" textLength="98" x="7" y="66.3638">drawAsItem(jb)</text><polygon fill="#A80036" points="432,96.5625,442,100.5625,432,104.5625,436,100.5625" style="stroke:#A80036;stroke-width:1.0;"/><line style="stroke:#A80036;stroke-width:1.0;" x1="127" x2="438" y1="100.5625" y2="100.5625"/><text fill="#000000" font-family="sans-serif" font-size="13" lengthAdjust="spacing" textLength="107" x="134" y="95.4966">setEnabled(true)</text><polygon fill="#A80036" points="138,110.5625,128,114.5625,138,118.5625,134,114.5625" style="stroke:#A80036;stroke-width:1.0;"/><line style="stroke:#A80036;stroke-width:1.0;stroke-dasharray:2.0,2.0;" x1="132" x2="448" y1="114.5625" y2="114.5625"/><polygon fill="#A80036" points="432,139.6953,442,143.6953,432,147.6953,436,143.6953" style="stroke:#A80036;stroke-width:1.0;"/><line style="stroke:#A80036;stroke-width:1.0;" x1="127" x2="438" y1="143.6953" y2="143.6953"/><text fill="#000000" font-family="sans-serif" font-size="13" lengthAdjust="spacing" textLength="149" x="134" y="138.6294">setIcon(materialImage)</text><polygon fill="#A80036" points="138,153.6953,128,157.6953,138,161.6953,134,157.6953" style="stroke:#A80036;stroke-width:1.0;"/><line style="stroke:#A80036;stroke-width:1.0;stroke-dasharray:2.0,2.0;" x1="132" x2="448" y1="157.6953" y2="157.6953"/><polygon fill="#A80036" points="577.5,182.8281,587.5,186.8281,577.5,190.8281,581.5,186.8281" style="stroke:#A80036;stroke-width:1.0;"/><line style="stroke:#A80036;stroke-width:1.0;" x1="127" x2="583.5" y1="186.8281" y2="186.8281"/><text fill="#000000" font-family="sans-serif" font-size="13" lengthAdjust="spacing" textLength="147" x="134" y="181.7622">getMaterialID(material)</text><polygon fill="#A80036" points="138,211.9609,128,215.9609,138,219.9609,134,215.9609" style="stroke:#A80036;stroke-width:1.0;"/><line style="stroke:#A80036;stroke-width:1.0;stroke-dasharray:2.0,2.0;" x1="132" x2="593.5" y1="215.9609" y2="215.9609"/><text fill="#000000" font-family="sans-serif" font-size="13" lengthAdjust="spacing" textLength="66" x="144" y="210.895">materialID</text><polygon fill="#A80036" points="432,241.0938,442,245.0938,432,249.0938,436,245.0938" style="stroke:#A80036;stroke-width:1.0;"/><line style="stroke:#A80036;stroke-width:1.0;" x1="127" x2="438" y1="245.0938" y2="245.0938"/><text fill="#000000" font-family="sans-serif" font-size="13" lengthAdjust="spacing" textLength="298" x="134" y="240.0278">setActionCommand("placeItem_" + teleportID)</text><polygon fill="#A80036" points="138,255.0938,128,259.0938,138,263.0938,134,259.0938" style="stroke:#A80036;stroke-width:1.0;"/><line style="stroke:#A80036;stroke-width:1.0;stroke-dasharray:2.0,2.0;" x1="132" x2="448" y1="259.0938" y2="259.0938"/><polygon fill="#A80036" points="11,269.0938,1,273.0938,11,277.0938,7,273.0938" style="stroke:#A80036;stroke-width:1.0;"/><line style="stroke:#A80036;stroke-width:1.0;stroke-dasharray:2.0,2.0;" x1="5" x2="121" y1="273.0938" y2="273.0938"/><!--MD5=[336d081612d8cad8d9340c14e7264cae]
@startuml
participant "mvc : MaterialViewControl" as avc
participant "jb : JButton" as jb
participant " : CommandDatabase" as cmdDatBase

[->avc ++:drawAsItem(jb)
    avc-> jb++:setEnabled(true)
    return
   
    avc-> jb ++:setIcon(materialImage)
    return
     avc->cmdDatBase ++: getMaterialID(material)
    return materialID
    avc-> jb ++:setActionCommand("placeItem_" + teleportID)
    return
return
@enduml

PlantUML version 1.2021.5beta3(Unknown compile time)
(GPL source distribution)
Java Runtime: Java(TM) SE Runtime Environment
JVM: Java HotSpot(TM) 64-Bit Server VM
Default Encoding: UTF-8
Language: en
Country: US
--></g></svg>