<?xml version="1.0" encoding="UTF-8" standalone="no"?><svg xmlns="http://www.w3.org/2000/svg" xmlns:xlink="http://www.w3.org/1999/xlink" contentScriptType="application/ecmascript" contentStyleType="text/css" height="334px" preserveAspectRatio="none" style="width:650px;height:334px;" version="1.1" viewBox="0 0 650 334" width="650px" zoomAndPan="magnify"><defs><filter height="300%" id="fgsucwoasxi8q" width="300%" x="-1" y="-1"><feGaussianBlur result="blurOut" stdDeviation="2.0"/><feColorMatrix in="blurOut" result="blurOut2" type="matrix" values="0 0 0 0 0 0 0 0 0 0 0 0 0 0 0 0 0 0 .4 0"/><feOffset dx="4.0" dy="4.0" in="blurOut2" result="blurOut3"/><feBlend in="SourceGraphic" in2="blurOut3" mode="normal"/></filter></defs><g><rect fill="#FFFFFF" filter="url(#fgsucwoasxi8q)" height="201.6641" style="stroke:#A80036;stroke-width:1.0;" width="10" x="102.5" y="71.4297"/><rect fill="#FFFFFF" filter="url(#fgsucwoasxi8q)" height="14" style="stroke:#A80036;stroke-width:1.0;" width="10" x="403.5" y="100.5625"/><rect fill="#FFFFFF" filter="url(#fgsucwoasxi8q)" height="14" style="stroke:#A80036;stroke-width:1.0;" width="10" x="403.5" y="143.6953"/><rect fill="#FFFFFF" filter="url(#fgsucwoasxi8q)" height="14" style="stroke:#A80036;stroke-width:1.0;" width="10" x="403.5" y="245.0938"/><rect fill="#FFFFFF" filter="url(#fgsucwoasxi8q)" height="29.1328" style="stroke:#A80036;stroke-width:1.0;" width="10" x="549" y="186.8281"/><line style="stroke:#A80036;stroke-width:1.0;stroke-dasharray:5.0,5.0;" x1="107" x2="107" y1="40.2969" y2="291.0938"/><line style="stroke:#A80036;stroke-width:1.0;stroke-dasharray:5.0,5.0;" x1="408" x2="408" y1="40.2969" y2="291.0938"/><line style="stroke:#A80036;stroke-width:1.0;stroke-dasharray:5.0,5.0;" x1="554" x2="554" y1="40.2969" y2="291.0938"/><rect fill="#FEFECE" filter="url(#fgsucwoasxi8q)" height="30.2969" style="stroke:#A80036;stroke-width:1.5;" width="201" x="5" y="5"/><text fill="#000000" font-family="sans-serif" font-size="14" lengthAdjust="spacing" textLength="187" x="12" y="24.9951">tvc : TeleportViewControl</text><rect fill="#FEFECE" filter="url(#fgsucwoasxi8q)" height="30.2969" style="stroke:#A80036;stroke-width:1.5;" width="201" x="5" y="290.0938"/><text fill="#000000" font-family="sans-serif" font-size="14" lengthAdjust="spacing" textLength="187" x="12" y="310.0889">tvc : TeleportViewControl</text><rect fill="#FEFECE" filter="url(#fgsucwoasxi8q)" height="30.2969" style="stroke:#A80036;stroke-width:1.5;" width="95" x="359" y="5"/><text fill="#000000" font-family="sans-serif" font-size="14" lengthAdjust="spacing" textLength="81" x="366" y="24.9951">jb : JButton</text><rect fill="#FEFECE" filter="url(#fgsucwoasxi8q)" height="30.2969" style="stroke:#A80036;stroke-width:1.5;" width="95" x="359" y="290.0938"/><text fill="#000000" font-family="sans-serif" font-size="14" lengthAdjust="spacing" textLength="81" x="366" y="310.0889">jb : JButton</text><rect fill="#FEFECE" filter="url(#fgsucwoasxi8q)" height="30.2969" style="stroke:#A80036;stroke-width:1.5;" width="168" x="468" y="5"/><text fill="#000000" font-family="sans-serif" font-size="14" lengthAdjust="spacing" textLength="150" x="479" y="24.9951">: CommandDatabase</text><rect fill="#FEFECE" filter="url(#fgsucwoasxi8q)" height="30.2969" style="stroke:#A80036;stroke-width:1.5;" width="168" x="468" y="290.0938"/><text fill="#000000" font-family="sans-serif" font-size="14" lengthAdjust="spacing" textLength="150" x="479" y="310.0889">: CommandDatabase</text><rect fill="#FFFFFF" filter="url(#fgsucwoasxi8q)" height="201.6641" style="stroke:#A80036;stroke-width:1.0;" width="10" x="102.5" y="71.4297"/><rect fill="#FFFFFF" filter="url(#fgsucwoasxi8q)" height="14" style="stroke:#A80036;stroke-width:1.0;" width="10" x="403.5" y="100.5625"/><rect fill="#FFFFFF" filter="url(#fgsucwoasxi8q)" height="14" style="stroke:#A80036;stroke-width:1.0;" width="10" x="403.5" y="143.6953"/><rect fill="#FFFFFF" filter="url(#fgsucwoasxi8q)" height="14" style="stroke:#A80036;stroke-width:1.0;" width="10" x="403.5" y="245.0938"/><rect fill="#FFFFFF" filter="url(#fgsucwoasxi8q)" height="29.1328" style="stroke:#A80036;stroke-width:1.0;" width="10" x="549" y="186.8281"/><polygon fill="#A80036" points="90.5,67.4297,100.5,71.4297,90.5,75.4297,94.5,71.4297" style="stroke:#A80036;stroke-width:1.0;"/><line style="stroke:#A80036;stroke-width:1.0;" x1="0" x2="96.5" y1="71.4297" y2="71.4297"/><text fill="#000000" font-family="sans-serif" font-size="13" lengthAdjust="spacing" textLength="53" x="7" y="66.3638">draw(jb)</text><polygon fill="#A80036" points="391.5,96.5625,401.5,100.5625,391.5,104.5625,395.5,100.5625" style="stroke:#A80036;stroke-width:1.0;"/><line style="stroke:#A80036;stroke-width:1.0;" x1="112.5" x2="397.5" y1="100.5625" y2="100.5625"/><text fill="#000000" font-family="sans-serif" font-size="13" lengthAdjust="spacing" textLength="107" x="119.5" y="95.4966">setEnabled(true)</text><polygon fill="#A80036" points="123.5,110.5625,113.5,114.5625,123.5,118.5625,119.5,114.5625" style="stroke:#A80036;stroke-width:1.0;"/><line style="stroke:#A80036;stroke-width:1.0;stroke-dasharray:2.0,2.0;" x1="117.5" x2="407.5" y1="114.5625" y2="114.5625"/><polygon fill="#A80036" points="391.5,139.6953,401.5,143.6953,391.5,147.6953,395.5,143.6953" style="stroke:#A80036;stroke-width:1.0;"/><line style="stroke:#A80036;stroke-width:1.0;" x1="112.5" x2="397.5" y1="143.6953" y2="143.6953"/><text fill="#000000" font-family="sans-serif" font-size="13" lengthAdjust="spacing" textLength="146" x="119.5" y="138.6294">setIcon(teleportImage)</text><polygon fill="#A80036" points="123.5,153.6953,113.5,157.6953,123.5,161.6953,119.5,157.6953" style="stroke:#A80036;stroke-width:1.0;"/><line style="stroke:#A80036;stroke-width:1.0;stroke-dasharray:2.0,2.0;" x1="117.5" x2="407.5" y1="157.6953" y2="157.6953"/><polygon fill="#A80036" points="537,182.8281,547,186.8281,537,190.8281,541,186.8281" style="stroke:#A80036;stroke-width:1.0;"/><line style="stroke:#A80036;stroke-width:1.0;" x1="112.5" x2="543" y1="186.8281" y2="186.8281"/><text fill="#000000" font-family="sans-serif" font-size="13" lengthAdjust="spacing" textLength="147" x="119.5" y="181.7622">getTeleportID(teleport)</text><polygon fill="#A80036" points="123.5,211.9609,113.5,215.9609,123.5,219.9609,119.5,215.9609" style="stroke:#A80036;stroke-width:1.0;"/><line style="stroke:#A80036;stroke-width:1.0;stroke-dasharray:2.0,2.0;" x1="117.5" x2="553" y1="215.9609" y2="215.9609"/><text fill="#000000" font-family="sans-serif" font-size="13" lengthAdjust="spacing" textLength="63" x="129.5" y="210.895">teleportID</text><polygon fill="#A80036" points="391.5,241.0938,401.5,245.0938,391.5,249.0938,395.5,245.0938" style="stroke:#A80036;stroke-width:1.0;"/><line style="stroke:#A80036;stroke-width:1.0;" x1="112.5" x2="397.5" y1="245.0938" y2="245.0938"/><text fill="#000000" font-family="sans-serif" font-size="13" lengthAdjust="spacing" textLength="272" x="119.5" y="240.0278">setActionCommand("move_" + teleportID)</text><polygon fill="#A80036" points="123.5,255.0938,113.5,259.0938,123.5,263.0938,119.5,259.0938" style="stroke:#A80036;stroke-width:1.0;"/><line style="stroke:#A80036;stroke-width:1.0;stroke-dasharray:2.0,2.0;" x1="117.5" x2="407.5" y1="259.0938" y2="259.0938"/><polygon fill="#A80036" points="11,269.0938,1,273.0938,11,277.0938,7,273.0938" style="stroke:#A80036;stroke-width:1.0;"/><line style="stroke:#A80036;stroke-width:1.0;stroke-dasharray:2.0,2.0;" x1="5" x2="106.5" y1="273.0938" y2="273.0938"/><!--MD5=[ea543f8da6250a81cf67072f96fa8d1f]
@startuml
participant "tvc : TeleportViewControl" as avc
participant "jb : JButton" as jb
participant " : CommandDatabase" as cmdDatBase

[->avc ++:draw(jb)
    avc-> jb++:setEnabled(true)
    return
   
    avc-> jb ++:setIcon(teleportImage)
    return
     avc->cmdDatBase ++: getTeleportID(teleport)
    return teleportID
    avc-> jb ++:setActionCommand("move_" + teleportID)
    return
return
@enduml

PlantUML version 1.2021.5beta3(Unknown compile time)
(GPL source distribution)
Java Runtime: Java(TM) SE Runtime Environment
JVM: Java HotSpot(TM) 64-Bit Server VM
Default Encoding: UTF-8
Language: en
Country: US
--></g></svg>