<?xml version="1.0" encoding="UTF-8" standalone="no"?><svg xmlns="http://www.w3.org/2000/svg" xmlns:xlink="http://www.w3.org/1999/xlink" contentScriptType="application/ecmascript" contentStyleType="text/css" height="232px" preserveAspectRatio="none" style="width:515px;height:232px;" version="1.1" viewBox="0 0 515 232" width="515px" zoomAndPan="magnify"><defs><filter height="300%" id="f1jb6q46v3g79d" width="300%" x="-1" y="-1"><feGaussianBlur result="blurOut" stdDeviation="2.0"/><feColorMatrix in="blurOut" result="blurOut2" type="matrix" values="0 0 0 0 0 0 0 0 0 0 0 0 0 0 0 0 0 0 .4 0"/><feOffset dx="4.0" dy="4.0" in="blurOut2" result="blurOut3"/><feBlend in="SourceGraphic" in2="blurOut3" mode="normal"/></filter></defs><g><rect fill="#FFFFFF" filter="url(#f1jb6q46v3g79d)" height="100.2656" style="stroke:#A80036;stroke-width:1.0;" width="10" x="99.5" y="71.4297"/><rect fill="#FFFFFF" filter="url(#f1jb6q46v3g79d)" height="14" style="stroke:#A80036;stroke-width:1.0;" width="10" x="268.5" y="100.5625"/><rect fill="#FFFFFF" filter="url(#f1jb6q46v3g79d)" height="14" style="stroke:#A80036;stroke-width:1.0;" width="10" x="268.5" y="143.6953"/><line style="stroke:#A80036;stroke-width:1.0;stroke-dasharray:5.0,5.0;" x1="104" x2="104" y1="40.2969" y2="189.6953"/><line style="stroke:#A80036;stroke-width:1.0;stroke-dasharray:5.0,5.0;" x1="273" x2="273" y1="40.2969" y2="189.6953"/><line style="stroke:#A80036;stroke-width:1.0;stroke-dasharray:5.0,5.0;" x1="419" x2="419" y1="40.2969" y2="189.6953"/><rect fill="#FEFECE" filter="url(#f1jb6q46v3g79d)" height="30.2969" style="stroke:#A80036;stroke-width:1.5;" width="195" x="5" y="5"/><text fill="#000000" font-family="sans-serif" font-size="14" lengthAdjust="spacing" textLength="181" x="12" y="24.9951">wvc : WorkerViewControl</text><rect fill="#FEFECE" filter="url(#f1jb6q46v3g79d)" height="30.2969" style="stroke:#A80036;stroke-width:1.5;" width="195" x="5" y="188.6953"/><text fill="#000000" font-family="sans-serif" font-size="14" lengthAdjust="spacing" textLength="181" x="12" y="208.6904">wvc : WorkerViewControl</text><rect fill="#FEFECE" filter="url(#f1jb6q46v3g79d)" height="30.2969" style="stroke:#A80036;stroke-width:1.5;" width="95" x="224" y="5"/><text fill="#000000" font-family="sans-serif" font-size="14" lengthAdjust="spacing" textLength="81" x="231" y="24.9951">jb : JButton</text><rect fill="#FEFECE" filter="url(#f1jb6q46v3g79d)" height="30.2969" style="stroke:#A80036;stroke-width:1.5;" width="95" x="224" y="188.6953"/><text fill="#000000" font-family="sans-serif" font-size="14" lengthAdjust="spacing" textLength="81" x="231" y="208.6904">jb : JButton</text><rect fill="#FEFECE" filter="url(#f1jb6q46v3g79d)" height="30.2969" style="stroke:#A80036;stroke-width:1.5;" width="168" x="333" y="5"/><text fill="#000000" font-family="sans-serif" font-size="14" lengthAdjust="spacing" textLength="150" x="344" y="24.9951">: CommandDatabase</text><rect fill="#FEFECE" filter="url(#f1jb6q46v3g79d)" height="30.2969" style="stroke:#A80036;stroke-width:1.5;" width="168" x="333" y="188.6953"/><text fill="#000000" font-family="sans-serif" font-size="14" lengthAdjust="spacing" textLength="150" x="344" y="208.6904">: CommandDatabase</text><rect fill="#FFFFFF" filter="url(#f1jb6q46v3g79d)" height="100.2656" style="stroke:#A80036;stroke-width:1.0;" width="10" x="99.5" y="71.4297"/><rect fill="#FFFFFF" filter="url(#f1jb6q46v3g79d)" height="14" style="stroke:#A80036;stroke-width:1.0;" width="10" x="268.5" y="100.5625"/><rect fill="#FFFFFF" filter="url(#f1jb6q46v3g79d)" height="14" style="stroke:#A80036;stroke-width:1.0;" width="10" x="268.5" y="143.6953"/><polygon fill="#A80036" points="87.5,67.4297,97.5,71.4297,87.5,75.4297,91.5,71.4297" style="stroke:#A80036;stroke-width:1.0;"/><line style="stroke:#A80036;stroke-width:1.0;" x1="0" x2="93.5" y1="71.4297" y2="71.4297"/><text fill="#000000" font-family="sans-serif" font-size="13" lengthAdjust="spacing" textLength="53" x="7" y="66.3638">draw(jb)</text><polygon fill="#A80036" points="256.5,96.5625,266.5,100.5625,256.5,104.5625,260.5,100.5625" style="stroke:#A80036;stroke-width:1.0;"/><line style="stroke:#A80036;stroke-width:1.0;" x1="109.5" x2="262.5" y1="100.5625" y2="100.5625"/><text fill="#000000" font-family="sans-serif" font-size="13" lengthAdjust="spacing" textLength="112" x="116.5" y="95.4966">setEnabled(false)</text><polygon fill="#A80036" points="120.5,110.5625,110.5,114.5625,120.5,118.5625,116.5,114.5625" style="stroke:#A80036;stroke-width:1.0;"/><line style="stroke:#A80036;stroke-width:1.0;stroke-dasharray:2.0,2.0;" x1="114.5" x2="272.5" y1="114.5625" y2="114.5625"/><polygon fill="#A80036" points="256.5,139.6953,266.5,143.6953,256.5,147.6953,260.5,143.6953" style="stroke:#A80036;stroke-width:1.0;"/><line style="stroke:#A80036;stroke-width:1.0;" x1="109.5" x2="262.5" y1="143.6953" y2="143.6953"/><text fill="#000000" font-family="sans-serif" font-size="13" lengthAdjust="spacing" textLength="140" x="116.5" y="138.6294">setIcon(workerImage)</text><polygon fill="#A80036" points="120.5,153.6953,110.5,157.6953,120.5,161.6953,116.5,157.6953" style="stroke:#A80036;stroke-width:1.0;"/><line style="stroke:#A80036;stroke-width:1.0;stroke-dasharray:2.0,2.0;" x1="114.5" x2="272.5" y1="157.6953" y2="157.6953"/><polygon fill="#A80036" points="11,167.6953,1,171.6953,11,175.6953,7,171.6953" style="stroke:#A80036;stroke-width:1.0;"/><line style="stroke:#A80036;stroke-width:1.0;stroke-dasharray:2.0,2.0;" x1="5" x2="103.5" y1="171.6953" y2="171.6953"/><!--MD5=[dfe6a307df4eba15d300c4a78d84f679]
@startuml
participant "wvc : WorkerViewControl" as avc
participant "jb : JButton" as jb
participant " : CommandDatabase" as cmdDatBase

[->avc ++:draw(jb)
    avc-> jb++:setEnabled(false)
    return
   
    avc-> jb ++:setIcon(workerImage)
    return
return
@enduml

PlantUML version 1.2021.5beta3(Unknown compile time)
(GPL source distribution)
Java Runtime: Java(TM) SE Runtime Environment
JVM: Java HotSpot(TM) 64-Bit Server VM
Default Encoding: UTF-8
Language: en
Country: US
--></g></svg>