<?xml version="1.0" encoding="UTF-8" standalone="no"?><svg xmlns="http://www.w3.org/2000/svg" xmlns:xlink="http://www.w3.org/1999/xlink" contentScriptType="application/ecmascript" contentStyleType="text/css" height="1779px" preserveAspectRatio="none" style="width:1838px;height:1779px;" version="1.1" viewBox="0 0 1838 1779" width="1838px" zoomAndPan="magnify"><defs><filter height="300%" id="f13gvq1x3l0a3r" width="300%" x="-1" y="-1"><feGaussianBlur result="blurOut" stdDeviation="2.0"/><feColorMatrix in="blurOut" result="blurOut2" type="matrix" values="0 0 0 0 0 0 0 0 0 0 0 0 0 0 0 0 0 0 .4 0"/><feOffset dx="4.0" dy="4.0" in="blurOut2" result="blurOut3"/><feBlend in="SourceGraphic" in2="blurOut3" mode="normal"/></filter></defs><g><rect fill="#FFFFFF" filter="url(#f13gvq1x3l0a3r)" height="1647.2344" style="stroke:#A80036;stroke-width:1.0;" width="10" x="212" y="71.4297"/><rect fill="#FFFFFF" filter="url(#f13gvq1x3l0a3r)" height="25" style="stroke:#A80036;stroke-width:1.0;" width="10" x="217" y="330.9688"/><rect fill="#FFFFFF" filter="url(#f13gvq1x3l0a3r)" height="25" style="stroke:#A80036;stroke-width:1.0;" width="10" x="217" y="1244.25"/><rect fill="#FFFFFF" filter="url(#f13gvq1x3l0a3r)" height="29.1328" style="stroke:#A80036;stroke-width:1.0;" width="10" x="665" y="100.5625"/><rect fill="#FFFFFF" filter="url(#f13gvq1x3l0a3r)" height="29.1328" style="stroke:#A80036;stroke-width:1.0;" width="10" x="813" y="955.25"/><rect fill="#FFFFFF" filter="url(#f13gvq1x3l0a3r)" height="29.1328" style="stroke:#A80036;stroke-width:1.0;" width="10" x="813" y="1037.6484"/><rect fill="#FFFFFF" filter="url(#f13gvq1x3l0a3r)" height="29.1328" style="stroke:#A80036;stroke-width:1.0;" width="10" x="941.5" y="569.0469"/><rect fill="#FFFFFF" filter="url(#f13gvq1x3l0a3r)" height="29.1328" style="stroke:#A80036;stroke-width:1.0;" width="10" x="941.5" y="700.3828"/><rect fill="#FFFFFF" filter="url(#f13gvq1x3l0a3r)" height="29.1328" style="stroke:#A80036;stroke-width:1.0;" width="10" x="941.5" y="831.7188"/><rect fill="#FFFFFF" filter="url(#f13gvq1x3l0a3r)" height="29.1328" style="stroke:#A80036;stroke-width:1.0;" width="10" x="941.5" y="1120.0469"/><rect fill="#FFFFFF" filter="url(#f13gvq1x3l0a3r)" height="29.1328" style="stroke:#A80036;stroke-width:1.0;" width="10" x="941.5" y="1378.125"/><rect fill="#FFFFFF" filter="url(#f13gvq1x3l0a3r)" height="14" style="stroke:#A80036;stroke-width:1.0;" width="10" x="1130" y="207.0938"/><rect fill="#FFFFFF" filter="url(#f13gvq1x3l0a3r)" height="14" style="stroke:#A80036;stroke-width:1.0;" width="10" x="1130" y="265.0313"/><rect fill="#FFFFFF" filter="url(#f13gvq1x3l0a3r)" height="14" style="stroke:#A80036;stroke-width:1.0;" width="10" x="1130" y="1178.3125"/><rect fill="#FFFFFF" filter="url(#f13gvq1x3l0a3r)" height="14" style="stroke:#A80036;stroke-width:1.0;" width="10" x="1130" y="1320.1875"/><rect fill="#FFFFFF" filter="url(#f13gvq1x3l0a3r)" height="14" style="stroke:#A80036;stroke-width:1.0;" width="10" x="1130" y="1436.3906"/><rect fill="#FFFFFF" filter="url(#f13gvq1x3l0a3r)" height="14" style="stroke:#A80036;stroke-width:1.0;" width="10" x="1130" y="1494.3281"/><rect fill="#FFFFFF" filter="url(#f13gvq1x3l0a3r)" height="14" style="stroke:#A80036;stroke-width:1.0;" width="10" x="1130" y="1676.6641"/><rect fill="#FFFFFF" filter="url(#f13gvq1x3l0a3r)" height="29.1328" style="stroke:#A80036;stroke-width:1.0;" width="10" x="1327.5" y="438.0391"/><rect fill="#FFFFFF" filter="url(#f13gvq1x3l0a3r)" height="14" style="stroke:#A80036;stroke-width:1.0;" width="10" x="1327.5" y="511.1094"/><rect fill="#FFFFFF" filter="url(#f13gvq1x3l0a3r)" height="29.1328" style="stroke:#A80036;stroke-width:1.0;" width="10" x="1327.5" y="627.3125"/><rect fill="#FFFFFF" filter="url(#f13gvq1x3l0a3r)" height="29.1328" style="stroke:#A80036;stroke-width:1.0;" width="10" x="1327.5" y="758.6484"/><rect fill="#FFFFFF" filter="url(#f13gvq1x3l0a3r)" height="29.1328" style="stroke:#A80036;stroke-width:1.0;" width="10" x="1327.5" y="889.9844"/><rect fill="#FFFFFF" filter="url(#f13gvq1x3l0a3r)" height="14" style="stroke:#A80036;stroke-width:1.0;" width="10" x="1515.5" y="1618.7266"/><rect fill="#FFFFFF" filter="url(#f13gvq1x3l0a3r)" height="14" style="stroke:#A80036;stroke-width:1.0;" width="10" x="1705" y="1575.5938"/><rect fill="#FFFFFF" filter="url(#f13gvq1x3l0a3r)" height="1560.9688" style="stroke:#000000;stroke-width:2.0;" width="1714.5" x="110" y="144.6953"/><rect fill="#FFFFFF" filter="url(#f13gvq1x3l0a3r)" height="202.1406" style="stroke:#000000;stroke-width:2.0;" width="1109.5" x="130" y="168.8281"/><rect fill="#FFFFFF" height="57.9375" style="stroke:none;stroke-width:1.0;" width="1109.5" x="130" y="229.0938"/><rect fill="#FFFFFF" height="83.9375" style="stroke:none;stroke-width:1.0;" width="1109.5" x="130" y="287.0313"/><rect fill="#FFFFFF" height="1327.6953" style="stroke:none;stroke-width:1.0;" width="1714.5" x="110" y="377.9688"/><rect fill="#FFFFFF" filter="url(#f13gvq1x3l0a3r)" height="527.3438" style="stroke:#000000;stroke-width:2.0;" width="1305.5" x="130" y="399.7734"/><rect fill="#FFFFFF" height="57.9375" style="stroke:none;stroke-width:1.0;" width="1305.5" x="130" y="475.1719"/><rect fill="#FFFFFF" height="131.3359" style="stroke:none;stroke-width:1.0;" width="1305.5" x="130" y="533.1094"/><rect fill="#FFFFFF" height="131.3359" style="stroke:none;stroke-width:1.0;" width="1305.5" x="130" y="664.4453"/><rect fill="#FFFFFF" height="131.3359" style="stroke:none;stroke-width:1.0;" width="1305.5" x="130" y="795.7813"/><rect fill="#FFFFFF" filter="url(#f13gvq1x3l0a3r)" height="523.9453" style="stroke:#000000;stroke-width:2.0;" width="1129.5" x="120" y="999.3828"/><rect fill="#FFFFFF" filter="url(#f13gvq1x3l0a3r)" height="434.5469" style="stroke:#000000;stroke-width:2.0;" width="1109.5" x="130" y="1081.7813"/><rect fill="#FFFFFF" height="83.9375" style="stroke:none;stroke-width:1.0;" width="1109.5" x="130" y="1200.3125"/><rect fill="#FFFFFF" height="57.9375" style="stroke:none;stroke-width:1.0;" width="1109.5" x="130" y="1284.25"/><rect fill="#FFFFFF" height="116.2031" style="stroke:none;stroke-width:1.0;" width="1109.5" x="130" y="1342.1875"/><rect fill="#FFFFFF" height="57.9375" style="stroke:none;stroke-width:1.0;" width="1109.5" x="130" y="1458.3906"/><rect fill="#FFFFFF" filter="url(#f13gvq1x3l0a3r)" height="161.3359" style="stroke:#000000;stroke-width:2.0;" width="1684.5" x="130" y="1537.3281"/><rect fill="#FFFFFF" height="57.9375" style="stroke:none;stroke-width:1.0;" width="1684.5" x="130" y="1640.7266"/><line style="stroke:#A80036;stroke-width:1.0;stroke-dasharray:5.0,5.0;" x1="217" x2="217" y1="40.2969" y2="1736.6641"/><line style="stroke:#A80036;stroke-width:1.0;stroke-dasharray:5.0,5.0;" x1="669.5" x2="669.5" y1="40.2969" y2="1736.6641"/><line style="stroke:#A80036;stroke-width:1.0;stroke-dasharray:5.0,5.0;" x1="817.5" x2="817.5" y1="40.2969" y2="1736.6641"/><line style="stroke:#A80036;stroke-width:1.0;stroke-dasharray:5.0,5.0;" x1="946.5" x2="946.5" y1="40.2969" y2="1736.6641"/><line style="stroke:#A80036;stroke-width:1.0;stroke-dasharray:5.0,5.0;" x1="1134.5" x2="1134.5" y1="40.2969" y2="1736.6641"/><line style="stroke:#A80036;stroke-width:1.0;stroke-dasharray:5.0,5.0;" x1="1332.5" x2="1332.5" y1="40.2969" y2="1736.6641"/><line style="stroke:#A80036;stroke-width:1.0;stroke-dasharray:5.0,5.0;" x1="1520.5" x2="1520.5" y1="40.2969" y2="1736.6641"/><line style="stroke:#A80036;stroke-width:1.0;stroke-dasharray:5.0,5.0;" x1="1709.5" x2="1709.5" y1="40.2969" y2="1736.6641"/><rect fill="#FEFECE" filter="url(#f13gvq1x3l0a3r)" height="30.2969" style="stroke:#A80036;stroke-width:1.5;" width="150" x="140" y="5"/><text fill="#000000" font-family="sans-serif" font-size="14" lengthAdjust="spacing" textLength="136" x="147" y="24.9951">ic : InputController</text><rect fill="#FEFECE" filter="url(#f13gvq1x3l0a3r)" height="30.2969" style="stroke:#A80036;stroke-width:1.5;" width="150" x="140" y="1735.6641"/><text fill="#000000" font-family="sans-serif" font-size="14" lengthAdjust="spacing" textLength="136" x="147" y="1755.6592">ic : InputController</text><rect fill="#FEFECE" filter="url(#f13gvq1x3l0a3r)" height="30.2969" style="stroke:#A80036;stroke-width:1.5;" width="203" x="566.5" y="5"/><text fill="#000000" font-family="sans-serif" font-size="14" lengthAdjust="spacing" textLength="189" x="573.5" y="24.9951">actionEvent : ActionEvent</text><rect fill="#FEFECE" filter="url(#f13gvq1x3l0a3r)" height="30.2969" style="stroke:#A80036;stroke-width:1.5;" width="203" x="566.5" y="1735.6641"/><text fill="#000000" font-family="sans-serif" font-size="14" lengthAdjust="spacing" textLength="189" x="573.5" y="1755.6592">actionEvent : ActionEvent</text><rect fill="#FEFECE" filter="url(#f13gvq1x3l0a3r)" height="30.2969" style="stroke:#A80036;stroke-width:1.5;" width="65" x="783.5" y="5"/><text fill="#000000" font-family="sans-serif" font-size="14" lengthAdjust="spacing" textLength="47" x="794.5" y="24.9951">:Game</text><rect fill="#FEFECE" filter="url(#f13gvq1x3l0a3r)" height="30.2969" style="stroke:#A80036;stroke-width:1.5;" width="65" x="783.5" y="1735.6641"/><text fill="#000000" font-family="sans-serif" font-size="14" lengthAdjust="spacing" textLength="47" x="794.5" y="1755.6592">:Game</text><rect fill="#FEFECE" filter="url(#f13gvq1x3l0a3r)" height="30.2969" style="stroke:#A80036;stroke-width:1.5;" width="164" x="862.5" y="5"/><text fill="#000000" font-family="sans-serif" font-size="14" lengthAdjust="spacing" textLength="146" x="873.5" y="24.9951">:CommandDatabase</text><rect fill="#FEFECE" filter="url(#f13gvq1x3l0a3r)" height="30.2969" style="stroke:#A80036;stroke-width:1.5;" width="164" x="862.5" y="1735.6641"/><text fill="#000000" font-family="sans-serif" font-size="14" lengthAdjust="spacing" textLength="146" x="873.5" y="1755.6592">:CommandDatabase</text><rect fill="#FEFECE" filter="url(#f13gvq1x3l0a3r)" height="30.2969" style="stroke:#A80036;stroke-width:1.5;" width="185" x="1040.5" y="5"/><text fill="#000000" font-family="sans-serif" font-size="14" lengthAdjust="spacing" textLength="171" x="1047.5" y="24.9951">mainFrame : MainFrame</text><rect fill="#FEFECE" filter="url(#f13gvq1x3l0a3r)" height="30.2969" style="stroke:#A80036;stroke-width:1.5;" width="185" x="1040.5" y="1735.6641"/><text fill="#000000" font-family="sans-serif" font-size="14" lengthAdjust="spacing" textLength="171" x="1047.5" y="1755.6592">mainFrame : MainFrame</text><rect fill="#FEFECE" filter="url(#f13gvq1x3l0a3r)" height="30.2969" style="stroke:#A80036;stroke-width:1.5;" width="182" x="1239.5" y="5"/><text fill="#000000" font-family="sans-serif" font-size="14" lengthAdjust="spacing" textLength="168" x="1246.5" y="24.9951">currentSettler : Settler</text><rect fill="#FEFECE" filter="url(#f13gvq1x3l0a3r)" height="30.2969" style="stroke:#A80036;stroke-width:1.5;" width="182" x="1239.5" y="1735.6641"/><text fill="#000000" font-family="sans-serif" font-size="14" lengthAdjust="spacing" textLength="168" x="1246.5" y="1755.6592">currentSettler : Settler</text><rect fill="#FEFECE" filter="url(#f13gvq1x3l0a3r)" height="30.2969" style="stroke:#A80036;stroke-width:1.5;" width="166" x="1435.5" y="5"/><text fill="#000000" font-family="sans-serif" font-size="14" lengthAdjust="spacing" textLength="152" x="1442.5" y="24.9951">sip : SettlerInfoPanel</text><rect fill="#FEFECE" filter="url(#f13gvq1x3l0a3r)" height="30.2969" style="stroke:#A80036;stroke-width:1.5;" width="166" x="1435.5" y="1735.6641"/><text fill="#000000" font-family="sans-serif" font-size="14" lengthAdjust="spacing" textLength="152" x="1442.5" y="1755.6592">sip : SettlerInfoPanel</text><rect fill="#FEFECE" filter="url(#f13gvq1x3l0a3r)" height="30.2969" style="stroke:#A80036;stroke-width:1.5;" width="185" x="1615.5" y="5"/><text fill="#000000" font-family="sans-serif" font-size="14" lengthAdjust="spacing" textLength="171" x="1622.5" y="24.9951">afp : AsteroidFieldPanel</text><rect fill="#FEFECE" filter="url(#f13gvq1x3l0a3r)" height="30.2969" style="stroke:#A80036;stroke-width:1.5;" width="185" x="1615.5" y="1735.6641"/><text fill="#000000" font-family="sans-serif" font-size="14" lengthAdjust="spacing" textLength="171" x="1622.5" y="1755.6592">afp : AsteroidFieldPanel</text><rect fill="#FFFFFF" filter="url(#f13gvq1x3l0a3r)" height="1647.2344" style="stroke:#A80036;stroke-width:1.0;" width="10" x="212" y="71.4297"/><rect fill="#FFFFFF" filter="url(#f13gvq1x3l0a3r)" height="25" style="stroke:#A80036;stroke-width:1.0;" width="10" x="217" y="330.9688"/><rect fill="#FFFFFF" filter="url(#f13gvq1x3l0a3r)" height="25" style="stroke:#A80036;stroke-width:1.0;" width="10" x="217" y="1244.25"/><rect fill="#FFFFFF" filter="url(#f13gvq1x3l0a3r)" height="29.1328" style="stroke:#A80036;stroke-width:1.0;" width="10" x="665" y="100.5625"/><rect fill="#FFFFFF" filter="url(#f13gvq1x3l0a3r)" height="29.1328" style="stroke:#A80036;stroke-width:1.0;" width="10" x="813" y="955.25"/><rect fill="#FFFFFF" filter="url(#f13gvq1x3l0a3r)" height="29.1328" style="stroke:#A80036;stroke-width:1.0;" width="10" x="813" y="1037.6484"/><rect fill="#FFFFFF" filter="url(#f13gvq1x3l0a3r)" height="29.1328" style="stroke:#A80036;stroke-width:1.0;" width="10" x="941.5" y="569.0469"/><rect fill="#FFFFFF" filter="url(#f13gvq1x3l0a3r)" height="29.1328" style="stroke:#A80036;stroke-width:1.0;" width="10" x="941.5" y="700.3828"/><rect fill="#FFFFFF" filter="url(#f13gvq1x3l0a3r)" height="29.1328" style="stroke:#A80036;stroke-width:1.0;" width="10" x="941.5" y="831.7188"/><rect fill="#FFFFFF" filter="url(#f13gvq1x3l0a3r)" height="29.1328" style="stroke:#A80036;stroke-width:1.0;" width="10" x="941.5" y="1120.0469"/><rect fill="#FFFFFF" filter="url(#f13gvq1x3l0a3r)" height="29.1328" style="stroke:#A80036;stroke-width:1.0;" width="10" x="941.5" y="1378.125"/><rect fill="#FFFFFF" filter="url(#f13gvq1x3l0a3r)" height="14" style="stroke:#A80036;stroke-width:1.0;" width="10" x="1130" y="207.0938"/><rect fill="#FFFFFF" filter="url(#f13gvq1x3l0a3r)" height="14" style="stroke:#A80036;stroke-width:1.0;" width="10" x="1130" y="265.0313"/><rect fill="#FFFFFF" filter="url(#f13gvq1x3l0a3r)" height="14" style="stroke:#A80036;stroke-width:1.0;" width="10" x="1130" y="1178.3125"/><rect fill="#FFFFFF" filter="url(#f13gvq1x3l0a3r)" height="14" style="stroke:#A80036;stroke-width:1.0;" width="10" x="1130" y="1320.1875"/><rect fill="#FFFFFF" filter="url(#f13gvq1x3l0a3r)" height="14" style="stroke:#A80036;stroke-width:1.0;" width="10" x="1130" y="1436.3906"/><rect fill="#FFFFFF" filter="url(#f13gvq1x3l0a3r)" height="14" style="stroke:#A80036;stroke-width:1.0;" width="10" x="1130" y="1494.3281"/><rect fill="#FFFFFF" filter="url(#f13gvq1x3l0a3r)" height="14" style="stroke:#A80036;stroke-width:1.0;" width="10" x="1130" y="1676.6641"/><rect fill="#FFFFFF" filter="url(#f13gvq1x3l0a3r)" height="29.1328" style="stroke:#A80036;stroke-width:1.0;" width="10" x="1327.5" y="438.0391"/><rect fill="#FFFFFF" filter="url(#f13gvq1x3l0a3r)" height="14" style="stroke:#A80036;stroke-width:1.0;" width="10" x="1327.5" y="511.1094"/><rect fill="#FFFFFF" filter="url(#f13gvq1x3l0a3r)" height="29.1328" style="stroke:#A80036;stroke-width:1.0;" width="10" x="1327.5" y="627.3125"/><rect fill="#FFFFFF" filter="url(#f13gvq1x3l0a3r)" height="29.1328" style="stroke:#A80036;stroke-width:1.0;" width="10" x="1327.5" y="758.6484"/><rect fill="#FFFFFF" filter="url(#f13gvq1x3l0a3r)" height="29.1328" style="stroke:#A80036;stroke-width:1.0;" width="10" x="1327.5" y="889.9844"/><rect fill="#FFFFFF" filter="url(#f13gvq1x3l0a3r)" height="14" style="stroke:#A80036;stroke-width:1.0;" width="10" x="1515.5" y="1618.7266"/><rect fill="#FFFFFF" filter="url(#f13gvq1x3l0a3r)" height="14" style="stroke:#A80036;stroke-width:1.0;" width="10" x="1705" y="1575.5938"/><polygon fill="#A80036" points="200,67.4297,210,71.4297,200,75.4297,204,71.4297" style="stroke:#A80036;stroke-width:1.0;"/><line style="stroke:#A80036;stroke-width:1.0;" x1="0" x2="206" y1="71.4297" y2="71.4297"/><text fill="#000000" font-family="sans-serif" font-size="13" lengthAdjust="spacing" textLength="193" x="7" y="66.3638">actionPerformed(actionEvent)</text><polygon fill="#A80036" points="653,96.5625,663,100.5625,653,104.5625,657,100.5625" style="stroke:#A80036;stroke-width:1.0;"/><line style="stroke:#A80036;stroke-width:1.0;" x1="222" x2="659" y1="100.5625" y2="100.5625"/><text fill="#000000" font-family="sans-serif" font-size="13" lengthAdjust="spacing" textLength="138" x="229" y="95.4966">getActionCommand()</text><polygon fill="#A80036" points="233,125.6953,223,129.6953,233,133.6953,229,129.6953" style="stroke:#A80036;stroke-width:1.0;"/><line style="stroke:#A80036;stroke-width:1.0;stroke-dasharray:2.0,2.0;" x1="227" x2="669" y1="129.6953" y2="129.6953"/><text fill="#000000" font-family="sans-serif" font-size="13" lengthAdjust="spacing" textLength="65" x="239" y="124.6294">command</text><path d="M110,144.6953 L176,144.6953 L176,151.6953 L166,161.6953 L110,161.6953 L110,144.6953 " fill="#EEEEEE" style="stroke:#000000;stroke-width:1.0;"/><rect fill="none" height="1560.9688" style="stroke:#000000;stroke-width:2.0;" width="1714.5" x="110" y="144.6953"/><text fill="#000000" font-family="sans-serif" font-size="13" font-weight="bold" lengthAdjust="spacing" textLength="21" x="125" y="157.7622">alt</text><text fill="#000000" font-family="sans-serif" font-size="11" font-weight="bold" lengthAdjust="spacing" textLength="405" x="191" y="156.9058">[command starts with "quit" or "startGame" or "enterMenu"]</text><path d="M130,168.8281 L196,168.8281 L196,175.8281 L186,185.8281 L130,185.8281 L130,168.8281 " fill="#EEEEEE" style="stroke:#000000;stroke-width:1.0;"/><rect fill="none" height="202.1406" style="stroke:#000000;stroke-width:2.0;" width="1109.5" x="130" y="168.8281"/><text fill="#000000" font-family="sans-serif" font-size="13" font-weight="bold" lengthAdjust="spacing" textLength="21" x="145" y="181.895">alt</text><text fill="#000000" font-family="sans-serif" font-size="11" font-weight="bold" lengthAdjust="spacing" textLength="240" x="211" y="181.0386">[command starts with "startGame"]</text><polygon fill="#A80036" points="1118,203.0938,1128,207.0938,1118,211.0938,1122,207.0938" style="stroke:#A80036;stroke-width:1.0;"/><line style="stroke:#A80036;stroke-width:1.0;" x1="222" x2="1124" y1="207.0938" y2="207.0938"/><text fill="#000000" font-family="sans-serif" font-size="13" lengthAdjust="spacing" textLength="171" x="229" y="202.0278">switchPanel(inGamePanel)</text><polygon fill="#A80036" points="233,217.0938,223,221.0938,233,225.0938,229,221.0938" style="stroke:#A80036;stroke-width:1.0;"/><line style="stroke:#A80036;stroke-width:1.0;stroke-dasharray:2.0,2.0;" x1="227" x2="1134" y1="221.0938" y2="221.0938"/><line style="stroke:#000000;stroke-width:1.0;stroke-dasharray:2.0,2.0;" x1="130" x2="1239.5" y1="230.0938" y2="230.0938"/><text fill="#000000" font-family="sans-serif" font-size="11" font-weight="bold" lengthAdjust="spacing" textLength="239" x="135" y="240.3042">[command starts with "enterMenu"]</text><polygon fill="#A80036" points="1118,261.0313,1128,265.0313,1118,269.0313,1122,265.0313" style="stroke:#A80036;stroke-width:1.0;"/><line style="stroke:#A80036;stroke-width:1.0;" x1="222" x2="1124" y1="265.0313" y2="265.0313"/><text fill="#000000" font-family="sans-serif" font-size="13" lengthAdjust="spacing" textLength="187" x="229" y="259.9653">switchPanel(mainMenuPanel)</text><polygon fill="#A80036" points="233,275.0313,223,279.0313,233,283.0313,229,279.0313" style="stroke:#A80036;stroke-width:1.0;"/><line style="stroke:#A80036;stroke-width:1.0;stroke-dasharray:2.0,2.0;" x1="227" x2="1134" y1="279.0313" y2="279.0313"/><line style="stroke:#000000;stroke-width:1.0;stroke-dasharray:2.0,2.0;" x1="130" x2="1239.5" y1="288.0313" y2="288.0313"/><text fill="#000000" font-family="sans-serif" font-size="11" font-weight="bold" lengthAdjust="spacing" textLength="194" x="135" y="298.2417">[command starts with "quit"]</text><line style="stroke:#A80036;stroke-width:1.0;" x1="222" x2="269" y1="317.9688" y2="317.9688"/><line style="stroke:#A80036;stroke-width:1.0;" x1="269" x2="269" y1="317.9688" y2="330.9688"/><line style="stroke:#A80036;stroke-width:1.0;" x1="228" x2="269" y1="330.9688" y2="330.9688"/><polygon fill="#A80036" points="238,326.9688,228,330.9688,238,334.9688,234,330.9688" style="stroke:#A80036;stroke-width:1.0;"/><text fill="#000000" font-family="sans-serif" font-size="13" lengthAdjust="spacing" textLength="34" x="234" y="312.9028">quit()</text><line style="stroke:#A80036;stroke-width:1.0;stroke-dasharray:2.0,2.0;" x1="227" x2="269" y1="354.9688" y2="354.9688"/><line style="stroke:#A80036;stroke-width:1.0;stroke-dasharray:2.0,2.0;" x1="269" x2="269" y1="354.9688" y2="367.9688"/><line style="stroke:#A80036;stroke-width:1.0;stroke-dasharray:2.0,2.0;" x1="222" x2="269" y1="367.9688" y2="367.9688"/><polygon fill="#A80036" points="232,363.9688,222,367.9688,232,371.9688,228,367.9688" style="stroke:#A80036;stroke-width:1.0;"/><line style="stroke:#000000;stroke-width:1.0;stroke-dasharray:2.0,2.0;" x1="110" x2="1824.5" y1="378.9688" y2="378.9688"/><text fill="#000000" font-family="sans-serif" font-size="11" font-weight="bold" lengthAdjust="spacing" textLength="37" x="115" y="389.1792">[else]</text><path d="M130,399.7734 L196,399.7734 L196,406.7734 L186,416.7734 L130,416.7734 L130,399.7734 " fill="#EEEEEE" style="stroke:#000000;stroke-width:1.0;"/><rect fill="none" height="527.3438" style="stroke:#000000;stroke-width:2.0;" width="1305.5" x="130" y="399.7734"/><text fill="#000000" font-family="sans-serif" font-size="13" font-weight="bold" lengthAdjust="spacing" textLength="21" x="145" y="412.8403">alt</text><text fill="#000000" font-family="sans-serif" font-size="11" font-weight="bold" lengthAdjust="spacing" textLength="205" x="211" y="411.9839">[command starts with "mine_"]</text><polygon fill="#A80036" points="1315.5,434.0391,1325.5,438.0391,1315.5,442.0391,1319.5,438.0391" style="stroke:#A80036;stroke-width:1.0;"/><line style="stroke:#A80036;stroke-width:1.0;" x1="222" x2="1321.5" y1="438.0391" y2="438.0391"/><text fill="#000000" font-family="sans-serif" font-size="13" lengthAdjust="spacing" textLength="42" x="229" y="432.9731">mine()</text><polygon fill="#A80036" points="233,463.1719,223,467.1719,233,471.1719,229,467.1719" style="stroke:#A80036;stroke-width:1.0;"/><line style="stroke:#A80036;stroke-width:1.0;stroke-dasharray:2.0,2.0;" x1="227" x2="1331.5" y1="467.1719" y2="467.1719"/><text fill="#000000" font-family="sans-serif" font-size="13" lengthAdjust="spacing" textLength="95" x="239" y="462.106">miningSuccess</text><line style="stroke:#000000;stroke-width:1.0;stroke-dasharray:2.0,2.0;" x1="130" x2="1435.5" y1="476.1719" y2="476.1719"/><text fill="#000000" font-family="sans-serif" font-size="11" font-weight="bold" lengthAdjust="spacing" textLength="199" x="135" y="486.3823">[command starts with "drill_"]</text><polygon fill="#A80036" points="1315.5,507.1094,1325.5,511.1094,1315.5,515.1094,1319.5,511.1094" style="stroke:#A80036;stroke-width:1.0;"/><line style="stroke:#A80036;stroke-width:1.0;" x1="222" x2="1321.5" y1="511.1094" y2="511.1094"/><text fill="#000000" font-family="sans-serif" font-size="13" lengthAdjust="spacing" textLength="32" x="229" y="506.0435">drill()</text><polygon fill="#A80036" points="233,521.1094,223,525.1094,233,529.1094,229,525.1094" style="stroke:#A80036;stroke-width:1.0;"/><line style="stroke:#A80036;stroke-width:1.0;stroke-dasharray:2.0,2.0;" x1="227" x2="1331.5" y1="525.1094" y2="525.1094"/><line style="stroke:#000000;stroke-width:1.0;stroke-dasharray:2.0,2.0;" x1="130" x2="1435.5" y1="534.1094" y2="534.1094"/><text fill="#000000" font-family="sans-serif" font-size="11" font-weight="bold" lengthAdjust="spacing" textLength="239" x="135" y="544.3198">[command starts with "placeItem_"]</text><polygon fill="#A80036" points="929.5,565.0469,939.5,569.0469,929.5,573.0469,933.5,569.0469" style="stroke:#A80036;stroke-width:1.0;"/><line style="stroke:#A80036;stroke-width:1.0;" x1="222" x2="935.5" y1="569.0469" y2="569.0469"/><text fill="#000000" font-family="sans-serif" font-size="13" lengthAdjust="spacing" textLength="172" x="229" y="563.981">getMaterial(command[10:]</text><polygon fill="#A80036" points="233,594.1797,223,598.1797,233,602.1797,229,598.1797" style="stroke:#A80036;stroke-width:1.0;"/><line style="stroke:#A80036;stroke-width:1.0;stroke-dasharray:2.0,2.0;" x1="227" x2="945.5" y1="598.1797" y2="598.1797"/><text fill="#000000" font-family="sans-serif" font-size="13" lengthAdjust="spacing" textLength="13" x="239" y="593.1138">m</text><polygon fill="#A80036" points="1315.5,623.3125,1325.5,627.3125,1315.5,631.3125,1319.5,627.3125" style="stroke:#A80036;stroke-width:1.0;"/><line style="stroke:#A80036;stroke-width:1.0;" x1="222" x2="1321.5" y1="627.3125" y2="627.3125"/><text fill="#000000" font-family="sans-serif" font-size="13" lengthAdjust="spacing" textLength="107" x="229" y="622.2466">placeMaterial(m)</text><polygon fill="#A80036" points="233,652.4453,223,656.4453,233,660.4453,229,656.4453" style="stroke:#A80036;stroke-width:1.0;"/><line style="stroke:#A80036;stroke-width:1.0;stroke-dasharray:2.0,2.0;" x1="227" x2="1331.5" y1="656.4453" y2="656.4453"/><text fill="#000000" font-family="sans-serif" font-size="13" lengthAdjust="spacing" textLength="51" x="239" y="651.3794">success</text><line style="stroke:#000000;stroke-width:1.0;stroke-dasharray:2.0,2.0;" x1="130" x2="1435.5" y1="665.4453" y2="665.4453"/><text fill="#000000" font-family="sans-serif" font-size="11" font-weight="bold" lengthAdjust="spacing" textLength="267" x="135" y="675.6558">[command starts with "placeTeleport_"]</text><polygon fill="#A80036" points="929.5,696.3828,939.5,700.3828,929.5,704.3828,933.5,700.3828" style="stroke:#A80036;stroke-width:1.0;"/><line style="stroke:#A80036;stroke-width:1.0;" x1="222" x2="935.5" y1="700.3828" y2="700.3828"/><text fill="#000000" font-family="sans-serif" font-size="13" lengthAdjust="spacing" textLength="180" x="229" y="695.3169">getTeleport(command[14:])</text><polygon fill="#A80036" points="233,725.5156,223,729.5156,233,733.5156,229,729.5156" style="stroke:#A80036;stroke-width:1.0;"/><line style="stroke:#A80036;stroke-width:1.0;stroke-dasharray:2.0,2.0;" x1="227" x2="945.5" y1="729.5156" y2="729.5156"/><text fill="#000000" font-family="sans-serif" font-size="13" lengthAdjust="spacing" textLength="5" x="239" y="724.4497">t</text><polygon fill="#A80036" points="1315.5,754.6484,1325.5,758.6484,1315.5,762.6484,1319.5,758.6484" style="stroke:#A80036;stroke-width:1.0;"/><line style="stroke:#A80036;stroke-width:1.0;" x1="222" x2="1321.5" y1="758.6484" y2="758.6484"/><text fill="#000000" font-family="sans-serif" font-size="13" lengthAdjust="spacing" textLength="102" x="229" y="753.5825">placeTeleport(t)</text><polygon fill="#A80036" points="233,783.7813,223,787.7813,233,791.7813,229,787.7813" style="stroke:#A80036;stroke-width:1.0;"/><line style="stroke:#A80036;stroke-width:1.0;stroke-dasharray:2.0,2.0;" x1="227" x2="1331.5" y1="787.7813" y2="787.7813"/><text fill="#000000" font-family="sans-serif" font-size="13" lengthAdjust="spacing" textLength="51" x="239" y="782.7153">success</text><line style="stroke:#000000;stroke-width:1.0;stroke-dasharray:2.0,2.0;" x1="130" x2="1435.5" y1="796.7813" y2="796.7813"/><text fill="#000000" font-family="sans-serif" font-size="11" font-weight="bold" lengthAdjust="spacing" textLength="209" x="135" y="806.9917">[command starts with "move_"]</text><polygon fill="#A80036" points="929.5,827.7188,939.5,831.7188,929.5,835.7188,933.5,831.7188" style="stroke:#A80036;stroke-width:1.0;"/><line style="stroke:#A80036;stroke-width:1.0;" x1="222" x2="935.5" y1="831.7188" y2="831.7188"/><text fill="#000000" font-family="sans-serif" font-size="13" lengthAdjust="spacing" textLength="194" x="229" y="826.6528">getTransporter(command[5:])</text><polygon fill="#A80036" points="233,856.8516,223,860.8516,233,864.8516,229,860.8516" style="stroke:#A80036;stroke-width:1.0;"/><line style="stroke:#A80036;stroke-width:1.0;stroke-dasharray:2.0,2.0;" x1="227" x2="945.5" y1="860.8516" y2="860.8516"/><text fill="#000000" font-family="sans-serif" font-size="13" lengthAdjust="spacing" textLength="10" x="239" y="855.7856">tr</text><polygon fill="#A80036" points="1315.5,885.9844,1325.5,889.9844,1315.5,893.9844,1319.5,889.9844" style="stroke:#A80036;stroke-width:1.0;"/><line style="stroke:#A80036;stroke-width:1.0;" x1="222" x2="1321.5" y1="889.9844" y2="889.9844"/><text fill="#000000" font-family="sans-serif" font-size="13" lengthAdjust="spacing" textLength="57" x="229" y="884.9185">move(tr)</text><polygon fill="#A80036" points="233,915.1172,223,919.1172,233,923.1172,229,919.1172" style="stroke:#A80036;stroke-width:1.0;"/><line style="stroke:#A80036;stroke-width:1.0;stroke-dasharray:2.0,2.0;" x1="227" x2="1331.5" y1="919.1172" y2="919.1172"/><text fill="#000000" font-family="sans-serif" font-size="13" lengthAdjust="spacing" textLength="51" x="239" y="914.0513">success</text><polygon fill="#A80036" points="801,951.25,811,955.25,801,959.25,805,955.25" style="stroke:#A80036;stroke-width:1.0;"/><line style="stroke:#A80036;stroke-width:1.0;" x1="222" x2="807" y1="955.25" y2="955.25"/><text fill="#000000" font-family="sans-serif" font-size="13" lengthAdjust="spacing" textLength="47" x="229" y="950.1841">round()</text><polygon fill="#A80036" points="233,980.3828,223,984.3828,233,988.3828,229,984.3828" style="stroke:#A80036;stroke-width:1.0;"/><line style="stroke:#A80036;stroke-width:1.0;stroke-dasharray:2.0,2.0;" x1="227" x2="817" y1="984.3828" y2="984.3828"/><text fill="#000000" font-family="sans-serif" font-size="13" lengthAdjust="spacing" textLength="86" x="239" y="979.3169">settlerToStep</text><path d="M120,999.3828 L198,999.3828 L198,1006.3828 L188,1016.3828 L120,1016.3828 L120,999.3828 " fill="#EEEEEE" style="stroke:#000000;stroke-width:1.0;"/><rect fill="none" height="523.9453" style="stroke:#000000;stroke-width:2.0;" width="1129.5" x="120" y="999.3828"/><text fill="#000000" font-family="sans-serif" font-size="13" font-weight="bold" lengthAdjust="spacing" textLength="33" x="135" y="1012.4497">loop</text><text fill="#000000" font-family="sans-serif" font-size="11" font-weight="bold" lengthAdjust="spacing" textLength="160" x="213" y="1011.5933">[while Game hasEvent()]</text><polygon fill="#A80036" points="801,1033.6484,811,1037.6484,801,1041.6484,805,1037.6484" style="stroke:#A80036;stroke-width:1.0;"/><line style="stroke:#A80036;stroke-width:1.0;" x1="222" x2="807" y1="1037.6484" y2="1037.6484"/><text fill="#000000" font-family="sans-serif" font-size="13" lengthAdjust="spacing" textLength="68" x="229" y="1032.5825">getEvent()</text><polygon fill="#A80036" points="233,1062.7813,223,1066.7813,233,1070.7813,229,1066.7813" style="stroke:#A80036;stroke-width:1.0;"/><line style="stroke:#A80036;stroke-width:1.0;stroke-dasharray:2.0,2.0;" x1="227" x2="817" y1="1066.7813" y2="1066.7813"/><text fill="#000000" font-family="sans-serif" font-size="13" lengthAdjust="spacing" textLength="37" x="239" y="1061.7153">event</text><path d="M130,1081.7813 L196,1081.7813 L196,1088.7813 L186,1098.7813 L130,1098.7813 L130,1081.7813 " fill="#EEEEEE" style="stroke:#000000;stroke-width:1.0;"/><rect fill="none" height="434.5469" style="stroke:#000000;stroke-width:2.0;" width="1109.5" x="130" y="1081.7813"/><text fill="#000000" font-family="sans-serif" font-size="13" font-weight="bold" lengthAdjust="spacing" textLength="21" x="145" y="1094.8481">alt</text><text fill="#000000" font-family="sans-serif" font-size="11" font-weight="bold" lengthAdjust="spacing" textLength="180" x="211" y="1093.9917">[event type is settler died]</text><polygon fill="#A80036" points="929.5,1116.0469,939.5,1120.0469,929.5,1124.0469,933.5,1120.0469" style="stroke:#A80036;stroke-width:1.0;"/><line style="stroke:#A80036;stroke-width:1.0;" x1="222" x2="935.5" y1="1120.0469" y2="1120.0469"/><text fill="#000000" font-family="sans-serif" font-size="13" lengthAdjust="spacing" textLength="132" x="229" y="1114.981">getSettlerID(subject)</text><polygon fill="#A80036" points="233,1145.1797,223,1149.1797,233,1153.1797,229,1149.1797" style="stroke:#A80036;stroke-width:1.0;"/><line style="stroke:#A80036;stroke-width:1.0;stroke-dasharray:2.0,2.0;" x1="227" x2="945.5" y1="1149.1797" y2="1149.1797"/><text fill="#000000" font-family="sans-serif" font-size="13" lengthAdjust="spacing" textLength="54" x="239" y="1144.1138">settlerID</text><polygon fill="#A80036" points="1118,1174.3125,1128,1178.3125,1118,1182.3125,1122,1178.3125" style="stroke:#A80036;stroke-width:1.0;"/><line style="stroke:#A80036;stroke-width:1.0;" x1="222" x2="1124" y1="1178.3125" y2="1178.3125"/><text fill="#000000" font-family="sans-serif" font-size="13" lengthAdjust="spacing" textLength="329" x="229" y="1173.2466">displayMessage("Settler " + settlerID +" Has Died!")</text><polygon fill="#A80036" points="233,1188.3125,223,1192.3125,233,1196.3125,229,1192.3125" style="stroke:#A80036;stroke-width:1.0;"/><line style="stroke:#A80036;stroke-width:1.0;stroke-dasharray:2.0,2.0;" x1="227" x2="1134" y1="1192.3125" y2="1192.3125"/><line style="stroke:#000000;stroke-width:1.0;stroke-dasharray:2.0,2.0;" x1="130" x2="1239.5" y1="1201.3125" y2="1201.3125"/><text fill="#000000" font-family="sans-serif" font-size="11" font-weight="bold" lengthAdjust="spacing" textLength="168" x="135" y="1211.5229">[event type is game won]</text><line style="stroke:#A80036;stroke-width:1.0;" x1="222" x2="269" y1="1231.25" y2="1231.25"/><line style="stroke:#A80036;stroke-width:1.0;" x1="269" x2="269" y1="1231.25" y2="1244.25"/><line style="stroke:#A80036;stroke-width:1.0;" x1="228" x2="269" y1="1244.25" y2="1244.25"/><polygon fill="#A80036" points="238,1240.25,228,1244.25,238,1248.25,234,1244.25" style="stroke:#A80036;stroke-width:1.0;"/><text fill="#000000" font-family="sans-serif" font-size="13" lengthAdjust="spacing" textLength="429" x="234" y="1226.1841">displayMessage("Base Built, Game Won! Returning To Main Menu.")</text><line style="stroke:#A80036;stroke-width:1.0;stroke-dasharray:2.0,2.0;" x1="227" x2="269" y1="1268.25" y2="1268.25"/><line style="stroke:#A80036;stroke-width:1.0;stroke-dasharray:2.0,2.0;" x1="269" x2="269" y1="1268.25" y2="1281.25"/><line style="stroke:#A80036;stroke-width:1.0;stroke-dasharray:2.0,2.0;" x1="222" x2="269" y1="1281.25" y2="1281.25"/><polygon fill="#A80036" points="232,1277.25,222,1281.25,232,1285.25,228,1281.25" style="stroke:#A80036;stroke-width:1.0;"/><line style="stroke:#000000;stroke-width:1.0;stroke-dasharray:2.0,2.0;" x1="130" x2="1239.5" y1="1285.25" y2="1285.25"/><text fill="#000000" font-family="sans-serif" font-size="11" font-weight="bold" lengthAdjust="spacing" textLength="168" x="135" y="1295.4604">[event type is game lost]</text><polygon fill="#A80036" points="1118,1316.1875,1128,1320.1875,1118,1324.1875,1122,1320.1875" style="stroke:#A80036;stroke-width:1.0;"/><line style="stroke:#A80036;stroke-width:1.0;" x1="222" x2="1124" y1="1320.1875" y2="1320.1875"/><text fill="#000000" font-family="sans-serif" font-size="13" lengthAdjust="spacing" textLength="357" x="229" y="1315.1216">displayMessage("Game Lost! Returning To Main Menu.")</text><polygon fill="#A80036" points="233,1330.1875,223,1334.1875,233,1338.1875,229,1334.1875" style="stroke:#A80036;stroke-width:1.0;"/><line style="stroke:#A80036;stroke-width:1.0;stroke-dasharray:2.0,2.0;" x1="227" x2="1134" y1="1334.1875" y2="1334.1875"/><line style="stroke:#000000;stroke-width:1.0;stroke-dasharray:2.0,2.0;" x1="130" x2="1239.5" y1="1343.1875" y2="1343.1875"/><text fill="#000000" font-family="sans-serif" font-size="11" font-weight="bold" lengthAdjust="spacing" textLength="222" x="135" y="1353.3979">[event type is asteroid exploded]</text><polygon fill="#A80036" points="929.5,1374.125,939.5,1378.125,929.5,1382.125,933.5,1378.125" style="stroke:#A80036;stroke-width:1.0;"/><line style="stroke:#A80036;stroke-width:1.0;" x1="222" x2="935.5" y1="1378.125" y2="1378.125"/><text fill="#000000" font-family="sans-serif" font-size="13" lengthAdjust="spacing" textLength="143" x="229" y="1373.0591">getAsteroidID(subject)</text><polygon fill="#A80036" points="233,1403.2578,223,1407.2578,233,1411.2578,229,1407.2578" style="stroke:#A80036;stroke-width:1.0;"/><line style="stroke:#A80036;stroke-width:1.0;stroke-dasharray:2.0,2.0;" x1="227" x2="945.5" y1="1407.2578" y2="1407.2578"/><text fill="#000000" font-family="sans-serif" font-size="13" lengthAdjust="spacing" textLength="65" x="239" y="1402.1919">asteroidID</text><polygon fill="#A80036" points="1118,1432.3906,1128,1436.3906,1118,1440.3906,1122,1436.3906" style="stroke:#A80036;stroke-width:1.0;"/><line style="stroke:#A80036;stroke-width:1.0;" x1="222" x2="1124" y1="1436.3906" y2="1436.3906"/><text fill="#000000" font-family="sans-serif" font-size="13" lengthAdjust="spacing" textLength="381" x="229" y="1431.3247">displayMessage("Asteroid " + asteroidID +" Has Exploded!")</text><polygon fill="#A80036" points="233,1446.3906,223,1450.3906,233,1454.3906,229,1450.3906" style="stroke:#A80036;stroke-width:1.0;"/><line style="stroke:#A80036;stroke-width:1.0;stroke-dasharray:2.0,2.0;" x1="227" x2="1134" y1="1450.3906" y2="1450.3906"/><line style="stroke:#000000;stroke-width:1.0;stroke-dasharray:2.0,2.0;" x1="130" x2="1239.5" y1="1459.3906" y2="1459.3906"/><text fill="#000000" font-family="sans-serif" font-size="11" font-weight="bold" lengthAdjust="spacing" textLength="165" x="135" y="1469.6011">[event type is sunstorm]</text><polygon fill="#A80036" points="1118,1490.3281,1128,1494.3281,1118,1498.3281,1122,1494.3281" style="stroke:#A80036;stroke-width:1.0;"/><line style="stroke:#A80036;stroke-width:1.0;" x1="222" x2="1124" y1="1494.3281" y2="1494.3281"/><text fill="#000000" font-family="sans-serif" font-size="13" lengthAdjust="spacing" textLength="373" x="229" y="1489.2622">displayMessage("A Sun Storm Has Hit The Asteroid Field!")</text><polygon fill="#A80036" points="233,1504.3281,223,1508.3281,233,1512.3281,229,1508.3281" style="stroke:#A80036;stroke-width:1.0;"/><line style="stroke:#A80036;stroke-width:1.0;stroke-dasharray:2.0,2.0;" x1="227" x2="1134" y1="1508.3281" y2="1508.3281"/><path d="M130,1537.3281 L196,1537.3281 L196,1544.3281 L186,1554.3281 L130,1554.3281 L130,1537.3281 " fill="#EEEEEE" style="stroke:#000000;stroke-width:1.0;"/><rect fill="none" height="161.3359" style="stroke:#000000;stroke-width:2.0;" width="1684.5" x="130" y="1537.3281"/><text fill="#000000" font-family="sans-serif" font-size="13" font-weight="bold" lengthAdjust="spacing" textLength="21" x="145" y="1550.395">alt</text><text fill="#000000" font-family="sans-serif" font-size="11" font-weight="bold" lengthAdjust="spacing" textLength="331" x="211" y="1549.5386">[Game is still running and settlerToStep not null]</text><polygon fill="#A80036" points="1693,1571.5938,1703,1575.5938,1693,1579.5938,1697,1575.5938" style="stroke:#A80036;stroke-width:1.0;"/><line style="stroke:#A80036;stroke-width:1.0;" x1="222" x2="1699" y1="1575.5938" y2="1575.5938"/><text fill="#000000" font-family="sans-serif" font-size="13" lengthAdjust="spacing" textLength="141" x="229" y="1570.5278">update(settlerToStep)</text><polygon fill="#A80036" points="233,1585.5938,223,1589.5938,233,1593.5938,229,1589.5938" style="stroke:#A80036;stroke-width:1.0;"/><line style="stroke:#A80036;stroke-width:1.0;stroke-dasharray:2.0,2.0;" x1="227" x2="1709" y1="1589.5938" y2="1589.5938"/><polygon fill="#A80036" points="1503.5,1614.7266,1513.5,1618.7266,1503.5,1622.7266,1507.5,1618.7266" style="stroke:#A80036;stroke-width:1.0;"/><line style="stroke:#A80036;stroke-width:1.0;" x1="222" x2="1509.5" y1="1618.7266" y2="1618.7266"/><text fill="#000000" font-family="sans-serif" font-size="13" lengthAdjust="spacing" textLength="141" x="229" y="1613.6606">update(settlerToStep)</text><polygon fill="#A80036" points="233,1628.7266,223,1632.7266,233,1636.7266,229,1632.7266" style="stroke:#A80036;stroke-width:1.0;"/><line style="stroke:#A80036;stroke-width:1.0;stroke-dasharray:2.0,2.0;" x1="227" x2="1519.5" y1="1632.7266" y2="1632.7266"/><line style="stroke:#000000;stroke-width:1.0;stroke-dasharray:2.0,2.0;" x1="130" x2="1814.5" y1="1641.7266" y2="1641.7266"/><text fill="#000000" font-family="sans-serif" font-size="11" font-weight="bold" lengthAdjust="spacing" textLength="37" x="135" y="1651.937">[else]</text><polygon fill="#A80036" points="1118,1672.6641,1128,1676.6641,1118,1680.6641,1122,1676.6641" style="stroke:#A80036;stroke-width:1.0;"/><line style="stroke:#A80036;stroke-width:1.0;" x1="222" x2="1124" y1="1676.6641" y2="1676.6641"/><text fill="#000000" font-family="sans-serif" font-size="13" lengthAdjust="spacing" textLength="187" x="229" y="1671.5981">switchPanel(mainMenuPanel)</text><polygon fill="#A80036" points="233,1686.6641,223,1690.6641,233,1694.6641,229,1690.6641" style="stroke:#A80036;stroke-width:1.0;"/><line style="stroke:#A80036;stroke-width:1.0;stroke-dasharray:2.0,2.0;" x1="227" x2="1134" y1="1690.6641" y2="1690.6641"/><polygon fill="#A80036" points="11,1714.6641,1,1718.6641,11,1722.6641,7,1718.6641" style="stroke:#A80036;stroke-width:1.0;"/><line style="stroke:#A80036;stroke-width:1.0;stroke-dasharray:2.0,2.0;" x1="5" x2="216" y1="1718.6641" y2="1718.6641"/><!--MD5=[da3c59c09c98e286610eaa0674bde9dd]
@startuml
participant "ic : InputController" as igp
    participant "actionEvent : ActionEvent" as actionEvent

    participant " :Game" as game
    participant " :CommandDatabase" as cmdDatBase 
    participant "mainFrame : MainFrame" as mainFrame
    participant "currentSettler : Settler" as currentSettler
    
    participant "sip : SettlerInfoPanel" as sip
    participant "afp : AsteroidFieldPanel" as afp
    
    [->igp ++: actionPerformed(actionEvent)
    
    igp->actionEvent ++: getActionCommand()
    return command
    
    
    alt command starts with "quit" or "startGame" or "enterMenu"
    
    
    alt command starts with "startGame"
        igp->mainFrame ++: switchPanel(inGamePanel)
        return
    else command starts with "enterMenu"
        igp->mainFrame ++: switchPanel(mainMenuPanel)
        return
    else command starts with "quit"
        igp->igp ++:quit()
        return
    end
    
    else else
    
    
    alt command starts with "mine_"
        igp->currentSettler ++: mine()
        return miningSuccess
    else command starts with "drill_"
        igp->currentSettler ++: drill()
        return
    else command starts with "placeItem_"
        igp->cmdDatBase ++:getMaterial(command[10:]
        return m
        igp->currentSettler ++: placeMaterial(m)
        return success
    else command starts with "placeTeleport_"
        igp->cmdDatBase ++:getTeleport(command[14:])
        return t
        igp->currentSettler ++: placeTeleport(t)
        return success
    else command starts with "move_"
        igp->cmdDatBase ++:getTransporter(command[5:])
        return tr
        igp->currentSettler ++: move(tr)
        return success
    
    end
    

    
    igp->game ++:round()
    return settlerToStep
    
    loop while Game hasEvent()
        igp->game ++:getEvent()
        return event
        
        alt event type is settler died
            igp-> cmdDatBase ++: getSettlerID(subject)
            return settlerID
            igp->mainFrame ++: displayMessage("Settler " + settlerID +" Has Died!")
            return
        else  event type is game won
            igp->igp ++: displayMessage("Base Built, Game Won! Returning To Main Menu.")
            return
        else event type is game lost
            igp->mainFrame ++: displayMessage("Game Lost! Returning To Main Menu.")
            return
        else event type is asteroid exploded
            igp-> cmdDatBase ++: getAsteroidID(subject)
            return asteroidID
            igp->mainFrame ++: displayMessage("Asteroid " + asteroidID +" Has Exploded!")
            return
        else event type is sunstorm
            igp->mainFrame ++: displayMessage("A Sun Storm Has Hit The Asteroid Field!")
            return
        end
    end
    
    alt Game is still running and settlerToStep not null
        igp->afp ++: update(settlerToStep)
        return
        igp->sip ++: update(settlerToStep)
        return
    else else
        igp->mainFrame ++: switchPanel(mainMenuPanel)
        return
    end
    
    
        
    end
    
    return
@enduml

PlantUML version 1.2021.5beta3(Unknown compile time)
(GPL source distribution)
Java Runtime: Java(TM) SE Runtime Environment
JVM: Java HotSpot(TM) 64-Bit Server VM
Default Encoding: UTF-8
Language: en
Country: US
--></g></svg>