<?xml version="1.0" encoding="UTF-8" standalone="no"?><svg xmlns="http://www.w3.org/2000/svg" xmlns:xlink="http://www.w3.org/1999/xlink" contentScriptType="application/ecmascript" contentStyleType="text/css" height="1484px" preserveAspectRatio="none" style="width:1522px;height:1484px;" version="1.1" viewBox="0 0 1522 1484" width="1522px" zoomAndPan="magnify"><defs><filter height="300%" id="fq5vy0pl6wkgj" width="300%" x="-1" y="-1"><feGaussianBlur result="blurOut" stdDeviation="2.0"/><feColorMatrix in="blurOut" result="blurOut2" type="matrix" values="0 0 0 0 0 0 0 0 0 0 0 0 0 0 0 0 0 0 .4 0"/><feOffset dx="4.0" dy="4.0" in="blurOut2" result="blurOut3"/><feBlend in="SourceGraphic" in2="blurOut3" mode="normal"/></filter></defs><g><rect fill="#FFFFFF" filter="url(#fq5vy0pl6wkgj)" height="1351.5313" style="stroke:#A80036;stroke-width:1.0;" width="10" x="100" y="71.4297"/><rect fill="#FFFFFF" filter="url(#fq5vy0pl6wkgj)" height="25" style="stroke:#A80036;stroke-width:1.0;" width="10" x="105" y="307.4922"/><rect fill="#FFFFFF" filter="url(#fq5vy0pl6wkgj)" height="25" style="stroke:#A80036;stroke-width:1.0;" width="10" x="105" y="376.625"/><rect fill="#FFFFFF" filter="url(#fq5vy0pl6wkgj)" height="25" style="stroke:#A80036;stroke-width:1.0;" width="10" x="105" y="460.5625"/><rect fill="#FFFFFF" filter="url(#fq5vy0pl6wkgj)" height="25" style="stroke:#A80036;stroke-width:1.0;" width="10" x="105" y="529.6953"/><rect fill="#FFFFFF" filter="url(#fq5vy0pl6wkgj)" height="25" style="stroke:#A80036;stroke-width:1.0;" width="10" x="105" y="629.9609"/><rect fill="#FFFFFF" filter="url(#fq5vy0pl6wkgj)" height="25" style="stroke:#A80036;stroke-width:1.0;" width="10" x="105" y="713.8984"/><rect fill="#FFFFFF" filter="url(#fq5vy0pl6wkgj)" height="25" style="stroke:#A80036;stroke-width:1.0;" width="10" x="105" y="814.1641"/><rect fill="#FFFFFF" filter="url(#fq5vy0pl6wkgj)" height="25" style="stroke:#A80036;stroke-width:1.0;" width="10" x="105" y="898.1016"/><rect fill="#FFFFFF" filter="url(#fq5vy0pl6wkgj)" height="29.1328" style="stroke:#A80036;stroke-width:1.0;" width="10" x="368" y="100.5625"/><rect fill="#FFFFFF" filter="url(#fq5vy0pl6wkgj)" height="29.1328" style="stroke:#A80036;stroke-width:1.0;" width="10" x="368" y="158.8281"/><rect fill="#FFFFFF" filter="url(#fq5vy0pl6wkgj)" height="29.1328" style="stroke:#A80036;stroke-width:1.0;" width="10" x="368" y="1247.2969"/><rect fill="#FFFFFF" filter="url(#fq5vy0pl6wkgj)" height="29.1328" style="stroke:#A80036;stroke-width:1.0;" width="10" x="472.5" y="217.0938"/><rect fill="#FFFFFF" filter="url(#fq5vy0pl6wkgj)" height="29.1328" style="stroke:#A80036;stroke-width:1.0;" width="10" x="757" y="1138.8984"/><rect fill="#FFFFFF" filter="url(#fq5vy0pl6wkgj)" height="29.1328" style="stroke:#A80036;stroke-width:1.0;" width="10" x="757" y="1329.6953"/><rect fill="#FFFFFF" filter="url(#fq5vy0pl6wkgj)" height="14" style="stroke:#A80036;stroke-width:1.0;" width="10" x="908" y="990.3672"/><rect fill="#FFFFFF" filter="url(#fq5vy0pl6wkgj)" height="14" style="stroke:#A80036;stroke-width:1.0;" width="10" x="908" y="1064.6328"/><rect fill="#FFFFFF" filter="url(#fq5vy0pl6wkgj)" height="14" style="stroke:#A80036;stroke-width:1.0;" width="10" x="1182.5" y="1197.1641"/><rect fill="#FFFFFF" filter="url(#fq5vy0pl6wkgj)" height="14" style="stroke:#A80036;stroke-width:1.0;" width="10" x="1393.5" y="1387.9609"/><rect fill="#FFFFFF" filter="url(#fq5vy0pl6wkgj)" height="308.4688" style="stroke:#000000;stroke-width:2.0;" width="316" x="10" y="261.2266"/><rect fill="#FFFFFF" height="153.0703" style="stroke:none;stroke-width:1.0;" width="316" x="10" y="416.625"/><rect fill="#FFFFFF" filter="url(#fq5vy0pl6wkgj)" height="170.2031" style="stroke:#000000;stroke-width:2.0;" width="368" x="10" y="583.6953"/><rect fill="#FFFFFF" height="83.9375" style="stroke:none;stroke-width:1.0;" width="368" x="10" y="669.9609"/><rect fill="#FFFFFF" filter="url(#fq5vy0pl6wkgj)" height="170.2031" style="stroke:#000000;stroke-width:2.0;" width="352" x="10" y="767.8984"/><rect fill="#FFFFFF" height="83.9375" style="stroke:none;stroke-width:1.0;" width="352" x="10" y="854.1641"/><rect fill="#FFFFFF" filter="url(#fq5vy0pl6wkgj)" height="60.2656" style="stroke:#000000;stroke-width:2.0;" width="960.5" x="10" y="952.1016"/><rect fill="#FFFFFF" filter="url(#fq5vy0pl6wkgj)" height="60.2656" style="stroke:#000000;stroke-width:2.0;" width="960.5" x="10" y="1026.3672"/><rect fill="#FFFFFF" filter="url(#fq5vy0pl6wkgj)" height="118.5313" style="stroke:#000000;stroke-width:2.0;" width="1288.5" x="10" y="1100.6328"/><rect fill="#FFFFFF" filter="url(#fq5vy0pl6wkgj)" height="118.5313" style="stroke:#000000;stroke-width:2.0;" width="1498.5" x="10" y="1291.4297"/><line style="stroke:#A80036;stroke-width:1.0;stroke-dasharray:5.0,5.0;" x1="105" x2="105" y1="40.2969" y2="1440.9609"/><line style="stroke:#A80036;stroke-width:1.0;stroke-dasharray:5.0,5.0;" x1="372.5" x2="372.5" y1="40.2969" y2="1440.9609"/><line style="stroke:#A80036;stroke-width:1.0;stroke-dasharray:5.0,5.0;" x1="477.5" x2="477.5" y1="40.2969" y2="1440.9609"/><line style="stroke:#A80036;stroke-width:1.0;stroke-dasharray:5.0,5.0;" x1="597.5" x2="597.5" y1="40.2969" y2="1440.9609"/><line style="stroke:#A80036;stroke-width:1.0;stroke-dasharray:5.0,5.0;" x1="761.5" x2="761.5" y1="40.2969" y2="1440.9609"/><line style="stroke:#A80036;stroke-width:1.0;stroke-dasharray:5.0,5.0;" x1="912.5" x2="912.5" y1="40.2969" y2="1440.9609"/><line style="stroke:#A80036;stroke-width:1.0;stroke-dasharray:5.0,5.0;" x1="1023.5" x2="1023.5" y1="40.2969" y2="1440.9609"/><line style="stroke:#A80036;stroke-width:1.0;stroke-dasharray:5.0,5.0;" x1="1187.5" x2="1187.5" y1="40.2969" y2="1440.9609"/><line style="stroke:#A80036;stroke-width:1.0;stroke-dasharray:5.0,5.0;" x1="1398.5" x2="1398.5" y1="40.2969" y2="1440.9609"/><rect fill="#FEFECE" filter="url(#fq5vy0pl6wkgj)" height="30.2969" style="stroke:#A80036;stroke-width:1.5;" width="166" x="20" y="5"/><text fill="#000000" font-family="sans-serif" font-size="14" lengthAdjust="spacing" textLength="152" x="27" y="24.9951">sip : SettlerInfoPanel</text><rect fill="#FEFECE" filter="url(#fq5vy0pl6wkgj)" height="30.2969" style="stroke:#A80036;stroke-width:1.5;" width="166" x="20" y="1439.9609"/><text fill="#000000" font-family="sans-serif" font-size="14" lengthAdjust="spacing" textLength="152" x="27" y="1459.9561">sip : SettlerInfoPanel</text><rect fill="#FEFECE" filter="url(#fq5vy0pl6wkgj)" height="30.2969" style="stroke:#A80036;stroke-width:1.5;" width="85" x="328.5" y="5"/><text fill="#000000" font-family="sans-serif" font-size="14" lengthAdjust="spacing" textLength="71" x="335.5" y="24.9951">s : Settler</text><rect fill="#FEFECE" filter="url(#fq5vy0pl6wkgj)" height="30.2969" style="stroke:#A80036;stroke-width:1.5;" width="85" x="328.5" y="1439.9609"/><text fill="#000000" font-family="sans-serif" font-size="14" lengthAdjust="spacing" textLength="71" x="335.5" y="1459.9561">s : Settler</text><rect fill="#FEFECE" filter="url(#fq5vy0pl6wkgj)" height="30.2969" style="stroke:#A80036;stroke-width:1.5;" width="96" x="427.5" y="5"/><text fill="#000000" font-family="sans-serif" font-size="14" lengthAdjust="spacing" textLength="82" x="434.5" y="24.9951">a : Asteroid</text><rect fill="#FEFECE" filter="url(#fq5vy0pl6wkgj)" height="30.2969" style="stroke:#A80036;stroke-width:1.5;" width="96" x="427.5" y="1439.9609"/><text fill="#000000" font-family="sans-serif" font-size="14" lengthAdjust="spacing" textLength="82" x="434.5" y="1459.9561">a : Asteroid</text><rect fill="#FEFECE" filter="url(#fq5vy0pl6wkgj)" height="30.2969" style="stroke:#A80036;stroke-width:1.5;" width="117" x="537.5" y="5"/><text fill="#000000" font-family="sans-serif" font-size="14" lengthAdjust="spacing" textLength="103" x="544.5" y="24.9951">inv : Inventory</text><rect fill="#FEFECE" filter="url(#fq5vy0pl6wkgj)" height="30.2969" style="stroke:#A80036;stroke-width:1.5;" width="117" x="537.5" y="1439.9609"/><text fill="#000000" font-family="sans-serif" font-size="14" lengthAdjust="spacing" textLength="103" x="544.5" y="1459.9561">inv : Inventory</text><rect fill="#FEFECE" filter="url(#fq5vy0pl6wkgj)" height="30.2969" style="stroke:#A80036;stroke-width:1.5;" width="183" x="668.5" y="5"/><text fill="#000000" font-family="sans-serif" font-size="14" lengthAdjust="spacing" textLength="165" x="679.5" y="24.9951">: ViewControlDatabase</text><rect fill="#FEFECE" filter="url(#fq5vy0pl6wkgj)" height="30.2969" style="stroke:#A80036;stroke-width:1.5;" width="183" x="668.5" y="1439.9609"/><text fill="#000000" font-family="sans-serif" font-size="14" lengthAdjust="spacing" textLength="165" x="679.5" y="1459.9561">: ViewControlDatabase</text><rect fill="#FEFECE" filter="url(#fq5vy0pl6wkgj)" height="30.2969" style="stroke:#A80036;stroke-width:1.5;" width="91" x="865.5" y="5"/><text fill="#000000" font-family="sans-serif" font-size="14" lengthAdjust="spacing" textLength="77" x="872.5" y="24.9951">b : JButton</text><rect fill="#FEFECE" filter="url(#fq5vy0pl6wkgj)" height="30.2969" style="stroke:#A80036;stroke-width:1.5;" width="91" x="865.5" y="1439.9609"/><text fill="#000000" font-family="sans-serif" font-size="14" lengthAdjust="spacing" textLength="77" x="872.5" y="1459.9561">b : JButton</text><rect fill="#FEFECE" filter="url(#fq5vy0pl6wkgj)" height="30.2969" style="stroke:#A80036;stroke-width:1.5;" width="102" x="970.5" y="5"/><text fill="#000000" font-family="sans-serif" font-size="14" lengthAdjust="spacing" textLength="88" x="977.5" y="24.9951">b_i : JButton</text><rect fill="#FEFECE" filter="url(#fq5vy0pl6wkgj)" height="30.2969" style="stroke:#A80036;stroke-width:1.5;" width="102" x="970.5" y="1439.9609"/><text fill="#000000" font-family="sans-serif" font-size="14" lengthAdjust="spacing" textLength="88" x="977.5" y="1459.9561">b_i : JButton</text><rect fill="#FEFECE" filter="url(#fq5vy0pl6wkgj)" height="30.2969" style="stroke:#A80036;stroke-width:1.5;" width="198" x="1086.5" y="5"/><text fill="#000000" font-family="sans-serif" font-size="14" lengthAdjust="spacing" textLength="184" x="1093.5" y="24.9951">m_i : MaterialViewControl</text><rect fill="#FEFECE" filter="url(#fq5vy0pl6wkgj)" height="30.2969" style="stroke:#A80036;stroke-width:1.5;" width="198" x="1086.5" y="1439.9609"/><text fill="#000000" font-family="sans-serif" font-size="14" lengthAdjust="spacing" textLength="184" x="1093.5" y="1459.9561">m_i : MaterialViewControl</text><rect fill="#FEFECE" filter="url(#fq5vy0pl6wkgj)" height="30.2969" style="stroke:#A80036;stroke-width:1.5;" width="196" x="1298.5" y="5"/><text fill="#000000" font-family="sans-serif" font-size="14" lengthAdjust="spacing" textLength="182" x="1305.5" y="24.9951">t_i : TeleportViewControl</text><rect fill="#FEFECE" filter="url(#fq5vy0pl6wkgj)" height="30.2969" style="stroke:#A80036;stroke-width:1.5;" width="196" x="1298.5" y="1439.9609"/><text fill="#000000" font-family="sans-serif" font-size="14" lengthAdjust="spacing" textLength="182" x="1305.5" y="1459.9561">t_i : TeleportViewControl</text><rect fill="#FFFFFF" filter="url(#fq5vy0pl6wkgj)" height="1351.5313" style="stroke:#A80036;stroke-width:1.0;" width="10" x="100" y="71.4297"/><rect fill="#FFFFFF" filter="url(#fq5vy0pl6wkgj)" height="25" style="stroke:#A80036;stroke-width:1.0;" width="10" x="105" y="307.4922"/><rect fill="#FFFFFF" filter="url(#fq5vy0pl6wkgj)" height="25" style="stroke:#A80036;stroke-width:1.0;" width="10" x="105" y="376.625"/><rect fill="#FFFFFF" filter="url(#fq5vy0pl6wkgj)" height="25" style="stroke:#A80036;stroke-width:1.0;" width="10" x="105" y="460.5625"/><rect fill="#FFFFFF" filter="url(#fq5vy0pl6wkgj)" height="25" style="stroke:#A80036;stroke-width:1.0;" width="10" x="105" y="529.6953"/><rect fill="#FFFFFF" filter="url(#fq5vy0pl6wkgj)" height="25" style="stroke:#A80036;stroke-width:1.0;" width="10" x="105" y="629.9609"/><rect fill="#FFFFFF" filter="url(#fq5vy0pl6wkgj)" height="25" style="stroke:#A80036;stroke-width:1.0;" width="10" x="105" y="713.8984"/><rect fill="#FFFFFF" filter="url(#fq5vy0pl6wkgj)" height="25" style="stroke:#A80036;stroke-width:1.0;" width="10" x="105" y="814.1641"/><rect fill="#FFFFFF" filter="url(#fq5vy0pl6wkgj)" height="25" style="stroke:#A80036;stroke-width:1.0;" width="10" x="105" y="898.1016"/><rect fill="#FFFFFF" filter="url(#fq5vy0pl6wkgj)" height="29.1328" style="stroke:#A80036;stroke-width:1.0;" width="10" x="368" y="100.5625"/><rect fill="#FFFFFF" filter="url(#fq5vy0pl6wkgj)" height="29.1328" style="stroke:#A80036;stroke-width:1.0;" width="10" x="368" y="158.8281"/><rect fill="#FFFFFF" filter="url(#fq5vy0pl6wkgj)" height="29.1328" style="stroke:#A80036;stroke-width:1.0;" width="10" x="368" y="1247.2969"/><rect fill="#FFFFFF" filter="url(#fq5vy0pl6wkgj)" height="29.1328" style="stroke:#A80036;stroke-width:1.0;" width="10" x="472.5" y="217.0938"/><rect fill="#FFFFFF" filter="url(#fq5vy0pl6wkgj)" height="29.1328" style="stroke:#A80036;stroke-width:1.0;" width="10" x="757" y="1138.8984"/><rect fill="#FFFFFF" filter="url(#fq5vy0pl6wkgj)" height="29.1328" style="stroke:#A80036;stroke-width:1.0;" width="10" x="757" y="1329.6953"/><rect fill="#FFFFFF" filter="url(#fq5vy0pl6wkgj)" height="14" style="stroke:#A80036;stroke-width:1.0;" width="10" x="908" y="990.3672"/><rect fill="#FFFFFF" filter="url(#fq5vy0pl6wkgj)" height="14" style="stroke:#A80036;stroke-width:1.0;" width="10" x="908" y="1064.6328"/><rect fill="#FFFFFF" filter="url(#fq5vy0pl6wkgj)" height="14" style="stroke:#A80036;stroke-width:1.0;" width="10" x="1182.5" y="1197.1641"/><rect fill="#FFFFFF" filter="url(#fq5vy0pl6wkgj)" height="14" style="stroke:#A80036;stroke-width:1.0;" width="10" x="1393.5" y="1387.9609"/><polygon fill="#A80036" points="88,67.4297,98,71.4297,88,75.4297,92,71.4297" style="stroke:#A80036;stroke-width:1.0;"/><line style="stroke:#A80036;stroke-width:1.0;" x1="0" x2="94" y1="71.4297" y2="71.4297"/><text fill="#000000" font-family="sans-serif" font-size="13" lengthAdjust="spacing" textLength="62" x="7" y="66.3638">update(s)</text><polygon fill="#A80036" points="356,96.5625,366,100.5625,356,104.5625,360,100.5625" style="stroke:#A80036;stroke-width:1.0;"/><line style="stroke:#A80036;stroke-width:1.0;" x1="110" x2="362" y1="100.5625" y2="100.5625"/><text fill="#000000" font-family="sans-serif" font-size="13" lengthAdjust="spacing" textLength="84" x="117" y="95.4966">getAsteroid()</text><polygon fill="#A80036" points="121,125.6953,111,129.6953,121,133.6953,117,129.6953" style="stroke:#A80036;stroke-width:1.0;"/><line style="stroke:#A80036;stroke-width:1.0;stroke-dasharray:2.0,2.0;" x1="115" x2="372" y1="129.6953" y2="129.6953"/><text fill="#000000" font-family="sans-serif" font-size="13" lengthAdjust="spacing" textLength="8" x="127" y="124.6294">a</text><polygon fill="#A80036" points="356,154.8281,366,158.8281,356,162.8281,360,158.8281" style="stroke:#A80036;stroke-width:1.0;"/><line style="stroke:#A80036;stroke-width:1.0;" x1="110" x2="362" y1="158.8281" y2="158.8281"/><text fill="#000000" font-family="sans-serif" font-size="13" lengthAdjust="spacing" textLength="92" x="117" y="153.7622">getInventory()</text><polygon fill="#A80036" points="121,183.9609,111,187.9609,121,191.9609,117,187.9609" style="stroke:#A80036;stroke-width:1.0;"/><line style="stroke:#A80036;stroke-width:1.0;stroke-dasharray:2.0,2.0;" x1="115" x2="372" y1="187.9609" y2="187.9609"/><text fill="#000000" font-family="sans-serif" font-size="13" lengthAdjust="spacing" textLength="19" x="127" y="182.895">inv</text><polygon fill="#A80036" points="460.5,213.0938,470.5,217.0938,460.5,221.0938,464.5,217.0938" style="stroke:#A80036;stroke-width:1.0;"/><line style="stroke:#A80036;stroke-width:1.0;" x1="110" x2="466.5" y1="217.0938" y2="217.0938"/><text fill="#000000" font-family="sans-serif" font-size="13" lengthAdjust="spacing" textLength="75" x="117" y="212.0278">isExposed()</text><polygon fill="#A80036" points="121,242.2266,111,246.2266,121,250.2266,117,246.2266" style="stroke:#A80036;stroke-width:1.0;"/><line style="stroke:#A80036;stroke-width:1.0;stroke-dasharray:2.0,2.0;" x1="115" x2="476.5" y1="246.2266" y2="246.2266"/><text fill="#000000" font-family="sans-serif" font-size="13" lengthAdjust="spacing" textLength="55" x="127" y="241.1606">exposed</text><path d="M10,261.2266 L76,261.2266 L76,268.2266 L66,278.2266 L10,278.2266 L10,261.2266 " fill="#EEEEEE" style="stroke:#000000;stroke-width:1.0;"/><rect fill="none" height="308.4688" style="stroke:#000000;stroke-width:2.0;" width="316" x="10" y="261.2266"/><text fill="#000000" font-family="sans-serif" font-size="13" font-weight="bold" lengthAdjust="spacing" textLength="21" x="25" y="274.2935">alt</text><text fill="#000000" font-family="sans-serif" font-size="11" font-weight="bold" lengthAdjust="spacing" textLength="71" x="91" y="273.437">[!exposed]</text><line style="stroke:#A80036;stroke-width:1.0;" x1="110" x2="157" y1="294.4922" y2="294.4922"/><line style="stroke:#A80036;stroke-width:1.0;" x1="157" x2="157" y1="294.4922" y2="307.4922"/><line style="stroke:#A80036;stroke-width:1.0;" x1="116" x2="157" y1="307.4922" y2="307.4922"/><polygon fill="#A80036" points="126,303.4922,116,307.4922,126,311.4922,122,307.4922" style="stroke:#A80036;stroke-width:1.0;"/><text fill="#000000" font-family="sans-serif" font-size="13" lengthAdjust="spacing" textLength="166" x="122" y="289.4263">make drill button clickable</text><line style="stroke:#A80036;stroke-width:1.0;stroke-dasharray:2.0,2.0;" x1="115" x2="157" y1="331.4922" y2="331.4922"/><line style="stroke:#A80036;stroke-width:1.0;stroke-dasharray:2.0,2.0;" x1="157" x2="157" y1="331.4922" y2="344.4922"/><line style="stroke:#A80036;stroke-width:1.0;stroke-dasharray:2.0,2.0;" x1="110" x2="157" y1="344.4922" y2="344.4922"/><polygon fill="#A80036" points="120,340.4922,110,344.4922,120,348.4922,116,344.4922" style="stroke:#A80036;stroke-width:1.0;"/><line style="stroke:#A80036;stroke-width:1.0;" x1="110" x2="157" y1="363.625" y2="363.625"/><line style="stroke:#A80036;stroke-width:1.0;" x1="157" x2="157" y1="363.625" y2="376.625"/><line style="stroke:#A80036;stroke-width:1.0;" x1="116" x2="157" y1="376.625" y2="376.625"/><polygon fill="#A80036" points="126,372.625,116,376.625,126,380.625,122,376.625" style="stroke:#A80036;stroke-width:1.0;"/><text fill="#000000" font-family="sans-serif" font-size="13" lengthAdjust="spacing" textLength="192" x="122" y="358.5591">make mine button unclickable</text><line style="stroke:#A80036;stroke-width:1.0;stroke-dasharray:2.0,2.0;" x1="115" x2="157" y1="400.625" y2="400.625"/><line style="stroke:#A80036;stroke-width:1.0;stroke-dasharray:2.0,2.0;" x1="157" x2="157" y1="400.625" y2="413.625"/><line style="stroke:#A80036;stroke-width:1.0;stroke-dasharray:2.0,2.0;" x1="110" x2="157" y1="413.625" y2="413.625"/><polygon fill="#A80036" points="120,409.625,110,413.625,120,417.625,116,413.625" style="stroke:#A80036;stroke-width:1.0;"/><line style="stroke:#000000;stroke-width:1.0;stroke-dasharray:2.0,2.0;" x1="10" x2="326" y1="417.625" y2="417.625"/><text fill="#000000" font-family="sans-serif" font-size="11" font-weight="bold" lengthAdjust="spacing" textLength="37" x="15" y="427.8354">[else]</text><line style="stroke:#A80036;stroke-width:1.0;" x1="110" x2="157" y1="447.5625" y2="447.5625"/><line style="stroke:#A80036;stroke-width:1.0;" x1="157" x2="157" y1="447.5625" y2="460.5625"/><line style="stroke:#A80036;stroke-width:1.0;" x1="116" x2="157" y1="460.5625" y2="460.5625"/><polygon fill="#A80036" points="126,456.5625,116,460.5625,126,464.5625,122,460.5625" style="stroke:#A80036;stroke-width:1.0;"/><text fill="#000000" font-family="sans-serif" font-size="13" lengthAdjust="spacing" textLength="182" x="122" y="442.4966">make drill button unclickable</text><line style="stroke:#A80036;stroke-width:1.0;stroke-dasharray:2.0,2.0;" x1="115" x2="157" y1="484.5625" y2="484.5625"/><line style="stroke:#A80036;stroke-width:1.0;stroke-dasharray:2.0,2.0;" x1="157" x2="157" y1="484.5625" y2="497.5625"/><line style="stroke:#A80036;stroke-width:1.0;stroke-dasharray:2.0,2.0;" x1="110" x2="157" y1="497.5625" y2="497.5625"/><polygon fill="#A80036" points="120,493.5625,110,497.5625,120,501.5625,116,497.5625" style="stroke:#A80036;stroke-width:1.0;"/><line style="stroke:#A80036;stroke-width:1.0;" x1="110" x2="157" y1="516.6953" y2="516.6953"/><line style="stroke:#A80036;stroke-width:1.0;" x1="157" x2="157" y1="516.6953" y2="529.6953"/><line style="stroke:#A80036;stroke-width:1.0;" x1="116" x2="157" y1="529.6953" y2="529.6953"/><polygon fill="#A80036" points="126,525.6953,116,529.6953,126,533.6953,122,529.6953" style="stroke:#A80036;stroke-width:1.0;"/><text fill="#000000" font-family="sans-serif" font-size="13" lengthAdjust="spacing" textLength="176" x="122" y="511.6294">make mine button clickable</text><line style="stroke:#A80036;stroke-width:1.0;stroke-dasharray:2.0,2.0;" x1="115" x2="157" y1="553.6953" y2="553.6953"/><line style="stroke:#A80036;stroke-width:1.0;stroke-dasharray:2.0,2.0;" x1="157" x2="157" y1="553.6953" y2="566.6953"/><line style="stroke:#A80036;stroke-width:1.0;stroke-dasharray:2.0,2.0;" x1="110" x2="157" y1="566.6953" y2="566.6953"/><polygon fill="#A80036" points="120,562.6953,110,566.6953,120,570.6953,116,566.6953" style="stroke:#A80036;stroke-width:1.0;"/><path d="M10,583.6953 L76,583.6953 L76,590.6953 L66,600.6953 L10,600.6953 L10,583.6953 " fill="#EEEEEE" style="stroke:#000000;stroke-width:1.0;"/><rect fill="none" height="170.2031" style="stroke:#000000;stroke-width:2.0;" width="368" x="10" y="583.6953"/><text fill="#000000" font-family="sans-serif" font-size="13" font-weight="bold" lengthAdjust="spacing" textLength="21" x="25" y="596.7622">alt</text><text fill="#000000" font-family="sans-serif" font-size="11" font-weight="bold" lengthAdjust="spacing" textLength="274" x="91" y="595.9058">[inventory has enough to craft teleport]</text><line style="stroke:#A80036;stroke-width:1.0;" x1="110" x2="157" y1="616.9609" y2="616.9609"/><line style="stroke:#A80036;stroke-width:1.0;" x1="157" x2="157" y1="616.9609" y2="629.9609"/><line style="stroke:#A80036;stroke-width:1.0;" x1="116" x2="157" y1="629.9609" y2="629.9609"/><polygon fill="#A80036" points="126,625.9609,116,629.9609,126,633.9609,122,629.9609" style="stroke:#A80036;stroke-width:1.0;"/><text fill="#000000" font-family="sans-serif" font-size="13" lengthAdjust="spacing" textLength="228" x="122" y="611.895">make craft teleport button clickable</text><line style="stroke:#A80036;stroke-width:1.0;stroke-dasharray:2.0,2.0;" x1="115" x2="157" y1="653.9609" y2="653.9609"/><line style="stroke:#A80036;stroke-width:1.0;stroke-dasharray:2.0,2.0;" x1="157" x2="157" y1="653.9609" y2="666.9609"/><line style="stroke:#A80036;stroke-width:1.0;stroke-dasharray:2.0,2.0;" x1="110" x2="157" y1="666.9609" y2="666.9609"/><polygon fill="#A80036" points="120,662.9609,110,666.9609,120,670.9609,116,666.9609" style="stroke:#A80036;stroke-width:1.0;"/><line style="stroke:#000000;stroke-width:1.0;stroke-dasharray:2.0,2.0;" x1="10" x2="378" y1="670.9609" y2="670.9609"/><text fill="#000000" font-family="sans-serif" font-size="11" font-weight="bold" lengthAdjust="spacing" textLength="37" x="15" y="681.1714">[else]</text><line style="stroke:#A80036;stroke-width:1.0;" x1="110" x2="157" y1="700.8984" y2="700.8984"/><line style="stroke:#A80036;stroke-width:1.0;" x1="157" x2="157" y1="700.8984" y2="713.8984"/><line style="stroke:#A80036;stroke-width:1.0;" x1="116" x2="157" y1="713.8984" y2="713.8984"/><polygon fill="#A80036" points="126,709.8984,116,713.8984,126,717.8984,122,713.8984" style="stroke:#A80036;stroke-width:1.0;"/><text fill="#000000" font-family="sans-serif" font-size="13" lengthAdjust="spacing" textLength="244" x="122" y="695.8325">make craft teleport button unclickable</text><line style="stroke:#A80036;stroke-width:1.0;stroke-dasharray:2.0,2.0;" x1="115" x2="157" y1="737.8984" y2="737.8984"/><line style="stroke:#A80036;stroke-width:1.0;stroke-dasharray:2.0,2.0;" x1="157" x2="157" y1="737.8984" y2="750.8984"/><line style="stroke:#A80036;stroke-width:1.0;stroke-dasharray:2.0,2.0;" x1="110" x2="157" y1="750.8984" y2="750.8984"/><polygon fill="#A80036" points="120,746.8984,110,750.8984,120,754.8984,116,750.8984" style="stroke:#A80036;stroke-width:1.0;"/><path d="M10,767.8984 L76,767.8984 L76,774.8984 L66,784.8984 L10,784.8984 L10,767.8984 " fill="#EEEEEE" style="stroke:#000000;stroke-width:1.0;"/><rect fill="none" height="170.2031" style="stroke:#000000;stroke-width:2.0;" width="352" x="10" y="767.8984"/><text fill="#000000" font-family="sans-serif" font-size="13" font-weight="bold" lengthAdjust="spacing" textLength="21" x="25" y="780.9653">alt</text><text fill="#000000" font-family="sans-serif" font-size="11" font-weight="bold" lengthAdjust="spacing" textLength="256" x="91" y="780.1089">[inventory has enough to craft robot]</text><line style="stroke:#A80036;stroke-width:1.0;" x1="110" x2="157" y1="801.1641" y2="801.1641"/><line style="stroke:#A80036;stroke-width:1.0;" x1="157" x2="157" y1="801.1641" y2="814.1641"/><line style="stroke:#A80036;stroke-width:1.0;" x1="116" x2="157" y1="814.1641" y2="814.1641"/><polygon fill="#A80036" points="126,810.1641,116,814.1641,126,818.1641,122,814.1641" style="stroke:#A80036;stroke-width:1.0;"/><text fill="#000000" font-family="sans-serif" font-size="13" lengthAdjust="spacing" textLength="212" x="122" y="796.0981">make craft robot button clickable</text><line style="stroke:#A80036;stroke-width:1.0;stroke-dasharray:2.0,2.0;" x1="115" x2="157" y1="838.1641" y2="838.1641"/><line style="stroke:#A80036;stroke-width:1.0;stroke-dasharray:2.0,2.0;" x1="157" x2="157" y1="838.1641" y2="851.1641"/><line style="stroke:#A80036;stroke-width:1.0;stroke-dasharray:2.0,2.0;" x1="110" x2="157" y1="851.1641" y2="851.1641"/><polygon fill="#A80036" points="120,847.1641,110,851.1641,120,855.1641,116,851.1641" style="stroke:#A80036;stroke-width:1.0;"/><line style="stroke:#000000;stroke-width:1.0;stroke-dasharray:2.0,2.0;" x1="10" x2="362" y1="855.1641" y2="855.1641"/><text fill="#000000" font-family="sans-serif" font-size="11" font-weight="bold" lengthAdjust="spacing" textLength="37" x="15" y="865.3745">[else]</text><line style="stroke:#A80036;stroke-width:1.0;" x1="110" x2="157" y1="885.1016" y2="885.1016"/><line style="stroke:#A80036;stroke-width:1.0;" x1="157" x2="157" y1="885.1016" y2="898.1016"/><line style="stroke:#A80036;stroke-width:1.0;" x1="116" x2="157" y1="898.1016" y2="898.1016"/><polygon fill="#A80036" points="126,894.1016,116,898.1016,126,902.1016,122,898.1016" style="stroke:#A80036;stroke-width:1.0;"/><text fill="#000000" font-family="sans-serif" font-size="13" lengthAdjust="spacing" textLength="228" x="122" y="880.0356">make craft robot button unclickable</text><line style="stroke:#A80036;stroke-width:1.0;stroke-dasharray:2.0,2.0;" x1="115" x2="157" y1="922.1016" y2="922.1016"/><line style="stroke:#A80036;stroke-width:1.0;stroke-dasharray:2.0,2.0;" x1="157" x2="157" y1="922.1016" y2="935.1016"/><line style="stroke:#A80036;stroke-width:1.0;stroke-dasharray:2.0,2.0;" x1="110" x2="157" y1="935.1016" y2="935.1016"/><polygon fill="#A80036" points="120,931.1016,110,935.1016,120,939.1016,116,935.1016" style="stroke:#A80036;stroke-width:1.0;"/><path d="M10,952.1016 L88,952.1016 L88,959.1016 L78,969.1016 L10,969.1016 L10,952.1016 " fill="#EEEEEE" style="stroke:#000000;stroke-width:1.0;"/><rect fill="none" height="60.2656" style="stroke:#000000;stroke-width:2.0;" width="960.5" x="10" y="952.1016"/><text fill="#000000" font-family="sans-serif" font-size="13" font-weight="bold" lengthAdjust="spacing" textLength="33" x="25" y="965.1685">loop</text><text fill="#000000" font-family="sans-serif" font-size="11" font-weight="bold" lengthAdjust="spacing" textLength="374" x="103" y="964.312">[for JButton b in buttons representing stored material]</text><polygon fill="#A80036" points="896,986.3672,906,990.3672,896,994.3672,900,990.3672" style="stroke:#A80036;stroke-width:1.0;"/><line style="stroke:#A80036;stroke-width:1.0;" x1="110" x2="902" y1="990.3672" y2="990.3672"/><text fill="#000000" font-family="sans-serif" font-size="13" lengthAdjust="spacing" textLength="112" x="117" y="985.3013">setEnabled(false)</text><polygon fill="#A80036" points="121,1000.3672,111,1004.3672,121,1008.3672,117,1004.3672" style="stroke:#A80036;stroke-width:1.0;"/><line style="stroke:#A80036;stroke-width:1.0;stroke-dasharray:2.0,2.0;" x1="115" x2="912" y1="1004.3672" y2="1004.3672"/><path d="M10,1026.3672 L88,1026.3672 L88,1033.3672 L78,1043.3672 L10,1043.3672 L10,1026.3672 " fill="#EEEEEE" style="stroke:#000000;stroke-width:1.0;"/><rect fill="none" height="60.2656" style="stroke:#000000;stroke-width:2.0;" width="960.5" x="10" y="1026.3672"/><text fill="#000000" font-family="sans-serif" font-size="13" font-weight="bold" lengthAdjust="spacing" textLength="33" x="25" y="1039.4341">loop</text><text fill="#000000" font-family="sans-serif" font-size="11" font-weight="bold" lengthAdjust="spacing" textLength="374" x="103" y="1038.5776">[for JButton b in buttons representing stored teleport]</text><polygon fill="#A80036" points="896,1060.6328,906,1064.6328,896,1068.6328,900,1064.6328" style="stroke:#A80036;stroke-width:1.0;"/><line style="stroke:#A80036;stroke-width:1.0;" x1="110" x2="902" y1="1064.6328" y2="1064.6328"/><text fill="#000000" font-family="sans-serif" font-size="13" lengthAdjust="spacing" textLength="112" x="117" y="1059.5669">setEnabled(false)</text><polygon fill="#A80036" points="121,1074.6328,111,1078.6328,121,1082.6328,117,1078.6328" style="stroke:#A80036;stroke-width:1.0;"/><line style="stroke:#A80036;stroke-width:1.0;stroke-dasharray:2.0,2.0;" x1="115" x2="912" y1="1078.6328" y2="1078.6328"/><path d="M10,1100.6328 L88,1100.6328 L88,1107.6328 L78,1117.6328 L10,1117.6328 L10,1100.6328 " fill="#EEEEEE" style="stroke:#000000;stroke-width:1.0;"/><rect fill="none" height="118.5313" style="stroke:#000000;stroke-width:2.0;" width="1288.5" x="10" y="1100.6328"/><text fill="#000000" font-family="sans-serif" font-size="13" font-weight="bold" lengthAdjust="spacing" textLength="33" x="25" y="1113.6997">loop</text><text fill="#000000" font-family="sans-serif" font-size="11" font-weight="bold" lengthAdjust="spacing" textLength="564" x="103" y="1112.8433">[for i-th Material m_i in inventory and i-th JButton b_i representing stored material]</text><polygon fill="#A80036" points="745,1134.8984,755,1138.8984,745,1142.8984,749,1138.8984" style="stroke:#A80036;stroke-width:1.0;"/><line style="stroke:#A80036;stroke-width:1.0;" x1="110" x2="751" y1="1138.8984" y2="1138.8984"/><text fill="#000000" font-family="sans-serif" font-size="13" lengthAdjust="spacing" textLength="181" x="117" y="1133.8325">getMaterialViewControl(m_i)</text><polygon fill="#A80036" points="121,1164.0313,111,1168.0313,121,1172.0313,117,1168.0313" style="stroke:#A80036;stroke-width:1.0;"/><line style="stroke:#A80036;stroke-width:1.0;stroke-dasharray:2.0,2.0;" x1="115" x2="761" y1="1168.0313" y2="1168.0313"/><text fill="#000000" font-family="sans-serif" font-size="13" lengthAdjust="spacing" textLength="31" x="127" y="1162.9653">mv_i</text><polygon fill="#A80036" points="1170.5,1193.1641,1180.5,1197.1641,1170.5,1201.1641,1174.5,1197.1641" style="stroke:#A80036;stroke-width:1.0;"/><line style="stroke:#A80036;stroke-width:1.0;" x1="110" x2="1176.5" y1="1197.1641" y2="1197.1641"/><text fill="#000000" font-family="sans-serif" font-size="13" lengthAdjust="spacing" textLength="60" x="117" y="1192.0981">draw(b_i)</text><polygon fill="#A80036" points="121,1207.1641,111,1211.1641,121,1215.1641,117,1211.1641" style="stroke:#A80036;stroke-width:1.0;"/><line style="stroke:#A80036;stroke-width:1.0;stroke-dasharray:2.0,2.0;" x1="115" x2="1186.5" y1="1211.1641" y2="1211.1641"/><polygon fill="#A80036" points="356,1243.2969,366,1247.2969,356,1251.2969,360,1247.2969" style="stroke:#A80036;stroke-width:1.0;"/><line style="stroke:#A80036;stroke-width:1.0;" x1="110" x2="362" y1="1247.2969" y2="1247.2969"/><text fill="#000000" font-family="sans-serif" font-size="13" lengthAdjust="spacing" textLength="91" x="117" y="1242.231">getTeleports()</text><polygon fill="#A80036" points="121,1272.4297,111,1276.4297,121,1280.4297,117,1276.4297" style="stroke:#A80036;stroke-width:1.0;"/><line style="stroke:#A80036;stroke-width:1.0;stroke-dasharray:2.0,2.0;" x1="115" x2="372" y1="1276.4297" y2="1276.4297"/><text fill="#000000" font-family="sans-serif" font-size="13" lengthAdjust="spacing" textLength="57" x="127" y="1271.3638">teleports</text><path d="M10,1291.4297 L88,1291.4297 L88,1298.4297 L78,1308.4297 L10,1308.4297 L10,1291.4297 " fill="#EEEEEE" style="stroke:#000000;stroke-width:1.0;"/><rect fill="none" height="118.5313" style="stroke:#000000;stroke-width:2.0;" width="1498.5" x="10" y="1291.4297"/><text fill="#000000" font-family="sans-serif" font-size="13" font-weight="bold" lengthAdjust="spacing" textLength="33" x="25" y="1304.4966">loop</text><text fill="#000000" font-family="sans-serif" font-size="11" font-weight="bold" lengthAdjust="spacing" textLength="562" x="103" y="1303.6401">[for i-th Teleport t_i in teleports and i-th JButton b_i representing stored teleport]</text><polygon fill="#A80036" points="745,1325.6953,755,1329.6953,745,1333.6953,749,1329.6953" style="stroke:#A80036;stroke-width:1.0;"/><line style="stroke:#A80036;stroke-width:1.0;" x1="110" x2="751" y1="1329.6953" y2="1329.6953"/><text fill="#000000" font-family="sans-serif" font-size="13" lengthAdjust="spacing" textLength="176" x="117" y="1324.6294">getTeleportViewControl(t_i)</text><polygon fill="#A80036" points="121,1354.8281,111,1358.8281,121,1362.8281,117,1358.8281" style="stroke:#A80036;stroke-width:1.0;"/><line style="stroke:#A80036;stroke-width:1.0;stroke-dasharray:2.0,2.0;" x1="115" x2="761" y1="1358.8281" y2="1358.8281"/><text fill="#000000" font-family="sans-serif" font-size="13" lengthAdjust="spacing" textLength="30" x="127" y="1353.7622">tvc_i</text><polygon fill="#A80036" points="1381.5,1383.9609,1391.5,1387.9609,1381.5,1391.9609,1385.5,1387.9609" style="stroke:#A80036;stroke-width:1.0;"/><line style="stroke:#A80036;stroke-width:1.0;" x1="110" x2="1387.5" y1="1387.9609" y2="1387.9609"/><text fill="#000000" font-family="sans-serif" font-size="13" lengthAdjust="spacing" textLength="105" x="117" y="1382.895">drawAsItem(b_i)</text><polygon fill="#A80036" points="121,1397.9609,111,1401.9609,121,1405.9609,117,1401.9609" style="stroke:#A80036;stroke-width:1.0;"/><line style="stroke:#A80036;stroke-width:1.0;stroke-dasharray:2.0,2.0;" x1="115" x2="1397.5" y1="1401.9609" y2="1401.9609"/><polygon fill="#A80036" points="11,1418.9609,1,1422.9609,11,1426.9609,7,1422.9609" style="stroke:#A80036;stroke-width:1.0;"/><line style="stroke:#A80036;stroke-width:1.0;stroke-dasharray:2.0,2.0;" x1="5" x2="104" y1="1422.9609" y2="1422.9609"/><!--MD5=[04baca067de0c624dd2735c723596b4b]
@startuml
participant "sip : SettlerInfoPanel" as sip
participant "s : Settler" as s
participant "a : Asteroid" as a
participant "inv : Inventory" as inv
participant " : ViewControlDatabase" as vcDatBase
participant "b : JButton" as b
participant "b_i : JButton" as b_i

participant "m_i : MaterialViewControl" as mv_i
participant "t_i : TeleportViewControl" as tvc_i

[->sip ++: update(s)
    sip->s ++:getAsteroid()
    return a
    sip->s ++:getInventory()
    return inv
    
    
    sip->a ++:isExposed()
    return exposed
    alt !exposed
        sip->sip ++: make drill button clickable
        return
        sip->sip ++: make mine button unclickable
        return
    else else
        sip->sip ++: make drill button unclickable
        return
        sip->sip ++: make mine button clickable
        return
    end
    
    alt inventory has enough to craft teleport
        sip->sip ++: make craft teleport button clickable
        return
    else else
        sip->sip ++: make craft teleport button unclickable
        return
    end
    
    alt inventory has enough to craft robot
        sip->sip ++: make craft robot button clickable
        return
    else else
        sip->sip ++: make craft robot button unclickable
        return
    end
    
    
    loop for JButton b in buttons representing stored material
        sip-> b ++:setEnabled(false)
        return
    end
    
    loop for JButton b in buttons representing stored teleport
        sip-> b ++:setEnabled(false)
        return
    end
    
    loop for i-th Material m_i in inventory and i-th JButton b_i representing stored material
        sip -> vcDatBase ++: getMaterialViewControl(m_i)
        return mv_i
        sip -> mv_i ++: draw(b_i)
        return
    end
    
    sip -> s ++: getTeleports()
    return teleports
    
    loop for i-th Teleport t_i in teleports and i-th JButton b_i representing stored teleport
        sip -> vcDatBase ++: getTeleportViewControl(t_i)
        return tvc_i
        sip->tvc_i ++: drawAsItem(b_i)
        return
    end
    
return
@enduml

PlantUML version 1.2021.5beta3(Unknown compile time)
(GPL source distribution)
Java Runtime: Java(TM) SE Runtime Environment
JVM: Java HotSpot(TM) 64-Bit Server VM
Default Encoding: UTF-8
Language: en
Country: US
--></g></svg>