<?xml version="1.0" encoding="UTF-8" standalone="no"?><svg xmlns="http://www.w3.org/2000/svg" xmlns:xlink="http://www.w3.org/1999/xlink" contentScriptType="application/ecmascript" contentStyleType="text/css" height="1035px" preserveAspectRatio="none" style="width:1114px;height:1035px;" version="1.1" viewBox="0 0 1114 1035" width="1114px" zoomAndPan="magnify"><defs><filter height="300%" id="f1tclsww3ho9lo" width="300%" x="-1" y="-1"><feGaussianBlur result="blurOut" stdDeviation="2.0"/><feColorMatrix in="blurOut" result="blurOut2" type="matrix" values="0 0 0 0 0 0 0 0 0 0 0 0 0 0 0 0 0 0 .4 0"/><feOffset dx="4.0" dy="4.0" in="blurOut2" result="blurOut3"/><feBlend in="SourceGraphic" in2="blurOut3" mode="normal"/></filter></defs><g><rect fill="#FFFFFF" filter="url(#f1tclsww3ho9lo)" height="14" style="stroke:#A80036;stroke-width:1.0;" width="10" x="100" y="868.0391"/><rect fill="#FFFFFF" filter="url(#f1tclsww3ho9lo)" height="14" style="stroke:#A80036;stroke-width:1.0;" width="10" x="289.5" y="824.9063"/><rect fill="#FFFFFF" filter="url(#f1tclsww3ho9lo)" height="902.7422" style="stroke:#A80036;stroke-width:1.0;" width="10" x="466" y="71.4297"/><rect fill="#FFFFFF" filter="url(#f1tclsww3ho9lo)" height="25" style="stroke:#A80036;stroke-width:1.0;" width="10" x="471" y="331.625"/><rect fill="#FFFFFF" filter="url(#f1tclsww3ho9lo)" height="25" style="stroke:#A80036;stroke-width:1.0;" width="10" x="471" y="415.5625"/><rect fill="#FFFFFF" filter="url(#f1tclsww3ho9lo)" height="25" style="stroke:#A80036;stroke-width:1.0;" width="10" x="471" y="499.5"/><rect fill="#FFFFFF" filter="url(#f1tclsww3ho9lo)" height="25" style="stroke:#A80036;stroke-width:1.0;" width="10" x="471" y="641.7031"/><rect fill="#FFFFFF" filter="url(#f1tclsww3ho9lo)" height="25" style="stroke:#A80036;stroke-width:1.0;" width="10" x="471" y="725.6406"/><rect fill="#FFFFFF" filter="url(#f1tclsww3ho9lo)" height="25" style="stroke:#A80036;stroke-width:1.0;" width="10" x="471" y="921.1719"/><rect fill="#FFFFFF" filter="url(#f1tclsww3ho9lo)" height="29.1328" style="stroke:#A80036;stroke-width:1.0;" width="10" x="863" y="100.5625"/><rect fill="#FFFFFF" filter="url(#f1tclsww3ho9lo)" height="29.1328" style="stroke:#A80036;stroke-width:1.0;" width="10" x="863" y="182.9609"/><rect fill="#FFFFFF" filter="url(#f1tclsww3ho9lo)" height="29.1328" style="stroke:#A80036;stroke-width:1.0;" width="10" x="991.5" y="265.3594"/><rect fill="#FFFFFF" filter="url(#f1tclsww3ho9lo)" height="29.1328" style="stroke:#A80036;stroke-width:1.0;" width="10" x="991.5" y="575.4375"/><rect fill="#FFFFFF" filter="url(#f1tclsww3ho9lo)" height="627.9453" style="stroke:#000000;stroke-width:2.0;" width="721.5" x="379" y="144.6953"/><rect fill="#FFFFFF" filter="url(#f1tclsww3ho9lo)" height="538.5469" style="stroke:#000000;stroke-width:2.0;" width="701.5" x="389" y="227.0938"/><rect fill="#FFFFFF" height="83.9375" style="stroke:none;stroke-width:1.0;" width="701.5" x="389" y="371.625"/><rect fill="#FFFFFF" height="83.9375" style="stroke:none;stroke-width:1.0;" width="701.5" x="389" y="455.5625"/><rect fill="#FFFFFF" height="142.2031" style="stroke:none;stroke-width:1.0;" width="701.5" x="389" y="539.5"/><rect fill="#FFFFFF" height="83.9375" style="stroke:none;stroke-width:1.0;" width="701.5" x="389" y="681.7031"/><rect fill="#FFFFFF" filter="url(#f1tclsww3ho9lo)" height="174.5313" style="stroke:#000000;stroke-width:2.0;" width="665" x="10" y="786.6406"/><rect fill="#FFFFFF" height="71.1328" style="stroke:none;stroke-width:1.0;" width="665" x="10" y="890.0391"/><line style="stroke:#A80036;stroke-width:1.0;stroke-dasharray:5.0,5.0;" x1="105" x2="105" y1="40.2969" y2="992.1719"/><line style="stroke:#A80036;stroke-width:1.0;stroke-dasharray:5.0,5.0;" x1="294" x2="294" y1="40.2969" y2="992.1719"/><line style="stroke:#A80036;stroke-width:1.0;stroke-dasharray:5.0,5.0;" x1="471" x2="471" y1="40.2969" y2="992.1719"/><line style="stroke:#A80036;stroke-width:1.0;stroke-dasharray:5.0,5.0;" x1="867.5" x2="867.5" y1="40.2969" y2="992.1719"/><line style="stroke:#A80036;stroke-width:1.0;stroke-dasharray:5.0,5.0;" x1="996.5" x2="996.5" y1="40.2969" y2="992.1719"/><rect fill="#FEFECE" filter="url(#f1tclsww3ho9lo)" height="30.2969" style="stroke:#A80036;stroke-width:1.5;" width="166" x="20" y="5"/><text fill="#000000" font-family="sans-serif" font-size="14" lengthAdjust="spacing" textLength="152" x="27" y="24.9951">sip : SettlerInfoPanel</text><rect fill="#FEFECE" filter="url(#f1tclsww3ho9lo)" height="30.2969" style="stroke:#A80036;stroke-width:1.5;" width="166" x="20" y="991.1719"/><text fill="#000000" font-family="sans-serif" font-size="14" lengthAdjust="spacing" textLength="152" x="27" y="1011.167">sip : SettlerInfoPanel</text><rect fill="#FEFECE" filter="url(#f1tclsww3ho9lo)" height="30.2969" style="stroke:#A80036;stroke-width:1.5;" width="185" x="200" y="5"/><text fill="#000000" font-family="sans-serif" font-size="14" lengthAdjust="spacing" textLength="171" x="207" y="24.9951">afp : AsteroidFieldPanel</text><rect fill="#FEFECE" filter="url(#f1tclsww3ho9lo)" height="30.2969" style="stroke:#A80036;stroke-width:1.5;" width="185" x="200" y="991.1719"/><text fill="#000000" font-family="sans-serif" font-size="14" lengthAdjust="spacing" textLength="171" x="207" y="1011.167">afp : AsteroidFieldPanel</text><rect fill="#FEFECE" filter="url(#f1tclsww3ho9lo)" height="30.2969" style="stroke:#A80036;stroke-width:1.5;" width="140" x="399" y="5"/><text fill="#000000" font-family="sans-serif" font-size="14" lengthAdjust="spacing" textLength="126" x="406" y="24.9951">igp : InGamePane</text><rect fill="#FEFECE" filter="url(#f1tclsww3ho9lo)" height="30.2969" style="stroke:#A80036;stroke-width:1.5;" width="140" x="399" y="991.1719"/><text fill="#000000" font-family="sans-serif" font-size="14" lengthAdjust="spacing" textLength="126" x="406" y="1011.167">igp : InGamePane</text><rect fill="#FEFECE" filter="url(#f1tclsww3ho9lo)" height="30.2969" style="stroke:#A80036;stroke-width:1.5;" width="65" x="833.5" y="5"/><text fill="#000000" font-family="sans-serif" font-size="14" lengthAdjust="spacing" textLength="47" x="844.5" y="24.9951">:Game</text><rect fill="#FEFECE" filter="url(#f1tclsww3ho9lo)" height="30.2969" style="stroke:#A80036;stroke-width:1.5;" width="65" x="833.5" y="991.1719"/><text fill="#000000" font-family="sans-serif" font-size="14" lengthAdjust="spacing" textLength="47" x="844.5" y="1011.167">:Game</text><rect fill="#FEFECE" filter="url(#f1tclsww3ho9lo)" height="30.2969" style="stroke:#A80036;stroke-width:1.5;" width="164" x="912.5" y="5"/><text fill="#000000" font-family="sans-serif" font-size="14" lengthAdjust="spacing" textLength="146" x="923.5" y="24.9951">:CommandDatabase</text><rect fill="#FEFECE" filter="url(#f1tclsww3ho9lo)" height="30.2969" style="stroke:#A80036;stroke-width:1.5;" width="164" x="912.5" y="991.1719"/><text fill="#000000" font-family="sans-serif" font-size="14" lengthAdjust="spacing" textLength="146" x="923.5" y="1011.167">:CommandDatabase</text><rect fill="#FFFFFF" filter="url(#f1tclsww3ho9lo)" height="14" style="stroke:#A80036;stroke-width:1.0;" width="10" x="100" y="868.0391"/><rect fill="#FFFFFF" filter="url(#f1tclsww3ho9lo)" height="14" style="stroke:#A80036;stroke-width:1.0;" width="10" x="289.5" y="824.9063"/><rect fill="#FFFFFF" filter="url(#f1tclsww3ho9lo)" height="902.7422" style="stroke:#A80036;stroke-width:1.0;" width="10" x="466" y="71.4297"/><rect fill="#FFFFFF" filter="url(#f1tclsww3ho9lo)" height="25" style="stroke:#A80036;stroke-width:1.0;" width="10" x="471" y="331.625"/><rect fill="#FFFFFF" filter="url(#f1tclsww3ho9lo)" height="25" style="stroke:#A80036;stroke-width:1.0;" width="10" x="471" y="415.5625"/><rect fill="#FFFFFF" filter="url(#f1tclsww3ho9lo)" height="25" style="stroke:#A80036;stroke-width:1.0;" width="10" x="471" y="499.5"/><rect fill="#FFFFFF" filter="url(#f1tclsww3ho9lo)" height="25" style="stroke:#A80036;stroke-width:1.0;" width="10" x="471" y="641.7031"/><rect fill="#FFFFFF" filter="url(#f1tclsww3ho9lo)" height="25" style="stroke:#A80036;stroke-width:1.0;" width="10" x="471" y="725.6406"/><rect fill="#FFFFFF" filter="url(#f1tclsww3ho9lo)" height="25" style="stroke:#A80036;stroke-width:1.0;" width="10" x="471" y="921.1719"/><rect fill="#FFFFFF" filter="url(#f1tclsww3ho9lo)" height="29.1328" style="stroke:#A80036;stroke-width:1.0;" width="10" x="863" y="100.5625"/><rect fill="#FFFFFF" filter="url(#f1tclsww3ho9lo)" height="29.1328" style="stroke:#A80036;stroke-width:1.0;" width="10" x="863" y="182.9609"/><rect fill="#FFFFFF" filter="url(#f1tclsww3ho9lo)" height="29.1328" style="stroke:#A80036;stroke-width:1.0;" width="10" x="991.5" y="265.3594"/><rect fill="#FFFFFF" filter="url(#f1tclsww3ho9lo)" height="29.1328" style="stroke:#A80036;stroke-width:1.0;" width="10" x="991.5" y="575.4375"/><polygon fill="#A80036" points="454,67.4297,464,71.4297,454,75.4297,458,71.4297" style="stroke:#A80036;stroke-width:1.0;"/><line style="stroke:#A80036;stroke-width:1.0;" x1="0" x2="460" y1="71.4297" y2="71.4297"/><text fill="#000000" font-family="sans-serif" font-size="13" lengthAdjust="spacing" textLength="65" x="7" y="66.3638">continue()</text><polygon fill="#A80036" points="851,96.5625,861,100.5625,851,104.5625,855,100.5625" style="stroke:#A80036;stroke-width:1.0;"/><line style="stroke:#A80036;stroke-width:1.0;" x1="476" x2="857" y1="100.5625" y2="100.5625"/><text fill="#000000" font-family="sans-serif" font-size="13" lengthAdjust="spacing" textLength="38" x="483" y="95.4966">step()</text><polygon fill="#A80036" points="487,125.6953,477,129.6953,487,133.6953,483,129.6953" style="stroke:#A80036;stroke-width:1.0;"/><line style="stroke:#A80036;stroke-width:1.0;stroke-dasharray:2.0,2.0;" x1="481" x2="867" y1="129.6953" y2="129.6953"/><text fill="#000000" font-family="sans-serif" font-size="13" lengthAdjust="spacing" textLength="86" x="493" y="124.6294">settlerToStep</text><path d="M379,144.6953 L457,144.6953 L457,151.6953 L447,161.6953 L379,161.6953 L379,144.6953 " fill="#EEEEEE" style="stroke:#000000;stroke-width:1.0;"/><rect fill="none" height="627.9453" style="stroke:#000000;stroke-width:2.0;" width="721.5" x="379" y="144.6953"/><text fill="#000000" font-family="sans-serif" font-size="13" font-weight="bold" lengthAdjust="spacing" textLength="33" x="394" y="157.7622">loop</text><text fill="#000000" font-family="sans-serif" font-size="11" font-weight="bold" lengthAdjust="spacing" textLength="160" x="472" y="156.9058">[while Game hasEvent()]</text><polygon fill="#A80036" points="851,178.9609,861,182.9609,851,186.9609,855,182.9609" style="stroke:#A80036;stroke-width:1.0;"/><line style="stroke:#A80036;stroke-width:1.0;" x1="476" x2="857" y1="182.9609" y2="182.9609"/><text fill="#000000" font-family="sans-serif" font-size="13" lengthAdjust="spacing" textLength="68" x="483" y="177.895">getEvent()</text><polygon fill="#A80036" points="487,208.0938,477,212.0938,487,216.0938,483,212.0938" style="stroke:#A80036;stroke-width:1.0;"/><line style="stroke:#A80036;stroke-width:1.0;stroke-dasharray:2.0,2.0;" x1="481" x2="867" y1="212.0938" y2="212.0938"/><text fill="#000000" font-family="sans-serif" font-size="13" lengthAdjust="spacing" textLength="37" x="493" y="207.0278">event</text><path d="M389,227.0938 L455,227.0938 L455,234.0938 L445,244.0938 L389,244.0938 L389,227.0938 " fill="#EEEEEE" style="stroke:#000000;stroke-width:1.0;"/><rect fill="none" height="538.5469" style="stroke:#000000;stroke-width:2.0;" width="701.5" x="389" y="227.0938"/><text fill="#000000" font-family="sans-serif" font-size="13" font-weight="bold" lengthAdjust="spacing" textLength="21" x="404" y="240.1606">alt</text><text fill="#000000" font-family="sans-serif" font-size="11" font-weight="bold" lengthAdjust="spacing" textLength="180" x="470" y="239.3042">[event type is settler died]</text><polygon fill="#A80036" points="979.5,261.3594,989.5,265.3594,979.5,269.3594,983.5,265.3594" style="stroke:#A80036;stroke-width:1.0;"/><line style="stroke:#A80036;stroke-width:1.0;" x1="476" x2="985.5" y1="265.3594" y2="265.3594"/><text fill="#000000" font-family="sans-serif" font-size="13" lengthAdjust="spacing" textLength="132" x="483" y="260.2935">getSettlerID(subject)</text><polygon fill="#A80036" points="487,290.4922,477,294.4922,487,298.4922,483,294.4922" style="stroke:#A80036;stroke-width:1.0;"/><line style="stroke:#A80036;stroke-width:1.0;stroke-dasharray:2.0,2.0;" x1="481" x2="995.5" y1="294.4922" y2="294.4922"/><text fill="#000000" font-family="sans-serif" font-size="13" lengthAdjust="spacing" textLength="54" x="493" y="289.4263">settlerID</text><line style="stroke:#A80036;stroke-width:1.0;" x1="476" x2="523" y1="318.625" y2="318.625"/><line style="stroke:#A80036;stroke-width:1.0;" x1="523" x2="523" y1="318.625" y2="331.625"/><line style="stroke:#A80036;stroke-width:1.0;" x1="482" x2="523" y1="331.625" y2="331.625"/><polygon fill="#A80036" points="492,327.625,482,331.625,492,335.625,488,331.625" style="stroke:#A80036;stroke-width:1.0;"/><text fill="#000000" font-family="sans-serif" font-size="13" lengthAdjust="spacing" textLength="273" x="488" y="313.5591">display("Settler " + settlerID +" Has Died!")</text><line style="stroke:#A80036;stroke-width:1.0;stroke-dasharray:2.0,2.0;" x1="481" x2="523" y1="355.625" y2="355.625"/><line style="stroke:#A80036;stroke-width:1.0;stroke-dasharray:2.0,2.0;" x1="523" x2="523" y1="355.625" y2="368.625"/><line style="stroke:#A80036;stroke-width:1.0;stroke-dasharray:2.0,2.0;" x1="476" x2="523" y1="368.625" y2="368.625"/><polygon fill="#A80036" points="486,364.625,476,368.625,486,372.625,482,368.625" style="stroke:#A80036;stroke-width:1.0;"/><line style="stroke:#000000;stroke-width:1.0;stroke-dasharray:2.0,2.0;" x1="389" x2="1090.5" y1="372.625" y2="372.625"/><text fill="#000000" font-family="sans-serif" font-size="11" font-weight="bold" lengthAdjust="spacing" textLength="168" x="394" y="382.8354">[event type is game won]</text><line style="stroke:#A80036;stroke-width:1.0;" x1="476" x2="523" y1="402.5625" y2="402.5625"/><line style="stroke:#A80036;stroke-width:1.0;" x1="523" x2="523" y1="402.5625" y2="415.5625"/><line style="stroke:#A80036;stroke-width:1.0;" x1="482" x2="523" y1="415.5625" y2="415.5625"/><polygon fill="#A80036" points="492,411.5625,482,415.5625,492,419.5625,488,415.5625" style="stroke:#A80036;stroke-width:1.0;"/><text fill="#000000" font-family="sans-serif" font-size="13" lengthAdjust="spacing" textLength="373" x="488" y="397.4966">display("Base Built, Game Won! Returning To Main Menu.")</text><line style="stroke:#A80036;stroke-width:1.0;stroke-dasharray:2.0,2.0;" x1="481" x2="523" y1="439.5625" y2="439.5625"/><line style="stroke:#A80036;stroke-width:1.0;stroke-dasharray:2.0,2.0;" x1="523" x2="523" y1="439.5625" y2="452.5625"/><line style="stroke:#A80036;stroke-width:1.0;stroke-dasharray:2.0,2.0;" x1="476" x2="523" y1="452.5625" y2="452.5625"/><polygon fill="#A80036" points="486,448.5625,476,452.5625,486,456.5625,482,452.5625" style="stroke:#A80036;stroke-width:1.0;"/><line style="stroke:#000000;stroke-width:1.0;stroke-dasharray:2.0,2.0;" x1="389" x2="1090.5" y1="456.5625" y2="456.5625"/><text fill="#000000" font-family="sans-serif" font-size="11" font-weight="bold" lengthAdjust="spacing" textLength="168" x="394" y="466.7729">[event type is game lost]</text><line style="stroke:#A80036;stroke-width:1.0;" x1="476" x2="523" y1="486.5" y2="486.5"/><line style="stroke:#A80036;stroke-width:1.0;" x1="523" x2="523" y1="486.5" y2="499.5"/><line style="stroke:#A80036;stroke-width:1.0;" x1="482" x2="523" y1="499.5" y2="499.5"/><polygon fill="#A80036" points="492,495.5,482,499.5,492,503.5,488,499.5" style="stroke:#A80036;stroke-width:1.0;"/><text fill="#000000" font-family="sans-serif" font-size="13" lengthAdjust="spacing" textLength="301" x="488" y="481.4341">display("Game Lost! Returning To Main Menu.")</text><line style="stroke:#A80036;stroke-width:1.0;stroke-dasharray:2.0,2.0;" x1="481" x2="523" y1="523.5" y2="523.5"/><line style="stroke:#A80036;stroke-width:1.0;stroke-dasharray:2.0,2.0;" x1="523" x2="523" y1="523.5" y2="536.5"/><line style="stroke:#A80036;stroke-width:1.0;stroke-dasharray:2.0,2.0;" x1="476" x2="523" y1="536.5" y2="536.5"/><polygon fill="#A80036" points="486,532.5,476,536.5,486,540.5,482,536.5" style="stroke:#A80036;stroke-width:1.0;"/><line style="stroke:#000000;stroke-width:1.0;stroke-dasharray:2.0,2.0;" x1="389" x2="1090.5" y1="540.5" y2="540.5"/><text fill="#000000" font-family="sans-serif" font-size="11" font-weight="bold" lengthAdjust="spacing" textLength="222" x="394" y="550.7104">[event type is asteroid exploded]</text><polygon fill="#A80036" points="979.5,571.4375,989.5,575.4375,979.5,579.4375,983.5,575.4375" style="stroke:#A80036;stroke-width:1.0;"/><line style="stroke:#A80036;stroke-width:1.0;" x1="476" x2="985.5" y1="575.4375" y2="575.4375"/><text fill="#000000" font-family="sans-serif" font-size="13" lengthAdjust="spacing" textLength="143" x="483" y="570.3716">getAsteroidID(subject)</text><polygon fill="#A80036" points="487,600.5703,477,604.5703,487,608.5703,483,604.5703" style="stroke:#A80036;stroke-width:1.0;"/><line style="stroke:#A80036;stroke-width:1.0;stroke-dasharray:2.0,2.0;" x1="481" x2="995.5" y1="604.5703" y2="604.5703"/><text fill="#000000" font-family="sans-serif" font-size="13" lengthAdjust="spacing" textLength="65" x="493" y="599.5044">asteroidID</text><line style="stroke:#A80036;stroke-width:1.0;" x1="476" x2="523" y1="628.7031" y2="628.7031"/><line style="stroke:#A80036;stroke-width:1.0;" x1="523" x2="523" y1="628.7031" y2="641.7031"/><line style="stroke:#A80036;stroke-width:1.0;" x1="482" x2="523" y1="641.7031" y2="641.7031"/><polygon fill="#A80036" points="492,637.7031,482,641.7031,492,645.7031,488,641.7031" style="stroke:#A80036;stroke-width:1.0;"/><text fill="#000000" font-family="sans-serif" font-size="13" lengthAdjust="spacing" textLength="325" x="488" y="623.6372">display("Asteroid " + asteroidID +" Has Exploded!")</text><line style="stroke:#A80036;stroke-width:1.0;stroke-dasharray:2.0,2.0;" x1="481" x2="523" y1="665.7031" y2="665.7031"/><line style="stroke:#A80036;stroke-width:1.0;stroke-dasharray:2.0,2.0;" x1="523" x2="523" y1="665.7031" y2="678.7031"/><line style="stroke:#A80036;stroke-width:1.0;stroke-dasharray:2.0,2.0;" x1="476" x2="523" y1="678.7031" y2="678.7031"/><polygon fill="#A80036" points="486,674.7031,476,678.7031,486,682.7031,482,678.7031" style="stroke:#A80036;stroke-width:1.0;"/><line style="stroke:#000000;stroke-width:1.0;stroke-dasharray:2.0,2.0;" x1="389" x2="1090.5" y1="682.7031" y2="682.7031"/><text fill="#000000" font-family="sans-serif" font-size="11" font-weight="bold" lengthAdjust="spacing" textLength="165" x="394" y="692.9136">[event type is sunstorm]</text><line style="stroke:#A80036;stroke-width:1.0;" x1="476" x2="523" y1="712.6406" y2="712.6406"/><line style="stroke:#A80036;stroke-width:1.0;" x1="523" x2="523" y1="712.6406" y2="725.6406"/><line style="stroke:#A80036;stroke-width:1.0;" x1="482" x2="523" y1="725.6406" y2="725.6406"/><polygon fill="#A80036" points="492,721.6406,482,725.6406,492,729.6406,488,725.6406" style="stroke:#A80036;stroke-width:1.0;"/><text fill="#000000" font-family="sans-serif" font-size="13" lengthAdjust="spacing" textLength="317" x="488" y="707.5747">display("A Sun Storm Has Hit The Asteroid Field!")</text><line style="stroke:#A80036;stroke-width:1.0;stroke-dasharray:2.0,2.0;" x1="481" x2="523" y1="749.6406" y2="749.6406"/><line style="stroke:#A80036;stroke-width:1.0;stroke-dasharray:2.0,2.0;" x1="523" x2="523" y1="749.6406" y2="762.6406"/><line style="stroke:#A80036;stroke-width:1.0;stroke-dasharray:2.0,2.0;" x1="476" x2="523" y1="762.6406" y2="762.6406"/><polygon fill="#A80036" points="486,758.6406,476,762.6406,486,766.6406,482,762.6406" style="stroke:#A80036;stroke-width:1.0;"/><path d="M10,786.6406 L76,786.6406 L76,793.6406 L66,803.6406 L10,803.6406 L10,786.6406 " fill="#EEEEEE" style="stroke:#000000;stroke-width:1.0;"/><rect fill="none" height="174.5313" style="stroke:#000000;stroke-width:2.0;" width="665" x="10" y="786.6406"/><text fill="#000000" font-family="sans-serif" font-size="13" font-weight="bold" lengthAdjust="spacing" textLength="21" x="25" y="799.7075">alt</text><text fill="#000000" font-family="sans-serif" font-size="11" font-weight="bold" lengthAdjust="spacing" textLength="147" x="91" y="798.8511">[Game is still running]</text><polygon fill="#A80036" points="310.5,820.9063,300.5,824.9063,310.5,828.9063,306.5,824.9063" style="stroke:#A80036;stroke-width:1.0;"/><line style="stroke:#A80036;stroke-width:1.0;" x1="304.5" x2="465" y1="824.9063" y2="824.9063"/><text fill="#000000" font-family="sans-serif" font-size="13" lengthAdjust="spacing" textLength="141" x="316.5" y="819.8403">update(settlerToStep)</text><polygon fill="#A80036" points="454,834.9063,464,838.9063,454,842.9063,458,838.9063" style="stroke:#A80036;stroke-width:1.0;"/><line style="stroke:#A80036;stroke-width:1.0;stroke-dasharray:2.0,2.0;" x1="294.5" x2="460" y1="838.9063" y2="838.9063"/><polygon fill="#A80036" points="121,864.0391,111,868.0391,121,872.0391,117,868.0391" style="stroke:#A80036;stroke-width:1.0;"/><line style="stroke:#A80036;stroke-width:1.0;" x1="115" x2="465" y1="868.0391" y2="868.0391"/><text fill="#000000" font-family="sans-serif" font-size="13" lengthAdjust="spacing" textLength="73" x="127" y="862.9731">update(sip)</text><polygon fill="#A80036" points="454,878.0391,464,882.0391,454,886.0391,458,882.0391" style="stroke:#A80036;stroke-width:1.0;"/><line style="stroke:#A80036;stroke-width:1.0;stroke-dasharray:2.0,2.0;" x1="105" x2="460" y1="882.0391" y2="882.0391"/><line style="stroke:#000000;stroke-width:1.0;stroke-dasharray:2.0,2.0;" x1="10" x2="675" y1="891.0391" y2="891.0391"/><line style="stroke:#A80036;stroke-width:1.0;" x1="476" x2="523" y1="908.1719" y2="908.1719"/><line style="stroke:#A80036;stroke-width:1.0;" x1="523" x2="523" y1="908.1719" y2="921.1719"/><line style="stroke:#A80036;stroke-width:1.0;" x1="482" x2="523" y1="921.1719" y2="921.1719"/><polygon fill="#A80036" points="492,917.1719,482,921.1719,492,925.1719,488,921.1719" style="stroke:#A80036;stroke-width:1.0;"/><text fill="#000000" font-family="sans-serif" font-size="13" lengthAdjust="spacing" textLength="175" x="488" y="903.106">return to new game screen</text><line style="stroke:#A80036;stroke-width:1.0;stroke-dasharray:2.0,2.0;" x1="481" x2="523" y1="945.1719" y2="945.1719"/><line style="stroke:#A80036;stroke-width:1.0;stroke-dasharray:2.0,2.0;" x1="523" x2="523" y1="945.1719" y2="958.1719"/><line style="stroke:#A80036;stroke-width:1.0;stroke-dasharray:2.0,2.0;" x1="476" x2="523" y1="958.1719" y2="958.1719"/><polygon fill="#A80036" points="486,954.1719,476,958.1719,486,962.1719,482,958.1719" style="stroke:#A80036;stroke-width:1.0;"/><polygon fill="#A80036" points="11,970.1719,1,974.1719,11,978.1719,7,974.1719" style="stroke:#A80036;stroke-width:1.0;"/><line style="stroke:#A80036;stroke-width:1.0;stroke-dasharray:2.0,2.0;" x1="5" x2="470" y1="974.1719" y2="974.1719"/><!--MD5=[ff427c55a89e37252742ffb6cbbe780b]
@startuml
participant "sip : SettlerInfoPanel" as sip
participant "afp : AsteroidFieldPanel" as afp
participant "igp : InGamePane" as igp
participant " :Game" as game
participant " :CommandDatabase" as cmdDatBase 

[->igp ++: continue()

igp->game ++:step()
return settlerToStep

loop while Game hasEvent()
    igp->game ++:getEvent()
    return event
    
    alt event type is settler died
        igp-> cmdDatBase ++: getSettlerID(subject)
        return settlerID
        igp->igp ++: display("Settler " + settlerID +" Has Died!")
        return
    else  event type is game won
        igp->igp ++: display("Base Built, Game Won! Returning To Main Menu.")
        return
    else event type is game lost
        igp->igp ++: display("Game Lost! Returning To Main Menu.")
        return
    else event type is asteroid exploded
        igp-> cmdDatBase ++: getAsteroidID(subject)
        return asteroidID
        igp->igp ++: display("Asteroid " + asteroidID +" Has Exploded!")
        return
    else event type is sunstorm
        igp->igp ++: display("A Sun Storm Has Hit The Asteroid Field!")
        return
    end
end

alt Game is still running
    igp->afp ++: update(settlerToStep)
    return
    igp->sip ++: update(sip)
    return
else
    igp->igp ++: return to new game screen
    return
end

return
@enduml

PlantUML version 1.2021.5beta3(Unknown compile time)
(GPL source distribution)
Java Runtime: Java(TM) SE Runtime Environment
JVM: Java HotSpot(TM) 64-Bit Server VM
Default Encoding: UTF-8
Language: en
Country: US
--></g></svg>