<?xml version="1.0" encoding="UTF-8" standalone="no"?><svg xmlns="http://www.w3.org/2000/svg" xmlns:xlink="http://www.w3.org/1999/xlink" contentScriptType="application/ecmascript" contentStyleType="text/css" height="232px" preserveAspectRatio="none" style="width:395px;height:232px;" version="1.1" viewBox="0 0 395 232" width="395px" zoomAndPan="magnify"><defs><filter height="300%" id="f1pw60dkw54pj6" width="300%" x="-1" y="-1"><feGaussianBlur result="blurOut" stdDeviation="2.0"/><feColorMatrix in="blurOut" result="blurOut2" type="matrix" values="0 0 0 0 0 0 0 0 0 0 0 0 0 0 0 0 0 0 .4 0"/><feOffset dx="4.0" dy="4.0" in="blurOut2" result="blurOut3"/><feBlend in="SourceGraphic" in2="blurOut3" mode="normal"/></filter></defs><g><rect fill="#FFFFFF" filter="url(#f1pw60dkw54pj6)" height="14" style="stroke:#A80036;stroke-width:1.0;" width="10" x="48" y="100.5625"/><rect fill="#FFFFFF" filter="url(#f1pw60dkw54pj6)" height="100.2656" style="stroke:#A80036;stroke-width:1.0;" width="10" x="188" y="71.4297"/><rect fill="#FFFFFF" filter="url(#f1pw60dkw54pj6)" height="14" style="stroke:#A80036;stroke-width:1.0;" width="10" x="346" y="143.6953"/><line style="stroke:#A80036;stroke-width:1.0;stroke-dasharray:5.0,5.0;" x1="53" x2="53" y1="40.2969" y2="189.6953"/><line style="stroke:#A80036;stroke-width:1.0;stroke-dasharray:5.0,5.0;" x1="193" x2="193" y1="40.2969" y2="189.6953"/><line style="stroke:#A80036;stroke-width:1.0;stroke-dasharray:5.0,5.0;" x1="350.5" x2="350.5" y1="40.2969" y2="189.6953"/><rect fill="#FEFECE" filter="url(#f1pw60dkw54pj6)" height="30.2969" style="stroke:#A80036;stroke-width:1.5;" width="92" x="5" y="5"/><text fill="#000000" font-family="sans-serif" font-size="14" lengthAdjust="spacing" textLength="78" x="12" y="24.9951">a: Asteroid</text><rect fill="#FEFECE" filter="url(#f1pw60dkw54pj6)" height="30.2969" style="stroke:#A80036;stroke-width:1.5;" width="92" x="5" y="188.6953"/><text fill="#000000" font-family="sans-serif" font-size="14" lengthAdjust="spacing" textLength="78" x="12" y="208.6904">a: Asteroid</text><rect fill="#FEFECE" filter="url(#f1pw60dkw54pj6)" height="30.2969" style="stroke:#A80036;stroke-width:1.5;" width="74" x="154" y="5"/><text fill="#000000" font-family="sans-serif" font-size="14" lengthAdjust="spacing" textLength="60" x="161" y="24.9951">r: Robot</text><rect fill="#FEFECE" filter="url(#f1pw60dkw54pj6)" height="30.2969" style="stroke:#A80036;stroke-width:1.5;" width="74" x="154" y="188.6953"/><text fill="#000000" font-family="sans-serif" font-size="14" lengthAdjust="spacing" textLength="60" x="161" y="208.6904">r: Robot</text><rect fill="#FEFECE" filter="url(#f1pw60dkw54pj6)" height="30.2969" style="stroke:#A80036;stroke-width:1.5;" width="65" x="316.5" y="5"/><text fill="#000000" font-family="sans-serif" font-size="14" lengthAdjust="spacing" textLength="51" x="323.5" y="24.9951">: Game</text><rect fill="#FEFECE" filter="url(#f1pw60dkw54pj6)" height="30.2969" style="stroke:#A80036;stroke-width:1.5;" width="65" x="316.5" y="188.6953"/><text fill="#000000" font-family="sans-serif" font-size="14" lengthAdjust="spacing" textLength="51" x="323.5" y="208.6904">: Game</text><rect fill="#FFFFFF" filter="url(#f1pw60dkw54pj6)" height="14" style="stroke:#A80036;stroke-width:1.0;" width="10" x="48" y="100.5625"/><rect fill="#FFFFFF" filter="url(#f1pw60dkw54pj6)" height="100.2656" style="stroke:#A80036;stroke-width:1.0;" width="10" x="188" y="71.4297"/><rect fill="#FFFFFF" filter="url(#f1pw60dkw54pj6)" height="14" style="stroke:#A80036;stroke-width:1.0;" width="10" x="346" y="143.6953"/><polygon fill="#A80036" points="176,67.4297,186,71.4297,176,75.4297,180,71.4297" style="stroke:#A80036;stroke-width:1.0;"/><line style="stroke:#A80036;stroke-width:1.0;" x1="53" x2="182" y1="71.4297" y2="71.4297"/><text fill="#000000" font-family="sans-serif" font-size="13" lengthAdjust="spacing" textLength="29" x="60" y="66.3638">die()</text><polygon fill="#A80036" points="69,96.5625,59,100.5625,69,104.5625,65,100.5625" style="stroke:#A80036;stroke-width:1.0;"/><line style="stroke:#A80036;stroke-width:1.0;" x1="63" x2="187" y1="100.5625" y2="100.5625"/><text fill="#000000" font-family="sans-serif" font-size="13" lengthAdjust="spacing" textLength="111" x="75" y="95.4966">removeWorker(r)</text><polygon fill="#A80036" points="176,110.5625,186,114.5625,176,118.5625,180,114.5625" style="stroke:#A80036;stroke-width:1.0;"/><line style="stroke:#A80036;stroke-width:1.0;stroke-dasharray:2.0,2.0;" x1="53" x2="182" y1="114.5625" y2="114.5625"/><polygon fill="#A80036" points="334,139.6953,344,143.6953,334,147.6953,338,143.6953" style="stroke:#A80036;stroke-width:1.0;"/><line style="stroke:#A80036;stroke-width:1.0;" x1="198" x2="340" y1="143.6953" y2="143.6953"/><text fill="#000000" font-family="sans-serif" font-size="13" lengthAdjust="spacing" textLength="129" x="205" y="138.6294">removeSteppable(r)</text><polygon fill="#A80036" points="209,153.6953,199,157.6953,209,161.6953,205,157.6953" style="stroke:#A80036;stroke-width:1.0;"/><line style="stroke:#A80036;stroke-width:1.0;stroke-dasharray:2.0,2.0;" x1="203" x2="350" y1="157.6953" y2="157.6953"/><polygon fill="#A80036" points="64,167.6953,54,171.6953,64,175.6953,60,171.6953" style="stroke:#A80036;stroke-width:1.0;"/><line style="stroke:#A80036;stroke-width:1.0;stroke-dasharray:2.0,2.0;" x1="58" x2="192" y1="171.6953" y2="171.6953"/><!--MD5=[2bbf380cb2794462c83435d3efa7202b]
@startuml
participant "a: Asteroid" as a
participant "r: Robot" as r
participant ": Game" as game

a->r ++: die()
    r->a ++: removeWorker(r)
    return
    r->game ++: removeSteppable(r)
    return
return
@enduml

PlantUML version 1.2021.2beta9(Unknown compile time)
(GPL source distribution)
Java Runtime: Java(TM) SE Runtime Environment
JVM: Java HotSpot(TM) 64-Bit Server VM
Default Encoding: UTF-8
Language: en
Country: US
--></g></svg>