<?xml version="1.0" encoding="UTF-8" standalone="no"?><svg xmlns="http://www.w3.org/2000/svg" xmlns:xlink="http://www.w3.org/1999/xlink" contentScriptType="application/ecmascript" contentStyleType="text/css" height="467px" preserveAspectRatio="none" style="width:644px;height:467px;" version="1.1" viewBox="0 0 644 467" width="644px" zoomAndPan="magnify"><defs><filter height="300%" id="fn43sm4n1idyr" width="300%" x="-1" y="-1"><feGaussianBlur result="blurOut" stdDeviation="2.0"/><feColorMatrix in="blurOut" result="blurOut2" type="matrix" values="0 0 0 0 0 0 0 0 0 0 0 0 0 0 0 0 0 0 .4 0"/><feOffset dx="4.0" dy="4.0" in="blurOut2" result="blurOut3"/><feBlend in="SourceGraphic" in2="blurOut3" mode="normal"/></filter></defs><g><rect fill="#FFFFFF" filter="url(#fn43sm4n1idyr)" height="335" style="stroke:#A80036;stroke-width:1.0;" width="10" x="139.5" y="71.4297"/><rect fill="#FFFFFF" filter="url(#fn43sm4n1idyr)" height="25" style="stroke:#A80036;stroke-width:1.0;" width="10" x="144.5" y="346.4297"/><rect fill="#FFFFFF" filter="url(#fn43sm4n1idyr)" height="29.1328" style="stroke:#A80036;stroke-width:1.0;" width="10" x="467" y="100.5625"/><rect fill="#FFFFFF" filter="url(#fn43sm4n1idyr)" height="29.1328" style="stroke:#A80036;stroke-width:1.0;" width="10" x="467" y="182.9609"/><rect fill="#FFFFFF" filter="url(#fn43sm4n1idyr)" height="29.1328" style="stroke:#A80036;stroke-width:1.0;" width="10" x="467" y="256.0313"/><rect fill="#FFFFFF" filter="url(#fn43sm4n1idyr)" height="248.7344" style="stroke:#000000;stroke-width:2.0;" width="520" x="10" y="144.6953"/><rect fill="#FFFFFF" height="173.3359" style="stroke:none;stroke-width:1.0;" width="520" x="10" y="220.0938"/><rect fill="#FFFFFF" filter="url(#fn43sm4n1idyr)" height="86.2656" style="stroke:#000000;stroke-width:2.0;" width="257" x="20" y="300.1641"/><line style="stroke:#A80036;stroke-width:1.0;stroke-dasharray:5.0,5.0;" x1="144" x2="144" y1="40.2969" y2="424.4297"/><line style="stroke:#A80036;stroke-width:1.0;stroke-dasharray:5.0,5.0;" x1="341" x2="341" y1="40.2969" y2="424.4297"/><line style="stroke:#A80036;stroke-width:1.0;stroke-dasharray:5.0,5.0;" x1="472" x2="472" y1="40.2969" y2="424.4297"/><line style="stroke:#A80036;stroke-width:1.0;stroke-dasharray:5.0,5.0;" x1="582" x2="582" y1="40.2969" y2="424.4297"/><rect fill="#FEFECE" filter="url(#fn43sm4n1idyr)" height="30.2969" style="stroke:#A80036;stroke-width:1.5;" width="225" x="30" y="5"/><text fill="#000000" font-family="sans-serif" font-size="14" lengthAdjust="spacing" textLength="211" x="37" y="24.9951">ufo: UnidentifiedFlyingObject</text><rect fill="#FEFECE" filter="url(#fn43sm4n1idyr)" height="30.2969" style="stroke:#A80036;stroke-width:1.5;" width="225" x="30" y="423.4297"/><text fill="#000000" font-family="sans-serif" font-size="14" lengthAdjust="spacing" textLength="211" x="37" y="443.4248">ufo: UnidentifiedFlyingObject</text><rect fill="#FEFECE" filter="url(#fn43sm4n1idyr)" height="30.2969" style="stroke:#A80036;stroke-width:1.5;" width="141" x="269" y="5"/><text fill="#000000" font-family="sans-serif" font-size="14" lengthAdjust="spacing" textLength="127" x="276" y="24.9951">inv: UFOInventory</text><rect fill="#FEFECE" filter="url(#fn43sm4n1idyr)" height="30.2969" style="stroke:#A80036;stroke-width:1.5;" width="141" x="269" y="423.4297"/><text fill="#000000" font-family="sans-serif" font-size="14" lengthAdjust="spacing" textLength="127" x="276" y="443.4248">inv: UFOInventory</text><rect fill="#FEFECE" filter="url(#fn43sm4n1idyr)" height="30.2969" style="stroke:#A80036;stroke-width:1.5;" width="92" x="424" y="5"/><text fill="#000000" font-family="sans-serif" font-size="14" lengthAdjust="spacing" textLength="78" x="431" y="24.9951">a: Asteroid</text><rect fill="#FEFECE" filter="url(#fn43sm4n1idyr)" height="30.2969" style="stroke:#A80036;stroke-width:1.5;" width="92" x="424" y="423.4297"/><text fill="#000000" font-family="sans-serif" font-size="14" lengthAdjust="spacing" textLength="78" x="431" y="443.4248">a: Asteroid</text><rect fill="#FEFECE" filter="url(#fn43sm4n1idyr)" height="30.2969" style="stroke:#A80036;stroke-width:1.5;" width="100" x="530" y="5"/><text fill="#000000" font-family="sans-serif" font-size="14" lengthAdjust="spacing" textLength="86" x="537" y="24.9951">a2: Asteroid</text><rect fill="#FEFECE" filter="url(#fn43sm4n1idyr)" height="30.2969" style="stroke:#A80036;stroke-width:1.5;" width="100" x="530" y="423.4297"/><text fill="#000000" font-family="sans-serif" font-size="14" lengthAdjust="spacing" textLength="86" x="537" y="443.4248">a2: Asteroid</text><rect fill="#FFFFFF" filter="url(#fn43sm4n1idyr)" height="335" style="stroke:#A80036;stroke-width:1.0;" width="10" x="139.5" y="71.4297"/><rect fill="#FFFFFF" filter="url(#fn43sm4n1idyr)" height="25" style="stroke:#A80036;stroke-width:1.0;" width="10" x="144.5" y="346.4297"/><rect fill="#FFFFFF" filter="url(#fn43sm4n1idyr)" height="29.1328" style="stroke:#A80036;stroke-width:1.0;" width="10" x="467" y="100.5625"/><rect fill="#FFFFFF" filter="url(#fn43sm4n1idyr)" height="29.1328" style="stroke:#A80036;stroke-width:1.0;" width="10" x="467" y="182.9609"/><rect fill="#FFFFFF" filter="url(#fn43sm4n1idyr)" height="29.1328" style="stroke:#A80036;stroke-width:1.0;" width="10" x="467" y="256.0313"/><polygon fill="#A80036" points="127.5,67.4297,137.5,71.4297,127.5,75.4297,131.5,71.4297" style="stroke:#A80036;stroke-width:1.0;"/><line style="stroke:#A80036;stroke-width:1.0;" x1="0" x2="133.5" y1="71.4297" y2="71.4297"/><text fill="#000000" font-family="sans-serif" font-size="13" lengthAdjust="spacing" textLength="38" x="7" y="66.3638">step()</text><polygon fill="#A80036" points="455,96.5625,465,100.5625,455,104.5625,459,100.5625" style="stroke:#A80036;stroke-width:1.0;"/><line style="stroke:#A80036;stroke-width:1.0;" x1="149.5" x2="461" y1="100.5625" y2="100.5625"/><text fill="#000000" font-family="sans-serif" font-size="13" lengthAdjust="spacing" textLength="75" x="156.5" y="95.4966">isExposed()</text><polygon fill="#A80036" points="160.5,125.6953,150.5,129.6953,160.5,133.6953,156.5,129.6953" style="stroke:#A80036;stroke-width:1.0;"/><line style="stroke:#A80036;stroke-width:1.0;stroke-dasharray:2.0,2.0;" x1="154.5" x2="471" y1="129.6953" y2="129.6953"/><text fill="#000000" font-family="sans-serif" font-size="13" lengthAdjust="spacing" textLength="55" x="166.5" y="124.6294">exposed</text><path d="M10,144.6953 L76,144.6953 L76,151.6953 L66,161.6953 L10,161.6953 L10,144.6953 " fill="#EEEEEE" style="stroke:#000000;stroke-width:1.0;"/><rect fill="none" height="248.7344" style="stroke:#000000;stroke-width:2.0;" width="520" x="10" y="144.6953"/><text fill="#000000" font-family="sans-serif" font-size="13" font-weight="bold" lengthAdjust="spacing" textLength="21" x="25" y="157.7622">alt</text><text fill="#000000" font-family="sans-serif" font-size="11" font-weight="bold" lengthAdjust="spacing" textLength="342" x="91" y="156.9058">[exposed == true &amp;&amp; UFO thinks core is not empty]</text><polygon fill="#A80036" points="455,178.9609,465,182.9609,455,186.9609,459,182.9609" style="stroke:#A80036;stroke-width:1.0;"/><line style="stroke:#A80036;stroke-width:1.0;" x1="149.5" x2="461" y1="182.9609" y2="182.9609"/><text fill="#000000" font-family="sans-serif" font-size="13" lengthAdjust="spacing" textLength="69" x="156.5" y="177.895">mined(inv)</text><polygon fill="#A80036" points="160.5,208.0938,150.5,212.0938,160.5,216.0938,156.5,212.0938" style="stroke:#A80036;stroke-width:1.0;"/><line style="stroke:#A80036;stroke-width:1.0;stroke-dasharray:2.0,2.0;" x1="154.5" x2="471" y1="212.0938" y2="212.0938"/><text fill="#000000" font-family="sans-serif" font-size="13" lengthAdjust="spacing" textLength="113" x="166.5" y="207.0278">miningSucceeded</text><line style="stroke:#000000;stroke-width:1.0;stroke-dasharray:2.0,2.0;" x1="10" x2="530" y1="221.0938" y2="221.0938"/><text fill="#000000" font-family="sans-serif" font-size="11" font-weight="bold" lengthAdjust="spacing" textLength="37" x="15" y="231.3042">[else]</text><polygon fill="#A80036" points="455,252.0313,465,256.0313,455,260.0313,459,256.0313" style="stroke:#A80036;stroke-width:1.0;"/><line style="stroke:#A80036;stroke-width:1.0;" x1="149.5" x2="461" y1="256.0313" y2="256.0313"/><text fill="#000000" font-family="sans-serif" font-size="13" lengthAdjust="spacing" textLength="95" x="156.5" y="250.9653">getNeighbors()</text><polygon fill="#A80036" points="160.5,281.1641,150.5,285.1641,160.5,289.1641,156.5,285.1641" style="stroke:#A80036;stroke-width:1.0;"/><line style="stroke:#A80036;stroke-width:1.0;stroke-dasharray:2.0,2.0;" x1="154.5" x2="471" y1="285.1641" y2="285.1641"/><text fill="#000000" font-family="sans-serif" font-size="13" lengthAdjust="spacing" textLength="63" x="166.5" y="280.0981">neighbors</text><path d="M20,300.1641 L92,300.1641 L92,307.1641 L82,317.1641 L20,317.1641 L20,300.1641 " fill="#EEEEEE" style="stroke:#000000;stroke-width:1.0;"/><rect fill="none" height="86.2656" style="stroke:#000000;stroke-width:2.0;" width="257" x="20" y="300.1641"/><text fill="#000000" font-family="sans-serif" font-size="13" font-weight="bold" lengthAdjust="spacing" textLength="27" x="35" y="313.231">opt</text><text fill="#000000" font-family="sans-serif" font-size="11" font-weight="bold" lengthAdjust="spacing" textLength="165" x="107" y="312.3745">[neighbors is not empty]</text><line style="stroke:#A80036;stroke-width:1.0;" x1="149.5" x2="196.5" y1="333.4297" y2="333.4297"/><line style="stroke:#A80036;stroke-width:1.0;" x1="196.5" x2="196.5" y1="333.4297" y2="346.4297"/><line style="stroke:#A80036;stroke-width:1.0;" x1="155.5" x2="196.5" y1="346.4297" y2="346.4297"/><polygon fill="#A80036" points="165.5,342.4297,155.5,346.4297,165.5,350.4297,161.5,346.4297" style="stroke:#A80036;stroke-width:1.0;"/><text fill="#000000" font-family="sans-serif" font-size="13" lengthAdjust="spacing" textLength="63" x="161.5" y="328.3638">move(a2)</text><line style="stroke:#A80036;stroke-width:1.0;stroke-dasharray:2.0,2.0;" x1="154.5" x2="196.5" y1="370.4297" y2="370.4297"/><line style="stroke:#A80036;stroke-width:1.0;stroke-dasharray:2.0,2.0;" x1="196.5" x2="196.5" y1="370.4297" y2="383.4297"/><line style="stroke:#A80036;stroke-width:1.0;stroke-dasharray:2.0,2.0;" x1="149.5" x2="196.5" y1="383.4297" y2="383.4297"/><polygon fill="#A80036" points="159.5,379.4297,149.5,383.4297,159.5,387.4297,155.5,383.4297" style="stroke:#A80036;stroke-width:1.0;"/><polygon fill="#A80036" points="11,402.4297,1,406.4297,11,410.4297,7,406.4297" style="stroke:#A80036;stroke-width:1.0;"/><line style="stroke:#A80036;stroke-width:1.0;stroke-dasharray:2.0,2.0;" x1="5" x2="143.5" y1="406.4297" y2="406.4297"/><!--MD5=[1de287976d4105ab358f45b37150e42a]
@startuml
participant "ufo: UnidentifiedFlyingObject" as ufo
participant "inv: UFOInventory" as inv
participant "a: Asteroid" as a
participant "a2: Asteroid" as a2


[->ufo ++:step()
    ufo->a++: isExposed()
    return exposed
    alt exposed == true && UFO thinks core is not empty
        ufo->a ++:mined(inv)
        return miningSucceeded
    else else
        ufo-> a ++: getNeighbors()
        return neighbors
        
        opt neighbors is not empty
        ufo->ufo ++:move(a2)
        return
        end
    
    end
return
@enduml

PlantUML version 1.2021.4beta2(Unknown compile time)
(GPL source distribution)
Java Runtime: Java(TM) SE Runtime Environment
JVM: Java HotSpot(TM) 64-Bit Server VM
Default Encoding: UTF-8
Language: en
Country: US
--></g></svg>