<?xml version="1.0" encoding="UTF-8" standalone="no"?><svg xmlns="http://www.w3.org/2000/svg" xmlns:xlink="http://www.w3.org/1999/xlink" contentScriptType="application/ecmascript" contentStyleType="text/css" height="580px" preserveAspectRatio="none" style="width:860px;height:580px;" version="1.1" viewBox="0 0 860 580" width="860px" zoomAndPan="magnify"><defs><filter height="300%" id="f997uy8ab4uwl" width="300%" x="-1" y="-1"><feGaussianBlur result="blurOut" stdDeviation="2.0"/><feColorMatrix in="blurOut" result="blurOut2" type="matrix" values="0 0 0 0 0 0 0 0 0 0 0 0 0 0 0 0 0 0 .4 0"/><feOffset dx="4.0" dy="4.0" in="blurOut2" result="blurOut3"/><feBlend in="SourceGraphic" in2="blurOut3" mode="normal"/></filter></defs><g><rect fill="#FFFFFF" filter="url(#f997uy8ab4uwl)" height="205.6641" style="stroke:#A80036;stroke-width:1.0;" width="10" x="75" y="292.8984"/><rect fill="#FFFFFF" filter="url(#f997uy8ab4uwl)" height="448.1328" style="stroke:#A80036;stroke-width:1.0;" width="10" x="186.5" y="71.4297"/><rect fill="#FFFFFF" filter="url(#f997uy8ab4uwl)" height="40.1328" style="stroke:#A80036;stroke-width:1.0;" width="10" x="191.5" y="108.5625"/><rect fill="#FFFFFF" filter="url(#f997uy8ab4uwl)" height="25" style="stroke:#A80036;stroke-width:1.0;" width="10" x="191.5" y="216.9609"/><rect fill="#FFFFFF" filter="url(#f997uy8ab4uwl)" height="14" style="stroke:#A80036;stroke-width:1.0;" width="10" x="452.5" y="346.1641"/><rect fill="#FFFFFF" filter="url(#f997uy8ab4uwl)" height="14" style="stroke:#A80036;stroke-width:1.0;" width="10" x="689" y="420.4297"/><rect fill="#FFFFFF" filter="url(#f997uy8ab4uwl)" height="14" style="stroke:#A80036;stroke-width:1.0;" width="10" x="796.5" y="470.5625"/><rect fill="#FFFFFF" filter="url(#f997uy8ab4uwl)" height="335.8672" style="stroke:#000000;stroke-width:2.0;" width="836" x="10" y="170.6953"/><rect fill="#FFFFFF" height="249.6016" style="stroke:none;stroke-width:1.0;" width="836" x="10" y="256.9609"/><rect fill="#FFFFFF" filter="url(#f997uy8ab4uwl)" height="60.2656" style="stroke:#000000;stroke-width:2.0;" width="495" x="20" y="307.8984"/><rect fill="#FFFFFF" filter="url(#f997uy8ab4uwl)" height="60.2656" style="stroke:#000000;stroke-width:2.0;" width="747" x="20" y="382.1641"/><line style="stroke:#A80036;stroke-width:1.0;stroke-dasharray:5.0,5.0;" x1="80" x2="80" y1="40.2969" y2="537.5625"/><line style="stroke:#A80036;stroke-width:1.0;stroke-dasharray:5.0,5.0;" x1="191" x2="191" y1="40.2969" y2="537.5625"/><line style="stroke:#A80036;stroke-width:1.0;stroke-dasharray:5.0,5.0;" x1="457" x2="457" y1="40.2969" y2="537.5625"/><line style="stroke:#A80036;stroke-width:1.0;stroke-dasharray:5.0,5.0;" x1="568" x2="568" y1="40.2969" y2="537.5625"/><line style="stroke:#A80036;stroke-width:1.0;stroke-dasharray:5.0,5.0;" x1="694" x2="694" y1="40.2969" y2="537.5625"/><line style="stroke:#A80036;stroke-width:1.0;stroke-dasharray:5.0,5.0;" x1="801" x2="801" y1="40.2969" y2="537.5625"/><rect fill="#FEFECE" filter="url(#f997uy8ab4uwl)" height="30.2969" style="stroke:#A80036;stroke-width:1.5;" width="96" x="30" y="5"/><text fill="#000000" font-family="sans-serif" font-size="14" lengthAdjust="spacing" textLength="82" x="37" y="24.9951">a : Asteroid</text><rect fill="#FEFECE" filter="url(#f997uy8ab4uwl)" height="30.2969" style="stroke:#A80036;stroke-width:1.5;" width="96" x="30" y="536.5625"/><text fill="#000000" font-family="sans-serif" font-size="14" lengthAdjust="spacing" textLength="82" x="37" y="556.5576">a : Asteroid</text><rect fill="#FEFECE" filter="url(#f997uy8ab4uwl)" height="30.2969" style="stroke:#A80036;stroke-width:1.5;" width="99" x="140" y="5"/><text fill="#000000" font-family="sans-serif" font-size="14" lengthAdjust="spacing" textLength="85" x="147" y="24.9951">ur : Uranium</text><rect fill="#FEFECE" filter="url(#f997uy8ab4uwl)" height="30.2969" style="stroke:#A80036;stroke-width:1.5;" width="99" x="140" y="536.5625"/><text fill="#000000" font-family="sans-serif" font-size="14" lengthAdjust="spacing" textLength="85" x="147" y="556.5576">ur : Uranium</text><rect fill="#FEFECE" filter="url(#f997uy8ab4uwl)" height="30.2969" style="stroke:#A80036;stroke-width:1.5;" width="91" x="410" y="5"/><text fill="#000000" font-family="sans-serif" font-size="14" lengthAdjust="spacing" textLength="77" x="417" y="24.9951">w : Worker</text><rect fill="#FEFECE" filter="url(#f997uy8ab4uwl)" height="30.2969" style="stroke:#A80036;stroke-width:1.5;" width="91" x="410" y="536.5625"/><text fill="#000000" font-family="sans-serif" font-size="14" lengthAdjust="spacing" textLength="77" x="417" y="556.5576">w : Worker</text><rect fill="#FEFECE" filter="url(#f997uy8ab4uwl)" height="30.2969" style="stroke:#A80036;stroke-width:1.5;" width="102" x="515" y="5"/><text fill="#000000" font-family="sans-serif" font-size="14" lengthAdjust="spacing" textLength="88" x="522" y="24.9951">te: Teleport</text><rect fill="#FEFECE" filter="url(#f997uy8ab4uwl)" height="30.2969" style="stroke:#A80036;stroke-width:1.5;" width="102" x="515" y="536.5625"/><text fill="#000000" font-family="sans-serif" font-size="14" lengthAdjust="spacing" textLength="88" x="522" y="556.5576">te: Teleport</text><rect fill="#FEFECE" filter="url(#f997uy8ab4uwl)" height="30.2969" style="stroke:#A80036;stroke-width:1.5;" width="122" x="631" y="5"/><text fill="#000000" font-family="sans-serif" font-size="14" lengthAdjust="spacing" textLength="108" x="638" y="24.9951">tr: Transporter</text><rect fill="#FEFECE" filter="url(#f997uy8ab4uwl)" height="30.2969" style="stroke:#A80036;stroke-width:1.5;" width="122" x="631" y="536.5625"/><text fill="#000000" font-family="sans-serif" font-size="14" lengthAdjust="spacing" textLength="108" x="638" y="556.5576">tr: Transporter</text><rect fill="#FEFECE" filter="url(#f997uy8ab4uwl)" height="30.2969" style="stroke:#A80036;stroke-width:1.5;" width="65" x="767" y="5"/><text fill="#000000" font-family="sans-serif" font-size="14" lengthAdjust="spacing" textLength="51" x="774" y="24.9951">: Game</text><rect fill="#FEFECE" filter="url(#f997uy8ab4uwl)" height="30.2969" style="stroke:#A80036;stroke-width:1.5;" width="65" x="767" y="536.5625"/><text fill="#000000" font-family="sans-serif" font-size="14" lengthAdjust="spacing" textLength="51" x="774" y="556.5576">: Game</text><rect fill="#FFFFFF" filter="url(#f997uy8ab4uwl)" height="205.6641" style="stroke:#A80036;stroke-width:1.0;" width="10" x="75" y="292.8984"/><rect fill="#FFFFFF" filter="url(#f997uy8ab4uwl)" height="448.1328" style="stroke:#A80036;stroke-width:1.0;" width="10" x="186.5" y="71.4297"/><rect fill="#FFFFFF" filter="url(#f997uy8ab4uwl)" height="40.1328" style="stroke:#A80036;stroke-width:1.0;" width="10" x="191.5" y="108.5625"/><rect fill="#FFFFFF" filter="url(#f997uy8ab4uwl)" height="25" style="stroke:#A80036;stroke-width:1.0;" width="10" x="191.5" y="216.9609"/><rect fill="#FFFFFF" filter="url(#f997uy8ab4uwl)" height="14" style="stroke:#A80036;stroke-width:1.0;" width="10" x="452.5" y="346.1641"/><rect fill="#FFFFFF" filter="url(#f997uy8ab4uwl)" height="14" style="stroke:#A80036;stroke-width:1.0;" width="10" x="689" y="420.4297"/><rect fill="#FFFFFF" filter="url(#f997uy8ab4uwl)" height="14" style="stroke:#A80036;stroke-width:1.0;" width="10" x="796.5" y="470.5625"/><polygon fill="#A80036" points="174.5,67.4297,184.5,71.4297,174.5,75.4297,178.5,71.4297" style="stroke:#A80036;stroke-width:1.0;"/><line style="stroke:#A80036;stroke-width:1.0;" x1="80" x2="180.5" y1="71.4297" y2="71.4297"/><text fill="#000000" font-family="sans-serif" font-size="13" lengthAdjust="spacing" textLength="73" x="87" y="66.3638">exposed(a)</text><line style="stroke:#A80036;stroke-width:1.0;" x1="196.5" x2="243.5" y1="95.5625" y2="95.5625"/><line style="stroke:#A80036;stroke-width:1.0;" x1="243.5" x2="243.5" y1="95.5625" y2="108.5625"/><line style="stroke:#A80036;stroke-width:1.0;" x1="202.5" x2="243.5" y1="108.5625" y2="108.5625"/><polygon fill="#A80036" points="212.5,104.5625,202.5,108.5625,212.5,112.5625,208.5,108.5625" style="stroke:#A80036;stroke-width:1.0;"/><text fill="#000000" font-family="sans-serif" font-size="13" lengthAdjust="spacing" textLength="114" x="208.5" y="90.4966">getExposedCount</text><line style="stroke:#A80036;stroke-width:1.0;stroke-dasharray:2.0,2.0;" x1="201.5" x2="243.5" y1="147.6953" y2="147.6953"/><line style="stroke:#A80036;stroke-width:1.0;stroke-dasharray:2.0,2.0;" x1="243.5" x2="243.5" y1="147.6953" y2="160.6953"/><line style="stroke:#A80036;stroke-width:1.0;stroke-dasharray:2.0,2.0;" x1="196.5" x2="243.5" y1="160.6953" y2="160.6953"/><polygon fill="#A80036" points="206.5,156.6953,196.5,160.6953,206.5,164.6953,202.5,160.6953" style="stroke:#A80036;stroke-width:1.0;"/><text fill="#000000" font-family="sans-serif" font-size="13" lengthAdjust="spacing" textLength="93" x="208.5" y="142.6294">exposedCount</text><path d="M10,170.6953 L76,170.6953 L76,177.6953 L66,187.6953 L10,187.6953 L10,170.6953 " fill="#EEEEEE" style="stroke:#000000;stroke-width:1.0;"/><rect fill="none" height="335.8672" style="stroke:#000000;stroke-width:2.0;" width="836" x="10" y="170.6953"/><text fill="#000000" font-family="sans-serif" font-size="13" font-weight="bold" lengthAdjust="spacing" textLength="21" x="25" y="183.7622">alt</text><text fill="#000000" font-family="sans-serif" font-size="11" font-weight="bold" lengthAdjust="spacing" textLength="131" x="91" y="182.9058">[exposedCount &lt; 3]</text><line style="stroke:#A80036;stroke-width:1.0;" x1="196.5" x2="243.5" y1="203.9609" y2="203.9609"/><line style="stroke:#A80036;stroke-width:1.0;" x1="243.5" x2="243.5" y1="203.9609" y2="216.9609"/><line style="stroke:#A80036;stroke-width:1.0;" x1="202.5" x2="243.5" y1="216.9609" y2="216.9609"/><polygon fill="#A80036" points="212.5,212.9609,202.5,216.9609,212.5,220.9609,208.5,216.9609" style="stroke:#A80036;stroke-width:1.0;"/><text fill="#000000" font-family="sans-serif" font-size="13" lengthAdjust="spacing" textLength="242" x="208.5" y="198.895">setExposedCount(exposedCount + 1)</text><line style="stroke:#A80036;stroke-width:1.0;stroke-dasharray:2.0,2.0;" x1="201.5" x2="243.5" y1="240.9609" y2="240.9609"/><line style="stroke:#A80036;stroke-width:1.0;stroke-dasharray:2.0,2.0;" x1="243.5" x2="243.5" y1="240.9609" y2="253.9609"/><line style="stroke:#A80036;stroke-width:1.0;stroke-dasharray:2.0,2.0;" x1="196.5" x2="243.5" y1="253.9609" y2="253.9609"/><polygon fill="#A80036" points="206.5,249.9609,196.5,253.9609,206.5,257.9609,202.5,253.9609" style="stroke:#A80036;stroke-width:1.0;"/><line style="stroke:#000000;stroke-width:1.0;stroke-dasharray:2.0,2.0;" x1="10" x2="846" y1="257.9609" y2="257.9609"/><text fill="#000000" font-family="sans-serif" font-size="11" font-weight="bold" lengthAdjust="spacing" textLength="37" x="15" y="268.1714">[else]</text><polygon fill="#A80036" points="96,288.8984,86,292.8984,96,296.8984,92,292.8984" style="stroke:#A80036;stroke-width:1.0;"/><line style="stroke:#A80036;stroke-width:1.0;" x1="90" x2="185.5" y1="292.8984" y2="292.8984"/><text fill="#000000" font-family="sans-serif" font-size="13" lengthAdjust="spacing" textLength="61" x="102" y="287.8325">explode()</text><path d="M20,307.8984 L98,307.8984 L98,314.8984 L88,324.8984 L20,324.8984 L20,307.8984 " fill="#EEEEEE" style="stroke:#000000;stroke-width:1.0;"/><rect fill="none" height="60.2656" style="stroke:#000000;stroke-width:2.0;" width="495" x="20" y="307.8984"/><text fill="#000000" font-family="sans-serif" font-size="13" font-weight="bold" lengthAdjust="spacing" textLength="33" x="35" y="320.9653">loop</text><text fill="#000000" font-family="sans-serif" font-size="11" font-weight="bold" lengthAdjust="spacing" textLength="119" x="113" y="320.1089">[for w in workers]</text><polygon fill="#A80036" points="440.5,342.1641,450.5,346.1641,440.5,350.1641,444.5,346.1641" style="stroke:#A80036;stroke-width:1.0;"/><line style="stroke:#A80036;stroke-width:1.0;" x1="85" x2="446.5" y1="346.1641" y2="346.1641"/><text fill="#000000" font-family="sans-serif" font-size="13" lengthAdjust="spacing" textLength="61" x="92" y="341.0981">explode()</text><polygon fill="#A80036" points="96,356.1641,86,360.1641,96,364.1641,92,360.1641" style="stroke:#A80036;stroke-width:1.0;"/><line style="stroke:#A80036;stroke-width:1.0;stroke-dasharray:2.0,2.0;" x1="90" x2="456.5" y1="360.1641" y2="360.1641"/><path d="M20,382.1641 L98,382.1641 L98,389.1641 L88,399.1641 L20,399.1641 L20,382.1641 " fill="#EEEEEE" style="stroke:#000000;stroke-width:1.0;"/><rect fill="none" height="60.2656" style="stroke:#000000;stroke-width:2.0;" width="747" x="20" y="382.1641"/><text fill="#000000" font-family="sans-serif" font-size="13" font-weight="bold" lengthAdjust="spacing" textLength="33" x="35" y="395.231">loop</text><text fill="#000000" font-family="sans-serif" font-size="11" font-weight="bold" lengthAdjust="spacing" textLength="135" x="113" y="394.3745">[for tr in neighbors]</text><polygon fill="#A80036" points="677,416.4297,687,420.4297,677,424.4297,681,420.4297" style="stroke:#A80036;stroke-width:1.0;"/><line style="stroke:#A80036;stroke-width:1.0;" x1="85" x2="683" y1="420.4297" y2="420.4297"/><text fill="#000000" font-family="sans-serif" font-size="13" lengthAdjust="spacing" textLength="125" x="92" y="415.3638">removeNeighbor(a)</text><polygon fill="#A80036" points="96,430.4297,86,434.4297,96,438.4297,92,434.4297" style="stroke:#A80036;stroke-width:1.0;"/><line style="stroke:#A80036;stroke-width:1.0;stroke-dasharray:2.0,2.0;" x1="90" x2="693" y1="434.4297" y2="434.4297"/><polygon fill="#A80036" points="784.5,466.5625,794.5,470.5625,784.5,474.5625,788.5,470.5625" style="stroke:#A80036;stroke-width:1.0;"/><line style="stroke:#A80036;stroke-width:1.0;" x1="85" x2="790.5" y1="470.5625" y2="470.5625"/><text fill="#000000" font-family="sans-serif" font-size="13" lengthAdjust="spacing" textLength="132" x="92" y="465.4966">removeSteppable(a)</text><polygon fill="#A80036" points="96,480.5625,86,484.5625,96,488.5625,92,484.5625" style="stroke:#A80036;stroke-width:1.0;"/><line style="stroke:#A80036;stroke-width:1.0;stroke-dasharray:2.0,2.0;" x1="90" x2="800.5" y1="484.5625" y2="484.5625"/><polygon fill="#A80036" points="174.5,494.5625,184.5,498.5625,174.5,502.5625,178.5,498.5625" style="stroke:#A80036;stroke-width:1.0;"/><line style="stroke:#A80036;stroke-width:1.0;stroke-dasharray:2.0,2.0;" x1="80" x2="180.5" y1="498.5625" y2="498.5625"/><polygon fill="#A80036" points="91,515.5625,81,519.5625,91,523.5625,87,519.5625" style="stroke:#A80036;stroke-width:1.0;"/><line style="stroke:#A80036;stroke-width:1.0;stroke-dasharray:2.0,2.0;" x1="85" x2="190.5" y1="519.5625" y2="519.5625"/><line style="stroke:#A80036;stroke-width:2.0;" x1="71" x2="89" y1="510.5625" y2="528.5625"/><line style="stroke:#A80036;stroke-width:2.0;" x1="71" x2="89" y1="528.5625" y2="510.5625"/><line style="stroke:#A80036;stroke-width:2.0;" x1="182.5" x2="200.5" y1="510.5625" y2="528.5625"/><line style="stroke:#A80036;stroke-width:2.0;" x1="182.5" x2="200.5" y1="528.5625" y2="510.5625"/><!--MD5=[22deedc539e10ed0ed119d70159fb5bd]
@startuml
participant "a : Asteroid" as a
participant "ur : Uranium" as ur
participant "w : Worker" as w
participant "te: Teleport" as t
participant "tr: Transporter" as tr
participant ": Game" as g

a->ur: exposed(a)
activate ur
ur->ur ++:getExposedCount
return exposedCount
alt exposedCount < 3
ur->ur ++:setExposedCount(exposedCount + 1)
return
else else
    ur->a: explode()
    activate a
        loop for w in workers
            a->w:explode()
            activate w
            w- ->a
            deactivate w
        end

    
    loop for tr in neighbors
        a->tr ++:removeNeighbor(a)
        return
    end
    a->g ++: removeSteppable(a)
	return
    a- ->ur - -
end
ur- ->a !!
destroy ur
@enduml

PlantUML version 1.2021.4beta2(Unknown compile time)
(GPL source distribution)
Java Runtime: Java(TM) SE Runtime Environment
JVM: Java HotSpot(TM) 64-Bit Server VM
Default Encoding: UTF-8
Language: en
Country: US
--></g></svg>