<?xml version="1.0" encoding="UTF-8" standalone="no"?><svg xmlns="http://www.w3.org/2000/svg" xmlns:xlink="http://www.w3.org/1999/xlink" contentScriptType="application/ecmascript" contentStyleType="text/css" height="337px" preserveAspectRatio="none" style="width:470px;height:337px;" version="1.1" viewBox="0 0 470 337" width="470px" zoomAndPan="magnify"><defs><filter height="300%" id="f11ml7ggjmzyeb" width="300%" x="-1" y="-1"><feGaussianBlur result="blurOut" stdDeviation="2.0"/><feColorMatrix in="blurOut" result="blurOut2" type="matrix" values="0 0 0 0 0 0 0 0 0 0 0 0 0 0 0 0 0 0 .4 0"/><feOffset dx="4.0" dy="4.0" in="blurOut2" result="blurOut3"/><feBlend in="SourceGraphic" in2="blurOut3" mode="normal"/></filter></defs><g><rect fill="#FFFFFF" filter="url(#f11ml7ggjmzyeb)" height="204.7969" style="stroke:#A80036;stroke-width:1.0;" width="10" x="123.5" y="71.4297"/><rect fill="#FFFFFF" filter="url(#f11ml7ggjmzyeb)" height="29.1328" style="stroke:#A80036;stroke-width:1.0;" width="10" x="274.5" y="124.6953"/><rect fill="#FFFFFF" filter="url(#f11ml7ggjmzyeb)" height="14" style="stroke:#A80036;stroke-width:1.0;" width="10" x="274.5" y="182.9609"/><rect fill="#FFFFFF" filter="url(#f11ml7ggjmzyeb)" height="29.1328" style="stroke:#A80036;stroke-width:1.0;" width="10" x="389" y="226.0938"/><rect fill="#FFFFFF" filter="url(#f11ml7ggjmzyeb)" height="176.7969" style="stroke:#000000;stroke-width:2.0;" width="386" x="70" y="86.4297"/><line style="stroke:#A80036;stroke-width:1.0;stroke-dasharray:5.0,5.0;" x1="37" x2="37" y1="40.2969" y2="294.2266"/><line style="stroke:#A80036;stroke-width:1.0;stroke-dasharray:5.0,5.0;" x1="128" x2="128" y1="40.2969" y2="294.2266"/><line style="stroke:#A80036;stroke-width:1.0;stroke-dasharray:5.0,5.0;" x1="279" x2="279" y1="40.2969" y2="294.2266"/><line style="stroke:#A80036;stroke-width:1.0;stroke-dasharray:5.0,5.0;" x1="394" x2="394" y1="40.2969" y2="294.2266"/><rect fill="#FEFECE" filter="url(#f11ml7ggjmzyeb)" height="30.2969" style="stroke:#A80036;stroke-width:1.5;" width="61" x="5" y="5"/><text fill="#000000" font-family="sans-serif" font-size="14" lengthAdjust="spacing" textLength="47" x="12" y="24.9951">:Game</text><rect fill="#FEFECE" filter="url(#f11ml7ggjmzyeb)" height="30.2969" style="stroke:#A80036;stroke-width:1.5;" width="61" x="5" y="293.2266"/><text fill="#000000" font-family="sans-serif" font-size="14" lengthAdjust="spacing" textLength="47" x="12" y="313.2217">:Game</text><rect fill="#FEFECE" filter="url(#f11ml7ggjmzyeb)" height="30.2969" style="stroke:#A80036;stroke-width:1.5;" width="93" x="80" y="5"/><text fill="#000000" font-family="sans-serif" font-size="14" lengthAdjust="spacing" textLength="79" x="87" y="24.9951">t: Teleport</text><rect fill="#FEFECE" filter="url(#f11ml7ggjmzyeb)" height="30.2969" style="stroke:#A80036;stroke-width:1.5;" width="93" x="80" y="293.2266"/><text fill="#000000" font-family="sans-serif" font-size="14" lengthAdjust="spacing" textLength="79" x="87" y="313.2217">t: Teleport</text><rect fill="#FEFECE" filter="url(#f11ml7ggjmzyeb)" height="30.2969" style="stroke:#A80036;stroke-width:1.5;" width="101" x="227" y="5"/><text fill="#000000" font-family="sans-serif" font-size="14" lengthAdjust="spacing" textLength="87" x="234" y="24.9951">a1: Asteroid</text><rect fill="#FEFECE" filter="url(#f11ml7ggjmzyeb)" height="30.2969" style="stroke:#A80036;stroke-width:1.5;" width="101" x="227" y="293.2266"/><text fill="#000000" font-family="sans-serif" font-size="14" lengthAdjust="spacing" textLength="87" x="234" y="313.2217">a1: Asteroid</text><rect fill="#FEFECE" filter="url(#f11ml7ggjmzyeb)" height="30.2969" style="stroke:#A80036;stroke-width:1.5;" width="100" x="342" y="5"/><text fill="#000000" font-family="sans-serif" font-size="14" lengthAdjust="spacing" textLength="86" x="349" y="24.9951">a2: Asteroid</text><rect fill="#FEFECE" filter="url(#f11ml7ggjmzyeb)" height="30.2969" style="stroke:#A80036;stroke-width:1.5;" width="100" x="342" y="293.2266"/><text fill="#000000" font-family="sans-serif" font-size="14" lengthAdjust="spacing" textLength="86" x="349" y="313.2217">a2: Asteroid</text><rect fill="#FFFFFF" filter="url(#f11ml7ggjmzyeb)" height="204.7969" style="stroke:#A80036;stroke-width:1.0;" width="10" x="123.5" y="71.4297"/><rect fill="#FFFFFF" filter="url(#f11ml7ggjmzyeb)" height="29.1328" style="stroke:#A80036;stroke-width:1.0;" width="10" x="274.5" y="124.6953"/><rect fill="#FFFFFF" filter="url(#f11ml7ggjmzyeb)" height="14" style="stroke:#A80036;stroke-width:1.0;" width="10" x="274.5" y="182.9609"/><rect fill="#FFFFFF" filter="url(#f11ml7ggjmzyeb)" height="29.1328" style="stroke:#A80036;stroke-width:1.0;" width="10" x="389" y="226.0938"/><polygon fill="#A80036" points="111.5,67.4297,121.5,71.4297,111.5,75.4297,115.5,71.4297" style="stroke:#A80036;stroke-width:1.0;"/><line style="stroke:#A80036;stroke-width:1.0;" x1="37.5" x2="117.5" y1="71.4297" y2="71.4297"/><text fill="#000000" font-family="sans-serif" font-size="13" lengthAdjust="spacing" textLength="38" x="44.5" y="66.3638">step()</text><path d="M70,86.4297 L142,86.4297 L142,93.4297 L132,103.4297 L70,103.4297 L70,86.4297 " fill="#EEEEEE" style="stroke:#000000;stroke-width:1.0;"/><rect fill="none" height="176.7969" style="stroke:#000000;stroke-width:2.0;" width="386" x="70" y="86.4297"/><text fill="#000000" font-family="sans-serif" font-size="13" font-weight="bold" lengthAdjust="spacing" textLength="27" x="85" y="99.4966">opt</text><text fill="#000000" font-family="sans-serif" font-size="11" font-weight="bold" lengthAdjust="spacing" textLength="45" x="157" y="98.6401">[crazy]</text><polygon fill="#A80036" points="262.5,120.6953,272.5,124.6953,262.5,128.6953,266.5,124.6953" style="stroke:#A80036;stroke-width:1.0;"/><line style="stroke:#A80036;stroke-width:1.0;" x1="133.5" x2="268.5" y1="124.6953" y2="124.6953"/><text fill="#000000" font-family="sans-serif" font-size="13" lengthAdjust="spacing" textLength="95" x="140.5" y="119.6294">getNeighbors()</text><polygon fill="#A80036" points="144.5,149.8281,134.5,153.8281,144.5,157.8281,140.5,153.8281" style="stroke:#A80036;stroke-width:1.0;"/><line style="stroke:#A80036;stroke-width:1.0;stroke-dasharray:2.0,2.0;" x1="138.5" x2="278.5" y1="153.8281" y2="153.8281"/><text fill="#000000" font-family="sans-serif" font-size="13" lengthAdjust="spacing" textLength="63" x="150.5" y="148.7622">neighbors</text><polygon fill="#A80036" points="262.5,178.9609,272.5,182.9609,262.5,186.9609,266.5,182.9609" style="stroke:#A80036;stroke-width:1.0;"/><line style="stroke:#A80036;stroke-width:1.0;" x1="133.5" x2="268.5" y1="182.9609" y2="182.9609"/><text fill="#000000" font-family="sans-serif" font-size="13" lengthAdjust="spacing" textLength="122" x="140.5" y="177.895">removeNeighbor(t)</text><polygon fill="#A80036" points="144.5,192.9609,134.5,196.9609,144.5,200.9609,140.5,196.9609" style="stroke:#A80036;stroke-width:1.0;"/><line style="stroke:#A80036;stroke-width:1.0;stroke-dasharray:2.0,2.0;" x1="138.5" x2="278.5" y1="196.9609" y2="196.9609"/><polygon fill="#A80036" points="377,222.0938,387,226.0938,377,230.0938,381,226.0938" style="stroke:#A80036;stroke-width:1.0;"/><line style="stroke:#A80036;stroke-width:1.0;" x1="133.5" x2="383" y1="226.0938" y2="226.0938"/><text fill="#000000" font-family="sans-serif" font-size="13" lengthAdjust="spacing" textLength="96" x="140.5" y="221.0278">addNeighbor(t)</text><polygon fill="#A80036" points="144.5,251.2266,134.5,255.2266,144.5,259.2266,140.5,255.2266" style="stroke:#A80036;stroke-width:1.0;"/><line style="stroke:#A80036;stroke-width:1.0;stroke-dasharray:2.0,2.0;" x1="138.5" x2="393" y1="255.2266" y2="255.2266"/><text fill="#000000" font-family="sans-serif" font-size="13" lengthAdjust="spacing" textLength="26" x="150.5" y="250.1606">true</text><polygon fill="#A80036" points="48.5,272.2266,38.5,276.2266,48.5,280.2266,44.5,276.2266" style="stroke:#A80036;stroke-width:1.0;"/><line style="stroke:#A80036;stroke-width:1.0;stroke-dasharray:2.0,2.0;" x1="42.5" x2="127.5" y1="276.2266" y2="276.2266"/><!--MD5=[66dd74f283d8ead46bbdbee6247159b2]
@startuml
participant ":Game" as g
participant "t: Teleport" as t
participant "a1: Asteroid" as a1
participant "a2: Asteroid" as a2

g->t ++: step()
opt crazy
		t->a1 ++:getNeighbors()
		return neighbors
		t->a1 ++: removeNeighbor(t)
		return
		t->a2 ++: addNeighbor(t)
		return true
end
return
@enduml

PlantUML version 1.2021.4beta3(Unknown compile time)
(GPL source distribution)
Java Runtime: Java(TM) SE Runtime Environment
JVM: Java HotSpot(TM) 64-Bit Server VM
Default Encoding: UTF-8
Language: en
Country: US
--></g></svg>