<?xml version="1.0" encoding="UTF-8" standalone="no"?>
<svg
   xmlns:dc="http://purl.org/dc/elements/1.1/"
   xmlns:cc="http://creativecommons.org/ns#"
   xmlns:rdf="http://www.w3.org/1999/02/22-rdf-syntax-ns#"
   xmlns:svg="http://www.w3.org/2000/svg"
   xmlns="http://www.w3.org/2000/svg"
   xmlns:sodipodi="http://sodipodi.sourceforge.net/DTD/sodipodi-0.dtd"
   xmlns:inkscape="http://www.inkscape.org/namespaces/inkscape"
   id="Layer_1"
   enable-background="new 0 0 512 512"
   height="512"
   viewBox="0 0 512 512"
   width="512"
   version="1.1"
   sodipodi:docname="ufo.svg"
   inkscape:version="1.0.1 (3bc2e813f5, 2020-09-07)">
  <metadata
     id="metadata39">
    <rdf:RDF>
      <cc:Work
         rdf:about="">
        <dc:format>image/svg+xml</dc:format>
        <dc:type
           rdf:resource="http://purl.org/dc/dcmitype/StillImage" />
      </cc:Work>
    </rdf:RDF>
  </metadata>
  <defs
     id="defs37" />
  <sodipodi:namedview
     pagecolor="#ffffff"
     bordercolor="#666666"
     borderopacity="1"
     objecttolerance="10"
     gridtolerance="10"
     guidetolerance="10"
     inkscape:pageopacity="0"
     inkscape:pageshadow="2"
     inkscape:window-width="2560"
     inkscape:window-height="1012"
     id="namedview35"
     showgrid="false"
     inkscape:zoom="2.3367669"
     inkscape:cx="251.77806"
     inkscape:cy="246.12977"
     inkscape:window-x="0"
     inkscape:window-y="44"
     inkscape:window-maximized="1"
     inkscape:current-layer="g30" />
  <g
     id="g32"
     transform="translate(-8.8181885,-9.499409)">
    <g
       clip-rule="evenodd"
       fill-rule="evenodd"
       id="g10">
      <path
         d="m 256,276.813 c -8.971,0 -19.009,-4.443 -28.609,-11.963 -20.141,9.161 -35.23,27.659 -39.648,49.881 l -0.003,0.01 c 39.41,8.571 97.113,8.571 136.522,0 l -0.004,-0.01 c -4.419,-22.223 -19.507,-40.72 -39.649,-49.881 -9.6,7.519 -19.639,11.963 -28.609,11.963 z"
         fill="#88df8e"
         id="path2" />
      <path
         d="m 187.742,314.732 c 4.419,-22.223 19.507,-40.72 39.648,-49.881 -21.599,-16.918 -40.978,-49.406 -40.978,-81.886 0,-38.597 31.156,-69.887 69.587,-69.887 38.432,0 69.588,31.289 69.588,69.887 0,32.481 -19.379,64.969 -40.979,81.886 20.141,9.162 35.23,27.659 39.649,49.881 l 0.004,0.01 c 23.528,-5.117 40.536,-13.289 43.238,-24.517 0.921,-3.826 1.787,-7.708 2.601,-11.642 9.317,-45.011 11.853,-96.87 11.853,-150.362 0,-55.855 -89.941,-59.5 -125.954,-59.5 -36.013,0 -125.954,3.645 -125.954,59.5 0,53.492 2.536,105.351 11.853,150.362 0.814,3.934 1.681,7.816 2.601,11.642 2.702,11.227 19.711,19.4 43.24,24.517 z"
         fill="#66e0f7"
         id="path4" />
      <path
         d="m 186.412,182.964 c 0,32.481 19.379,64.969 40.978,81.886 9.6,7.519 19.639,11.963 28.609,11.963 8.97,0 19.009,-4.443 28.609,-11.963 21.599,-16.917 40.979,-49.405 40.979,-81.886 0,-38.597 -31.156,-69.887 -69.588,-69.887 -38.431,0 -69.587,31.289 -69.587,69.887 z"
         fill="#88df8e"
         id="path6" />
      <path
         d="m 367.5,290.224 c 0,6.623 -7.643,12.755 -20.638,17.766 -6.435,2.65 -14.091,4.9 -22.6,6.751 l -0.004,-0.01 -0.054,-0.263 c -18.854,4.013 -42.512,6.402 -68.203,6.402 -25.692,0 -49.349,-2.389 -68.203,-6.402 l -0.054,0.263 -0.003,0.01 c -8.507,-1.85 -16.161,-4.1 -22.596,-6.749 -12.999,-5.012 -20.644,-11.144 -20.644,-17.768 -0.921,-3.826 -1.787,-7.707 -2.601,-11.641 -80.994,11.654 -131.9,34.718 -131.9,59.9 0,37.342 110.138,67.614 246,67.614 135.862,0 246,-30.272 246,-67.614 0,-25.182 -50.906,-48.246 -131.899,-59.9 -0.814,3.934 -1.68,7.815 -2.601,11.641 z"
         fill="#b278d3"
         id="path8"
         style="fill:#ff5555" />
    </g>
    <g
       id="g30">
      <path
         d="m 381.89,270.268 c 6.838,-37.79 10.064,-83.672 10.064,-142.048 0,-19.945 -9.831,-46.595 -56.665,-60.293 C 314.402,61.818 287.726,58.72 256,58.72 c -31.726,0 -58.403,3.097 -79.29,9.206 -46.834,13.698 -56.665,40.349 -56.665,60.293 0,6.313 0.037,12.539 0.108,18.503 0.066,5.481 4.53,9.879 9.997,9.879 h 0.123 c 5.523,-0.067 9.945,-4.598 9.879,-10.12 -0.071,-5.885 -0.107,-12.029 -0.107,-18.262 0,-43.069 72.649,-49.5 115.955,-49.5 43.306,0 115.954,6.431 115.954,49.5 0,68.742 -4.505,119.476 -14.177,159.665 -1.133,4.707 -10.267,10.285 -26.435,14.803 -5.478,-15.985 -16.022,-29.941 -29.873,-39.659 2.793,-2.901 5.515,-6.034 8.136,-9.388 16.512,-21.128 25.982,-46.889 25.982,-70.676 0,-44.049 -35.703,-79.886 -79.587,-79.886 -43.884,0 -79.588,35.837 -79.588,79.886 0,23.788 9.47,49.548 25.982,70.676 2.622,3.355 5.344,6.488 8.137,9.389 -13.845,9.718 -24.397,23.678 -29.875,39.658 -16.167,-4.518 -25.301,-10.096 -26.434,-14.802 -3.782,-15.715 -6.828,-33.415 -9.051,-52.608 -0.636,-5.486 -5.591,-9.425 -11.084,-8.783 -5.486,0.636 -9.418,5.598 -8.783,11.084 1.323,11.421 2.94,22.335 4.815,32.688 C 86.29,277.372 0,296.685 0,338.483 c 0,23.309 27.457,43.176 79.401,57.453 8.904,2.447 18.356,4.687 28.276,6.712 l -5.707,21.298 c -1.43,5.335 1.736,10.818 7.071,12.248 0.867,0.232 1.738,0.343 2.595,0.343 4.415,0 8.456,-2.947 9.653,-7.414 l 6.119,-22.836 c 35.688,5.929 76.23,9.292 118.593,9.751 v 27.241 c 0,5.523 4.477,10 10,10 5.523,0 10,-4.477 10,-10 v -27.241 c 42.363,-0.458 82.904,-3.822 118.592,-9.751 l 6.119,22.836 c 1.197,4.468 5.237,7.414 9.653,7.414 0.856,0 1.728,-0.111 2.595,-0.343 5.334,-1.429 8.5,-6.913 7.071,-12.248 l -5.707,-21.298 c 9.92,-2.025 19.371,-4.265 28.276,-6.712 51.943,-14.278 79.4,-34.145 79.4,-57.453 0,-41.795 -86.276,-61.108 -130.11,-68.215 z M 196.412,182.964 c 0,-33.021 26.731,-59.886 59.588,-59.886 32.856,0 59.587,26.865 59.587,59.886 0,19.41 -7.924,40.682 -21.74,58.361 -12.101,15.483 -26.957,25.488 -37.847,25.488 -10.89,0 -25.747,-10.005 -37.847,-25.488 -13.817,-17.68 -21.741,-38.951 -21.741,-58.361 z m 30.108,93.589 c 9.931,6.622 20.102,10.259 29.48,10.259 9.378,0 19.548,-3.637 29.48,-10.259 11.949,6.874 21.21,17.711 26.133,30.442 -15.161,2.54 -33.808,4.175 -55.612,4.175 -21.803,0 -40.45,-1.635 -55.611,-4.175 4.923,-12.728 14.188,-23.571 26.13,-30.442 z M 427.298,376.651 C 381.673,389.191 320.839,396.097 256,396.097 191.161,396.097 130.326,389.191 84.702,376.651 36.945,363.525 20,347.886 20,338.483 c 0,-12.399 30.537,-35.299 114.154,-48.611 0.208,0.896 0.41,1.808 0.622,2.692 3.283,13.641 18.399,23.926 44.93,30.569 20.693,5.182 47.788,8.036 76.293,8.036 28.504,0 55.599,-2.854 76.292,-8.036 26.531,-6.644 41.647,-16.928 44.93,-30.569 0.214,-0.89 0.422,-1.791 0.632,-2.691 83.612,13.312 114.147,36.211 114.147,48.61 0,9.403 -16.946,25.042 -64.702,38.168 z"
         id="path12" />
      <path
         d="M 256.007,353.484 H 256 c -5.523,0 -9.997,4.477 -9.997,10 0,5.523 4.481,10 10.004,10 5.523,0 10,-4.477 10,-10 0,-5.523 -4.477,-10 -10,-10 z"
         id="path14" />
      <path
         d="m 183.675,348.529 h -0.007 c -5.523,0 -9.997,4.477 -9.997,10 0,5.523 4.481,10 10.004,10 5.523,0 10,-4.477 10,-10 0,-5.523 -4.477,-10 -10,-10 z"
         id="path16" />
      <path
         d="m 113.433,330.029 h -0.008 c -5.523,0 -9.996,4.477 -9.996,10 0,5.523 4.481,10 10.004,10 5.523,0 10,-4.477 10,-10 0,-5.523 -4.477,-10 -10,-10 z"
         id="path18" />
      <path
         d="m 328.324,348.529 c -5.523,0 -10,4.477 -10,10 0,5.523 4.477,10 10,10 h 0.007 c 5.523,0 9.997,-4.477 9.997,-10 0,-5.523 -4.481,-10 -10.004,-10 z"
         id="path20" />
      <path
         d="m 398.567,330.029 c -5.523,0 -10,4.477 -10,10 0,5.523 4.477,10 10,10 h 0.008 c 5.523,0 9.996,-4.477 9.996,-10 0,-5.523 -4.481,-10 -10.004,-10 z"
         id="path22" />
      <path
         d="m 232.326,210.694 c 1.953,1.953 4.512,2.929 7.071,2.929 2.559,0 5.118,-0.976 7.071,-2.929 3.905,-3.905 3.906,-10.237 0,-14.142 -6.929,-6.93 -16.143,-10.746 -25.943,-10.746 -5.523,0 -10,4.477 -10,10 0,5.523 4.477,10 10,10 4.458,0 8.649,1.736 11.801,4.888 z"
         id="path24" />
      <path
         d="m 272.602,213.623 c 2.559,0 5.119,-0.976 7.071,-2.929 3.152,-3.152 7.343,-4.888 11.801,-4.888 5.523,0 10,-4.477 10,-10 0,-5.523 -4.477,-10 -10,-10 -9.8,0 -19.014,3.816 -25.943,10.746 -3.905,3.905 -3.905,10.237 0,14.143 1.952,1.952 4.512,2.928 7.071,2.928 z"
         id="path26" />
      <path
         d="m 141.549,191.579 c 0,-5.523 -4.477,-10 -10,-10 h -0.007 c -5.523,0 -9.996,4.477 -9.996,10 0,5.523 4.48,10 10.003,10 5.523,0 10,-4.477 10,-10 z"
         id="path28" />
    </g>
  </g>
</svg>
