<?xml version="1.0" encoding="UTF-8" standalone="no"?><svg xmlns="http://www.w3.org/2000/svg" xmlns:xlink="http://www.w3.org/1999/xlink" contentScriptType="application/ecmascript" contentStyleType="text/css" height="1233px" preserveAspectRatio="none" style="width:1166px;height:1233px;" version="1.1" viewBox="0 0 1166 1233" width="1166px" zoomAndPan="magnify"><defs><filter height="300%" id="f1l9lguj04jgfy" width="300%" x="-1" y="-1"><feGaussianBlur result="blurOut" stdDeviation="2.0"/><feColorMatrix in="blurOut" result="blurOut2" type="matrix" values="0 0 0 0 0 0 0 0 0 0 0 0 0 0 0 0 0 0 .4 0"/><feOffset dx="4.0" dy="4.0" in="blurOut2" result="blurOut3"/><feBlend in="SourceGraphic" in2="blurOut3" mode="normal"/></filter></defs><g><!--MD5=[de2effd8dc5bf946a609466312d0f75f]
entity Player--><ellipse cx="583" cy="358" fill="#FEFECE" filter="url(#f1l9lguj04jgfy)" rx="8" ry="8" style="stroke:#A80036;stroke-width:1.5;"/><path d="M583,366 L583,393 M570,374 L596,374 M583,393 L570,408 M583,393 L596,408 " fill="none" filter="url(#f1l9lguj04jgfy)" style="stroke:#A80036;stroke-width:1.5;"/><text fill="#000000" font-family="sans-serif" font-size="14" lengthAdjust="spacing" textLength="44" x="561" y="426.4951">Player</text><ellipse cx="210.0183" cy="760.0037" fill="#FEFECE" filter="url(#f1l9lguj04jgfy)" rx="110.5183" ry="24.5037" style="stroke:#A80036;stroke-width:1.5;"/><text fill="#000000" font-family="sans-serif" font-size="14" lengthAdjust="spacing" textLength="187" x="116.5183" y="762.8503">Settler Moves To Asteroid</text><ellipse cx="210.0045" cy="659.8009" fill="#FEFECE" filter="url(#f1l9lguj04jgfy)" rx="189.5045" ry="40.3009" style="stroke:#A80036;stroke-width:1.5;"/><text fill="#000000" font-family="sans-serif" font-size="14" lengthAdjust="spacing" textLength="352" x="34.0045" y="662.6476">Settler Moves With Teleport that has placed pair</text><ellipse cx="210.1689" cy="541.2338" fill="#FEFECE" filter="url(#f1l9lguj04jgfy)" rx="204.1689" ry="43.2338" style="stroke:#A80036;stroke-width:1.5;"/><text fill="#000000" font-family="sans-serif" font-size="14" lengthAdjust="spacing" textLength="382" x="19.1689" y="544.0805">Settler Moves With Teleport whose pair is not placed</text><ellipse cx="210.2105" cy="436.2421" fill="#FEFECE" filter="url(#f1l9lguj04jgfy)" rx="121.7105" ry="26.7421" style="stroke:#A80036;stroke-width:1.5;"/><text fill="#000000" font-family="sans-serif" font-size="14" lengthAdjust="spacing" textLength="211" x="104.7105" y="439.0888">Settler Drills to Uranium Core</text><ellipse cx="583.0329" cy="654.8066" fill="#FEFECE" filter="url(#f1l9lguj04jgfy)" rx="104.5329" ry="23.3066" style="stroke:#A80036;stroke-width:1.5;"/><text fill="#000000" font-family="sans-serif" font-size="14" lengthAdjust="spacing" textLength="174" x="496.0329" y="657.6533">Settler Drills to Ice Core</text><ellipse cx="583.2482" cy="571.9496" fill="#FEFECE" filter="url(#f1l9lguj04jgfy)" rx="107.7482" ry="23.9496" style="stroke:#A80036;stroke-width:1.5;"/><text fill="#000000" font-family="sans-serif" font-size="14" lengthAdjust="spacing" textLength="181" x="492.7482" y="574.7963">Settler Drills to Iron Core</text><ellipse cx="583.1316" cy="489.2263" fill="#FEFECE" filter="url(#f1l9lguj04jgfy)" rx="109.1316" ry="24.2263" style="stroke:#A80036;stroke-width:1.5;"/><text fill="#000000" font-family="sans-serif" font-size="14" lengthAdjust="spacing" textLength="184" x="491.1316" y="492.073">Settler Drills to Coal Core</text><ellipse cx="952.9876" cy="144.7975" fill="#FEFECE" filter="url(#f1l9lguj04jgfy)" rx="156.9876" ry="33.7975" style="stroke:#A80036;stroke-width:1.5;"/><text fill="#000000" font-family="sans-serif" font-size="14" lengthAdjust="spacing" textLength="285" x="810.4876" y="147.6442">Settler Mines Non-Empty Core Asteroid</text><ellipse cx="953.0569" cy="245.0114" fill="#FEFECE" filter="url(#f1l9lguj04jgfy)" rx="143.0569" ry="31.0114" style="stroke:#A80036;stroke-width:1.5;"/><text fill="#000000" font-family="sans-serif" font-size="14" lengthAdjust="spacing" textLength="256" x="825.0569" y="247.8581">Settler Crafts Teleport Successfully</text><ellipse cx="952.9721" cy="340.7944" fill="#FEFECE" filter="url(#f1l9lguj04jgfy)" rx="134.4721" ry="29.2944" style="stroke:#A80036;stroke-width:1.5;"/><text fill="#000000" font-family="sans-serif" font-size="14" lengthAdjust="spacing" textLength="238" x="833.9721" y="343.6411">Settler Crafts Robot Successfully</text><ellipse cx="953.0353" cy="437.1071" fill="#FEFECE" filter="url(#f1l9lguj04jgfy)" rx="143.5353" ry="31.1071" style="stroke:#A80036;stroke-width:1.5;"/><text fill="#000000" font-family="sans-serif" font-size="14" lengthAdjust="spacing" textLength="257" x="824.5353" y="439.9537">Settler Places Teleport Successfully</text><ellipse cx="210.2099" cy="342.142" fill="#FEFECE" filter="url(#f1l9lguj04jgfy)" rx="151.2099" ry="32.642" style="stroke:#A80036;stroke-width:1.5;"/><text fill="#000000" font-family="sans-serif" font-size="14" lengthAdjust="spacing" textLength="273" x="73.7099" y="344.9887">Settler Places Teleport Unsuccessfully</text><ellipse cx="210.0288" cy="234.1058" fill="#FEFECE" filter="url(#f1l9lguj04jgfy)" rx="188.5288" ry="40.1058" style="stroke:#A80036;stroke-width:1.5;"/><text fill="#000000" font-family="sans-serif" font-size="14" lengthAdjust="spacing" textLength="350" x="35.0288" y="236.9524">Settler Places Material Into Empty Core Asteroid</text><ellipse cx="210.1897" cy="116.0379" fill="#FEFECE" filter="url(#f1l9lguj04jgfy)" rx="203.1897" ry="43.0379" style="stroke:#A80036;stroke-width:1.5;"/><text fill="#000000" font-family="sans-serif" font-size="14" lengthAdjust="spacing" textLength="380" x="20.1897" y="118.8846">Settler Places Material Into Not Empty Core Asteroid</text><ellipse cx="209.8142" cy="21.7628" fill="#FEFECE" filter="url(#f1l9lguj04jgfy)" rx="66.8142" ry="15.7628" style="stroke:#A80036;stroke-width:1.5;"/><text fill="#000000" font-family="sans-serif" font-size="14" lengthAdjust="spacing" textLength="84" x="164.8142" y="25.5104">Settler lose</text><ellipse cx="953.0233" cy="518.9047" fill="#FEFECE" filter="url(#f1l9lguj04jgfy)" rx="67.5233" ry="15.9047" style="stroke:#A80036;stroke-width:1.5;"/><text fill="#000000" font-family="sans-serif" font-size="14" lengthAdjust="spacing" textLength="86" x="907.0233" y="522.6522">Settlers win</text><ellipse cx="953.2042" cy="592.9408" fill="#FEFECE" filter="url(#f1l9lguj04jgfy)" rx="102.7042" ry="22.9408" style="stroke:#A80036;stroke-width:1.5;"/><text fill="#000000" font-family="sans-serif" font-size="14" lengthAdjust="spacing" textLength="170" x="868.2042" y="595.7875">Settler hit by Sunstorm</text><!--MD5=[f855680bc6c989572ebb25245d27968d]
entity Controller--><ellipse cx="583" cy="1002" fill="#FEFECE" filter="url(#f1l9lguj04jgfy)" rx="8" ry="8" style="stroke:#A80036;stroke-width:1.5;"/><path d="M583,1010 L583,1037 M570,1018 L596,1018 M583,1037 L570,1052 M583,1037 L596,1052 " fill="none" filter="url(#f1l9lguj04jgfy)" style="stroke:#A80036;stroke-width:1.5;"/><text fill="#000000" font-family="sans-serif" font-size="14" lengthAdjust="spacing" textLength="73" x="546.5" y="1070.4951">Controller</text><ellipse cx="953.2482" cy="874.9496" fill="#FEFECE" filter="url(#f1l9lguj04jgfy)" rx="107.7482" ry="23.9496" style="stroke:#A80036;stroke-width:1.5;"/><text fill="#000000" font-family="sans-serif" font-size="14" lengthAdjust="spacing" textLength="181" x="862.7482" y="877.7963">Robot Moves To Asteroid</text><ellipse cx="953.0781" cy="974.2156" fill="#FEFECE" filter="url(#f1l9lguj04jgfy)" rx="186.5781" ry="39.7156" style="stroke:#A80036;stroke-width:1.5;"/><text fill="#000000" font-family="sans-serif" font-size="14" lengthAdjust="spacing" textLength="346" x="780.0781" y="977.0623">Robot Moves With Teleport that has placed pair</text><ellipse cx="953.232" cy="1091.1464" fill="#FEFECE" filter="url(#f1l9lguj04jgfy)" rx="201.232" ry="42.6464" style="stroke:#A80036;stroke-width:1.5;"/><text fill="#000000" font-family="sans-serif" font-size="14" lengthAdjust="spacing" textLength="376" x="765.232" y="1093.9931">Robot Moves With Teleport whose pair is not placed</text><ellipse cx="952.8973" cy="1195.1795" fill="#FEFECE" filter="url(#f1l9lguj04jgfy)" rx="118.8973" ry="26.1795" style="stroke:#A80036;stroke-width:1.5;"/><text fill="#000000" font-family="sans-serif" font-size="14" lengthAdjust="spacing" textLength="205" x="850.3973" y="1198.0261">Robot Drills to Uranium Core</text><ellipse cx="209.7923" cy="1196.7585" fill="#FEFECE" filter="url(#f1l9lguj04jgfy)" rx="101.7923" ry="22.7585" style="stroke:#A80036;stroke-width:1.5;"/><text fill="#000000" font-family="sans-serif" font-size="14" lengthAdjust="spacing" textLength="168" x="125.7923" y="1199.6051">Robot Drills to Ice Core</text><ellipse cx="209.9911" cy="1114.8982" fill="#FEFECE" filter="url(#f1l9lguj04jgfy)" rx="104.9911" ry="23.3982" style="stroke:#A80036;stroke-width:1.5;"/><text fill="#000000" font-family="sans-serif" font-size="14" lengthAdjust="spacing" textLength="175" x="122.4911" y="1117.7449">Robot Drills to Iron Core</text><ellipse cx="209.8679" cy="1033.1736" fill="#FEFECE" filter="url(#f1l9lguj04jgfy)" rx="106.3679" ry="23.6736" style="stroke:#A80036;stroke-width:1.5;"/><text fill="#000000" font-family="sans-serif" font-size="14" lengthAdjust="spacing" textLength="178" x="120.8679" y="1036.0203">Robot Drills to Coal Core</text><ellipse cx="209.7544" cy="945.7509" fill="#FEFECE" filter="url(#f1l9lguj04jgfy)" rx="129.2544" ry="28.2509" style="stroke:#A80036;stroke-width:1.5;"/><text fill="#000000" font-family="sans-serif" font-size="14" lengthAdjust="spacing" textLength="227" x="96.2544" y="948.5976">Placed Teleport gets destroyed</text><ellipse cx="210.0353" cy="851.1071" fill="#FEFECE" filter="url(#f1l9lguj04jgfy)" rx="143.5353" ry="31.1071" style="stroke:#A80036;stroke-width:1.5;"/><text fill="#000000" font-family="sans-serif" font-size="14" lengthAdjust="spacing" textLength="257" x="81.5353" y="853.9537">Not Placed Teleport gets destroyed</text><!--MD5=[ce4f5221c871b561c8bb8b29fd5857cd]
reverse link Settler Moves To Asteroid to Player--><path d="M325.841,758.878 C358.033,753.046 390.589,741.088 414,718 C501.832,631.377 399.548,545.361 474,447 C495.708,418.321 535.822,402.231 560.579,394.606 " fill="none" id="Settler Moves To Asteroid-backto-Player" style="stroke:#A80036;stroke-width:1.0;"/><polygon fill="#A80036" points="320.678,759.762,330.2242,762.185,325.6062,758.9178,328.8734,754.2998,320.678,759.762" style="stroke:#A80036;stroke-width:1.0;"/><!--MD5=[04420fdc8db3ee855bb91bda902e010d]
reverse link Settler Moves With Teleport that has placed pair to Player--><path d="M363.238,632.83 C381.79,624.801 399.335,614.419 414,601 C468.192,551.412 425.303,501.994 474,447 C497.703,420.231 536.808,403.618 560.891,395.359 " fill="none" id="Settler Moves With Teleport that has placed pair-backto-Player" style="stroke:#A80036;stroke-width:1.0;"/><polygon fill="#A80036" points="358.501,634.821,368.3478,635.021,363.1104,632.8835,365.2479,627.6461,358.501,634.821" style="stroke:#A80036;stroke-width:1.0;"/><!--MD5=[5e77c160c646050109380aed618b19fa]
reverse link Settler Moves With Teleport whose pair is not placed to Player--><path d="M342.608,505.88 C366.676,498.214 391.334,489.513 414,480 C442.062,468.222 447.26,461.533 474,447 C504.106,430.637 539.061,411.916 560.858,400.274 " fill="none" id="Settler Moves With Teleport whose pair is not placed-backto-Player" style="stroke:#A80036;stroke-width:1.0;"/><polygon fill="#A80036" points="337.803,507.4,347.5901,508.5009,342.5704,505.8928,345.1786,500.8731,337.803,507.4" style="stroke:#A80036;stroke-width:1.0;"/><!--MD5=[7695461094e52a24ce6b8de9ec04a7be]
reverse link Settler Drills to Uranium Core to Player--><path d="M320.361,422.146 C405.052,411.417 515.362,397.442 560.913,391.671 " fill="none" id="Settler Drills to Uranium Core-backto-Player" style="stroke:#A80036;stroke-width:1.0;"/><polygon fill="#A80036" points="315.331,422.783,324.7625,425.6198,320.2913,422.1544,323.7567,417.6832,315.331,422.783" style="stroke:#A80036;stroke-width:1.0;"/><!--MD5=[ecd3335d167bd922f73656dca072c37c]
link Player to Settler Drills to Ice Core--><path d="M560.843,393.479 C528.319,401.393 468.825,421.279 444,464.5 C415.002,514.987 415.002,545.013 444,595.5 C455.669,615.815 476.096,629.198 497.756,638.011 " fill="none" id="Player-to-Settler Drills to Ice Core" style="stroke:#A80036;stroke-width:1.0;"/><polygon fill="#A80036" points="502.689,639.934,495.756,632.9387,498.0303,638.1183,492.8508,640.3926,502.689,639.934" style="stroke:#A80036;stroke-width:1.0;"/><!--MD5=[c6a4fd70b690fcaf180c3e85ad00a66a]
link Player to Settler Drills to Iron Core--><path d="M560.843,393.479 C528.319,401.393 468.825,421.279 444,464.5 C433.375,482.999 433.375,494.001 444,512.5 C455.425,532.392 475.248,545.637 496.404,554.455 " fill="none" id="Player-to-Settler Drills to Iron Core" style="stroke:#A80036;stroke-width:1.0;"/><polygon fill="#A80036" points="501.224,556.38,494.3495,549.3272,496.5806,554.5255,491.3823,556.7566,501.224,556.38" style="stroke:#A80036;stroke-width:1.0;"/><!--MD5=[07a112c7058d986e87d6c9f9c9a49fda]
link Player to Settler Drills to Coal Core--><path d="M583,429.555 C583,439.554 583,449.553 583,459.552 " fill="none" id="Player-to-Settler Drills to Coal Core" style="stroke:#A80036;stroke-width:1.0;"/><polygon fill="#A80036" points="583,464.781,587,455.781,583,459.781,579,455.781,583,464.781" style="stroke:#A80036;stroke-width:1.0;"/><!--MD5=[1aeb35d4fac47fd1daadb328519e9ac2]
link Player to Settler Mines Non-Empty Core Asteroid--><path d="M605.137,353.623 C633.159,309.849 686.756,236.191 752,196 C772.793,183.19 796.689,173.59 820.563,166.39 " fill="none" id="Player-to-Settler Mines Non-Empty Core Asteroid" style="stroke:#A80036;stroke-width:1.0;"/><polygon fill="#A80036" points="825.656,164.89,815.8921,163.5993,820.8602,166.3044,818.1551,171.2725,825.656,164.89" style="stroke:#A80036;stroke-width:1.0;"/><!--MD5=[6a587139013870f6094e5d5206ebd02a]
link Player to Settler Crafts Teleport Successfully--><path d="M605.062,374.559 C635.989,353.954 696.089,316.167 752,294 C779.881,282.946 810.968,273.875 840.165,266.674 " fill="none" id="Player-to-Settler Crafts Teleport Successfully" style="stroke:#A80036;stroke-width:1.0;"/><polygon fill="#A80036" points="845.212,265.443,835.5207,263.6881,840.3542,266.6271,837.4153,271.4606,845.212,265.443" style="stroke:#A80036;stroke-width:1.0;"/><!--MD5=[b7d8d467c2560f5112ce5c13b5e6b00a]
link Player to Settler Crafts Robot Successfully--><path d="M605.107,386.247 C648.296,380.614 749.601,367.4 831.648,356.698 " fill="none" id="Player-to-Settler Crafts Robot Successfully" style="stroke:#A80036;stroke-width:1.0;"/><polygon fill="#A80036" points="837.024,355.997,827.5828,353.1927,832.0659,356.6427,828.6159,361.1257,837.024,355.997" style="stroke:#A80036;stroke-width:1.0;"/><!--MD5=[1f169eb0c382b99f62b37e41236c1457]
link Player to Settler Places Teleport Successfully--><path d="M605.107,391.753 C647.026,397.221 743.692,409.829 824.361,420.351 " fill="none" id="Player-to-Settler Places Teleport Successfully" style="stroke:#A80036;stroke-width:1.0;"/><polygon fill="#A80036" points="829.651,421.041,821.2443,415.9099,824.693,420.3939,820.209,423.8427,829.651,421.041" style="stroke:#A80036;stroke-width:1.0;"/><!--MD5=[5bdf86d7b2ebf2d727afc04915586474]
reverse link Settler Places Teleport Unsuccessfully to Player--><path d="M345.76,359.072 C425.963,369.233 519.875,381.13 560.962,386.335 " fill="none" id="Settler Places Teleport Unsuccessfully-backto-Player" style="stroke:#A80036;stroke-width:1.0;"/><polygon fill="#A80036" points="340.497,358.405,348.9227,363.5048,345.4573,359.0336,349.9285,355.5682,340.497,358.405" style="stroke:#A80036;stroke-width:1.0;"/><!--MD5=[50e686d1eea3bb8b65e4933bdaeb9813]
reverse link Settler Places Material Into Empty Core Asteroid to Player--><path d="M339.525,265.554 C364.611,273.151 390.43,282.008 414,292 C469.659,315.595 529.861,353.791 560.871,374.512 " fill="none" id="Settler Places Material Into Empty Core Asteroid-backto-Player" style="stroke:#A80036;stroke-width:1.0;"/><polygon fill="#A80036" points="334.518,264.051,341.9889,270.4686,339.3071,265.4879,344.2879,262.8061,334.518,264.051" style="stroke:#A80036;stroke-width:1.0;"/><!--MD5=[537a6f02bed72673e43d1ca3538b6acf]
reverse link Settler Places Material Into Not Empty Core Asteroid to Player--><path d="M359.363,148.08 C378.608,155.56 397.378,164.75 414,176 C480.688,221.153 533.244,301.021 560.792,349.081 " fill="none" id="Settler Places Material Into Not Empty Core Asteroid-backto-Player" style="stroke:#A80036;stroke-width:1.0;"/><polygon fill="#A80036" points="354.461,146.21,361.4487,153.1506,359.1338,147.9891,364.2953,145.6741,354.461,146.21" style="stroke:#A80036;stroke-width:1.0;"/><!--MD5=[396b6085863188894d89d338f57d19a8]
reverse link Settler lose to Player--><path d="M280.412,18.09 C322.727,19.15 375.823,26.99 414,55 C513.435,127.95 557.813,276.597 574.086,348.393 " fill="none" id="Settler lose-backto-Player" style="stroke:#A80036;stroke-width:1.0;"/><polygon fill="#A80036" points="275.307,17.99,284.23,22.159,280.3061,18.0843,284.3808,14.1604,275.307,17.99" style="stroke:#A80036;stroke-width:1.0;"/><!--MD5=[92ea0a6d777a68b3f1a9696416a00c3f]
link Player to Settlers win--><path d="M605.357,399.893 C627.325,411.232 662.413,429.716 692,447 C719.255,462.922 722.531,473.689 752,485 C793.696,501.004 843.157,509.495 882.459,513.99 " fill="none" id="Player-to-Settlers win" style="stroke:#A80036;stroke-width:1.0;"/><polygon fill="#A80036" points="887.69,514.571,879.1876,509.6002,882.7207,514.0181,878.3028,517.5512,887.69,514.571" style="stroke:#A80036;stroke-width:1.0;"/><!--MD5=[c9ad598462b986e193b6e0d8273863a4]
link Player to Settler hit by Sunstorm--><path d="M605.276,396.325 C628.794,405.28 666.692,422.349 692,447 C730.503,484.503 708.473,520.468 752,552 C779.315,571.787 813.957,582.529 846.706,588.216 " fill="none" id="Player-to-Settler hit by Sunstorm" style="stroke:#A80036;stroke-width:1.0;"/><polygon fill="#A80036" points="851.944,589.086,843.7202,583.6666,847.0115,588.2675,842.4106,591.5587,851.944,589.086" style="stroke:#A80036;stroke-width:1.0;"/><!--MD5=[f64569ee8c59b80a4299894d147884b4]
link Controller to Robot Moves To Asteroid--><path d="M619.505,1002.169 C651.895,975.654 702.172,938.4 752,917 C783.796,903.345 820.394,893.998 853.52,887.659 " fill="none" id="Controller-to-Robot Moves To Asteroid" style="stroke:#A80036;stroke-width:1.0;"/><polygon fill="#A80036" points="858.806,886.667,849.2229,884.3946,853.8917,887.5887,850.6976,892.2575,858.806,886.667" style="stroke:#A80036;stroke-width:1.0;"/><!--MD5=[f8c4e86ce1464fb425e89c5a529188ae]
link Controller to Robot Moves With Teleport that has placed pair--><path d="M619.62,1027.289 C661.196,1020.623 732.701,1009.159 798.761,998.568 " fill="none" id="Controller-to-Robot Moves With Teleport that has placed pair" style="stroke:#A80036;stroke-width:1.0;"/><polygon fill="#A80036" points="803.913,997.742,794.3933,995.2169,798.976,998.5334,795.6596,1003.1161,803.913,997.742" style="stroke:#A80036;stroke-width:1.0;"/><!--MD5=[33d74119c79800f2d67df7c59cec644e]
link Controller to Robot Moves With Teleport whose pair is not placed--><path d="M619.62,1038.614 C658.569,1044.753 723.783,1055.031 786.182,1064.866 " fill="none" id="Controller-to-Robot Moves With Teleport whose pair is not placed" style="stroke:#A80036;stroke-width:1.0;"/><polygon fill="#A80036" points="791.437,1065.694,783.1697,1060.3412,786.498,1064.9154,781.9239,1068.2436,791.437,1065.694" style="stroke:#A80036;stroke-width:1.0;"/><!--MD5=[a9388d7b58c693faf8022b17eeedf949]
link Controller to Robot Drills to Uranium Core--><path d="M619.78,1064.535 C652.153,1091.428 702.247,1129.1128 752,1151 C781.732,1164.0795 815.715,1173.4274 847.129,1180.0413 " fill="none" id="Controller-to-Robot Drills to Uranium Core" style="stroke:#A80036;stroke-width:1.0;"/><polygon fill="#A80036" points="852.147,1181.0795,844.1439,1175.3393,847.2507,1180.0666,842.5233,1183.1734,852.147,1181.0795" style="stroke:#A80036;stroke-width:1.0;"/><!--MD5=[8e91292ad25df3e13aa0acb27f9d3da3]
reverse link Robot Drills to Ice Core to Controller--><path d="M307.325,1186.2841 C341.966,1180.1878 380.689,1170.7017 414,1156 C464.267,1133.8148 514.069,1094.612 546.236,1066.422 " fill="none" id="Robot Drills to Ice Core-backto-Controller" style="stroke:#A80036;stroke-width:1.0;"/><polygon fill="#A80036" points="302.245,1187.1592,311.7933,1189.5737,307.1725,1186.3106,310.4356,1181.6898,302.245,1187.1592" style="stroke:#A80036;stroke-width:1.0;"/><!--MD5=[aa0d51405943d59827134127b3d5e321]
reverse link Robot Drills to Iron Core to Controller--><path d="M295.544,1098.711 C332.05,1091.475 375.2,1082.649 414,1074 C459.86,1063.777 512.434,1050.731 546.375,1042.133 " fill="none" id="Robot Drills to Iron Core-backto-Controller" style="stroke:#A80036;stroke-width:1.0;"/><polygon fill="#A80036" points="290.207,1099.767,299.812,1101.9453,295.112,1098.7971,298.2602,1094.0972,290.207,1099.767" style="stroke:#A80036;stroke-width:1.0;"/><!--MD5=[7d560a53d78a0a5b1d45e0dd3b450552]
reverse link Robot Drills to Coal Core to Controller--><path d="M321.817,1033 C398.186,1033 494.826,1033 546.148,1033 " fill="none" id="Robot Drills to Coal Core-backto-Controller" style="stroke:#A80036;stroke-width:1.0;"/><polygon fill="#A80036" points="316.817,1033,325.817,1037,321.817,1033,325.817,1029,316.817,1033" style="stroke:#A80036;stroke-width:1.0;"/><!--MD5=[8bba18fa865b5b6b901c7af01a4b351e]
reverse link Placed Teleport gets destroyed to Controller--><path d="M306.495,967.298 C340.462,974.964 378.964,983.756 414,992 C459.736,1002.762 512.338,1015.688 546.319,1024.111 " fill="none" id="Placed Teleport gets destroyed-backto-Controller" style="stroke:#A80036;stroke-width:1.0;"/><polygon fill="#A80036" points="301.517,966.175,309.4164,972.0571,306.3945,967.2751,311.1765,964.2532,301.517,966.175" style="stroke:#A80036;stroke-width:1.0;"/><!--MD5=[db166a3b90c5ed21d7ad5376e80e5d42]
reverse link Not Placed Teleport gets destroyed to Controller--><path d="M330.323,870.722 C358.586,877.837 388.041,887.356 414,900 C464.668,924.678 514.203,966.727 546.201,996.944 " fill="none" id="Not Placed Teleport gets destroyed-backto-Controller" style="stroke:#A80036;stroke-width:1.0;"/><polygon fill="#A80036" points="325.431,869.511,333.206,875.5566,330.2845,870.7126,335.1285,867.7911,325.431,869.511" style="stroke:#A80036;stroke-width:1.0;"/><!--MD5=[814e30585a928dc79f04b87e5255528c]
@startuml
left to right direction

:Player:-up->(Settler Moves To Asteroid)
:Player:-up->(Settler Moves With Teleport that has placed pair)
:Player:-up->(Settler Moves With Teleport whose pair is not placed)
:Player:-up->(Settler Drills to Uranium Core)

:Player:-right->(Settler Drills to Ice Core)
:Player:-right->(Settler Drills to Iron Core)
:Player:-right->(Settler Drills to Coal Core)

:Player:-down->(Settler Mines Non-Empty Core Asteroid)
:Player:-down->(Settler Crafts Teleport Successfully)
:Player:-down->(Settler Crafts Robot Successfully)
:Player:-down->(Settler Places Teleport Successfully)

:Player:-up->(Settler Places Teleport Unsuccessfully)
:Player:-up->(Settler Places Material Into Empty Core Asteroid)
:Player:-up->(Settler Places Material Into Not Empty Core Asteroid)
:Player:-up->(Settler lose)

:Player:-down->(Settlers win)
:Player:-down->(Settler hit by Sunstorm)


:Controller:-down->(Robot Moves To Asteroid)
:Controller:-down->(Robot Moves With Teleport that has placed pair)
:Controller:-down->(Robot Moves With Teleport whose pair is not placed)
:Controller:-down->(Robot Drills to Uranium Core)
:Controller:-up->(Robot Drills to Ice Core)
:Controller:-up->(Robot Drills to Iron Core)
:Controller:-up->(Robot Drills to Coal Core)
:Controller:-up->(Placed Teleport gets destroyed)
:Controller:-up->(Not Placed Teleport gets destroyed)
@enduml

PlantUML version 1.2021.3beta6(Unknown compile time)
(GPL source distribution)
Java Runtime: Java(TM) SE Runtime Environment
JVM: Java HotSpot(TM) 64-Bit Server VM
Default Encoding: UTF-8
Language: en
Country: US
--></g></svg>