<?xml version="1.0" encoding="UTF-8" standalone="no"?><svg xmlns="http://www.w3.org/2000/svg" xmlns:xlink="http://www.w3.org/1999/xlink" contentScriptType="application/ecmascript" contentStyleType="text/css" height="232px" preserveAspectRatio="none" style="width:528px;height:232px;" version="1.1" viewBox="0 0 528 232" width="528px" zoomAndPan="magnify"><defs><filter height="300%" id="fpc44p4x5zoit" width="300%" x="-1" y="-1"><feGaussianBlur result="blurOut" stdDeviation="2.0"/><feColorMatrix in="blurOut" result="blurOut2" type="matrix" values="0 0 0 0 0 0 0 0 0 0 0 0 0 0 0 0 0 0 .4 0"/><feOffset dx="4.0" dy="4.0" in="blurOut2" result="blurOut3"/><feBlend in="SourceGraphic" in2="blurOut3" mode="normal"/></filter></defs><g><rect fill="#FFFFFF" filter="url(#fpc44p4x5zoit)" height="100.2656" style="stroke:#A80036;stroke-width:1.0;" width="10" x="103.5" y="71.4297"/><rect fill="#FFFFFF" filter="url(#fpc44p4x5zoit)" height="14" style="stroke:#A80036;stroke-width:1.0;" width="10" x="281.5" y="100.5625"/><rect fill="#FFFFFF" filter="url(#fpc44p4x5zoit)" height="14" style="stroke:#A80036;stroke-width:1.0;" width="10" x="281.5" y="143.6953"/><line style="stroke:#A80036;stroke-width:1.0;stroke-dasharray:5.0,5.0;" x1="108" x2="108" y1="40.2969" y2="189.6953"/><line style="stroke:#A80036;stroke-width:1.0;stroke-dasharray:5.0,5.0;" x1="286" x2="286" y1="40.2969" y2="189.6953"/><line style="stroke:#A80036;stroke-width:1.0;stroke-dasharray:5.0,5.0;" x1="432" x2="432" y1="40.2969" y2="189.6953"/><rect fill="#FEFECE" filter="url(#fpc44p4x5zoit)" height="30.2969" style="stroke:#A80036;stroke-width:1.5;" width="203" x="5" y="5"/><text fill="#000000" font-family="sans-serif" font-size="14" lengthAdjust="spacing" textLength="189" x="12" y="24.9951">mvc : MaterialViewControl</text><rect fill="#FEFECE" filter="url(#fpc44p4x5zoit)" height="30.2969" style="stroke:#A80036;stroke-width:1.5;" width="203" x="5" y="188.6953"/><text fill="#000000" font-family="sans-serif" font-size="14" lengthAdjust="spacing" textLength="189" x="12" y="208.6904">mvc : MaterialViewControl</text><rect fill="#FEFECE" filter="url(#fpc44p4x5zoit)" height="30.2969" style="stroke:#A80036;stroke-width:1.5;" width="95" x="237" y="5"/><text fill="#000000" font-family="sans-serif" font-size="14" lengthAdjust="spacing" textLength="81" x="244" y="24.9951">jb : JButton</text><rect fill="#FEFECE" filter="url(#fpc44p4x5zoit)" height="30.2969" style="stroke:#A80036;stroke-width:1.5;" width="95" x="237" y="188.6953"/><text fill="#000000" font-family="sans-serif" font-size="14" lengthAdjust="spacing" textLength="81" x="244" y="208.6904">jb : JButton</text><rect fill="#FEFECE" filter="url(#fpc44p4x5zoit)" height="30.2969" style="stroke:#A80036;stroke-width:1.5;" width="168" x="346" y="5"/><text fill="#000000" font-family="sans-serif" font-size="14" lengthAdjust="spacing" textLength="150" x="357" y="24.9951">: CommandDatabase</text><rect fill="#FEFECE" filter="url(#fpc44p4x5zoit)" height="30.2969" style="stroke:#A80036;stroke-width:1.5;" width="168" x="346" y="188.6953"/><text fill="#000000" font-family="sans-serif" font-size="14" lengthAdjust="spacing" textLength="150" x="357" y="208.6904">: CommandDatabase</text><rect fill="#FFFFFF" filter="url(#fpc44p4x5zoit)" height="100.2656" style="stroke:#A80036;stroke-width:1.0;" width="10" x="103.5" y="71.4297"/><rect fill="#FFFFFF" filter="url(#fpc44p4x5zoit)" height="14" style="stroke:#A80036;stroke-width:1.0;" width="10" x="281.5" y="100.5625"/><rect fill="#FFFFFF" filter="url(#fpc44p4x5zoit)" height="14" style="stroke:#A80036;stroke-width:1.0;" width="10" x="281.5" y="143.6953"/><polygon fill="#A80036" points="91.5,67.4297,101.5,71.4297,91.5,75.4297,95.5,71.4297" style="stroke:#A80036;stroke-width:1.0;"/><line style="stroke:#A80036;stroke-width:1.0;" x1="0" x2="97.5" y1="71.4297" y2="71.4297"/><text fill="#000000" font-family="sans-serif" font-size="13" lengthAdjust="spacing" textLength="53" x="7" y="66.3638">draw(jb)</text><polygon fill="#A80036" points="269.5,96.5625,279.5,100.5625,269.5,104.5625,273.5,100.5625" style="stroke:#A80036;stroke-width:1.0;"/><line style="stroke:#A80036;stroke-width:1.0;" x1="113.5" x2="275.5" y1="100.5625" y2="100.5625"/><text fill="#000000" font-family="sans-serif" font-size="13" lengthAdjust="spacing" textLength="112" x="120.5" y="95.4966">setEnabled(false)</text><polygon fill="#A80036" points="124.5,110.5625,114.5,114.5625,124.5,118.5625,120.5,114.5625" style="stroke:#A80036;stroke-width:1.0;"/><line style="stroke:#A80036;stroke-width:1.0;stroke-dasharray:2.0,2.0;" x1="118.5" x2="285.5" y1="114.5625" y2="114.5625"/><polygon fill="#A80036" points="269.5,139.6953,279.5,143.6953,269.5,147.6953,273.5,143.6953" style="stroke:#A80036;stroke-width:1.0;"/><line style="stroke:#A80036;stroke-width:1.0;" x1="113.5" x2="275.5" y1="143.6953" y2="143.6953"/><text fill="#000000" font-family="sans-serif" font-size="13" lengthAdjust="spacing" textLength="149" x="120.5" y="138.6294">setIcon(materialImage)</text><polygon fill="#A80036" points="124.5,153.6953,114.5,157.6953,124.5,161.6953,120.5,157.6953" style="stroke:#A80036;stroke-width:1.0;"/><line style="stroke:#A80036;stroke-width:1.0;stroke-dasharray:2.0,2.0;" x1="118.5" x2="285.5" y1="157.6953" y2="157.6953"/><polygon fill="#A80036" points="11,167.6953,1,171.6953,11,175.6953,7,171.6953" style="stroke:#A80036;stroke-width:1.0;"/><line style="stroke:#A80036;stroke-width:1.0;stroke-dasharray:2.0,2.0;" x1="5" x2="107.5" y1="171.6953" y2="171.6953"/><!--MD5=[756d7fac835ec2acff3ec13e13510785]
@startuml
participant "mvc : MaterialViewControl" as avc
participant "jb : JButton" as jb
participant " : CommandDatabase" as cmdDatBase

[->avc ++:draw(jb)
    avc-> jb++:setEnabled(false)
    return
   
    avc-> jb ++:setIcon(materialImage)
    return
return
@enduml

PlantUML version 1.2021.5beta3(Unknown compile time)
(GPL source distribution)
Java Runtime: Java(TM) SE Runtime Environment
JVM: Java HotSpot(TM) 64-Bit Server VM
Default Encoding: UTF-8
Language: en
Country: US
--></g></svg>