<?xml version="1.0" encoding="UTF-8" standalone="no"?><svg xmlns="http://www.w3.org/2000/svg" xmlns:xlink="http://www.w3.org/1999/xlink" contentScriptType="application/ecmascript" contentStyleType="text/css" height="334px" preserveAspectRatio="none" style="width:714px;height:334px;" version="1.1" viewBox="0 0 714 334" width="714px" zoomAndPan="magnify"><defs><filter height="300%" id="f5o7b1cxljngy" width="300%" x="-1" y="-1"><feGaussianBlur result="blurOut" stdDeviation="2.0"/><feColorMatrix in="blurOut" result="blurOut2" type="matrix" values="0 0 0 0 0 0 0 0 0 0 0 0 0 0 0 0 0 0 .4 0"/><feOffset dx="4.0" dy="4.0" in="blurOut2" result="blurOut3"/><feBlend in="SourceGraphic" in2="blurOut3" mode="normal"/></filter></defs><g><rect fill="#FFFFFF" filter="url(#f5o7b1cxljngy)" height="201.6641" style="stroke:#A80036;stroke-width:1.0;" width="10" x="117" y="71.4297"/><rect fill="#FFFFFF" filter="url(#f5o7b1cxljngy)" height="14" style="stroke:#A80036;stroke-width:1.0;" width="10" x="468" y="100.5625"/><rect fill="#FFFFFF" filter="url(#f5o7b1cxljngy)" height="14" style="stroke:#A80036;stroke-width:1.0;" width="10" x="468" y="143.6953"/><rect fill="#FFFFFF" filter="url(#f5o7b1cxljngy)" height="14" style="stroke:#A80036;stroke-width:1.0;" width="10" x="468" y="245.0938"/><rect fill="#FFFFFF" filter="url(#f5o7b1cxljngy)" height="29.1328" style="stroke:#A80036;stroke-width:1.0;" width="10" x="613.5" y="186.8281"/><line style="stroke:#A80036;stroke-width:1.0;stroke-dasharray:5.0,5.0;" x1="121.5" x2="121.5" y1="40.2969" y2="291.0938"/><line style="stroke:#A80036;stroke-width:1.0;stroke-dasharray:5.0,5.0;" x1="472.5" x2="472.5" y1="40.2969" y2="291.0938"/><line style="stroke:#A80036;stroke-width:1.0;stroke-dasharray:5.0,5.0;" x1="618.5" x2="618.5" y1="40.2969" y2="291.0938"/><rect fill="#FEFECE" filter="url(#f5o7b1cxljngy)" height="30.2969" style="stroke:#A80036;stroke-width:1.5;" width="201" x="19.5" y="5"/><text fill="#000000" font-family="sans-serif" font-size="14" lengthAdjust="spacing" textLength="187" x="26.5" y="24.9951">tvc : TeleportViewControl</text><rect fill="#FEFECE" filter="url(#f5o7b1cxljngy)" height="30.2969" style="stroke:#A80036;stroke-width:1.5;" width="201" x="19.5" y="290.0938"/><text fill="#000000" font-family="sans-serif" font-size="14" lengthAdjust="spacing" textLength="187" x="26.5" y="310.0889">tvc : TeleportViewControl</text><rect fill="#FEFECE" filter="url(#f5o7b1cxljngy)" height="30.2969" style="stroke:#A80036;stroke-width:1.5;" width="95" x="423.5" y="5"/><text fill="#000000" font-family="sans-serif" font-size="14" lengthAdjust="spacing" textLength="81" x="430.5" y="24.9951">jb : JButton</text><rect fill="#FEFECE" filter="url(#f5o7b1cxljngy)" height="30.2969" style="stroke:#A80036;stroke-width:1.5;" width="95" x="423.5" y="290.0938"/><text fill="#000000" font-family="sans-serif" font-size="14" lengthAdjust="spacing" textLength="81" x="430.5" y="310.0889">jb : JButton</text><rect fill="#FEFECE" filter="url(#f5o7b1cxljngy)" height="30.2969" style="stroke:#A80036;stroke-width:1.5;" width="168" x="532.5" y="5"/><text fill="#000000" font-family="sans-serif" font-size="14" lengthAdjust="spacing" textLength="150" x="543.5" y="24.9951">: CommandDatabase</text><rect fill="#FEFECE" filter="url(#f5o7b1cxljngy)" height="30.2969" style="stroke:#A80036;stroke-width:1.5;" width="168" x="532.5" y="290.0938"/><text fill="#000000" font-family="sans-serif" font-size="14" lengthAdjust="spacing" textLength="150" x="543.5" y="310.0889">: CommandDatabase</text><rect fill="#FFFFFF" filter="url(#f5o7b1cxljngy)" height="201.6641" style="stroke:#A80036;stroke-width:1.0;" width="10" x="117" y="71.4297"/><rect fill="#FFFFFF" filter="url(#f5o7b1cxljngy)" height="14" style="stroke:#A80036;stroke-width:1.0;" width="10" x="468" y="100.5625"/><rect fill="#FFFFFF" filter="url(#f5o7b1cxljngy)" height="14" style="stroke:#A80036;stroke-width:1.0;" width="10" x="468" y="143.6953"/><rect fill="#FFFFFF" filter="url(#f5o7b1cxljngy)" height="14" style="stroke:#A80036;stroke-width:1.0;" width="10" x="468" y="245.0938"/><rect fill="#FFFFFF" filter="url(#f5o7b1cxljngy)" height="29.1328" style="stroke:#A80036;stroke-width:1.0;" width="10" x="613.5" y="186.8281"/><polygon fill="#A80036" points="105,67.4297,115,71.4297,105,75.4297,109,71.4297" style="stroke:#A80036;stroke-width:1.0;"/><line style="stroke:#A80036;stroke-width:1.0;" x1="0" x2="111" y1="71.4297" y2="71.4297"/><text fill="#000000" font-family="sans-serif" font-size="13" lengthAdjust="spacing" textLength="98" x="7" y="66.3638">drawAsItem(jb)</text><polygon fill="#A80036" points="456,96.5625,466,100.5625,456,104.5625,460,100.5625" style="stroke:#A80036;stroke-width:1.0;"/><line style="stroke:#A80036;stroke-width:1.0;" x1="127" x2="462" y1="100.5625" y2="100.5625"/><text fill="#000000" font-family="sans-serif" font-size="13" lengthAdjust="spacing" textLength="107" x="134" y="95.4966">setEnabled(true)</text><polygon fill="#A80036" points="138,110.5625,128,114.5625,138,118.5625,134,114.5625" style="stroke:#A80036;stroke-width:1.0;"/><line style="stroke:#A80036;stroke-width:1.0;stroke-dasharray:2.0,2.0;" x1="132" x2="472" y1="114.5625" y2="114.5625"/><polygon fill="#A80036" points="456,139.6953,466,143.6953,456,147.6953,460,143.6953" style="stroke:#A80036;stroke-width:1.0;"/><line style="stroke:#A80036;stroke-width:1.0;" x1="127" x2="462" y1="143.6953" y2="143.6953"/><text fill="#000000" font-family="sans-serif" font-size="13" lengthAdjust="spacing" textLength="146" x="134" y="138.6294">setIcon(teleportImage)</text><polygon fill="#A80036" points="138,153.6953,128,157.6953,138,161.6953,134,157.6953" style="stroke:#A80036;stroke-width:1.0;"/><line style="stroke:#A80036;stroke-width:1.0;stroke-dasharray:2.0,2.0;" x1="132" x2="472" y1="157.6953" y2="157.6953"/><polygon fill="#A80036" points="601.5,182.8281,611.5,186.8281,601.5,190.8281,605.5,186.8281" style="stroke:#A80036;stroke-width:1.0;"/><line style="stroke:#A80036;stroke-width:1.0;" x1="127" x2="607.5" y1="186.8281" y2="186.8281"/><text fill="#000000" font-family="sans-serif" font-size="13" lengthAdjust="spacing" textLength="147" x="134" y="181.7622">getTeleportID(teleport)</text><polygon fill="#A80036" points="138,211.9609,128,215.9609,138,219.9609,134,215.9609" style="stroke:#A80036;stroke-width:1.0;"/><line style="stroke:#A80036;stroke-width:1.0;stroke-dasharray:2.0,2.0;" x1="132" x2="617.5" y1="215.9609" y2="215.9609"/><text fill="#000000" font-family="sans-serif" font-size="13" lengthAdjust="spacing" textLength="63" x="144" y="210.895">teleportID</text><polygon fill="#A80036" points="456,241.0938,466,245.0938,456,249.0938,460,245.0938" style="stroke:#A80036;stroke-width:1.0;"/><line style="stroke:#A80036;stroke-width:1.0;" x1="127" x2="462" y1="245.0938" y2="245.0938"/><text fill="#000000" font-family="sans-serif" font-size="13" lengthAdjust="spacing" textLength="322" x="134" y="240.0278">setActionCommand("placeTeleport_" + teleportID)</text><polygon fill="#A80036" points="138,255.0938,128,259.0938,138,263.0938,134,259.0938" style="stroke:#A80036;stroke-width:1.0;"/><line style="stroke:#A80036;stroke-width:1.0;stroke-dasharray:2.0,2.0;" x1="132" x2="472" y1="259.0938" y2="259.0938"/><polygon fill="#A80036" points="11,269.0938,1,273.0938,11,277.0938,7,273.0938" style="stroke:#A80036;stroke-width:1.0;"/><line style="stroke:#A80036;stroke-width:1.0;stroke-dasharray:2.0,2.0;" x1="5" x2="121" y1="273.0938" y2="273.0938"/><!--MD5=[1c64191d4acf7f093c7657ff590a22e0]
@startuml
participant "tvc : TeleportViewControl" as avc
participant "jb : JButton" as jb
participant " : CommandDatabase" as cmdDatBase

[->avc ++:drawAsItem(jb)
    avc-> jb++:setEnabled(true)
    return
   
    avc-> jb ++:setIcon(teleportImage)
    return
     avc->cmdDatBase ++: getTeleportID(teleport)
    return teleportID
    avc-> jb ++:setActionCommand("placeTeleport_" + teleportID)
    return
return
@enduml

PlantUML version 1.2021.5beta3(Unknown compile time)
(GPL source distribution)
Java Runtime: Java(TM) SE Runtime Environment
JVM: Java HotSpot(TM) 64-Bit Server VM
Default Encoding: UTF-8
Language: en
Country: US
--></g></svg>