<?xml version="1.0" encoding="UTF-8" standalone="no"?><svg xmlns="http://www.w3.org/2000/svg" xmlns:xlink="http://www.w3.org/1999/xlink" contentScriptType="application/ecmascript" contentStyleType="text/css" height="411px" preserveAspectRatio="none" style="width:333px;height:411px;" version="1.1" viewBox="0 0 333 411" width="333px" zoomAndPan="magnify"><defs><filter height="300%" id="f1smomwb06aw1d" width="300%" x="-1" y="-1"><feGaussianBlur result="blurOut" stdDeviation="2.0"/><feColorMatrix in="blurOut" result="blurOut2" type="matrix" values="0 0 0 0 0 0 0 0 0 0 0 0 0 0 0 0 0 0 .4 0"/><feOffset dx="4.0" dy="4.0" in="blurOut2" result="blurOut3"/><feBlend in="SourceGraphic" in2="blurOut3" mode="normal"/></filter></defs><g><rect fill="#FFFFFF" filter="url(#f1smomwb06aw1d)" height="278.4688" style="stroke:#A80036;stroke-width:1.0;" width="10" x="68" y="71.4297"/><rect fill="#FFFFFF" filter="url(#f1smomwb06aw1d)" height="28" style="stroke:#A80036;stroke-width:1.0;" width="10" x="73" y="132.6953"/><rect fill="#FFFFFF" filter="url(#f1smomwb06aw1d)" height="28" style="stroke:#A80036;stroke-width:1.0;" width="10" x="73" y="219.6328"/><rect fill="#FFFFFF" filter="url(#f1smomwb06aw1d)" height="14" style="stroke:#A80036;stroke-width:1.0;" width="10" x="212" y="314.8984"/><rect fill="#FFFFFF" filter="url(#f1smomwb06aw1d)" height="176.2031" style="stroke:#000000;stroke-width:2.0;" width="304" x="15" y="86.4297"/><rect fill="#FFFFFF" height="86.9375" style="stroke:none;stroke-width:1.0;" width="304" x="15" y="175.6953"/><rect fill="#FFFFFF" filter="url(#f1smomwb06aw1d)" height="60.2656" style="stroke:#000000;stroke-width:2.0;" width="301" x="15" y="276.6328"/><line style="stroke:#A80036;stroke-width:1.0;stroke-dasharray:5.0,5.0;" x1="73" x2="73" y1="40.2969" y2="367.8984"/><line style="stroke:#A80036;stroke-width:1.0;stroke-dasharray:5.0,5.0;" x1="216.5" x2="216.5" y1="40.2969" y2="367.8984"/><rect fill="#FEFECE" filter="url(#f1smomwb06aw1d)" height="30.2969" style="stroke:#A80036;stroke-width:1.5;" width="92" x="25" y="5"/><text fill="#000000" font-family="sans-serif" font-size="14" lengthAdjust="spacing" textLength="78" x="32" y="24.9951">a: Asteroid</text><rect fill="#FEFECE" filter="url(#f1smomwb06aw1d)" height="30.2969" style="stroke:#A80036;stroke-width:1.5;" width="92" x="25" y="366.8984"/><text fill="#000000" font-family="sans-serif" font-size="14" lengthAdjust="spacing" textLength="78" x="32" y="386.8936">a: Asteroid</text><rect fill="#FEFECE" filter="url(#f1smomwb06aw1d)" height="30.2969" style="stroke:#A80036;stroke-width:1.5;" width="113" x="158.5" y="5"/><text fill="#000000" font-family="sans-serif" font-size="14" lengthAdjust="spacing" textLength="99" x="165.5" y="24.9951">core: Material</text><rect fill="#FEFECE" filter="url(#f1smomwb06aw1d)" height="30.2969" style="stroke:#A80036;stroke-width:1.5;" width="113" x="158.5" y="366.8984"/><text fill="#000000" font-family="sans-serif" font-size="14" lengthAdjust="spacing" textLength="99" x="165.5" y="386.8936">core: Material</text><rect fill="#FFFFFF" filter="url(#f1smomwb06aw1d)" height="278.4688" style="stroke:#A80036;stroke-width:1.0;" width="10" x="68" y="71.4297"/><rect fill="#FFFFFF" filter="url(#f1smomwb06aw1d)" height="28" style="stroke:#A80036;stroke-width:1.0;" width="10" x="73" y="132.6953"/><rect fill="#FFFFFF" filter="url(#f1smomwb06aw1d)" height="28" style="stroke:#A80036;stroke-width:1.0;" width="10" x="73" y="219.6328"/><rect fill="#FFFFFF" filter="url(#f1smomwb06aw1d)" height="14" style="stroke:#A80036;stroke-width:1.0;" width="10" x="212" y="314.8984"/><polygon fill="#A80036" points="56,67.4297,66,71.4297,56,75.4297,60,71.4297" style="stroke:#A80036;stroke-width:1.0;"/><line style="stroke:#A80036;stroke-width:1.0;" x1="5" x2="62" y1="71.4297" y2="71.4297"/><text fill="#000000" font-family="sans-serif" font-size="13" lengthAdjust="spacing" textLength="38" x="12" y="66.3638">step()</text><path d="M15,86.4297 L81,86.4297 L81,93.4297 L71,103.4297 L15,103.4297 L15,86.4297 " fill="#EEEEEE" style="stroke:#000000;stroke-width:1.0;"/><rect fill="none" height="176.2031" style="stroke:#000000;stroke-width:2.0;" width="304" x="15" y="86.4297"/><text fill="#000000" font-family="sans-serif" font-size="13" font-weight="bold" lengthAdjust="spacing" textLength="21" x="30" y="99.4966">alt</text><text fill="#000000" font-family="sans-serif" font-size="11" font-weight="bold" lengthAdjust="spacing" textLength="218" x="96" y="98.6401">[is about to be close to the sun]</text><line style="stroke:#A80036;stroke-width:1.0;" x1="83" x2="125" y1="124.6953" y2="124.6953"/><line style="stroke:#A80036;stroke-width:1.0;" x1="125" x2="125" y1="124.6953" y2="137.6953"/><line style="stroke:#A80036;stroke-width:1.0;" x1="84" x2="125" y1="137.6953" y2="137.6953"/><polygon fill="#A80036" points="94,133.6953,84,137.6953,94,141.6953,90,137.6953" style="stroke:#A80036;stroke-width:1.0;"/><text fill="#000000" font-family="sans-serif" font-size="13" lengthAdjust="spacing" textLength="115" x="90" y="119.6294">setSunClose(true)</text><line style="stroke:#000000;stroke-width:1.0;stroke-dasharray:2.0,2.0;" x1="15" x2="319" y1="176.6953" y2="176.6953"/><text fill="#000000" font-family="sans-serif" font-size="11" font-weight="bold" lengthAdjust="spacing" textLength="234" x="20" y="186.9058">[is about to be away from the sun]</text><line style="stroke:#A80036;stroke-width:1.0;" x1="83" x2="125" y1="211.6328" y2="211.6328"/><line style="stroke:#A80036;stroke-width:1.0;" x1="125" x2="125" y1="211.6328" y2="224.6328"/><line style="stroke:#A80036;stroke-width:1.0;" x1="84" x2="125" y1="224.6328" y2="224.6328"/><polygon fill="#A80036" points="94,220.6328,84,224.6328,94,228.6328,90,224.6328" style="stroke:#A80036;stroke-width:1.0;"/><text fill="#000000" font-family="sans-serif" font-size="13" lengthAdjust="spacing" textLength="120" x="90" y="206.5669">setSunClose(false)</text><path d="M15,276.6328 L87,276.6328 L87,283.6328 L77,293.6328 L15,293.6328 L15,276.6328 " fill="#EEEEEE" style="stroke:#000000;stroke-width:1.0;"/><rect fill="none" height="60.2656" style="stroke:#000000;stroke-width:2.0;" width="301" x="15" y="276.6328"/><text fill="#000000" font-family="sans-serif" font-size="13" font-weight="bold" lengthAdjust="spacing" textLength="27" x="30" y="289.6997">opt</text><text fill="#000000" font-family="sans-serif" font-size="11" font-weight="bold" lengthAdjust="spacing" textLength="209" x="102" y="288.8433">[is exposed &amp;&amp; core is not null]</text><polygon fill="#A80036" points="200,310.8984,210,314.8984,200,318.8984,204,314.8984" style="stroke:#A80036;stroke-width:1.0;"/><line style="stroke:#A80036;stroke-width:1.0;" x1="78" x2="206" y1="314.8984" y2="314.8984"/><text fill="#000000" font-family="sans-serif" font-size="13" lengthAdjust="spacing" textLength="65" x="85" y="309.8325">exposed()</text><polygon fill="#A80036" points="89,324.8984,79,328.8984,89,332.8984,85,328.8984" style="stroke:#A80036;stroke-width:1.0;"/><line style="stroke:#A80036;stroke-width:1.0;stroke-dasharray:2.0,2.0;" x1="83" x2="216" y1="328.8984" y2="328.8984"/><polygon fill="#A80036" points="16,345.8984,6,349.8984,16,353.8984,12,349.8984" style="stroke:#A80036;stroke-width:1.0;"/><line style="stroke:#A80036;stroke-width:1.0;stroke-dasharray:2.0,2.0;" x1="10" x2="72" y1="349.8984" y2="349.8984"/><!--MD5=[ce8a778e8d091e9e573f943a5486290e]
@startuml
participant "a: Asteroid" as a
participant "core: Material" as core

[->a ++: step()
alt is about to be close to the sun
		a->a ++: setSunClose(true)
		deactivate a
else is about to be away from the sun
		a->a ++: setSunClose(false)
		deactivate a
end

opt is exposed && core is not null
		a->core ++: exposed()
		a<- -core - -
end
[<- -a - -
@enduml

PlantUML version 1.2021.3beta6(Unknown compile time)
(GPL source distribution)
Java Runtime: Java(TM) SE Runtime Environment
JVM: Java HotSpot(TM) 64-Bit Server VM
Default Encoding: UTF-8
Language: en
Country: US
--></g></svg>