<?xml version="1.0" encoding="UTF-8" standalone="no"?><svg xmlns="http://www.w3.org/2000/svg" xmlns:xlink="http://www.w3.org/1999/xlink" contentScriptType="application/ecmascript" contentStyleType="text/css" height="335px" preserveAspectRatio="none" style="width:555px;height:335px;" version="1.1" viewBox="0 0 555 335" width="555px" zoomAndPan="magnify"><defs><filter height="300%" id="f1h4vrkwaiauva" width="300%" x="-1" y="-1"><feGaussianBlur result="blurOut" stdDeviation="2.0"/><feColorMatrix in="blurOut" result="blurOut2" type="matrix" values="0 0 0 0 0 0 0 0 0 0 0 0 0 0 0 0 0 0 .4 0"/><feOffset dx="4.0" dy="4.0" in="blurOut2" result="blurOut3"/><feBlend in="SourceGraphic" in2="blurOut3" mode="normal"/></filter></defs><g><rect fill="#FFFFFF" filter="url(#f1h4vrkwaiauva)" height="202.6953" style="stroke:#A80036;stroke-width:1.0;" width="10" x="143" y="71.4297"/><rect fill="#FFFFFF" filter="url(#f1h4vrkwaiauva)" height="113.4297" style="stroke:#A80036;stroke-width:1.0;" width="10" x="148" y="132.6953"/><rect fill="#FFFFFF" filter="url(#f1h4vrkwaiauva)" height="14" style="stroke:#A80036;stroke-width:1.0;" width="10" x="478" y="212.125"/><rect fill="#FFFFFF" filter="url(#f1h4vrkwaiauva)" height="174.6953" style="stroke:#000000;stroke-width:2.0;" width="471" x="70" y="86.4297"/><line style="stroke:#A80036;stroke-width:1.0;stroke-dasharray:5.0,5.0;" x1="37" x2="37" y1="40.2969" y2="292.125"/><line style="stroke:#A80036;stroke-width:1.0;stroke-dasharray:5.0,5.0;" x1="148" x2="148" y1="40.2969" y2="292.125"/><line style="stroke:#A80036;stroke-width:1.0;stroke-dasharray:5.0,5.0;" x1="344" x2="344" y1="178.3438" y2="292.125"/><line style="stroke:#A80036;stroke-width:1.0;stroke-dasharray:5.0,5.0;" x1="483" x2="483" y1="40.2969" y2="292.125"/><rect fill="#FEFECE" filter="url(#f1h4vrkwaiauva)" height="30.2969" style="stroke:#A80036;stroke-width:1.5;" width="61" x="5" y="5"/><text fill="#000000" font-family="sans-serif" font-size="14" lengthAdjust="spacing" textLength="47" x="12" y="24.9951">:Game</text><rect fill="#FEFECE" filter="url(#f1h4vrkwaiauva)" height="30.2969" style="stroke:#A80036;stroke-width:1.5;" width="61" x="5" y="291.125"/><text fill="#000000" font-family="sans-serif" font-size="14" lengthAdjust="spacing" textLength="47" x="12" y="311.1201">:Game</text><rect fill="#FEFECE" filter="url(#f1h4vrkwaiauva)" height="30.2969" style="stroke:#A80036;stroke-width:1.5;" width="132" x="80" y="5"/><text fill="#000000" font-family="sans-serif" font-size="14" lengthAdjust="spacing" textLength="118" x="87" y="24.9951">af: AsteroidField</text><rect fill="#FEFECE" filter="url(#f1h4vrkwaiauva)" height="30.2969" style="stroke:#A80036;stroke-width:1.5;" width="132" x="80" y="291.125"/><text fill="#000000" font-family="sans-serif" font-size="14" lengthAdjust="spacing" textLength="118" x="87" y="311.1201">af: AsteroidField</text><rect fill="#FEFECE" filter="url(#f1h4vrkwaiauva)" height="30.2969" style="stroke:#A80036;stroke-width:1.5;" width="158" x="263" y="291.125"/><text fill="#000000" font-family="sans-serif" font-size="14" lengthAdjust="spacing" textLength="144" x="270" y="311.1201">ar: AsteroidRegistry</text><rect fill="#FEFECE" filter="url(#f1h4vrkwaiauva)" height="30.2969" style="stroke:#A80036;stroke-width:1.5;" width="92" x="435" y="5"/><text fill="#000000" font-family="sans-serif" font-size="14" lengthAdjust="spacing" textLength="78" x="442" y="24.9951">a: Asteroid</text><rect fill="#FEFECE" filter="url(#f1h4vrkwaiauva)" height="30.2969" style="stroke:#A80036;stroke-width:1.5;" width="92" x="435" y="291.125"/><text fill="#000000" font-family="sans-serif" font-size="14" lengthAdjust="spacing" textLength="78" x="442" y="311.1201">a: Asteroid</text><rect fill="#FFFFFF" filter="url(#f1h4vrkwaiauva)" height="202.6953" style="stroke:#A80036;stroke-width:1.0;" width="10" x="143" y="71.4297"/><rect fill="#FFFFFF" filter="url(#f1h4vrkwaiauva)" height="113.4297" style="stroke:#A80036;stroke-width:1.0;" width="10" x="148" y="132.6953"/><rect fill="#FFFFFF" filter="url(#f1h4vrkwaiauva)" height="14" style="stroke:#A80036;stroke-width:1.0;" width="10" x="478" y="212.125"/><polygon fill="#A80036" points="131,67.4297,141,71.4297,131,75.4297,135,71.4297" style="stroke:#A80036;stroke-width:1.0;"/><line style="stroke:#A80036;stroke-width:1.0;" x1="37.5" x2="137" y1="71.4297" y2="71.4297"/><text fill="#000000" font-family="sans-serif" font-size="13" lengthAdjust="spacing" textLength="38" x="44.5" y="66.3638">step()</text><path d="M70,86.4297 L142,86.4297 L142,93.4297 L132,103.4297 L70,103.4297 L70,86.4297 " fill="#EEEEEE" style="stroke:#000000;stroke-width:1.0;"/><rect fill="none" height="174.6953" style="stroke:#000000;stroke-width:2.0;" width="471" x="70" y="86.4297"/><text fill="#000000" font-family="sans-serif" font-size="13" font-weight="bold" lengthAdjust="spacing" textLength="27" x="85" y="99.4966">opt</text><text fill="#000000" font-family="sans-serif" font-size="11" font-weight="bold" lengthAdjust="spacing" textLength="61" x="157" y="98.6401">[random]</text><line style="stroke:#A80036;stroke-width:1.0;" x1="153" x2="200" y1="119.6953" y2="119.6953"/><line style="stroke:#A80036;stroke-width:1.0;" x1="200" x2="200" y1="119.6953" y2="132.6953"/><line style="stroke:#A80036;stroke-width:1.0;" x1="159" x2="200" y1="132.6953" y2="132.6953"/><polygon fill="#A80036" points="169,128.6953,159,132.6953,169,136.6953,165,132.6953" style="stroke:#A80036;stroke-width:1.0;"/><text fill="#000000" font-family="sans-serif" font-size="13" lengthAdjust="spacing" textLength="123" x="165" y="114.6294">induceSolarStorm()</text><polygon fill="#A80036" points="251,162.8281,261,166.8281,251,170.8281,255,166.8281" style="stroke:#A80036;stroke-width:1.0;"/><line style="stroke:#A80036;stroke-width:1.0;" x1="158" x2="257" y1="166.8281" y2="166.8281"/><text fill="#000000" font-family="sans-serif" font-size="13" lengthAdjust="spacing" textLength="81" x="165" y="161.7622">&lt;&lt;create&gt;&gt;</text><rect fill="#FEFECE" filter="url(#f1h4vrkwaiauva)" height="30.2969" style="stroke:#A80036;stroke-width:1.5;" width="158" x="263" y="145.6953"/><text fill="#000000" font-family="sans-serif" font-size="14" lengthAdjust="spacing" textLength="144" x="270" y="165.6904">ar: AsteroidRegistry</text><polygon fill="#A80036" points="466,208.125,476,212.125,466,216.125,470,212.125" style="stroke:#A80036;stroke-width:1.0;"/><line style="stroke:#A80036;stroke-width:1.0;" x1="158" x2="472" y1="212.125" y2="212.125"/><text fill="#000000" font-family="sans-serif" font-size="13" lengthAdjust="spacing" textLength="143" x="165" y="207.0591">sufferSolarstorm(1,ar)</text><polygon fill="#A80036" points="169,222.125,159,226.125,169,230.125,165,226.125" style="stroke:#A80036;stroke-width:1.0;"/><line style="stroke:#A80036;stroke-width:1.0;stroke-dasharray:2.0,2.0;" x1="163" x2="482" y1="226.125" y2="226.125"/><line style="stroke:#A80036;stroke-width:1.0;stroke-dasharray:2.0,2.0;" x1="158" x2="200" y1="245.125" y2="245.125"/><line style="stroke:#A80036;stroke-width:1.0;stroke-dasharray:2.0,2.0;" x1="200" x2="200" y1="245.125" y2="258.125"/><line style="stroke:#A80036;stroke-width:1.0;stroke-dasharray:2.0,2.0;" x1="153" x2="200" y1="258.125" y2="258.125"/><polygon fill="#A80036" points="163,254.125,153,258.125,163,262.125,159,258.125" style="stroke:#A80036;stroke-width:1.0;"/><polygon fill="#A80036" points="48.5,270.125,38.5,274.125,48.5,278.125,44.5,274.125" style="stroke:#A80036;stroke-width:1.0;"/><line style="stroke:#A80036;stroke-width:1.0;stroke-dasharray:2.0,2.0;" x1="42.5" x2="147" y1="274.125" y2="274.125"/><!--MD5=[0c3c3fa6828afc3c6f096dbc37e2eaa4]
@startuml
participant ":Game" as game
participant "af: AsteroidField" as af
participant "ar: AsteroidRegistry" as ar
participant "a: Asteroid" as a


game->af:step()
activate af
    opt random
        af->af: induceSolarStorm()
		activate af
				af->ar **: <<create>>
                af->a ++: sufferSolarstorm(1,ar)
                return
                deactivate a
        af- ->af
        deactivate af
        
    end
    
af- ->game
deactivate af
@enduml

PlantUML version 1.2021.4beta3(Unknown compile time)
(GPL source distribution)
Java Runtime: Java(TM) SE Runtime Environment
JVM: Java HotSpot(TM) 64-Bit Server VM
Default Encoding: UTF-8
Language: en
Country: US
--></g></svg>