<?xml version="1.0" encoding="UTF-8" standalone="no"?><svg xmlns="http://www.w3.org/2000/svg" xmlns:xlink="http://www.w3.org/1999/xlink" contentScriptType="application/ecmascript" contentStyleType="text/css" height="363px" preserveAspectRatio="none" style="width:408px;height:363px;" version="1.1" viewBox="0 0 408 363" width="408px" zoomAndPan="magnify"><defs><filter height="300%" id="f9jcuwy9khh2s" width="300%" x="-1" y="-1"><feGaussianBlur result="blurOut" stdDeviation="2.0"/><feColorMatrix in="blurOut" result="blurOut2" type="matrix" values="0 0 0 0 0 0 0 0 0 0 0 0 0 0 0 0 0 0 .4 0"/><feOffset dx="4.0" dy="4.0" in="blurOut2" result="blurOut3"/><feBlend in="SourceGraphic" in2="blurOut3" mode="normal"/></filter></defs><g><rect fill="#FFFFFF" filter="url(#f9jcuwy9khh2s)" height="230.7969" style="stroke:#A80036;stroke-width:1.0;" width="10" x="129" y="71.4297"/><rect fill="#FFFFFF" filter="url(#f9jcuwy9khh2s)" height="40.1328" style="stroke:#A80036;stroke-width:1.0;" width="10" x="134" y="151.6953"/><rect fill="#FFFFFF" filter="url(#f9jcuwy9khh2s)" height="14" style="stroke:#A80036;stroke-width:1.0;" width="10" x="255" y="100.5625"/><rect fill="#FFFFFF" filter="url(#f9jcuwy9khh2s)" height="14" style="stroke:#A80036;stroke-width:1.0;" width="10" x="345" y="252.0938"/><rect fill="#FFFFFF" filter="url(#f9jcuwy9khh2s)" height="60.2656" style="stroke:#000000;stroke-width:2.0;" width="318.5" x="76" y="213.8281"/><line style="stroke:#A80036;stroke-width:1.0;stroke-dasharray:5.0,5.0;" x1="134" x2="134" y1="40.2969" y2="320.2266"/><line style="stroke:#A80036;stroke-width:1.0;stroke-dasharray:5.0,5.0;" x1="259.5" x2="259.5" y1="40.2969" y2="320.2266"/><line style="stroke:#A80036;stroke-width:1.0;stroke-dasharray:5.0,5.0;" x1="349.5" x2="349.5" y1="40.2969" y2="320.2266"/><rect fill="#FEFECE" filter="url(#f9jcuwy9khh2s)" height="30.2969" style="stroke:#A80036;stroke-width:1.5;" width="92" x="86" y="5"/><text fill="#000000" font-family="sans-serif" font-size="14" lengthAdjust="spacing" textLength="78" x="93" y="24.9951">a: Asteroid</text><rect fill="#FEFECE" filter="url(#f9jcuwy9khh2s)" height="30.2969" style="stroke:#A80036;stroke-width:1.5;" width="92" x="86" y="319.2266"/><text fill="#000000" font-family="sans-serif" font-size="14" lengthAdjust="spacing" textLength="78" x="93" y="339.2217">a: Asteroid</text><rect fill="#FEFECE" filter="url(#f9jcuwy9khh2s)" height="30.2969" style="stroke:#A80036;stroke-width:1.5;" width="87" x="214.5" y="5"/><text fill="#000000" font-family="sans-serif" font-size="14" lengthAdjust="spacing" textLength="73" x="221.5" y="24.9951">w: Worker</text><rect fill="#FEFECE" filter="url(#f9jcuwy9khh2s)" height="30.2969" style="stroke:#A80036;stroke-width:1.5;" width="87" x="214.5" y="319.2266"/><text fill="#000000" font-family="sans-serif" font-size="14" lengthAdjust="spacing" textLength="73" x="221.5" y="339.2217">w: Worker</text><rect fill="#FEFECE" filter="url(#f9jcuwy9khh2s)" height="30.2969" style="stroke:#A80036;stroke-width:1.5;" width="65" x="315.5" y="5"/><text fill="#000000" font-family="sans-serif" font-size="14" lengthAdjust="spacing" textLength="51" x="322.5" y="24.9951">: Game</text><rect fill="#FEFECE" filter="url(#f9jcuwy9khh2s)" height="30.2969" style="stroke:#A80036;stroke-width:1.5;" width="65" x="315.5" y="319.2266"/><text fill="#000000" font-family="sans-serif" font-size="14" lengthAdjust="spacing" textLength="51" x="322.5" y="339.2217">: Game</text><rect fill="#FFFFFF" filter="url(#f9jcuwy9khh2s)" height="230.7969" style="stroke:#A80036;stroke-width:1.0;" width="10" x="129" y="71.4297"/><rect fill="#FFFFFF" filter="url(#f9jcuwy9khh2s)" height="40.1328" style="stroke:#A80036;stroke-width:1.0;" width="10" x="134" y="151.6953"/><rect fill="#FFFFFF" filter="url(#f9jcuwy9khh2s)" height="14" style="stroke:#A80036;stroke-width:1.0;" width="10" x="255" y="100.5625"/><rect fill="#FFFFFF" filter="url(#f9jcuwy9khh2s)" height="14" style="stroke:#A80036;stroke-width:1.0;" width="10" x="345" y="252.0938"/><polygon fill="#A80036" points="117,67.4297,127,71.4297,117,75.4297,121,71.4297" style="stroke:#A80036;stroke-width:1.0;"/><line style="stroke:#A80036;stroke-width:1.0;" x1="0" x2="123" y1="71.4297" y2="71.4297"/><text fill="#000000" font-family="sans-serif" font-size="13" lengthAdjust="spacing" textLength="110" x="7" y="66.3638">acceptWorker(w)</text><polygon fill="#A80036" points="243,96.5625,253,100.5625,243,104.5625,247,100.5625" style="stroke:#A80036;stroke-width:1.0;"/><line style="stroke:#A80036;stroke-width:1.0;" x1="139" x2="249" y1="100.5625" y2="100.5625"/><text fill="#000000" font-family="sans-serif" font-size="13" lengthAdjust="spacing" textLength="91" x="146" y="95.4966">setAsteroid(a)</text><polygon fill="#A80036" points="150,110.5625,140,114.5625,150,118.5625,146,114.5625" style="stroke:#A80036;stroke-width:1.0;"/><line style="stroke:#A80036;stroke-width:1.0;stroke-dasharray:2.0,2.0;" x1="144" x2="259" y1="114.5625" y2="114.5625"/><line style="stroke:#A80036;stroke-width:1.0;" x1="139" x2="186" y1="138.6953" y2="138.6953"/><line style="stroke:#A80036;stroke-width:1.0;" x1="186" x2="186" y1="138.6953" y2="151.6953"/><line style="stroke:#A80036;stroke-width:1.0;" x1="145" x2="186" y1="151.6953" y2="151.6953"/><polygon fill="#A80036" points="155,147.6953,145,151.6953,155,155.6953,151,151.6953" style="stroke:#A80036;stroke-width:1.0;"/><text fill="#000000" font-family="sans-serif" font-size="13" lengthAdjust="spacing" textLength="102" x="151" y="133.6294">checkBaseWin()</text><line style="stroke:#A80036;stroke-width:1.0;stroke-dasharray:2.0,2.0;" x1="144" x2="186" y1="190.8281" y2="190.8281"/><line style="stroke:#A80036;stroke-width:1.0;stroke-dasharray:2.0,2.0;" x1="186" x2="186" y1="190.8281" y2="203.8281"/><line style="stroke:#A80036;stroke-width:1.0;stroke-dasharray:2.0,2.0;" x1="139" x2="186" y1="203.8281" y2="203.8281"/><polygon fill="#A80036" points="149,199.8281,139,203.8281,149,207.8281,145,203.8281" style="stroke:#A80036;stroke-width:1.0;"/><text fill="#000000" font-family="sans-serif" font-size="13" lengthAdjust="spacing" textLength="8" x="151" y="185.7622">b</text><path d="M76,213.8281 L148,213.8281 L148,220.8281 L138,230.8281 L76,230.8281 L76,213.8281 " fill="#EEEEEE" style="stroke:#000000;stroke-width:1.0;"/><rect fill="none" height="60.2656" style="stroke:#000000;stroke-width:2.0;" width="318.5" x="76" y="213.8281"/><text fill="#000000" font-family="sans-serif" font-size="13" font-weight="bold" lengthAdjust="spacing" textLength="27" x="91" y="226.895">opt</text><text fill="#000000" font-family="sans-serif" font-size="11" font-weight="bold" lengthAdjust="spacing" textLength="73" x="163" y="226.0386">[b == true]</text><polygon fill="#A80036" points="333,248.0938,343,252.0938,333,256.0938,337,252.0938" style="stroke:#A80036;stroke-width:1.0;"/><line style="stroke:#A80036;stroke-width:1.0;" x1="139" x2="339" y1="252.0938" y2="252.0938"/><text fill="#000000" font-family="sans-serif" font-size="13" lengthAdjust="spacing" textLength="99" x="146" y="247.0278">endGame(true)</text><polygon fill="#A80036" points="150,262.0938,140,266.0938,150,270.0938,146,266.0938" style="stroke:#A80036;stroke-width:1.0;"/><line style="stroke:#A80036;stroke-width:1.0;stroke-dasharray:2.0,2.0;" x1="144" x2="349" y1="266.0938" y2="266.0938"/><polygon fill="#A80036" points="11,298.2266,1,302.2266,11,306.2266,7,302.2266" style="stroke:#A80036;stroke-width:1.0;"/><line style="stroke:#A80036;stroke-width:1.0;stroke-dasharray:2.0,2.0;" x1="5" x2="133" y1="302.2266" y2="302.2266"/><text fill="#000000" font-family="sans-serif" font-size="13" lengthAdjust="spacing" textLength="26" x="17" y="297.1606">true</text><!--MD5=[efb0c6ae321928016a0f09b3a3969f30]
@startuml
participant "a: Asteroid" as a
participant "w: Worker" as w
participant ": Game" as game

[->a ++:acceptWorker(w)
    a->w ++: setAsteroid(a) 
    return
    a->a ++:checkBaseWin()
    return b
    
    opt b == true
        a->game ++:endGame(true)
        return
    end
    
return true
@enduml

PlantUML version 1.2021.2beta14(Unknown compile time)
(GPL source distribution)
Java Runtime: Java(TM) SE Runtime Environment
JVM: Java HotSpot(TM) 64-Bit Server VM
Default Encoding: UTF-8
Language: en
Country: US
--></g></svg>