<?xml version="1.0" encoding="UTF-8" standalone="no"?><svg xmlns="http://www.w3.org/2000/svg" xmlns:xlink="http://www.w3.org/1999/xlink" contentScriptType="application/ecmascript" contentStyleType="text/css" height="215px" preserveAspectRatio="none" style="width:395px;height:215px;" version="1.1" viewBox="0 0 395 215" width="395px" zoomAndPan="magnify"><defs><filter height="300%" id="f1up702zkvi7ti" width="300%" x="-1" y="-1"><feGaussianBlur result="blurOut" stdDeviation="2.0"/><feColorMatrix in="blurOut" result="blurOut2" type="matrix" values="0 0 0 0 0 0 0 0 0 0 0 0 0 0 0 0 0 0 .4 0"/><feOffset dx="4.0" dy="4.0" in="blurOut2" result="blurOut3"/><feBlend in="SourceGraphic" in2="blurOut3" mode="normal"/></filter></defs><g><rect fill="#FFFFFF" filter="url(#f1up702zkvi7ti)" height="83.1328" style="stroke:#A80036;stroke-width:1.0;" width="10" x="174" y="71.4297"/><rect fill="#FFFFFF" filter="url(#f1up702zkvi7ti)" height="25" style="stroke:#A80036;stroke-width:1.0;" width="10" x="179" y="108.5625"/><line style="stroke:#A80036;stroke-width:1.0;stroke-dasharray:5.0,5.0;" x1="179" x2="179" y1="40.2969" y2="172.5625"/><line style="stroke:#A80036;stroke-width:1.0;stroke-dasharray:5.0,5.0;" x1="325" x2="325" y1="40.2969" y2="172.5625"/><rect fill="#FEFECE" filter="url(#f1up702zkvi7ti)" height="30.2969" style="stroke:#A80036;stroke-width:1.5;" width="92" x="131" y="5"/><text fill="#000000" font-family="sans-serif" font-size="14" lengthAdjust="spacing" textLength="78" x="138" y="24.9951">a: Asteroid</text><rect fill="#FEFECE" filter="url(#f1up702zkvi7ti)" height="30.2969" style="stroke:#A80036;stroke-width:1.5;" width="92" x="131" y="171.5625"/><text fill="#000000" font-family="sans-serif" font-size="14" lengthAdjust="spacing" textLength="78" x="138" y="191.5576">a: Asteroid</text><rect fill="#FEFECE" filter="url(#f1up702zkvi7ti)" height="30.2969" style="stroke:#A80036;stroke-width:1.5;" width="116" x="265" y="5"/><text fill="#000000" font-family="sans-serif" font-size="14" lengthAdjust="spacing" textLength="102" x="272" y="24.9951">t: Transporter</text><rect fill="#FEFECE" filter="url(#f1up702zkvi7ti)" height="30.2969" style="stroke:#A80036;stroke-width:1.5;" width="116" x="265" y="171.5625"/><text fill="#000000" font-family="sans-serif" font-size="14" lengthAdjust="spacing" textLength="102" x="272" y="191.5576">t: Transporter</text><rect fill="#FFFFFF" filter="url(#f1up702zkvi7ti)" height="83.1328" style="stroke:#A80036;stroke-width:1.0;" width="10" x="174" y="71.4297"/><rect fill="#FFFFFF" filter="url(#f1up702zkvi7ti)" height="25" style="stroke:#A80036;stroke-width:1.0;" width="10" x="179" y="108.5625"/><polygon fill="#A80036" points="162,67.4297,172,71.4297,162,75.4297,166,71.4297" style="stroke:#A80036;stroke-width:1.0;"/><line style="stroke:#A80036;stroke-width:1.0;" x1="0" x2="168" y1="71.4297" y2="71.4297"/><text fill="#000000" font-family="sans-serif" font-size="13" lengthAdjust="spacing" textLength="155" x="7" y="66.3638">onNeighborDestroyed(t)</text><line style="stroke:#A80036;stroke-width:1.0;" x1="184" x2="231" y1="95.5625" y2="95.5625"/><line style="stroke:#A80036;stroke-width:1.0;" x1="231" x2="231" y1="95.5625" y2="108.5625"/><line style="stroke:#A80036;stroke-width:1.0;" x1="190" x2="231" y1="108.5625" y2="108.5625"/><polygon fill="#A80036" points="200,104.5625,190,108.5625,200,112.5625,196,108.5625" style="stroke:#A80036;stroke-width:1.0;"/><text fill="#000000" font-family="sans-serif" font-size="13" lengthAdjust="spacing" textLength="122" x="196" y="90.4966">removeNeighbor(t)</text><line style="stroke:#A80036;stroke-width:1.0;stroke-dasharray:2.0,2.0;" x1="189" x2="231" y1="132.5625" y2="132.5625"/><line style="stroke:#A80036;stroke-width:1.0;stroke-dasharray:2.0,2.0;" x1="231" x2="231" y1="132.5625" y2="145.5625"/><line style="stroke:#A80036;stroke-width:1.0;stroke-dasharray:2.0,2.0;" x1="184" x2="231" y1="145.5625" y2="145.5625"/><polygon fill="#A80036" points="194,141.5625,184,145.5625,194,149.5625,190,145.5625" style="stroke:#A80036;stroke-width:1.0;"/><polygon fill="#A80036" points="11,150.5625,1,154.5625,11,158.5625,7,154.5625" style="stroke:#A80036;stroke-width:1.0;"/><line style="stroke:#A80036;stroke-width:1.0;stroke-dasharray:2.0,2.0;" x1="5" x2="178" y1="154.5625" y2="154.5625"/><!--MD5=[6892e08e1bec66383510d5b3406de76f]
@startuml
participant "a: Asteroid" as a
participant "t: Transporter" as t

[->a ++: onNeighborDestroyed(t)
a->a ++: removeNeighbor(t)
return
return
@enduml

PlantUML version 1.2021.2beta13(Unknown compile time)
(GPL source distribution)
Java Runtime: Java(TM) SE Runtime Environment
JVM: Java HotSpot(TM) 64-Bit Server VM
Default Encoding: UTF-8
Language: en
Country: US
--></g></svg>