<?xml version="1.0" encoding="UTF-8" standalone="no"?><svg xmlns="http://www.w3.org/2000/svg" xmlns:xlink="http://www.w3.org/1999/xlink" contentScriptType="application/ecmascript" contentStyleType="text/css" height="427px" preserveAspectRatio="none" style="width:732px;height:427px;" version="1.1" viewBox="0 0 732 427" width="732px" zoomAndPan="magnify"><defs><filter height="300%" id="f1jp6kmtqwtqu8" width="300%" x="-1" y="-1"><feGaussianBlur result="blurOut" stdDeviation="2.0"/><feColorMatrix in="blurOut" result="blurOut2" type="matrix" values="0 0 0 0 0 0 0 0 0 0 0 0 0 0 0 0 0 0 .4 0"/><feOffset dx="4.0" dy="4.0" in="blurOut2" result="blurOut3"/><feBlend in="SourceGraphic" in2="blurOut3" mode="normal"/></filter></defs><g><rect fill="#FFFFFF" filter="url(#f1jp6kmtqwtqu8)" height="295.0625" style="stroke:#A80036;stroke-width:1.0;" width="10" x="220" y="71.4297"/><rect fill="#FFFFFF" filter="url(#f1jp6kmtqwtqu8)" height="29.1328" style="stroke:#A80036;stroke-width:1.0;" width="10" x="370" y="100.5625"/><rect fill="#FFFFFF" filter="url(#f1jp6kmtqwtqu8)" height="14" style="stroke:#A80036;stroke-width:1.0;" width="10" x="370" y="182.9609"/><rect fill="#FFFFFF" filter="url(#f1jp6kmtqwtqu8)" height="14" style="stroke:#A80036;stroke-width:1.0;" width="10" x="532" y="324.4922"/><rect fill="#FFFFFF" filter="url(#f1jp6kmtqwtqu8)" height="14" style="stroke:#A80036;stroke-width:1.0;" width="10" x="647.5" y="250.2266"/><rect fill="#FFFFFF" filter="url(#f1jp6kmtqwtqu8)" height="208.7969" style="stroke:#000000;stroke-width:2.0;" width="561" x="157" y="144.6953"/><rect fill="#FFFFFF" filter="url(#f1jp6kmtqwtqu8)" height="60.2656" style="stroke:#000000;stroke-width:2.0;" width="541" x="167" y="211.9609"/><rect fill="#FFFFFF" filter="url(#f1jp6kmtqwtqu8)" height="60.2656" style="stroke:#000000;stroke-width:2.0;" width="440" x="167" y="286.2266"/><line style="stroke:#A80036;stroke-width:1.0;stroke-dasharray:5.0,5.0;" x1="225" x2="225" y1="40.2969" y2="384.4922"/><line style="stroke:#A80036;stroke-width:1.0;stroke-dasharray:5.0,5.0;" x1="375" x2="375" y1="40.2969" y2="384.4922"/><line style="stroke:#A80036;stroke-width:1.0;stroke-dasharray:5.0,5.0;" x1="537" x2="537" y1="40.2969" y2="384.4922"/><line style="stroke:#A80036;stroke-width:1.0;stroke-dasharray:5.0,5.0;" x1="652" x2="652" y1="40.2969" y2="384.4922"/><rect fill="#FEFECE" filter="url(#f1jp6kmtqwtqu8)" height="30.2969" style="stroke:#A80036;stroke-width:1.5;" width="92" x="177" y="5"/><text fill="#000000" font-family="sans-serif" font-size="14" lengthAdjust="spacing" textLength="78" x="184" y="24.9951">a: Asteroid</text><rect fill="#FEFECE" filter="url(#f1jp6kmtqwtqu8)" height="30.2969" style="stroke:#A80036;stroke-width:1.5;" width="92" x="177" y="383.4922"/><text fill="#000000" font-family="sans-serif" font-size="14" lengthAdjust="spacing" textLength="78" x="184" y="403.4873">a: Asteroid</text><rect fill="#FEFECE" filter="url(#f1jp6kmtqwtqu8)" height="30.2969" style="stroke:#A80036;stroke-width:1.5;" width="180" x="283" y="5"/><text fill="#000000" font-family="sans-serif" font-size="14" lengthAdjust="spacing" textLength="166" x="290" y="24.9951">aReg: AsteroidRegistry</text><rect fill="#FEFECE" filter="url(#f1jp6kmtqwtqu8)" height="30.2969" style="stroke:#A80036;stroke-width:1.5;" width="180" x="283" y="383.4922"/><text fill="#000000" font-family="sans-serif" font-size="14" lengthAdjust="spacing" textLength="166" x="290" y="403.4873">aReg: AsteroidRegistry</text><rect fill="#FEFECE" filter="url(#f1jp6kmtqwtqu8)" height="30.2969" style="stroke:#A80036;stroke-width:1.5;" width="116" x="477" y="5"/><text fill="#000000" font-family="sans-serif" font-size="14" lengthAdjust="spacing" textLength="102" x="484" y="24.9951">t: Transporter</text><rect fill="#FEFECE" filter="url(#f1jp6kmtqwtqu8)" height="30.2969" style="stroke:#A80036;stroke-width:1.5;" width="116" x="477" y="383.4922"/><text fill="#000000" font-family="sans-serif" font-size="14" lengthAdjust="spacing" textLength="102" x="484" y="403.4873">t: Transporter</text><rect fill="#FEFECE" filter="url(#f1jp6kmtqwtqu8)" height="30.2969" style="stroke:#A80036;stroke-width:1.5;" width="87" x="607" y="5"/><text fill="#000000" font-family="sans-serif" font-size="14" lengthAdjust="spacing" textLength="73" x="614" y="24.9951">w: Worker</text><rect fill="#FEFECE" filter="url(#f1jp6kmtqwtqu8)" height="30.2969" style="stroke:#A80036;stroke-width:1.5;" width="87" x="607" y="383.4922"/><text fill="#000000" font-family="sans-serif" font-size="14" lengthAdjust="spacing" textLength="73" x="614" y="403.4873">w: Worker</text><rect fill="#FFFFFF" filter="url(#f1jp6kmtqwtqu8)" height="295.0625" style="stroke:#A80036;stroke-width:1.0;" width="10" x="220" y="71.4297"/><rect fill="#FFFFFF" filter="url(#f1jp6kmtqwtqu8)" height="29.1328" style="stroke:#A80036;stroke-width:1.0;" width="10" x="370" y="100.5625"/><rect fill="#FFFFFF" filter="url(#f1jp6kmtqwtqu8)" height="14" style="stroke:#A80036;stroke-width:1.0;" width="10" x="370" y="182.9609"/><rect fill="#FFFFFF" filter="url(#f1jp6kmtqwtqu8)" height="14" style="stroke:#A80036;stroke-width:1.0;" width="10" x="532" y="324.4922"/><rect fill="#FFFFFF" filter="url(#f1jp6kmtqwtqu8)" height="14" style="stroke:#A80036;stroke-width:1.0;" width="10" x="647.5" y="250.2266"/><polygon fill="#A80036" points="208,67.4297,218,71.4297,208,75.4297,212,71.4297" style="stroke:#A80036;stroke-width:1.0;"/><line style="stroke:#A80036;stroke-width:1.0;" x1="0" x2="214" y1="71.4297" y2="71.4297"/><text fill="#000000" font-family="sans-serif" font-size="13" lengthAdjust="spacing" textLength="201" x="7" y="66.3638">sufferSolarStorm(depth,aReg0)</text><polygon fill="#A80036" points="358,96.5625,368,100.5625,358,104.5625,362,100.5625" style="stroke:#A80036;stroke-width:1.0;"/><line style="stroke:#A80036;stroke-width:1.0;" x1="230" x2="364" y1="100.5625" y2="100.5625"/><text fill="#000000" font-family="sans-serif" font-size="13" lengthAdjust="spacing" textLength="72" x="237" y="95.4966">contains(a)</text><polygon fill="#A80036" points="241,125.6953,231,129.6953,241,133.6953,237,129.6953" style="stroke:#A80036;stroke-width:1.0;"/><line style="stroke:#A80036;stroke-width:1.0;stroke-dasharray:2.0,2.0;" x1="235" x2="374" y1="129.6953" y2="129.6953"/><text fill="#000000" font-family="sans-serif" font-size="13" lengthAdjust="spacing" textLength="54" x="247" y="124.6294">contains</text><path d="M157,144.6953 L229,144.6953 L229,151.6953 L219,161.6953 L157,161.6953 L157,144.6953 " fill="#EEEEEE" style="stroke:#000000;stroke-width:1.0;"/><rect fill="none" height="208.7969" style="stroke:#000000;stroke-width:2.0;" width="561" x="157" y="144.6953"/><text fill="#000000" font-family="sans-serif" font-size="13" font-weight="bold" lengthAdjust="spacing" textLength="27" x="172" y="157.7622">opt</text><text fill="#000000" font-family="sans-serif" font-size="11" font-weight="bold" lengthAdjust="spacing" textLength="175" x="244" y="156.9058">[depth &lt;= 5 &amp;&amp; !contains]</text><polygon fill="#A80036" points="358,178.9609,368,182.9609,358,186.9609,362,182.9609" style="stroke:#A80036;stroke-width:1.0;"/><line style="stroke:#A80036;stroke-width:1.0;" x1="230" x2="364" y1="182.9609" y2="182.9609"/><text fill="#000000" font-family="sans-serif" font-size="13" lengthAdjust="spacing" textLength="67" x="237" y="177.895">register(a)</text><polygon fill="#A80036" points="241,192.9609,231,196.9609,241,200.9609,237,196.9609" style="stroke:#A80036;stroke-width:1.0;"/><line style="stroke:#A80036;stroke-width:1.0;stroke-dasharray:2.0,2.0;" x1="235" x2="374" y1="196.9609" y2="196.9609"/><path d="M167,211.9609 L245,211.9609 L245,218.9609 L235,228.9609 L167,228.9609 L167,211.9609 " fill="#EEEEEE" style="stroke:#000000;stroke-width:1.0;"/><rect fill="none" height="60.2656" style="stroke:#000000;stroke-width:2.0;" width="541" x="167" y="211.9609"/><text fill="#000000" font-family="sans-serif" font-size="13" font-weight="bold" lengthAdjust="spacing" textLength="33" x="182" y="225.0278">loop</text><text fill="#000000" font-family="sans-serif" font-size="11" font-weight="bold" lengthAdjust="spacing" textLength="119" x="260" y="224.1714">[for w in workers]</text><polygon fill="#A80036" points="635.5,246.2266,645.5,250.2266,635.5,254.2266,639.5,250.2266" style="stroke:#A80036;stroke-width:1.0;"/><line style="stroke:#A80036;stroke-width:1.0;" x1="230" x2="641.5" y1="250.2266" y2="250.2266"/><text fill="#000000" font-family="sans-serif" font-size="13" lengthAdjust="spacing" textLength="29" x="237" y="245.1606">die()</text><polygon fill="#A80036" points="241,260.2266,231,264.2266,241,268.2266,237,264.2266" style="stroke:#A80036;stroke-width:1.0;"/><line style="stroke:#A80036;stroke-width:1.0;stroke-dasharray:2.0,2.0;" x1="235" x2="651.5" y1="264.2266" y2="264.2266"/><path d="M167,286.2266 L245,286.2266 L245,293.2266 L235,303.2266 L167,303.2266 L167,286.2266 " fill="#EEEEEE" style="stroke:#000000;stroke-width:1.0;"/><rect fill="none" height="60.2656" style="stroke:#000000;stroke-width:2.0;" width="440" x="167" y="286.2266"/><text fill="#000000" font-family="sans-serif" font-size="13" font-weight="bold" lengthAdjust="spacing" textLength="33" x="182" y="299.2935">loop</text><text fill="#000000" font-family="sans-serif" font-size="11" font-weight="bold" lengthAdjust="spacing" textLength="136" x="260" y="298.437">[for t in neightbors]</text><polygon fill="#A80036" points="520,320.4922,530,324.4922,520,328.4922,524,324.4922" style="stroke:#A80036;stroke-width:1.0;"/><line style="stroke:#A80036;stroke-width:1.0;" x1="230" x2="526" y1="324.4922" y2="324.4922"/><text fill="#000000" font-family="sans-serif" font-size="13" lengthAdjust="spacing" textLength="211" x="237" y="319.4263">sufferSolarStorm(depth+1,aReg)</text><polygon fill="#A80036" points="241,334.4922,231,338.4922,241,342.4922,237,338.4922" style="stroke:#A80036;stroke-width:1.0;"/><line style="stroke:#A80036;stroke-width:1.0;stroke-dasharray:2.0,2.0;" x1="235" x2="536" y1="338.4922" y2="338.4922"/><polygon fill="#A80036" points="11,362.4922,1,366.4922,11,370.4922,7,366.4922" style="stroke:#A80036;stroke-width:1.0;"/><line style="stroke:#A80036;stroke-width:1.0;stroke-dasharray:2.0,2.0;" x1="5" x2="224" y1="366.4922" y2="366.4922"/><!--MD5=[8587a4c4b05d13f56c09254edbad727d]
@startuml
participant "a: Asteroid" as a
participant "aReg: AsteroidRegistry" as ar
participant "t: Transporter" as t
participant "w: Worker" as w

[->a ++: sufferSolarStorm(depth,aReg0)
a->ar ++: contains(a)
return contains
opt depth <= 5 && !contains
		a->ar ++: register(a)
		return
		loop for w in workers
		a->w ++:die()
		return
		end
		loop for t in neightbors
		a->t ++:sufferSolarStorm(depth+1,aReg)
		return
		end
end
return
@enduml

PlantUML version 1.2021.4beta3(Unknown compile time)
(GPL source distribution)
Java Runtime: Java(TM) SE Runtime Environment
JVM: Java HotSpot(TM) 64-Bit Server VM
Default Encoding: UTF-8
Language: en
Country: US
--></g></svg>