<?xml version="1.0" encoding="UTF-8" standalone="no"?><svg xmlns="http://www.w3.org/2000/svg" xmlns:xlink="http://www.w3.org/1999/xlink" contentScriptType="application/ecmascript" contentStyleType="text/css" height="502px" preserveAspectRatio="none" style="width:718px;height:502px;" version="1.1" viewBox="0 0 718 502" width="718px" zoomAndPan="magnify"><defs><filter height="300%" id="fgfzkruf93q6j" width="300%" x="-1" y="-1"><feGaussianBlur result="blurOut" stdDeviation="2.0"/><feColorMatrix in="blurOut" result="blurOut2" type="matrix" values="0 0 0 0 0 0 0 0 0 0 0 0 0 0 0 0 0 0 .4 0"/><feOffset dx="4.0" dy="4.0" in="blurOut2" result="blurOut3"/><feBlend in="SourceGraphic" in2="blurOut3" mode="normal"/></filter></defs><g><rect fill="#FFFFFF" filter="url(#fgfzkruf93q6j)" height="362.4297" style="stroke:#A80036;stroke-width:1.0;" width="10" x="128" y="71.4297"/><rect fill="#FFFFFF" filter="url(#fgfzkruf93q6j)" height="29.1328" style="stroke:#A80036;stroke-width:1.0;" width="10" x="249" y="169.9922"/><rect fill="#FFFFFF" filter="url(#fgfzkruf93q6j)" height="14" style="stroke:#A80036;stroke-width:1.0;" width="10" x="552" y="228.2578"/><rect fill="#FFFFFF" filter="url(#fgfzkruf93q6j)" height="126.3359" style="stroke:#A80036;stroke-width:1.0;" width="10" x="552" y="278.3906"/><rect fill="#FFFFFF" filter="url(#fgfzkruf93q6j)" height="118.5313" style="stroke:#000000;stroke-width:2.0;" width="629.5" x="75" y="131.7266"/><rect fill="#FFFFFF" filter="url(#fgfzkruf93q6j)" height="148.4688" style="stroke:#000000;stroke-width:2.0;" width="701.5" x="3" y="293.3906"/><rect fill="#FFFFFF" height="73.0703" style="stroke:none;stroke-width:1.0;" width="701.5" x="3" y="368.7891"/><line style="stroke:#A80036;stroke-width:1.0;stroke-dasharray:5.0,5.0;" x1="133" x2="133" y1="40.2969" y2="458.8594"/><line style="stroke:#A80036;stroke-width:1.0;stroke-dasharray:5.0,5.0;" x1="253.5" x2="253.5" y1="40.2969" y2="458.8594"/><line style="stroke:#A80036;stroke-width:1.0;stroke-dasharray:5.0,5.0;" x1="359.5" x2="359.5" y1="40.2969" y2="458.8594"/><line style="stroke:#A80036;stroke-width:1.0;stroke-dasharray:5.0,5.0;" x1="556.5" x2="556.5" y1="112.0781" y2="458.8594"/><rect fill="#FEFECE" filter="url(#fgfzkruf93q6j)" height="30.2969" style="stroke:#A80036;stroke-width:1.5;" width="92" x="85" y="5"/><text fill="#000000" font-family="sans-serif" font-size="14" lengthAdjust="spacing" textLength="78" x="92" y="24.9951">a: Asteroid</text><rect fill="#FEFECE" filter="url(#fgfzkruf93q6j)" height="30.2969" style="stroke:#A80036;stroke-width:1.5;" width="92" x="85" y="457.8594"/><text fill="#000000" font-family="sans-serif" font-size="14" lengthAdjust="spacing" textLength="78" x="92" y="477.8545">a: Asteroid</text><rect fill="#FEFECE" filter="url(#fgfzkruf93q6j)" height="30.2969" style="stroke:#A80036;stroke-width:1.5;" width="87" x="208.5" y="5"/><text fill="#000000" font-family="sans-serif" font-size="14" lengthAdjust="spacing" textLength="73" x="215.5" y="24.9951">w: Worker</text><rect fill="#FEFECE" filter="url(#fgfzkruf93q6j)" height="30.2969" style="stroke:#A80036;stroke-width:1.5;" width="87" x="208.5" y="457.8594"/><text fill="#000000" font-family="sans-serif" font-size="14" lengthAdjust="spacing" textLength="73" x="215.5" y="477.8545">w: Worker</text><rect fill="#FEFECE" filter="url(#fgfzkruf93q6j)" height="30.2969" style="stroke:#A80036;stroke-width:1.5;" width="96" x="309.5" y="5"/><text fill="#000000" font-family="sans-serif" font-size="14" lengthAdjust="spacing" textLength="82" x="316.5" y="24.9951">i: Inventory</text><rect fill="#FEFECE" filter="url(#fgfzkruf93q6j)" height="30.2969" style="stroke:#A80036;stroke-width:1.5;" width="96" x="309.5" y="457.8594"/><text fill="#000000" font-family="sans-serif" font-size="14" lengthAdjust="spacing" textLength="82" x="316.5" y="477.8545">i: Inventory</text><rect fill="#FEFECE" filter="url(#fgfzkruf93q6j)" height="30.2969" style="stroke:#A80036;stroke-width:1.5;" width="271" x="419.5" y="457.8594"/><text fill="#000000" font-family="sans-serif" font-size="14" lengthAdjust="spacing" textLength="257" x="426.5" y="477.8545">baseResReg: BaseResourceRegistry</text><rect fill="#FFFFFF" filter="url(#fgfzkruf93q6j)" height="362.4297" style="stroke:#A80036;stroke-width:1.0;" width="10" x="128" y="71.4297"/><rect fill="#FFFFFF" filter="url(#fgfzkruf93q6j)" height="29.1328" style="stroke:#A80036;stroke-width:1.0;" width="10" x="249" y="169.9922"/><rect fill="#FFFFFF" filter="url(#fgfzkruf93q6j)" height="14" style="stroke:#A80036;stroke-width:1.0;" width="10" x="552" y="228.2578"/><rect fill="#FFFFFF" filter="url(#fgfzkruf93q6j)" height="126.3359" style="stroke:#A80036;stroke-width:1.0;" width="10" x="552" y="278.3906"/><polygon fill="#A80036" points="116,67.4297,126,71.4297,116,75.4297,120,71.4297" style="stroke:#A80036;stroke-width:1.0;"/><line style="stroke:#A80036;stroke-width:1.0;" x1="0" x2="122" y1="71.4297" y2="71.4297"/><text fill="#000000" font-family="sans-serif" font-size="13" lengthAdjust="spacing" textLength="102" x="7" y="66.3638">checkBaseWin()</text><polygon fill="#A80036" points="407.5,96.5625,417.5,100.5625,407.5,104.5625,411.5,100.5625" style="stroke:#A80036;stroke-width:1.0;"/><line style="stroke:#A80036;stroke-width:1.0;" x1="138" x2="413.5" y1="100.5625" y2="100.5625"/><text fill="#000000" font-family="sans-serif" font-size="13" lengthAdjust="spacing" textLength="239" x="145" y="95.4966">&lt;&lt;create&gt;&gt; BaseResourceRegistry()</text><rect fill="#FEFECE" filter="url(#fgfzkruf93q6j)" height="30.2969" style="stroke:#A80036;stroke-width:1.5;" width="271" x="419.5" y="79.4297"/><text fill="#000000" font-family="sans-serif" font-size="14" lengthAdjust="spacing" textLength="257" x="426.5" y="99.4248">baseResReg: BaseResourceRegistry</text><path d="M75,131.7266 L153,131.7266 L153,138.7266 L143,148.7266 L75,148.7266 L75,131.7266 " fill="#EEEEEE" style="stroke:#000000;stroke-width:1.0;"/><rect fill="none" height="118.5313" style="stroke:#000000;stroke-width:2.0;" width="629.5" x="75" y="131.7266"/><text fill="#000000" font-family="sans-serif" font-size="13" font-weight="bold" lengthAdjust="spacing" textLength="33" x="90" y="144.7935">loop</text><text fill="#000000" font-family="sans-serif" font-size="11" font-weight="bold" lengthAdjust="spacing" textLength="119" x="168" y="143.937">[for w in workers]</text><polygon fill="#A80036" points="237,165.9922,247,169.9922,237,173.9922,241,169.9922" style="stroke:#A80036;stroke-width:1.0;"/><line style="stroke:#A80036;stroke-width:1.0;" x1="138" x2="243" y1="169.9922" y2="169.9922"/><text fill="#000000" font-family="sans-serif" font-size="13" lengthAdjust="spacing" textLength="92" x="145" y="164.9263">getInventory()</text><polygon fill="#A80036" points="149,195.125,139,199.125,149,203.125,145,199.125" style="stroke:#A80036;stroke-width:1.0;"/><line style="stroke:#A80036;stroke-width:1.0;stroke-dasharray:2.0,2.0;" x1="143" x2="253" y1="199.125" y2="199.125"/><text fill="#000000" font-family="sans-serif" font-size="13" lengthAdjust="spacing" textLength="3" x="155" y="194.0591">i</text><polygon fill="#A80036" points="540,224.2578,550,228.2578,540,232.2578,544,228.2578" style="stroke:#A80036;stroke-width:1.0;"/><line style="stroke:#A80036;stroke-width:1.0;" x1="138" x2="546" y1="228.2578" y2="228.2578"/><text fill="#000000" font-family="sans-serif" font-size="13" lengthAdjust="spacing" textLength="62" x="145" y="223.1919">register(i)</text><polygon fill="#A80036" points="149,238.2578,139,242.2578,149,246.2578,145,242.2578" style="stroke:#A80036;stroke-width:1.0;"/><line style="stroke:#A80036;stroke-width:1.0;stroke-dasharray:2.0,2.0;" x1="143" x2="556" y1="242.2578" y2="242.2578"/><polygon fill="#A80036" points="540,274.3906,550,278.3906,540,282.3906,544,278.3906" style="stroke:#A80036;stroke-width:1.0;"/><line style="stroke:#A80036;stroke-width:1.0;" x1="138" x2="546" y1="278.3906" y2="278.3906"/><text fill="#000000" font-family="sans-serif" font-size="13" lengthAdjust="spacing" textLength="78" x="145" y="273.3247">isSuccessful</text><path d="M3,293.3906 L69,293.3906 L69,300.3906 L59,310.3906 L3,310.3906 L3,293.3906 " fill="#EEEEEE" style="stroke:#000000;stroke-width:1.0;"/><rect fill="none" height="148.4688" style="stroke:#000000;stroke-width:2.0;" width="701.5" x="3" y="293.3906"/><text fill="#000000" font-family="sans-serif" font-size="13" font-weight="bold" lengthAdjust="spacing" textLength="21" x="18" y="306.4575">alt</text><text fill="#000000" font-family="sans-serif" font-size="11" font-weight="bold" lengthAdjust="spacing" textLength="265" x="84" y="305.6011">[have at least 3 of every material type]</text><polygon fill="#A80036" points="149,327.6563,139,331.6563,149,335.6563,145,331.6563" style="stroke:#A80036;stroke-width:1.0;"/><line style="stroke:#A80036;stroke-width:1.0;stroke-dasharray:2.0,2.0;" x1="143" x2="551" y1="331.6563" y2="331.6563"/><text fill="#000000" font-family="sans-serif" font-size="13" lengthAdjust="spacing" textLength="26" x="155" y="326.5903">true</text><polygon fill="#A80036" points="11,356.7891,1,360.7891,11,364.7891,7,360.7891" style="stroke:#A80036;stroke-width:1.0;"/><line style="stroke:#A80036;stroke-width:1.0;stroke-dasharray:2.0,2.0;" x1="5" x2="127" y1="360.7891" y2="360.7891"/><text fill="#000000" font-family="sans-serif" font-size="13" lengthAdjust="spacing" textLength="26" x="17" y="355.7231">true</text><line style="stroke:#000000;stroke-width:1.0;stroke-dasharray:2.0,2.0;" x1="3" x2="704.5" y1="369.7891" y2="369.7891"/><text fill="#000000" font-family="sans-serif" font-size="11" font-weight="bold" lengthAdjust="spacing" textLength="37" x="8" y="379.9995">[else]</text><polygon fill="#A80036" points="149,400.7266,139,404.7266,149,408.7266,145,404.7266" style="stroke:#A80036;stroke-width:1.0;"/><line style="stroke:#A80036;stroke-width:1.0;stroke-dasharray:2.0,2.0;" x1="143" x2="556" y1="404.7266" y2="404.7266"/><text fill="#000000" font-family="sans-serif" font-size="13" lengthAdjust="spacing" textLength="31" x="155" y="399.6606">false</text><polygon fill="#A80036" points="11,429.8594,1,433.8594,11,437.8594,7,433.8594" style="stroke:#A80036;stroke-width:1.0;"/><line style="stroke:#A80036;stroke-width:1.0;stroke-dasharray:2.0,2.0;" x1="5" x2="132" y1="433.8594" y2="433.8594"/><text fill="#000000" font-family="sans-serif" font-size="13" lengthAdjust="spacing" textLength="31" x="17" y="428.7935">false</text><!--MD5=[95075c072f791add082064bdc0271906]
@startuml
participant "a: Asteroid" as a
participant "w: Worker" as w
participant "i: Inventory"
participant "baseResReg: BaseResourceRegistry" as baseResReg

[->a ++: checkBaseWin()
    a->baseResReg **: <<create>> BaseResourceRegistry()
    
    loop for w in workers
        a->w ++: getInventory()
        return i
        a->baseResReg ++: register(i)
        return
    end
    
    a->baseResReg ++: isSuccessful
    alt have at least 3 of every material type
        baseResReg- ->a: true
        a- ->[: true
    else else
        baseResReg- ->a - -: false
        a- ->[ - -: false
end
@enduml

PlantUML version 1.2021.2beta13(Unknown compile time)
(GPL source distribution)
Java Runtime: Java(TM) SE Runtime Environment
JVM: Java HotSpot(TM) 64-Bit Server VM
Default Encoding: UTF-8
Language: en
Country: US
--></g></svg>