<?xml version="1.0" encoding="UTF-8" standalone="no"?><svg xmlns="http://www.w3.org/2000/svg" xmlns:xlink="http://www.w3.org/1999/xlink" contentScriptType="application/ecmascript" contentStyleType="text/css" height="827px" preserveAspectRatio="none" style="width:1373px;height:827px;" version="1.1" viewBox="0 0 1373 827" width="1373px" zoomAndPan="magnify"><defs><filter height="300%" id="f1sheulk0wwjgn" width="300%" x="-1" y="-1"><feGaussianBlur result="blurOut" stdDeviation="2.0"/><feColorMatrix in="blurOut" result="blurOut2" type="matrix" values="0 0 0 0 0 0 0 0 0 0 0 0 0 0 0 0 0 0 .4 0"/><feOffset dx="4.0" dy="4.0" in="blurOut2" result="blurOut3"/><feBlend in="SourceGraphic" in2="blurOut3" mode="normal"/></filter></defs><g><rect fill="#FFFFFF" filter="url(#f1sheulk0wwjgn)" height="694.2813" style="stroke:#A80036;stroke-width:1.0;" width="10" x="156" y="71.4297"/><rect fill="#FFFFFF" filter="url(#f1sheulk0wwjgn)" height="29.1328" style="stroke:#A80036;stroke-width:1.0;" width="10" x="161" y="129.6953"/><rect fill="#FFFFFF" filter="url(#f1sheulk0wwjgn)" height="29.1328" style="stroke:#A80036;stroke-width:1.0;" width="10" x="161" y="257.3906"/><rect fill="#FFFFFF" filter="url(#f1sheulk0wwjgn)" height="29.1328" style="stroke:#A80036;stroke-width:1.0;" width="10" x="161" y="560.75"/><rect fill="#FFFFFF" filter="url(#f1sheulk0wwjgn)" height="29.1328" style="stroke:#A80036;stroke-width:1.0;" width="10" x="161" y="664.3125"/><rect fill="#FFFFFF" filter="url(#f1sheulk0wwjgn)" height="636.0156" style="stroke:#A80036;stroke-width:1.0;" width="10" x="327" y="100.5625"/><rect fill="#FFFFFF" filter="url(#f1sheulk0wwjgn)" height="14" style="stroke:#A80036;stroke-width:1.0;" width="10" x="594.5" y="465.3203"/><rect fill="#FFFFFF" filter="url(#f1sheulk0wwjgn)" height="14" style="stroke:#A80036;stroke-width:1.0;" width="10" x="810" y="315.6563"/><rect fill="#FFFFFF" filter="url(#f1sheulk0wwjgn)" height="29.1328" style="stroke:#A80036;stroke-width:1.0;" width="10" x="810" y="358.7891"/><rect fill="#FFFFFF" filter="url(#f1sheulk0wwjgn)" height="93.5625" style="stroke:#A80036;stroke-width:1.0;" width="10" x="1020" y="525.4531"/><rect fill="#FFFFFF" filter="url(#f1sheulk0wwjgn)" height="64.4297" style="stroke:#A80036;stroke-width:1.0;" width="10" x="1279.5" y="629.0156"/><rect fill="#FFFFFF" filter="url(#f1sheulk0wwjgn)" height="534.6172" style="stroke:#000000;stroke-width:2.0;" width="1262.5" x="96.5" y="173.8281"/><rect fill="#FFFFFF" filter="url(#f1sheulk0wwjgn)" height="298.5234" style="stroke:#000000;stroke-width:2.0;" width="1242.5" x="106.5" y="402.9219"/><rect fill="#FFFFFF" filter="url(#f1sheulk0wwjgn)" height="60.2656" style="stroke:#000000;stroke-width:2.0;" width="432" x="238" y="427.0547"/><line style="stroke:#A80036;stroke-width:1.0;stroke-dasharray:5.0,5.0;" x1="160.5" x2="160.5" y1="40.2969" y2="783.7109"/><line style="stroke:#A80036;stroke-width:1.0;stroke-dasharray:5.0,5.0;" x1="332" x2="332" y1="40.2969" y2="783.7109"/><line style="stroke:#A80036;stroke-width:1.0;stroke-dasharray:5.0,5.0;" x1="477" x2="477" y1="40.2969" y2="783.7109"/><line style="stroke:#A80036;stroke-width:1.0;stroke-dasharray:5.0,5.0;" x1="599" x2="599" y1="40.2969" y2="783.7109"/><line style="stroke:#A80036;stroke-width:1.0;stroke-dasharray:5.0,5.0;" x1="815" x2="815" y1="223.6094" y2="783.7109"/><line style="stroke:#A80036;stroke-width:1.0;stroke-dasharray:5.0,5.0;" x1="1025" x2="1025" y1="526.9688" y2="783.7109"/><line style="stroke:#A80036;stroke-width:1.0;stroke-dasharray:5.0,5.0;" x1="1284" x2="1284" y1="630.5313" y2="783.7109"/><rect fill="#FEFECE" filter="url(#f1sheulk0wwjgn)" height="30.2969" style="stroke:#A80036;stroke-width:1.5;" width="85" x="116.5" y="5"/><text fill="#000000" font-family="sans-serif" font-size="14" lengthAdjust="spacing" textLength="71" x="123.5" y="24.9951">s : Settler</text><rect fill="#FEFECE" filter="url(#f1sheulk0wwjgn)" height="30.2969" style="stroke:#A80036;stroke-width:1.5;" width="85" x="116.5" y="782.7109"/><text fill="#000000" font-family="sans-serif" font-size="14" lengthAdjust="spacing" textLength="71" x="123.5" y="802.7061">s : Settler</text><rect fill="#FEFECE" filter="url(#f1sheulk0wwjgn)" height="30.2969" style="stroke:#A80036;stroke-width:1.5;" width="164" x="248" y="5"/><text fill="#000000" font-family="sans-serif" font-size="14" lengthAdjust="spacing" textLength="150" x="255" y="24.9951">rcp : TeleportRecipe</text><rect fill="#FEFECE" filter="url(#f1sheulk0wwjgn)" height="30.2969" style="stroke:#A80036;stroke-width:1.5;" width="164" x="248" y="782.7109"/><text fill="#000000" font-family="sans-serif" font-size="14" lengthAdjust="spacing" textLength="150" x="255" y="802.7061">rcp : TeleportRecipe</text><rect fill="#FEFECE" filter="url(#f1sheulk0wwjgn)" height="30.2969" style="stroke:#A80036;stroke-width:1.5;" width="99" x="426" y="5"/><text fill="#000000" font-family="sans-serif" font-size="14" lengthAdjust="spacing" textLength="85" x="433" y="24.9951">m : Material</text><rect fill="#FEFECE" filter="url(#f1sheulk0wwjgn)" height="30.2969" style="stroke:#A80036;stroke-width:1.5;" width="99" x="426" y="782.7109"/><text fill="#000000" font-family="sans-serif" font-size="14" lengthAdjust="spacing" textLength="85" x="433" y="802.7061">m : Material</text><rect fill="#FEFECE" filter="url(#f1sheulk0wwjgn)" height="30.2969" style="stroke:#A80036;stroke-width:1.5;" width="117" x="539" y="5"/><text fill="#000000" font-family="sans-serif" font-size="14" lengthAdjust="spacing" textLength="103" x="546" y="24.9951">inv : Inventory</text><rect fill="#FEFECE" filter="url(#f1sheulk0wwjgn)" height="30.2969" style="stroke:#A80036;stroke-width:1.5;" width="117" x="539" y="782.7109"/><text fill="#000000" font-family="sans-serif" font-size="14" lengthAdjust="spacing" textLength="103" x="546" y="802.7061">inv : Inventory</text><rect fill="#FEFECE" filter="url(#f1sheulk0wwjgn)" height="30.2969" style="stroke:#A80036;stroke-width:1.5;" width="286" x="670" y="782.7109"/><text fill="#000000" font-family="sans-serif" font-size="14" lengthAdjust="spacing" textLength="272" x="677" y="802.7061">telResReg: TeleportResourceRegistry</text><rect fill="#FEFECE" filter="url(#f1sheulk0wwjgn)" height="30.2969" style="stroke:#A80036;stroke-width:1.5;" width="106" x="970" y="782.7109"/><text fill="#000000" font-family="sans-serif" font-size="14" lengthAdjust="spacing" textLength="92" x="977" y="802.7061">t1 : Teleport</text><rect fill="#FEFECE" filter="url(#f1sheulk0wwjgn)" height="30.2969" style="stroke:#A80036;stroke-width:1.5;" width="105" x="1230" y="782.7109"/><text fill="#000000" font-family="sans-serif" font-size="14" lengthAdjust="spacing" textLength="91" x="1237" y="802.7061">t2 : Teleport</text><rect fill="#FFFFFF" filter="url(#f1sheulk0wwjgn)" height="694.2813" style="stroke:#A80036;stroke-width:1.0;" width="10" x="156" y="71.4297"/><rect fill="#FFFFFF" filter="url(#f1sheulk0wwjgn)" height="29.1328" style="stroke:#A80036;stroke-width:1.0;" width="10" x="161" y="129.6953"/><rect fill="#FFFFFF" filter="url(#f1sheulk0wwjgn)" height="29.1328" style="stroke:#A80036;stroke-width:1.0;" width="10" x="161" y="257.3906"/><rect fill="#FFFFFF" filter="url(#f1sheulk0wwjgn)" height="29.1328" style="stroke:#A80036;stroke-width:1.0;" width="10" x="161" y="560.75"/><rect fill="#FFFFFF" filter="url(#f1sheulk0wwjgn)" height="29.1328" style="stroke:#A80036;stroke-width:1.0;" width="10" x="161" y="664.3125"/><rect fill="#FFFFFF" filter="url(#f1sheulk0wwjgn)" height="636.0156" style="stroke:#A80036;stroke-width:1.0;" width="10" x="327" y="100.5625"/><rect fill="#FFFFFF" filter="url(#f1sheulk0wwjgn)" height="14" style="stroke:#A80036;stroke-width:1.0;" width="10" x="594.5" y="465.3203"/><rect fill="#FFFFFF" filter="url(#f1sheulk0wwjgn)" height="14" style="stroke:#A80036;stroke-width:1.0;" width="10" x="810" y="315.6563"/><rect fill="#FFFFFF" filter="url(#f1sheulk0wwjgn)" height="29.1328" style="stroke:#A80036;stroke-width:1.0;" width="10" x="810" y="358.7891"/><rect fill="#FFFFFF" filter="url(#f1sheulk0wwjgn)" height="93.5625" style="stroke:#A80036;stroke-width:1.0;" width="10" x="1020" y="525.4531"/><rect fill="#FFFFFF" filter="url(#f1sheulk0wwjgn)" height="64.4297" style="stroke:#A80036;stroke-width:1.0;" width="10" x="1279.5" y="629.0156"/><polygon fill="#A80036" points="144,67.4297,154,71.4297,144,75.4297,148,71.4297" style="stroke:#A80036;stroke-width:1.0;"/><line style="stroke:#A80036;stroke-width:1.0;" x1="0" x2="150" y1="71.4297" y2="71.4297"/><text fill="#000000" font-family="sans-serif" font-size="13" lengthAdjust="spacing" textLength="60" x="7" y="66.3638">craft(rcp)</text><polygon fill="#A80036" points="315,96.5625,325,100.5625,315,104.5625,319,100.5625" style="stroke:#A80036;stroke-width:1.0;"/><line style="stroke:#A80036;stroke-width:1.0;" x1="166" x2="321" y1="100.5625" y2="100.5625"/><text fill="#000000" font-family="sans-serif" font-size="13" lengthAdjust="spacing" textLength="47" x="173" y="95.4966">craft(s)</text><polygon fill="#A80036" points="182,125.6953,172,129.6953,182,133.6953,178,129.6953" style="stroke:#A80036;stroke-width:1.0;"/><line style="stroke:#A80036;stroke-width:1.0;" x1="176" x2="326" y1="129.6953" y2="129.6953"/><text fill="#000000" font-family="sans-serif" font-size="13" lengthAdjust="spacing" textLength="86" x="188" y="124.6294">hasTeleport()</text><polygon fill="#A80036" points="315,154.8281,325,158.8281,315,162.8281,319,158.8281" style="stroke:#A80036;stroke-width:1.0;"/><line style="stroke:#A80036;stroke-width:1.0;stroke-dasharray:2.0,2.0;" x1="166" x2="321" y1="158.8281" y2="158.8281"/><text fill="#000000" font-family="sans-serif" font-size="13" lengthAdjust="spacing" textLength="76" x="173" y="153.7622">hasTeleport</text><path d="M96.5,173.8281 L168.5,173.8281 L168.5,180.8281 L158.5,190.8281 L96.5,190.8281 L96.5,173.8281 " fill="#EEEEEE" style="stroke:#000000;stroke-width:1.0;"/><rect fill="none" height="534.6172" style="stroke:#000000;stroke-width:2.0;" width="1262.5" x="96.5" y="173.8281"/><text fill="#000000" font-family="sans-serif" font-size="13" font-weight="bold" lengthAdjust="spacing" textLength="27" x="111.5" y="186.895">opt</text><text fill="#000000" font-family="sans-serif" font-size="11" font-weight="bold" lengthAdjust="spacing" textLength="98" x="183.5" y="186.0386">[!hasTeleport]</text><polygon fill="#A80036" points="658,208.0938,668,212.0938,658,216.0938,662,212.0938" style="stroke:#A80036;stroke-width:1.0;"/><line style="stroke:#A80036;stroke-width:1.0;" x1="337" x2="664" y1="212.0938" y2="212.0938"/><text fill="#000000" font-family="sans-serif" font-size="13" lengthAdjust="spacing" textLength="261" x="344" y="207.0278">&lt;&lt;create&gt;&gt; TeleportResourceRegistry()</text><rect fill="#FEFECE" filter="url(#f1sheulk0wwjgn)" height="30.2969" style="stroke:#A80036;stroke-width:1.5;" width="286" x="670" y="190.9609"/><text fill="#000000" font-family="sans-serif" font-size="14" lengthAdjust="spacing" textLength="272" x="677" y="210.9561">telResReg: TeleportResourceRegistry</text><polygon fill="#A80036" points="182,253.3906,172,257.3906,182,261.3906,178,257.3906" style="stroke:#A80036;stroke-width:1.0;"/><line style="stroke:#A80036;stroke-width:1.0;" x1="176" x2="326" y1="257.3906" y2="257.3906"/><text fill="#000000" font-family="sans-serif" font-size="13" lengthAdjust="spacing" textLength="92" x="188" y="252.3247">getInventory()</text><polygon fill="#A80036" points="315,282.5234,325,286.5234,315,290.5234,319,286.5234" style="stroke:#A80036;stroke-width:1.0;"/><line style="stroke:#A80036;stroke-width:1.0;stroke-dasharray:2.0,2.0;" x1="166" x2="321" y1="286.5234" y2="286.5234"/><text fill="#000000" font-family="sans-serif" font-size="13" lengthAdjust="spacing" textLength="19" x="173" y="281.4575">inv</text><polygon fill="#A80036" points="798,311.6563,808,315.6563,798,319.6563,802,315.6563" style="stroke:#A80036;stroke-width:1.0;"/><line style="stroke:#A80036;stroke-width:1.0;" x1="337" x2="804" y1="315.6563" y2="315.6563"/><text fill="#000000" font-family="sans-serif" font-size="13" lengthAdjust="spacing" textLength="78" x="344" y="310.5903">register(inv)</text><polygon fill="#A80036" points="348,325.6563,338,329.6563,348,333.6563,344,329.6563" style="stroke:#A80036;stroke-width:1.0;"/><line style="stroke:#A80036;stroke-width:1.0;stroke-dasharray:2.0,2.0;" x1="342" x2="814" y1="329.6563" y2="329.6563"/><polygon fill="#A80036" points="798,354.7891,808,358.7891,798,362.7891,802,358.7891" style="stroke:#A80036;stroke-width:1.0;"/><line style="stroke:#A80036;stroke-width:1.0;" x1="337" x2="804" y1="358.7891" y2="358.7891"/><text fill="#000000" font-family="sans-serif" font-size="13" lengthAdjust="spacing" textLength="88" x="344" y="353.7231">isSuccessful()</text><polygon fill="#A80036" points="348,383.9219,338,387.9219,348,391.9219,344,387.9219" style="stroke:#A80036;stroke-width:1.0;"/><line style="stroke:#A80036;stroke-width:1.0;stroke-dasharray:2.0,2.0;" x1="342" x2="814" y1="387.9219" y2="387.9219"/><text fill="#000000" font-family="sans-serif" font-size="13" lengthAdjust="spacing" textLength="137" x="354" y="382.856">haveEnoughMaterials</text><path d="M106.5,402.9219 L178.5,402.9219 L178.5,409.9219 L168.5,419.9219 L106.5,419.9219 L106.5,402.9219 " fill="#EEEEEE" style="stroke:#000000;stroke-width:1.0;"/><rect fill="none" height="298.5234" style="stroke:#000000;stroke-width:2.0;" width="1242.5" x="106.5" y="402.9219"/><text fill="#000000" font-family="sans-serif" font-size="13" font-weight="bold" lengthAdjust="spacing" textLength="27" x="121.5" y="415.9888">opt</text><text fill="#000000" font-family="sans-serif" font-size="11" font-weight="bold" lengthAdjust="spacing" textLength="207" x="193.5" y="415.1323">[haveEnoughMaterials == true]</text><path d="M238,427.0547 L316,427.0547 L316,434.0547 L306,444.0547 L238,444.0547 L238,427.0547 " fill="#EEEEEE" style="stroke:#000000;stroke-width:1.0;"/><rect fill="none" height="60.2656" style="stroke:#000000;stroke-width:2.0;" width="432" x="238" y="427.0547"/><text fill="#000000" font-family="sans-serif" font-size="13" font-weight="bold" lengthAdjust="spacing" textLength="33" x="253" y="440.1216">loop</text><text fill="#000000" font-family="sans-serif" font-size="11" font-weight="bold" lengthAdjust="spacing" textLength="183" x="331" y="439.2651">[for used material m in inv]</text><polygon fill="#A80036" points="582.5,461.3203,592.5,465.3203,582.5,469.3203,586.5,465.3203" style="stroke:#A80036;stroke-width:1.0;"/><line style="stroke:#A80036;stroke-width:1.0;" x1="337" x2="588.5" y1="465.3203" y2="465.3203"/><text fill="#000000" font-family="sans-serif" font-size="13" lengthAdjust="spacing" textLength="123" x="344" y="460.2544">removeMaterial(m)</text><polygon fill="#A80036" points="348,475.3203,338,479.3203,348,483.3203,344,479.3203" style="stroke:#A80036;stroke-width:1.0;"/><line style="stroke:#A80036;stroke-width:1.0;stroke-dasharray:2.0,2.0;" x1="342" x2="598.5" y1="479.3203" y2="479.3203"/><polygon fill="#A80036" points="958,511.4531,968,515.4531,958,519.4531,962,515.4531" style="stroke:#A80036;stroke-width:1.0;"/><line style="stroke:#A80036;stroke-width:1.0;" x1="337" x2="964" y1="515.4531" y2="515.4531"/><text fill="#000000" font-family="sans-serif" font-size="13" lengthAdjust="spacing" textLength="155" x="344" y="510.3872">&lt;&lt;create&gt;&gt; Teleport(s)</text><rect fill="#FEFECE" filter="url(#f1sheulk0wwjgn)" height="30.2969" style="stroke:#A80036;stroke-width:1.5;" width="106" x="970" y="494.3203"/><text fill="#000000" font-family="sans-serif" font-size="14" lengthAdjust="spacing" textLength="92" x="977" y="514.3154">t1 : Teleport</text><polygon fill="#A80036" points="182,556.75,172,560.75,182,564.75,178,560.75" style="stroke:#A80036;stroke-width:1.0;"/><line style="stroke:#A80036;stroke-width:1.0;" x1="176" x2="1019" y1="560.75" y2="560.75"/><text fill="#000000" font-family="sans-serif" font-size="13" lengthAdjust="spacing" textLength="119" x="188" y="555.6841">acceptTeleport(t1)</text><polygon fill="#A80036" points="1008,585.8828,1018,589.8828,1008,593.8828,1012,589.8828" style="stroke:#A80036;stroke-width:1.0;"/><line style="stroke:#A80036;stroke-width:1.0;stroke-dasharray:2.0,2.0;" x1="166" x2="1014" y1="589.8828" y2="589.8828"/><text fill="#000000" font-family="sans-serif" font-size="13" lengthAdjust="spacing" textLength="26" x="173" y="584.8169">true</text><polygon fill="#A80036" points="1218,615.0156,1228,619.0156,1218,623.0156,1222,619.0156" style="stroke:#A80036;stroke-width:1.0;"/><line style="stroke:#A80036;stroke-width:1.0;" x1="1025" x2="1224" y1="619.0156" y2="619.0156"/><text fill="#000000" font-family="sans-serif" font-size="13" lengthAdjust="spacing" textLength="176" x="1032" y="613.9497">&lt;&lt;create&gt;&gt; Teleport(s, t1)</text><rect fill="#FEFECE" filter="url(#f1sheulk0wwjgn)" height="30.2969" style="stroke:#A80036;stroke-width:1.5;" width="105" x="1230" y="597.8828"/><text fill="#000000" font-family="sans-serif" font-size="14" lengthAdjust="spacing" textLength="91" x="1237" y="617.8779">t2 : Teleport</text><polygon fill="#A80036" points="182,660.3125,172,664.3125,182,668.3125,178,664.3125" style="stroke:#A80036;stroke-width:1.0;"/><line style="stroke:#A80036;stroke-width:1.0;" x1="176" x2="1278.5" y1="664.3125" y2="664.3125"/><text fill="#000000" font-family="sans-serif" font-size="13" lengthAdjust="spacing" textLength="119" x="188" y="659.2466">acceptTeleport(t2)</text><polygon fill="#A80036" points="1272.5,689.4453,1282.5,693.4453,1272.5,697.4453,1276.5,693.4453" style="stroke:#A80036;stroke-width:1.0;"/><line style="stroke:#A80036;stroke-width:1.0;stroke-dasharray:2.0,2.0;" x1="166" x2="1278.5" y1="693.4453" y2="693.4453"/><text fill="#000000" font-family="sans-serif" font-size="13" lengthAdjust="spacing" textLength="26" x="173" y="688.3794">true</text><polygon fill="#A80036" points="177,732.5781,167,736.5781,177,740.5781,173,736.5781" style="stroke:#A80036;stroke-width:1.0;"/><line style="stroke:#A80036;stroke-width:1.0;stroke-dasharray:2.0,2.0;" x1="171" x2="331" y1="736.5781" y2="736.5781"/><text fill="#000000" font-family="sans-serif" font-size="13" lengthAdjust="spacing" textLength="137" x="183" y="731.5122">craftingSuccessOrFail</text><polygon fill="#A80036" points="11,761.7109,1,765.7109,11,769.7109,7,765.7109" style="stroke:#A80036;stroke-width:1.0;"/><line style="stroke:#A80036;stroke-width:1.0;stroke-dasharray:2.0,2.0;" x1="5" x2="160" y1="765.7109" y2="765.7109"/><text fill="#000000" font-family="sans-serif" font-size="13" lengthAdjust="spacing" textLength="137" x="17" y="760.645">craftingSuccessOrFail</text><!--MD5=[ee687fd44ec90b7725b9ceca15623b9a]
@startuml
participant "s : Settler" as s
participant "rcp : TeleportRecipe" as rcp
participant "m : Material" as m
participant "inv : Inventory" as inv
participant "telResReg: TeleportResourceRegistry" as resReg
participant "t1 : Teleport" as t1
participant "t2 : Teleport" as t2

[->s ++: craft(rcp)

s->rcp ++:craft(s)
    rcp->s ++:hasTeleport()
    return hasTeleport
    
    opt !hasTeleport
    
    rcp->resReg **: <<create>> TeleportResourceRegistry()
    rcp->s ++: getInventory()
    return inv
    
    rcp->resReg ++:register(inv)
    return
    rcp->resReg ++:isSuccessful()
    return haveEnoughMaterials
    
    opt haveEnoughMaterials == true
    
    loop for used material m in inv
        rcp ->inv ++:removeMaterial(m)
        return
    end
    
        rcp->t1 **:<<create>> Teleport(s)
        activate t1
            t1->s ++:acceptTeleport(t1)
            return true
            t1->t2 **:<<create>> Teleport(s, t1)
        deactivate t1
            activate t2
                t2->s ++:acceptTeleport(t2)
                return true
            deactivate t2
        
    end
    
    end
return craftingSuccessOrFail

return craftingSuccessOrFail
@enduml

PlantUML version 1.2021.4beta2(Unknown compile time)
(GPL source distribution)
Java Runtime: Java(TM) SE Runtime Environment
JVM: Java HotSpot(TM) 64-Bit Server VM
Default Encoding: UTF-8
Language: en
Country: US
--></g></svg>