<?xml version="1.0" encoding="UTF-8" standalone="no"?><svg xmlns="http://www.w3.org/2000/svg" xmlns:xlink="http://www.w3.org/1999/xlink" contentScriptType="application/ecmascript" contentStyleType="text/css" height="836px" preserveAspectRatio="none" style="width:1194px;height:836px;" version="1.1" viewBox="0 0 1194 836" width="1194px" zoomAndPan="magnify"><defs><filter height="300%" id="fv99l39omwqfb" width="300%" x="-1" y="-1"><feGaussianBlur result="blurOut" stdDeviation="2.0"/><feColorMatrix in="blurOut" result="blurOut2" type="matrix" values="0 0 0 0 0 0 0 0 0 0 0 0 0 0 0 0 0 0 .4 0"/><feOffset dx="4.0" dy="4.0" in="blurOut2" result="blurOut3"/><feBlend in="SourceGraphic" in2="blurOut3" mode="normal"/></filter></defs><g><rect fill="#FFFFFF" filter="url(#fv99l39omwqfb)" height="696.7891" style="stroke:#A80036;stroke-width:1.0;" width="10" x="86" y="71.4297"/><rect fill="#FFFFFF" filter="url(#fv99l39omwqfb)" height="29.1328" style="stroke:#A80036;stroke-width:1.0;" width="10" x="91" y="174.9922"/><rect fill="#FFFFFF" filter="url(#fv99l39omwqfb)" height="29.1328" style="stroke:#A80036;stroke-width:1.0;" width="10" x="91" y="476.1875"/><rect fill="#FFFFFF" filter="url(#fv99l39omwqfb)" height="638.5234" style="stroke:#A80036;stroke-width:1.0;" width="10" x="215.5" y="100.5625"/><rect fill="#FFFFFF" filter="url(#fv99l39omwqfb)" height="14" style="stroke:#A80036;stroke-width:1.0;" width="10" x="361" y="412.0547"/><rect fill="#FFFFFF" filter="url(#fv99l39omwqfb)" height="14" style="stroke:#A80036;stroke-width:1.0;" width="10" x="594.5" y="579.75"/><rect fill="#FFFFFF" filter="url(#fv99l39omwqfb)" height="14" style="stroke:#A80036;stroke-width:1.0;" width="10" x="801" y="233.2578"/><rect fill="#FFFFFF" filter="url(#fv99l39omwqfb)" height="29.1328" style="stroke:#A80036;stroke-width:1.0;" width="10" x="801" y="276.3906"/><rect fill="#FFFFFF" filter="url(#fv99l39omwqfb)" height="88.2656" style="stroke:#A80036;stroke-width:1.0;" width="10" x="801" y="358.7891"/><rect fill="#FFFFFF" filter="url(#fv99l39omwqfb)" height="92.4297" style="stroke:#A80036;stroke-width:1.0;" width="10" x="998.5" y="544.4531"/><rect fill="#FFFFFF" filter="url(#fv99l39omwqfb)" height="14" style="stroke:#A80036;stroke-width:1.0;" width="10" x="1130.5" y="622.8828"/><rect fill="#FFFFFF" filter="url(#fv99l39omwqfb)" height="455.6953" style="stroke:#000000;stroke-width:2.0;" width="1177" x="3" y="320.5234"/><rect fill="#FFFFFF" filter="url(#fv99l39omwqfb)" height="60.2656" style="stroke:#000000;stroke-width:2.0;" width="667" x="295.5" y="373.7891"/><rect fill="#FFFFFF" height="73.0703" style="stroke:none;stroke-width:1.0;" width="1177" x="3" y="703.1484"/><line style="stroke:#A80036;stroke-width:1.0;stroke-dasharray:5.0,5.0;" x1="90.5" x2="90.5" y1="40.2969" y2="793.2188"/><line style="stroke:#A80036;stroke-width:1.0;stroke-dasharray:5.0,5.0;" x1="220.5" x2="220.5" y1="40.2969" y2="793.2188"/><line style="stroke:#A80036;stroke-width:1.0;stroke-dasharray:5.0,5.0;" x1="365.5" x2="365.5" y1="40.2969" y2="793.2188"/><line style="stroke:#A80036;stroke-width:1.0;stroke-dasharray:5.0,5.0;" x1="487.5" x2="487.5" y1="40.2969" y2="793.2188"/><line style="stroke:#A80036;stroke-width:1.0;stroke-dasharray:5.0,5.0;" x1="599.5" x2="599.5" y1="40.2969" y2="793.2188"/><line style="stroke:#A80036;stroke-width:1.0;stroke-dasharray:5.0,5.0;" x1="805.5" x2="805.5" y1="141.2109" y2="793.2188"/><line style="stroke:#A80036;stroke-width:1.0;stroke-dasharray:5.0,5.0;" x1="1003.5" x2="1003.5" y1="545.9688" y2="793.2188"/><line style="stroke:#A80036;stroke-width:1.0;stroke-dasharray:5.0,5.0;" x1="1135" x2="1135" y1="40.2969" y2="793.2188"/><rect fill="#FEFECE" filter="url(#fv99l39omwqfb)" height="30.2969" style="stroke:#A80036;stroke-width:1.5;" width="85" x="46.5" y="5"/><text fill="#000000" font-family="sans-serif" font-size="14" lengthAdjust="spacing" textLength="71" x="53.5" y="24.9951">s : Settler</text><rect fill="#FEFECE" filter="url(#fv99l39omwqfb)" height="30.2969" style="stroke:#A80036;stroke-width:1.5;" width="85" x="46.5" y="792.2188"/><text fill="#000000" font-family="sans-serif" font-size="14" lengthAdjust="spacing" textLength="71" x="53.5" y="812.2139">s : Settler</text><rect fill="#FEFECE" filter="url(#fv99l39omwqfb)" height="30.2969" style="stroke:#A80036;stroke-width:1.5;" width="146" x="145.5" y="5"/><text fill="#000000" font-family="sans-serif" font-size="14" lengthAdjust="spacing" textLength="132" x="152.5" y="24.9951">rcp : RobotRecipe</text><rect fill="#FEFECE" filter="url(#fv99l39omwqfb)" height="30.2969" style="stroke:#A80036;stroke-width:1.5;" width="146" x="145.5" y="792.2188"/><text fill="#000000" font-family="sans-serif" font-size="14" lengthAdjust="spacing" textLength="132" x="152.5" y="812.2139">rcp : RobotRecipe</text><rect fill="#FEFECE" filter="url(#fv99l39omwqfb)" height="30.2969" style="stroke:#A80036;stroke-width:1.5;" width="117" x="305.5" y="5"/><text fill="#000000" font-family="sans-serif" font-size="14" lengthAdjust="spacing" textLength="103" x="312.5" y="24.9951">inv : Inventory</text><rect fill="#FEFECE" filter="url(#fv99l39omwqfb)" height="30.2969" style="stroke:#A80036;stroke-width:1.5;" width="117" x="305.5" y="792.2188"/><text fill="#000000" font-family="sans-serif" font-size="14" lengthAdjust="spacing" textLength="103" x="312.5" y="812.2139">inv : Inventory</text><rect fill="#FEFECE" filter="url(#fv99l39omwqfb)" height="30.2969" style="stroke:#A80036;stroke-width:1.5;" width="99" x="436.5" y="5"/><text fill="#000000" font-family="sans-serif" font-size="14" lengthAdjust="spacing" textLength="85" x="443.5" y="24.9951">m : Material</text><rect fill="#FEFECE" filter="url(#fv99l39omwqfb)" height="30.2969" style="stroke:#A80036;stroke-width:1.5;" width="99" x="436.5" y="792.2188"/><text fill="#000000" font-family="sans-serif" font-size="14" lengthAdjust="spacing" textLength="85" x="443.5" y="812.2139">m : Material</text><rect fill="#FEFECE" filter="url(#fv99l39omwqfb)" height="30.2969" style="stroke:#A80036;stroke-width:1.5;" width="96" x="549.5" y="5"/><text fill="#000000" font-family="sans-serif" font-size="14" lengthAdjust="spacing" textLength="82" x="556.5" y="24.9951">a : Asteroid</text><rect fill="#FEFECE" filter="url(#fv99l39omwqfb)" height="30.2969" style="stroke:#A80036;stroke-width:1.5;" width="96" x="549.5" y="792.2188"/><text fill="#000000" font-family="sans-serif" font-size="14" lengthAdjust="spacing" textLength="82" x="556.5" y="812.2139">a : Asteroid</text><rect fill="#FEFECE" filter="url(#fv99l39omwqfb)" height="30.2969" style="stroke:#A80036;stroke-width:1.5;" width="289" x="659.5" y="792.2188"/><text fill="#000000" font-family="sans-serif" font-size="14" lengthAdjust="spacing" textLength="275" x="666.5" y="812.2139">robotResReg: RobotResourceRegistry</text><rect fill="#FEFECE" filter="url(#fv99l39omwqfb)" height="30.2969" style="stroke:#A80036;stroke-width:1.5;" width="78" x="962.5" y="792.2188"/><text fill="#000000" font-family="sans-serif" font-size="14" lengthAdjust="spacing" textLength="64" x="969.5" y="812.2139">r : Robot</text><rect fill="#FEFECE" filter="url(#fv99l39omwqfb)" height="30.2969" style="stroke:#A80036;stroke-width:1.5;" width="65" x="1101" y="5"/><text fill="#000000" font-family="sans-serif" font-size="14" lengthAdjust="spacing" textLength="51" x="1108" y="24.9951">: Game</text><rect fill="#FEFECE" filter="url(#fv99l39omwqfb)" height="30.2969" style="stroke:#A80036;stroke-width:1.5;" width="65" x="1101" y="792.2188"/><text fill="#000000" font-family="sans-serif" font-size="14" lengthAdjust="spacing" textLength="51" x="1108" y="812.2139">: Game</text><rect fill="#FFFFFF" filter="url(#fv99l39omwqfb)" height="696.7891" style="stroke:#A80036;stroke-width:1.0;" width="10" x="86" y="71.4297"/><rect fill="#FFFFFF" filter="url(#fv99l39omwqfb)" height="29.1328" style="stroke:#A80036;stroke-width:1.0;" width="10" x="91" y="174.9922"/><rect fill="#FFFFFF" filter="url(#fv99l39omwqfb)" height="29.1328" style="stroke:#A80036;stroke-width:1.0;" width="10" x="91" y="476.1875"/><rect fill="#FFFFFF" filter="url(#fv99l39omwqfb)" height="638.5234" style="stroke:#A80036;stroke-width:1.0;" width="10" x="215.5" y="100.5625"/><rect fill="#FFFFFF" filter="url(#fv99l39omwqfb)" height="14" style="stroke:#A80036;stroke-width:1.0;" width="10" x="361" y="412.0547"/><rect fill="#FFFFFF" filter="url(#fv99l39omwqfb)" height="14" style="stroke:#A80036;stroke-width:1.0;" width="10" x="594.5" y="579.75"/><rect fill="#FFFFFF" filter="url(#fv99l39omwqfb)" height="14" style="stroke:#A80036;stroke-width:1.0;" width="10" x="801" y="233.2578"/><rect fill="#FFFFFF" filter="url(#fv99l39omwqfb)" height="29.1328" style="stroke:#A80036;stroke-width:1.0;" width="10" x="801" y="276.3906"/><rect fill="#FFFFFF" filter="url(#fv99l39omwqfb)" height="88.2656" style="stroke:#A80036;stroke-width:1.0;" width="10" x="801" y="358.7891"/><rect fill="#FFFFFF" filter="url(#fv99l39omwqfb)" height="92.4297" style="stroke:#A80036;stroke-width:1.0;" width="10" x="998.5" y="544.4531"/><rect fill="#FFFFFF" filter="url(#fv99l39omwqfb)" height="14" style="stroke:#A80036;stroke-width:1.0;" width="10" x="1130.5" y="622.8828"/><polygon fill="#A80036" points="74,67.4297,84,71.4297,74,75.4297,78,71.4297" style="stroke:#A80036;stroke-width:1.0;"/><line style="stroke:#A80036;stroke-width:1.0;" x1="0" x2="80" y1="71.4297" y2="71.4297"/><text fill="#000000" font-family="sans-serif" font-size="13" lengthAdjust="spacing" textLength="60" x="7" y="66.3638">craft(rcp)</text><polygon fill="#A80036" points="203.5,96.5625,213.5,100.5625,203.5,104.5625,207.5,100.5625" style="stroke:#A80036;stroke-width:1.0;"/><line style="stroke:#A80036;stroke-width:1.0;" x1="96" x2="209.5" y1="100.5625" y2="100.5625"/><text fill="#000000" font-family="sans-serif" font-size="13" lengthAdjust="spacing" textLength="47" x="103" y="95.4966">craft(s)</text><polygon fill="#A80036" points="647.5,125.6953,657.5,129.6953,647.5,133.6953,651.5,129.6953" style="stroke:#A80036;stroke-width:1.0;"/><line style="stroke:#A80036;stroke-width:1.0;" x1="225.5" x2="653.5" y1="129.6953" y2="129.6953"/><text fill="#000000" font-family="sans-serif" font-size="13" lengthAdjust="spacing" textLength="246" x="232.5" y="124.6294">&lt;&lt;create&gt;&gt; RobotResourceRegistry()</text><rect fill="#FEFECE" filter="url(#fv99l39omwqfb)" height="30.2969" style="stroke:#A80036;stroke-width:1.5;" width="289" x="659.5" y="108.5625"/><text fill="#000000" font-family="sans-serif" font-size="14" lengthAdjust="spacing" textLength="275" x="666.5" y="128.5576">robotResReg: RobotResourceRegistry</text><polygon fill="#A80036" points="112,170.9922,102,174.9922,112,178.9922,108,174.9922" style="stroke:#A80036;stroke-width:1.0;"/><line style="stroke:#A80036;stroke-width:1.0;" x1="106" x2="214.5" y1="174.9922" y2="174.9922"/><text fill="#000000" font-family="sans-serif" font-size="13" lengthAdjust="spacing" textLength="92" x="118" y="169.9263">getInventory()</text><polygon fill="#A80036" points="203.5,200.125,213.5,204.125,203.5,208.125,207.5,204.125" style="stroke:#A80036;stroke-width:1.0;"/><line style="stroke:#A80036;stroke-width:1.0;stroke-dasharray:2.0,2.0;" x1="96" x2="209.5" y1="204.125" y2="204.125"/><text fill="#000000" font-family="sans-serif" font-size="13" lengthAdjust="spacing" textLength="19" x="103" y="199.0591">inv</text><polygon fill="#A80036" points="789,229.2578,799,233.2578,789,237.2578,793,233.2578" style="stroke:#A80036;stroke-width:1.0;"/><line style="stroke:#A80036;stroke-width:1.0;" x1="225.5" x2="795" y1="233.2578" y2="233.2578"/><text fill="#000000" font-family="sans-serif" font-size="13" lengthAdjust="spacing" textLength="62" x="232.5" y="228.1919">register(i)</text><polygon fill="#A80036" points="236.5,243.2578,226.5,247.2578,236.5,251.2578,232.5,247.2578" style="stroke:#A80036;stroke-width:1.0;"/><line style="stroke:#A80036;stroke-width:1.0;stroke-dasharray:2.0,2.0;" x1="230.5" x2="805" y1="247.2578" y2="247.2578"/><polygon fill="#A80036" points="789,272.3906,799,276.3906,789,280.3906,793,276.3906" style="stroke:#A80036;stroke-width:1.0;"/><line style="stroke:#A80036;stroke-width:1.0;" x1="225.5" x2="795" y1="276.3906" y2="276.3906"/><text fill="#000000" font-family="sans-serif" font-size="13" lengthAdjust="spacing" textLength="81" x="232.5" y="271.3247">isSuccesful()</text><polygon fill="#A80036" points="236.5,301.5234,226.5,305.5234,236.5,309.5234,232.5,305.5234" style="stroke:#A80036;stroke-width:1.0;"/><line style="stroke:#A80036;stroke-width:1.0;stroke-dasharray:2.0,2.0;" x1="230.5" x2="805" y1="305.5234" y2="305.5234"/><text fill="#000000" font-family="sans-serif" font-size="13" lengthAdjust="spacing" textLength="137" x="242.5" y="300.4575">haveEnoughMaterials</text><path d="M3,320.5234 L69,320.5234 L69,327.5234 L59,337.5234 L3,337.5234 L3,320.5234 " fill="#EEEEEE" style="stroke:#000000;stroke-width:1.0;"/><rect fill="none" height="455.6953" style="stroke:#000000;stroke-width:2.0;" width="1177" x="3" y="320.5234"/><text fill="#000000" font-family="sans-serif" font-size="13" font-weight="bold" lengthAdjust="spacing" textLength="21" x="18" y="333.5903">alt</text><text fill="#000000" font-family="sans-serif" font-size="11" font-weight="bold" lengthAdjust="spacing" textLength="207" x="84" y="332.7339">[haveEnoughMaterials == true]</text><polygon fill="#A80036" points="789,354.7891,799,358.7891,789,362.7891,793,358.7891" style="stroke:#A80036;stroke-width:1.0;"/><line style="stroke:#A80036;stroke-width:1.0;" x1="225.5" x2="795" y1="358.7891" y2="358.7891"/><text fill="#000000" font-family="sans-serif" font-size="13" lengthAdjust="spacing" textLength="193" x="232.5" y="353.7231">removeRequiredMaterials(inv)</text><path d="M295.5,373.7891 L373.5,373.7891 L373.5,380.7891 L363.5,390.7891 L295.5,390.7891 L295.5,373.7891 " fill="#EEEEEE" style="stroke:#000000;stroke-width:1.0;"/><rect fill="none" height="60.2656" style="stroke:#000000;stroke-width:2.0;" width="667" x="295.5" y="373.7891"/><text fill="#000000" font-family="sans-serif" font-size="13" font-weight="bold" lengthAdjust="spacing" textLength="33" x="310.5" y="386.856">loop</text><text fill="#000000" font-family="sans-serif" font-size="11" font-weight="bold" lengthAdjust="spacing" textLength="143" x="388.5" y="385.9995">[for used Material m]</text><polygon fill="#A80036" points="382,408.0547,372,412.0547,382,416.0547,378,412.0547" style="stroke:#A80036;stroke-width:1.0;"/><line style="stroke:#A80036;stroke-width:1.0;" x1="376" x2="800" y1="412.0547" y2="412.0547"/><text fill="#000000" font-family="sans-serif" font-size="13" lengthAdjust="spacing" textLength="123" x="388" y="406.9888">removeMaterial(m)</text><polygon fill="#A80036" points="789,422.0547,799,426.0547,789,430.0547,793,426.0547" style="stroke:#A80036;stroke-width:1.0;"/><line style="stroke:#A80036;stroke-width:1.0;stroke-dasharray:2.0,2.0;" x1="366" x2="795" y1="426.0547" y2="426.0547"/><polygon fill="#A80036" points="236.5,443.0547,226.5,447.0547,236.5,451.0547,232.5,447.0547" style="stroke:#A80036;stroke-width:1.0;"/><line style="stroke:#A80036;stroke-width:1.0;stroke-dasharray:2.0,2.0;" x1="230.5" x2="805" y1="447.0547" y2="447.0547"/><polygon fill="#A80036" points="112,472.1875,102,476.1875,112,480.1875,108,476.1875" style="stroke:#A80036;stroke-width:1.0;"/><line style="stroke:#A80036;stroke-width:1.0;" x1="106" x2="214.5" y1="476.1875" y2="476.1875"/><text fill="#000000" font-family="sans-serif" font-size="13" lengthAdjust="spacing" textLength="84" x="118" y="471.1216">getAsteroid()</text><polygon fill="#A80036" points="203.5,501.3203,213.5,505.3203,203.5,509.3203,207.5,505.3203" style="stroke:#A80036;stroke-width:1.0;"/><line style="stroke:#A80036;stroke-width:1.0;stroke-dasharray:2.0,2.0;" x1="96" x2="209.5" y1="505.3203" y2="505.3203"/><text fill="#000000" font-family="sans-serif" font-size="13" lengthAdjust="spacing" textLength="8" x="103" y="500.2544">a</text><polygon fill="#A80036" points="950.5,530.4531,960.5,534.4531,950.5,538.4531,954.5,534.4531" style="stroke:#A80036;stroke-width:1.0;"/><line style="stroke:#A80036;stroke-width:1.0;" x1="225.5" x2="956.5" y1="534.4531" y2="534.4531"/><text fill="#000000" font-family="sans-serif" font-size="13" lengthAdjust="spacing" textLength="141" x="232.5" y="529.3872">&lt;&lt;create&gt;&gt; Robot(a)</text><rect fill="#FEFECE" filter="url(#fv99l39omwqfb)" height="30.2969" style="stroke:#A80036;stroke-width:1.5;" width="78" x="962.5" y="513.3203"/><text fill="#000000" font-family="sans-serif" font-size="14" lengthAdjust="spacing" textLength="64" x="969.5" y="533.3154">r : Robot</text><polygon fill="#A80036" points="615.5,575.75,605.5,579.75,615.5,583.75,611.5,579.75" style="stroke:#A80036;stroke-width:1.0;"/><line style="stroke:#A80036;stroke-width:1.0;" x1="609.5" x2="997.5" y1="579.75" y2="579.75"/><text fill="#000000" font-family="sans-serif" font-size="13" lengthAdjust="spacing" textLength="108" x="621.5" y="574.6841">AcceptWorker(a)</text><polygon fill="#A80036" points="986.5,589.75,996.5,593.75,986.5,597.75,990.5,593.75" style="stroke:#A80036;stroke-width:1.0;"/><line style="stroke:#A80036;stroke-width:1.0;stroke-dasharray:2.0,2.0;" x1="599.5" x2="992.5" y1="593.75" y2="593.75"/><polygon fill="#A80036" points="1118.5,618.8828,1128.5,622.8828,1118.5,626.8828,1122.5,622.8828" style="stroke:#A80036;stroke-width:1.0;"/><line style="stroke:#A80036;stroke-width:1.0;" x1="1008.5" x2="1124.5" y1="622.8828" y2="622.8828"/><text fill="#000000" font-family="sans-serif" font-size="13" lengthAdjust="spacing" textLength="103" x="1015.5" y="617.8169">addSteppable(r)</text><polygon fill="#A80036" points="1014.5,632.8828,1004.5,636.8828,1014.5,640.8828,1010.5,636.8828" style="stroke:#A80036;stroke-width:1.0;"/><line style="stroke:#A80036;stroke-width:1.0;stroke-dasharray:2.0,2.0;" x1="1008.5" x2="1134.5" y1="636.8828" y2="636.8828"/><polygon fill="#A80036" points="107,662.0156,97,666.0156,107,670.0156,103,666.0156" style="stroke:#A80036;stroke-width:1.0;"/><line style="stroke:#A80036;stroke-width:1.0;stroke-dasharray:2.0,2.0;" x1="101" x2="214.5" y1="666.0156" y2="666.0156"/><text fill="#000000" font-family="sans-serif" font-size="13" lengthAdjust="spacing" textLength="26" x="113" y="660.9497">true</text><polygon fill="#A80036" points="11,691.1484,1,695.1484,11,699.1484,7,695.1484" style="stroke:#A80036;stroke-width:1.0;"/><line style="stroke:#A80036;stroke-width:1.0;stroke-dasharray:2.0,2.0;" x1="5" x2="85" y1="695.1484" y2="695.1484"/><text fill="#000000" font-family="sans-serif" font-size="13" lengthAdjust="spacing" textLength="26" x="17" y="690.0825">true</text><line style="stroke:#000000;stroke-width:1.0;stroke-dasharray:2.0,2.0;" x1="3" x2="1180" y1="704.1484" y2="704.1484"/><text fill="#000000" font-family="sans-serif" font-size="11" font-weight="bold" lengthAdjust="spacing" textLength="37" x="8" y="714.3589">[else]</text><polygon fill="#A80036" points="107,735.0859,97,739.0859,107,743.0859,103,739.0859" style="stroke:#A80036;stroke-width:1.0;"/><line style="stroke:#A80036;stroke-width:1.0;stroke-dasharray:2.0,2.0;" x1="101" x2="219.5" y1="739.0859" y2="739.0859"/><text fill="#000000" font-family="sans-serif" font-size="13" lengthAdjust="spacing" textLength="31" x="113" y="734.02">false</text><polygon fill="#A80036" points="11,764.2188,1,768.2188,11,772.2188,7,768.2188" style="stroke:#A80036;stroke-width:1.0;"/><line style="stroke:#A80036;stroke-width:1.0;stroke-dasharray:2.0,2.0;" x1="5" x2="90" y1="768.2188" y2="768.2188"/><text fill="#000000" font-family="sans-serif" font-size="13" lengthAdjust="spacing" textLength="31" x="17" y="763.1528">false</text><!--MD5=[5fd8b1ddfd6960fa9ce1c563cc875b6c]
@startuml
participant "s : Settler" as s
participant "rcp : RobotRecipe" as rcp
participant "inv : Inventory" as inv
participant "m : Material" as m
participant "a : Asteroid" as a
participant "robotResReg: RobotResourceRegistry" as resReg
participant "r : Robot" as r
participant ": Game" as game

[->s ++: craft(rcp)

s->rcp ++:craft(s)
    rcp->resReg **: <<create>> RobotResourceRegistry()

    rcp->s ++: getInventory()
    return inv
    
    rcp->resReg ++: register(i)
    return
    
    rcp->resReg ++: isSuccesful()
    return haveEnoughMaterials
    
    
    alt haveEnoughMaterials == true
        
        
        rcp->resReg ++: removeRequiredMaterials(inv)
            loop for used Material m
                resReg-> inv++: removeMaterial(m)
                return
            end
        return
    
    
        rcp->s ++: getAsteroid()
        return a
        
        rcp->r **:<<create>> Robot(a)
        activate r
            r->a ++: AcceptWorker(a)
            return
            r->game ++: addSteppable(r)
            return
        deactivate r
        
        rcp- ->s: true
        s- ->[: true
    else else
        rcp- ->s - -: false
        s- ->[ - -: false
    end
@enduml

PlantUML version 1.2021.4beta2(Unknown compile time)
(GPL source distribution)
Java Runtime: Java(TM) SE Runtime Environment
JVM: Java HotSpot(TM) 64-Bit Server VM
Default Encoding: UTF-8
Language: en
Country: US
--></g></svg>