<?xml version="1.0" encoding="UTF-8" standalone="no"?><svg xmlns="http://www.w3.org/2000/svg" xmlns:xlink="http://www.w3.org/1999/xlink" contentScriptType="application/ecmascript" contentStyleType="text/css" height="220px" preserveAspectRatio="none" style="width:274px;height:220px;" version="1.1" viewBox="0 0 274 220" width="274px" zoomAndPan="magnify"><defs><filter height="300%" id="f1v33losghnjfp" width="300%" x="-1" y="-1"><feGaussianBlur result="blurOut" stdDeviation="2.0"/><feColorMatrix in="blurOut" result="blurOut2" type="matrix" values="0 0 0 0 0 0 0 0 0 0 0 0 0 0 0 0 0 0 .4 0"/><feOffset dx="4.0" dy="4.0" in="blurOut2" result="blurOut3"/><feBlend in="SourceGraphic" in2="blurOut3" mode="normal"/></filter></defs><g><rect fill="#FFFFFF" filter="url(#f1v33losghnjfp)" height="88.2656" style="stroke:#A80036;stroke-width:1.0;" width="10" x="66" y="71.4297"/><rect fill="#FFFFFF" filter="url(#f1v33losghnjfp)" height="14" style="stroke:#A80036;stroke-width:1.0;" width="10" x="165.5" y="124.6953"/><rect fill="#FFFFFF" filter="url(#f1v33losghnjfp)" height="60.2656" style="stroke:#000000;stroke-width:2.0;" width="234" x="26.5" y="86.4297"/><line style="stroke:#A80036;stroke-width:1.0;stroke-dasharray:5.0,5.0;" x1="70.5" x2="70.5" y1="40.2969" y2="177.6953"/><line style="stroke:#A80036;stroke-width:1.0;stroke-dasharray:5.0,5.0;" x1="170.5" x2="170.5" y1="40.2969" y2="177.6953"/><rect fill="#FEFECE" filter="url(#f1v33losghnjfp)" height="30.2969" style="stroke:#A80036;stroke-width:1.5;" width="65" x="36.5" y="5"/><text fill="#000000" font-family="sans-serif" font-size="14" lengthAdjust="spacing" textLength="51" x="43.5" y="24.9951">: Game</text><rect fill="#FEFECE" filter="url(#f1v33losghnjfp)" height="30.2969" style="stroke:#A80036;stroke-width:1.5;" width="65" x="36.5" y="176.6953"/><text fill="#000000" font-family="sans-serif" font-size="14" lengthAdjust="spacing" textLength="51" x="43.5" y="196.6904">: Game</text><rect fill="#FEFECE" filter="url(#f1v33losghnjfp)" height="30.2969" style="stroke:#A80036;stroke-width:1.5;" width="106" x="115.5" y="5"/><text fill="#000000" font-family="sans-serif" font-size="14" lengthAdjust="spacing" textLength="92" x="122.5" y="24.9951">s: Steppable</text><rect fill="#FEFECE" filter="url(#f1v33losghnjfp)" height="30.2969" style="stroke:#A80036;stroke-width:1.5;" width="106" x="115.5" y="176.6953"/><text fill="#000000" font-family="sans-serif" font-size="14" lengthAdjust="spacing" textLength="92" x="122.5" y="196.6904">s: Steppable</text><rect fill="#FFFFFF" filter="url(#f1v33losghnjfp)" height="88.2656" style="stroke:#A80036;stroke-width:1.0;" width="10" x="66" y="71.4297"/><rect fill="#FFFFFF" filter="url(#f1v33losghnjfp)" height="14" style="stroke:#A80036;stroke-width:1.0;" width="10" x="165.5" y="124.6953"/><polygon fill="#A80036" points="54,67.4297,64,71.4297,54,75.4297,58,71.4297" style="stroke:#A80036;stroke-width:1.0;"/><line style="stroke:#A80036;stroke-width:1.0;" x1="0" x2="60" y1="71.4297" y2="71.4297"/><text fill="#000000" font-family="sans-serif" font-size="13" lengthAdjust="spacing" textLength="47" x="7" y="66.3638">round()</text><path d="M26.5,86.4297 L104.5,86.4297 L104.5,93.4297 L94.5,103.4297 L26.5,103.4297 L26.5,86.4297 " fill="#EEEEEE" style="stroke:#000000;stroke-width:1.0;"/><rect fill="none" height="60.2656" style="stroke:#000000;stroke-width:2.0;" width="234" x="26.5" y="86.4297"/><text fill="#000000" font-family="sans-serif" font-size="13" font-weight="bold" lengthAdjust="spacing" textLength="33" x="41.5" y="99.4966">loop</text><text fill="#000000" font-family="sans-serif" font-size="11" font-weight="bold" lengthAdjust="spacing" textLength="136" x="119.5" y="98.6401">[for s in steppables]</text><polygon fill="#A80036" points="153.5,120.6953,163.5,124.6953,153.5,128.6953,157.5,124.6953" style="stroke:#A80036;stroke-width:1.0;"/><line style="stroke:#A80036;stroke-width:1.0;" x1="76" x2="159.5" y1="124.6953" y2="124.6953"/><text fill="#000000" font-family="sans-serif" font-size="13" lengthAdjust="spacing" textLength="38" x="83" y="119.6294">step()</text><polygon fill="#A80036" points="87,134.6953,77,138.6953,87,142.6953,83,138.6953" style="stroke:#A80036;stroke-width:1.0;"/><line style="stroke:#A80036;stroke-width:1.0;stroke-dasharray:2.0,2.0;" x1="81" x2="169.5" y1="138.6953" y2="138.6953"/><polygon fill="#A80036" points="11,155.6953,1,159.6953,11,163.6953,7,159.6953" style="stroke:#A80036;stroke-width:1.0;"/><line style="stroke:#A80036;stroke-width:1.0;stroke-dasharray:2.0,2.0;" x1="5" x2="70" y1="159.6953" y2="159.6953"/><!--MD5=[c2995e7715c5b4e7c375b1078cc0f516]
@startuml
participant ": Game" as g
participant "s: Steppable" as s

[->g ++:round()
loop for s in steppables
		g->s ++: step()
		return
end
[<- -g - -
@enduml

PlantUML version 1.2021.2beta13(Unknown compile time)
(GPL source distribution)
Java Runtime: Java(TM) SE Runtime Environment
JVM: Java HotSpot(TM) 64-Bit Server VM
Default Encoding: UTF-8
Language: en
Country: US
--></g></svg>