<?xml version="1.0" encoding="UTF-8" standalone="no"?><svg xmlns="http://www.w3.org/2000/svg" xmlns:xlink="http://www.w3.org/1999/xlink" contentScriptType="application/ecmascript" contentStyleType="text/css" height="189px" preserveAspectRatio="none" style="width:241px;height:189px;" version="1.1" viewBox="0 0 241 189" width="241px" zoomAndPan="magnify"><defs><filter height="300%" id="f169ja9azjx175" width="300%" x="-1" y="-1"><feGaussianBlur result="blurOut" stdDeviation="2.0"/><feColorMatrix in="blurOut" result="blurOut2" type="matrix" values="0 0 0 0 0 0 0 0 0 0 0 0 0 0 0 0 0 0 .4 0"/><feOffset dx="4.0" dy="4.0" in="blurOut2" result="blurOut3"/><feBlend in="SourceGraphic" in2="blurOut3" mode="normal"/></filter></defs><g><rect fill="#FFFFFF" filter="url(#f169ja9azjx175)" height="14" style="stroke:#A80036;stroke-width:1.0;" width="10" x="55" y="100.5625"/><rect fill="#FFFFFF" filter="url(#f169ja9azjx175)" height="57.1328" style="stroke:#A80036;stroke-width:1.0;" width="10" x="194" y="71.4297"/><line style="stroke:#A80036;stroke-width:1.0;stroke-dasharray:5.0,5.0;" x1="60" x2="60" y1="40.2969" y2="146.5625"/><line style="stroke:#A80036;stroke-width:1.0;stroke-dasharray:5.0,5.0;" x1="199" x2="199" y1="40.2969" y2="146.5625"/><rect fill="#FEFECE" filter="url(#f169ja9azjx175)" height="30.2969" style="stroke:#A80036;stroke-width:1.5;" width="96" x="10" y="5"/><text fill="#000000" font-family="sans-serif" font-size="14" lengthAdjust="spacing" textLength="82" x="17" y="24.9951">a : Asteroid</text><rect fill="#FEFECE" filter="url(#f169ja9azjx175)" height="30.2969" style="stroke:#A80036;stroke-width:1.5;" width="96" x="10" y="145.5625"/><text fill="#000000" font-family="sans-serif" font-size="14" lengthAdjust="spacing" textLength="82" x="17" y="165.5576">a : Asteroid</text><rect fill="#FEFECE" filter="url(#f169ja9azjx175)" height="30.2969" style="stroke:#A80036;stroke-width:1.5;" width="60" x="167" y="5"/><text fill="#000000" font-family="sans-serif" font-size="14" lengthAdjust="spacing" textLength="46" x="174" y="24.9951">ic : Ice</text><rect fill="#FEFECE" filter="url(#f169ja9azjx175)" height="30.2969" style="stroke:#A80036;stroke-width:1.5;" width="60" x="167" y="145.5625"/><text fill="#000000" font-family="sans-serif" font-size="14" lengthAdjust="spacing" textLength="46" x="174" y="165.5576">ic : Ice</text><rect fill="#FFFFFF" filter="url(#f169ja9azjx175)" height="14" style="stroke:#A80036;stroke-width:1.0;" width="10" x="55" y="100.5625"/><rect fill="#FFFFFF" filter="url(#f169ja9azjx175)" height="57.1328" style="stroke:#A80036;stroke-width:1.0;" width="10" x="194" y="71.4297"/><polygon fill="#A80036" points="182,67.4297,192,71.4297,182,75.4297,186,71.4297" style="stroke:#A80036;stroke-width:1.0;"/><line style="stroke:#A80036;stroke-width:1.0;" x1="60" x2="188" y1="71.4297" y2="71.4297"/><text fill="#000000" font-family="sans-serif" font-size="13" lengthAdjust="spacing" textLength="73" x="67" y="66.3638">exposed(a)</text><polygon fill="#A80036" points="76,96.5625,66,100.5625,76,104.5625,72,100.5625" style="stroke:#A80036;stroke-width:1.0;"/><line style="stroke:#A80036;stroke-width:1.0;" x1="70" x2="193" y1="100.5625" y2="100.5625"/><text fill="#000000" font-family="sans-serif" font-size="13" lengthAdjust="spacing" textLength="110" x="82" y="95.4966">removeMaterial()</text><polygon fill="#A80036" points="182,110.5625,192,114.5625,182,118.5625,186,114.5625" style="stroke:#A80036;stroke-width:1.0;"/><line style="stroke:#A80036;stroke-width:1.0;stroke-dasharray:2.0,2.0;" x1="60" x2="188" y1="114.5625" y2="114.5625"/><polygon fill="#A80036" points="71,124.5625,61,128.5625,71,132.5625,67,128.5625" style="stroke:#A80036;stroke-width:1.0;"/><line style="stroke:#A80036;stroke-width:1.0;stroke-dasharray:2.0,2.0;" x1="65" x2="198" y1="128.5625" y2="128.5625"/><line style="stroke:#A80036;stroke-width:2.0;" x1="190" x2="208" y1="119.5625" y2="137.5625"/><line style="stroke:#A80036;stroke-width:2.0;" x1="190" x2="208" y1="137.5625" y2="119.5625"/><!--MD5=[f47350243a6d9c5795e2bee11b0dacc0]
@startuml
participant "a : Asteroid" as a
participant "ic : Ice" as ic

a->ic: exposed(a)
activate ic

    ic->a: removeMaterial()
    activate a
    a- ->ic
    deactivate a
    
ic- ->a
destroy ic
@enduml

PlantUML version 1.2021.3beta6(Unknown compile time)
(GPL source distribution)
Java Runtime: Java(TM) SE Runtime Environment
JVM: Java HotSpot(TM) 64-Bit Server VM
Default Encoding: UTF-8
Language: en
Country: US
--></g></svg>