<?xml version="1.0" encoding="UTF-8" standalone="no"?><svg xmlns="http://www.w3.org/2000/svg" xmlns:xlink="http://www.w3.org/1999/xlink" contentScriptType="application/ecmascript" contentStyleType="text/css" height="308px" preserveAspectRatio="none" style="width:426px;height:308px;" version="1.1" viewBox="0 0 426 308" width="426px" zoomAndPan="magnify"><defs><filter height="300%" id="fj48v05qm2pg7" width="300%" x="-1" y="-1"><feGaussianBlur result="blurOut" stdDeviation="2.0"/><feColorMatrix in="blurOut" result="blurOut2" type="matrix" values="0 0 0 0 0 0 0 0 0 0 0 0 0 0 0 0 0 0 .4 0"/><feOffset dx="4.0" dy="4.0" in="blurOut2" result="blurOut3"/><feBlend in="SourceGraphic" in2="blurOut3" mode="normal"/></filter></defs><g><rect fill="#FFFFFF" filter="url(#fj48v05qm2pg7)" height="175.6641" style="stroke:#A80036;stroke-width:1.0;" width="10" x="123" y="71.4297"/><rect fill="#FFFFFF" filter="url(#fj48v05qm2pg7)" height="57.1328" style="stroke:#A80036;stroke-width:1.0;" width="10" x="224" y="124.6953"/><rect fill="#FFFFFF" filter="url(#fj48v05qm2pg7)" height="14" style="stroke:#A80036;stroke-width:1.0;" width="10" x="349" y="153.8281"/><rect fill="#FFFFFF" filter="url(#fj48v05qm2pg7)" height="132.5313" style="stroke:#000000;stroke-width:2.0;" width="409" x="3" y="86.4297"/><line style="stroke:#A80036;stroke-width:1.0;stroke-dasharray:5.0,5.0;" x1="127.5" x2="127.5" y1="40.2969" y2="265.0938"/><line style="stroke:#A80036;stroke-width:1.0;stroke-dasharray:5.0,5.0;" x1="228.5" x2="228.5" y1="40.2969" y2="265.0938"/><line style="stroke:#A80036;stroke-width:1.0;stroke-dasharray:5.0,5.0;" x1="354" x2="354" y1="40.2969" y2="265.0938"/><rect fill="#FEFECE" filter="url(#fj48v05qm2pg7)" height="30.2969" style="stroke:#A80036;stroke-width:1.5;" width="81" x="85.5" y="5"/><text fill="#000000" font-family="sans-serif" font-size="14" lengthAdjust="spacing" textLength="67" x="92.5" y="24.9951">s: Settler</text><rect fill="#FEFECE" filter="url(#fj48v05qm2pg7)" height="30.2969" style="stroke:#A80036;stroke-width:1.5;" width="81" x="85.5" y="264.0938"/><text fill="#000000" font-family="sans-serif" font-size="14" lengthAdjust="spacing" textLength="67" x="92.5" y="284.0889">s: Settler</text><rect fill="#FEFECE" filter="url(#fj48v05qm2pg7)" height="30.2969" style="stroke:#A80036;stroke-width:1.5;" width="93" x="180.5" y="5"/><text fill="#000000" font-family="sans-serif" font-size="14" lengthAdjust="spacing" textLength="79" x="187.5" y="24.9951">t: Teleport</text><rect fill="#FEFECE" filter="url(#fj48v05qm2pg7)" height="30.2969" style="stroke:#A80036;stroke-width:1.5;" width="93" x="180.5" y="264.0938"/><text fill="#000000" font-family="sans-serif" font-size="14" lengthAdjust="spacing" textLength="79" x="187.5" y="284.0889">t: Teleport</text><rect fill="#FEFECE" filter="url(#fj48v05qm2pg7)" height="30.2969" style="stroke:#A80036;stroke-width:1.5;" width="92" x="306" y="5"/><text fill="#000000" font-family="sans-serif" font-size="14" lengthAdjust="spacing" textLength="78" x="313" y="24.9951">a: Asteroid</text><rect fill="#FEFECE" filter="url(#fj48v05qm2pg7)" height="30.2969" style="stroke:#A80036;stroke-width:1.5;" width="92" x="306" y="264.0938"/><text fill="#000000" font-family="sans-serif" font-size="14" lengthAdjust="spacing" textLength="78" x="313" y="284.0889">a: Asteroid</text><rect fill="#FFFFFF" filter="url(#fj48v05qm2pg7)" height="175.6641" style="stroke:#A80036;stroke-width:1.0;" width="10" x="123" y="71.4297"/><rect fill="#FFFFFF" filter="url(#fj48v05qm2pg7)" height="57.1328" style="stroke:#A80036;stroke-width:1.0;" width="10" x="224" y="124.6953"/><rect fill="#FFFFFF" filter="url(#fj48v05qm2pg7)" height="14" style="stroke:#A80036;stroke-width:1.0;" width="10" x="349" y="153.8281"/><polygon fill="#A80036" points="111,67.4297,121,71.4297,111,75.4297,115,71.4297" style="stroke:#A80036;stroke-width:1.0;"/><line style="stroke:#A80036;stroke-width:1.0;" x1="0" x2="117" y1="71.4297" y2="71.4297"/><text fill="#000000" font-family="sans-serif" font-size="13" lengthAdjust="spacing" textLength="97" x="7" y="66.3638">placeTeleport()</text><path d="M3,86.4297 L75,86.4297 L75,93.4297 L65,103.4297 L3,103.4297 L3,86.4297 " fill="#EEEEEE" style="stroke:#000000;stroke-width:1.0;"/><rect fill="none" height="132.5313" style="stroke:#000000;stroke-width:2.0;" width="409" x="3" y="86.4297"/><text fill="#000000" font-family="sans-serif" font-size="13" font-weight="bold" lengthAdjust="spacing" textLength="27" x="18" y="99.4966">opt</text><text fill="#000000" font-family="sans-serif" font-size="11" font-weight="bold" lengthAdjust="spacing" textLength="174" x="90" y="98.6401">[has at least 1 teleport t]</text><polygon fill="#A80036" points="212,120.6953,222,124.6953,212,128.6953,216,124.6953" style="stroke:#A80036;stroke-width:1.0;"/><line style="stroke:#A80036;stroke-width:1.0;" x1="133" x2="218" y1="124.6953" y2="124.6953"/><text fill="#000000" font-family="sans-serif" font-size="13" lengthAdjust="spacing" textLength="52" x="140" y="119.6294">place(a)</text><polygon fill="#A80036" points="337,149.8281,347,153.8281,337,157.8281,341,153.8281" style="stroke:#A80036;stroke-width:1.0;"/><line style="stroke:#A80036;stroke-width:1.0;" x1="234" x2="343" y1="153.8281" y2="153.8281"/><text fill="#000000" font-family="sans-serif" font-size="13" lengthAdjust="spacing" textLength="96" x="241" y="148.7622">addNeighbor(t)</text><polygon fill="#A80036" points="245,163.8281,235,167.8281,245,171.8281,241,167.8281" style="stroke:#A80036;stroke-width:1.0;"/><line style="stroke:#A80036;stroke-width:1.0;stroke-dasharray:2.0,2.0;" x1="239" x2="353" y1="167.8281" y2="167.8281"/><polygon fill="#A80036" points="144,177.8281,134,181.8281,144,185.8281,140,181.8281" style="stroke:#A80036;stroke-width:1.0;"/><line style="stroke:#A80036;stroke-width:1.0;stroke-dasharray:2.0,2.0;" x1="138" x2="228" y1="181.8281" y2="181.8281"/><polygon fill="#A80036" points="11,206.9609,1,210.9609,11,214.9609,7,210.9609" style="stroke:#A80036;stroke-width:1.0;"/><line style="stroke:#A80036;stroke-width:1.0;stroke-dasharray:2.0,2.0;" x1="5" x2="122" y1="210.9609" y2="210.9609"/><text fill="#000000" font-family="sans-serif" font-size="13" lengthAdjust="spacing" textLength="26" x="17" y="205.895">true</text><polygon fill="#A80036" points="11,243.0938,1,247.0938,11,251.0938,7,247.0938" style="stroke:#A80036;stroke-width:1.0;"/><line style="stroke:#A80036;stroke-width:1.0;stroke-dasharray:2.0,2.0;" x1="5" x2="127" y1="247.0938" y2="247.0938"/><text fill="#000000" font-family="sans-serif" font-size="13" lengthAdjust="spacing" textLength="31" x="17" y="242.0278">false</text><!--MD5=[5782eee86a5693e48bbc58334f4b2faf]
@startuml
participant "s: Settler" as s
participant "t: Teleport" as t
participant "a: Asteroid" as a

[->s ++:placeTeleport()

    opt has at least 1 teleport t
        s->t++: place(a)
            t->a ++: addNeighbor(t)
            return
    
    return
    s- ->[ :true
    end
    s- ->[ - -: false
@enduml

PlantUML version 1.2021.2beta13(Unknown compile time)
(GPL source distribution)
Java Runtime: Java(TM) SE Runtime Environment
JVM: Java HotSpot(TM) 64-Bit Server VM
Default Encoding: UTF-8
Language: en
Country: US
--></g></svg>