<?xml version="1.0" encoding="UTF-8" standalone="no"?><svg xmlns="http://www.w3.org/2000/svg" xmlns:xlink="http://www.w3.org/1999/xlink" contentScriptType="application/ecmascript" contentStyleType="text/css" height="389px" preserveAspectRatio="none" style="width:369px;height:389px;" version="1.1" viewBox="0 0 369 389" width="369px" zoomAndPan="magnify"><defs><filter height="300%" id="f1wtyn2uflu781" width="300%" x="-1" y="-1"><feGaussianBlur result="blurOut" stdDeviation="2.0"/><feColorMatrix in="blurOut" result="blurOut2" type="matrix" values="0 0 0 0 0 0 0 0 0 0 0 0 0 0 0 0 0 0 .4 0"/><feOffset dx="4.0" dy="4.0" in="blurOut2" result="blurOut3"/><feBlend in="SourceGraphic" in2="blurOut3" mode="normal"/></filter></defs><g><rect fill="#FFFFFF" filter="url(#f1wtyn2uflu781)" height="29.1328" style="stroke:#A80036;stroke-width:1.0;" width="10" x="52.5" y="100.5625"/><rect fill="#FFFFFF" filter="url(#f1wtyn2uflu781)" height="256.4688" style="stroke:#A80036;stroke-width:1.0;" width="10" x="176.5" y="71.4297"/><rect fill="#FFFFFF" filter="url(#f1wtyn2uflu781)" height="25" style="stroke:#A80036;stroke-width:1.0;" width="10" x="181.5" y="190.9609"/><rect fill="#FFFFFF" filter="url(#f1wtyn2uflu781)" height="25" style="stroke:#A80036;stroke-width:1.0;" width="10" x="181.5" y="274.8984"/><rect fill="#FFFFFF" filter="url(#f1wtyn2uflu781)" height="170.2031" style="stroke:#000000;stroke-width:2.0;" width="223" x="132.5" y="144.6953"/><rect fill="#FFFFFF" height="83.9375" style="stroke:none;stroke-width:1.0;" width="223" x="132.5" y="230.9609"/><line style="stroke:#A80036;stroke-width:1.0;stroke-dasharray:5.0,5.0;" x1="57" x2="57" y1="40.2969" y2="345.8984"/><line style="stroke:#A80036;stroke-width:1.0;stroke-dasharray:5.0,5.0;" x1="181.5" x2="181.5" y1="40.2969" y2="345.8984"/><line style="stroke:#A80036;stroke-width:1.0;stroke-dasharray:5.0,5.0;" x1="290.5" x2="290.5" y1="40.2969" y2="345.8984"/><rect fill="#FEFECE" filter="url(#f1wtyn2uflu781)" height="30.2969" style="stroke:#A80036;stroke-width:1.5;" width="101" x="5" y="5"/><text fill="#000000" font-family="sans-serif" font-size="14" lengthAdjust="spacing" textLength="87" x="12" y="24.9951">a1: Asteroid</text><rect fill="#FEFECE" filter="url(#f1wtyn2uflu781)" height="30.2969" style="stroke:#A80036;stroke-width:1.5;" width="101" x="5" y="344.8984"/><text fill="#000000" font-family="sans-serif" font-size="14" lengthAdjust="spacing" textLength="87" x="12" y="364.8936">a1: Asteroid</text><rect fill="#FEFECE" filter="url(#f1wtyn2uflu781)" height="30.2969" style="stroke:#A80036;stroke-width:1.5;" width="74" x="142.5" y="5"/><text fill="#000000" font-family="sans-serif" font-size="14" lengthAdjust="spacing" textLength="60" x="149.5" y="24.9951">r: Robot</text><rect fill="#FEFECE" filter="url(#f1wtyn2uflu781)" height="30.2969" style="stroke:#A80036;stroke-width:1.5;" width="74" x="142.5" y="344.8984"/><text fill="#000000" font-family="sans-serif" font-size="14" lengthAdjust="spacing" textLength="60" x="149.5" y="364.8936">r: Robot</text><rect fill="#FEFECE" filter="url(#f1wtyn2uflu781)" height="30.2969" style="stroke:#A80036;stroke-width:1.5;" width="116" x="230.5" y="5"/><text fill="#000000" font-family="sans-serif" font-size="14" lengthAdjust="spacing" textLength="102" x="237.5" y="24.9951">t: Transporter</text><rect fill="#FEFECE" filter="url(#f1wtyn2uflu781)" height="30.2969" style="stroke:#A80036;stroke-width:1.5;" width="116" x="230.5" y="344.8984"/><text fill="#000000" font-family="sans-serif" font-size="14" lengthAdjust="spacing" textLength="102" x="237.5" y="364.8936">t: Transporter</text><rect fill="#FFFFFF" filter="url(#f1wtyn2uflu781)" height="29.1328" style="stroke:#A80036;stroke-width:1.0;" width="10" x="52.5" y="100.5625"/><rect fill="#FFFFFF" filter="url(#f1wtyn2uflu781)" height="256.4688" style="stroke:#A80036;stroke-width:1.0;" width="10" x="176.5" y="71.4297"/><rect fill="#FFFFFF" filter="url(#f1wtyn2uflu781)" height="25" style="stroke:#A80036;stroke-width:1.0;" width="10" x="181.5" y="190.9609"/><rect fill="#FFFFFF" filter="url(#f1wtyn2uflu781)" height="25" style="stroke:#A80036;stroke-width:1.0;" width="10" x="181.5" y="274.8984"/><polygon fill="#A80036" points="164.5,67.4297,174.5,71.4297,164.5,75.4297,168.5,71.4297" style="stroke:#A80036;stroke-width:1.0;"/><line style="stroke:#A80036;stroke-width:1.0;" x1="57.5" x2="170.5" y1="71.4297" y2="71.4297"/><text fill="#000000" font-family="sans-serif" font-size="13" lengthAdjust="spacing" textLength="61" x="64.5" y="66.3638">explode()</text><polygon fill="#A80036" points="73.5,96.5625,63.5,100.5625,73.5,104.5625,69.5,100.5625" style="stroke:#A80036;stroke-width:1.0;"/><line style="stroke:#A80036;stroke-width:1.0;" x1="67.5" x2="175.5" y1="100.5625" y2="100.5625"/><text fill="#000000" font-family="sans-serif" font-size="13" lengthAdjust="spacing" textLength="95" x="79.5" y="95.4966">getNeighbors()</text><polygon fill="#A80036" points="164.5,125.6953,174.5,129.6953,164.5,133.6953,168.5,129.6953" style="stroke:#A80036;stroke-width:1.0;"/><line style="stroke:#A80036;stroke-width:1.0;stroke-dasharray:2.0,2.0;" x1="57.5" x2="170.5" y1="129.6953" y2="129.6953"/><text fill="#000000" font-family="sans-serif" font-size="13" lengthAdjust="spacing" textLength="63" x="64.5" y="124.6294">neighbors</text><path d="M132.5,144.6953 L198.5,144.6953 L198.5,151.6953 L188.5,161.6953 L132.5,161.6953 L132.5,144.6953 " fill="#EEEEEE" style="stroke:#000000;stroke-width:1.0;"/><rect fill="none" height="170.2031" style="stroke:#000000;stroke-width:2.0;" width="223" x="132.5" y="144.6953"/><text fill="#000000" font-family="sans-serif" font-size="13" font-weight="bold" lengthAdjust="spacing" textLength="21" x="147.5" y="157.7622">alt</text><text fill="#000000" font-family="sans-serif" font-size="11" font-weight="bold" lengthAdjust="spacing" textLength="137" x="213.5" y="156.9058">[neighbors is empty]</text><line style="stroke:#A80036;stroke-width:1.0;" x1="186.5" x2="233.5" y1="177.9609" y2="177.9609"/><line style="stroke:#A80036;stroke-width:1.0;" x1="233.5" x2="233.5" y1="177.9609" y2="190.9609"/><line style="stroke:#A80036;stroke-width:1.0;" x1="192.5" x2="233.5" y1="190.9609" y2="190.9609"/><polygon fill="#A80036" points="202.5,186.9609,192.5,190.9609,202.5,194.9609,198.5,190.9609" style="stroke:#A80036;stroke-width:1.0;"/><text fill="#000000" font-family="sans-serif" font-size="13" lengthAdjust="spacing" textLength="29" x="198.5" y="172.895">die()</text><line style="stroke:#A80036;stroke-width:1.0;stroke-dasharray:2.0,2.0;" x1="191.5" x2="233.5" y1="214.9609" y2="214.9609"/><line style="stroke:#A80036;stroke-width:1.0;stroke-dasharray:2.0,2.0;" x1="233.5" x2="233.5" y1="214.9609" y2="227.9609"/><line style="stroke:#A80036;stroke-width:1.0;stroke-dasharray:2.0,2.0;" x1="186.5" x2="233.5" y1="227.9609" y2="227.9609"/><polygon fill="#A80036" points="196.5,223.9609,186.5,227.9609,196.5,231.9609,192.5,227.9609" style="stroke:#A80036;stroke-width:1.0;"/><line style="stroke:#000000;stroke-width:1.0;stroke-dasharray:2.0,2.0;" x1="132.5" x2="355.5" y1="231.9609" y2="231.9609"/><text fill="#000000" font-family="sans-serif" font-size="11" font-weight="bold" lengthAdjust="spacing" textLength="37" x="137.5" y="242.1714">[else]</text><line style="stroke:#A80036;stroke-width:1.0;" x1="186.5" x2="233.5" y1="261.8984" y2="261.8984"/><line style="stroke:#A80036;stroke-width:1.0;" x1="233.5" x2="233.5" y1="261.8984" y2="274.8984"/><line style="stroke:#A80036;stroke-width:1.0;" x1="192.5" x2="233.5" y1="274.8984" y2="274.8984"/><polygon fill="#A80036" points="202.5,270.8984,192.5,274.8984,202.5,278.8984,198.5,274.8984" style="stroke:#A80036;stroke-width:1.0;"/><text fill="#000000" font-family="sans-serif" font-size="13" lengthAdjust="spacing" textLength="52" x="198.5" y="256.8325">move(t)</text><line style="stroke:#A80036;stroke-width:1.0;stroke-dasharray:2.0,2.0;" x1="191.5" x2="233.5" y1="298.8984" y2="298.8984"/><line style="stroke:#A80036;stroke-width:1.0;stroke-dasharray:2.0,2.0;" x1="233.5" x2="233.5" y1="298.8984" y2="311.8984"/><line style="stroke:#A80036;stroke-width:1.0;stroke-dasharray:2.0,2.0;" x1="186.5" x2="233.5" y1="311.8984" y2="311.8984"/><polygon fill="#A80036" points="196.5,307.8984,186.5,311.8984,196.5,315.8984,192.5,311.8984" style="stroke:#A80036;stroke-width:1.0;"/><polygon fill="#A80036" points="68.5,323.8984,58.5,327.8984,68.5,331.8984,64.5,327.8984" style="stroke:#A80036;stroke-width:1.0;"/><line style="stroke:#A80036;stroke-width:1.0;stroke-dasharray:2.0,2.0;" x1="62.5" x2="180.5" y1="327.8984" y2="327.8984"/><!--MD5=[222a9d7209ef3d4ab9a6bfb99bfe94aa]
@startuml
participant "a1: Asteroid" as a1
participant "r: Robot" as r
participant "t: Transporter" as t

a1->r:explode()
activate r
    r->a1:getNeighbors()
    activate a1
    a1- ->r: neighbors
    deactivate a1
    
    alt neighbors is empty
        r->r ++: die()
        return
    else else
    
    r->r ++:move(t)
    return
    end
r- ->a1
deactivate r
@enduml

PlantUML version 1.2021.2beta14(Unknown compile time)
(GPL source distribution)
Java Runtime: Java(TM) SE Runtime Environment
JVM: Java HotSpot(TM) 64-Bit Server VM
Default Encoding: UTF-8
Language: en
Country: US
--></g></svg>