<?xml version="1.0" encoding="UTF-8" standalone="no"?><svg xmlns="http://www.w3.org/2000/svg" xmlns:xlink="http://www.w3.org/1999/xlink" contentScriptType="application/ecmascript" contentStyleType="text/css" height="637px" preserveAspectRatio="none" style="width:678px;height:637px;" version="1.1" viewBox="0 0 678 637" width="678px" zoomAndPan="magnify"><defs><filter height="300%" id="fkuv800ni53nd" width="300%" x="-1" y="-1"><feGaussianBlur result="blurOut" stdDeviation="2.0"/><feColorMatrix in="blurOut" result="blurOut2" type="matrix" values="0 0 0 0 0 0 0 0 0 0 0 0 0 0 0 0 0 0 .4 0"/><feOffset dx="4.0" dy="4.0" in="blurOut2" result="blurOut3"/><feBlend in="SourceGraphic" in2="blurOut3" mode="normal"/></filter></defs><g><rect fill="#FFFFFF" filter="url(#fkuv800ni53nd)" height="504.7266" style="stroke:#A80036;stroke-width:1.0;" width="10" x="61" y="71.4297"/><rect fill="#FFFFFF" filter="url(#fkuv800ni53nd)" height="113.3984" style="stroke:#A80036;stroke-width:1.0;" width="10" x="197.5" y="153.8281"/><rect fill="#FFFFFF" filter="url(#fkuv800ni53nd)" height="40.1328" style="stroke:#A80036;stroke-width:1.0;" width="10" x="202.5" y="190.9609"/><rect fill="#FFFFFF" filter="url(#fkuv800ni53nd)" height="461.5938" style="stroke:#A80036;stroke-width:1.0;" width="10" x="357.5" y="100.5625"/><rect fill="#FFFFFF" filter="url(#fkuv800ni53nd)" height="25" style="stroke:#A80036;stroke-width:1.0;" width="10" x="362.5" y="328.4922"/><rect fill="#FFFFFF" filter="url(#fkuv800ni53nd)" height="40.1328" style="stroke:#A80036;stroke-width:1.0;" width="10" x="362.5" y="397.625"/><rect fill="#FFFFFF" filter="url(#fkuv800ni53nd)" height="14" style="stroke:#A80036;stroke-width:1.0;" width="10" x="594.5" y="498.0234"/><rect fill="#FFFFFF" filter="url(#fkuv800ni53nd)" height="418.4609" style="stroke:#000000;stroke-width:2.0;" width="555.5" x="108.5" y="115.5625"/><rect fill="#FFFFFF" filter="url(#fkuv800ni53nd)" height="244.7969" style="stroke:#000000;stroke-width:2.0;" width="359.5" x="294.5" y="282.2266"/><rect fill="#FFFFFF" filter="url(#fkuv800ni53nd)" height="60.2656" style="stroke:#000000;stroke-width:2.0;" width="339.5" x="304.5" y="459.7578"/><line style="stroke:#A80036;stroke-width:1.0;stroke-dasharray:5.0,5.0;" x1="65.5" x2="65.5" y1="40.2969" y2="594.1563"/><line style="stroke:#A80036;stroke-width:1.0;stroke-dasharray:5.0,5.0;" x1="202.5" x2="202.5" y1="40.2969" y2="594.1563"/><line style="stroke:#A80036;stroke-width:1.0;stroke-dasharray:5.0,5.0;" x1="362.5" x2="362.5" y1="40.2969" y2="594.1563"/><line style="stroke:#A80036;stroke-width:1.0;stroke-dasharray:5.0,5.0;" x1="496" x2="496" y1="40.2969" y2="594.1563"/><line style="stroke:#A80036;stroke-width:1.0;stroke-dasharray:5.0,5.0;" x1="599" x2="599" y1="40.2969" y2="594.1563"/><rect fill="#FEFECE" filter="url(#fkuv800ni53nd)" height="30.2969" style="stroke:#A80036;stroke-width:1.5;" width="81" x="23.5" y="5"/><text fill="#000000" font-family="sans-serif" font-size="14" lengthAdjust="spacing" textLength="67" x="30.5" y="24.9951">s: Settler</text><rect fill="#FEFECE" filter="url(#fkuv800ni53nd)" height="30.2969" style="stroke:#A80036;stroke-width:1.5;" width="81" x="23.5" y="593.1563"/><text fill="#000000" font-family="sans-serif" font-size="14" lengthAdjust="spacing" textLength="67" x="30.5" y="613.1514">s: Settler</text><rect fill="#FEFECE" filter="url(#fkuv800ni53nd)" height="30.2969" style="stroke:#A80036;stroke-width:1.5;" width="164" x="118.5" y="5"/><text fill="#000000" font-family="sans-serif" font-size="14" lengthAdjust="spacing" textLength="150" x="125.5" y="24.9951">inv: SettlerInventory</text><rect fill="#FEFECE" filter="url(#fkuv800ni53nd)" height="30.2969" style="stroke:#A80036;stroke-width:1.5;" width="164" x="118.5" y="593.1563"/><text fill="#000000" font-family="sans-serif" font-size="14" lengthAdjust="spacing" textLength="150" x="125.5" y="613.1514">inv: SettlerInventory</text><rect fill="#FEFECE" filter="url(#fkuv800ni53nd)" height="30.2969" style="stroke:#A80036;stroke-width:1.5;" width="92" x="314.5" y="5"/><text fill="#000000" font-family="sans-serif" font-size="14" lengthAdjust="spacing" textLength="78" x="321.5" y="24.9951">a: Asteroid</text><rect fill="#FEFECE" filter="url(#fkuv800ni53nd)" height="30.2969" style="stroke:#A80036;stroke-width:1.5;" width="92" x="314.5" y="593.1563"/><text fill="#000000" font-family="sans-serif" font-size="14" lengthAdjust="spacing" textLength="78" x="321.5" y="613.1514">a: Asteroid</text><rect fill="#FEFECE" filter="url(#fkuv800ni53nd)" height="30.2969" style="stroke:#A80036;stroke-width:1.5;" width="113" x="438" y="5"/><text fill="#000000" font-family="sans-serif" font-size="14" lengthAdjust="spacing" textLength="99" x="445" y="24.9951">core: Material</text><rect fill="#FEFECE" filter="url(#fkuv800ni53nd)" height="30.2969" style="stroke:#A80036;stroke-width:1.5;" width="113" x="438" y="593.1563"/><text fill="#000000" font-family="sans-serif" font-size="14" lengthAdjust="spacing" textLength="99" x="445" y="613.1514">core: Material</text><rect fill="#FEFECE" filter="url(#fkuv800ni53nd)" height="30.2969" style="stroke:#A80036;stroke-width:1.5;" width="65" x="565" y="5"/><text fill="#000000" font-family="sans-serif" font-size="14" lengthAdjust="spacing" textLength="51" x="572" y="24.9951">: Game</text><rect fill="#FEFECE" filter="url(#fkuv800ni53nd)" height="30.2969" style="stroke:#A80036;stroke-width:1.5;" width="65" x="565" y="593.1563"/><text fill="#000000" font-family="sans-serif" font-size="14" lengthAdjust="spacing" textLength="51" x="572" y="613.1514">: Game</text><rect fill="#FFFFFF" filter="url(#fkuv800ni53nd)" height="504.7266" style="stroke:#A80036;stroke-width:1.0;" width="10" x="61" y="71.4297"/><rect fill="#FFFFFF" filter="url(#fkuv800ni53nd)" height="113.3984" style="stroke:#A80036;stroke-width:1.0;" width="10" x="197.5" y="153.8281"/><rect fill="#FFFFFF" filter="url(#fkuv800ni53nd)" height="40.1328" style="stroke:#A80036;stroke-width:1.0;" width="10" x="202.5" y="190.9609"/><rect fill="#FFFFFF" filter="url(#fkuv800ni53nd)" height="461.5938" style="stroke:#A80036;stroke-width:1.0;" width="10" x="357.5" y="100.5625"/><rect fill="#FFFFFF" filter="url(#fkuv800ni53nd)" height="25" style="stroke:#A80036;stroke-width:1.0;" width="10" x="362.5" y="328.4922"/><rect fill="#FFFFFF" filter="url(#fkuv800ni53nd)" height="40.1328" style="stroke:#A80036;stroke-width:1.0;" width="10" x="362.5" y="397.625"/><rect fill="#FFFFFF" filter="url(#fkuv800ni53nd)" height="14" style="stroke:#A80036;stroke-width:1.0;" width="10" x="594.5" y="498.0234"/><polygon fill="#A80036" points="49,67.4297,59,71.4297,49,75.4297,53,71.4297" style="stroke:#A80036;stroke-width:1.0;"/><line style="stroke:#A80036;stroke-width:1.0;" x1="0" x2="55" y1="71.4297" y2="71.4297"/><text fill="#000000" font-family="sans-serif" font-size="13" lengthAdjust="spacing" textLength="42" x="7" y="66.3638">mine()</text><polygon fill="#A80036" points="345.5,96.5625,355.5,100.5625,345.5,104.5625,349.5,100.5625" style="stroke:#A80036;stroke-width:1.0;"/><line style="stroke:#A80036;stroke-width:1.0;" x1="71" x2="351.5" y1="100.5625" y2="100.5625"/><text fill="#000000" font-family="sans-serif" font-size="13" lengthAdjust="spacing" textLength="69" x="78" y="95.4966">mined(inv)</text><path d="M108.5,115.5625 L180.5,115.5625 L180.5,122.5625 L170.5,132.5625 L108.5,132.5625 L108.5,115.5625 " fill="#EEEEEE" style="stroke:#000000;stroke-width:1.0;"/><rect fill="none" height="418.4609" style="stroke:#000000;stroke-width:2.0;" width="555.5" x="108.5" y="115.5625"/><text fill="#000000" font-family="sans-serif" font-size="13" font-weight="bold" lengthAdjust="spacing" textLength="27" x="123.5" y="128.6294">opt</text><text fill="#000000" font-family="sans-serif" font-size="11" font-weight="bold" lengthAdjust="spacing" textLength="281" x="195.5" y="127.7729">[layer == layersDrilled &amp;&amp; core is not null]</text><polygon fill="#A80036" points="218.5,149.8281,208.5,153.8281,218.5,157.8281,214.5,153.8281" style="stroke:#A80036;stroke-width:1.0;"/><line style="stroke:#A80036;stroke-width:1.0;" x1="212.5" x2="356.5" y1="153.8281" y2="153.8281"/><text fill="#000000" font-family="sans-serif" font-size="13" lengthAdjust="spacing" textLength="131" x="224.5" y="148.7622">acceptMaterial(core)</text><line style="stroke:#A80036;stroke-width:1.0;" x1="207.5" x2="254.5" y1="177.9609" y2="177.9609"/><line style="stroke:#A80036;stroke-width:1.0;" x1="254.5" x2="254.5" y1="177.9609" y2="190.9609"/><line style="stroke:#A80036;stroke-width:1.0;" x1="213.5" x2="254.5" y1="190.9609" y2="190.9609"/><polygon fill="#A80036" points="223.5,186.9609,213.5,190.9609,223.5,194.9609,219.5,190.9609" style="stroke:#A80036;stroke-width:1.0;"/><text fill="#000000" font-family="sans-serif" font-size="13" lengthAdjust="spacing" textLength="41" x="219.5" y="172.895">isFull()</text><line style="stroke:#A80036;stroke-width:1.0;stroke-dasharray:2.0,2.0;" x1="212.5" x2="254.5" y1="230.0938" y2="230.0938"/><line style="stroke:#A80036;stroke-width:1.0;stroke-dasharray:2.0,2.0;" x1="254.5" x2="254.5" y1="230.0938" y2="243.0938"/><line style="stroke:#A80036;stroke-width:1.0;stroke-dasharray:2.0,2.0;" x1="207.5" x2="254.5" y1="243.0938" y2="243.0938"/><polygon fill="#A80036" points="217.5,239.0938,207.5,243.0938,217.5,247.0938,213.5,243.0938" style="stroke:#A80036;stroke-width:1.0;"/><text fill="#000000" font-family="sans-serif" font-size="13" lengthAdjust="spacing" textLength="85" x="219.5" y="225.0278">storeSuccess</text><polygon fill="#A80036" points="345.5,263.2266,355.5,267.2266,345.5,271.2266,349.5,267.2266" style="stroke:#A80036;stroke-width:1.0;"/><line style="stroke:#A80036;stroke-width:1.0;stroke-dasharray:2.0,2.0;" x1="202.5" x2="351.5" y1="267.2266" y2="267.2266"/><text fill="#000000" font-family="sans-serif" font-size="13" lengthAdjust="spacing" textLength="85" x="209.5" y="262.1606">storeSuccess</text><path d="M294.5,282.2266 L366.5,282.2266 L366.5,289.2266 L356.5,299.2266 L294.5,299.2266 L294.5,282.2266 " fill="#EEEEEE" style="stroke:#000000;stroke-width:1.0;"/><rect fill="none" height="244.7969" style="stroke:#000000;stroke-width:2.0;" width="359.5" x="294.5" y="282.2266"/><text fill="#000000" font-family="sans-serif" font-size="13" font-weight="bold" lengthAdjust="spacing" textLength="27" x="309.5" y="295.2935">opt</text><text fill="#000000" font-family="sans-serif" font-size="11" font-weight="bold" lengthAdjust="spacing" textLength="154" x="381.5" y="294.437">[storeSuccess == true]</text><line style="stroke:#A80036;stroke-width:1.0;" x1="367.5" x2="414.5" y1="315.4922" y2="315.4922"/><line style="stroke:#A80036;stroke-width:1.0;" x1="414.5" x2="414.5" y1="315.4922" y2="328.4922"/><line style="stroke:#A80036;stroke-width:1.0;" x1="373.5" x2="414.5" y1="328.4922" y2="328.4922"/><polygon fill="#A80036" points="383.5,324.4922,373.5,328.4922,383.5,332.4922,379.5,328.4922" style="stroke:#A80036;stroke-width:1.0;"/><text fill="#000000" font-family="sans-serif" font-size="13" lengthAdjust="spacing" textLength="110" x="379.5" y="310.4263">removeMaterial()</text><line style="stroke:#A80036;stroke-width:1.0;stroke-dasharray:2.0,2.0;" x1="372.5" x2="414.5" y1="352.4922" y2="352.4922"/><line style="stroke:#A80036;stroke-width:1.0;stroke-dasharray:2.0,2.0;" x1="414.5" x2="414.5" y1="352.4922" y2="365.4922"/><line style="stroke:#A80036;stroke-width:1.0;stroke-dasharray:2.0,2.0;" x1="367.5" x2="414.5" y1="365.4922" y2="365.4922"/><polygon fill="#A80036" points="377.5,361.4922,367.5,365.4922,377.5,369.4922,373.5,365.4922" style="stroke:#A80036;stroke-width:1.0;"/><line style="stroke:#A80036;stroke-width:1.0;" x1="367.5" x2="414.5" y1="384.625" y2="384.625"/><line style="stroke:#A80036;stroke-width:1.0;" x1="414.5" x2="414.5" y1="384.625" y2="397.625"/><line style="stroke:#A80036;stroke-width:1.0;" x1="373.5" x2="414.5" y1="397.625" y2="397.625"/><polygon fill="#A80036" points="383.5,393.625,373.5,397.625,383.5,401.625,379.5,397.625" style="stroke:#A80036;stroke-width:1.0;"/><text fill="#000000" font-family="sans-serif" font-size="13" lengthAdjust="spacing" textLength="102" x="379.5" y="379.5591">checkBaseWin()</text><line style="stroke:#A80036;stroke-width:1.0;stroke-dasharray:2.0,2.0;" x1="372.5" x2="414.5" y1="436.7578" y2="436.7578"/><line style="stroke:#A80036;stroke-width:1.0;stroke-dasharray:2.0,2.0;" x1="414.5" x2="414.5" y1="436.7578" y2="449.7578"/><line style="stroke:#A80036;stroke-width:1.0;stroke-dasharray:2.0,2.0;" x1="367.5" x2="414.5" y1="449.7578" y2="449.7578"/><polygon fill="#A80036" points="377.5,445.7578,367.5,449.7578,377.5,453.7578,373.5,449.7578" style="stroke:#A80036;stroke-width:1.0;"/><text fill="#000000" font-family="sans-serif" font-size="13" lengthAdjust="spacing" textLength="8" x="379.5" y="431.6919">b</text><path d="M304.5,459.7578 L376.5,459.7578 L376.5,466.7578 L366.5,476.7578 L304.5,476.7578 L304.5,459.7578 " fill="#EEEEEE" style="stroke:#000000;stroke-width:1.0;"/><rect fill="none" height="60.2656" style="stroke:#000000;stroke-width:2.0;" width="339.5" x="304.5" y="459.7578"/><text fill="#000000" font-family="sans-serif" font-size="13" font-weight="bold" lengthAdjust="spacing" textLength="27" x="319.5" y="472.8247">opt</text><text fill="#000000" font-family="sans-serif" font-size="11" font-weight="bold" lengthAdjust="spacing" textLength="18" x="391.5" y="471.9683">[b]</text><polygon fill="#A80036" points="582.5,494.0234,592.5,498.0234,582.5,502.0234,586.5,498.0234" style="stroke:#A80036;stroke-width:1.0;"/><line style="stroke:#A80036;stroke-width:1.0;" x1="367.5" x2="588.5" y1="498.0234" y2="498.0234"/><text fill="#000000" font-family="sans-serif" font-size="13" lengthAdjust="spacing" textLength="99" x="374.5" y="492.9575">endGame(true)</text><polygon fill="#A80036" points="378.5,508.0234,368.5,512.0234,378.5,516.0234,374.5,512.0234" style="stroke:#A80036;stroke-width:1.0;"/><line style="stroke:#A80036;stroke-width:1.0;stroke-dasharray:2.0,2.0;" x1="372.5" x2="598.5" y1="512.0234" y2="512.0234"/><polygon fill="#A80036" points="82,558.1563,72,562.1563,82,566.1563,78,562.1563" style="stroke:#A80036;stroke-width:1.0;"/><line style="stroke:#A80036;stroke-width:1.0;stroke-dasharray:2.0,2.0;" x1="76" x2="361.5" y1="562.1563" y2="562.1563"/><text fill="#000000" font-family="sans-serif" font-size="13" lengthAdjust="spacing" textLength="150" x="88" y="557.0903">miningSucceededOrNot</text><polygon fill="#A80036" points="11,572.1563,1,576.1563,11,580.1563,7,576.1563" style="stroke:#A80036;stroke-width:1.0;"/><line style="stroke:#A80036;stroke-width:1.0;stroke-dasharray:2.0,2.0;" x1="5" x2="65" y1="576.1563" y2="576.1563"/><!--MD5=[0261e8dc5f354ce8e08fed5b8309ad67]
@startuml
participant "s: Settler" as s
participant "inv: SettlerInventory" as inv
participant "a: Asteroid" as a
participant "core: Material" as core
participant ": Game" as g



[->s ++:mine()
    s->a ++:mined(inv)
        opt layer == layersDrilled && core is not null
            a->inv ++: acceptMaterial(core)
		        inv->inv ++: isFull()
		        return storeSuccess
            return storeSuccess
            
            opt storeSuccess == true
                a->a ++: removeMaterial()
                return
				a->a ++: checkBaseWin()
				return b
				opt b
				    a->g ++: endGame(true)
				    return
                end
        end
        end
    return miningSucceededOrNot
return
@enduml

PlantUML version 1.2021.4beta2(Unknown compile time)
(GPL source distribution)
Java Runtime: Java(TM) SE Runtime Environment
JVM: Java HotSpot(TM) 64-Bit Server VM
Default Encoding: UTF-8
Language: en
Country: US
--></g></svg>