<?xml version="1.0" encoding="UTF-8" standalone="no"?><svg xmlns="http://www.w3.org/2000/svg" xmlns:xlink="http://www.w3.org/1999/xlink" contentScriptType="application/ecmascript" contentStyleType="text/css" height="476px" preserveAspectRatio="none" style="width:604px;height:476px;" version="1.1" viewBox="0 0 604 476" width="604px" zoomAndPan="magnify"><defs><filter height="300%" id="f3of5yhhunwyz" width="300%" x="-1" y="-1"><feGaussianBlur result="blurOut" stdDeviation="2.0"/><feColorMatrix in="blurOut" result="blurOut2" type="matrix" values="0 0 0 0 0 0 0 0 0 0 0 0 0 0 0 0 0 0 .4 0"/><feOffset dx="4.0" dy="4.0" in="blurOut2" result="blurOut3"/><feBlend in="SourceGraphic" in2="blurOut3" mode="normal"/></filter></defs><g><rect fill="#FFFFFF" filter="url(#f3of5yhhunwyz)" height="14" style="stroke:#A80036;stroke-width:1.0;" width="10" x="48" y="174.8281"/><rect fill="#FFFFFF" filter="url(#f3of5yhhunwyz)" height="343.9297" style="stroke:#A80036;stroke-width:1.0;" width="10" x="190" y="71.4297"/><rect fill="#FFFFFF" filter="url(#f3of5yhhunwyz)" height="14" style="stroke:#A80036;stroke-width:1.0;" width="10" x="291" y="124.6953"/><rect fill="#FFFFFF" filter="url(#f3of5yhhunwyz)" height="183.3984" style="stroke:#A80036;stroke-width:1.0;" width="10" x="382" y="217.9609"/><rect fill="#FFFFFF" filter="url(#f3of5yhhunwyz)" height="25" style="stroke:#A80036;stroke-width:1.0;" width="10" x="387" y="255.0938"/><rect fill="#FFFFFF" filter="url(#f3of5yhhunwyz)" height="25" style="stroke:#A80036;stroke-width:1.0;" width="10" x="387" y="348.3594"/><rect fill="#FFFFFF" filter="url(#f3of5yhhunwyz)" height="60.2656" style="stroke:#000000;stroke-width:2.0;" width="339" x="142.5" y="86.4297"/><rect fill="#FFFFFF" filter="url(#f3of5yhhunwyz)" height="86.2656" style="stroke:#000000;stroke-width:2.0;" width="246" x="344.5" y="302.0938"/><line style="stroke:#A80036;stroke-width:1.0;stroke-dasharray:5.0,5.0;" x1="53" x2="53" y1="40.2969" y2="433.3594"/><line style="stroke:#A80036;stroke-width:1.0;stroke-dasharray:5.0,5.0;" x1="194.5" x2="194.5" y1="40.2969" y2="433.3594"/><line style="stroke:#A80036;stroke-width:1.0;stroke-dasharray:5.0,5.0;" x1="295.5" x2="295.5" y1="40.2969" y2="433.3594"/><line style="stroke:#A80036;stroke-width:1.0;stroke-dasharray:5.0,5.0;" x1="386.5" x2="386.5" y1="40.2969" y2="433.3594"/><rect fill="#FEFECE" filter="url(#f3of5yhhunwyz)" height="30.2969" style="stroke:#A80036;stroke-width:1.5;" width="92" x="5" y="5"/><text fill="#000000" font-family="sans-serif" font-size="14" lengthAdjust="spacing" textLength="78" x="12" y="24.9951">a: Asteroid</text><rect fill="#FEFECE" filter="url(#f3of5yhhunwyz)" height="30.2969" style="stroke:#A80036;stroke-width:1.5;" width="92" x="5" y="432.3594"/><text fill="#000000" font-family="sans-serif" font-size="14" lengthAdjust="spacing" textLength="78" x="12" y="452.3545">a: Asteroid</text><rect fill="#FEFECE" filter="url(#f3of5yhhunwyz)" height="30.2969" style="stroke:#A80036;stroke-width:1.5;" width="81" x="152.5" y="5"/><text fill="#000000" font-family="sans-serif" font-size="14" lengthAdjust="spacing" textLength="67" x="159.5" y="24.9951">s: Settler</text><rect fill="#FEFECE" filter="url(#f3of5yhhunwyz)" height="30.2969" style="stroke:#A80036;stroke-width:1.5;" width="81" x="152.5" y="432.3594"/><text fill="#000000" font-family="sans-serif" font-size="14" lengthAdjust="spacing" textLength="67" x="159.5" y="452.3545">s: Settler</text><rect fill="#FEFECE" filter="url(#f3of5yhhunwyz)" height="30.2969" style="stroke:#A80036;stroke-width:1.5;" width="93" x="247.5" y="5"/><text fill="#000000" font-family="sans-serif" font-size="14" lengthAdjust="spacing" textLength="79" x="254.5" y="24.9951">t: Teleport</text><rect fill="#FEFECE" filter="url(#f3of5yhhunwyz)" height="30.2969" style="stroke:#A80036;stroke-width:1.5;" width="93" x="247.5" y="432.3594"/><text fill="#000000" font-family="sans-serif" font-size="14" lengthAdjust="spacing" textLength="79" x="254.5" y="452.3545">t: Teleport</text><rect fill="#FEFECE" filter="url(#f3of5yhhunwyz)" height="30.2969" style="stroke:#A80036;stroke-width:1.5;" width="61" x="354.5" y="5"/><text fill="#000000" font-family="sans-serif" font-size="14" lengthAdjust="spacing" textLength="47" x="361.5" y="24.9951">:Game</text><rect fill="#FEFECE" filter="url(#f3of5yhhunwyz)" height="30.2969" style="stroke:#A80036;stroke-width:1.5;" width="61" x="354.5" y="432.3594"/><text fill="#000000" font-family="sans-serif" font-size="14" lengthAdjust="spacing" textLength="47" x="361.5" y="452.3545">:Game</text><rect fill="#FFFFFF" filter="url(#f3of5yhhunwyz)" height="14" style="stroke:#A80036;stroke-width:1.0;" width="10" x="48" y="174.8281"/><rect fill="#FFFFFF" filter="url(#f3of5yhhunwyz)" height="343.9297" style="stroke:#A80036;stroke-width:1.0;" width="10" x="190" y="71.4297"/><rect fill="#FFFFFF" filter="url(#f3of5yhhunwyz)" height="14" style="stroke:#A80036;stroke-width:1.0;" width="10" x="291" y="124.6953"/><rect fill="#FFFFFF" filter="url(#f3of5yhhunwyz)" height="183.3984" style="stroke:#A80036;stroke-width:1.0;" width="10" x="382" y="217.9609"/><rect fill="#FFFFFF" filter="url(#f3of5yhhunwyz)" height="25" style="stroke:#A80036;stroke-width:1.0;" width="10" x="387" y="255.0938"/><rect fill="#FFFFFF" filter="url(#f3of5yhhunwyz)" height="25" style="stroke:#A80036;stroke-width:1.0;" width="10" x="387" y="348.3594"/><polygon fill="#A80036" points="178,67.4297,188,71.4297,178,75.4297,182,71.4297" style="stroke:#A80036;stroke-width:1.0;"/><line style="stroke:#A80036;stroke-width:1.0;" x1="53" x2="184" y1="71.4297" y2="71.4297"/><text fill="#000000" font-family="sans-serif" font-size="13" lengthAdjust="spacing" textLength="29" x="60" y="66.3638">die()</text><path d="M142.5,86.4297 L220.5,86.4297 L220.5,93.4297 L210.5,103.4297 L142.5,103.4297 L142.5,86.4297 " fill="#EEEEEE" style="stroke:#000000;stroke-width:1.0;"/><rect fill="none" height="60.2656" style="stroke:#000000;stroke-width:2.0;" width="339" x="142.5" y="86.4297"/><text fill="#000000" font-family="sans-serif" font-size="13" font-weight="bold" lengthAdjust="spacing" textLength="33" x="157.5" y="99.4966">loop</text><text fill="#000000" font-family="sans-serif" font-size="11" font-weight="bold" lengthAdjust="spacing" textLength="241" x="235.5" y="98.6401">[while have undestroyed Teleport t]</text><polygon fill="#A80036" points="279,120.6953,289,124.6953,279,128.6953,283,124.6953" style="stroke:#A80036;stroke-width:1.0;"/><line style="stroke:#A80036;stroke-width:1.0;" x1="200" x2="285" y1="124.6953" y2="124.6953"/><text fill="#000000" font-family="sans-serif" font-size="13" lengthAdjust="spacing" textLength="59" x="207" y="119.6294">destroy()</text><polygon fill="#A80036" points="211,134.6953,201,138.6953,211,142.6953,207,138.6953" style="stroke:#A80036;stroke-width:1.0;"/><line style="stroke:#A80036;stroke-width:1.0;stroke-dasharray:2.0,2.0;" x1="205" x2="295" y1="138.6953" y2="138.6953"/><line style="stroke:#A80036;stroke-width:2.0;" x1="287" x2="305" y1="129.6953" y2="147.6953"/><line style="stroke:#A80036;stroke-width:2.0;" x1="287" x2="305" y1="147.6953" y2="129.6953"/><polygon fill="#A80036" points="69,170.8281,59,174.8281,69,178.8281,65,174.8281" style="stroke:#A80036;stroke-width:1.0;"/><line style="stroke:#A80036;stroke-width:1.0;" x1="63" x2="189" y1="174.8281" y2="174.8281"/><text fill="#000000" font-family="sans-serif" font-size="13" lengthAdjust="spacing" textLength="113" x="75" y="169.7622">removeWorker(s)</text><polygon fill="#A80036" points="178,184.8281,188,188.8281,178,192.8281,182,188.8281" style="stroke:#A80036;stroke-width:1.0;"/><line style="stroke:#A80036;stroke-width:1.0;stroke-dasharray:2.0,2.0;" x1="53" x2="184" y1="188.8281" y2="188.8281"/><polygon fill="#A80036" points="370,213.9609,380,217.9609,370,221.9609,374,217.9609" style="stroke:#A80036;stroke-width:1.0;"/><line style="stroke:#A80036;stroke-width:1.0;" x1="200" x2="376" y1="217.9609" y2="217.9609"/><text fill="#000000" font-family="sans-serif" font-size="13" lengthAdjust="spacing" textLength="109" x="207" y="212.895">removeSettler(s)</text><line style="stroke:#A80036;stroke-width:1.0;" x1="392" x2="439" y1="242.0938" y2="242.0938"/><line style="stroke:#A80036;stroke-width:1.0;" x1="439" x2="439" y1="242.0938" y2="255.0938"/><line style="stroke:#A80036;stroke-width:1.0;" x1="398" x2="439" y1="255.0938" y2="255.0938"/><polygon fill="#A80036" points="408,251.0938,398,255.0938,408,259.0938,404,255.0938" style="stroke:#A80036;stroke-width:1.0;"/><text fill="#000000" font-family="sans-serif" font-size="13" lengthAdjust="spacing" textLength="131" x="404" y="237.0278">removeSteppable(s)</text><line style="stroke:#A80036;stroke-width:1.0;stroke-dasharray:2.0,2.0;" x1="397" x2="439" y1="279.0938" y2="279.0938"/><line style="stroke:#A80036;stroke-width:1.0;stroke-dasharray:2.0,2.0;" x1="439" x2="439" y1="279.0938" y2="292.0938"/><line style="stroke:#A80036;stroke-width:1.0;stroke-dasharray:2.0,2.0;" x1="392" x2="439" y1="292.0938" y2="292.0938"/><polygon fill="#A80036" points="402,288.0938,392,292.0938,402,296.0938,398,292.0938" style="stroke:#A80036;stroke-width:1.0;"/><path d="M344.5,302.0938 L416.5,302.0938 L416.5,309.0938 L406.5,319.0938 L344.5,319.0938 L344.5,302.0938 " fill="#EEEEEE" style="stroke:#000000;stroke-width:1.0;"/><rect fill="none" height="86.2656" style="stroke:#000000;stroke-width:2.0;" width="246" x="344.5" y="302.0938"/><text fill="#000000" font-family="sans-serif" font-size="13" font-weight="bold" lengthAdjust="spacing" textLength="27" x="359.5" y="315.1606">opt</text><text fill="#000000" font-family="sans-serif" font-size="11" font-weight="bold" lengthAdjust="spacing" textLength="154" x="431.5" y="314.3042">[no more settlers left]</text><line style="stroke:#A80036;stroke-width:1.0;" x1="392" x2="439" y1="335.3594" y2="335.3594"/><line style="stroke:#A80036;stroke-width:1.0;" x1="439" x2="439" y1="335.3594" y2="348.3594"/><line style="stroke:#A80036;stroke-width:1.0;" x1="398" x2="439" y1="348.3594" y2="348.3594"/><polygon fill="#A80036" points="408,344.3594,398,348.3594,408,352.3594,404,348.3594" style="stroke:#A80036;stroke-width:1.0;"/><text fill="#000000" font-family="sans-serif" font-size="13" lengthAdjust="spacing" textLength="104" x="404" y="330.2935">endGame(false)</text><line style="stroke:#A80036;stroke-width:1.0;stroke-dasharray:2.0,2.0;" x1="397" x2="439" y1="372.3594" y2="372.3594"/><line style="stroke:#A80036;stroke-width:1.0;stroke-dasharray:2.0,2.0;" x1="439" x2="439" y1="372.3594" y2="385.3594"/><line style="stroke:#A80036;stroke-width:1.0;stroke-dasharray:2.0,2.0;" x1="392" x2="439" y1="385.3594" y2="385.3594"/><polygon fill="#A80036" points="402,381.3594,392,385.3594,402,389.3594,398,385.3594" style="stroke:#A80036;stroke-width:1.0;"/><polygon fill="#A80036" points="211,397.3594,201,401.3594,211,405.3594,207,401.3594" style="stroke:#A80036;stroke-width:1.0;"/><line style="stroke:#A80036;stroke-width:1.0;stroke-dasharray:2.0,2.0;" x1="205" x2="386" y1="401.3594" y2="401.3594"/><polygon fill="#A80036" points="64,411.3594,54,415.3594,64,419.3594,60,415.3594" style="stroke:#A80036;stroke-width:1.0;"/><line style="stroke:#A80036;stroke-width:1.0;stroke-dasharray:2.0,2.0;" x1="58" x2="194" y1="415.3594" y2="415.3594"/><line style="stroke:#A80036;stroke-width:2.0;" x1="186" x2="204" y1="406.3594" y2="424.3594"/><line style="stroke:#A80036;stroke-width:2.0;" x1="186" x2="204" y1="424.3594" y2="406.3594"/><!--MD5=[9deb91d498de13e337ad02f14a906110]
@startuml
participant "a: Asteroid" as a
participant "s: Settler" as s
participant "t: Teleport" as t
participant ":Game" as game

a->s:die()
activate s
    loop while have undestroyed Teleport t
        s->t:destroy()
        activate t
        t- ->s
        destroy t
    end
    s->a ++: removeWorker(s)
    return
    
    s->game: removeSettler(s)
    activate game
        game->game ++: removeSteppable(s)
        return
        opt no more settlers left
            game->game:endGame(false)
            activate game
            game- ->game
            deactivate game
        end
    game- ->s
    deactivate game
s- ->a
destroy s
@enduml

PlantUML version 1.2021.4beta2(Unknown compile time)
(GPL source distribution)
Java Runtime: Java(TM) SE Runtime Environment
JVM: Java HotSpot(TM) 64-Bit Server VM
Default Encoding: UTF-8
Language: en
Country: US
--></g></svg>