<?xml version="1.0" encoding="UTF-8" standalone="no"?><svg xmlns="http://www.w3.org/2000/svg" xmlns:xlink="http://www.w3.org/1999/xlink" contentScriptType="application/ecmascript" contentStyleType="text/css" height="482px" preserveAspectRatio="none" style="width:474px;height:482px;" version="1.1" viewBox="0 0 474 482" width="474px" zoomAndPan="magnify"><defs><filter height="300%" id="f1jelgf139qdqq" width="300%" x="-1" y="-1"><feGaussianBlur result="blurOut" stdDeviation="2.0"/><feColorMatrix in="blurOut" result="blurOut2" type="matrix" values="0 0 0 0 0 0 0 0 0 0 0 0 0 0 0 0 0 0 .4 0"/><feOffset dx="4.0" dy="4.0" in="blurOut2" result="blurOut3"/><feBlend in="SourceGraphic" in2="blurOut3" mode="normal"/></filter></defs><g><rect fill="#FFFFFF" filter="url(#f1jelgf139qdqq)" height="343.1328" style="stroke:#A80036;stroke-width:1.0;" width="10" x="133" y="71.4297"/><rect fill="#FFFFFF" filter="url(#f1jelgf139qdqq)" height="284.8672" style="stroke:#A80036;stroke-width:1.0;" width="10" x="278" y="100.5625"/><rect fill="#FFFFFF" filter="url(#f1jelgf139qdqq)" height="40.1328" style="stroke:#A80036;stroke-width:1.0;" width="10" x="283" y="137.6953"/><rect fill="#FFFFFF" filter="url(#f1jelgf139qdqq)" height="14" style="stroke:#A80036;stroke-width:1.0;" width="10" x="385.5" y="262.2266"/><rect fill="#FFFFFF" filter="url(#f1jelgf139qdqq)" height="222.7344" style="stroke:#000000;stroke-width:2.0;" width="457" x="3" y="199.8281"/><rect fill="#FFFFFF" filter="url(#f1jelgf139qdqq)" height="60.2656" style="stroke:#000000;stroke-width:2.0;" width="225" x="225" y="223.9609"/><rect fill="#FFFFFF" height="73.0703" style="stroke:none;stroke-width:1.0;" width="457" x="3" y="349.4922"/><line style="stroke:#A80036;stroke-width:1.0;stroke-dasharray:5.0,5.0;" x1="137.5" x2="137.5" y1="40.2969" y2="439.5625"/><line style="stroke:#A80036;stroke-width:1.0;stroke-dasharray:5.0,5.0;" x1="283" x2="283" y1="40.2969" y2="439.5625"/><line style="stroke:#A80036;stroke-width:1.0;stroke-dasharray:5.0,5.0;" x1="390" x2="390" y1="40.2969" y2="439.5625"/><rect fill="#FEFECE" filter="url(#f1jelgf139qdqq)" height="30.2969" style="stroke:#A80036;stroke-width:1.5;" width="81" x="95.5" y="5"/><text fill="#000000" font-family="sans-serif" font-size="14" lengthAdjust="spacing" textLength="67" x="102.5" y="24.9951">s: Settler</text><rect fill="#FEFECE" filter="url(#f1jelgf139qdqq)" height="30.2969" style="stroke:#A80036;stroke-width:1.5;" width="81" x="95.5" y="438.5625"/><text fill="#000000" font-family="sans-serif" font-size="14" lengthAdjust="spacing" textLength="67" x="102.5" y="458.5576">s: Settler</text><rect fill="#FEFECE" filter="url(#f1jelgf139qdqq)" height="30.2969" style="stroke:#A80036;stroke-width:1.5;" width="92" x="235" y="5"/><text fill="#000000" font-family="sans-serif" font-size="14" lengthAdjust="spacing" textLength="78" x="242" y="24.9951">a: Asteroid</text><rect fill="#FEFECE" filter="url(#f1jelgf139qdqq)" height="30.2969" style="stroke:#A80036;stroke-width:1.5;" width="92" x="235" y="438.5625"/><text fill="#000000" font-family="sans-serif" font-size="14" lengthAdjust="spacing" textLength="78" x="242" y="458.5576">a: Asteroid</text><rect fill="#FEFECE" filter="url(#f1jelgf139qdqq)" height="30.2969" style="stroke:#A80036;stroke-width:1.5;" width="95" x="341" y="5"/><text fill="#000000" font-family="sans-serif" font-size="14" lengthAdjust="spacing" textLength="81" x="348" y="24.9951">m: Material</text><rect fill="#FEFECE" filter="url(#f1jelgf139qdqq)" height="30.2969" style="stroke:#A80036;stroke-width:1.5;" width="95" x="341" y="438.5625"/><text fill="#000000" font-family="sans-serif" font-size="14" lengthAdjust="spacing" textLength="81" x="348" y="458.5576">m: Material</text><rect fill="#FFFFFF" filter="url(#f1jelgf139qdqq)" height="343.1328" style="stroke:#A80036;stroke-width:1.0;" width="10" x="133" y="71.4297"/><rect fill="#FFFFFF" filter="url(#f1jelgf139qdqq)" height="284.8672" style="stroke:#A80036;stroke-width:1.0;" width="10" x="278" y="100.5625"/><rect fill="#FFFFFF" filter="url(#f1jelgf139qdqq)" height="40.1328" style="stroke:#A80036;stroke-width:1.0;" width="10" x="283" y="137.6953"/><rect fill="#FFFFFF" filter="url(#f1jelgf139qdqq)" height="14" style="stroke:#A80036;stroke-width:1.0;" width="10" x="385.5" y="262.2266"/><polygon fill="#A80036" points="121,67.4297,131,71.4297,121,75.4297,125,71.4297" style="stroke:#A80036;stroke-width:1.0;"/><line style="stroke:#A80036;stroke-width:1.0;" x1="0" x2="127" y1="71.4297" y2="71.4297"/><text fill="#000000" font-family="sans-serif" font-size="13" lengthAdjust="spacing" textLength="107" x="7" y="66.3638">placeMaterial(m)</text><polygon fill="#A80036" points="266,96.5625,276,100.5625,266,104.5625,270,100.5625" style="stroke:#A80036;stroke-width:1.0;"/><line style="stroke:#A80036;stroke-width:1.0;" x1="143" x2="272" y1="100.5625" y2="100.5625"/><text fill="#000000" font-family="sans-serif" font-size="13" lengthAdjust="spacing" textLength="116" x="150" y="95.4966">acceptMaterial(m)</text><line style="stroke:#A80036;stroke-width:1.0;" x1="288" x2="335" y1="124.6953" y2="124.6953"/><line style="stroke:#A80036;stroke-width:1.0;" x1="335" x2="335" y1="124.6953" y2="137.6953"/><line style="stroke:#A80036;stroke-width:1.0;" x1="294" x2="335" y1="137.6953" y2="137.6953"/><polygon fill="#A80036" points="304,133.6953,294,137.6953,304,141.6953,300,137.6953" style="stroke:#A80036;stroke-width:1.0;"/><text fill="#000000" font-family="sans-serif" font-size="13" lengthAdjust="spacing" textLength="75" x="300" y="119.6294">isExposed()</text><line style="stroke:#A80036;stroke-width:1.0;stroke-dasharray:2.0,2.0;" x1="293" x2="335" y1="176.8281" y2="176.8281"/><line style="stroke:#A80036;stroke-width:1.0;stroke-dasharray:2.0,2.0;" x1="335" x2="335" y1="176.8281" y2="189.8281"/><line style="stroke:#A80036;stroke-width:1.0;stroke-dasharray:2.0,2.0;" x1="288" x2="335" y1="189.8281" y2="189.8281"/><polygon fill="#A80036" points="298,185.8281,288,189.8281,298,193.8281,294,189.8281" style="stroke:#A80036;stroke-width:1.0;"/><text fill="#000000" font-family="sans-serif" font-size="13" lengthAdjust="spacing" textLength="55" x="300" y="171.7622">exposed</text><path d="M3,199.8281 L69,199.8281 L69,206.8281 L59,216.8281 L3,216.8281 L3,199.8281 " fill="#EEEEEE" style="stroke:#000000;stroke-width:1.0;"/><rect fill="none" height="222.7344" style="stroke:#000000;stroke-width:2.0;" width="457" x="3" y="199.8281"/><text fill="#000000" font-family="sans-serif" font-size="13" font-weight="bold" lengthAdjust="spacing" textLength="21" x="18" y="212.895">alt</text><text fill="#000000" font-family="sans-serif" font-size="11" font-weight="bold" lengthAdjust="spacing" textLength="184" x="84" y="212.0386">[exposed &amp;&amp; core is empty]</text><path d="M225,223.9609 L297,223.9609 L297,230.9609 L287,240.9609 L225,240.9609 L225,223.9609 " fill="#EEEEEE" style="stroke:#000000;stroke-width:1.0;"/><rect fill="none" height="60.2656" style="stroke:#000000;stroke-width:2.0;" width="225" x="225" y="223.9609"/><text fill="#000000" font-family="sans-serif" font-size="13" font-weight="bold" lengthAdjust="spacing" textLength="27" x="240" y="237.0278">opt</text><text fill="#000000" font-family="sans-serif" font-size="11" font-weight="bold" lengthAdjust="spacing" textLength="68" x="312" y="236.1714">[sunclose]</text><polygon fill="#A80036" points="373.5,258.2266,383.5,262.2266,373.5,266.2266,377.5,262.2266" style="stroke:#A80036;stroke-width:1.0;"/><line style="stroke:#A80036;stroke-width:1.0;" x1="288" x2="379.5" y1="262.2266" y2="262.2266"/><text fill="#000000" font-family="sans-serif" font-size="13" lengthAdjust="spacing" textLength="73" x="295" y="257.1606">exposed(a)</text><polygon fill="#A80036" points="299,272.2266,289,276.2266,299,280.2266,295,276.2266" style="stroke:#A80036;stroke-width:1.0;"/><line style="stroke:#A80036;stroke-width:1.0;stroke-dasharray:2.0,2.0;" x1="293" x2="389.5" y1="276.2266" y2="276.2266"/><polygon fill="#A80036" points="154,308.3594,144,312.3594,154,316.3594,150,312.3594" style="stroke:#A80036;stroke-width:1.0;"/><line style="stroke:#A80036;stroke-width:1.0;stroke-dasharray:2.0,2.0;" x1="148" x2="277" y1="312.3594" y2="312.3594"/><text fill="#000000" font-family="sans-serif" font-size="13" lengthAdjust="spacing" textLength="26" x="160" y="307.2935">true</text><polygon fill="#A80036" points="11,337.4922,1,341.4922,11,345.4922,7,341.4922" style="stroke:#A80036;stroke-width:1.0;"/><line style="stroke:#A80036;stroke-width:1.0;stroke-dasharray:2.0,2.0;" x1="5" x2="132" y1="341.4922" y2="341.4922"/><text fill="#000000" font-family="sans-serif" font-size="13" lengthAdjust="spacing" textLength="26" x="17" y="336.4263">true</text><line style="stroke:#000000;stroke-width:1.0;stroke-dasharray:2.0,2.0;" x1="3" x2="460" y1="350.4922" y2="350.4922"/><text fill="#000000" font-family="sans-serif" font-size="11" font-weight="bold" lengthAdjust="spacing" textLength="37" x="8" y="360.7026">[else]</text><polygon fill="#A80036" points="154,381.4297,144,385.4297,154,389.4297,150,385.4297" style="stroke:#A80036;stroke-width:1.0;"/><line style="stroke:#A80036;stroke-width:1.0;stroke-dasharray:2.0,2.0;" x1="148" x2="282" y1="385.4297" y2="385.4297"/><text fill="#000000" font-family="sans-serif" font-size="13" lengthAdjust="spacing" textLength="31" x="160" y="380.3638">false</text><polygon fill="#A80036" points="11,410.5625,1,414.5625,11,418.5625,7,414.5625" style="stroke:#A80036;stroke-width:1.0;"/><line style="stroke:#A80036;stroke-width:1.0;stroke-dasharray:2.0,2.0;" x1="5" x2="137" y1="414.5625" y2="414.5625"/><text fill="#000000" font-family="sans-serif" font-size="13" lengthAdjust="spacing" textLength="31" x="17" y="409.4966">false</text><!--MD5=[19c559d565f6db42f528b8c1109d4593]
@startuml
participant "s: Settler" as s
participant "a: Asteroid" as a
participant "m: Material" as m

[->s ++: placeMaterial(m)
    s->a ++:acceptMaterial(m)
        a->a ++: isExposed()
        return exposed
        alt exposed && core is empty
            opt sunclose
                a->m ++:exposed(a)
                return
            end
            a- ->s: true
            s- ->[: true
        else else
        a- ->s - -: false
        s- ->[ - -: false
	end
@enduml

PlantUML version 1.2021.2beta9(Unknown compile time)
(GPL source distribution)
Java Runtime: Java(TM) SE Runtime Environment
JVM: Java HotSpot(TM) 64-Bit Server VM
Default Encoding: UTF-8
Language: en
Country: US
--></g></svg>