<?xml version="1.0" encoding="UTF-8" standalone="no"?><svg xmlns="http://www.w3.org/2000/svg" xmlns:xlink="http://www.w3.org/1999/xlink" contentScriptType="application/ecmascript" contentStyleType="text/css" height="411px" preserveAspectRatio="none" style="width:553px;height:411px;" version="1.1" viewBox="0 0 553 411" width="553px" zoomAndPan="magnify"><defs><filter height="300%" id="fah2q5mq5hxx8" width="300%" x="-1" y="-1"><feGaussianBlur result="blurOut" stdDeviation="2.0"/><feColorMatrix in="blurOut" result="blurOut2" type="matrix" values="0 0 0 0 0 0 0 0 0 0 0 0 0 0 0 0 0 0 .4 0"/><feOffset dx="4.0" dy="4.0" in="blurOut2" result="blurOut3"/><feBlend in="SourceGraphic" in2="blurOut3" mode="normal"/></filter></defs><g><rect fill="#FFFFFF" filter="url(#fah2q5mq5hxx8)" height="272" style="stroke:#A80036;stroke-width:1.0;" width="10" x="141" y="71.4297"/><rect fill="#FFFFFF" filter="url(#fah2q5mq5hxx8)" height="29.1328" style="stroke:#A80036;stroke-width:1.0;" width="10" x="258.5" y="100.5625"/><rect fill="#FFFFFF" filter="url(#fah2q5mq5hxx8)" height="29.1328" style="stroke:#A80036;stroke-width:1.0;" width="10" x="258.5" y="182.9609"/><rect fill="#FFFFFF" filter="url(#fah2q5mq5hxx8)" height="29.1328" style="stroke:#A80036;stroke-width:1.0;" width="10" x="476.5" y="241.2266"/><rect fill="#FFFFFF" filter="url(#fah2q5mq5hxx8)" height="206.7344" style="stroke:#000000;stroke-width:2.0;" width="531.5" x="8" y="144.6953"/><rect fill="#FFFFFF" height="43.9375" style="stroke:none;stroke-width:1.0;" width="531.5" x="8" y="307.4922"/><line style="stroke:#A80036;stroke-width:1.0;stroke-dasharray:5.0,5.0;" x1="145.5" x2="145.5" y1="40.2969" y2="368.4297"/><line style="stroke:#A80036;stroke-width:1.0;stroke-dasharray:5.0,5.0;" x1="263.5" x2="263.5" y1="40.2969" y2="368.4297"/><line style="stroke:#A80036;stroke-width:1.0;stroke-dasharray:5.0,5.0;" x1="377.5" x2="377.5" y1="40.2969" y2="368.4297"/><line style="stroke:#A80036;stroke-width:1.0;stroke-dasharray:5.0,5.0;" x1="481.5" x2="481.5" y1="40.2969" y2="368.4297"/><rect fill="#FEFECE" filter="url(#fah2q5mq5hxx8)" height="30.2969" style="stroke:#A80036;stroke-width:1.5;" width="93" x="97.5" y="5"/><text fill="#000000" font-family="sans-serif" font-size="14" lengthAdjust="spacing" textLength="79" x="104.5" y="24.9951">t: Teleport</text><rect fill="#FEFECE" filter="url(#fah2q5mq5hxx8)" height="30.2969" style="stroke:#A80036;stroke-width:1.5;" width="93" x="97.5" y="367.4297"/><text fill="#000000" font-family="sans-serif" font-size="14" lengthAdjust="spacing" textLength="79" x="104.5" y="387.4248">t: Teleport</text><rect fill="#FEFECE" filter="url(#fah2q5mq5hxx8)" height="30.2969" style="stroke:#A80036;stroke-width:1.5;" width="114" x="204.5" y="5"/><text fill="#000000" font-family="sans-serif" font-size="14" lengthAdjust="spacing" textLength="100" x="211.5" y="24.9951">pair: Teleport</text><rect fill="#FEFECE" filter="url(#fah2q5mq5hxx8)" height="30.2969" style="stroke:#A80036;stroke-width:1.5;" width="114" x="204.5" y="367.4297"/><text fill="#000000" font-family="sans-serif" font-size="14" lengthAdjust="spacing" textLength="100" x="211.5" y="387.4248">pair: Teleport</text><rect fill="#FEFECE" filter="url(#fah2q5mq5hxx8)" height="30.2969" style="stroke:#A80036;stroke-width:1.5;" width="87" x="332.5" y="5"/><text fill="#000000" font-family="sans-serif" font-size="14" lengthAdjust="spacing" textLength="73" x="339.5" y="24.9951">w: Worker</text><rect fill="#FEFECE" filter="url(#fah2q5mq5hxx8)" height="30.2969" style="stroke:#A80036;stroke-width:1.5;" width="87" x="332.5" y="367.4297"/><text fill="#000000" font-family="sans-serif" font-size="14" lengthAdjust="spacing" textLength="73" x="339.5" y="387.4248">w: Worker</text><rect fill="#FEFECE" filter="url(#fah2q5mq5hxx8)" height="30.2969" style="stroke:#A80036;stroke-width:1.5;" width="92" x="433.5" y="5"/><text fill="#000000" font-family="sans-serif" font-size="14" lengthAdjust="spacing" textLength="78" x="440.5" y="24.9951">a: Asteroid</text><rect fill="#FEFECE" filter="url(#fah2q5mq5hxx8)" height="30.2969" style="stroke:#A80036;stroke-width:1.5;" width="92" x="433.5" y="367.4297"/><text fill="#000000" font-family="sans-serif" font-size="14" lengthAdjust="spacing" textLength="78" x="440.5" y="387.4248">a: Asteroid</text><rect fill="#FFFFFF" filter="url(#fah2q5mq5hxx8)" height="272" style="stroke:#A80036;stroke-width:1.0;" width="10" x="141" y="71.4297"/><rect fill="#FFFFFF" filter="url(#fah2q5mq5hxx8)" height="29.1328" style="stroke:#A80036;stroke-width:1.0;" width="10" x="258.5" y="100.5625"/><rect fill="#FFFFFF" filter="url(#fah2q5mq5hxx8)" height="29.1328" style="stroke:#A80036;stroke-width:1.0;" width="10" x="258.5" y="182.9609"/><rect fill="#FFFFFF" filter="url(#fah2q5mq5hxx8)" height="29.1328" style="stroke:#A80036;stroke-width:1.0;" width="10" x="476.5" y="241.2266"/><polygon fill="#A80036" points="129,67.4297,139,71.4297,129,75.4297,133,71.4297" style="stroke:#A80036;stroke-width:1.0;"/><line style="stroke:#A80036;stroke-width:1.0;" x1="5" x2="135" y1="71.4297" y2="71.4297"/><text fill="#000000" font-family="sans-serif" font-size="13" lengthAdjust="spacing" textLength="110" x="12" y="66.3638">acceptWorker(w)</text><polygon fill="#A80036" points="246.5,96.5625,256.5,100.5625,246.5,104.5625,250.5,100.5625" style="stroke:#A80036;stroke-width:1.0;"/><line style="stroke:#A80036;stroke-width:1.0;" x1="151" x2="252.5" y1="100.5625" y2="100.5625"/><text fill="#000000" font-family="sans-serif" font-size="13" lengthAdjust="spacing" textLength="62" x="158" y="95.4966">isPlaced()</text><polygon fill="#A80036" points="162,125.6953,152,129.6953,162,133.6953,158,129.6953" style="stroke:#A80036;stroke-width:1.0;"/><line style="stroke:#A80036;stroke-width:1.0;stroke-dasharray:2.0,2.0;" x1="156" x2="262.5" y1="129.6953" y2="129.6953"/><text fill="#000000" font-family="sans-serif" font-size="13" lengthAdjust="spacing" textLength="42" x="168" y="124.6294">placed</text><path d="M8,144.6953 L74,144.6953 L74,151.6953 L64,161.6953 L8,161.6953 L8,144.6953 " fill="#EEEEEE" style="stroke:#000000;stroke-width:1.0;"/><rect fill="none" height="206.7344" style="stroke:#000000;stroke-width:2.0;" width="531.5" x="8" y="144.6953"/><text fill="#000000" font-family="sans-serif" font-size="13" font-weight="bold" lengthAdjust="spacing" textLength="21" x="23" y="157.7622">alt</text><text fill="#000000" font-family="sans-serif" font-size="11" font-weight="bold" lengthAdjust="spacing" textLength="108" x="89" y="156.9058">[placed == true]</text><polygon fill="#A80036" points="246.5,178.9609,256.5,182.9609,246.5,186.9609,250.5,182.9609" style="stroke:#A80036;stroke-width:1.0;"/><line style="stroke:#A80036;stroke-width:1.0;" x1="151" x2="252.5" y1="182.9609" y2="182.9609"/><text fill="#000000" font-family="sans-serif" font-size="13" lengthAdjust="spacing" textLength="84" x="158" y="177.895">getAsteroid()</text><polygon fill="#A80036" points="162,208.0938,152,212.0938,162,216.0938,158,212.0938" style="stroke:#A80036;stroke-width:1.0;"/><line style="stroke:#A80036;stroke-width:1.0;stroke-dasharray:2.0,2.0;" x1="156" x2="262.5" y1="212.0938" y2="212.0938"/><text fill="#000000" font-family="sans-serif" font-size="13" lengthAdjust="spacing" textLength="8" x="168" y="207.0278">a</text><polygon fill="#A80036" points="464.5,237.2266,474.5,241.2266,464.5,245.2266,468.5,241.2266" style="stroke:#A80036;stroke-width:1.0;"/><line style="stroke:#A80036;stroke-width:1.0;" x1="151" x2="470.5" y1="241.2266" y2="241.2266"/><text fill="#000000" font-family="sans-serif" font-size="13" lengthAdjust="spacing" textLength="110" x="158" y="236.1606">acceptWorker(w)</text><polygon fill="#A80036" points="162,266.3594,152,270.3594,162,274.3594,158,270.3594" style="stroke:#A80036;stroke-width:1.0;"/><line style="stroke:#A80036;stroke-width:1.0;stroke-dasharray:2.0,2.0;" x1="156" x2="480.5" y1="270.3594" y2="270.3594"/><text fill="#000000" font-family="sans-serif" font-size="13" lengthAdjust="spacing" textLength="26" x="168" y="265.2935">true</text><polygon fill="#A80036" points="16,295.4922,6,299.4922,16,303.4922,12,299.4922" style="stroke:#A80036;stroke-width:1.0;"/><line style="stroke:#A80036;stroke-width:1.0;stroke-dasharray:2.0,2.0;" x1="10" x2="140" y1="299.4922" y2="299.4922"/><text fill="#000000" font-family="sans-serif" font-size="13" lengthAdjust="spacing" textLength="26" x="22" y="294.4263">true</text><line style="stroke:#000000;stroke-width:1.0;stroke-dasharray:2.0,2.0;" x1="8" x2="539.5" y1="308.4922" y2="308.4922"/><text fill="#000000" font-family="sans-serif" font-size="11" font-weight="bold" lengthAdjust="spacing" textLength="37" x="13" y="318.7026">[else]</text><polygon fill="#A80036" points="16,339.4297,6,343.4297,16,347.4297,12,343.4297" style="stroke:#A80036;stroke-width:1.0;"/><line style="stroke:#A80036;stroke-width:1.0;stroke-dasharray:2.0,2.0;" x1="10" x2="145" y1="343.4297" y2="343.4297"/><text fill="#000000" font-family="sans-serif" font-size="13" lengthAdjust="spacing" textLength="31" x="22" y="338.3638">false</text><!--MD5=[d86ddfa48ca76686e270d191369e42f0]
@startuml
participant "t: Teleport" as t
participant "pair: Teleport" as pair
participant "w: Worker" as w
participant "a: Asteroid" as a

[->t ++:acceptWorker(w)
t->pair ++: isPlaced()
return placed
alt placed == true
		t->pair ++: getAsteroid()
		return a
		t->a ++:acceptWorker(w)
		return true
		[<- -t : true
else else
	    return false
end
@enduml

PlantUML version 1.2021.3beta4(Unknown compile time)
(GPL source distribution)
Java Runtime: Java(TM) SE Runtime Environment
JVM: Java HotSpot(TM) 64-Bit Server VM
Default Encoding: UTF-8
Language: en
Country: US
--></g></svg>