<?xml version="1.0" encoding="UTF-8" standalone="no"?><svg xmlns="http://www.w3.org/2000/svg" xmlns:xlink="http://www.w3.org/1999/xlink" contentScriptType="application/ecmascript" contentStyleType="text/css" height="215px" preserveAspectRatio="none" style="width:355px;height:215px;" version="1.1" viewBox="0 0 355 215" width="355px" zoomAndPan="magnify"><defs><filter height="300%" id="f71ttjg8eougm" width="300%" x="-1" y="-1"><feGaussianBlur result="blurOut" stdDeviation="2.0"/><feColorMatrix in="blurOut" result="blurOut2" type="matrix" values="0 0 0 0 0 0 0 0 0 0 0 0 0 0 0 0 0 0 .4 0"/><feOffset dx="4.0" dy="4.0" in="blurOut2" result="blurOut3"/><feBlend in="SourceGraphic" in2="blurOut3" mode="normal"/></filter></defs><g><rect fill="#FFFFFF" filter="url(#f71ttjg8eougm)" height="83.1328" style="stroke:#A80036;stroke-width:1.0;" width="10" x="151" y="71.4297"/><rect fill="#FFFFFF" filter="url(#f71ttjg8eougm)" height="25" style="stroke:#A80036;stroke-width:1.0;" width="10" x="156" y="108.5625"/><line style="stroke:#A80036;stroke-width:1.0;stroke-dasharray:5.0,5.0;" x1="156" x2="156" y1="40.2969" y2="172.5625"/><line style="stroke:#A80036;stroke-width:1.0;stroke-dasharray:5.0,5.0;" x1="282" x2="282" y1="40.2969" y2="172.5625"/><rect fill="#FEFECE" filter="url(#f71ttjg8eougm)" height="30.2969" style="stroke:#A80036;stroke-width:1.5;" width="102" x="103" y="5"/><text fill="#000000" font-family="sans-serif" font-size="14" lengthAdjust="spacing" textLength="88" x="110" y="24.9951">te: Teleport</text><rect fill="#FEFECE" filter="url(#f71ttjg8eougm)" height="30.2969" style="stroke:#A80036;stroke-width:1.5;" width="102" x="103" y="171.5625"/><text fill="#000000" font-family="sans-serif" font-size="14" lengthAdjust="spacing" textLength="88" x="110" y="191.5576">te: Teleport</text><rect fill="#FEFECE" filter="url(#f71ttjg8eougm)" height="30.2969" style="stroke:#A80036;stroke-width:1.5;" width="122" x="219" y="5"/><text fill="#000000" font-family="sans-serif" font-size="14" lengthAdjust="spacing" textLength="108" x="226" y="24.9951">tr: Transporter</text><rect fill="#FEFECE" filter="url(#f71ttjg8eougm)" height="30.2969" style="stroke:#A80036;stroke-width:1.5;" width="122" x="219" y="171.5625"/><text fill="#000000" font-family="sans-serif" font-size="14" lengthAdjust="spacing" textLength="108" x="226" y="191.5576">tr: Transporter</text><rect fill="#FFFFFF" filter="url(#f71ttjg8eougm)" height="83.1328" style="stroke:#A80036;stroke-width:1.0;" width="10" x="151" y="71.4297"/><rect fill="#FFFFFF" filter="url(#f71ttjg8eougm)" height="25" style="stroke:#A80036;stroke-width:1.0;" width="10" x="156" y="108.5625"/><polygon fill="#A80036" points="139,67.4297,149,71.4297,139,75.4297,143,71.4297" style="stroke:#A80036;stroke-width:1.0;"/><line style="stroke:#A80036;stroke-width:1.0;" x1="5" x2="145" y1="71.4297" y2="71.4297"/><text fill="#000000" font-family="sans-serif" font-size="13" lengthAdjust="spacing" textLength="127" x="12" y="66.3638">removeNeighbor(tr)</text><line style="stroke:#A80036;stroke-width:1.0;" x1="161" x2="208" y1="95.5625" y2="95.5625"/><line style="stroke:#A80036;stroke-width:1.0;" x1="208" x2="208" y1="95.5625" y2="108.5625"/><line style="stroke:#A80036;stroke-width:1.0;" x1="167" x2="208" y1="108.5625" y2="108.5625"/><polygon fill="#A80036" points="177,104.5625,167,108.5625,177,112.5625,173,108.5625" style="stroke:#A80036;stroke-width:1.0;"/><text fill="#000000" font-family="sans-serif" font-size="13" lengthAdjust="spacing" textLength="59" x="173" y="90.4966">destroy()</text><line style="stroke:#A80036;stroke-width:1.0;stroke-dasharray:2.0,2.0;" x1="166" x2="208" y1="132.5625" y2="132.5625"/><line style="stroke:#A80036;stroke-width:1.0;stroke-dasharray:2.0,2.0;" x1="208" x2="208" y1="132.5625" y2="145.5625"/><line style="stroke:#A80036;stroke-width:1.0;stroke-dasharray:2.0,2.0;" x1="161" x2="208" y1="145.5625" y2="145.5625"/><polygon fill="#A80036" points="171,141.5625,161,145.5625,171,149.5625,167,145.5625" style="stroke:#A80036;stroke-width:1.0;"/><polygon fill="#A80036" points="16,150.5625,6,154.5625,16,158.5625,12,154.5625" style="stroke:#A80036;stroke-width:1.0;"/><line style="stroke:#A80036;stroke-width:1.0;stroke-dasharray:2.0,2.0;" x1="10" x2="155" y1="154.5625" y2="154.5625"/><line style="stroke:#A80036;stroke-width:2.0;" x1="147" x2="165" y1="145.5625" y2="163.5625"/><line style="stroke:#A80036;stroke-width:2.0;" x1="147" x2="165" y1="163.5625" y2="145.5625"/><!--MD5=[eeb2224976bc6b29ed85a6c72969c124]
@startuml
participant "te: Teleport" as te
participant "tr: Transporter" as tr

[->te ++: removeNeighbor(tr)
te->te ++: destroy()
return
return
destroy te
@enduml

PlantUML version 1.2021.3beta4(Unknown compile time)
(GPL source distribution)
Java Runtime: Java(TM) SE Runtime Environment
JVM: Java HotSpot(TM) 64-Bit Server VM
Default Encoding: UTF-8
Language: en
Country: US
--></g></svg>