<?xml version="1.0" encoding="UTF-8" standalone="no"?><svg xmlns="http://www.w3.org/2000/svg" xmlns:xlink="http://www.w3.org/1999/xlink" contentScriptType="application/ecmascript" contentStyleType="text/css" height="688px" preserveAspectRatio="none" style="width:766px;height:688px;" version="1.1" viewBox="0 0 766 688" width="766px" zoomAndPan="magnify"><defs><filter height="300%" id="fffkhdto7nlxz" width="300%" x="-1" y="-1"><feGaussianBlur result="blurOut" stdDeviation="2.0"/><feColorMatrix in="blurOut" result="blurOut2" type="matrix" values="0 0 0 0 0 0 0 0 0 0 0 0 0 0 0 0 0 0 .4 0"/><feOffset dx="4.0" dy="4.0" in="blurOut2" result="blurOut3"/><feBlend in="SourceGraphic" in2="blurOut3" mode="normal"/></filter></defs><g><rect fill="#FFFFFF" filter="url(#fffkhdto7nlxz)" height="555.4688" style="stroke:#A80036;stroke-width:1.0;" width="10" x="83" y="71.4297"/><rect fill="#FFFFFF" filter="url(#fffkhdto7nlxz)" height="40.1328" style="stroke:#A80036;stroke-width:1.0;" width="10" x="88" y="108.5625"/><rect fill="#FFFFFF" filter="url(#fffkhdto7nlxz)" height="14" style="stroke:#A80036;stroke-width:1.0;" width="10" x="230" y="266.8984"/><rect fill="#FFFFFF" filter="url(#fffkhdto7nlxz)" height="14" style="stroke:#A80036;stroke-width:1.0;" width="10" x="339.5" y="208.9609"/><rect fill="#FFFFFF" filter="url(#fffkhdto7nlxz)" height="29.1328" style="stroke:#A80036;stroke-width:1.0;" width="10" x="461" y="317.0313"/><rect fill="#FFFFFF" filter="url(#fffkhdto7nlxz)" height="29.1328" style="stroke:#A80036;stroke-width:1.0;" width="10" x="461" y="399.4297"/><rect fill="#FFFFFF" filter="url(#fffkhdto7nlxz)" height="29.1328" style="stroke:#A80036;stroke-width:1.0;" width="10" x="461" y="515.6328"/><rect fill="#FFFFFF" filter="url(#fffkhdto7nlxz)" height="14" style="stroke:#A80036;stroke-width:1.0;" width="10" x="576.5" y="573.8984"/><rect fill="#FFFFFF" filter="url(#fffkhdto7nlxz)" height="14" style="stroke:#A80036;stroke-width:1.0;" width="10" x="685" y="457.6953"/><rect fill="#FFFFFF" filter="url(#fffkhdto7nlxz)" height="118.2031" style="stroke:#000000;stroke-width:2.0;" width="377.5" x="29.5" y="170.6953"/><rect fill="#FFFFFF" height="57.9375" style="stroke:none;stroke-width:1.0;" width="377.5" x="29.5" y="230.9609"/><rect fill="#FFFFFF" filter="url(#fffkhdto7nlxz)" height="234.7344" style="stroke:#000000;stroke-width:2.0;" width="722.5" x="29.5" y="361.1641"/><rect fill="#FFFFFF" height="116.2031" style="stroke:none;stroke-width:1.0;" width="722.5" x="29.5" y="479.6953"/><line style="stroke:#A80036;stroke-width:1.0;stroke-dasharray:5.0,5.0;" x1="87.5" x2="87.5" y1="40.2969" y2="644.8984"/><line style="stroke:#A80036;stroke-width:1.0;stroke-dasharray:5.0,5.0;" x1="235" x2="235" y1="40.2969" y2="644.8984"/><line style="stroke:#A80036;stroke-width:1.0;stroke-dasharray:5.0,5.0;" x1="344" x2="344" y1="40.2969" y2="644.8984"/><line style="stroke:#A80036;stroke-width:1.0;stroke-dasharray:5.0,5.0;" x1="466" x2="466" y1="40.2969" y2="644.8984"/><line style="stroke:#A80036;stroke-width:1.0;stroke-dasharray:5.0,5.0;" x1="581" x2="581" y1="40.2969" y2="644.8984"/><line style="stroke:#A80036;stroke-width:1.0;stroke-dasharray:5.0,5.0;" x1="690" x2="690" y1="40.2969" y2="644.8984"/><rect fill="#FEFECE" filter="url(#fffkhdto7nlxz)" height="30.2969" style="stroke:#A80036;stroke-width:1.5;" width="93" x="39.5" y="5"/><text fill="#000000" font-family="sans-serif" font-size="14" lengthAdjust="spacing" textLength="79" x="46.5" y="24.9951">t: Teleport</text><rect fill="#FEFECE" filter="url(#fffkhdto7nlxz)" height="30.2969" style="stroke:#A80036;stroke-width:1.5;" width="93" x="39.5" y="643.8984"/><text fill="#000000" font-family="sans-serif" font-size="14" lengthAdjust="spacing" textLength="79" x="46.5" y="663.8936">t: Teleport</text><rect fill="#FEFECE" filter="url(#fffkhdto7nlxz)" height="30.2969" style="stroke:#A80036;stroke-width:1.5;" width="90" x="188" y="5"/><text fill="#000000" font-family="sans-serif" font-size="14" lengthAdjust="spacing" textLength="76" x="195" y="24.9951">s1: Settler</text><rect fill="#FEFECE" filter="url(#fffkhdto7nlxz)" height="30.2969" style="stroke:#A80036;stroke-width:1.5;" width="90" x="188" y="643.8984"/><text fill="#000000" font-family="sans-serif" font-size="14" lengthAdjust="spacing" textLength="76" x="195" y="663.8936">s1: Settler</text><rect fill="#FEFECE" filter="url(#fffkhdto7nlxz)" height="30.2969" style="stroke:#A80036;stroke-width:1.5;" width="101" x="292" y="5"/><text fill="#000000" font-family="sans-serif" font-size="14" lengthAdjust="spacing" textLength="87" x="299" y="24.9951">a1: Asteroid</text><rect fill="#FEFECE" filter="url(#fffkhdto7nlxz)" height="30.2969" style="stroke:#A80036;stroke-width:1.5;" width="101" x="292" y="643.8984"/><text fill="#000000" font-family="sans-serif" font-size="14" lengthAdjust="spacing" textLength="87" x="299" y="663.8936">a1: Asteroid</text><rect fill="#FEFECE" filter="url(#fffkhdto7nlxz)" height="30.2969" style="stroke:#A80036;stroke-width:1.5;" width="114" x="407" y="5"/><text fill="#000000" font-family="sans-serif" font-size="14" lengthAdjust="spacing" textLength="100" x="414" y="24.9951">pair: Teleport</text><rect fill="#FEFECE" filter="url(#fffkhdto7nlxz)" height="30.2969" style="stroke:#A80036;stroke-width:1.5;" width="114" x="407" y="643.8984"/><text fill="#000000" font-family="sans-serif" font-size="14" lengthAdjust="spacing" textLength="100" x="414" y="663.8936">pair: Teleport</text><rect fill="#FEFECE" filter="url(#fffkhdto7nlxz)" height="30.2969" style="stroke:#A80036;stroke-width:1.5;" width="89" x="535" y="5"/><text fill="#000000" font-family="sans-serif" font-size="14" lengthAdjust="spacing" textLength="75" x="542" y="24.9951">s2: Settler</text><rect fill="#FEFECE" filter="url(#fffkhdto7nlxz)" height="30.2969" style="stroke:#A80036;stroke-width:1.5;" width="89" x="535" y="643.8984"/><text fill="#000000" font-family="sans-serif" font-size="14" lengthAdjust="spacing" textLength="75" x="542" y="663.8936">s2: Settler</text><rect fill="#FEFECE" filter="url(#fffkhdto7nlxz)" height="30.2969" style="stroke:#A80036;stroke-width:1.5;" width="100" x="638" y="5"/><text fill="#000000" font-family="sans-serif" font-size="14" lengthAdjust="spacing" textLength="86" x="645" y="24.9951">a2: Asteroid</text><rect fill="#FEFECE" filter="url(#fffkhdto7nlxz)" height="30.2969" style="stroke:#A80036;stroke-width:1.5;" width="100" x="638" y="643.8984"/><text fill="#000000" font-family="sans-serif" font-size="14" lengthAdjust="spacing" textLength="86" x="645" y="663.8936">a2: Asteroid</text><rect fill="#FFFFFF" filter="url(#fffkhdto7nlxz)" height="555.4688" style="stroke:#A80036;stroke-width:1.0;" width="10" x="83" y="71.4297"/><rect fill="#FFFFFF" filter="url(#fffkhdto7nlxz)" height="40.1328" style="stroke:#A80036;stroke-width:1.0;" width="10" x="88" y="108.5625"/><rect fill="#FFFFFF" filter="url(#fffkhdto7nlxz)" height="14" style="stroke:#A80036;stroke-width:1.0;" width="10" x="230" y="266.8984"/><rect fill="#FFFFFF" filter="url(#fffkhdto7nlxz)" height="14" style="stroke:#A80036;stroke-width:1.0;" width="10" x="339.5" y="208.9609"/><rect fill="#FFFFFF" filter="url(#fffkhdto7nlxz)" height="29.1328" style="stroke:#A80036;stroke-width:1.0;" width="10" x="461" y="317.0313"/><rect fill="#FFFFFF" filter="url(#fffkhdto7nlxz)" height="29.1328" style="stroke:#A80036;stroke-width:1.0;" width="10" x="461" y="399.4297"/><rect fill="#FFFFFF" filter="url(#fffkhdto7nlxz)" height="29.1328" style="stroke:#A80036;stroke-width:1.0;" width="10" x="461" y="515.6328"/><rect fill="#FFFFFF" filter="url(#fffkhdto7nlxz)" height="14" style="stroke:#A80036;stroke-width:1.0;" width="10" x="576.5" y="573.8984"/><rect fill="#FFFFFF" filter="url(#fffkhdto7nlxz)" height="14" style="stroke:#A80036;stroke-width:1.0;" width="10" x="685" y="457.6953"/><polygon fill="#A80036" points="71,67.4297,81,71.4297,71,75.4297,75,71.4297" style="stroke:#A80036;stroke-width:1.0;"/><line style="stroke:#A80036;stroke-width:1.0;" x1="5" x2="77" y1="71.4297" y2="71.4297"/><text fill="#000000" font-family="sans-serif" font-size="13" lengthAdjust="spacing" textLength="59" x="12" y="66.3638">destroy()</text><line style="stroke:#A80036;stroke-width:1.0;" x1="93" x2="140" y1="95.5625" y2="95.5625"/><line style="stroke:#A80036;stroke-width:1.0;" x1="140" x2="140" y1="95.5625" y2="108.5625"/><line style="stroke:#A80036;stroke-width:1.0;" x1="99" x2="140" y1="108.5625" y2="108.5625"/><polygon fill="#A80036" points="109,104.5625,99,108.5625,109,112.5625,105,108.5625" style="stroke:#A80036;stroke-width:1.0;"/><text fill="#000000" font-family="sans-serif" font-size="13" lengthAdjust="spacing" textLength="62" x="105" y="90.4966">isPlaced()</text><line style="stroke:#A80036;stroke-width:1.0;stroke-dasharray:2.0,2.0;" x1="98" x2="140" y1="147.6953" y2="147.6953"/><line style="stroke:#A80036;stroke-width:1.0;stroke-dasharray:2.0,2.0;" x1="140" x2="140" y1="147.6953" y2="160.6953"/><line style="stroke:#A80036;stroke-width:1.0;stroke-dasharray:2.0,2.0;" x1="93" x2="140" y1="160.6953" y2="160.6953"/><polygon fill="#A80036" points="103,156.6953,93,160.6953,103,164.6953,99,160.6953" style="stroke:#A80036;stroke-width:1.0;"/><text fill="#000000" font-family="sans-serif" font-size="13" lengthAdjust="spacing" textLength="42" x="105" y="142.6294">placed</text><path d="M29.5,170.6953 L95.5,170.6953 L95.5,177.6953 L85.5,187.6953 L29.5,187.6953 L29.5,170.6953 " fill="#EEEEEE" style="stroke:#000000;stroke-width:1.0;"/><rect fill="none" height="118.2031" style="stroke:#000000;stroke-width:2.0;" width="377.5" x="29.5" y="170.6953"/><text fill="#000000" font-family="sans-serif" font-size="13" font-weight="bold" lengthAdjust="spacing" textLength="21" x="44.5" y="183.7622">alt</text><text fill="#000000" font-family="sans-serif" font-size="11" font-weight="bold" lengthAdjust="spacing" textLength="53" x="110.5" y="182.9058">[placed]</text><polygon fill="#A80036" points="327.5,204.9609,337.5,208.9609,327.5,212.9609,331.5,208.9609" style="stroke:#A80036;stroke-width:1.0;"/><line style="stroke:#A80036;stroke-width:1.0;" x1="93" x2="333.5" y1="208.9609" y2="208.9609"/><text fill="#000000" font-family="sans-serif" font-size="13" lengthAdjust="spacing" textLength="122" x="100" y="203.895">removeNeighbor(t)</text><polygon fill="#A80036" points="104,218.9609,94,222.9609,104,226.9609,100,222.9609" style="stroke:#A80036;stroke-width:1.0;"/><line style="stroke:#A80036;stroke-width:1.0;stroke-dasharray:2.0,2.0;" x1="98" x2="343.5" y1="222.9609" y2="222.9609"/><line style="stroke:#000000;stroke-width:1.0;stroke-dasharray:2.0,2.0;" x1="29.5" x2="407" y1="231.9609" y2="231.9609"/><text fill="#000000" font-family="sans-serif" font-size="11" font-weight="bold" lengthAdjust="spacing" textLength="37" x="34.5" y="242.1714">[else]</text><polygon fill="#A80036" points="218,262.8984,228,266.8984,218,270.8984,222,266.8984" style="stroke:#A80036;stroke-width:1.0;"/><line style="stroke:#A80036;stroke-width:1.0;" x1="93" x2="224" y1="266.8984" y2="266.8984"/><text fill="#000000" font-family="sans-serif" font-size="13" lengthAdjust="spacing" textLength="118" x="100" y="261.8325">removeTeleport(t)</text><polygon fill="#A80036" points="104,276.8984,94,280.8984,104,284.8984,100,280.8984" style="stroke:#A80036;stroke-width:1.0;"/><line style="stroke:#A80036;stroke-width:1.0;stroke-dasharray:2.0,2.0;" x1="98" x2="234" y1="280.8984" y2="280.8984"/><polygon fill="#A80036" points="449,313.0313,459,317.0313,449,321.0313,453,317.0313" style="stroke:#A80036;stroke-width:1.0;"/><line style="stroke:#A80036;stroke-width:1.0;" x1="93" x2="455" y1="317.0313" y2="317.0313"/><text fill="#000000" font-family="sans-serif" font-size="13" lengthAdjust="spacing" textLength="62" x="100" y="311.9653">isPlaced()</text><polygon fill="#A80036" points="104,342.1641,94,346.1641,104,350.1641,100,346.1641" style="stroke:#A80036;stroke-width:1.0;"/><line style="stroke:#A80036;stroke-width:1.0;stroke-dasharray:2.0,2.0;" x1="98" x2="465" y1="346.1641" y2="346.1641"/><text fill="#000000" font-family="sans-serif" font-size="13" lengthAdjust="spacing" textLength="66" x="110" y="341.0981">pairPlaced</text><path d="M29.5,361.1641 L95.5,361.1641 L95.5,368.1641 L85.5,378.1641 L29.5,378.1641 L29.5,361.1641 " fill="#EEEEEE" style="stroke:#000000;stroke-width:1.0;"/><rect fill="none" height="234.7344" style="stroke:#000000;stroke-width:2.0;" width="722.5" x="29.5" y="361.1641"/><text fill="#000000" font-family="sans-serif" font-size="13" font-weight="bold" lengthAdjust="spacing" textLength="21" x="44.5" y="374.231">alt</text><text fill="#000000" font-family="sans-serif" font-size="11" font-weight="bold" lengthAdjust="spacing" textLength="53" x="110.5" y="373.3745">[placed]</text><polygon fill="#A80036" points="449,395.4297,459,399.4297,449,403.4297,453,399.4297" style="stroke:#A80036;stroke-width:1.0;"/><line style="stroke:#A80036;stroke-width:1.0;" x1="93" x2="455" y1="399.4297" y2="399.4297"/><text fill="#000000" font-family="sans-serif" font-size="13" lengthAdjust="spacing" textLength="84" x="100" y="394.3638">getAsteroid()</text><polygon fill="#A80036" points="104,424.5625,94,428.5625,104,432.5625,100,428.5625" style="stroke:#A80036;stroke-width:1.0;"/><line style="stroke:#A80036;stroke-width:1.0;stroke-dasharray:2.0,2.0;" x1="98" x2="465" y1="428.5625" y2="428.5625"/><text fill="#000000" font-family="sans-serif" font-size="13" lengthAdjust="spacing" textLength="16" x="110" y="423.4966">a2</text><polygon fill="#A80036" points="673,453.6953,683,457.6953,673,461.6953,677,457.6953" style="stroke:#A80036;stroke-width:1.0;"/><line style="stroke:#A80036;stroke-width:1.0;" x1="93" x2="679" y1="457.6953" y2="457.6953"/><text fill="#000000" font-family="sans-serif" font-size="13" lengthAdjust="spacing" textLength="141" x="100" y="452.6294">removeNeighbor(pair)</text><polygon fill="#A80036" points="104,467.6953,94,471.6953,104,475.6953,100,471.6953" style="stroke:#A80036;stroke-width:1.0;"/><line style="stroke:#A80036;stroke-width:1.0;stroke-dasharray:2.0,2.0;" x1="98" x2="689" y1="471.6953" y2="471.6953"/><line style="stroke:#000000;stroke-width:1.0;stroke-dasharray:2.0,2.0;" x1="29.5" x2="752" y1="480.6953" y2="480.6953"/><text fill="#000000" font-family="sans-serif" font-size="11" font-weight="bold" lengthAdjust="spacing" textLength="37" x="34.5" y="490.9058">[else]</text><polygon fill="#A80036" points="449,511.6328,459,515.6328,449,519.6328,453,515.6328" style="stroke:#A80036;stroke-width:1.0;"/><line style="stroke:#A80036;stroke-width:1.0;" x1="93" x2="455" y1="515.6328" y2="515.6328"/><text fill="#000000" font-family="sans-serif" font-size="13" lengthAdjust="spacing" textLength="72" x="100" y="510.5669">getHolder()</text><polygon fill="#A80036" points="104,540.7656,94,544.7656,104,548.7656,100,544.7656" style="stroke:#A80036;stroke-width:1.0;"/><line style="stroke:#A80036;stroke-width:1.0;stroke-dasharray:2.0,2.0;" x1="98" x2="465" y1="544.7656" y2="544.7656"/><text fill="#000000" font-family="sans-serif" font-size="13" lengthAdjust="spacing" textLength="15" x="110" y="539.6997">s2</text><polygon fill="#A80036" points="564.5,569.8984,574.5,573.8984,564.5,577.8984,568.5,573.8984" style="stroke:#A80036;stroke-width:1.0;"/><line style="stroke:#A80036;stroke-width:1.0;" x1="93" x2="570.5" y1="573.8984" y2="573.8984"/><text fill="#000000" font-family="sans-serif" font-size="13" lengthAdjust="spacing" textLength="137" x="100" y="568.8325">removeTeleport(pair)</text><polygon fill="#A80036" points="104,583.8984,94,587.8984,104,591.8984,100,587.8984" style="stroke:#A80036;stroke-width:1.0;"/><line style="stroke:#A80036;stroke-width:1.0;stroke-dasharray:2.0,2.0;" x1="98" x2="580.5" y1="587.8984" y2="587.8984"/><line style="stroke:#A80036;stroke-width:2.0;" x1="457" x2="475" y1="602.8984" y2="620.8984"/><line style="stroke:#A80036;stroke-width:2.0;" x1="457" x2="475" y1="620.8984" y2="602.8984"/><polygon fill="#A80036" points="16,622.8984,6,626.8984,16,630.8984,12,626.8984" style="stroke:#A80036;stroke-width:1.0;"/><line style="stroke:#A80036;stroke-width:1.0;stroke-dasharray:2.0,2.0;" x1="10" x2="87" y1="626.8984" y2="626.8984"/><line style="stroke:#A80036;stroke-width:2.0;" x1="79" x2="97" y1="617.8984" y2="635.8984"/><line style="stroke:#A80036;stroke-width:2.0;" x1="79" x2="97" y1="635.8984" y2="617.8984"/><!--MD5=[60079c3625210ef3b7f750c6440b2927]
@startuml
participant "t: Teleport" as t
participant "s1: Settler" as s1
participant "a1: Asteroid" as a1
participant "pair: Teleport" as pair
participant "s2: Settler" as s2
participant "a2: Asteroid" as a2

[->t ++: destroy()
t->t ++:isPlaced()
return placed
alt placed
		t->a1 ++: removeNeighbor(t)
		return
else else
		t->s1 ++: removeTeleport(t)
		return
end
t->pair ++: isPlaced()
return pairPlaced
alt placed
        t->pair ++:getAsteroid()
        return a2
		t->a2 ++: removeNeighbor(pair)
		return
else else
        t->pair ++:getHolder()
        return s2
		t->s2 ++: removeTeleport(pair)
		return
end
destroy pair
'^ Ez jรณ? 
[<- -t !!
@enduml

@startuml
participant "t: Teleport" as t
participant "s1: Settler" as s1
participant "a1: Asteroid" as a1
participant "pair: Teleport" as pair
participant "s2: Settler" as s2
participant "a2: Asteroid" as a2

[->t ++: destroy()
t->t ++:isPlaced()
return placed
alt placed
		t->a1 ++: removeNeighbor(t)
		return
else else
		t->s1 ++: removeTeleport(t)
		return
end
t->pair ++: isPlaced()
return pairPlaced
alt placed
        t->pair ++:getAsteroid()
        return a2
		t->a2 ++: removeNeighbor(pair)
		return
else else
        t->pair ++:getHolder()
        return s2
		t->s2 ++: removeTeleport(pair)
		return
end
destroy pair
[<- -t !!
@enduml

PlantUML version 1.2021.3beta6(Unknown compile time)
(GPL source distribution)
Java Runtime: Java(TM) SE Runtime Environment
JVM: Java HotSpot(TM) 64-Bit Server VM
Default Encoding: UTF-8
Language: en
Country: US
--></g></svg>