<?xml version="1.0" encoding="UTF-8" standalone="no"?><svg xmlns="http://www.w3.org/2000/svg" xmlns:xlink="http://www.w3.org/1999/xlink" contentScriptType="application/ecmascript" contentStyleType="text/css" height="232px" preserveAspectRatio="none" style="width:429px;height:232px;" version="1.1" viewBox="0 0 429 232" width="429px" zoomAndPan="magnify"><defs><filter height="300%" id="f15lul0ss2fxab" width="300%" x="-1" y="-1"><feGaussianBlur result="blurOut" stdDeviation="2.0"/><feColorMatrix in="blurOut" result="blurOut2" type="matrix" values="0 0 0 0 0 0 0 0 0 0 0 0 0 0 0 0 0 0 .4 0"/><feOffset dx="4.0" dy="4.0" in="blurOut2" result="blurOut3"/><feBlend in="SourceGraphic" in2="blurOut3" mode="normal"/></filter></defs><g><rect fill="#FFFFFF" filter="url(#f15lul0ss2fxab)" height="100.2656" style="stroke:#A80036;stroke-width:1.0;" width="10" x="114.5" y="71.4297"/><rect fill="#FFFFFF" filter="url(#f15lul0ss2fxab)" height="14" style="stroke:#A80036;stroke-width:1.0;" width="10" x="287" y="100.5625"/><rect fill="#FFFFFF" filter="url(#f15lul0ss2fxab)" height="14" style="stroke:#A80036;stroke-width:1.0;" width="10" x="379.5" y="143.6953"/><line style="stroke:#A80036;stroke-width:1.0;stroke-dasharray:5.0,5.0;" x1="119" x2="119" y1="40.2969" y2="189.6953"/><line style="stroke:#A80036;stroke-width:1.0;stroke-dasharray:5.0,5.0;" x1="292" x2="292" y1="40.2969" y2="189.6953"/><line style="stroke:#A80036;stroke-width:1.0;stroke-dasharray:5.0,5.0;" x1="384" x2="384" y1="40.2969" y2="189.6953"/><rect fill="#FEFECE" filter="url(#f15lul0ss2fxab)" height="30.2969" style="stroke:#A80036;stroke-width:1.5;" width="225" x="5" y="5"/><text fill="#000000" font-family="sans-serif" font-size="14" lengthAdjust="spacing" textLength="211" x="12" y="24.9951">ufo: UnidentifiedFlyingObject</text><rect fill="#FEFECE" filter="url(#f15lul0ss2fxab)" height="30.2969" style="stroke:#A80036;stroke-width:1.5;" width="225" x="5" y="188.6953"/><text fill="#000000" font-family="sans-serif" font-size="14" lengthAdjust="spacing" textLength="211" x="12" y="208.6904">ufo: UnidentifiedFlyingObject</text><rect fill="#FEFECE" filter="url(#f15lul0ss2fxab)" height="30.2969" style="stroke:#A80036;stroke-width:1.5;" width="92" x="244" y="5"/><text fill="#000000" font-family="sans-serif" font-size="14" lengthAdjust="spacing" textLength="78" x="251" y="24.9951">a: Asteroid</text><rect fill="#FEFECE" filter="url(#f15lul0ss2fxab)" height="30.2969" style="stroke:#A80036;stroke-width:1.5;" width="92" x="244" y="188.6953"/><text fill="#000000" font-family="sans-serif" font-size="14" lengthAdjust="spacing" textLength="78" x="251" y="208.6904">a: Asteroid</text><rect fill="#FEFECE" filter="url(#f15lul0ss2fxab)" height="30.2969" style="stroke:#A80036;stroke-width:1.5;" width="65" x="350" y="5"/><text fill="#000000" font-family="sans-serif" font-size="14" lengthAdjust="spacing" textLength="51" x="357" y="24.9951">: Game</text><rect fill="#FEFECE" filter="url(#f15lul0ss2fxab)" height="30.2969" style="stroke:#A80036;stroke-width:1.5;" width="65" x="350" y="188.6953"/><text fill="#000000" font-family="sans-serif" font-size="14" lengthAdjust="spacing" textLength="51" x="357" y="208.6904">: Game</text><rect fill="#FFFFFF" filter="url(#f15lul0ss2fxab)" height="100.2656" style="stroke:#A80036;stroke-width:1.0;" width="10" x="114.5" y="71.4297"/><rect fill="#FFFFFF" filter="url(#f15lul0ss2fxab)" height="14" style="stroke:#A80036;stroke-width:1.0;" width="10" x="287" y="100.5625"/><rect fill="#FFFFFF" filter="url(#f15lul0ss2fxab)" height="14" style="stroke:#A80036;stroke-width:1.0;" width="10" x="379.5" y="143.6953"/><polygon fill="#A80036" points="102.5,67.4297,112.5,71.4297,102.5,75.4297,106.5,71.4297" style="stroke:#A80036;stroke-width:1.0;"/><line style="stroke:#A80036;stroke-width:1.0;" x1="0" x2="108.5" y1="71.4297" y2="71.4297"/><text fill="#000000" font-family="sans-serif" font-size="13" lengthAdjust="spacing" textLength="29" x="7" y="66.3638">die()</text><polygon fill="#A80036" points="275,96.5625,285,100.5625,275,104.5625,279,100.5625" style="stroke:#A80036;stroke-width:1.0;"/><line style="stroke:#A80036;stroke-width:1.0;" x1="124.5" x2="281" y1="100.5625" y2="100.5625"/><text fill="#000000" font-family="sans-serif" font-size="13" lengthAdjust="spacing" textLength="111" x="131.5" y="95.4966">removeWorker(r)</text><polygon fill="#A80036" points="135.5,110.5625,125.5,114.5625,135.5,118.5625,131.5,114.5625" style="stroke:#A80036;stroke-width:1.0;"/><line style="stroke:#A80036;stroke-width:1.0;stroke-dasharray:2.0,2.0;" x1="129.5" x2="291" y1="114.5625" y2="114.5625"/><polygon fill="#A80036" points="367.5,139.6953,377.5,143.6953,367.5,147.6953,371.5,143.6953" style="stroke:#A80036;stroke-width:1.0;"/><line style="stroke:#A80036;stroke-width:1.0;" x1="124.5" x2="373.5" y1="143.6953" y2="143.6953"/><text fill="#000000" font-family="sans-serif" font-size="13" lengthAdjust="spacing" textLength="145" x="131.5" y="138.6294">removeSteppable(ufo)</text><polygon fill="#A80036" points="135.5,153.6953,125.5,157.6953,135.5,161.6953,131.5,157.6953" style="stroke:#A80036;stroke-width:1.0;"/><line style="stroke:#A80036;stroke-width:1.0;stroke-dasharray:2.0,2.0;" x1="129.5" x2="383.5" y1="157.6953" y2="157.6953"/><polygon fill="#A80036" points="11,167.6953,1,171.6953,11,175.6953,7,171.6953" style="stroke:#A80036;stroke-width:1.0;"/><line style="stroke:#A80036;stroke-width:1.0;stroke-dasharray:2.0,2.0;" x1="5" x2="118.5" y1="171.6953" y2="171.6953"/><line style="stroke:#A80036;stroke-width:2.0;" x1="110.5" x2="128.5" y1="162.6953" y2="180.6953"/><line style="stroke:#A80036;stroke-width:2.0;" x1="110.5" x2="128.5" y1="180.6953" y2="162.6953"/><!--MD5=[a1a6ee0f0f71b91ec06117613b19f247]
@startuml
participant "ufo: UnidentifiedFlyingObject" as ufo
participant "a: Asteroid" as a
participant ": Game" as game

[->ufo ++: die()
    ufo->a ++: removeWorker(r)
    return
    ufo->game ++: removeSteppable(ufo)
    return
return
destroy ufo
@enduml

PlantUML version 1.2021.4beta2(Unknown compile time)
(GPL source distribution)
Java Runtime: Java(TM) SE Runtime Environment
JVM: Java HotSpot(TM) 64-Bit Server VM
Default Encoding: UTF-8
Language: en
Country: US
--></g></svg>