<?xml version="1.0" encoding="UTF-8" standalone="no"?><svg xmlns="http://www.w3.org/2000/svg" xmlns:xlink="http://www.w3.org/1999/xlink" contentScriptType="application/ecmascript" contentStyleType="text/css" height="215px" preserveAspectRatio="none" style="width:244px;height:215px;" version="1.1" viewBox="0 0 244 215" width="244px" zoomAndPan="magnify"><defs><filter height="300%" id="f5mp0o8wvx5o9" width="300%" x="-1" y="-1"><feGaussianBlur result="blurOut" stdDeviation="2.0"/><feColorMatrix in="blurOut" result="blurOut2" type="matrix" values="0 0 0 0 0 0 0 0 0 0 0 0 0 0 0 0 0 0 .4 0"/><feOffset dx="4.0" dy="4.0" in="blurOut2" result="blurOut3"/><feBlend in="SourceGraphic" in2="blurOut3" mode="normal"/></filter></defs><g><rect fill="#FFFFFF" filter="url(#f5mp0o8wvx5o9)" height="83.1328" style="stroke:#A80036;stroke-width:1.0;" width="10" x="114.5" y="71.4297"/><rect fill="#FFFFFF" filter="url(#f5mp0o8wvx5o9)" height="25" style="stroke:#A80036;stroke-width:1.0;" width="10" x="119.5" y="108.5625"/><line style="stroke:#A80036;stroke-width:1.0;stroke-dasharray:5.0,5.0;" x1="119" x2="119" y1="40.2969" y2="172.5625"/><rect fill="#FEFECE" filter="url(#f5mp0o8wvx5o9)" height="30.2969" style="stroke:#A80036;stroke-width:1.5;" width="225" x="5" y="5"/><text fill="#000000" font-family="sans-serif" font-size="14" lengthAdjust="spacing" textLength="211" x="12" y="24.9951">ufo: UnidentifiedFlyingObject</text><rect fill="#FEFECE" filter="url(#f5mp0o8wvx5o9)" height="30.2969" style="stroke:#A80036;stroke-width:1.5;" width="225" x="5" y="171.5625"/><text fill="#000000" font-family="sans-serif" font-size="14" lengthAdjust="spacing" textLength="211" x="12" y="191.5576">ufo: UnidentifiedFlyingObject</text><rect fill="#FFFFFF" filter="url(#f5mp0o8wvx5o9)" height="83.1328" style="stroke:#A80036;stroke-width:1.0;" width="10" x="114.5" y="71.4297"/><rect fill="#FFFFFF" filter="url(#f5mp0o8wvx5o9)" height="25" style="stroke:#A80036;stroke-width:1.0;" width="10" x="119.5" y="108.5625"/><polygon fill="#A80036" points="102.5,67.4297,112.5,71.4297,102.5,75.4297,106.5,71.4297" style="stroke:#A80036;stroke-width:1.0;"/><line style="stroke:#A80036;stroke-width:1.0;" x1="0" x2="108.5" y1="71.4297" y2="71.4297"/><text fill="#000000" font-family="sans-serif" font-size="13" lengthAdjust="spacing" textLength="61" x="7" y="66.3638">explode()</text><line style="stroke:#A80036;stroke-width:1.0;" x1="124.5" x2="171.5" y1="95.5625" y2="95.5625"/><line style="stroke:#A80036;stroke-width:1.0;" x1="171.5" x2="171.5" y1="95.5625" y2="108.5625"/><line style="stroke:#A80036;stroke-width:1.0;" x1="130.5" x2="171.5" y1="108.5625" y2="108.5625"/><polygon fill="#A80036" points="140.5,104.5625,130.5,108.5625,140.5,112.5625,136.5,108.5625" style="stroke:#A80036;stroke-width:1.0;"/><text fill="#000000" font-family="sans-serif" font-size="13" lengthAdjust="spacing" textLength="29" x="136.5" y="90.4966">die()</text><line style="stroke:#A80036;stroke-width:1.0;stroke-dasharray:2.0,2.0;" x1="129.5" x2="171.5" y1="132.5625" y2="132.5625"/><line style="stroke:#A80036;stroke-width:1.0;stroke-dasharray:2.0,2.0;" x1="171.5" x2="171.5" y1="132.5625" y2="145.5625"/><line style="stroke:#A80036;stroke-width:1.0;stroke-dasharray:2.0,2.0;" x1="124.5" x2="171.5" y1="145.5625" y2="145.5625"/><polygon fill="#A80036" points="134.5,141.5625,124.5,145.5625,134.5,149.5625,130.5,145.5625" style="stroke:#A80036;stroke-width:1.0;"/><polygon fill="#A80036" points="11,150.5625,1,154.5625,11,158.5625,7,154.5625" style="stroke:#A80036;stroke-width:1.0;"/><line style="stroke:#A80036;stroke-width:1.0;stroke-dasharray:2.0,2.0;" x1="5" x2="118.5" y1="154.5625" y2="154.5625"/><!--MD5=[d26804ac021bfc163eda4c86c25f1492]
@startuml
participant "ufo: UnidentifiedFlyingObject" as ufo

[-> ufo ++: explode()
    ufo->ufo ++:die()
    return
return
@enduml

PlantUML version 1.2021.4beta2(Unknown compile time)
(GPL source distribution)
Java Runtime: Java(TM) SE Runtime Environment
JVM: Java HotSpot(TM) 64-Bit Server VM
Default Encoding: UTF-8
Language: en
Country: US
--></g></svg>