<?xml version="1.0" encoding="UTF-8" standalone="no"?><svg xmlns="http://www.w3.org/2000/svg" xmlns:xlink="http://www.w3.org/1999/xlink" contentScriptType="application/ecmascript" contentStyleType="text/css" height="279px" preserveAspectRatio="none" style="width:458px;height:279px;" version="1.1" viewBox="0 0 458 279" width="458px" zoomAndPan="magnify"><defs><filter height="300%" id="f1kkc8om9tj0v8" width="300%" x="-1" y="-1"><feGaussianBlur result="blurOut" stdDeviation="2.0"/><feColorMatrix in="blurOut" result="blurOut2" type="matrix" values="0 0 0 0 0 0 0 0 0 0 0 0 0 0 0 0 0 0 .4 0"/><feOffset dx="4.0" dy="4.0" in="blurOut2" result="blurOut3"/><feBlend in="SourceGraphic" in2="blurOut3" mode="normal"/></filter></defs><g><rect fill="#FFFFFF" filter="url(#f1kkc8om9tj0v8)" height="146.5313" style="stroke:#A80036;stroke-width:1.0;" width="10" x="94" y="71.4297"/><rect fill="#FFFFFF" filter="url(#f1kkc8om9tj0v8)" height="14" style="stroke:#A80036;stroke-width:1.0;" width="10" x="240" y="182.9609"/><rect fill="#FFFFFF" filter="url(#f1kkc8om9tj0v8)" height="29.1328" style="stroke:#A80036;stroke-width:1.0;" width="10" x="370.5" y="100.5625"/><rect fill="#FFFFFF" filter="url(#f1kkc8om9tj0v8)" height="60.2656" style="stroke:#000000;stroke-width:2.0;" width="259.5" x="43.5" y="144.6953"/><line style="stroke:#A80036;stroke-width:1.0;stroke-dasharray:5.0,5.0;" x1="98.5" x2="98.5" y1="40.2969" y2="235.9609"/><line style="stroke:#A80036;stroke-width:1.0;stroke-dasharray:5.0,5.0;" x1="245" x2="245" y1="40.2969" y2="235.9609"/><line style="stroke:#A80036;stroke-width:1.0;stroke-dasharray:5.0,5.0;" x1="375" x2="375" y1="40.2969" y2="235.9609"/><rect fill="#FEFECE" filter="url(#f1kkc8om9tj0v8)" height="30.2969" style="stroke:#A80036;stroke-width:1.5;" width="87" x="53.5" y="5"/><text fill="#000000" font-family="sans-serif" font-size="14" lengthAdjust="spacing" textLength="73" x="60.5" y="24.9951">w: Worker</text><rect fill="#FEFECE" filter="url(#f1kkc8om9tj0v8)" height="30.2969" style="stroke:#A80036;stroke-width:1.5;" width="87" x="53.5" y="234.9609"/><text fill="#000000" font-family="sans-serif" font-size="14" lengthAdjust="spacing" textLength="73" x="60.5" y="254.9561">w: Worker</text><rect fill="#FEFECE" filter="url(#f1kkc8om9tj0v8)" height="30.2969" style="stroke:#A80036;stroke-width:1.5;" width="92" x="197" y="5"/><text fill="#000000" font-family="sans-serif" font-size="14" lengthAdjust="spacing" textLength="78" x="204" y="24.9951">a: Asteroid</text><rect fill="#FEFECE" filter="url(#f1kkc8om9tj0v8)" height="30.2969" style="stroke:#A80036;stroke-width:1.5;" width="92" x="197" y="234.9609"/><text fill="#000000" font-family="sans-serif" font-size="14" lengthAdjust="spacing" textLength="78" x="204" y="254.9561">a: Asteroid</text><rect fill="#FEFECE" filter="url(#f1kkc8om9tj0v8)" height="30.2969" style="stroke:#A80036;stroke-width:1.5;" width="141" x="303" y="5"/><text fill="#000000" font-family="sans-serif" font-size="14" lengthAdjust="spacing" textLength="127" x="310" y="24.9951">dest: Transporter</text><rect fill="#FEFECE" filter="url(#f1kkc8om9tj0v8)" height="30.2969" style="stroke:#A80036;stroke-width:1.5;" width="141" x="303" y="234.9609"/><text fill="#000000" font-family="sans-serif" font-size="14" lengthAdjust="spacing" textLength="127" x="310" y="254.9561">dest: Transporter</text><rect fill="#FFFFFF" filter="url(#f1kkc8om9tj0v8)" height="146.5313" style="stroke:#A80036;stroke-width:1.0;" width="10" x="94" y="71.4297"/><rect fill="#FFFFFF" filter="url(#f1kkc8om9tj0v8)" height="14" style="stroke:#A80036;stroke-width:1.0;" width="10" x="240" y="182.9609"/><rect fill="#FFFFFF" filter="url(#f1kkc8om9tj0v8)" height="29.1328" style="stroke:#A80036;stroke-width:1.0;" width="10" x="370.5" y="100.5625"/><polygon fill="#A80036" points="82,67.4297,92,71.4297,82,75.4297,86,71.4297" style="stroke:#A80036;stroke-width:1.0;"/><line style="stroke:#A80036;stroke-width:1.0;" x1="0" x2="88" y1="71.4297" y2="71.4297"/><text fill="#000000" font-family="sans-serif" font-size="13" lengthAdjust="spacing" textLength="75" x="7" y="66.3638">move(dest)</text><polygon fill="#A80036" points="358.5,96.5625,368.5,100.5625,358.5,104.5625,362.5,100.5625" style="stroke:#A80036;stroke-width:1.0;"/><line style="stroke:#A80036;stroke-width:1.0;" x1="104" x2="364.5" y1="100.5625" y2="100.5625"/><text fill="#000000" font-family="sans-serif" font-size="13" lengthAdjust="spacing" textLength="110" x="111" y="95.4966">acceptWorker(w)</text><polygon fill="#A80036" points="115,125.6953,105,129.6953,115,133.6953,111,129.6953" style="stroke:#A80036;stroke-width:1.0;"/><line style="stroke:#A80036;stroke-width:1.0;stroke-dasharray:2.0,2.0;" x1="109" x2="374.5" y1="129.6953" y2="129.6953"/><text fill="#000000" font-family="sans-serif" font-size="13" lengthAdjust="spacing" textLength="95" x="121" y="124.6294">acceptSuccess</text><path d="M43.5,144.6953 L115.5,144.6953 L115.5,151.6953 L105.5,161.6953 L43.5,161.6953 L43.5,144.6953 " fill="#EEEEEE" style="stroke:#000000;stroke-width:1.0;"/><rect fill="none" height="60.2656" style="stroke:#000000;stroke-width:2.0;" width="259.5" x="43.5" y="144.6953"/><text fill="#000000" font-family="sans-serif" font-size="13" font-weight="bold" lengthAdjust="spacing" textLength="27" x="58.5" y="157.7622">opt</text><text fill="#000000" font-family="sans-serif" font-size="11" font-weight="bold" lengthAdjust="spacing" textLength="162" x="130.5" y="156.9058">[acceptSuccess == true]</text><polygon fill="#A80036" points="228,178.9609,238,182.9609,228,186.9609,232,182.9609" style="stroke:#A80036;stroke-width:1.0;"/><line style="stroke:#A80036;stroke-width:1.0;" x1="104" x2="234" y1="182.9609" y2="182.9609"/><text fill="#000000" font-family="sans-serif" font-size="13" lengthAdjust="spacing" textLength="117" x="111" y="177.895">removeWorker(w)</text><polygon fill="#A80036" points="115,192.9609,105,196.9609,115,200.9609,111,196.9609" style="stroke:#A80036;stroke-width:1.0;"/><line style="stroke:#A80036;stroke-width:1.0;stroke-dasharray:2.0,2.0;" x1="109" x2="244" y1="196.9609" y2="196.9609"/><polygon fill="#A80036" points="11,213.9609,1,217.9609,11,221.9609,7,217.9609" style="stroke:#A80036;stroke-width:1.0;"/><line style="stroke:#A80036;stroke-width:1.0;stroke-dasharray:2.0,2.0;" x1="5" x2="98" y1="217.9609" y2="217.9609"/><!--MD5=[30d606e2343c80bedd7908cb384e11e4]
@startuml
participant "w: Worker" as w
participant "a: Asteroid" as a1
participant "dest: Transporter" as dest


[->w: move(dest)
activate w
        w->dest ++:acceptWorker(w)
		dest- ->w - -: acceptSuccess
        
        opt acceptSuccess == true
            w->a1 ++:removeWorker(w)
		    a1- ->w - -
		end
        
return
@enduml

PlantUML version 1.2021.2beta14(Unknown compile time)
(GPL source distribution)
Java Runtime: Java(TM) SE Runtime Environment
JVM: Java HotSpot(TM) 64-Bit Server VM
Default Encoding: UTF-8
Language: en
Country: US
--></g></svg>