<?xml version="1.0" encoding="UTF-8" standalone="no"?><svg xmlns="http://www.w3.org/2000/svg" xmlns:xlink="http://www.w3.org/1999/xlink" contentScriptType="application/ecmascript" contentStyleType="text/css" height="348px" preserveAspectRatio="none" style="width:396px;height:348px;" version="1.1" viewBox="0 0 396 348" width="396px" zoomAndPan="magnify"><defs><filter height="300%" id="f13vdfsffs2s63" width="300%" x="-1" y="-1"><feGaussianBlur result="blurOut" stdDeviation="2.0"/><feColorMatrix in="blurOut" result="blurOut2" type="matrix" values="0 0 0 0 0 0 0 0 0 0 0 0 0 0 0 0 0 0 .4 0"/><feOffset dx="4.0" dy="4.0" in="blurOut2" result="blurOut3"/><feBlend in="SourceGraphic" in2="blurOut3" mode="normal"/></filter></defs><g><rect fill="#FFFFFF" filter="url(#f13vdfsffs2s63)" height="215.6641" style="stroke:#A80036;stroke-width:1.0;" width="10" x="51" y="71.4297"/><rect fill="#FFFFFF" filter="url(#f13vdfsffs2s63)" height="172.5313" style="stroke:#A80036;stroke-width:1.0;" width="10" x="154.5" y="100.5625"/><rect fill="#FFFFFF" filter="url(#f13vdfsffs2s63)" height="40.1328" style="stroke:#A80036;stroke-width:1.0;" width="10" x="159.5" y="137.6953"/><rect fill="#FFFFFF" filter="url(#f13vdfsffs2s63)" height="14" style="stroke:#A80036;stroke-width:1.0;" width="10" x="271" y="238.0938"/><rect fill="#FFFFFF" filter="url(#f13vdfsffs2s63)" height="60.2656" style="stroke:#000000;stroke-width:2.0;" width="281" x="101.5" y="199.8281"/><line style="stroke:#A80036;stroke-width:1.0;stroke-dasharray:5.0,5.0;" x1="55.5" x2="55.5" y1="40.2969" y2="305.0938"/><line style="stroke:#A80036;stroke-width:1.0;stroke-dasharray:5.0,5.0;" x1="159.5" x2="159.5" y1="40.2969" y2="305.0938"/><line style="stroke:#A80036;stroke-width:1.0;stroke-dasharray:5.0,5.0;" x1="275.5" x2="275.5" y1="40.2969" y2="305.0938"/><rect fill="#FEFECE" filter="url(#f13vdfsffs2s63)" height="30.2969" style="stroke:#A80036;stroke-width:1.5;" width="87" x="10.5" y="5"/><text fill="#000000" font-family="sans-serif" font-size="14" lengthAdjust="spacing" textLength="73" x="17.5" y="24.9951">w: Worker</text><rect fill="#FEFECE" filter="url(#f13vdfsffs2s63)" height="30.2969" style="stroke:#A80036;stroke-width:1.5;" width="87" x="10.5" y="304.0938"/><text fill="#000000" font-family="sans-serif" font-size="14" lengthAdjust="spacing" textLength="73" x="17.5" y="324.0889">w: Worker</text><rect fill="#FEFECE" filter="url(#f13vdfsffs2s63)" height="30.2969" style="stroke:#A80036;stroke-width:1.5;" width="92" x="111.5" y="5"/><text fill="#000000" font-family="sans-serif" font-size="14" lengthAdjust="spacing" textLength="78" x="118.5" y="24.9951">a: Asteroid</text><rect fill="#FEFECE" filter="url(#f13vdfsffs2s63)" height="30.2969" style="stroke:#A80036;stroke-width:1.5;" width="92" x="111.5" y="304.0938"/><text fill="#000000" font-family="sans-serif" font-size="14" lengthAdjust="spacing" textLength="78" x="118.5" y="324.0889">a: Asteroid</text><rect fill="#FEFECE" filter="url(#f13vdfsffs2s63)" height="30.2969" style="stroke:#A80036;stroke-width:1.5;" width="113" x="217.5" y="5"/><text fill="#000000" font-family="sans-serif" font-size="14" lengthAdjust="spacing" textLength="99" x="224.5" y="24.9951">core: Material</text><rect fill="#FEFECE" filter="url(#f13vdfsffs2s63)" height="30.2969" style="stroke:#A80036;stroke-width:1.5;" width="113" x="217.5" y="304.0938"/><text fill="#000000" font-family="sans-serif" font-size="14" lengthAdjust="spacing" textLength="99" x="224.5" y="324.0889">core: Material</text><rect fill="#FFFFFF" filter="url(#f13vdfsffs2s63)" height="215.6641" style="stroke:#A80036;stroke-width:1.0;" width="10" x="51" y="71.4297"/><rect fill="#FFFFFF" filter="url(#f13vdfsffs2s63)" height="172.5313" style="stroke:#A80036;stroke-width:1.0;" width="10" x="154.5" y="100.5625"/><rect fill="#FFFFFF" filter="url(#f13vdfsffs2s63)" height="40.1328" style="stroke:#A80036;stroke-width:1.0;" width="10" x="159.5" y="137.6953"/><rect fill="#FFFFFF" filter="url(#f13vdfsffs2s63)" height="14" style="stroke:#A80036;stroke-width:1.0;" width="10" x="271" y="238.0938"/><polygon fill="#A80036" points="39,67.4297,49,71.4297,39,75.4297,43,71.4297" style="stroke:#A80036;stroke-width:1.0;"/><line style="stroke:#A80036;stroke-width:1.0;" x1="0" x2="45" y1="71.4297" y2="71.4297"/><text fill="#000000" font-family="sans-serif" font-size="13" lengthAdjust="spacing" textLength="32" x="7" y="66.3638">drill()</text><polygon fill="#A80036" points="142.5,96.5625,152.5,100.5625,142.5,104.5625,146.5,100.5625" style="stroke:#A80036;stroke-width:1.0;"/><line style="stroke:#A80036;stroke-width:1.0;" x1="61" x2="148.5" y1="100.5625" y2="100.5625"/><text fill="#000000" font-family="sans-serif" font-size="13" lengthAdjust="spacing" textLength="48" x="68" y="95.4966">drilled()</text><line style="stroke:#A80036;stroke-width:1.0;" x1="164.5" x2="211.5" y1="124.6953" y2="124.6953"/><line style="stroke:#A80036;stroke-width:1.0;" x1="211.5" x2="211.5" y1="124.6953" y2="137.6953"/><line style="stroke:#A80036;stroke-width:1.0;" x1="170.5" x2="211.5" y1="137.6953" y2="137.6953"/><polygon fill="#A80036" points="180.5,133.6953,170.5,137.6953,180.5,141.6953,176.5,137.6953" style="stroke:#A80036;stroke-width:1.0;"/><text fill="#000000" font-family="sans-serif" font-size="13" lengthAdjust="spacing" textLength="75" x="176.5" y="119.6294">isExposed()</text><line style="stroke:#A80036;stroke-width:1.0;stroke-dasharray:2.0,2.0;" x1="169.5" x2="211.5" y1="176.8281" y2="176.8281"/><line style="stroke:#A80036;stroke-width:1.0;stroke-dasharray:2.0,2.0;" x1="211.5" x2="211.5" y1="176.8281" y2="189.8281"/><line style="stroke:#A80036;stroke-width:1.0;stroke-dasharray:2.0,2.0;" x1="164.5" x2="211.5" y1="189.8281" y2="189.8281"/><polygon fill="#A80036" points="174.5,185.8281,164.5,189.8281,174.5,193.8281,170.5,189.8281" style="stroke:#A80036;stroke-width:1.0;"/><text fill="#000000" font-family="sans-serif" font-size="13" lengthAdjust="spacing" textLength="65" x="176.5" y="171.7622">isExposed</text><path d="M101.5,199.8281 L173.5,199.8281 L173.5,206.8281 L163.5,216.8281 L101.5,216.8281 L101.5,199.8281 " fill="#EEEEEE" style="stroke:#000000;stroke-width:1.0;"/><rect fill="none" height="60.2656" style="stroke:#000000;stroke-width:2.0;" width="281" x="101.5" y="199.8281"/><text fill="#000000" font-family="sans-serif" font-size="13" font-weight="bold" lengthAdjust="spacing" textLength="27" x="116.5" y="212.895">opt</text><text fill="#000000" font-family="sans-serif" font-size="11" font-weight="bold" lengthAdjust="spacing" textLength="189" x="188.5" y="212.0386">[isExposed &amp;&amp; core not null]</text><polygon fill="#A80036" points="259,234.0938,269,238.0938,259,242.0938,263,238.0938" style="stroke:#A80036;stroke-width:1.0;"/><line style="stroke:#A80036;stroke-width:1.0;" x1="164.5" x2="265" y1="238.0938" y2="238.0938"/><text fill="#000000" font-family="sans-serif" font-size="13" lengthAdjust="spacing" textLength="57" x="171.5" y="233.0278">expose()</text><polygon fill="#A80036" points="175.5,248.0938,165.5,252.0938,175.5,256.0938,171.5,252.0938" style="stroke:#A80036;stroke-width:1.0;"/><line style="stroke:#A80036;stroke-width:1.0;stroke-dasharray:2.0,2.0;" x1="169.5" x2="275" y1="252.0938" y2="252.0938"/><polygon fill="#A80036" points="72,269.0938,62,273.0938,72,277.0938,68,273.0938" style="stroke:#A80036;stroke-width:1.0;"/><line style="stroke:#A80036;stroke-width:1.0;stroke-dasharray:2.0,2.0;" x1="66" x2="158.5" y1="273.0938" y2="273.0938"/><polygon fill="#A80036" points="11,283.0938,1,287.0938,11,291.0938,7,287.0938" style="stroke:#A80036;stroke-width:1.0;"/><line style="stroke:#A80036;stroke-width:1.0;stroke-dasharray:2.0,2.0;" x1="5" x2="55" y1="287.0938" y2="287.0938"/><!--MD5=[7dad003c75a4c0668cf857d56b8076c1]
@startuml
participant "w: Worker" as w
participant "a: Asteroid" as a
participant "core: Material" as core

[->w ++: drill()
    w->a ++ :drilled()
        a->a ++: isExposed() 
        return isExposed
            opt isExposed && core not null 
                a->core ++: expose()
            return
        end
    return
return
@enduml

PlantUML version 1.2021.2beta9(Unknown compile time)
(GPL source distribution)
Java Runtime: Java(TM) SE Runtime Environment
JVM: Java HotSpot(TM) 64-Bit Server VM
Default Encoding: UTF-8
Language: en
Country: US
--></g></svg>