<?xml version="1.0" encoding="UTF-8" standalone="no"?><svg xmlns="http://www.w3.org/2000/svg" xmlns:xlink="http://www.w3.org/1999/xlink" contentScriptType="application/ecmascript" contentStyleType="text/css" height="216px" preserveAspectRatio="none" style="width:1289px;height:216px;" version="1.1" viewBox="0 0 1289 216" width="1289px" zoomAndPan="magnify"><defs><filter height="300%" id="f4crap87646u4" width="300%" x="-1" y="-1"><feGaussianBlur result="blurOut" stdDeviation="2.0"/><feColorMatrix in="blurOut" result="blurOut2" type="matrix" values="0 0 0 0 0 0 0 0 0 0 0 0 0 0 0 0 0 0 .4 0"/><feOffset dx="4.0" dy="4.0" in="blurOut2" result="blurOut3"/><feBlend in="SourceGraphic" in2="blurOut3" mode="normal"/></filter></defs><g><g id="cc"><rect fill="#FEFECE" filter="url(#f4crap87646u4)" height="64.2344" rx="12.5" ry="12.5" style="stroke:#A80036;stroke-width:1.5;" width="191" x="87" y="138"/><line style="stroke:#A80036;stroke-width:1.5;" x1="87" x2="278" y1="164.2969" y2="164.2969"/><text fill="#000000" font-family="sans-serif" font-size="14" lengthAdjust="spacing" textLength="98" x="133.5" y="155.9951">Core Covered</text><text fill="#000000" font-family="sans-serif" font-size="12" lengthAdjust="spacing" textLength="171" x="92" y="180.4355">Az aszteroida köpenye még</text><text fill="#000000" font-family="sans-serif" font-size="12" lengthAdjust="spacing" textLength="127" x="92" y="194.4043">nincs teljesen kifúrva</text></g><g id="ce"><rect fill="#FEFECE" filter="url(#f4crap87646u4)" height="64.2344" rx="12.5" ry="12.5" style="stroke:#A80036;stroke-width:1.5;" width="212" x="703" y="68"/><line style="stroke:#A80036;stroke-width:1.5;" x1="703" x2="915" y1="94.2969" y2="94.2969"/><text fill="#000000" font-family="sans-serif" font-size="14" lengthAdjust="spacing" textLength="99" x="759.5" y="85.9951">Core Exposed</text><text fill="#000000" font-family="sans-serif" font-size="12" lengthAdjust="spacing" textLength="192" x="708" y="110.4355">Az aszteroida köpenye teljesen</text><text fill="#000000" font-family="sans-serif" font-size="12" lengthAdjust="spacing" textLength="69" x="708" y="124.4043">ki van fúrva</text></g><g id="cm"><rect fill="#FEFECE" filter="url(#f4crap87646u4)" height="64.2344" rx="12.5" ry="12.5" style="stroke:#A80036;stroke-width:1.5;" width="204" x="1071" y="33"/><line style="stroke:#A80036;stroke-width:1.5;" x1="1071" x2="1275" y1="59.2969" y2="59.2969"/><text fill="#000000" font-family="sans-serif" font-size="14" lengthAdjust="spacing" textLength="81" x="1132.5" y="50.9951">Core Mined</text><text fill="#000000" font-family="sans-serif" font-size="12" lengthAdjust="spacing" textLength="184" x="1076" y="75.4355">Az aszteroida belseje teljesen</text><text fill="#000000" font-family="sans-serif" font-size="12" lengthAdjust="spacing" textLength="103" x="1076" y="89.4043">ki van bányászva</text></g><ellipse cx="16" cy="170" fill="#000000" filter="url(#f4crap87646u4)" rx="10" ry="10" style="stroke:none;stroke-width:1.0;"/><ellipse cx="1173" cy="161" filter="url(#f4crap87646u4)" rx="10" ry="10" style="stroke:#000000;stroke-width:1.0;fill:none;"/><ellipse cx="1173.5" cy="161.5" fill="#000000" rx="6" ry="6" style="stroke:none;stroke-width:1.0;"/><!--MD5=[c67c3c9579e76b789511d941413488ca]
link *start to cc--><path d="M26.3156,170 C37.8157,170 58.6631,170 81.4237,170 " fill="none" id="*start-to-cc" style="stroke:#A80036;stroke-width:1.0;"/><polygon fill="#A80036" points="86.6175,170,77.6175,166,81.6175,170,77.6175,174,86.6175,170" style="stroke:#A80036;stroke-width:1.0;"/><!--MD5=[1f0083480f7d074c01316f37f4a5b0be]
link cc to cc--><path d="M160.088,137.9448 C155.711,119.7998 163.182,103 182.5,103 C200.007,103 207.784,116.7975 205.831,132.8897 " fill="none" id="cc-to-cc" style="stroke:#A80036;stroke-width:1.0;"/><polygon fill="#A80036" points="204.912,137.9448,210.457,129.8052,205.8062,133.0254,202.586,128.3746,204.912,137.9448" style="stroke:#A80036;stroke-width:1.0;"/><text fill="#000000" font-family="sans-serif" font-size="13" lengthAdjust="spacing" textLength="335" x="15" y="94.0669">drilled() [layersDrilled - 1 &lt; layer] / layersDrilled +=1</text><!--MD5=[293fa628af747ec0c7e8cb850c1d8e36]
link cc to ce--><path d="M278.009,159.4065 C390.648,146.7809 578.561,125.7178 697.726,112.3605 " fill="none" id="cc-to-ce" style="stroke:#A80036;stroke-width:1.0;"/><polygon fill="#A80036" points="702.995,111.77,693.6053,108.7978,698.0261,112.3271,694.4968,116.7479,702.995,111.77" style="stroke:#A80036;stroke-width:1.0;"/><text fill="#000000" font-family="sans-serif" font-size="13" lengthAdjust="spacing" textLength="363" x="309" y="113.0669">drilled() [layersDrilled - 1 &gt;= layer] / layersDrilled = layer</text><!--MD5=[a9f56cf0fb75a5d4f1b9eee1dd515d53]
link ce to ce--><path d="M776.271,67.945 C769.879,49.8 780.789,33 809,33 C834.566,33 845.923,46.797 843.071,62.89 " fill="none" id="ce-to-ce" style="stroke:#A80036;stroke-width:1.0;"/><polygon fill="#A80036" points="841.729,67.945,847.9042,60.2725,843.0118,63.1124,840.1719,58.22,841.729,67.945" style="stroke:#A80036;stroke-width:1.0;"/><text fill="#000000" font-family="sans-serif" font-size="13" lengthAdjust="spacing" textLength="48" x="785" y="24.0669">drilled()</text><!--MD5=[cae3c36886b439ef1e5df873d2fdcd82]
link ce to cm--><path d="M915.287,70.89 C925.271,68.915 935.288,67.226 945,66 C984.197,61.052 1027.51,59.826 1065.69,60.166 " fill="none" id="ce-to-cm" style="stroke:#A80036;stroke-width:1.0;"/><polygon fill="#A80036" points="1070.81,60.221,1061.8563,56.1184,1065.8103,60.1639,1061.7649,64.1179,1070.81,60.221" style="stroke:#A80036;stroke-width:1.0;"/><text fill="#000000" font-family="sans-serif" font-size="13" lengthAdjust="spacing" textLength="50" x="968" y="57.0669">mined()</text><!--MD5=[2c7a29a91d5bfdc6ba4cb680b01b1185]
link cm to ce--><path d="M1070.7,86.738 C1060.7,88.393 1050.67,89.859 1041,91 C1001.805,95.624 958.638,98.024 920.333,99.225 " fill="none" id="cm-to-ce" style="stroke:#A80036;stroke-width:1.0;"/><polygon fill="#A80036" points="915.204,99.38,924.3199,103.1082,920.2018,99.23,924.08,95.1118,915.204,99.38" style="stroke:#A80036;stroke-width:1.0;"/><text fill="#000000" font-family="sans-serif" font-size="13" lengthAdjust="spacing" textLength="94" x="946" y="87.0669">placeMaterial()</text><!--MD5=[59feb18081807ef703742686625a2700]
link ce to *end--><path d="M915.362,118.8817 C925.376,120.6309 935.379,122.3607 945,124 C1025.33,137.6868 1121.85,153.0657 1157.69,158.7407 " fill="none" id="ce-to-*end" style="stroke:#A80036;stroke-width:1.0;"/><polygon fill="#A80036" points="1162.91,159.5664,1154.6352,154.2253,1157.9699,158.7947,1153.4005,162.1295,1162.91,159.5664" style="stroke:#A80036;stroke-width:1.0;"/><text fill="#000000" font-family="sans-serif" font-size="13" lengthAdjust="spacing" textLength="61" x="962.5" y="120.0669">explode()</text><!--MD5=[0a2e9956f44529d3b7baea440ea58773]
link cc to *end--><path d="M278.195,169.9048 C417.639,169.6688 686.421,168.8484 915,166 C1007.29,164.8499 1118.21,162.2945 1157.41,161.3553 " fill="none" id="cc-to-*end" style="stroke:#A80036;stroke-width:1.0;"/><polygon fill="#A80036" points="1162.67,161.2288,1153.5701,157.4615,1157.6717,161.3574,1153.7758,165.4589,1162.67,161.2288" style="stroke:#A80036;stroke-width:1.0;"/><text fill="#000000" font-family="sans-serif" font-size="13" lengthAdjust="spacing" textLength="61" x="778.5" y="162.0669">explode()</text><!--MD5=[5bd7ad7ef08682a461dcbb03d78e8764]
@startuml
left to right direction

state "Core Covered" as cc
state "Core Exposed" as ce
state "Core Mined" as cm

cc: Az aszteroida köpenye még
cc: nincs teljesen kifúrva

ce: Az aszteroida köpenye teljesen
ce: ki van fúrva

cm: Az aszteroida belseje teljesen
cm: ki van bányászva

[*] - -> cc

cc - -> cc : drilled() [layersDrilled - 1 < layer] / layersDrilled +=1

cc - -> ce : drilled() [layersDrilled - 1 >= layer] / layersDrilled = layer

ce - -> ce : drilled()

ce - -> cm: mined()
cm - -> ce: placeMaterial()

ce - -> [*] : explode()
cc - -> [*]: explode()
@enduml

PlantUML version 1.2021.2beta13(Unknown compile time)
(GPL source distribution)
Java Runtime: Java(TM) SE Runtime Environment
JVM: Java HotSpot(TM) 64-Bit Server VM
Default Encoding: UTF-8
Language: en
Country: US
--></g></svg>