<?xml version="1.0" encoding="UTF-8" standalone="no"?><svg xmlns="http://www.w3.org/2000/svg" xmlns:xlink="http://www.w3.org/1999/xlink" contentScriptType="application/ecmascript" contentStyleType="text/css" height="528px" preserveAspectRatio="none" style="width:651px;height:528px;" version="1.1" viewBox="0 0 651 528" width="651px" zoomAndPan="magnify"><defs><filter height="300%" id="fmcn1tg5o7kld" width="300%" x="-1" y="-1"><feGaussianBlur result="blurOut" stdDeviation="2.0"/><feColorMatrix in="blurOut" result="blurOut2" type="matrix" values="0 0 0 0 0 0 0 0 0 0 0 0 0 0 0 0 0 0 .4 0"/><feOffset dx="4.0" dy="4.0" in="blurOut2" result="blurOut3"/><feBlend in="SourceGraphic" in2="blurOut3" mode="normal"/></filter></defs><g><ellipse cx="267.879" cy="16" fill="#000000" filter="url(#fmcn1tg5o7kld)" rx="10" ry="10" style="stroke:none;stroke-width:1.0;"/><g id="NotPlaced"><rect fill="#FEFECE" filter="url(#fmcn1tg5o7kld)" height="50.2656" rx="12.5" ry="12.5" style="stroke:#A80036;stroke-width:1.5;" width="242" x="146.879" y="87"/><line style="stroke:#A80036;stroke-width:1.5;" x1="146.879" x2="388.879" y1="113.2969" y2="113.2969"/><text fill="#000000" font-family="sans-serif" font-size="14" lengthAdjust="spacing" textLength="73" x="231.379" y="104.9951">NotPlaced</text><text fill="#000000" font-family="sans-serif" font-size="12" lengthAdjust="spacing" textLength="222" x="151.879" y="129.4355">Egyik teleport kapu sincs lehelyezve</text></g><g id="PairPlaced"><rect fill="#FEFECE" filter="url(#fmcn1tg5o7kld)" height="64.2344" rx="12.5" ry="12.5" style="stroke:#A80036;stroke-width:1.5;" width="158" x="94.8786" y="214"/><line style="stroke:#A80036;stroke-width:1.5;" x1="94.8786" x2="252.8786" y1="240.2969" y2="240.2969"/><text fill="#000000" font-family="sans-serif" font-size="14" lengthAdjust="spacing" textLength="74" x="136.8786" y="231.9951">PairPlaced</text><text fill="#000000" font-family="sans-serif" font-size="12" lengthAdjust="spacing" textLength="138" x="99.8786" y="256.4355">A teleportkapu párja le</text><text fill="#000000" font-family="sans-serif" font-size="12" lengthAdjust="spacing" textLength="80" x="99.8786" y="270.4043">van helyezve</text></g><g id="Placed"><rect fill="#FEFECE" filter="url(#fmcn1tg5o7kld)" height="64.2344" rx="12.5" ry="12.5" style="stroke:#A80036;stroke-width:1.5;" width="149" x="288.379" y="214"/><line style="stroke:#A80036;stroke-width:1.5;" x1="288.379" x2="437.379" y1="240.2969" y2="240.2969"/><text fill="#000000" font-family="sans-serif" font-size="14" lengthAdjust="spacing" textLength="47" x="339.379" y="231.9951">Placed</text><text fill="#000000" font-family="sans-serif" font-size="12" lengthAdjust="spacing" textLength="129" x="293.379" y="256.4355">A teleportkapu le van</text><text fill="#000000" font-family="sans-serif" font-size="12" lengthAdjust="spacing" textLength="55" x="293.379" y="270.4043">helyezve</text></g><g id="BothPlaced"><rect fill="#FEFECE" filter="url(#fmcn1tg5o7kld)" height="64.2344" rx="12.5" ry="12.5" style="stroke:#A80036;stroke-width:1.5;" width="166" x="251.879" y="355"/><line style="stroke:#A80036;stroke-width:1.5;" x1="251.879" x2="417.879" y1="381.2969" y2="381.2969"/><text fill="#000000" font-family="sans-serif" font-size="14" lengthAdjust="spacing" textLength="82" x="293.879" y="372.9951">BothPlaced</text><text fill="#000000" font-family="sans-serif" font-size="12" lengthAdjust="spacing" textLength="123" x="256.879" y="397.4355">A teleport kapu és a</text><text fill="#000000" font-family="sans-serif" font-size="12" lengthAdjust="spacing" textLength="146" x="256.879" y="411.4043">párja is le van helyezve.</text></g><ellipse cx="262.879" cy="506" filter="url(#fmcn1tg5o7kld)" rx="10" ry="10" style="stroke:#000000;stroke-width:1.0;fill:none;"/><ellipse cx="263.379" cy="506.5" fill="#000000" rx="6" ry="6" style="stroke:none;stroke-width:1.0;"/><!--MD5=[deed68b198a18527c246ab5c197cc93e]
link *start to NotPlaced--><path d="M267.879,26.013 C267.879,38.698 267.879,62.409 267.879,81.57 " fill="none" id="*start-to-NotPlaced" style="stroke:#A80036;stroke-width:1.0;"/><polygon fill="#A80036" points="267.879,86.84,271.879,77.84,267.879,81.84,263.879,77.84,267.879,86.84" style="stroke:#A80036;stroke-width:1.0;"/><!--MD5=[d2dbb14b5778833b307ab33ac2b7705a]
link NotPlaced to PairPlaced--><path d="M245.986,137.083 C238.068,146.203 229.265,156.84 221.879,167 C212.134,180.403 202.369,195.821 194.214,209.391 " fill="none" id="NotPlaced-to-PairPlaced" style="stroke:#A80036;stroke-width:1.0;"/><polygon fill="#A80036" points="191.513,213.917,199.5609,208.2398,194.076,209.6239,192.6919,204.139,191.513,213.917" style="stroke:#A80036;stroke-width:1.0;"/><text fill="#000000" font-family="sans-serif" font-size="13" lengthAdjust="spacing" textLength="79" x="222.879" y="180.0669">pár lerakása</text><!--MD5=[3ef491ed9027776b02657a258832a432]
link NotPlaced to Placed--><path d="M285.366,137.183 C292.096,146.498 299.851,157.24 306.879,167 C316.943,180.976 328.004,196.375 337.619,209.772 " fill="none" id="NotPlaced-to-Placed" style="stroke:#A80036;stroke-width:1.0;"/><polygon fill="#A80036" points="340.554,213.862,338.5547,204.2182,337.6381,209.8003,332.056,208.8837,340.554,213.862" style="stroke:#A80036;stroke-width:1.0;"/><text fill="#000000" font-family="sans-serif" font-size="13" lengthAdjust="spacing" textLength="139" x="318.879" y="180.0669">teleportkapu lerakása</text><!--MD5=[38d523b934105ab66f3d7acc4282a617]
link Placed to BothPlaced--><path d="M356.595,278.194 C352.308,299.477 346.617,327.729 342.136,349.972 " fill="none" id="Placed-to-BothPlaced" style="stroke:#A80036;stroke-width:1.0;"/><polygon fill="#A80036" points="341.141,354.91,346.8392,346.8769,342.1282,350.0084,338.9966,345.2974,341.141,354.91" style="stroke:#A80036;stroke-width:1.0;"/><text fill="#000000" font-family="sans-serif" font-size="13" lengthAdjust="spacing" textLength="79" x="351.879" y="321.0669">pár lerakása</text><!--MD5=[aea2e292dc674b5886dae680b7d9b108]
link PairPlaced to BothPlaced--><path d="M177.751,278.111 C181.094,293.747 187.314,312.068 198.879,325 C211.998,339.67 229.326,351.008 247.204,359.698 " fill="none" id="PairPlaced-to-BothPlaced" style="stroke:#A80036;stroke-width:1.0;"/><polygon fill="#A80036" points="251.759,361.85,245.3324,354.3868,247.2388,359.7128,241.9128,361.6191,251.759,361.85" style="stroke:#A80036;stroke-width:1.0;"/><text fill="#000000" font-family="sans-serif" font-size="13" lengthAdjust="spacing" textLength="139" x="199.879" y="321.0669">teleportkapu lerakása</text><!--MD5=[64979871de444c92858242395873a3ad]
link BothPlaced to *end--><path d="M283.527,419.3133 C273.962,427.6901 265.286,437.6326 259.879,449 C253.568,462.2666 255.739,479.3492 258.585,491.1403 " fill="none" id="BothPlaced-to-*end" style="stroke:#A80036;stroke-width:1.0;"/><polygon fill="#A80036" points="259.913,496.1528,261.4754,486.4287,258.6329,491.3195,253.7421,488.4769,259.913,496.1528" style="stroke:#A80036;stroke-width:1.0;"/><text fill="#000000" font-family="sans-serif" font-size="13" lengthAdjust="spacing" textLength="200" x="260.879" y="462.0669">egyik teleportkapu elpusztítása</text><!--MD5=[0ff3a1e7274feb338972dbc50805f005]
link PairPlaced to *end--><path d="M120.6733,278.198 C69.9243,312.046 6,368.084 40.8786,419 C89.5009,489.9788 205.826,502.3892 247.609,504.5488 " fill="none" id="PairPlaced-to-*end" style="stroke:#A80036;stroke-width:1.0;"/><polygon fill="#A80036" points="252.773,504.7821,243.9627,500.3799,247.7781,504.5564,243.6016,508.3717,252.773,504.7821" style="stroke:#A80036;stroke-width:1.0;"/><text fill="#000000" font-family="sans-serif" font-size="13" lengthAdjust="spacing" textLength="191" x="41.8786" y="391.5669">teleportkapu párja elpusztítva</text><!--MD5=[b2dcb679f03eceebb5b0d7292c4d75c8]
link Placed to *end--><path d="M413.242,278.259 C423.446,286.745 433.109,296.747 439.879,308 C476.565,368.982 511.206,411.135 465.879,466 C441.876,495.0526 320.632,502.6848 277.851,504.4892 " fill="none" id="Placed-to-*end" style="stroke:#A80036;stroke-width:1.0;"/><polygon fill="#A80036" points="272.806,504.69,281.9588,508.3268,277.802,504.49,281.6388,500.3332,272.806,504.69" style="stroke:#A80036;stroke-width:1.0;"/><text fill="#000000" font-family="sans-serif" font-size="13" lengthAdjust="spacing" textLength="155" x="488.879" y="391.5669">teleportkapu elpusztítva</text><!--MD5=[7bb078aa8dda266da8cba4f2d04d5d01]
@startuml
[*] - -> NotPlaced
NotPlaced : Egyik teleport kapu sincs lehelyezve

NotPlaced - -> PairPlaced: pár lerakása
PairPlaced: A teleportkapu párja le
PairPlaced: van helyezve

NotPlaced - -> Placed:teleportkapu lerakása
Placed: A teleportkapu le van
Placed: helyezve

Placed - -> BothPlaced: pár lerakása
PairPlaced- ->BothPlaced: teleportkapu lerakása
BothPlaced: A teleport kapu és a
BothPlaced: párja is le van helyezve.

BothPlaced - -> [*]: egyik teleportkapu elpusztítása
PairPlaced - -> [*]: teleportkapu párja elpusztítva
Placed - -> [*]: teleportkapu elpusztítva
@enduml

PlantUML version 1.2021.2beta9(Unknown compile time)
(GPL source distribution)
Java Runtime: Java(TM) SE Runtime Environment
JVM: Java HotSpot(TM) 64-Bit Server VM
Default Encoding: UTF-8
Language: en
Country: US
--></g></svg>