<?xml version="1.0" encoding="UTF-8" standalone="no"?><svg xmlns="http://www.w3.org/2000/svg" xmlns:xlink="http://www.w3.org/1999/xlink" contentScriptType="application/ecmascript" contentStyleType="text/css" height="460px" preserveAspectRatio="none" style="width:527px;height:460px;" version="1.1" viewBox="0 0 527 460" width="527px" zoomAndPan="magnify"><defs><filter height="300%" id="f1t9qh8vxbf2tl" width="300%" x="-1" y="-1"><feGaussianBlur result="blurOut" stdDeviation="2.0"/><feColorMatrix in="blurOut" result="blurOut2" type="matrix" values="0 0 0 0 0 0 0 0 0 0 0 0 0 0 0 0 0 0 .4 0"/><feOffset dx="4.0" dy="4.0" in="blurOut2" result="blurOut3"/><feBlend in="SourceGraphic" in2="blurOut3" mode="normal"/></filter></defs><g><rect fill="#FFFFFF" filter="url(#f1t9qh8vxbf2tl)" height="238.5313" style="stroke:#A80036;stroke-width:1.0;" width="10" x="128.5" y="119.4297"/><rect fill="#FFFFFF" filter="url(#f1t9qh8vxbf2tl)" height="14" style="stroke:#A80036;stroke-width:1.0;" width="10" x="270.5" y="148.5625"/><rect fill="#FFFFFF" filter="url(#f1t9qh8vxbf2tl)" height="152.2656" style="stroke:#A80036;stroke-width:1.0;" width="10" x="367.5" y="191.6953"/><rect fill="#FFFFFF" filter="url(#f1t9qh8vxbf2tl)" height="25" style="stroke:#A80036;stroke-width:1.0;" width="10" x="372.5" y="228.8281"/><rect fill="#FFFFFF" filter="url(#f1t9qh8vxbf2tl)" height="25" style="stroke:#A80036;stroke-width:1.0;" width="10" x="372.5" y="297.9609"/><line style="stroke:#A80036;stroke-width:1.0;stroke-dasharray:5.0,5.0;" x1="45" x2="45" y1="88.2969" y2="375.9609"/><line style="stroke:#A80036;stroke-width:1.0;stroke-dasharray:5.0,5.0;" x1="133" x2="133" y1="88.2969" y2="375.9609"/><line style="stroke:#A80036;stroke-width:1.0;stroke-dasharray:5.0,5.0;" x1="275.5" x2="275.5" y1="88.2969" y2="375.9609"/><line style="stroke:#A80036;stroke-width:1.0;stroke-dasharray:5.0,5.0;" x1="372.5" x2="372.5" y1="88.2969" y2="375.9609"/><text fill="#000000" font-family="sans-serif" font-size="14" lengthAdjust="spacing" textLength="65" x="10" y="84.9951">Skeleton</text><ellipse cx="45.5" cy="15" fill="#FEFECE" filter="url(#f1t9qh8vxbf2tl)" rx="8" ry="8" style="stroke:#A80036;stroke-width:2.0;"/><path d="M45.5,23 L45.5,50 M32.5,31 L58.5,31 M45.5,50 L32.5,65 M45.5,50 L58.5,65 " fill="none" filter="url(#f1t9qh8vxbf2tl)" style="stroke:#A80036;stroke-width:2.0;"/><text fill="#000000" font-family="sans-serif" font-size="14" lengthAdjust="spacing" textLength="65" x="10" y="387.9561">Skeleton</text><ellipse cx="45.5" cy="401.2578" fill="#FEFECE" filter="url(#f1t9qh8vxbf2tl)" rx="8" ry="8" style="stroke:#A80036;stroke-width:2.0;"/><path d="M45.5,409.2578 L45.5,436.2578 M32.5,417.2578 L58.5,417.2578 M45.5,436.2578 L32.5,451.2578 M45.5,436.2578 L58.5,451.2578 " fill="none" filter="url(#f1t9qh8vxbf2tl)" style="stroke:#A80036;stroke-width:2.0;"/><rect fill="#FEFECE" filter="url(#f1t9qh8vxbf2tl)" height="30.2969" style="stroke:#A80036;stroke-width:1.5;" width="81" x="91" y="53"/><text fill="#000000" font-family="sans-serif" font-size="14" lengthAdjust="spacing" textLength="67" x="98" y="72.9951">s: Settler</text><rect fill="#FEFECE" filter="url(#f1t9qh8vxbf2tl)" height="30.2969" style="stroke:#A80036;stroke-width:1.5;" width="81" x="91" y="374.9609"/><text fill="#000000" font-family="sans-serif" font-size="14" lengthAdjust="spacing" textLength="67" x="98" y="394.9561">s: Settler</text><rect fill="#FEFECE" filter="url(#f1t9qh8vxbf2tl)" height="30.2969" style="stroke:#A80036;stroke-width:1.5;" width="92" x="227.5" y="53"/><text fill="#000000" font-family="sans-serif" font-size="14" lengthAdjust="spacing" textLength="78" x="234.5" y="72.9951">a: Asteroid</text><rect fill="#FEFECE" filter="url(#f1t9qh8vxbf2tl)" height="30.2969" style="stroke:#A80036;stroke-width:1.5;" width="92" x="227.5" y="374.9609"/><text fill="#000000" font-family="sans-serif" font-size="14" lengthAdjust="spacing" textLength="78" x="234.5" y="394.9561">a: Asteroid</text><rect fill="#FEFECE" filter="url(#f1t9qh8vxbf2tl)" height="30.2969" style="stroke:#A80036;stroke-width:1.5;" width="74" x="333.5" y="53"/><text fill="#000000" font-family="sans-serif" font-size="14" lengthAdjust="spacing" textLength="60" x="340.5" y="72.9951">g: Game</text><rect fill="#FEFECE" filter="url(#f1t9qh8vxbf2tl)" height="30.2969" style="stroke:#A80036;stroke-width:1.5;" width="74" x="333.5" y="374.9609"/><text fill="#000000" font-family="sans-serif" font-size="14" lengthAdjust="spacing" textLength="60" x="340.5" y="394.9561">g: Game</text><rect fill="#FFFFFF" filter="url(#f1t9qh8vxbf2tl)" height="238.5313" style="stroke:#A80036;stroke-width:1.0;" width="10" x="128.5" y="119.4297"/><rect fill="#FFFFFF" filter="url(#f1t9qh8vxbf2tl)" height="14" style="stroke:#A80036;stroke-width:1.0;" width="10" x="270.5" y="148.5625"/><rect fill="#FFFFFF" filter="url(#f1t9qh8vxbf2tl)" height="152.2656" style="stroke:#A80036;stroke-width:1.0;" width="10" x="367.5" y="191.6953"/><rect fill="#FFFFFF" filter="url(#f1t9qh8vxbf2tl)" height="25" style="stroke:#A80036;stroke-width:1.0;" width="10" x="372.5" y="228.8281"/><rect fill="#FFFFFF" filter="url(#f1t9qh8vxbf2tl)" height="25" style="stroke:#A80036;stroke-width:1.0;" width="10" x="372.5" y="297.9609"/><polygon fill="#A80036" points="116.5,115.4297,126.5,119.4297,116.5,123.4297,120.5,119.4297" style="stroke:#A80036;stroke-width:1.0;"/><line style="stroke:#A80036;stroke-width:1.0;" x1="45.5" x2="122.5" y1="119.4297" y2="119.4297"/><text fill="#000000" font-family="sans-serif" font-size="13" lengthAdjust="spacing" textLength="29" x="52.5" y="114.3638">die()</text><polygon fill="#A80036" points="258.5,144.5625,268.5,148.5625,258.5,152.5625,262.5,148.5625" style="stroke:#A80036;stroke-width:1.0;"/><line style="stroke:#A80036;stroke-width:1.0;" x1="138.5" x2="264.5" y1="148.5625" y2="148.5625"/><text fill="#000000" font-family="sans-serif" font-size="13" lengthAdjust="spacing" textLength="113" x="145.5" y="143.4966">removeWorker(s)</text><polygon fill="#A80036" points="149.5,158.5625,139.5,162.5625,149.5,166.5625,145.5,162.5625" style="stroke:#A80036;stroke-width:1.0;"/><line style="stroke:#A80036;stroke-width:1.0;stroke-dasharray:2.0,2.0;" x1="143.5" x2="274.5" y1="162.5625" y2="162.5625"/><polygon fill="#A80036" points="355.5,187.6953,365.5,191.6953,355.5,195.6953,359.5,191.6953" style="stroke:#A80036;stroke-width:1.0;"/><line style="stroke:#A80036;stroke-width:1.0;" x1="138.5" x2="361.5" y1="191.6953" y2="191.6953"/><text fill="#000000" font-family="sans-serif" font-size="13" lengthAdjust="spacing" textLength="109" x="145.5" y="186.6294">removeSettler(s)</text><line style="stroke:#A80036;stroke-width:1.0;" x1="377.5" x2="424.5" y1="215.8281" y2="215.8281"/><line style="stroke:#A80036;stroke-width:1.0;" x1="424.5" x2="424.5" y1="215.8281" y2="228.8281"/><line style="stroke:#A80036;stroke-width:1.0;" x1="383.5" x2="424.5" y1="228.8281" y2="228.8281"/><polygon fill="#A80036" points="393.5,224.8281,383.5,228.8281,393.5,232.8281,389.5,228.8281" style="stroke:#A80036;stroke-width:1.0;"/><text fill="#000000" font-family="sans-serif" font-size="13" lengthAdjust="spacing" textLength="131" x="389.5" y="210.7622">removeSteppable(s)</text><line style="stroke:#A80036;stroke-width:1.0;stroke-dasharray:2.0,2.0;" x1="382.5" x2="424.5" y1="252.8281" y2="252.8281"/><line style="stroke:#A80036;stroke-width:1.0;stroke-dasharray:2.0,2.0;" x1="424.5" x2="424.5" y1="252.8281" y2="265.8281"/><line style="stroke:#A80036;stroke-width:1.0;stroke-dasharray:2.0,2.0;" x1="377.5" x2="424.5" y1="265.8281" y2="265.8281"/><polygon fill="#A80036" points="387.5,261.8281,377.5,265.8281,387.5,269.8281,383.5,265.8281" style="stroke:#A80036;stroke-width:1.0;"/><line style="stroke:#A80036;stroke-width:1.0;" x1="377.5" x2="424.5" y1="284.9609" y2="284.9609"/><line style="stroke:#A80036;stroke-width:1.0;" x1="424.5" x2="424.5" y1="284.9609" y2="297.9609"/><line style="stroke:#A80036;stroke-width:1.0;" x1="383.5" x2="424.5" y1="297.9609" y2="297.9609"/><polygon fill="#A80036" points="393.5,293.9609,383.5,297.9609,393.5,301.9609,389.5,297.9609" style="stroke:#A80036;stroke-width:1.0;"/><text fill="#000000" font-family="sans-serif" font-size="13" lengthAdjust="spacing" textLength="104" x="389.5" y="279.895">endGame(false)</text><line style="stroke:#A80036;stroke-width:1.0;stroke-dasharray:2.0,2.0;" x1="382.5" x2="424.5" y1="321.9609" y2="321.9609"/><line style="stroke:#A80036;stroke-width:1.0;stroke-dasharray:2.0,2.0;" x1="424.5" x2="424.5" y1="321.9609" y2="334.9609"/><line style="stroke:#A80036;stroke-width:1.0;stroke-dasharray:2.0,2.0;" x1="377.5" x2="424.5" y1="334.9609" y2="334.9609"/><polygon fill="#A80036" points="387.5,330.9609,377.5,334.9609,387.5,338.9609,383.5,334.9609" style="stroke:#A80036;stroke-width:1.0;"/><polygon fill="#A80036" points="149.5,339.9609,139.5,343.9609,149.5,347.9609,145.5,343.9609" style="stroke:#A80036;stroke-width:1.0;"/><line style="stroke:#A80036;stroke-width:1.0;stroke-dasharray:2.0,2.0;" x1="143.5" x2="371.5" y1="343.9609" y2="343.9609"/><polygon fill="#A80036" points="56.5,353.9609,46.5,357.9609,56.5,361.9609,52.5,357.9609" style="stroke:#A80036;stroke-width:1.0;"/><line style="stroke:#A80036;stroke-width:1.0;stroke-dasharray:2.0,2.0;" x1="50.5" x2="132.5" y1="357.9609" y2="357.9609"/><line style="stroke:#A80036;stroke-width:2.0;" x1="124.5" x2="142.5" y1="348.9609" y2="366.9609"/><line style="stroke:#A80036;stroke-width:2.0;" x1="124.5" x2="142.5" y1="366.9609" y2="348.9609"/><!--MD5=[9b1a4a9291df1d3880dca400eff64bba]
@startuml
actor "Skeleton" as controller
participant "s: Settler" as s
participant "a: Asteroid" as a
participant "g: Game" as game

controller -> s ++:die()
    s-> a ++: removeWorker(s)
    return
    
    s-> game ++:removeSettler(s)
        game-> game ++:removeSteppable(s)
        return
        
        game-> game ++:endGame(false)
        return
    return
return
destroy s
@enduml

PlantUML version 1.2021.3beta7(Unknown compile time)
(GPL source distribution)
Java Runtime: Java(TM) SE Runtime Environment
JVM: Java HotSpot(TM) 64-Bit Server VM
Default Encoding: UTF-8
Language: en
Country: US
--></g></svg>