<?xml version="1.0" encoding="UTF-8" standalone="no"?><svg xmlns="http://www.w3.org/2000/svg" xmlns:xlink="http://www.w3.org/1999/xlink" contentScriptType="application/ecmascript" contentStyleType="text/css" height="396px" preserveAspectRatio="none" style="width:450px;height:396px;" version="1.1" viewBox="0 0 450 396" width="450px" zoomAndPan="magnify"><defs><filter height="300%" id="f1sdo8qjk6egec" width="300%" x="-1" y="-1"><feGaussianBlur result="blurOut" stdDeviation="2.0"/><feColorMatrix in="blurOut" result="blurOut2" type="matrix" values="0 0 0 0 0 0 0 0 0 0 0 0 0 0 0 0 0 0 .4 0"/><feOffset dx="4.0" dy="4.0" in="blurOut2" result="blurOut3"/><feBlend in="SourceGraphic" in2="blurOut3" mode="normal"/></filter></defs><g><rect fill="#FFFFFF" filter="url(#f1sdo8qjk6egec)" height="174.5313" style="stroke:#A80036;stroke-width:1.0;" width="10" x="128.5" y="119.4297"/><rect fill="#FFFFFF" filter="url(#f1sdo8qjk6egec)" height="131.3984" style="stroke:#A80036;stroke-width:1.0;" width="10" x="229" y="148.5625"/><rect fill="#FFFFFF" filter="url(#f1sdo8qjk6egec)" height="14" style="stroke:#A80036;stroke-width:1.0;" width="10" x="234" y="230.9609"/><rect fill="#FFFFFF" filter="url(#f1sdo8qjk6egec)" height="57.1328" style="stroke:#A80036;stroke-width:1.0;" width="10" x="381" y="201.8281"/><rect fill="#FFFFFF" filter="url(#f1sdo8qjk6egec)" height="103.3984" style="stroke:#000000;stroke-width:2.0;" width="260" x="176" y="163.5625"/><line style="stroke:#A80036;stroke-width:1.0;stroke-dasharray:5.0,5.0;" x1="45" x2="45" y1="88.2969" y2="311.9609"/><line style="stroke:#A80036;stroke-width:1.0;stroke-dasharray:5.0,5.0;" x1="133" x2="133" y1="88.2969" y2="311.9609"/><line style="stroke:#A80036;stroke-width:1.0;stroke-dasharray:5.0,5.0;" x1="234" x2="234" y1="88.2969" y2="311.9609"/><line style="stroke:#A80036;stroke-width:1.0;stroke-dasharray:5.0,5.0;" x1="386" x2="386" y1="88.2969" y2="311.9609"/><text fill="#000000" font-family="sans-serif" font-size="14" lengthAdjust="spacing" textLength="65" x="10" y="84.9951">Skeleton</text><ellipse cx="45.5" cy="15" fill="#FEFECE" filter="url(#f1sdo8qjk6egec)" rx="8" ry="8" style="stroke:#A80036;stroke-width:2.0;"/><path d="M45.5,23 L45.5,50 M32.5,31 L58.5,31 M45.5,50 L32.5,65 M45.5,50 L58.5,65 " fill="none" filter="url(#f1sdo8qjk6egec)" style="stroke:#A80036;stroke-width:2.0;"/><text fill="#000000" font-family="sans-serif" font-size="14" lengthAdjust="spacing" textLength="65" x="10" y="323.9561">Skeleton</text><ellipse cx="45.5" cy="337.2578" fill="#FEFECE" filter="url(#f1sdo8qjk6egec)" rx="8" ry="8" style="stroke:#A80036;stroke-width:2.0;"/><path d="M45.5,345.2578 L45.5,372.2578 M32.5,353.2578 L58.5,353.2578 M45.5,372.2578 L32.5,387.2578 M45.5,372.2578 L58.5,387.2578 " fill="none" filter="url(#f1sdo8qjk6egec)" style="stroke:#A80036;stroke-width:2.0;"/><rect fill="#FEFECE" filter="url(#f1sdo8qjk6egec)" height="30.2969" style="stroke:#A80036;stroke-width:1.5;" width="81" x="91" y="53"/><text fill="#000000" font-family="sans-serif" font-size="14" lengthAdjust="spacing" textLength="67" x="98" y="72.9951">s: Settler</text><rect fill="#FEFECE" filter="url(#f1sdo8qjk6egec)" height="30.2969" style="stroke:#A80036;stroke-width:1.5;" width="81" x="91" y="310.9609"/><text fill="#000000" font-family="sans-serif" font-size="14" lengthAdjust="spacing" textLength="67" x="98" y="330.9561">s: Settler</text><rect fill="#FEFECE" filter="url(#f1sdo8qjk6egec)" height="30.2969" style="stroke:#A80036;stroke-width:1.5;" width="92" x="186" y="53"/><text fill="#000000" font-family="sans-serif" font-size="14" lengthAdjust="spacing" textLength="78" x="193" y="72.9951">a: Asteroid</text><rect fill="#FEFECE" filter="url(#f1sdo8qjk6egec)" height="30.2969" style="stroke:#A80036;stroke-width:1.5;" width="92" x="186" y="310.9609"/><text fill="#000000" font-family="sans-serif" font-size="14" lengthAdjust="spacing" textLength="78" x="193" y="330.9561">a: Asteroid</text><rect fill="#FEFECE" filter="url(#f1sdo8qjk6egec)" height="30.2969" style="stroke:#A80036;stroke-width:1.5;" width="76" x="346" y="53"/><text fill="#000000" font-family="sans-serif" font-size="14" lengthAdjust="spacing" textLength="62" x="353" y="72.9951">core: Ice</text><rect fill="#FEFECE" filter="url(#f1sdo8qjk6egec)" height="30.2969" style="stroke:#A80036;stroke-width:1.5;" width="76" x="346" y="310.9609"/><text fill="#000000" font-family="sans-serif" font-size="14" lengthAdjust="spacing" textLength="62" x="353" y="330.9561">core: Ice</text><rect fill="#FFFFFF" filter="url(#f1sdo8qjk6egec)" height="174.5313" style="stroke:#A80036;stroke-width:1.0;" width="10" x="128.5" y="119.4297"/><rect fill="#FFFFFF" filter="url(#f1sdo8qjk6egec)" height="131.3984" style="stroke:#A80036;stroke-width:1.0;" width="10" x="229" y="148.5625"/><rect fill="#FFFFFF" filter="url(#f1sdo8qjk6egec)" height="14" style="stroke:#A80036;stroke-width:1.0;" width="10" x="234" y="230.9609"/><rect fill="#FFFFFF" filter="url(#f1sdo8qjk6egec)" height="57.1328" style="stroke:#A80036;stroke-width:1.0;" width="10" x="381" y="201.8281"/><polygon fill="#A80036" points="116.5,115.4297,126.5,119.4297,116.5,123.4297,120.5,119.4297" style="stroke:#A80036;stroke-width:1.0;"/><line style="stroke:#A80036;stroke-width:1.0;" x1="45.5" x2="122.5" y1="119.4297" y2="119.4297"/><text fill="#000000" font-family="sans-serif" font-size="13" lengthAdjust="spacing" textLength="32" x="52.5" y="114.3638">drill()</text><polygon fill="#A80036" points="217,144.5625,227,148.5625,217,152.5625,221,148.5625" style="stroke:#A80036;stroke-width:1.0;"/><line style="stroke:#A80036;stroke-width:1.0;" x1="138.5" x2="223" y1="148.5625" y2="148.5625"/><text fill="#000000" font-family="sans-serif" font-size="13" lengthAdjust="spacing" textLength="48" x="145.5" y="143.4966">drilled()</text><path d="M176,163.5625 L248,163.5625 L248,170.5625 L238,180.5625 L176,180.5625 L176,163.5625 " fill="#EEEEEE" style="stroke:#000000;stroke-width:1.0;"/><rect fill="none" height="103.3984" style="stroke:#000000;stroke-width:2.0;" width="260" x="176" y="163.5625"/><text fill="#000000" font-family="sans-serif" font-size="13" font-weight="bold" lengthAdjust="spacing" textLength="27" x="191" y="176.6294">opt</text><text fill="#000000" font-family="sans-serif" font-size="11" font-weight="bold" lengthAdjust="spacing" textLength="75" x="263" y="175.7729">[isExposed]</text><polygon fill="#A80036" points="369,197.8281,379,201.8281,369,205.8281,373,201.8281" style="stroke:#A80036;stroke-width:1.0;"/><line style="stroke:#A80036;stroke-width:1.0;" x1="239" x2="375" y1="201.8281" y2="201.8281"/><text fill="#000000" font-family="sans-serif" font-size="13" lengthAdjust="spacing" textLength="73" x="246" y="196.7622">exposed(a)</text><polygon fill="#A80036" points="255,226.9609,245,230.9609,255,234.9609,251,230.9609" style="stroke:#A80036;stroke-width:1.0;"/><line style="stroke:#A80036;stroke-width:1.0;" x1="249" x2="380" y1="230.9609" y2="230.9609"/><text fill="#000000" font-family="sans-serif" font-size="13" lengthAdjust="spacing" textLength="118" x="261" y="225.895">removeMaterial(a)</text><polygon fill="#A80036" points="369,240.9609,379,244.9609,369,248.9609,373,244.9609" style="stroke:#A80036;stroke-width:1.0;"/><line style="stroke:#A80036;stroke-width:1.0;stroke-dasharray:2.0,2.0;" x1="239" x2="375" y1="244.9609" y2="244.9609"/><polygon fill="#A80036" points="250,254.9609,240,258.9609,250,262.9609,246,258.9609" style="stroke:#A80036;stroke-width:1.0;"/><line style="stroke:#A80036;stroke-width:1.0;stroke-dasharray:2.0,2.0;" x1="244" x2="385" y1="258.9609" y2="258.9609"/><polygon fill="#A80036" points="149.5,275.9609,139.5,279.9609,149.5,283.9609,145.5,279.9609" style="stroke:#A80036;stroke-width:1.0;"/><line style="stroke:#A80036;stroke-width:1.0;stroke-dasharray:2.0,2.0;" x1="143.5" x2="233" y1="279.9609" y2="279.9609"/><polygon fill="#A80036" points="56.5,289.9609,46.5,293.9609,56.5,297.9609,52.5,293.9609" style="stroke:#A80036;stroke-width:1.0;"/><line style="stroke:#A80036;stroke-width:1.0;stroke-dasharray:2.0,2.0;" x1="50.5" x2="132.5" y1="293.9609" y2="293.9609"/><!--MD5=[748d3e9fba0f4406e884d4fdec8a7ab1]
@startuml
actor "Skeleton" as player
participant "s: Settler" as s
participant "a: Asteroid" as a
participant "core: Ice" as core

player->s ++: drill()
    s->a ++ :drilled()
            opt isExposed
                a-> core++: exposed(a)
                    core-> a++: removeMaterial(a)
                    return
                return
            end
        return
return
@enduml

PlantUML version 1.2021.3beta7(Unknown compile time)
(GPL source distribution)
Java Runtime: Java(TM) SE Runtime Environment
JVM: Java HotSpot(TM) 64-Bit Server VM
Default Encoding: UTF-8
Language: en
Country: US
--></g></svg>